<svg width="438" height="387" viewBox="0 0 438 387" fill="none" xmlns="http://www.w3.org/2000/svg">
<g clip-path="url(#clip0)">
<path d="M3.89367 190.48C15.0133 188.927 28.2857 181.162 37.4075 194.377C43.6953 203.54 42.0536 216.118 56.1158 216.724C61.6757 216.988 66.6934 215.171 71.7267 218.416C76.1095 221.243 78.3242 226.507 80.2446 231.135C81.8862 235.11 82.676 240.716 85.2469 244.226C89.4438 249.956 95.0811 248.201 101.322 248.884C107.254 249.521 113.216 251.695 116.949 256.649C121.905 263.249 119.427 271.153 122.152 278.157C122.152 278.157 127.712 307.445 96.0568 305.426C88.5766 304.96 81.2048 305.783 74.375 301.109C69.2488 297.568 66.8173 291.683 65.9346 285.766C65.0054 279.554 66.5076 273.824 60.638 269.864C57.0296 267.426 51.3458 266.867 47.3812 265.376C42.7351 263.653 37.3611 261.649 34.3566 257.379C30.903 252.472 32.5136 247.378 32.0181 241.85C30.7946 227.874 18.374 229.939 8.9734 224.022C-4.63967 215.435 2.59276 201.831 3.69234 190.619L3.89367 190.48Z" fill="#26225B"/>
<path d="M122.369 305.115C122.309 305.117 122.25 305.107 122.194 305.086C122.138 305.065 122.087 305.032 122.044 304.991L22.8188 209.534C22.7738 209.489 22.7382 209.436 22.7138 209.377C22.6895 209.318 22.6769 209.256 22.6769 209.192C22.6769 209.129 22.6895 209.066 22.7138 209.007C22.7382 208.948 22.7738 208.895 22.8188 208.85C22.8621 208.806 22.9139 208.77 22.971 208.746C23.0282 208.722 23.0897 208.709 23.1518 208.709C23.2138 208.709 23.2753 208.722 23.3325 208.746C23.3897 208.77 23.4414 208.806 23.4847 208.85L122.71 304.37C122.797 304.462 122.846 304.584 122.846 304.711C122.846 304.839 122.797 304.961 122.71 305.053C122.606 305.111 122.487 305.132 122.369 305.115Z" fill="white"/>
<path d="M64.3704 249.319C64.2554 249.321 64.1437 249.281 64.0556 249.207C63.9675 249.133 63.9089 249.029 63.8903 248.916L60.7929 227.175C60.788 227.056 60.8271 226.939 60.9027 226.848C60.9784 226.756 61.0852 226.696 61.2025 226.678C61.3199 226.661 61.4395 226.688 61.5383 226.754C61.6371 226.82 61.7081 226.92 61.7376 227.035L64.835 248.776C64.8528 248.901 64.8205 249.029 64.7451 249.131C64.6697 249.232 64.5573 249.3 64.4324 249.319H64.3704Z" fill="white"/>
<path d="M80.3684 286.418C80.2547 286.409 80.1479 286.36 80.0671 286.279C79.9864 286.198 79.9369 286.092 79.9276 285.978C79.9183 285.864 79.9497 285.75 80.0163 285.657C80.0829 285.564 80.1802 285.498 80.2909 285.471L99.7271 282.365C99.8516 282.351 99.9768 282.385 100.077 282.46C100.178 282.535 100.246 282.645 100.269 282.769C100.287 282.894 100.255 283.022 100.179 283.124C100.104 283.225 99.9915 283.293 99.8665 283.312L80.4458 286.341L80.3684 286.418Z" fill="white"/>
<path d="M51.9033 237.346L35.8898 236.151C35.8267 236.147 35.765 236.13 35.7082 236.102C35.6515 236.074 35.6008 236.036 35.559 235.988C35.5173 235.94 35.4854 235.885 35.4651 235.825C35.4447 235.765 35.4364 235.701 35.4406 235.638C35.4445 235.576 35.4609 235.514 35.489 235.458C35.517 235.402 35.556 235.352 35.6038 235.312C35.6515 235.271 35.7069 235.24 35.7667 235.222C35.8265 235.203 35.8894 235.197 35.9517 235.203L51.9808 236.399C52.0914 236.419 52.1914 236.478 52.2635 236.564C52.3355 236.651 52.375 236.76 52.375 236.873C52.375 236.985 52.3355 237.095 52.2635 237.181C52.1914 237.268 52.0914 237.326 51.9808 237.346H51.9033Z" fill="white"/>
<path d="M66.5846 220.519C47.5445 188.592 31.6665 144.633 43.9349 96.1708C88.0969 128.415 107.419 168.234 115.698 200.045C119.857 216.024 121.23 229.983 121.563 239.944C121.729 244.924 121.636 248.905 121.501 251.637C121.433 253.004 121.356 254.058 121.295 254.77C121.265 255.126 121.238 255.396 121.22 255.576C121.215 255.624 121.211 255.665 121.207 255.7L107.606 272.108C107.449 271.965 107.247 271.777 107.001 271.547C106.356 270.943 105.412 270.043 104.219 268.861C101.833 266.499 98.4499 263.014 94.4682 258.525C86.5043 249.546 76.1493 236.557 66.5846 220.519Z" stroke="black"/>
<path d="M43.6081 95.3246L43.6134 95.3294L43.6081 95.3246Z" stroke="black"/>
<path d="M83.5277 133.55L77.9524 178.584L83.5277 133.55Z" fill="white"/>
<path d="M77.9526 179.019C77.89 179.014 77.8292 178.995 77.7739 178.965C77.7186 178.935 77.6699 178.894 77.6308 178.845C77.5917 178.796 77.563 178.739 77.5464 178.678C77.5299 178.617 77.5258 178.554 77.5344 178.491L83.1252 133.457C83.1329 133.396 83.1526 133.336 83.1833 133.283C83.214 133.229 83.2551 133.182 83.3041 133.144C83.3531 133.107 83.4091 133.079 83.4688 133.064C83.5285 133.048 83.5907 133.045 83.6518 133.053C83.7144 133.059 83.7752 133.077 83.8305 133.107C83.8858 133.137 83.9345 133.178 83.9736 133.227C84.0127 133.277 84.0414 133.334 84.0579 133.394C84.0745 133.455 84.0786 133.519 84.0699 133.581L78.4791 178.616C78.4715 178.677 78.4518 178.736 78.4211 178.79C78.3904 178.844 78.3493 178.891 78.3003 178.928C78.2513 178.966 78.1953 178.993 78.1356 179.009C78.0759 179.024 78.0137 179.028 77.9526 179.019Z" fill="#0C5AE5"/>
<path d="M87.1672 200.931L46.7461 178.196L87.1672 200.931Z" fill="white"/>
<path d="M87.1673 201.412C87.0905 201.426 87.0118 201.426 86.935 201.412L46.5139 178.584C46.4532 178.557 46.3989 178.518 46.3543 178.468C46.3097 178.419 46.2758 178.36 46.2548 178.297C46.2338 178.234 46.2262 178.167 46.2324 178.101C46.2385 178.034 46.2584 177.97 46.2907 177.911C46.323 177.853 46.367 177.802 46.42 177.762C46.4729 177.722 46.5337 177.693 46.5983 177.677C46.663 177.662 46.7302 177.66 46.7956 177.671C46.8611 177.683 46.9233 177.709 46.9785 177.746L87.3996 200.48C87.5101 200.543 87.5917 200.646 87.6265 200.768C87.6613 200.89 87.6466 201.021 87.5854 201.133C87.5498 201.215 87.4914 201.284 87.4173 201.334C87.3432 201.384 87.2564 201.411 87.1673 201.412Z" fill="#26225B"/>
<path d="M53.0803 195.185L94.1363 217.811L53.0803 195.185Z" fill="white"/>
<path d="M94.1364 218.277C94.0598 218.293 93.9808 218.293 93.9041 218.277L52.8481 195.666C52.7376 195.604 52.656 195.501 52.6212 195.379C52.5864 195.256 52.6011 195.125 52.6623 195.014C52.727 194.906 52.8301 194.827 52.9509 194.792C53.0716 194.758 53.2009 194.77 53.3127 194.828L94.3533 217.407C94.4492 217.453 94.5262 217.531 94.5716 217.628C94.6169 217.725 94.6278 217.834 94.6024 217.938C94.577 218.041 94.5169 218.133 94.4321 218.198C94.3472 218.262 94.2429 218.296 94.1364 218.292V218.277Z" fill="#26225B"/>
<path d="M43.6333 95.333L114.099 266.246L43.6333 95.333Z" fill="white"/>
<path d="M114.099 266.727C114.006 266.728 113.914 266.7 113.837 266.647C113.76 266.594 113.7 266.52 113.666 266.432L43.1997 95.5194C43.1747 95.4615 43.1617 95.3991 43.1615 95.336C43.1613 95.2729 43.1739 95.2104 43.1985 95.1523C43.2232 95.0942 43.2593 95.0417 43.3048 94.998C43.3502 94.9544 43.4041 94.9204 43.463 94.8983C43.5782 94.8511 43.7072 94.8506 43.8228 94.897C43.9384 94.9433 44.0315 95.0329 44.0825 95.1467L114.548 266.075C114.594 266.193 114.593 266.324 114.543 266.44C114.494 266.556 114.401 266.648 114.285 266.696C114.227 266.722 114.163 266.733 114.099 266.727Z" fill="#26225B"/>
<path d="M428.888 137.821L424.428 109.511L431.335 103.89L413.354 81.6208L406.432 87.2268L379.748 76.9466L378.369 68.1416L350.121 72.6295L351.515 81.4345L329.291 99.4637L320.99 96.2803L310.753 123.037L319.054 126.236L323.514 154.545L316.607 160.167L334.588 182.436L341.51 176.83L368.194 187.11L369.573 195.915L397.821 191.427L396.427 182.622L418.651 164.608L426.936 167.807L437.189 141.051L428.888 137.821ZM395.328 140.243C393.707 144.479 390.871 148.137 387.177 150.756C383.483 153.375 379.097 154.837 374.575 154.957C370.052 155.077 365.596 153.849 361.769 151.429C357.942 149.009 354.917 145.506 353.076 141.362C351.235 137.218 350.661 132.62 351.426 128.149C352.191 123.678 354.261 119.535 357.375 116.244C360.488 112.952 364.505 110.661 368.918 109.659C373.33 108.656 377.94 108.989 382.164 110.614C387.828 112.792 392.397 117.138 394.865 122.695C397.334 128.251 397.5 134.564 395.328 140.243Z" fill="white"/>
<path d="M369.573 196.381C369.472 196.381 369.374 196.348 369.294 196.288C369.242 196.252 369.199 196.206 369.167 196.153C369.135 196.099 369.115 196.039 369.108 195.977L367.776 187.452L341.603 177.358L334.897 182.793C334.805 182.88 334.683 182.929 334.557 182.929C334.43 182.929 334.308 182.88 334.216 182.793L316.235 160.524C316.152 160.43 316.105 160.309 316.105 160.183C316.105 160.056 316.152 159.935 316.235 159.841L322.926 154.406L318.558 126.64L310.505 123.534C310.446 123.512 310.392 123.478 310.346 123.434C310.3 123.391 310.263 123.339 310.237 123.281C310.212 123.224 310.197 123.161 310.195 123.098C310.194 123.035 310.204 122.972 310.226 122.913L320.463 96.1561C320.517 96.0397 320.611 95.9462 320.727 95.8922C320.841 95.8464 320.969 95.8464 321.083 95.8922L329.136 98.998L350.926 81.3259L349.579 72.7849C349.565 72.7233 349.565 72.6594 349.578 72.5978C349.592 72.5361 349.618 72.4781 349.656 72.4277C349.733 72.3287 349.843 72.2622 349.966 72.2414L378.214 67.7535C378.339 67.7314 378.467 67.7593 378.571 67.8311C378.677 67.9096 378.749 68.0265 378.772 68.1572L380.104 76.6827L406.277 86.7611L412.983 81.3259C413.072 81.2395 413.191 81.1913 413.316 81.1913C413.44 81.1913 413.559 81.2395 413.649 81.3259L431.629 103.595C431.674 103.638 431.709 103.69 431.733 103.747C431.757 103.805 431.77 103.866 431.77 103.928C431.77 103.991 431.757 104.052 431.733 104.11C431.709 104.167 431.674 104.219 431.629 104.262L424.923 109.713L429.306 137.479L437.344 140.585C437.402 140.606 437.456 140.638 437.502 140.68C437.547 140.722 437.585 140.772 437.61 140.829C437.636 140.885 437.651 140.946 437.653 141.008C437.655 141.07 437.645 141.132 437.623 141.19L427.37 167.947C427.349 168.005 427.315 168.059 427.273 168.104C427.23 168.15 427.179 168.186 427.122 168.211C427.064 168.238 427.001 168.251 426.937 168.251C426.872 168.251 426.809 168.238 426.751 168.211L418.728 165.105L396.923 182.793L398.286 191.334C398.294 191.394 398.29 191.455 398.274 191.514C398.258 191.573 398.23 191.628 398.193 191.675C398.117 191.778 398.007 191.85 397.883 191.877L369.635 196.365L369.573 196.381ZM341.51 176.348C341.566 176.332 341.625 176.332 341.681 176.348L368.365 186.629C368.443 186.656 368.512 186.704 368.566 186.766C368.621 186.829 368.658 186.904 368.674 186.986L369.975 195.325L397.263 191.008L395.947 182.669C395.932 182.585 395.94 182.499 395.97 182.42C396 182.34 396.051 182.271 396.117 182.218L418.341 164.189C418.413 164.151 418.493 164.131 418.574 164.131C418.655 164.131 418.734 164.151 418.806 164.189L426.642 167.202L436.569 141.315L428.718 138.209C428.64 138.179 428.571 138.129 428.519 138.063C428.468 137.997 428.434 137.919 428.423 137.836L423.963 109.527C423.948 109.443 423.956 109.357 423.986 109.278C424.016 109.198 424.067 109.129 424.133 109.076L430.669 103.765L413.292 82.3042L406.741 87.5996C406.675 87.6529 406.596 87.688 406.512 87.7016C406.427 87.7152 406.341 87.7068 406.261 87.6773L379.577 77.397C379.499 77.3671 379.431 77.3167 379.379 77.2511C379.327 77.1856 379.294 77.1072 379.283 77.0243L377.982 68.7008L350.663 72.9868L351.995 81.3259C352.002 81.4066 351.99 81.4878 351.96 81.5632C351.931 81.6386 351.884 81.7062 351.825 81.7607L329.601 99.8365C329.527 99.8773 329.445 99.8987 329.361 99.8987C329.277 99.8987 329.194 99.8773 329.121 99.8365L321.269 96.7307L311.373 122.602L319.224 125.708C319.303 125.74 319.372 125.79 319.426 125.855C319.48 125.92 319.517 125.998 319.534 126.081L323.994 154.39C324.001 154.471 323.989 154.552 323.96 154.628C323.93 154.703 323.884 154.77 323.824 154.825L317.273 160.151L334.665 181.69L341.216 176.379C341.308 176.338 341.411 176.327 341.51 176.348ZM374.033 155.446C370.243 155.446 366.509 154.521 363.155 152.752C359.8 150.983 356.925 148.422 354.778 145.29C352.63 142.159 351.274 138.55 350.827 134.776C350.38 131.002 350.855 127.176 352.212 123.627C354.693 118.221 359.135 113.965 364.633 111.724C370.132 109.483 376.275 109.426 381.815 111.563C387.354 113.701 391.874 117.873 394.456 123.232C397.038 128.591 397.488 134.734 395.715 140.414C394.023 144.813 391.051 148.599 387.184 151.28C383.317 153.961 378.734 155.413 374.033 155.446ZM374.033 109.573C370.696 109.568 367.399 110.312 364.385 111.748C361.371 113.185 358.715 115.279 356.612 117.878C354.509 120.476 353.012 123.513 352.23 126.766C351.448 130.019 351.401 133.407 352.092 136.681C352.783 139.954 354.196 143.032 356.226 145.688C358.256 148.344 360.853 150.512 363.826 152.032C366.799 153.552 370.073 154.387 373.409 154.476C376.746 154.564 380.059 153.903 383.108 152.542C387.793 150.451 391.62 146.811 393.95 142.23C396.28 137.65 396.971 132.406 395.909 127.376C394.846 122.346 392.094 117.833 388.113 114.593C384.131 111.353 379.161 109.581 374.033 109.573Z" fill="#26225B"/>
<path d="M71.8816 128.891H369.232C370.481 128.9 371.716 129.154 372.866 129.641C374.017 130.128 375.061 130.837 375.938 131.728C376.815 132.619 377.509 133.675 377.979 134.835C378.449 135.995 378.687 137.236 378.679 138.488V313.408H62.3571V138.488C62.3489 137.23 62.5894 135.982 63.0645 134.817C63.5397 133.652 64.2402 132.593 65.1257 131.7C66.0111 130.808 67.064 130.101 68.2235 129.619C69.3831 129.136 70.6263 128.889 71.8816 128.891Z" fill="#756FBF"/>
<path d="M364.199 142.044H76.9148V300.317H364.199V142.044Z" fill="white"/>
<path d="M47.4586 313.408H393.64V319.092C393.64 320.27 393.408 321.437 392.958 322.526C392.508 323.615 391.849 324.605 391.018 325.438C390.186 326.272 389.2 326.933 388.114 327.384C387.028 327.835 385.864 328.067 384.688 328.067H56.3636C53.9895 328.067 51.7127 327.122 50.034 325.438C48.3552 323.755 47.4121 321.472 47.4121 319.092V313.408H47.4586Z" fill="#26225B"/>
<path d="M384.688 328.533H56.3637C53.8649 328.533 51.4683 327.539 49.7 325.769C47.9317 323.998 46.9362 321.597 46.9321 319.091V313.408C46.932 313.345 46.9445 313.283 46.9689 313.226C46.9932 313.168 47.0288 313.116 47.0736 313.073C47.1184 313.029 47.1714 312.995 47.2296 312.973C47.2878 312.95 47.3499 312.94 47.4122 312.942H393.64C393.702 312.94 393.764 312.95 393.822 312.973C393.88 312.995 393.933 313.029 393.978 313.073C394.023 313.116 394.059 313.168 394.083 313.226C394.107 313.283 394.12 313.345 394.12 313.408V319.091C394.116 321.597 393.12 323.998 391.352 325.769C389.583 327.539 387.187 328.533 384.688 328.533ZM47.9387 313.889V319.091C47.9285 320.213 48.1401 321.326 48.5612 322.366C48.9824 323.406 49.6047 324.351 50.3924 325.148C51.1801 325.945 52.1174 326.578 53.1503 327.01C54.1831 327.441 55.2911 327.664 56.4101 327.663H384.735C386.981 327.663 389.136 326.769 390.725 325.176C392.313 323.583 393.206 321.422 393.206 319.169V313.967L47.9387 313.889Z" fill="#26225B"/>
<path d="M195.932 313.408H245.15V314.728C245.15 316.161 244.582 317.536 243.572 318.549C242.561 319.563 241.19 320.132 239.761 320.132H201.337C199.908 320.132 198.537 319.563 197.526 318.549C196.516 317.536 195.948 316.161 195.948 314.728V313.408H195.932Z" fill="black"/>
<path d="M405.348 178.445H266.476C260.018 178.445 254.783 183.694 254.783 190.169V275.61C254.783 282.085 260.018 287.334 266.476 287.334H405.348C411.805 287.334 417.04 282.085 417.04 275.61V190.169C417.04 183.694 411.805 178.445 405.348 178.445Z" fill="#756FBF"/>
<path d="M405.363 287.8H266.476C263.25 287.796 260.158 286.508 257.878 284.22C255.599 281.931 254.318 278.829 254.318 275.595V190.185C254.318 186.95 255.599 183.848 257.878 181.559C260.158 179.271 263.25 177.983 266.476 177.979H405.363C408.589 177.983 411.681 179.271 413.961 181.559C416.24 183.848 417.52 186.95 417.52 190.185V275.595C417.52 278.829 416.24 281.931 413.961 284.22C411.681 286.508 408.589 287.796 405.363 287.8ZM266.476 178.926C263.502 178.926 260.65 180.111 258.547 182.219C256.445 184.328 255.263 187.187 255.263 190.169V275.579C255.263 278.562 256.444 281.424 258.546 283.535C260.649 285.646 263.501 286.833 266.476 286.838H405.363C408.338 286.833 411.19 285.646 413.293 283.535C415.395 281.424 416.576 278.562 416.576 275.579V190.169C416.576 188.693 416.286 187.231 415.722 185.867C415.159 184.502 414.333 183.263 413.292 182.219C412.251 181.175 411.014 180.347 409.654 179.782C408.294 179.217 406.836 178.926 405.363 178.926H266.476Z" fill="#756FBF"/>
<path d="M417.056 328.533H24.3675C24.3052 328.535 24.2431 328.524 24.1849 328.502C24.1268 328.479 24.0737 328.445 24.0289 328.402C23.9841 328.358 23.9485 328.306 23.9242 328.249C23.8999 328.191 23.8874 328.129 23.8874 328.067C23.8874 327.939 23.938 327.817 24.028 327.727C24.118 327.637 24.2402 327.586 24.3675 327.586H417.056C417.118 327.586 417.18 327.598 417.237 327.623C417.295 327.647 417.347 327.683 417.39 327.728C417.433 327.773 417.467 327.826 417.49 327.884C417.512 327.942 417.522 328.005 417.52 328.067C417.523 328.129 417.512 328.19 417.489 328.248C417.467 328.305 417.433 328.357 417.389 328.401C417.346 328.445 417.293 328.479 417.236 328.502C417.179 328.524 417.117 328.535 417.056 328.533Z" fill="#2D71F0"/>
<path d="M128.316 227.221H229.802V166.844L128.316 182.047V227.221Z" fill="#C42128"/>
<path d="M167.127 67.0546C167.127 67.0546 178.804 51.5256 183.094 49.9727C188.204 52.5505 196.831 61.1536 196.831 61.1536L192.541 65.8123L198.07 63.2966L203.955 69.384L184.054 88.7332L167.127 67.0546Z" fill="#26225B"/>
<path d="M270.27 125.786C270.27 125.786 269.697 113.362 275.195 109.356C277.797 107.492 288.297 103.331 288.297 103.331L290.403 107.399L283.325 111.064L298.565 111.701L306.494 104.588L309.498 106.98L300.206 121.391L288.529 125.786H270.27Z" fill="white"/>
<path d="M288.529 126.236H270.27C270.148 126.236 270.03 126.19 269.941 126.106C269.852 126.022 269.798 125.908 269.79 125.786C269.79 125.258 269.263 113.005 274.932 108.952C277.533 107.073 287.677 103.035 288.111 102.865C288.223 102.828 288.344 102.831 288.454 102.873C288.565 102.915 288.657 102.995 288.715 103.098L290.883 107.151C290.91 107.209 290.923 107.273 290.923 107.337C290.923 107.401 290.91 107.465 290.883 107.523C290.842 107.642 290.76 107.741 290.651 107.803L285.168 110.629L298.41 111.188L306.153 104.2C306.238 104.128 306.345 104.088 306.455 104.088C306.566 104.088 306.673 104.128 306.757 104.2L309.762 106.576C309.858 106.648 309.924 106.754 309.944 106.873C309.964 106.991 309.938 107.113 309.87 107.213L300.578 121.624C300.524 121.714 300.443 121.785 300.346 121.826L288.545 126.189C288.541 126.205 288.536 126.221 288.529 126.236ZM270.766 125.289H288.452L300.021 121.003L308.987 107.151L306.633 105.287L298.998 112.135C298.953 112.179 298.9 112.212 298.841 112.234C298.782 112.255 298.72 112.264 298.658 112.26L283.434 111.623C283.327 111.616 283.226 111.574 283.145 111.504C283.064 111.434 283.008 111.339 282.985 111.235C282.963 111.132 282.975 111.024 283.02 110.929C283.065 110.833 283.139 110.755 283.233 110.707L289.815 107.151L288.096 103.874C286.16 104.65 277.75 108.082 275.505 109.682C270.858 113.067 270.735 123.021 270.766 125.289Z" fill="#26225B"/>
<path d="M126.845 385.571L142.688 369.235H156.069V385.571H126.845Z" fill="black"/>
<path d="M213.99 385.571L203.738 369.235H190.357V385.571H213.99Z" fill="black"/>
<path d="M221.827 226.927V373.567H180.786V256.587H175.443L167.917 373.567H126.845L134.372 256.587L136.292 226.927H221.827Z" fill="white"/>
<path d="M221.827 374.049H180.786C180.659 374.049 180.537 373.998 180.447 373.908C180.357 373.817 180.306 373.695 180.306 373.567V257.099H175.877L168.381 373.567C168.373 373.69 168.319 373.804 168.23 373.888C168.141 373.971 168.023 374.018 167.901 374.018H126.845C126.715 374.013 126.593 373.957 126.504 373.862C126.459 373.815 126.424 373.759 126.403 373.697C126.382 373.636 126.374 373.57 126.38 373.505L135.812 226.864C135.823 226.743 135.878 226.631 135.967 226.548C136.055 226.465 136.171 226.417 136.292 226.414H221.827C221.89 226.414 221.952 226.426 222.01 226.45C222.069 226.475 222.121 226.51 222.166 226.555C222.211 226.6 222.246 226.653 222.27 226.711C222.294 226.769 222.307 226.832 222.307 226.895V373.536C222.311 373.602 222.302 373.668 222.279 373.73C222.257 373.792 222.223 373.849 222.178 373.897C222.132 373.945 222.078 373.983 222.018 374.009C221.957 374.035 221.892 374.049 221.827 374.049ZM181.266 373.086H221.362V227.392H136.741L127.356 373.086H167.467L174.963 256.618C174.971 256.498 175.022 256.386 175.108 256.303C175.194 256.219 175.308 256.171 175.428 256.168H180.786C180.913 256.168 181.035 256.218 181.126 256.309C181.216 256.399 181.266 256.521 181.266 256.649V373.086Z" fill="#26225B"/>
<path d="M241.387 154.452C241.387 120.552 215.492 105.427 181.7 104.619H179.594C128.75 104.619 112.705 141.687 110.289 148.101C104.931 162.341 89.831 206.987 138.476 227.641C153.111 233.852 163.549 218.789 171.37 214.752C177.4 211.487 183.604 208.558 189.954 205.978L241.387 154.452Z" fill="#C42128"/>
<path d="M232.108 214.774L175.546 158.058L102.82 230.981L159.382 287.697L232.108 214.774Z" fill="#26225B"/>
<path d="M222.85 210.943L179.375 167.35L116.1 230.796L159.575 274.39L222.85 210.943Z" fill="white"/>
<path d="M218.869 195.744L211.296 203.338L186.95 178.942L194.523 171.348L202.824 179.656C203.895 178.904 205.196 178.554 206.498 178.669C207.8 178.783 209.021 179.353 209.945 180.28C210.87 181.207 211.439 182.431 211.552 183.737C211.666 185.043 211.318 186.347 210.568 187.421L218.869 195.744Z" fill="white"/>
<path d="M211.295 203.819C211.232 203.819 211.17 203.807 211.111 203.783C211.053 203.759 211 203.724 210.955 203.679L186.64 179.268C186.593 179.224 186.557 179.171 186.532 179.112C186.508 179.053 186.498 178.99 186.501 178.926C186.496 178.862 186.507 178.798 186.531 178.739C186.555 178.68 186.592 178.627 186.64 178.584L194.213 170.991C194.258 170.946 194.311 170.91 194.369 170.885C194.428 170.861 194.491 170.848 194.554 170.848C194.617 170.848 194.68 170.861 194.739 170.885C194.797 170.91 194.85 170.946 194.895 170.991L202.917 179.035C204.073 178.335 205.43 178.045 206.77 178.209C208.11 178.374 209.357 178.984 210.311 179.942C211.265 180.901 211.871 182.152 212.033 183.496C212.194 184.84 211.902 186.2 211.203 187.358L219.24 195.402C219.326 195.489 219.376 195.606 219.38 195.728C219.376 195.855 219.326 195.977 219.24 196.07L211.667 203.664C211.62 203.715 211.562 203.756 211.498 203.782C211.434 203.809 211.365 203.822 211.295 203.819ZM187.616 178.973L211.295 202.717L218.187 195.791L210.227 187.809C210.155 187.724 210.115 187.617 210.115 187.506C210.115 187.395 210.155 187.287 210.227 187.203C210.926 186.223 211.256 185.025 211.157 183.824C211.059 182.623 210.539 181.496 209.69 180.643C208.841 179.79 207.718 179.266 206.521 179.165C205.323 179.064 204.129 179.392 203.149 180.091C203.064 180.167 202.954 180.209 202.84 180.209C202.725 180.209 202.615 180.167 202.53 180.091L194.569 172.109L187.616 178.973Z" fill="#26225B"/>
<path d="M167.127 191.272C167.015 191.266 166.907 191.229 166.817 191.163C166.754 191.108 166.707 191.037 166.68 190.958C166.653 190.879 166.647 190.795 166.662 190.713L167.204 187.281C167.211 187.218 167.231 187.158 167.263 187.104C167.295 187.049 167.338 187.003 167.389 186.966C167.44 186.929 167.498 186.904 167.56 186.891C167.621 186.879 167.685 186.879 167.746 186.892C167.871 186.912 167.983 186.979 168.059 187.081C168.134 187.183 168.167 187.31 168.149 187.436L167.715 190.107L173.306 188.352C173.365 188.333 173.427 188.326 173.489 188.331C173.551 188.337 173.611 188.354 173.665 188.383C173.72 188.412 173.769 188.452 173.808 188.5C173.847 188.548 173.877 188.603 173.894 188.663C173.929 188.784 173.917 188.915 173.859 189.027C173.802 189.14 173.703 189.226 173.585 189.268L167.266 191.256L167.127 191.272Z" fill="#26225B"/>
<path d="M200.935 221.01C200.874 221.01 200.814 220.997 200.758 220.973C200.702 220.949 200.651 220.914 200.61 220.87L173.399 193.601C173.354 193.556 173.318 193.503 173.294 193.444C173.27 193.386 173.257 193.323 173.257 193.259C173.257 193.196 173.27 193.133 173.294 193.074C173.318 193.016 173.354 192.962 173.399 192.918C173.493 192.834 173.614 192.787 173.74 192.787C173.865 192.787 173.987 192.834 174.08 192.918L201.275 220.202C201.32 220.246 201.355 220.298 201.379 220.355C201.404 220.412 201.416 220.474 201.416 220.536C201.416 220.598 201.404 220.66 201.379 220.717C201.355 220.775 201.32 220.827 201.275 220.87C201.231 220.915 201.177 220.95 201.119 220.974C201.061 220.998 200.998 221.01 200.935 221.01Z" fill="#26225B"/>
<path d="M159.755 198.679C159.635 198.678 159.52 198.634 159.43 198.555C159.367 198.503 159.32 198.435 159.292 198.359C159.265 198.282 159.259 198.2 159.275 198.12L159.817 194.688C159.836 194.563 159.904 194.45 160.005 194.375C160.107 194.299 160.234 194.267 160.359 194.284C160.485 194.307 160.598 194.378 160.673 194.482C160.748 194.587 160.78 194.716 160.762 194.843L160.343 197.514L165.919 195.744C165.979 195.725 166.042 195.719 166.104 195.725C166.167 195.731 166.228 195.75 166.283 195.781C166.338 195.811 166.386 195.853 166.424 195.902C166.463 195.952 166.491 196.009 166.507 196.07C166.526 196.129 166.533 196.192 166.528 196.254C166.523 196.315 166.505 196.376 166.476 196.431C166.447 196.486 166.408 196.534 166.36 196.574C166.312 196.613 166.257 196.643 166.197 196.66L159.894 198.648L159.755 198.679Z" fill="#26225B"/>
<path d="M193.563 228.417C193.5 228.417 193.437 228.405 193.379 228.381C193.32 228.357 193.267 228.322 193.222 228.277L166.027 201.008C165.982 200.964 165.946 200.91 165.922 200.852C165.898 200.793 165.885 200.73 165.885 200.667C165.885 200.603 165.898 200.54 165.922 200.482C165.946 200.423 165.982 200.37 166.027 200.325C166.07 200.28 166.122 200.245 166.179 200.221C166.237 200.197 166.298 200.184 166.36 200.184C166.422 200.184 166.484 200.197 166.541 200.221C166.598 200.245 166.65 200.28 166.693 200.325L193.888 227.594C193.933 227.639 193.969 227.692 193.993 227.751C194.018 227.809 194.03 227.872 194.03 227.936C194.03 227.999 194.018 228.062 193.993 228.121C193.969 228.179 193.933 228.233 193.888 228.277C193.802 228.365 193.686 228.415 193.563 228.417Z" fill="#26225B"/>
<path d="M152.367 206.071C152.254 206.075 152.143 206.036 152.058 205.962C151.998 205.908 151.951 205.84 151.922 205.765C151.892 205.689 151.88 205.608 151.887 205.527L152.429 202.095C152.452 201.969 152.523 201.856 152.627 201.781C152.731 201.706 152.86 201.674 152.987 201.692C153.109 201.715 153.218 201.784 153.29 201.885C153.362 201.987 153.392 202.112 153.374 202.235L152.956 204.984L158.531 203.229C158.592 203.208 158.656 203.199 158.719 203.203C158.783 203.208 158.846 203.224 158.903 203.253C158.96 203.282 159.011 203.321 159.053 203.37C159.095 203.419 159.126 203.475 159.146 203.536C159.165 203.597 159.173 203.662 159.167 203.726C159.161 203.79 159.143 203.852 159.113 203.908C159.084 203.965 159.043 204.015 158.993 204.056C158.944 204.097 158.887 204.127 158.825 204.145L152.569 206.055L152.367 206.071Z" fill="#26225B"/>
<path d="M186.176 235.825C186.113 235.825 186.05 235.813 185.991 235.789C185.933 235.765 185.88 235.729 185.835 235.685L158.64 208.4C158.551 208.312 158.502 208.192 158.502 208.066C158.502 207.941 158.551 207.821 158.64 207.733C158.728 207.644 158.848 207.594 158.973 207.594C159.098 207.594 159.217 207.644 159.306 207.733L186.516 235.002C186.561 235.046 186.597 235.1 186.621 235.158C186.646 235.217 186.658 235.28 186.658 235.343C186.658 235.407 186.646 235.47 186.621 235.528C186.597 235.587 186.561 235.64 186.516 235.685C186.472 235.729 186.418 235.765 186.36 235.789C186.301 235.813 186.239 235.825 186.176 235.825Z" fill="#26225B"/>
<path d="M177.131 113.766C179.596 113.766 181.959 112.784 183.702 111.037C185.444 109.29 186.423 106.92 186.423 104.449V74.2756H167.839V104.48C167.847 106.945 168.83 109.307 170.572 111.048C172.313 112.789 174.672 113.766 177.131 113.766Z" fill="white"/>
<path d="M177.131 114.247C174.546 114.247 172.067 113.219 170.238 111.387C168.408 109.556 167.379 107.072 167.374 104.48V74.2756C167.374 74.1479 167.425 74.0255 167.515 73.9352C167.605 73.8449 167.727 73.7942 167.855 73.7942H186.439C186.566 73.7942 186.688 73.8449 186.778 73.9352C186.868 74.0255 186.919 74.1479 186.919 74.2756V104.48C186.919 105.766 186.666 107.04 186.173 108.228C185.681 109.417 184.959 110.495 184.049 111.403C183.14 112.311 182.061 113.029 180.873 113.517C179.686 114.005 178.414 114.254 177.131 114.247ZM168.335 74.7415V104.48C168.43 106.753 169.397 108.901 171.035 110.476C172.673 112.051 174.854 112.93 177.124 112.93C179.393 112.93 181.574 112.051 183.212 110.476C184.85 108.901 185.817 106.753 185.912 104.48V74.7415H168.335Z" fill="#26225B"/>
<path d="M194.492 83.7484C194.228 84.373 193.845 84.9394 193.362 85.415C192.88 85.8906 192.309 86.2661 191.682 86.52C191.054 86.7739 190.383 86.9012 189.707 86.8946C189.03 86.888 188.362 86.7476 187.74 86.4815C187.342 86.3133 186.967 86.094 186.625 85.8293C185.597 87.3882 184.258 88.7156 182.691 89.7271C180.181 91.3546 177.21 92.1168 174.229 91.8981C171.248 91.6794 168.419 90.4916 166.172 88.515C163.925 86.5383 162.383 83.8808 161.778 80.9454C161.174 78.0101 161.541 74.9572 162.823 72.25C164.106 69.5427 166.234 67.3288 168.885 65.9442C171.536 64.5596 174.565 64.0798 177.513 64.5776C180.461 65.0754 183.166 66.5236 185.218 68.7026C187.271 70.8816 188.558 73.6724 188.886 76.6516C189.862 76.4743 190.869 76.5877 191.782 76.9777C193.034 77.5178 194.023 78.5333 194.531 79.8021C195.039 81.0709 195.025 82.4898 194.492 83.7484Z" fill="white"/>
<path d="M175.211 92.429C172.492 92.4261 169.831 91.6406 167.544 90.166C165.258 88.6913 163.441 86.5894 162.31 84.11C161.18 81.6306 160.783 78.8779 161.167 76.179C161.55 73.48 162.699 70.9483 164.475 68.8844C166.252 66.8206 168.582 65.3115 171.188 64.5364C173.795 63.7613 176.569 63.7528 179.18 64.5118C181.792 65.2709 184.131 66.7656 185.92 68.8184C187.709 70.8713 188.873 73.3959 189.273 76.0925C190.469 75.9968 191.665 76.2853 192.687 76.9162C193.708 77.5472 194.504 78.4878 194.957 79.602C195.244 80.2853 195.392 81.0192 195.392 81.7606C195.392 82.502 195.244 83.2359 194.957 83.9191C194.672 84.6081 194.254 85.2338 193.728 85.7602C193.201 86.2865 192.575 86.7032 191.887 86.9861C191.199 87.269 190.462 87.4126 189.718 87.4086C188.975 87.4046 188.239 87.2531 187.554 86.9628C187.273 86.8427 187.003 86.6971 186.749 86.528C185.716 87.9357 184.429 89.1367 182.954 90.0686C180.656 91.5911 177.966 92.4111 175.211 92.429ZM175.211 64.896C172.919 64.8903 170.664 65.4807 168.668 66.6094C166.671 67.7381 165 69.3667 163.819 71.3361C162.637 73.3055 161.985 75.5485 161.926 77.846C161.866 80.1436 162.402 82.4174 163.481 84.4452C164.56 86.4731 166.145 88.1859 168.081 89.4163C170.017 90.6468 172.238 91.3529 174.527 91.4657C176.817 91.5785 179.096 91.0942 181.143 90.0601C183.19 89.0259 184.935 87.4772 186.207 85.5652C186.259 85.5038 186.327 85.4571 186.403 85.4299C186.479 85.4027 186.561 85.3958 186.64 85.4099C186.703 85.3972 186.767 85.3989 186.829 85.4151C186.891 85.4312 186.948 85.4613 186.996 85.5031C187.306 85.7414 187.644 85.9396 188.003 86.0932C188.571 86.3479 189.184 86.4855 189.807 86.498C190.429 86.5105 191.047 86.3975 191.625 86.1657C192.203 85.934 192.728 85.5882 193.17 85.1489C193.612 84.7097 193.962 84.1858 194.198 83.6085C194.536 82.8327 194.657 81.9792 194.547 81.1397C194.438 80.3003 194.102 79.5066 193.577 78.8439C193.051 78.1813 192.356 77.6747 191.565 77.3787C190.774 77.0827 189.917 77.0085 189.087 77.164C189.029 77.1906 188.965 77.2043 188.901 77.2043C188.837 77.2043 188.774 77.1906 188.715 77.164C188.662 77.1238 188.617 77.0725 188.585 77.0135C188.553 76.9546 188.534 76.8893 188.53 76.8223C188.282 74.447 187.4 72.1824 185.977 70.2668C184.555 68.3513 182.644 66.8554 180.445 65.9364C178.797 65.246 177.028 64.8923 175.242 64.896H175.211Z" fill="#26225B"/>
<path d="M186.516 83.003C186.446 83.0256 186.37 83.0256 186.3 83.003C186.243 82.9765 186.192 82.9388 186.15 82.8921C186.108 82.8453 186.076 82.7906 186.056 82.7311C186.035 82.6716 186.027 82.6086 186.032 82.5459C186.037 82.4832 186.054 82.4222 186.083 82.3663C186.484 81.644 187.134 81.0922 187.91 80.8134C188.287 80.7169 188.68 80.7001 189.064 80.7643C189.448 80.8285 189.815 80.9721 190.14 81.1861C190.245 81.2534 190.321 81.358 190.353 81.4788C190.384 81.5997 190.369 81.7281 190.311 81.8383C190.279 81.894 190.236 81.9427 190.185 81.9815C190.134 82.0204 190.076 82.0486 190.014 82.0645C189.952 82.0804 189.887 82.0837 189.824 82.0742C189.76 82.0647 189.699 82.0426 189.645 82.0092C189.424 81.8498 189.17 81.7421 188.902 81.6937C188.634 81.6453 188.359 81.6576 188.096 81.7296C187.562 81.932 187.121 82.3245 186.857 82.8322C186.816 82.884 186.765 82.9261 186.706 82.9556C186.647 82.9852 186.582 83.0013 186.516 83.003Z" fill="#26225B"/>
<path d="M218.869 171.348C218.869 171.348 224.289 196.194 254.613 190.79C284.936 185.386 292.385 125.786 292.385 125.786H268.923L251.763 160.198C251.763 160.198 239.373 127.851 223.732 116.717C214.223 109.992 218.869 171.348 218.869 171.348Z" fill="#C42128"/>
<path d="M229.446 187.902C229.319 187.902 229.197 187.851 229.107 187.761C229.017 187.671 228.966 187.548 228.966 187.421V161.627C228.966 161.499 229.017 161.377 229.107 161.286C229.197 161.196 229.319 161.145 229.446 161.145C229.574 161.145 229.696 161.196 229.786 161.286C229.876 161.377 229.926 161.499 229.926 161.627V187.358C229.935 187.427 229.929 187.496 229.909 187.562C229.889 187.628 229.855 187.688 229.81 187.74C229.764 187.791 229.708 187.832 229.646 187.86C229.583 187.888 229.515 187.902 229.446 187.902Z" fill="white"/>
<path d="M180.569 65.5016C186.516 68.4676 188.685 75.7818 184.658 79.6486L188.855 76.6514L195.545 72.3965C195.545 72.3965 182.954 63.1101 180.569 65.5016Z" fill="#26225B"/>
<path d="M159.166 222.066L167.7 230.669L174.576 238.822L171.68 241.726L174.22 245.08L159.972 256.183L141.465 233.868L159.166 222.066Z" fill="white"/>
<path d="M159.972 256.665C159.904 256.663 159.837 256.647 159.775 256.618C159.714 256.588 159.659 256.546 159.615 256.494L141.031 234.178C140.952 234.071 140.913 233.939 140.923 233.806C140.934 233.737 140.959 233.671 140.996 233.613C141.033 233.554 141.082 233.503 141.139 233.464L158.841 221.662C158.928 221.595 159.034 221.559 159.143 221.559C159.252 221.559 159.358 221.595 159.445 221.662L167.978 230.281L174.886 238.449C174.964 238.539 175.007 238.655 175.007 238.775C175.007 238.895 174.964 239.011 174.886 239.101L172.284 241.71L174.576 244.738C174.615 244.786 174.643 244.842 174.659 244.902C174.676 244.961 174.68 245.023 174.671 245.085C174.662 245.146 174.641 245.205 174.609 245.257C174.576 245.31 174.533 245.355 174.483 245.39L160.235 256.494C160.205 256.538 160.166 256.577 160.12 256.606C160.075 256.635 160.025 256.655 159.972 256.665ZM142.161 233.977L160.049 255.515L173.569 244.987L171.308 242.021C171.235 241.934 171.195 241.824 171.195 241.71C171.195 241.596 171.235 241.486 171.308 241.399L173.879 238.806L167.297 231.042L159.058 222.749L142.161 233.977Z" fill="#26225B"/>
<path d="M171.262 247.704C171.194 247.703 171.127 247.687 171.065 247.657C171.004 247.628 170.949 247.586 170.905 247.533L164.711 240.545C164.669 240.497 164.637 240.442 164.617 240.381C164.597 240.321 164.588 240.257 164.593 240.194C164.597 240.131 164.614 240.069 164.642 240.012C164.67 239.955 164.709 239.904 164.757 239.862C164.805 239.82 164.86 239.788 164.921 239.768C164.981 239.748 165.044 239.739 165.107 239.744C165.171 239.748 165.233 239.765 165.289 239.793C165.346 239.821 165.397 239.861 165.439 239.909L171.633 246.912C171.68 246.954 171.717 247.006 171.743 247.063C171.768 247.121 171.781 247.183 171.781 247.246C171.781 247.309 171.768 247.371 171.743 247.429C171.717 247.486 171.68 247.538 171.633 247.58C171.584 247.627 171.525 247.662 171.461 247.683C171.397 247.705 171.329 247.712 171.262 247.704Z" fill="#26225B"/>
<path d="M167.251 250.453C167.183 250.455 167.116 250.443 167.055 250.416C166.993 250.389 166.938 250.349 166.894 250.298L160.7 243.294C160.655 243.251 160.62 243.199 160.596 243.141C160.571 243.084 160.559 243.022 160.559 242.96C160.559 242.898 160.571 242.836 160.596 242.779C160.62 242.722 160.655 242.67 160.7 242.626C160.789 242.54 160.908 242.492 161.033 242.492C161.157 242.492 161.276 242.54 161.365 242.626L167.56 249.63C167.605 249.675 167.641 249.728 167.665 249.787C167.69 249.845 167.702 249.908 167.702 249.972C167.702 250.035 167.69 250.098 167.665 250.157C167.641 250.215 167.605 250.268 167.56 250.313C167.477 250.396 167.367 250.446 167.251 250.453Z" fill="#26225B"/>
<path d="M163.41 253.481C163.343 253.483 163.276 253.469 163.215 253.443C163.153 253.416 163.098 253.376 163.054 253.326L156.859 246.322C156.814 246.279 156.779 246.227 156.755 246.17C156.731 246.112 156.718 246.051 156.718 245.988C156.718 245.926 156.731 245.864 156.755 245.807C156.779 245.75 156.814 245.698 156.859 245.654C156.903 245.609 156.956 245.574 157.015 245.549C157.073 245.525 157.136 245.512 157.199 245.512C157.263 245.512 157.326 245.525 157.384 245.549C157.442 245.574 157.496 245.609 157.54 245.654L163.735 252.643C163.78 252.687 163.816 252.741 163.84 252.799C163.864 252.858 163.877 252.921 163.877 252.984C163.877 253.048 163.864 253.111 163.84 253.169C163.816 253.228 163.78 253.281 163.735 253.326C163.694 253.373 163.645 253.411 163.589 253.438C163.533 253.464 163.472 253.479 163.41 253.481Z" fill="#26225B"/>
<path d="M171.773 242.347C171.703 242.349 171.634 242.337 171.57 242.31C171.506 242.283 171.448 242.243 171.401 242.192L166.894 236.958C166.849 236.914 166.814 236.86 166.789 236.802C166.765 236.743 166.752 236.68 166.752 236.617C166.752 236.553 166.765 236.49 166.789 236.432C166.814 236.373 166.849 236.32 166.894 236.275C166.984 236.189 167.103 236.14 167.227 236.14C167.351 236.14 167.471 236.189 167.56 236.275L172.082 241.524C172.143 241.591 172.182 241.675 172.196 241.765C172.209 241.855 172.196 241.947 172.158 242.029C172.12 242.112 172.059 242.181 171.983 242.229C171.906 242.278 171.817 242.302 171.726 242.3L171.773 242.347Z" fill="#26225B"/>
<path d="M136.323 162.916C132.296 171.519 133.38 180.401 136.788 188.538C144.252 206.444 162.899 220.792 162.899 220.792L139.296 238.433C139.296 238.433 107.656 211.522 105.953 193.306L136.323 162.916Z" fill="#C42128"/>
<path d="M136.788 189.02C136.692 189.021 136.598 188.994 136.518 188.941C136.438 188.889 136.376 188.813 136.339 188.725C132.405 179.268 132.25 170.509 135.889 162.714C135.912 162.651 135.947 162.593 135.993 162.544C136.039 162.496 136.095 162.457 136.156 162.432C136.218 162.406 136.284 162.393 136.351 162.394C136.417 162.396 136.483 162.411 136.544 162.439C136.604 162.467 136.658 162.508 136.702 162.558C136.746 162.608 136.779 162.667 136.799 162.731C136.819 162.795 136.826 162.862 136.819 162.929C136.811 162.995 136.79 163.06 136.757 163.117C133.226 170.665 133.38 179.159 137.221 188.352C137.247 188.409 137.26 188.471 137.262 188.533C137.263 188.595 137.252 188.657 137.229 188.715C137.205 188.773 137.171 188.826 137.127 188.87C137.083 188.915 137.031 188.95 136.974 188.973L136.788 189.02Z" fill="white"/>
<path d="M397.016 195.589H274.808V214.425H397.016V195.589Z" fill="white"/>
<path d="M397.031 214.907H274.808C274.745 214.907 274.684 214.894 274.626 214.87C274.569 214.846 274.517 214.81 274.473 214.765C274.43 214.72 274.396 214.667 274.374 214.609C274.351 214.55 274.341 214.488 274.343 214.426V195.666C274.341 195.604 274.351 195.542 274.374 195.483C274.396 195.425 274.43 195.372 274.473 195.327C274.517 195.282 274.569 195.246 274.626 195.222C274.684 195.198 274.745 195.185 274.808 195.185H397.031C397.093 195.185 397.155 195.198 397.213 195.222C397.27 195.246 397.322 195.282 397.365 195.327C397.409 195.372 397.442 195.425 397.465 195.483C397.487 195.542 397.498 195.604 397.496 195.666V214.503C397.481 214.616 397.425 214.719 397.34 214.793C397.254 214.868 397.144 214.908 397.031 214.907ZM275.288 213.944H396.551V196.07H275.288V213.944Z" fill="#2D71F0"/>
<path d="M397.016 222.345H274.808V241.182H397.016V222.345Z" fill="white"/>
<path d="M397.031 241.663H274.808C274.745 241.663 274.684 241.651 274.626 241.627C274.569 241.602 274.517 241.566 274.473 241.521C274.43 241.477 274.396 241.423 274.374 241.365C274.351 241.307 274.341 241.244 274.343 241.182V222.345C274.341 222.283 274.351 222.22 274.374 222.162C274.396 222.104 274.43 222.051 274.473 222.006C274.517 221.961 274.569 221.925 274.626 221.901C274.684 221.876 274.745 221.864 274.808 221.864H397.031C397.093 221.864 397.155 221.876 397.213 221.901C397.27 221.925 397.322 221.961 397.365 222.006C397.409 222.051 397.442 222.104 397.465 222.162C397.487 222.22 397.498 222.283 397.496 222.345V241.182C397.498 241.244 397.487 241.307 397.465 241.365C397.442 241.423 397.409 241.477 397.365 241.521C397.322 241.566 397.27 241.602 397.213 241.627C397.155 241.651 397.093 241.663 397.031 241.663ZM275.288 240.701H396.551V222.827H275.288V240.701Z" fill="#2D71F0"/>
<path d="M372.717 254.941H299.138V273.778H372.717V254.941Z" fill="#C42128"/>
<path d="M250.571 386.052H111.188C111.125 386.054 111.063 386.044 111.005 386.021C110.947 385.999 110.894 385.965 110.849 385.921C110.804 385.878 110.769 385.826 110.744 385.768C110.72 385.711 110.708 385.649 110.708 385.587C110.708 385.523 110.72 385.461 110.744 385.402C110.768 385.344 110.804 385.291 110.848 385.246C110.893 385.202 110.946 385.166 111.004 385.142C111.062 385.118 111.125 385.105 111.188 385.105H250.571C250.698 385.105 250.82 385.156 250.91 385.246C251 385.337 251.051 385.459 251.051 385.587C251.051 385.649 251.038 385.711 251.014 385.768C250.99 385.826 250.954 385.878 250.909 385.921C250.864 385.965 250.811 385.999 250.753 386.021C250.695 386.044 250.633 386.054 250.571 386.052Z" fill="#26225B"/>
<path d="M248.655 36.1088C248.655 36.5497 248.524 36.9806 248.279 37.3472C248.034 37.7137 247.686 37.9994 247.279 38.1681C246.871 38.3368 246.423 38.3809 245.991 38.2949C245.558 38.2089 245.161 37.9967 244.85 37.6849C244.538 37.3732 244.326 36.976 244.24 36.5437C244.154 36.1113 244.198 35.6631 244.366 35.2559C244.535 34.8486 244.821 34.5005 245.187 34.2555C245.554 34.0106 245.985 33.8799 246.426 33.8799C246.719 33.8786 247.009 33.9354 247.28 34.047C247.551 34.1585 247.797 34.3227 248.005 34.5299C248.212 34.7371 248.376 34.9834 248.488 35.2544C248.599 35.5254 248.656 35.8158 248.655 36.1088Z" fill="white"/>
<path d="M258.016 39.2293C258.457 39.2293 258.889 39.0722 259.255 38.7778C259.622 38.4835 259.908 38.0652 260.076 37.5758C260.245 37.0865 260.288 36.5482 260.202 36.029C260.115 35.5099 259.902 35.0333 259.589 34.6597C259.277 34.286 258.879 34.0321 258.446 33.93C258.013 33.828 257.564 33.8824 257.157 34.0864C256.75 34.2904 256.403 34.6348 256.159 35.076C255.915 35.5172 255.786 36.0354 255.787 36.5648C255.787 36.9156 255.845 37.2629 255.957 37.5868C256.069 37.9108 256.234 38.205 256.441 38.4525C256.648 38.7001 256.894 38.8961 257.164 39.0294C257.434 39.1627 257.724 39.2307 258.016 39.2293ZM258.016 34.523C258.353 34.523 258.682 34.6428 258.962 34.8672C259.241 35.0915 259.459 35.4104 259.588 35.7835C259.717 36.1566 259.751 36.5671 259.685 36.9632C259.619 37.3592 259.457 37.723 259.219 38.0086C258.981 38.2941 258.678 38.4886 258.348 38.5674C258.018 38.6461 257.676 38.6057 257.365 38.4512C257.054 38.2966 256.788 38.0349 256.601 37.6992C256.415 37.3634 256.315 36.9686 256.315 36.5648C256.315 36.0233 256.494 35.504 256.813 35.1211C257.132 34.7382 257.565 34.523 258.016 34.523Z" fill="white"/>
<path d="M271.836 36.1088C271.836 36.5497 271.705 36.9806 271.46 37.3472C271.215 37.7137 270.867 37.9994 270.46 38.1681C270.052 38.3368 269.604 38.3809 269.172 38.2949C268.74 38.2089 268.342 37.9967 268.031 37.6849C267.719 37.3732 267.507 36.976 267.421 36.5437C267.335 36.1113 267.379 35.6631 267.547 35.2558C267.716 34.8486 268.002 34.5004 268.368 34.2555C268.735 34.0106 269.166 33.8799 269.607 33.8799C270.198 33.8799 270.765 34.1147 271.183 34.5327C271.601 34.9507 271.836 35.5177 271.836 36.1088Z" fill="white"/>
<path d="M109.768 59.5264C108.478 59.5264 107.241 60.0368 106.329 60.9453C105.417 61.8537 104.904 63.0859 104.904 64.3706V89.3859C104.904 90.6717 105.416 91.905 106.328 92.8153C107.24 93.7255 108.477 94.2383 109.768 94.2413H122.248C122.405 94.2436 122.558 94.2944 122.686 94.3867L130.919 101.099V94.9126C130.919 94.7345 130.99 94.5638 131.117 94.4379C131.243 94.312 131.415 94.2413 131.593 94.2413H134.885C136.176 94.2383 137.413 93.7255 138.325 92.8153C139.236 91.905 139.748 90.6717 139.748 89.3859V64.3706C139.748 63.0859 139.236 61.8537 138.324 60.9453C137.412 60.0368 136.175 59.5264 134.885 59.5264H109.768ZM109.768 58.844H134.885C136.356 58.844 137.768 59.4263 138.808 60.4627C139.849 61.4992 140.434 62.9049 140.434 64.3706V89.3859C140.434 90.8517 139.849 92.2574 138.808 93.2938C137.768 94.3303 136.356 94.9126 134.885 94.9126H131.593V102.531L122.248 94.9126H109.768C108.296 94.9126 106.885 94.3303 105.844 93.2938C104.804 92.2574 104.219 90.8517 104.219 89.3859V64.3706C104.219 62.9049 104.804 61.4992 105.844 60.4627C106.885 59.4263 108.296 58.844 109.768 58.844Z" fill="#26225B"/>
<path d="M122.746 85.5913L113.545 76.2414C112.689 75.3081 112.222 74.0752 112.244 72.8014C112.266 71.5275 112.775 70.3118 113.663 69.4093C114.552 68.5067 115.751 67.9875 117.01 67.9606C118.268 67.9336 119.488 68.401 120.414 69.2647L122.464 71.3396L124.168 69.4981C124.594 68.9906 125.117 68.5756 125.706 68.2783C126.295 67.981 126.937 67.8075 127.594 67.7683C128.25 67.7291 128.908 67.825 129.527 68.0503C130.147 68.2755 130.714 68.6254 131.196 69.0788C131.678 69.5322 132.064 70.0798 132.331 70.6883C132.598 71.2969 132.74 71.9539 132.749 72.6197C132.758 73.2855 132.634 73.9462 132.384 74.562C132.133 75.1778 131.762 75.7359 131.293 76.2025L122.746 85.5913Z" fill="#C42128"/>
<path d="M252.596 76.3737C249.113 73.2282 246.327 69.3837 244.419 65.0894C242.511 60.7951 241.524 56.1466 241.522 51.4453V27.6389H302.417V51.4453C302.415 56.1466 301.428 60.7951 299.52 65.0894C297.612 69.3837 294.826 73.2282 291.343 76.3737L271.984 93.8592L252.596 76.3737Z" fill="#26225B"/>
<path d="M247.64 33.761H296.328V51.4453C296.328 55.2872 295.523 59.0862 293.964 62.5954C292.405 66.1047 290.127 69.2456 287.278 71.8142L271.984 85.6066L256.689 71.8142C253.841 69.2456 251.563 66.1047 250.004 62.5954C248.445 59.0862 247.639 55.2872 247.64 51.4453V33.761Z" fill="white"/>
<path d="M277.535 57.3117C282.095 57.3117 285.791 53.6041 285.791 49.0306C285.791 44.4571 282.095 40.7495 277.535 40.7495C272.975 40.7495 269.279 44.4571 269.279 49.0306C269.279 53.6041 272.975 57.3117 277.535 57.3117Z" fill="#C42128"/>
<path d="M266.163 69.4421L260.159 63.4337L276.034 47.5107L279.036 50.5363L266.177 63.4337L269.166 66.4308L266.163 69.4421Z" fill="#C42128"/>
<path d="M268.71 57.8674L265.706 60.8806L269.011 64.1951L272.015 61.1819L268.71 57.8674Z" fill="#C42128"/>
<path d="M277.535 53.4336C279.96 53.4336 281.925 51.4622 281.925 49.0303C281.925 46.5984 279.96 44.627 277.535 44.627C275.11 44.627 273.145 46.5984 273.145 49.0303C273.145 51.4622 275.11 53.4336 277.535 53.4336Z" fill="white"/>
</g>
<defs>
<clipPath id="clip0">
<rect width="436.873" height="386.053" fill="white" transform="translate(0.796234)"/>
</clipPath>
</defs>
</svg>
