<svg width="808" height="363" viewBox="0 0 808 363" fill="none" xmlns="http://www.w3.org/2000/svg">
<g clip-path="url(#clip0)">
<path d="M407.977 51.8284H233.63V343.097H407.977V51.8284Z" fill="#F2EEFF"/>
<path d="M481.258 0.583374H335.968V343.188H481.258V0.583374Z" fill="#F2EEFF"/>
<path d="M654.12 105.167H515.83V343.188H654.12V105.167Z" fill="#F2EEFF"/>
<path d="M215.177 140.665H57.7976V343.097H215.177V140.665Z" fill="#F2EEFF"/>
<path d="M605.019 65.4816H490.06V343.188H605.019V65.4816Z" fill="#F2EEFF"/>
<path d="M112.414 116.454H27.6792V343.188H112.414V116.454Z" fill="#F2EEFF"/>
<path d="M780.321 162.328H672.679V343.097H780.321V162.328Z" fill="#F2EEFF"/>
<path d="M795.698 362.575H12.3019C5.51463 362.575 0 357.751 0 351.926C0 346.1 5.51463 341.367 12.3019 341.367H795.592C802.379 341.367 807.894 346.1 807.894 351.926C808 357.751 802.485 362.575 795.698 362.575Z" fill="#26225B"/>
<path d="M693.465 211.935H152.077V348.103H693.465V211.935Z" fill="#756FBF"/>
<g filter="url(#filter0_d)">
<path d="M698.131 332.265H147.41V348.103H698.131V332.265Z" fill="white"/>
<path d="M147.91 347.603V332.765H697.631V347.603H147.91Z" stroke="#26225B"/>
</g>
<path d="M693.253 187.177H152.395L142.744 212.481H702.904L693.253 187.177Z" fill="#26225B"/>
<path d="M527.678 264.045V227.271H551.918V264.045H527.678Z" fill="white" stroke="#26225B"/>
<path d="M526.548 266.776L527.47 265.136H552.115L552.971 266.776H526.548Z" fill="white" stroke="#26225B"/>
<path opacity="0.2" d="M551.918 264.136H527.678V255.861L551.918 235.843V264.136Z" fill="white" stroke="#26225B"/>
<path d="M562.78 264.045V227.271H587.02V264.045H562.78Z" fill="white" stroke="#26225B"/>
<path d="M561.651 266.776L562.573 265.136H587.122L588.044 266.776H561.651Z" fill="white" stroke="#26225B"/>
<path opacity="0.2" d="M586.915 264.136H562.781V255.86L586.915 235.845V264.136Z" fill="white" stroke="#26225B"/>
<path d="M609.125 264.045V227.271H633.365V264.045H609.125Z" fill="white" stroke="#26225B"/>
<path d="M607.995 266.776L608.917 265.136H633.562L634.418 266.776H607.995Z" fill="white" stroke="#26225B"/>
<path opacity="0.2" d="M633.365 264.136H609.125V255.861L633.365 235.843V264.136Z" fill="white" stroke="#26225B"/>
<path d="M644.227 264.045V227.271H668.467V264.045H644.227Z" fill="white" stroke="#26225B"/>
<path d="M643.098 266.776L644.02 265.136H668.569L669.491 266.776H643.098Z" fill="white" stroke="#26225B"/>
<path opacity="0.2" d="M668.362 264.136H644.227V255.86L668.362 235.845V264.136Z" fill="white" stroke="#26225B"/>
<path d="M527.678 317.566V280.792H551.918V317.566H527.678Z" fill="white" stroke="#26225B"/>
<path d="M526.534 320.296L527.475 318.566H552.11L552.984 320.296H526.534Z" fill="white" stroke="#26225B"/>
<path opacity="0.2" d="M551.918 317.566H527.678V309.29L551.918 289.272V317.566Z" fill="white" stroke="#26225B"/>
<path d="M562.78 317.566V280.792H587.02V317.566H562.78Z" fill="white" stroke="#26225B"/>
<path d="M561.637 320.296L562.578 318.566H587.117L588.058 320.296H561.637Z" fill="white" stroke="#26225B"/>
<path opacity="0.2" d="M586.915 317.566H562.781V309.29L586.915 289.275V317.566Z" fill="white" stroke="#26225B"/>
<path d="M609.125 317.566V280.792H633.365V317.566H609.125Z" fill="white" stroke="#26225B"/>
<path d="M607.981 320.296L608.922 318.566H633.557L634.431 320.296H607.981Z" fill="white" stroke="#26225B"/>
<path opacity="0.2" d="M633.365 317.566H609.125V309.29L633.365 289.272V317.566Z" fill="white" stroke="#26225B"/>
<path d="M644.227 317.566V280.792H668.467V317.566H644.227Z" fill="white" stroke="#26225B"/>
<path d="M643.084 320.296L644.025 318.566H668.564L669.505 320.296H643.084Z" fill="white" stroke="#26225B"/>
<path opacity="0.2" d="M668.362 317.566H644.227V309.29L668.362 289.275V317.566Z" fill="white" stroke="#26225B"/>
<path d="M177.286 264.045V227.271H201.526V264.045H177.286Z" fill="white" stroke="#211E50"/>
<path d="M176.157 266.776L177.079 265.136H201.724L202.58 266.776H176.157Z" fill="white" stroke="#211E50"/>
<path opacity="0.2" d="M201.527 264.136H177.286V255.861L201.527 235.843V264.136Z" fill="white" stroke="#211E50"/>
<path d="M212.389 264.045V227.271H236.629V264.045H212.389Z" fill="white" stroke="#211E50"/>
<path d="M211.259 266.776L212.182 265.136H236.731L237.653 266.776H211.259Z" fill="white" stroke="#211E50"/>
<path opacity="0.2" d="M236.523 264.136H212.389V255.86L236.523 235.845V264.136Z" fill="white" stroke="#211E50"/>
<path d="M258.733 264.045V227.271H282.973V264.045H258.733Z" fill="white" stroke="#211E50"/>
<path d="M257.68 266.776L258.536 265.136H283.17L284.027 266.776H257.68Z" fill="white" stroke="#211E50"/>
<path opacity="0.2" d="M282.973 264.136H258.733V255.861L282.973 235.843V264.136Z" fill="white" stroke="#211E50"/>
<path d="M293.836 264.045V227.271H318.076V264.045H293.836Z" fill="white" stroke="#211E50"/>
<path d="M292.706 266.776L293.629 265.136H318.178L319.1 266.776H292.706Z" fill="white" stroke="#211E50"/>
<path opacity="0.2" d="M317.97 264.136H293.836V255.86L317.97 235.845V264.136Z" fill="white" stroke="#211E50"/>
<path d="M177.286 317.566V280.792H201.526V317.566H177.286Z" fill="white" stroke="#211E50"/>
<path d="M176.143 320.296L177.084 318.566H201.719L202.593 320.296H176.143Z" fill="white" stroke="#211E50"/>
<path opacity="0.2" d="M201.527 317.566H177.286V309.29L201.527 289.272V317.566Z" fill="white" stroke="#211E50"/>
<path d="M212.389 317.566V280.792H236.629V317.566H212.389Z" fill="white" stroke="#211E50"/>
<path d="M211.245 320.296L212.186 318.566H236.726L237.667 320.296H211.245Z" fill="white" stroke="#211E50"/>
<path opacity="0.2" d="M236.523 317.566H212.389V309.29L236.523 289.275V317.566Z" fill="white" stroke="#211E50"/>
<path d="M258.733 317.566V280.792H282.973V317.566H258.733Z" fill="white" stroke="#211E50"/>
<path d="M257.667 320.296L258.541 318.566H283.166L284.04 320.296H257.667Z" fill="white" stroke="#211E50"/>
<path opacity="0.2" d="M282.973 317.566H258.733V309.29L282.973 289.272V317.566Z" fill="white" stroke="#211E50"/>
<path d="M293.836 317.566V280.792H318.076V317.566H293.836Z" fill="white" stroke="#211E50"/>
<path d="M292.692 320.296L293.633 318.566H318.173L319.114 320.296H292.692Z" fill="white" stroke="#211E50"/>
<path opacity="0.2" d="M317.97 317.566H293.836V309.29L317.97 289.275V317.566Z" fill="white" stroke="#211E50"/>
<path opacity="0.55" d="M693.465 212.481H152.077V215.758H693.465V212.481Z" fill="#C6C6C6"/>
<path d="M320.803 170.793L422.824 99.5236L524.845 170.793H320.803Z" fill="#26225B"/>
<path d="M506.816 348.285H338.832V170.702L422.824 111.811L506.816 170.702V348.285Z" fill="#756FBF"/>
<path d="M483.485 268.823H362.163V348.194H483.485V268.823Z" fill="#C42128"/>
<path opacity="0.2" d="M362.163 269.642V348.285H367.784V272.464H477.97V348.285H483.485V269.642H362.163Z" fill="#C42128"/>
<path d="M511.482 257.628H334.166V269.642H511.482V257.628Z" fill="#26225B"/>
<path d="M422.824 284.251C431.867 284.251 440.047 286.485 446.029 290.095C452.014 293.707 455.737 298.65 456.048 304.063L456.153 347.694H389.6V304.063C389.911 298.649 393.634 293.707 399.619 290.095C405.601 286.485 413.781 284.251 422.824 284.251Z" fill="white" stroke="#262259"/>
<path d="M456.048 304.063V347.694H423.324V284.253C432.169 284.334 440.158 286.552 446.029 290.095C452.014 293.707 455.737 298.649 456.048 304.063Z" fill="white" stroke="#262259"/>
<path d="M441.489 155.32C441.489 164.149 433.111 171.339 422.824 171.339C412.537 171.339 404.159 164.149 404.159 155.32C404.159 146.491 412.537 139.3 422.824 139.3C433.111 139.3 441.489 146.491 441.489 155.32Z" fill="#232054"/>
<path d="M437.565 155.32C437.565 162.328 430.99 167.972 422.824 167.972C414.658 167.972 408.083 162.328 408.083 155.32C408.083 148.311 414.658 142.668 422.824 142.668C430.99 142.668 437.565 148.311 437.565 155.32Z" fill="white"/>
<path d="M358.103 240.198V188.951H382.343V240.198H358.103Z" fill="white" stroke="#26225B"/>
<path d="M357.049 242.837L357.906 241.198H382.55L383.473 242.837H357.049Z" fill="white" stroke="#26225B"/>
<path opacity="0.2" d="M382.343 240.107H358.103V231.831L382.343 211.813V240.107Z" fill="white" stroke="#26225B"/>
<path d="M393.205 240.198V188.951H417.446V240.198H393.205Z" fill="white" stroke="#26225B"/>
<path d="M392.076 242.837L392.998 241.198H417.547L418.469 242.837H392.076Z" fill="white" stroke="#26225B"/>
<path opacity="0.2" d="M417.446 240.107H393.206V231.831L417.446 211.813V240.107Z" fill="white" stroke="#26225B"/>
<path d="M428.308 240.198V188.951H452.548V240.198H428.308Z" fill="white" stroke="#26225B"/>
<path d="M427.179 242.837L428.101 241.198H452.65L453.572 242.837H427.179Z" fill="white" stroke="#26225B"/>
<path opacity="0.2" d="M452.442 240.107H428.308V231.83L452.442 211.816V240.107Z" fill="white" stroke="#26225B"/>
<path d="M463.305 240.198V188.951H487.545V240.198H463.305Z" fill="white" stroke="#26225B"/>
<path d="M462.175 242.837L463.097 241.198H487.742L488.599 242.837H462.175Z" fill="white" stroke="#26225B"/>
<path d="M488.675 186.221L487.753 187.86H463.204L462.281 186.221H488.675Z" fill="white" stroke="#26225B"/>
<path d="M453.572 186.221L452.65 187.86H428.101L427.179 186.221H453.572Z" fill="white" stroke="#26225B"/>
<path d="M418.575 186.221L417.653 187.86H393.009L392.152 186.221H418.575Z" fill="white" stroke="#26225B"/>
<path d="M383.473 186.221L382.55 187.86H358.001L357.079 186.221H383.473Z" fill="white" stroke="#26225B"/>
<path opacity="0.2" d="M487.545 240.107H463.305V231.831L487.545 211.813V240.107Z" fill="white" stroke="#26225B"/>
<path opacity="0.3" d="M338.832 175.344L422.824 116.454L506.816 175.435V170.702L422.824 111.72L338.832 170.702V175.344Z" fill="#706F6F"/>
<path d="M509.361 326.076H481.364V348.285H509.361V326.076Z" fill="#26225B"/>
<path d="M509.468 269.733H481.471V274.558H509.468V269.733Z" fill="#26225B"/>
<path opacity="0.4" d="M509.468 269.733H481.471V271.372H509.468V269.733Z" fill="#26225B"/>
<path d="M364.284 326.076H336.287V348.285H364.284V326.076Z" fill="#26225B"/>
<path d="M364.391 269.733H336.394V274.558H364.391V269.733Z" fill="#26225B"/>
<path opacity="0.4" d="M364.391 269.733H336.394V271.372H364.391V269.733Z" fill="#26225B"/>
<path d="M295.457 80.0449H292.17V348.285H295.457V80.0449Z" fill="black"/>
<path d="M349.437 106.714C330.454 117.819 311.365 95.6096 292.382 106.714C292.382 97.43 292.382 88.1459 292.382 78.9527C311.365 67.8481 330.454 90.0573 349.437 78.9527C349.437 88.2369 349.437 97.43 349.437 106.714Z" fill="#C42128"/>
<path d="M97.1424 316.519L94.3851 315.426C92.7943 318.521 88.1281 325.53 82.8256 328.078C81.3409 328.533 80.9167 327.168 80.8106 326.076V314.152H75.402V326.167C75.296 327.259 74.7657 328.715 73.175 327.987C67.9785 325.348 63.5243 318.521 61.9336 315.517L59.1763 316.61C59.4944 317.156 65.0091 327.714 72.9629 330.809C74.7657 331.537 75.296 333.904 75.5081 335.451V348.103H80.9167V335.542C81.1288 333.904 81.659 331.537 83.4619 330.809H83.3558C91.3096 327.623 96.9303 317.065 97.1424 316.519Z" fill="black"/>
<path d="M106.687 298.223C106.793 297.677 106.793 297.04 106.793 296.403C106.793 289.121 99.8997 283.296 91.5217 283.296C91.4157 283.296 91.3096 283.296 91.3096 283.296C88.6583 279.473 83.78 276.924 78.2654 276.924C72.7507 276.924 67.8724 279.473 65.2211 283.296C65.1151 283.296 65.009 283.296 65.009 283.296C56.525 283.296 49.7378 289.212 49.7378 296.403C49.7378 297.04 49.7378 297.586 49.8438 298.223C47.1925 300.59 45.4957 303.775 45.4957 307.416C45.4957 314.698 52.389 320.523 60.767 320.523C65.3272 320.523 69.3571 318.794 72.1144 316.154C74.0233 316.883 76.0383 317.247 78.2654 317.247C80.4924 317.247 82.5074 316.883 84.4163 316.154C87.1736 318.794 91.3096 320.523 95.7637 320.523C104.248 320.523 111.035 314.607 111.035 307.416C111.035 303.775 109.338 300.59 106.687 298.223Z" fill="#26225B"/>
<path d="M95.7637 317.884C91.2036 317.884 87.1736 316.154 84.4163 313.515C82.5074 314.243 80.4924 314.607 78.2654 314.607C76.0383 314.607 74.0233 314.243 72.1144 313.515C69.3571 316.154 65.2211 317.884 60.767 317.884C52.8132 317.884 46.3441 312.696 45.6018 306.051C45.6018 306.506 45.4957 306.87 45.4957 307.325C45.4957 314.607 52.389 320.432 60.767 320.432C65.3272 320.432 69.3571 318.703 72.1144 316.063C74.0233 316.792 76.0383 317.156 78.2654 317.156C80.4924 317.156 82.5074 316.792 84.4163 316.063C87.1736 318.703 91.3096 320.432 95.7637 320.432C104.248 320.432 111.035 314.516 111.035 307.325C111.035 306.87 111.035 306.506 110.929 306.051C110.187 312.696 103.718 317.884 95.7637 317.884Z" fill="#756FBF"/>
<path d="M745.112 302.865L741.506 301.5C739.385 305.596 733.234 314.88 726.235 318.248C724.326 318.885 723.69 316.974 723.584 315.608V299.862H716.478V315.699C716.372 317.156 715.63 319.067 713.509 318.066C706.616 314.516 700.677 305.505 698.556 301.5L694.95 302.865C695.268 303.593 702.692 317.52 713.191 321.707C715.524 322.708 716.266 325.712 716.584 327.896V348.103H723.69V327.987C723.902 325.803 724.75 322.708 727.083 321.707H726.977C737.37 317.52 744.688 303.502 745.112 302.865Z" fill="black"/>
<path d="M757.732 278.563C757.838 277.834 757.944 277.015 757.944 276.196C757.944 266.639 748.824 258.811 737.688 258.811C737.582 258.811 737.476 258.811 737.37 258.811C733.871 253.805 727.401 250.437 720.084 250.437C712.766 250.437 706.297 253.805 702.798 258.811C702.692 258.811 702.586 258.811 702.48 258.811C691.344 258.811 682.224 266.639 682.224 276.196C682.224 277.015 682.33 277.743 682.436 278.563C678.83 281.657 676.709 285.935 676.709 290.668C676.709 300.226 685.83 308.053 696.965 308.053C702.904 308.053 708.312 305.778 712.024 302.228C714.569 303.138 717.327 303.684 720.19 303.684C723.053 303.684 725.917 303.138 728.356 302.228C732.068 305.778 737.476 308.053 743.415 308.053C754.55 308.053 763.671 300.226 763.671 290.668C763.459 285.935 761.232 281.657 757.732 278.563Z" fill="#26225B"/>
<path d="M743.203 304.686C737.264 304.686 731.856 302.41 728.144 298.86C725.599 299.771 722.841 300.317 719.978 300.317C717.115 300.317 714.357 299.771 711.812 298.86C708.1 302.41 702.692 304.686 696.753 304.686C686.254 304.686 677.558 297.768 676.603 289.03C676.497 289.576 676.497 290.122 676.497 290.759C676.497 300.317 685.618 308.145 696.753 308.145C702.692 308.145 708.1 305.869 711.812 302.319C714.357 303.229 717.115 303.775 719.978 303.775C722.841 303.775 725.705 303.229 728.144 302.319C731.856 305.869 737.264 308.145 743.203 308.145C754.338 308.145 763.459 300.317 763.459 290.759C763.459 290.213 763.459 289.576 763.353 289.03C762.398 297.768 753.702 304.686 743.203 304.686Z" fill="#756FBF"/>
<path d="M158.546 297.859L154.516 296.312C152.183 300.863 145.289 311.239 137.442 314.971C135.215 315.699 134.578 313.606 134.472 311.967V294.4H126.518V312.058C126.306 313.697 125.564 315.79 123.125 314.698C115.489 310.784 108.808 300.681 106.475 296.221L102.445 297.768C102.869 298.587 111.141 314.152 122.701 318.794C125.352 319.977 126.2 323.345 126.412 325.712V348.012H134.366V325.894C134.684 323.527 135.533 319.977 138.184 318.885H138.078C149.85 314.243 158.122 298.678 158.546 297.859Z" fill="black"/>
<path d="M172.544 270.826C172.65 270.007 172.756 269.096 172.756 268.186C172.756 257.446 162.682 248.799 150.168 248.799C150.062 248.799 149.956 248.799 149.744 248.799C145.82 243.155 138.608 239.423 130.442 239.423C122.276 239.423 115.065 243.155 111.141 248.799C111.035 248.799 110.929 248.799 110.717 248.799C98.2029 248.799 88.1281 257.446 88.1281 268.186C88.1281 269.096 88.2341 269.916 88.3402 270.826C84.4163 274.285 81.8711 279.109 81.8711 284.388C81.8711 295.128 91.9459 303.776 104.46 303.776C111.141 303.776 117.186 301.318 121.322 297.313C124.079 298.405 127.155 298.951 130.442 298.951C133.73 298.951 136.805 298.405 139.563 297.313C143.699 301.227 149.744 303.776 156.425 303.776C168.939 303.776 179.013 295.128 179.013 284.388C179.013 279.109 176.574 274.285 172.544 270.826Z" fill="#26225B"/>
<path d="M156.425 299.953C149.744 299.953 143.699 297.495 139.563 293.49C136.805 294.582 133.73 295.128 130.442 295.128C127.155 295.128 124.079 294.582 121.322 293.49C117.186 297.404 111.141 299.953 104.46 299.953C92.6883 299.953 83.1437 292.307 81.9772 282.477C81.8711 283.114 81.8711 283.751 81.8711 284.388C81.8711 295.128 91.9459 303.775 104.46 303.775C111.141 303.775 117.186 301.318 121.322 297.313C124.079 298.405 127.155 298.951 130.442 298.951C133.73 298.951 136.805 298.405 139.563 297.313C143.699 301.227 149.744 303.775 156.425 303.775C168.939 303.775 179.013 295.128 179.013 284.388C179.013 283.751 179.013 283.114 178.907 282.477C177.847 292.307 168.196 299.953 156.425 299.953Z" fill="#756FBF"/>
</g>
<defs>
<filter id="filter0_d" x="143.41" y="332.265" width="558.721" height="23.8377" filterUnits="userSpaceOnUse" color-interpolation-filters="sRGB">
<feFlood flood-opacity="0" result="BackgroundImageFix"/>
<feColorMatrix in="SourceAlpha" type="matrix" values="0 0 0 0 0 0 0 0 0 0 0 0 0 0 0 0 0 0 127 0"/>
<feOffset dy="4"/>
<feGaussianBlur stdDeviation="2"/>
<feColorMatrix type="matrix" values="0 0 0 0 0 0 0 0 0 0 0 0 0 0 0 0 0 0 0.25 0"/>
<feBlend mode="normal" in2="BackgroundImageFix" result="effect1_dropShadow"/>
<feBlend mode="normal" in="SourceGraphic" in2="effect1_dropShadow" result="shape"/>
</filter>
<clipPath id="clip0">
<rect width="808" height="361.992" fill="white" transform="translate(0 0.583374)"/>
</clipPath>
</defs>
</svg>
