<svg width="232" height="232" viewBox="0 0 232 232" fill="none" xmlns="http://www.w3.org/2000/svg">
<path d="M115.971 231.472C180.019 231.472 231.941 179.655 231.941 115.736C231.941 51.8167 180.019 0 115.971 0C51.9218 0 0 51.8167 0 115.736C0 179.655 51.9218 231.472 115.971 231.472Z" fill="#756FBF"/>
<path d="M115.92 231.656C179.969 231.656 231.891 179.84 231.891 115.92C231.891 83.9187 218.876 54.9506 197.841 34L115.92 115.92L34 197.841C54.9799 218.736 83.9383 231.656 115.92 231.656Z" fill="#26225B"/>
<g clip-path="url(#clip0)">
<path d="M181 78.2V154.1C181 155.9 179.7 157.3 178.1 157.3H134.4C132.7 157.3 131 158 129.8 159.3C129.3 159.8 128.7 160.1 128 160.1H105C104.3 160.1 103.7 159.8 103.2 159.3C102 158 100.3 157.3 98.7 157.3H54.9C53.3 157.3 52 155.9 52 154.1V78.2C52 76.5 53.3 75 54.9 75H178.1C179.6 75 180.9 76.3 181 78C181 78.1 181 78.1 181 78.2Z" fill="#C42128"/>
<path d="M177.7 77.4V153.1L173 146.7V71L176 75L177.7 77.4Z" fill="#E6E6E6"/>
<path d="M60 71V146.7L55.3 153.1V77.4L57 75L60 71Z" fill="#E6E6E6"/>
<path d="M116.5 82.8V155.3H116.1C114.7 150.3 110.1 146.7 104.7 146.7H60V71H104.7C108.2 71 111.4 72.6 113.6 75C115.4 77.1 116.5 79.9 116.5 82.8Z" fill="white"/>
<path d="M173 71V146.7H128.3C122.9 146.7 118.3 150.4 116.9 155.3H116.5V82.8C116.5 79.8 117.6 77.1 119.4 75C121.6 72.5 124.7 71 128.3 71H173V71Z" fill="#F2F2F2"/>
<path d="M103.3 80.4H67.1C66.7 80.4 66.5 80.1 66.5 79.8C66.5 79.4 66.8 79.2 67.1 79.2H103.3C103.7 79.2 103.9 79.5 103.9 79.8C104 80.1 103.7 80.4 103.3 80.4Z" fill="#E5E5E5"/>
<path d="M103.3 85.7H67.1C66.7 85.7 66.5 85.4 66.5 85.1C66.5 84.8 66.8 84.5 67.1 84.5H103.3C103.7 84.5 103.9 84.8 103.9 85.1C103.9 85.4 103.7 85.7 103.3 85.7Z" fill="#E5E5E5"/>
<path d="M103.3 91.1H67.1C66.7 91.1 66.5 90.8 66.5 90.5C66.5 90.1 66.8 89.9 67.1 89.9H103.3C103.7 89.9 103.9 90.2 103.9 90.5C104 90.8 103.7 91.1 103.3 91.1Z" fill="#E5E5E5"/>
<path d="M103.3 96.4H67.1C66.7 96.4 66.5 96.1 66.5 95.8C66.5 95.4 66.8 95.2 67.1 95.2H103.3C103.7 95.2 103.9 95.5 103.9 95.8C104 96.1 103.7 96.4 103.3 96.4Z" fill="#E5E5E5"/>
<path d="M103.3 101.7H67.1C66.7 101.7 66.5 101.4 66.5 101.1C66.5 100.7 66.8 100.5 67.1 100.5H103.3C103.7 100.5 103.9 100.8 103.9 101.1C104 101.4 103.7 101.7 103.3 101.7Z" fill="#E5E5E5"/>
<path d="M103.3 107H67.1C66.7 107 66.5 106.7 66.5 106.4C66.5 106 66.8 105.8 67.1 105.8H103.3C103.7 105.8 103.9 106.1 103.9 106.4C104 106.7 103.7 107 103.3 107Z" fill="#E5E5E5"/>
<path d="M103.3 112.3H67.1C66.7 112.3 66.5 112 66.5 111.7C66.5 111.3 66.8 111.1 67.1 111.1H103.3C103.7 111.1 103.9 111.4 103.9 111.7C104 112 103.7 112.3 103.3 112.3Z" fill="#E5E5E5"/>
<path d="M103.3 117.6H67.1C66.7 117.6 66.5 117.3 66.5 117C66.5 116.6 66.8 116.4 67.1 116.4H103.3C103.7 116.4 103.9 116.7 103.9 117C104 117.4 103.7 117.6 103.3 117.6Z" fill="#E5E5E5"/>
<path d="M103.3 123H67.1C66.7 123 66.5 122.7 66.5 122.4C66.5 122 66.8 121.8 67.1 121.8H103.3C103.7 121.8 103.9 122.1 103.9 122.4C104 122.7 103.7 123 103.3 123Z" fill="#E5E5E5"/>
<path d="M103.4 128.3H67.2C66.8 128.3 66.6 128 66.6 127.7C66.6 127.3 66.9 127.1 67.2 127.1H103.4C103.8 127.1 104 127.4 104 127.7C104.1 128.1 103.8 128.3 103.4 128.3Z" fill="#E5E5E5"/>
<path d="M103.4 133.7H67.2C66.8 133.7 66.6 133.4 66.6 133.1C66.6 132.7 66.9 132.5 67.2 132.5H103.4C103.8 132.5 104 132.8 104 133.1C104.1 133.4 103.8 133.7 103.4 133.7Z" fill="#E5E5E5"/>
<path d="M103.4 139H67.2C66.8 139 66.6 138.7 66.6 138.4C66.6 138 66.9 137.8 67.2 137.8H103.4C103.8 137.8 104 138.1 104 138.4C104.1 138.7 103.8 139 103.4 139Z" fill="#E5E5E5"/>
<path d="M165.8 80.4H129.6C129.2 80.4 129 80.1 129 79.8C129 79.4 129.3 79.2 129.6 79.2H165.8C166.2 79.2 166.4 79.5 166.4 79.8C166.5 80.1 166.2 80.4 165.8 80.4Z" fill="#CCCCCC"/>
<path d="M165.8 85.7H129.6C129.2 85.7 129 85.4 129 85.1C129 84.8 129.3 84.5 129.6 84.5H165.8C166.2 84.5 166.4 84.8 166.4 85.1C166.4 85.4 166.2 85.7 165.8 85.7Z" fill="#CCCCCC"/>
<path d="M165.8 91.1H129.6C129.2 91.1 129 90.8 129 90.5C129 90.1 129.3 89.9 129.6 89.9H165.8C166.2 89.9 166.4 90.2 166.4 90.5C166.5 90.8 166.2 91.1 165.8 91.1Z" fill="#CCCCCC"/>
<path d="M165.8 96.4H129.6C129.2 96.4 129 96.1 129 95.8C129 95.4 129.3 95.2 129.6 95.2H165.8C166.2 95.2 166.4 95.5 166.4 95.8C166.5 96.1 166.2 96.4 165.8 96.4Z" fill="#CCCCCC"/>
<path d="M165.8 101.7H129.6C129.2 101.7 129 101.4 129 101.1C129 100.7 129.3 100.5 129.6 100.5H165.8C166.2 100.5 166.4 100.8 166.4 101.1C166.5 101.4 166.2 101.7 165.8 101.7Z" fill="#CCCCCC"/>
<path d="M165.8 107H129.6C129.2 107 129 106.7 129 106.4C129 106 129.3 105.8 129.6 105.8H165.8C166.2 105.8 166.4 106.1 166.4 106.4C166.5 106.7 166.2 107 165.8 107Z" fill="#CCCCCC"/>
<path d="M165.8 112.3H129.6C129.2 112.3 129 112 129 111.7C129 111.3 129.3 111.1 129.6 111.1H165.8C166.2 111.1 166.4 111.4 166.4 111.7C166.5 112 166.2 112.3 165.8 112.3Z" fill="#CCCCCC"/>
<path d="M165.8 117.6H129.6C129.2 117.6 129 117.3 129 117C129 116.6 129.3 116.4 129.6 116.4H165.8C166.2 116.4 166.4 116.7 166.4 117C166.5 117.4 166.2 117.6 165.8 117.6Z" fill="#CCCCCC"/>
<path d="M165.8 123H129.6C129.2 123 129 122.7 129 122.4C129 122 129.3 121.8 129.6 121.8H165.8C166.2 121.8 166.4 122.1 166.4 122.4C166.5 122.7 166.2 123 165.8 123Z" fill="#CCCCCC"/>
<path d="M165.9 128.3H129.7C129.3 128.3 129.1 128 129.1 127.7C129.1 127.3 129.4 127.1 129.7 127.1H165.9C166.3 127.1 166.5 127.4 166.5 127.7C166.5 128.1 166.2 128.3 165.9 128.3Z" fill="#CCCCCC"/>
<path d="M165.9 133.7H129.7C129.3 133.7 129.1 133.4 129.1 133.1C129.1 132.7 129.4 132.5 129.7 132.5H165.9C166.3 132.5 166.5 132.8 166.5 133.1C166.5 133.4 166.2 133.7 165.9 133.7Z" fill="#CCCCCC"/>
<path d="M165.9 139H129.7C129.3 139 129.1 138.7 129.1 138.4C129.1 138 129.4 137.8 129.7 137.8H165.9C166.3 137.8 166.5 138.1 166.5 138.4C166.5 138.7 166.2 139 165.9 139Z" fill="#CCCCCC"/>
<path d="M104.7 146.7H60L55.3 153.1H100C102.3 153.1 104.5 153.8 106.3 154.9C106.7 155.2 107.2 155.3 107.7 155.3H116.1C114.7 150.4 110.1 146.7 104.7 146.7Z" fill="#CCCCCC"/>
<path d="M173 146.7H128.3C122.9 146.7 118.3 150.3 116.9 155.3H125.5C126 155.3 126.5 155.2 126.9 154.9C128.7 153.7 130.9 153.1 133.2 153.1H177.7L173 146.7Z" fill="#CCCCCC"/>
<g opacity="0.2">
<g opacity="0.2">
<path opacity="0.2" d="M125.4 157.3H107.7C107 157.3 106.4 157.1 105.8 156.8C104 155.6 102 155 99.9 155H56.2C55.7 155 55.3 154.6 55.3 154C55.3 153.5 55.3 153 55.3 153H100C102.4 153 104.7 153.7 106.8 155C107.1 155.2 107.4 155.3 107.8 155.3H125.5C125.9 155.3 126.2 155.2 126.5 155C128.5 153.7 130.9 153 133.3 153H177.9C177.9 153 177.9 153.4 177.9 154C177.9 154.5 177.5 155 177 155H133.1C131 155 129 155.6 127.2 156.7C126.7 157.1 126 157.3 125.4 157.3Z" fill="black"/>
</g>
</g>
<path d="M136.7 71V149.6L133.8 152.5V71H136.7Z" fill="#C42128"/>
</g>
<path d="M115.92 231.656C179.969 231.656 231.891 179.84 231.891 115.92C231.891 83.9187 218.876 54.9506 197.841 34L115.92 115.92L34 197.841C54.9799 218.736 83.9383 231.656 115.92 231.656Z" fill="#26225B" fill-opacity="0.5"/>
<defs>
<clipPath id="clip0">
<rect width="129" height="89.1" fill="white" transform="translate(52 71)"/>
</clipPath>
</defs>
</svg>
