<svg width="233" height="233" viewBox="0 0 233 233" fill="none" xmlns="http://www.w3.org/2000/svg">
<path d="M115.971 231.472C180.019 231.472 231.941 179.655 231.941 115.736C231.941 51.8167 180.019 0 115.971 0C51.9218 0 0 51.8167 0 115.736C0 179.655 51.9218 231.472 115.971 231.472Z" fill="#756FBF"/>
<path d="M115.92 231.656C179.969 231.656 231.891 179.84 231.891 115.92C231.891 83.9187 218.876 54.9506 197.841 34L115.92 115.92L34 197.841C54.9799 218.736 83.9383 231.656 115.92 231.656Z" fill="#26225B"/>
<g clip-path="url(#clip0)">
<path d="M198.952 103.586C198.922 103.527 198.863 103.467 198.834 103.378C198.863 103.408 198.863 103.438 198.893 103.467C198.922 103.527 198.922 103.556 198.952 103.586Z" fill="black"/>
<path d="M205 127.05C205 127.079 205 127.079 205 127.079C205 127.168 205 127.228 204.97 127.316C204.97 127.346 204.97 127.346 204.97 127.376C204.97 127.435 204.97 127.524 204.941 127.583V127.613V127.643V127.672C204.941 127.732 204.911 127.821 204.911 127.88C204.911 127.91 204.911 127.939 204.882 127.939C204.882 127.969 204.852 128.028 204.852 128.058C204.852 128.117 204.823 128.147 204.823 128.206C204.793 128.325 204.764 128.414 204.734 128.533C204.734 128.562 204.705 128.622 204.705 128.651C204.705 128.681 204.705 128.681 204.675 128.711V128.74C204.675 128.77 204.646 128.829 204.646 128.859V128.889V128.918V128.948C204.646 128.978 204.616 129.007 204.616 129.037C204.616 129.067 204.616 129.067 204.587 129.067C204.587 129.067 204.587 129.067 204.587 129.096C204.587 129.096 204.587 129.096 204.587 129.126C204.587 129.156 204.587 129.156 204.557 129.185V129.215C204.557 129.245 204.528 129.274 204.528 129.274C204.498 129.334 204.469 129.393 204.439 129.452C204.351 129.66 204.203 129.838 204.085 130.045C204.056 130.105 204.026 130.134 203.997 130.194C203.967 130.223 203.938 130.253 203.938 130.283C203.908 130.342 203.849 130.401 203.82 130.461C203.761 130.52 203.702 130.579 203.643 130.639C203.613 130.668 203.554 130.728 203.525 130.757L203.495 130.787C203.171 131.143 202.758 131.469 202.345 131.736L202.079 131.914H202.05C201.991 131.944 201.932 131.974 201.902 132.003C201.873 132.003 201.873 132.033 201.843 132.033C201.814 132.063 201.755 132.092 201.725 132.092C201.607 132.181 201.489 132.241 201.371 132.33C200.545 132.863 199.748 133.368 198.952 133.872L198.391 134.228L198.007 134.465L197.506 134.792C197.447 134.821 197.417 134.851 197.358 134.881C197.329 134.91 197.299 134.91 197.27 134.94C197.24 134.97 197.211 134.97 197.181 134.999C197.122 135.029 197.063 135.059 197.004 135.088C196.975 135.088 196.945 135.118 196.945 135.118C196.886 135.147 196.857 135.147 196.798 135.177C196.768 135.177 196.768 135.207 196.739 135.207C196.709 135.236 196.68 135.236 196.65 135.236C196.621 135.236 196.621 135.266 196.591 135.266C196.562 135.296 196.503 135.296 196.473 135.325C196.237 135.414 196.001 135.474 195.765 135.533C195.677 135.563 195.559 135.563 195.47 135.592C195.411 135.592 195.323 135.622 195.234 135.622C195.175 135.622 195.116 135.622 195.057 135.652C194.998 135.652 194.968 135.652 194.909 135.652C194.88 135.652 194.85 135.652 194.85 135.652C194.821 135.652 194.791 135.652 194.762 135.652C194.732 135.652 194.703 135.652 194.673 135.652H191.074H191.015L190.749 135.681L188.655 135.859L187.238 135.978L181.16 136.453L173.342 137.076L173.135 137.105L167.057 137.58L165.641 137.699L163.546 137.876C163.487 137.876 162.75 137.906 161.452 137.936C150.741 138.203 102.148 139.389 84.091 139.449C81.7011 139.449 78.3671 139.419 74.4725 139.389C73.7644 139.389 73.0268 139.36 72.2597 139.36C71.5221 139.33 70.755 139.33 69.9584 139.33C69.4273 139.33 68.8962 139.3 68.3651 139.3C63.4969 139.211 58.2451 139.093 53.2884 139.004C52.4033 138.974 51.5181 138.974 50.633 138.944C50.1019 138.915 49.5708 138.915 49.0398 138.915C48.2726 138.885 47.5055 138.885 46.7384 138.855C46.0008 138.826 45.2632 138.826 44.5256 138.796C37.2085 138.618 31.9272 138.47 31.9272 138.47C30.0389 138.499 28.2097 136.453 27.5311 134.347C27.413 133.961 27.3245 133.546 27.295 133.16C27.295 133.13 27.295 133.13 27.295 133.101C27.2655 132.893 27.2655 132.715 27.295 132.507C27.295 132.478 27.295 132.448 27.295 132.419V132.389C27.295 132.359 27.295 132.3 27.295 132.27C27.3835 131.618 27.472 130.906 27.5901 130.164C27.6196 130.045 27.6196 129.956 27.6491 129.838C27.6491 129.779 27.6786 129.69 27.6786 129.601C27.7081 129.304 27.7671 129.007 27.8261 128.74C27.8556 128.562 27.8851 128.414 27.9146 128.236C27.9736 127.91 28.0326 127.583 28.0916 127.257C28.1506 126.99 28.1801 126.723 28.2392 126.456C28.2687 126.219 28.3277 126.011 28.3867 125.774C28.4457 125.477 28.5047 125.181 28.5637 124.884C28.5637 124.854 28.5637 124.825 28.5932 124.795C29.0063 122.808 29.5374 120.791 30.1569 118.922C30.2455 118.655 30.334 118.388 30.4225 118.121C30.4815 117.943 30.57 117.735 30.629 117.557C30.688 117.379 30.7765 117.201 30.8355 117.023C30.8946 116.905 30.9241 116.786 30.9831 116.638C31.0126 116.579 31.0421 116.519 31.0421 116.46C31.1011 116.341 31.1601 116.223 31.1896 116.104C31.2191 116.045 31.2486 116.015 31.2486 115.956C31.4846 115.451 31.7207 115.006 31.9567 114.561C31.9567 114.532 31.9567 114.532 31.9862 114.532C32.0747 114.383 32.1632 114.235 32.2518 114.087C32.3993 113.85 32.5468 113.642 32.7238 113.434C32.8123 113.316 32.9009 113.227 33.0189 113.108C33.1074 113.019 33.1664 112.96 33.2549 112.871C33.3139 112.811 33.4024 112.722 33.4614 112.663C33.6975 112.455 33.9335 112.248 34.1695 112.07C34.3466 111.921 34.5531 111.773 34.7596 111.654C34.8186 111.595 34.9072 111.565 34.9957 111.506C35.1432 111.417 35.2907 111.328 35.4382 111.239C35.6153 111.121 35.7923 111.032 35.9693 110.943C36.0283 110.913 36.0873 110.883 36.1463 110.854C36.2939 110.765 36.4709 110.676 36.6479 110.587C36.7954 110.498 36.943 110.438 37.0905 110.349C38.5952 109.608 40.336 108.896 42.2242 108.243C42.3423 108.214 42.4603 108.154 42.5488 108.125C42.7553 108.065 42.9619 107.976 43.1684 107.917H43.1979C43.4339 107.828 43.6405 107.769 43.8765 107.68C44.142 107.591 44.4371 107.502 44.7026 107.413C48.5382 106.256 52.7573 105.247 56.6814 104.417C56.9764 104.357 57.242 104.298 57.5075 104.239C58.0681 104.12 58.6582 104.001 59.2483 103.883C59.3663 103.853 59.4843 103.823 59.5728 103.823C59.9269 103.764 60.2514 103.675 60.6055 103.616C60.694 103.586 60.812 103.586 60.9005 103.556C61.2251 103.497 61.5201 103.438 61.8447 103.379C62.1987 103.319 62.5233 103.26 62.8478 103.171C63.0248 103.141 63.2019 103.112 63.4084 103.082C63.6149 103.052 63.792 103.023 63.9985 102.963C64.028 102.963 64.0575 102.963 64.087 102.963C64.2345 102.934 64.3525 102.904 64.5001 102.874C64.7656 102.815 65.0311 102.785 65.2967 102.726C65.4147 102.696 65.5622 102.667 65.6802 102.667C66.0343 102.607 66.3588 102.548 66.6834 102.489C66.9784 102.429 67.2735 102.37 67.5685 102.311C67.8046 102.251 68.0701 102.222 68.3061 102.162C68.4241 102.133 68.5422 102.103 68.6602 102.103C68.8962 102.044 69.1322 102.014 69.3683 101.955C69.5158 101.925 69.6338 101.895 69.7518 101.866C69.7813 101.866 69.8108 101.866 69.8404 101.836C69.9289 101.806 70.0174 101.806 70.1059 101.777C70.1944 101.747 70.3124 101.717 70.4304 101.688C73.4694 100.916 81.1995 97.9502 89.3723 94.7169C96.3943 91.9583 103.682 89.0217 108.609 87.1529C110.409 86.4707 111.884 85.9367 112.887 85.5808C116.516 84.3646 130.265 84.1273 143.719 84.3646C143.808 84.3646 143.896 84.3646 143.985 84.3646C155.079 84.5722 165.995 85.0765 170.863 85.6401C170.893 85.6401 170.952 85.6401 170.981 85.6401C171.011 85.6401 171.07 85.6401 171.099 85.6698C171.158 85.6698 171.217 85.6698 171.276 85.6994C171.483 85.7291 171.69 85.7587 171.867 85.7884C171.926 85.7884 171.985 85.8181 172.044 85.8181C172.132 85.8477 172.221 85.8477 172.309 85.8477C172.486 85.8774 172.634 85.9071 172.752 85.9367C172.811 85.9367 172.87 85.9664 172.929 85.9664C173.017 85.996 173.106 85.996 173.165 86.0257C173.283 86.0554 173.43 86.085 173.578 86.1444C173.666 86.174 173.725 86.2037 173.814 86.2333C173.902 86.263 173.961 86.2927 174.05 86.3223C174.138 86.352 174.227 86.3817 174.315 86.4113H174.345C174.404 86.441 174.433 86.441 174.492 86.4707C174.522 86.4707 174.551 86.5003 174.551 86.5003C174.64 86.53 174.728 86.5596 174.817 86.5893C174.935 86.6486 175.053 86.6783 175.171 86.7376C175.407 86.8266 175.643 86.9453 175.909 87.0639C175.938 87.0639 175.968 87.0936 175.997 87.0936C176.204 87.1826 176.41 87.3012 176.617 87.3902C176.764 87.4792 176.912 87.5385 177.089 87.6275C177.236 87.6868 177.354 87.7758 177.502 87.8351C177.767 87.9835 178.062 88.1318 178.358 88.2801C178.505 88.3691 178.653 88.4284 178.8 88.5174C179.567 88.9327 180.334 89.3776 181.131 89.8522C181.278 89.9412 181.396 90.0302 181.544 90.1192C182.075 90.4455 182.636 90.7718 183.196 91.1277C183.403 91.2464 183.58 91.365 183.786 91.4837C183.904 91.543 183.993 91.632 184.111 91.6913C184.376 91.8693 184.671 92.0473 184.937 92.2253C187.061 93.5898 189.156 95.0729 191.103 96.4671C191.398 96.6747 191.694 96.912 191.989 97.1196C192.048 97.179 192.136 97.2086 192.195 97.268C192.225 97.2976 192.284 97.3273 192.313 97.3569C192.343 97.3866 192.372 97.3866 192.402 97.4163C192.49 97.4756 192.579 97.5349 192.667 97.6239C192.785 97.7129 192.874 97.7722 192.992 97.8612C193.021 97.8909 193.051 97.8909 193.051 97.9205L193.08 97.9502C193.139 97.9799 193.169 98.0095 193.198 98.0392C193.198 98.0392 193.228 98.0392 193.228 98.0689C193.257 98.0689 193.257 98.0985 193.287 98.0985C193.405 98.1875 193.493 98.2468 193.611 98.3358C193.818 98.4841 194.024 98.6621 194.231 98.8104C194.29 98.8698 194.349 98.8994 194.408 98.9587C194.437 98.9884 194.496 99.0181 194.526 99.0477C194.791 99.2554 195.057 99.4927 195.352 99.7003C195.382 99.73 195.411 99.7596 195.441 99.7893C195.529 99.8486 195.588 99.908 195.677 99.9673C195.706 99.9969 195.765 100.027 195.824 100.086C196.208 100.412 196.591 100.739 196.945 101.035C196.975 101.065 197.004 101.094 197.034 101.124C197.181 101.272 197.329 101.391 197.476 101.539C197.565 101.599 197.624 101.688 197.712 101.747L197.742 101.777C198.155 102.192 198.539 102.637 198.893 103.141C199.07 103.379 199.217 103.645 199.365 103.883C199.365 103.912 199.394 103.942 199.394 103.942C199.424 104.001 199.483 104.09 199.512 104.179C199.512 104.209 199.542 104.209 199.542 104.239C199.601 104.357 199.66 104.476 199.719 104.624C199.748 104.684 199.778 104.743 199.807 104.802C199.925 105.04 200.014 105.277 200.132 105.544C200.161 105.633 200.191 105.692 200.22 105.781C200.25 105.87 200.279 105.93 200.309 106.019C200.338 106.108 200.397 106.226 200.427 106.345C200.486 106.493 200.515 106.612 200.574 106.76C200.633 106.908 200.663 107.057 200.722 107.205C200.781 107.353 200.81 107.502 200.869 107.65C200.928 107.798 200.958 107.947 201.017 108.095C201.076 108.273 201.135 108.481 201.194 108.659C201.194 108.688 201.223 108.718 201.223 108.748V108.777C201.282 108.925 201.312 109.044 201.341 109.192C201.4 109.37 201.459 109.548 201.518 109.756C201.548 109.845 201.577 109.934 201.577 110.023C201.607 110.142 201.636 110.231 201.666 110.349C201.695 110.409 201.695 110.498 201.725 110.557C201.755 110.646 201.784 110.735 201.814 110.824C201.843 110.913 201.873 111.002 201.873 111.091C201.873 111.15 201.902 111.18 201.902 111.239C201.961 111.417 201.991 111.595 202.05 111.803C202.109 112.04 202.168 112.307 202.256 112.544C202.256 112.604 202.286 112.633 202.286 112.693C202.345 112.96 202.404 113.197 202.463 113.464C202.522 113.642 202.551 113.82 202.61 113.998C202.64 114.176 202.699 114.324 202.728 114.502C203.141 116.163 203.495 117.824 203.849 119.426C203.908 119.693 203.967 119.96 203.997 120.197C203.997 120.197 203.997 120.197 203.997 120.227C204.056 120.494 204.085 120.731 204.144 120.969C204.233 121.354 204.292 121.71 204.38 122.096C204.41 122.214 204.439 122.333 204.439 122.422C204.439 122.481 204.469 122.541 204.469 122.63C204.469 122.689 204.498 122.748 204.498 122.808C204.528 122.926 204.557 123.045 204.557 123.164V123.193C204.587 123.282 204.587 123.371 204.616 123.46V123.49C204.616 123.52 204.616 123.52 204.616 123.549C204.646 123.698 204.675 123.846 204.705 123.994C204.734 124.113 204.764 124.232 204.764 124.35C204.823 124.676 204.882 124.973 204.941 125.27C204.941 125.299 204.97 125.359 204.97 125.388C205 125.566 205.029 125.744 205.029 125.922C205 126.427 205 126.723 205 127.05Z" fill="black"/>
<path d="M205 127.049C205 127.079 205 127.079 205 127.079C205 127.168 204.97 127.257 204.97 127.376C204.97 127.435 204.97 127.524 204.941 127.583V127.613V127.643V127.672C204.941 127.732 204.911 127.821 204.911 127.88C204.911 127.91 204.911 127.939 204.882 127.939C204.882 127.969 204.852 128.028 204.852 128.058C204.852 128.117 204.823 128.147 204.823 128.206C204.793 128.325 204.764 128.414 204.734 128.533C204.734 128.562 204.705 128.622 204.705 128.651C204.705 128.681 204.705 128.681 204.675 128.711V128.74C204.675 128.77 204.646 128.829 204.646 128.859V128.889V128.918C204.646 128.948 204.616 128.978 204.587 129.037C204.587 129.067 204.587 129.067 204.557 129.067C204.557 129.067 204.557 129.067 204.557 129.096C204.557 129.096 204.557 129.096 204.557 129.126C204.528 129.185 204.528 129.215 204.498 129.274C204.469 129.334 204.439 129.393 204.41 129.452C204.321 129.66 204.174 129.838 204.056 130.045C204.026 130.105 203.997 130.134 203.967 130.194C203.938 130.223 203.908 130.253 203.908 130.283C203.879 130.342 203.82 130.401 203.79 130.461C203.731 130.52 203.672 130.579 203.613 130.639C203.584 130.668 203.525 130.728 203.495 130.757L203.466 130.787C203.112 131.173 202.669 131.469 202.256 131.766C202.256 131.766 202.256 131.766 202.227 131.796C202.168 131.825 202.109 131.885 202.05 131.914C201.991 131.944 201.932 132.003 201.873 132.033C201.843 132.033 201.843 132.063 201.814 132.063C201.784 132.092 201.725 132.122 201.695 132.122C201.577 132.211 201.459 132.27 201.341 132.359C200.515 132.893 199.719 133.397 198.922 133.902L198.361 134.258L197.978 134.495C197.476 134.821 196.975 135.088 196.444 135.325C196.119 135.444 195.795 135.563 195.411 135.622C195.352 135.622 195.264 135.652 195.175 135.652C195.116 135.652 195.057 135.652 194.998 135.681C194.939 135.681 194.909 135.681 194.85 135.681C194.821 135.681 194.791 135.681 194.791 135.681H194.762C194.083 135.711 193.405 135.711 192.697 135.681C192.52 135.681 192.313 135.681 192.136 135.681C191.723 135.681 191.339 135.681 190.926 135.681C190.867 135.681 190.838 135.681 190.779 135.681C190.72 135.681 190.69 135.681 190.631 135.681C190.395 135.681 190.159 135.681 189.953 135.681C189.51 135.681 189.038 135.681 188.596 135.681C188.123 135.681 187.681 135.681 187.209 135.681L181.574 135.741H180.718L175.112 135.8H174.463L171.837 135.83H170.598L166.202 135.859H164.815H164.107C163.664 135.859 163.222 135.859 162.75 135.859C162.071 135.859 161.393 135.859 160.714 135.889L155.875 135.919C153.013 135.948 150.151 135.978 147.319 135.978C143.129 136.008 138.94 136.037 134.75 136.097L120.086 136.215C115.1 136.245 110.114 136.304 105.157 136.334C100.702 136.364 96.2763 136.393 91.8211 136.453C88.5461 136.482 85.2712 136.512 81.9667 136.542C80.4619 136.542 78.9572 136.571 77.4525 136.571H77.364H76.6854C76.2133 136.571 75.7412 136.571 75.2397 136.571C74.5611 136.571 73.853 136.571 73.1744 136.601C72.7613 136.601 72.3187 136.601 71.9057 136.601H71.0795H69.6633H69.4863C67.539 136.631 65.5917 136.631 63.6444 136.66H63.5854L55.4127 136.72H55.2947L49.3348 136.779H47.9186H46.9449C46.5614 136.779 46.2073 136.779 45.8238 136.779C45.4402 136.779 45.0862 136.779 44.7026 136.779H43.7585L41.6342 136.809C41.1031 136.809 40.572 136.809 40.0409 136.838C37.7101 136.868 35.4087 136.868 33.0779 136.898C32.4878 136.898 31.8977 136.898 31.3076 136.898C31.2486 136.898 31.1896 136.898 31.1306 136.898C31.0716 136.898 31.0126 136.898 30.9831 136.898C30.9536 136.898 30.9241 136.898 30.9241 136.898C30.8946 136.898 30.8651 136.898 30.8356 136.898H30.806C29.9799 136.809 29.2423 136.453 28.6227 135.948C28.1211 135.503 27.7081 134.969 27.4425 134.317C27.4425 134.287 27.4425 134.287 27.413 134.287C27.413 134.258 27.3835 134.228 27.3835 134.198C27.2655 133.842 27.2065 133.486 27.177 133.13C27.177 133.101 27.177 133.101 27.177 133.071C27.1475 132.834 27.1475 132.626 27.177 132.389V132.359C27.2065 131.618 27.354 130.846 27.5016 130.134C27.5311 130.016 27.5311 129.927 27.5606 129.808C27.5606 129.749 27.5901 129.66 27.5901 129.571C27.6196 129.274 27.6786 128.978 27.7376 128.711C27.7671 128.533 27.7966 128.384 27.8261 128.206C27.8851 127.88 27.9441 127.554 28.0031 127.227C28.0621 126.961 28.0916 126.694 28.1507 126.427C28.1802 126.189 28.2392 125.982 28.2982 125.744C28.3277 125.626 28.3277 125.507 28.3572 125.418C28.3867 125.24 28.4457 125.032 28.4752 124.854C28.4752 124.825 28.4752 124.795 28.5047 124.765C28.9178 122.778 29.4193 120.82 30.0684 118.892C30.1569 118.625 30.2455 118.358 30.334 118.091C30.393 117.913 30.4815 117.706 30.5405 117.528C30.5995 117.35 30.688 117.172 30.747 116.994C30.806 116.875 30.8356 116.756 30.8946 116.608C30.9241 116.549 30.9536 116.489 30.9536 116.43C31.0126 116.312 31.0716 116.193 31.1011 116.074C31.1306 116.015 31.1601 115.985 31.1601 115.926C31.3666 115.451 31.6027 114.977 31.8682 114.532C31.8682 114.502 31.8682 114.502 31.8977 114.502C32.2518 113.909 32.6648 113.345 33.1369 112.871C33.1959 112.811 33.2844 112.722 33.3434 112.663C33.5795 112.455 33.8155 112.248 34.0515 112.07C34.2286 111.921 34.4351 111.773 34.6416 111.654C34.7006 111.595 34.7891 111.565 34.8777 111.506C35.0252 111.417 35.1727 111.328 35.3202 111.239C35.4972 111.121 35.6743 111.032 35.8513 110.943C35.9103 110.913 35.9693 110.883 36.0283 110.854C36.1758 110.765 36.3529 110.676 36.5299 110.587C36.6774 110.498 36.8249 110.438 36.9725 110.349C37.238 110.231 37.5035 110.082 37.7691 109.964C38.9493 109.4 40.1589 108.925 41.3686 108.481C41.6047 108.392 41.8407 108.303 42.1062 108.214C42.2242 108.184 42.3423 108.125 42.4308 108.095C42.6373 108.036 42.8438 107.947 43.0504 107.887H43.0799C43.3159 107.798 43.5224 107.739 43.7585 107.65C44.024 107.561 44.3191 107.472 44.5846 107.383C48.5087 106.167 52.5213 105.218 56.5634 104.387C56.8584 104.328 57.124 104.268 57.3895 104.209C57.9501 104.09 58.5402 103.972 59.1303 103.853C59.2483 103.823 59.3663 103.794 59.4548 103.794C59.8089 103.734 60.1334 103.645 60.4875 103.586C60.576 103.556 60.694 103.556 60.7825 103.527C61.1071 103.467 61.4021 103.408 61.7267 103.349C62.0807 103.289 62.4053 103.23 62.7298 103.141C62.9068 103.112 63.0839 103.082 63.2904 103.052C63.4969 103.023 63.6739 102.993 63.8805 102.934C63.91 102.934 63.9395 102.934 63.969 102.934C64.1165 102.904 64.2345 102.874 64.382 102.845C64.6476 102.785 64.9131 102.756 65.1787 102.696C65.2967 102.667 65.4442 102.637 65.5622 102.637C65.9163 102.578 66.2408 102.518 66.5654 102.459C66.8604 102.4 67.1555 102.34 67.4505 102.281C67.6865 102.222 67.9521 102.192 68.1881 102.133C68.3061 102.103 68.4242 102.073 68.5422 102.073C68.7782 102.014 69.0142 101.984 69.2503 101.925C69.3683 101.895 69.5158 101.866 69.6338 101.836C69.6633 101.836 69.6928 101.836 69.7223 101.806C70.696 101.599 71.6401 101.243 72.5548 100.887C75.7707 99.6113 78.9277 98.1281 82.0257 96.645C86.0383 94.7466 90.0214 92.7592 94.0045 90.7717C98.1056 88.725 102.354 86.9749 106.78 85.6994C111.176 84.4239 115.69 83.5636 120.263 83.178C122.83 82.9407 125.397 82.9111 127.935 82.9704H127.964C128.141 82.9704 128.289 82.9704 128.466 82.9704C129.882 83.0001 131.269 83.0594 132.685 83.1484C133.54 83.178 134.396 83.2374 135.222 83.2967C138.822 83.4747 142.421 83.6823 145.991 83.8899C146.463 83.9196 146.906 83.9493 147.378 83.9789C147.555 83.9789 147.732 84.0086 147.909 84.0086C152.954 84.3052 157.97 84.6019 163.015 84.9875C163.074 84.9875 163.163 84.9875 163.222 85.0171C164.136 85.0765 165.051 85.1654 165.936 85.2248C166.084 85.2248 166.231 85.2544 166.379 85.2544C166.674 85.2841 166.969 85.3138 167.293 85.3434C167.942 85.4028 168.621 85.4621 169.27 85.5214C169.506 85.5511 169.742 85.5807 169.978 85.5807C170.155 85.6104 170.332 85.6104 170.539 85.6401C170.598 85.6401 170.627 85.6401 170.686 85.6401C170.775 85.6401 170.834 85.6697 170.922 85.6697C170.952 85.6697 171.011 85.6697 171.04 85.6994C171.099 85.6994 171.158 85.6994 171.217 85.729C171.424 85.7587 171.631 85.7884 171.808 85.818C172.162 85.8774 172.516 85.9367 172.87 85.996C172.958 86.0257 173.047 86.0257 173.106 86.0553C173.224 86.085 173.371 86.1147 173.519 86.174C173.607 86.2036 173.666 86.2333 173.755 86.263C173.784 86.263 173.814 86.2926 173.843 86.2926C174.168 86.4113 174.492 86.5299 174.787 86.6486C174.935 86.7079 175.083 86.7672 175.201 86.8266C176.971 87.5681 178.653 88.4877 180.334 89.4666C180.393 89.4962 180.452 89.5259 180.511 89.5852C182.075 90.5048 183.58 91.4837 185.085 92.4625C186.56 93.4414 188.035 94.4203 189.481 95.4585C189.805 95.6958 190.159 95.9331 190.484 96.1704C190.926 96.4967 191.339 96.7933 191.753 97.1196C191.871 97.2086 191.989 97.2976 192.107 97.3866C192.166 97.4459 192.225 97.4756 192.313 97.5349C192.402 97.5942 192.49 97.6535 192.579 97.7425C192.697 97.8315 192.785 97.8908 192.903 97.9798C192.933 98.0095 192.962 98.0095 192.962 98.0392L192.992 98.0688C193.051 98.0985 193.08 98.1578 193.139 98.1875C193.169 98.1875 193.169 98.2171 193.198 98.2171C193.316 98.3061 193.405 98.3654 193.523 98.4544C193.729 98.6027 193.936 98.7807 194.142 98.929C194.201 98.9884 194.26 99.018 194.319 99.0774C194.349 99.107 194.378 99.1367 194.437 99.1663C194.703 99.374 194.998 99.6113 195.264 99.8189C195.293 99.8486 195.323 99.8783 195.352 99.9079C195.441 99.9672 195.5 100.027 195.588 100.086C195.618 100.116 195.677 100.145 195.736 100.205C196.296 100.679 196.857 101.154 197.388 101.658L197.417 101.688C197.476 101.747 197.565 101.836 197.624 101.895L197.653 101.925C198.066 102.34 198.45 102.785 198.804 103.289C198.981 103.527 199.129 103.794 199.276 104.031C199.276 104.061 199.306 104.09 199.306 104.09C199.335 104.15 199.394 104.239 199.424 104.328C199.424 104.357 199.453 104.357 199.453 104.387C199.512 104.506 199.571 104.624 199.63 104.773C199.807 105.129 199.955 105.514 200.102 105.9C200.132 105.989 200.161 106.048 200.191 106.137C200.22 106.226 200.279 106.345 200.309 106.463C200.368 106.612 200.397 106.73 200.456 106.879C200.515 107.027 200.545 107.175 200.604 107.324C200.663 107.472 200.692 107.62 200.751 107.769C200.81 107.917 200.84 108.065 200.899 108.214C200.958 108.392 201.017 108.599 201.076 108.777C201.076 108.807 201.105 108.836 201.105 108.866V108.896C201.164 109.044 201.194 109.163 201.223 109.311C201.282 109.489 201.341 109.667 201.4 109.875C201.4 109.904 201.43 109.934 201.43 109.964C201.489 110.142 201.518 110.29 201.577 110.468C201.607 110.527 201.607 110.616 201.636 110.676C201.666 110.765 201.695 110.854 201.725 110.943C201.755 111.032 201.784 111.121 201.784 111.209C201.784 111.269 201.814 111.298 201.814 111.358C201.873 111.536 201.902 111.714 201.961 111.921C202.02 112.159 202.079 112.426 202.168 112.663C202.168 112.722 202.197 112.752 202.197 112.811C203.023 115.956 203.702 119.159 204.321 122.333C204.321 122.363 204.321 122.392 204.351 122.422C204.41 122.659 204.439 122.926 204.498 123.164C204.498 123.193 204.498 123.223 204.528 123.282V123.312C204.557 123.401 204.557 123.49 204.587 123.579V123.609C204.587 123.638 204.587 123.638 204.587 123.668C204.616 123.816 204.646 123.965 204.675 124.113C204.705 124.232 204.734 124.35 204.734 124.469C204.793 124.765 204.852 125.092 204.911 125.388C204.97 125.982 205.029 126.516 205 127.049Z" fill="#C42128"/>
<path d="M198.893 103.497C198.922 103.527 198.922 103.556 198.952 103.586C198.922 103.527 198.863 103.467 198.834 103.378C198.863 103.438 198.863 103.467 198.893 103.497Z" fill="#C43345"/>
<path d="M199.07 103.823C199.129 103.912 199.158 103.972 199.188 104.061C199.099 103.912 199.011 103.734 198.922 103.586C198.981 103.675 199.04 103.734 199.07 103.823Z" fill="#C43345"/>
<path d="M205 127.049C205 127.079 205 127.079 205 127.079C205 127.168 205 127.227 204.97 127.316C204.97 127.346 204.97 127.346 204.97 127.376C204.97 127.435 204.97 127.524 204.941 127.583V127.613V127.643V127.672C204.941 127.732 204.911 127.821 204.911 127.88C204.911 127.91 204.911 127.939 204.882 127.939C204.882 127.969 204.852 128.028 204.852 128.058C204.852 128.117 204.823 128.147 204.823 128.206C204.793 128.325 204.764 128.414 204.734 128.533C204.734 128.562 204.705 128.622 204.705 128.651C204.705 128.681 204.705 128.681 204.675 128.711V128.74C204.675 128.77 204.646 128.829 204.646 128.859V128.889V128.918V128.948C204.646 128.978 204.616 129.007 204.616 129.037C204.616 129.067 204.616 129.067 204.587 129.067C204.587 129.067 204.587 129.067 204.587 129.096C204.587 129.096 204.587 129.096 204.587 129.126C204.587 129.156 204.587 129.155 204.557 129.185V129.215C204.557 129.244 204.528 129.274 204.528 129.274C204.498 129.333 204.469 129.393 204.439 129.452C204.351 129.66 204.203 129.838 204.085 130.045C204.056 130.105 204.026 130.134 203.997 130.194C203.967 130.223 203.938 130.253 203.938 130.283C203.908 130.342 203.849 130.401 203.82 130.461C203.761 130.52 203.702 130.579 203.643 130.639C203.613 130.668 203.554 130.728 203.525 130.757L203.495 130.787C203.171 131.143 202.758 131.469 202.345 131.736L202.079 131.914H202.05C201.99 131.944 201.931 131.973 201.902 132.003C201.872 132.003 201.872 132.033 201.843 132.033C201.813 132.062 201.754 132.092 201.725 132.092C201.607 132.181 201.489 132.24 201.371 132.329C200.545 132.863 199.748 133.368 198.952 133.872L198.391 134.228L198.007 134.465L197.506 134.791C197.447 134.821 197.417 134.851 197.358 134.88C197.329 134.91 197.299 134.91 197.27 134.94C197.24 134.969 197.211 134.969 197.181 134.999C197.122 135.029 197.063 135.058 197.004 135.088C196.975 135.088 196.945 135.118 196.945 135.118C196.886 135.147 196.857 135.147 196.798 135.177C196.768 135.177 196.768 135.207 196.739 135.207C196.709 135.236 196.68 135.236 196.65 135.236C196.621 135.236 196.621 135.266 196.591 135.266C196.562 135.296 196.503 135.296 196.473 135.325C196.237 135.414 196.001 135.474 195.765 135.533C195.677 135.563 195.559 135.563 195.47 135.592C195.411 135.592 195.323 135.622 195.234 135.622C195.175 135.622 195.116 135.622 195.057 135.652C194.998 135.652 194.968 135.652 194.909 135.652C194.88 135.652 194.85 135.652 194.85 135.652C194.821 135.652 194.791 135.652 194.762 135.652C194.732 135.652 194.703 135.652 194.673 135.652H191.074H190.867H190.72H190.041H188.684H187.297L181.662 135.711H180.806H179.567L174.551 135.741L171.926 135.77H170.686L166.29 135.8H164.903H164.195H162.838L160.802 135.83L155.964 135.859L134.839 136.037L120.175 136.156L75.3577 136.512L73.2924 136.542H72.0237H71.1975H69.7813L63.7624 136.601H63.7034L55.5307 136.66H55.4127L49.4528 136.72H48.0366H47.063H45.9418H44.8206H43.8765L41.7522 136.749L31.4256 136.838C31.3666 136.838 31.3076 136.838 31.2486 136.838H31.2191C31.1896 136.838 31.1306 136.838 31.1011 136.838C31.0716 136.838 31.0421 136.838 31.0421 136.838C31.0126 136.838 30.9831 136.838 30.9536 136.838H30.924C30.8945 136.838 30.8355 136.838 30.7765 136.809C30.6585 136.779 30.57 136.779 30.4815 136.749C30.4225 136.749 30.3635 136.72 30.3045 136.69C30.0684 136.631 29.8324 136.542 29.6259 136.423C29.5668 136.393 29.5373 136.393 29.4783 136.364C29.4193 136.334 29.3603 136.304 29.3013 136.275C29.2423 136.245 29.2128 136.215 29.1538 136.186C29.0948 136.156 29.0653 136.126 29.0063 136.097C28.9473 136.067 28.9177 136.037 28.8587 135.978C28.8292 135.948 28.7702 135.919 28.7407 135.859L41.3096 133.427L43.3454 133.041L45.3222 132.656L47.3285 132.27L48.6562 132.003L53.967 130.995L62.7298 129.304L64.323 129.007L69.6633 127.999L70.991 127.732L72.9973 127.346L74.9741 126.96L77.0099 126.575H77.0394L134.101 115.718L134.927 115.57L177.089 107.472L188.507 105.277H188.536L190.956 104.802L197.83 103.497L198.745 103.319C198.922 103.556 199.07 103.823 199.217 104.061C199.217 104.09 199.247 104.12 199.247 104.12C199.276 104.179 199.335 104.268 199.365 104.357C199.365 104.387 199.394 104.387 199.394 104.417C199.453 104.535 199.512 104.654 199.571 104.802C199.601 104.862 199.63 104.921 199.66 104.98C199.778 105.218 199.866 105.455 199.984 105.722C200.014 105.811 200.043 105.87 200.073 105.959C200.102 106.048 200.132 106.107 200.161 106.196C200.191 106.285 200.25 106.404 200.279 106.523C200.338 106.671 200.368 106.79 200.427 106.938C200.486 107.086 200.515 107.235 200.574 107.383C200.633 107.531 200.663 107.68 200.722 107.828C200.781 107.976 200.81 108.124 200.869 108.273C200.928 108.451 200.987 108.658 201.046 108.836C201.046 108.866 201.076 108.896 201.076 108.925V108.955C201.135 109.103 201.164 109.222 201.194 109.37C201.253 109.548 201.312 109.726 201.371 109.934C201.4 110.023 201.43 110.112 201.43 110.201C201.459 110.32 201.489 110.409 201.518 110.527C201.548 110.587 201.548 110.675 201.577 110.735C201.607 110.824 201.636 110.913 201.666 111.002C201.695 111.091 201.725 111.18 201.725 111.269C201.725 111.328 201.754 111.358 201.754 111.417C201.813 111.595 201.843 111.773 201.902 111.981C201.961 112.218 202.02 112.485 202.109 112.722C202.109 112.782 202.138 112.811 202.138 112.871C202.197 113.138 202.256 113.375 202.315 113.642C202.374 113.82 202.404 113.998 202.463 114.176C202.492 114.354 202.551 114.502 202.581 114.68C202.994 116.341 203.348 118.002 203.702 119.604C203.761 119.871 203.82 120.138 203.849 120.375C203.849 120.375 203.849 120.375 203.849 120.405C203.908 120.672 203.938 120.909 203.997 121.147C204.085 121.532 204.144 121.888 204.233 122.274C204.262 122.392 204.292 122.511 204.292 122.6C204.292 122.659 204.321 122.719 204.321 122.808C204.321 122.867 204.351 122.926 204.351 122.986C204.38 123.104 204.41 123.223 204.41 123.342V123.371C204.439 123.46 204.439 123.549 204.469 123.638V123.668C204.469 123.698 204.469 123.698 204.469 123.727C204.498 123.875 204.528 124.024 204.557 124.172C204.587 124.291 204.616 124.409 204.616 124.528C204.675 124.854 204.734 125.151 204.793 125.448C204.793 125.477 204.823 125.537 204.823 125.566C204.852 125.744 204.882 125.922 204.882 126.1C205 126.427 205 126.723 205 127.049Z" fill="#AE171E"/>
<path d="M41.0146 132.596C41.0146 134.08 41.1916 135.533 41.5162 136.898L43.6405 136.868L45.7058 136.838L47.8006 136.809H49.2168L55.2947 136.749L63.4674 136.69L69.5453 136.631H70.9616L73.0564 136.601L75.1217 136.571L77.246 136.542C77.541 135.266 77.6886 133.902 77.6886 132.537C77.6886 122.363 69.4568 114.087 59.3368 114.087C49.2168 114.146 41.0146 122.422 41.0146 132.596Z" fill="#F2EEFF"/>
<path d="M158.236 132.596C158.236 133.753 158.354 134.851 158.531 135.948L160.625 135.919L162.661 135.889L164.727 135.859H166.113L171.749 135.8L181.485 135.711L187.12 135.652H188.507L190.572 135.622H190.897H194.496C194.555 135.622 194.614 135.622 194.703 135.622C194.88 134.614 194.969 133.575 194.969 132.537C194.969 122.363 186.766 114.087 176.617 114.087C166.438 114.146 158.236 122.422 158.236 132.596Z" fill="#F2EEFF"/>
<path d="M176.587 116.222C167.618 116.222 160.301 123.579 160.301 132.596C160.301 133.753 160.419 134.851 160.625 135.948C160.773 136.631 160.95 137.313 161.186 137.936C163.399 144.373 169.477 148.97 176.587 148.97C184.524 148.97 191.133 143.245 192.579 135.681C192.756 134.673 192.874 133.635 192.874 132.596C192.874 123.579 185.557 116.222 176.587 116.222ZM176.587 144.966C173.46 144.966 170.598 143.779 168.415 141.822C167.146 140.694 166.113 139.271 165.405 137.698C165.14 137.105 164.933 136.512 164.756 135.889C164.461 134.821 164.313 133.724 164.313 132.596C164.313 125.774 169.831 120.227 176.617 120.227C180.275 120.227 183.55 121.829 185.793 124.38C187.74 126.575 188.92 129.452 188.92 132.596C188.92 133.664 188.773 134.702 188.537 135.711C188.537 135.77 188.507 135.83 188.478 135.889C187.002 141.139 182.252 144.966 176.587 144.966Z" fill="black"/>
<path d="M176.587 146.983C184.49 146.983 190.897 140.542 190.897 132.596C190.897 124.651 184.49 118.21 176.587 118.21C168.684 118.21 162.278 124.651 162.278 132.596C162.278 140.542 168.684 146.983 176.587 146.983Z" fill="#333333"/>
<path d="M179.413 143.265C185.271 141.698 188.756 135.653 187.197 129.763C185.638 123.874 179.625 120.37 173.767 121.937C167.909 123.505 164.424 129.55 165.983 135.439C167.542 141.329 173.555 144.832 179.413 143.265Z" fill="#F2EEFF"/>
<path d="M178.202 138.201C181.285 137.301 183.058 134.059 182.162 130.96C181.267 127.861 178.042 126.078 174.96 126.978C171.877 127.878 170.104 131.12 170.999 134.219C171.895 137.318 175.119 139.101 178.202 138.201Z" fill="#383838"/>
<path d="M74.7086 127.138C72.4663 120.791 66.4179 116.252 59.3663 116.252C50.3675 116.252 43.0799 123.609 43.0799 132.626C43.0799 132.834 43.0799 133.012 43.0799 133.219C43.1389 134.495 43.3159 135.741 43.6405 136.927C43.8175 137.58 44.024 138.203 44.2601 138.826C46.6794 144.818 52.5508 149.03 59.3368 149.03C65.9163 149.03 71.5811 145.084 74.1775 139.419C74.5906 138.529 74.8856 137.609 75.1512 136.66C75.4757 135.355 75.6527 134.02 75.6527 132.626C75.6527 130.698 75.3282 128.829 74.7086 127.138ZM59.3663 144.966C55.9733 144.966 52.9049 143.572 50.6625 141.347C49.9249 140.605 49.2758 139.775 48.7447 138.885C48.3612 138.262 48.0366 137.58 47.8006 136.868C47.3285 135.533 47.063 134.109 47.063 132.626C47.063 132.567 47.063 132.507 47.063 132.448C47.1515 125.715 52.6393 120.257 59.3663 120.257C62.7593 120.257 65.8278 121.651 68.0701 123.876C69.2208 125.003 70.1354 126.367 70.755 127.91C71.3451 129.363 71.6696 130.965 71.6696 132.626C71.6696 134.05 71.4336 135.414 70.9911 136.69C70.6665 137.639 70.2239 138.529 69.6929 139.33C67.5095 142.711 63.674 144.966 59.3663 144.966Z" fill="black"/>
<path d="M59.3663 146.983C67.2693 146.983 73.6759 140.542 73.6759 132.596C73.6759 124.651 67.2693 118.21 59.3663 118.21C51.4633 118.21 45.0567 124.651 45.0567 132.596C45.0567 140.542 51.4633 146.983 59.3663 146.983Z" fill="#333333"/>
<path d="M69.3185 137.216C71.8572 131.682 69.4528 125.127 63.9482 122.575C58.4436 120.022 51.9232 122.44 49.3846 127.974C46.846 133.508 49.2504 140.063 54.755 142.616C60.2596 145.168 66.7799 142.751 69.3185 137.216Z" fill="#F2EEFF"/>
<path d="M64.7059 134.861C65.9491 131.886 64.558 128.461 61.5986 127.211C58.6392 125.961 55.2323 127.359 53.989 130.335C52.7458 133.31 54.137 136.735 57.0963 137.985C60.0557 139.235 63.4626 137.836 64.7059 134.861Z" fill="#383838"/>
<path d="M139.205 85.1358L136.963 101.45L172.339 98.9587C174.404 98.8104 174.994 96.0518 173.165 95.0729L167.913 92.2549C163.074 89.6446 157.822 87.8945 152.423 87.0936L142.067 85.5214C141.123 85.3731 140.149 85.2545 139.205 85.1358Z" fill="#F2F2F2"/>
<path d="M76.6854 105.692L135.753 101.539L138.025 85.0171C120.558 83.2373 102.974 86.9452 87.6315 95.6661L75.7117 102.459C74.1185 103.378 74.8561 105.84 76.6854 105.692Z" fill="#C9C5DE"/>
<path d="M136.963 101.45L172.339 98.9587C174.404 98.8104 174.994 96.0517 173.165 95.0728L167.913 92.2549C163.9 90.0895 159.622 88.5173 155.197 87.5978L138.409 90.831L136.963 101.45Z" fill="#F2EEFF"/>
<path d="M76.6854 105.692L135.753 101.539L137.199 91.0387L75.0921 103.023C74.384 104.12 75.1511 105.811 76.6854 105.692Z" fill="#F2EEFF"/>
<path d="M173.076 89.9115L184.76 97.4756C185.38 97.8612 186.088 98.1282 186.796 98.2172L194.408 99.196C194.201 99.0477 194.024 98.8697 193.818 98.7214C193.611 98.5731 193.405 98.3951 193.198 98.2468C192.992 98.0985 192.785 97.9205 192.549 97.7722C192.343 97.5942 192.107 97.4459 191.87 97.2679C191.575 97.0603 191.28 96.8527 190.985 96.6154C189.068 95.2212 186.943 93.7381 184.819 92.3736C184.553 92.1956 184.258 92.0176 183.993 91.8396C183.875 91.7803 183.786 91.6913 183.668 91.632C183.462 91.5133 183.285 91.3947 183.078 91.276C182.518 90.9201 181.987 90.5938 181.426 90.2675C181.278 90.1785 181.16 90.0895 181.013 90.0302C180.216 89.5556 179.42 89.1106 178.682 88.6954C178.535 88.6064 178.387 88.5174 178.239 88.4581C177.944 88.3097 177.679 88.1318 177.384 88.0131C177.236 87.9538 177.118 87.8648 176.971 87.8055C176.823 87.7165 176.646 87.6572 176.499 87.5682C176.292 87.4792 176.086 87.3605 175.879 87.2715C175.85 87.2419 175.82 87.2419 175.791 87.2122C175.525 87.0936 175.289 86.9749 175.053 86.8859C174.935 86.8266 174.817 86.7969 174.699 86.7376C174.433 86.619 174.197 86.53 173.932 86.441C173.843 86.4113 173.755 86.3817 173.696 86.352C173.607 86.3223 173.548 86.2927 173.46 86.263C173.224 86.2037 173.017 86.1443 172.811 86.085L172.575 86.3817C171.601 87.4495 171.837 89.1403 173.076 89.9115Z" fill="#F2EEFF"/>
<path d="M198.45 104.506L200.22 109.014C200.456 109.667 200.014 110.349 199.306 110.349H197.004C195.736 110.349 194.526 109.726 193.759 108.688L191.044 104.921C190.159 103.675 191.133 101.984 192.638 102.103L195.677 102.4C196.916 102.518 197.978 103.319 198.45 104.506Z" fill="white"/>
<path d="M43.2274 111.239L36.9724 112.07C33.2549 112.544 30.4815 115.718 30.4815 119.485V119.574C30.4815 120.969 32.0747 121.74 33.1369 120.85L43.6994 112.366C44.201 111.951 43.8765 111.15 43.2274 111.239Z" fill="#C9C5DE"/>
<path d="M30.4815 119.485V119.574C30.4815 120.969 32.0747 121.74 33.1369 120.85L40.7785 114.68L31.0421 116.549C30.688 117.468 30.4815 118.447 30.4815 119.485Z" fill="#F2EEFF"/>
</g>
<path d="M115.92 231.656C179.969 231.656 231.891 179.84 231.891 115.92C231.891 83.9187 218.876 54.9506 197.841 34L115.92 115.92L34 197.841C54.9799 218.736 83.9383 231.656 115.92 231.656Z" fill="#26225B" fill-opacity="0.5"/>
<defs>
<clipPath id="clip0">
<rect width="178" height="66" fill="white" transform="translate(27 83)"/>
</clipPath>
</defs>
</svg>
