<svg width="31" height="31" viewBox="0 0 31 31" fill="none" xmlns="http://www.w3.org/2000/svg">
<path d="M18.1993 15.4644L30.3614 3.30178C31.117 2.54677 31.117 1.32174 30.3614 0.566737C29.6058 -0.188912 28.3821 -0.188912 27.6265 0.566737L15.4644 12.7293L3.30164 0.566737C2.54602 -0.188912 1.32233 -0.188912 0.566714 0.566737C-0.188905 1.32174 -0.188905 2.54677 0.566714 3.30178L12.7295 15.4644L0.566714 27.627C-0.188905 28.382 -0.188905 29.607 0.566714 30.362C0.944523 30.7392 1.43967 30.9281 1.93418 30.9281C2.42868 30.9281 2.92383 30.7392 3.30164 30.3614L15.4644 18.1988L27.6265 30.3614C28.0043 30.7392 28.4995 30.9281 28.994 30.9281C29.4885 30.9281 29.9836 30.7392 30.3614 30.3614C31.117 29.6064 31.117 28.3814 30.3614 27.6264L18.1993 15.4644Z" fill="#26225B"/>
</svg>
