<svg width="17" height="16" viewBox="0 0 17 16" fill="none" xmlns="http://www.w3.org/2000/svg">
<path d="M10.0035 8.00017L16.6885 1.7081C17.1038 1.31752 17.1038 0.683775 16.6885 0.293189C16.2732 -0.0977298 15.6005 -0.0977298 15.1852 0.293189L8.50018 6.58525L1.81478 0.293189C1.39945 -0.0977298 0.726835 -0.0977298 0.311501 0.293189C-0.103834 0.683775 -0.103834 1.31752 0.311501 1.7081L6.99689 8.00017L0.311501 14.2922C-0.103834 14.6828 -0.103834 15.3166 0.311501 15.7071C0.519168 15.9023 0.791332 16 1.06314 16C1.33495 16 1.60712 15.9023 1.81478 15.7068L8.50018 9.41475L15.1852 15.7068C15.3929 15.9023 15.665 16 15.9369 16C16.2087 16 16.4808 15.9023 16.6885 15.7068C17.1038 15.3162 17.1038 14.6825 16.6885 14.2919L10.0035 8.00017Z" fill="white"/>
</svg>
