<svg width="1440" height="674" viewBox="0 0 1440 674" fill="none" xmlns="http://www.w3.org/2000/svg">
<g clip-path="url(#clip0)">
<path d="M389.113 455.885C369.461 454.15 354.433 443.36 323.221 437.58C292.009 431.799 246.347 430.065 242.879 396.731C239.411 363.205 305.881 366.095 324.377 371.49C338.635 375.729 355.011 380.546 369.847 379.583C385.26 378.619 396.242 371.297 411.463 368.792C431.5 365.71 453.079 371.105 458.473 398.658C463.868 426.212 441.133 441.433 434.775 445.287C425.72 450.682 408.765 457.811 389.113 455.885Z" fill="#F2EEFF"/>
<path d="M403.178 419.66C401.251 419.66 399.517 419.66 397.591 419.66C353.47 419.275 254.247 398.08 253.283 397.887C252.32 397.695 251.742 396.731 251.935 395.768C252.127 394.804 253.091 394.226 254.054 394.419C255.017 394.612 354.048 415.614 397.783 415.999C441.519 416.385 484.869 411.76 485.254 411.76C486.217 411.568 486.988 412.338 487.181 413.302C487.373 414.265 486.603 415.036 485.639 415.229C485.254 415.421 445.372 419.66 403.178 419.66Z" fill="white"/>
<path d="M315.515 409.448C314.937 409.448 314.551 409.256 314.166 408.678L291.624 378.812C291.046 378.041 291.239 376.885 292.009 376.307C292.78 375.729 293.936 375.922 294.514 376.692L317.056 406.558C317.634 407.329 317.441 408.485 316.671 409.063C316.285 409.256 315.9 409.448 315.515 409.448Z" fill="white"/>
<path d="M359.057 416.577C358.479 416.577 358.094 416.385 357.709 415.999L335.745 389.987C335.167 389.217 335.167 388.253 335.937 387.483C336.708 386.905 337.671 386.905 338.442 387.675L360.406 413.687C360.984 414.458 360.984 415.421 360.213 416.192C359.828 416.577 359.443 416.577 359.057 416.577Z" fill="white"/>
<path d="M389.113 449.526C388.728 449.526 388.15 449.333 387.765 448.948C387.187 448.177 387.187 447.214 387.957 446.443L421.674 415.421C422.445 414.843 423.408 414.843 424.179 415.614C424.757 416.385 424.757 417.348 423.986 418.119L390.269 449.141C390.077 449.333 389.499 449.526 389.113 449.526Z" fill="white"/>
<path d="M301.835 433.341C301.257 433.341 300.872 433.148 300.487 432.57C299.909 431.799 300.101 430.643 300.872 430.065L328.423 409.834C329.194 409.256 330.35 409.448 330.928 410.219C331.506 410.99 331.313 412.146 330.543 412.724L302.991 432.955C302.606 433.148 302.221 433.341 301.835 433.341Z" fill="white"/>
<path d="M423.215 418.697C422.637 418.697 422.059 418.504 421.867 417.926L394.508 378.427C393.93 377.656 394.123 376.5 394.893 375.922C395.664 375.344 396.82 375.536 397.398 376.307L424.757 415.807C425.335 416.577 425.142 417.734 424.371 418.312C423.793 418.504 423.601 418.697 423.215 418.697Z" fill="#FFA3B1"/>
<path d="M415.123 332.954C409.729 318.888 399.325 305.786 385.067 300.969C366.379 294.61 359.057 294.032 339.405 290.756C319.561 287.288 304.34 272.452 288.349 260.313C279.101 253.376 267.733 246.825 256.751 249.908C247.503 252.606 241.145 261.662 239.604 271.103C238.063 280.544 240.567 290.178 244.421 299.042C253.283 319.081 269.082 335.844 288.541 345.863C303.569 353.571 321.295 357.81 332.855 370.334C344.8 383.244 347.305 402.319 358.094 416.385C372.159 434.69 394.123 447.214 420.133 428.909C446.143 410.412 439.399 380.161 437.087 372.068C433.812 360.314 419.555 344.515 415.123 332.954Z" fill="#F2EEFF"/>
<path d="M453.657 439.314C453.079 439.314 452.693 439.121 452.308 438.736C451.923 438.351 420.133 400.585 383.911 366.48C347.69 332.568 250.008 272.066 249.045 271.488C248.274 270.91 247.889 269.947 248.467 269.176C249.045 268.405 250.008 268.02 250.779 268.598C251.742 269.176 349.809 329.871 386.223 363.975C422.637 398.08 454.62 436.231 455.005 436.424C455.583 437.194 455.583 438.158 454.813 438.929C454.427 439.121 454.042 439.314 453.657 439.314Z" fill="white"/>
<path d="M263.687 322.934C262.916 322.934 262.146 322.356 261.953 321.586C261.76 320.622 262.338 319.659 263.109 319.466L308.964 307.52C309.927 307.327 310.891 307.905 311.083 308.676C311.276 309.639 310.698 310.603 309.927 310.795L264.072 322.742C264.072 322.934 263.88 322.934 263.687 322.934Z" fill="white"/>
<path d="M326.882 361.085C325.919 361.085 325.341 360.507 325.148 359.544C324.955 358.58 325.726 357.81 326.689 357.617L372.544 352.8C373.507 352.607 374.278 353.378 374.471 354.341C374.663 355.305 373.893 356.075 372.929 356.268L326.882 361.085C327.075 361.085 326.882 361.085 326.882 361.085Z" fill="white"/>
<path d="M400.673 381.51C399.902 381.51 399.132 380.931 398.939 379.968L389.306 310.795C389.113 309.832 389.884 309.061 390.847 308.869C391.81 308.676 392.581 309.447 392.774 310.41L402.407 379.583C402.6 380.546 401.829 381.317 400.866 381.51C400.673 381.51 400.673 381.51 400.673 381.51Z" fill="white"/>
<path d="M336.901 329.1C336.13 329.1 335.359 328.522 335.167 327.751L329.387 294.803C329.194 293.839 329.772 292.876 330.735 292.876C331.699 292.683 332.662 293.261 332.662 294.225L338.442 327.173C338.635 328.137 338.057 329.1 337.093 329.1H336.901Z" fill="white"/>
<path d="M356.938 402.704C356.167 402.704 355.397 402.126 355.204 401.356C355.011 400.392 355.589 399.429 356.553 399.236L409.921 388.446C410.885 388.253 411.848 388.831 412.041 389.795C412.233 390.758 411.655 391.722 410.692 391.914L357.323 402.704C357.131 402.704 357.131 402.704 356.938 402.704Z" fill="white"/>
<path d="M448.647 135.84C448.647 135.84 445.372 108.672 439.207 101.35C433.041 94.2212 423.215 86.514 413.775 94.6066C404.141 102.699 411.27 113.682 416.857 120.233C422.445 127.17 448.647 135.84 448.647 135.84Z" fill="#F2EEFF"/>
<path d="M455.198 153.567C455.198 153.567 437.28 138.345 428.803 136.804C420.518 135.262 409.343 135.262 407.609 144.704C405.875 154.338 416.857 157.613 424.564 159.155C432.271 160.696 455.198 153.567 455.198 153.567Z" fill="#F2EEFF"/>
<path d="M457.895 157.035C457.895 157.035 477.355 143.548 481.015 136.033C484.676 128.326 487.566 117.728 478.703 113.489C469.841 109.25 463.675 119.077 460.4 126.206C457.125 133.143 457.895 157.035 457.895 157.035Z" fill="#F2EEFF"/>
<path d="M467.143 189.213C466.565 189.213 465.987 188.635 465.795 188.057C454.427 140.08 437.28 120.233 422.252 105.397C421.674 104.819 421.674 103.663 422.252 103.085C422.83 102.507 423.986 102.507 424.564 103.085C439.977 118.306 457.51 138.538 469.07 187.286C469.263 188.25 468.685 189.021 467.914 189.213C467.529 189.213 467.336 189.213 467.143 189.213Z" fill="#F2EEFF"/>
<path d="M457.703 158.577C457.51 158.577 457.51 158.577 457.317 158.577C456.547 158.191 455.969 157.421 456.354 156.457C462.905 137.96 470.611 126.399 470.804 125.821C471.382 125.05 472.345 124.858 473.116 125.436C473.887 126.014 474.079 126.977 473.501 127.748C473.501 127.94 465.795 139.501 459.437 157.613C459.244 158.384 458.473 158.77 457.703 158.577Z" fill="#F2EEFF"/>
<path d="M751.134 150.87C751.134 150.87 754.987 124.858 761.153 118.114C767.125 111.37 776.759 104.241 785.814 112.333C794.869 120.426 787.741 130.638 782.153 136.996C776.566 143.162 751.134 150.87 751.134 150.87Z" fill="#756FBF"/>
<path d="M744.391 167.826C744.391 167.826 762.116 153.567 770.208 152.411C778.3 151.062 788.897 151.448 790.245 160.696C791.787 169.945 780.997 172.835 773.483 173.991C766.162 175.147 744.391 167.826 744.391 167.826Z" fill="#756FBF"/>
<path d="M741.501 170.908C741.501 170.908 723.198 157.421 719.922 150.099C716.647 142.584 714.142 132.372 722.619 128.519C731.097 124.665 736.877 134.299 739.96 141.236C743.042 148.172 741.501 170.908 741.501 170.908Z" fill="#756FBF"/>
<path d="M732.06 201.545C732.638 201.545 733.216 200.967 733.409 200.389C745.547 154.723 762.501 136.033 777.529 122.16C778.107 121.582 778.3 120.619 777.529 119.848C776.951 119.27 775.988 119.077 775.217 119.848C759.997 133.914 742.657 152.989 730.326 199.425C730.133 200.196 730.519 201.159 731.482 201.352C731.675 201.545 731.867 201.545 732.06 201.545Z" fill="#F2EEFF"/>
<path d="M741.693 172.643C741.886 172.643 741.886 172.643 742.079 172.643C742.849 172.45 743.427 171.487 743.042 170.716C737.262 152.796 730.326 141.428 729.941 141.043C729.555 140.272 728.592 140.079 727.821 140.465C727.051 140.85 726.858 141.814 727.243 142.584C727.243 142.777 734.372 154.145 739.959 171.679C740.345 172.257 740.923 172.643 741.693 172.643Z" fill="#F2EEFF"/>
<path d="M1184.63 516.965C1184.63 516.965 1193.5 492.109 1200.82 486.714C1208.14 481.319 1218.93 476.116 1226.06 485.943C1233.38 495.577 1224.32 504.248 1217.58 509.257C1211.03 514.267 1184.63 516.965 1184.63 516.965Z" fill="#756FBF"/>
<path d="M1174.81 532.186C1174.81 532.186 1194.85 521.782 1203.13 521.974C1211.41 522.167 1221.63 524.672 1221.24 533.921C1220.86 543.362 1209.68 544.133 1202.17 543.747C1194.65 543.555 1174.81 532.186 1174.81 532.186Z" fill="#756FBF"/>
<path d="M1171.34 534.691C1171.34 534.691 1155.93 517.928 1154.19 510.028C1152.46 502.128 1151.88 491.531 1161.13 489.411C1170.18 487.292 1174.04 497.889 1175.58 505.211C1177.31 512.533 1171.34 534.691 1171.34 534.691Z" fill="#756FBF"/>
<path d="M1156.12 562.823C1156.7 562.823 1157.47 562.63 1157.66 561.859C1178.47 519.277 1198.7 504.44 1216.04 493.65C1216.81 493.265 1217 492.301 1216.62 491.531C1216.23 490.76 1215.27 490.567 1214.5 490.953C1196.77 501.935 1176.16 517.157 1154.96 560.318C1154.58 561.089 1154.96 562.052 1155.73 562.437C1155.73 562.823 1155.93 562.823 1156.12 562.823Z" fill="#F2EEFF"/>
<path d="M1171.34 536.425C1171.53 536.425 1171.53 536.425 1171.73 536.425C1172.69 536.233 1173.27 535.462 1173.07 534.691C1170.95 516.001 1166.14 503.477 1165.95 502.899C1165.56 502.128 1164.79 501.743 1163.83 501.935C1163.06 502.321 1162.67 503.092 1162.86 504.055C1162.86 504.248 1167.68 516.772 1169.8 535.077C1169.99 535.655 1170.57 536.233 1171.34 536.425Z" fill="#F2EEFF"/>
<path d="M358.094 243.742C358.094 243.742 350.002 214.262 342.103 207.325C334.203 200.389 322.065 193.645 313.01 204.05C303.762 214.647 313.395 225.437 320.717 231.796C327.845 238.347 358.094 243.742 358.094 243.742Z" fill="#756FBF"/>
<path d="M376.783 266.864C376.783 266.864 351.158 254.147 340.947 254.725C330.735 255.303 317.634 258.386 318.212 270.332C318.79 282.086 333.047 283.049 342.488 282.471C351.736 281.7 376.783 266.864 376.783 266.864Z" fill="#756FBF"/>
<path d="M376.975 265.515C376.975 265.515 395.278 245.669 397.59 236.228C399.71 226.786 400.48 214.069 389.498 211.564C378.709 209.06 374.085 221.584 372.158 230.254C370.232 239.118 376.975 265.515 376.975 265.515Z" fill="#756FBF"/>
<path d="M399.325 295.573C399.325 295.573 372.544 283.242 362.14 284.205C351.543 285.169 338.249 288.637 339.405 300.776C340.369 312.915 355.011 313.3 364.645 312.337C374.278 311.566 399.325 295.573 399.325 295.573Z" fill="#756FBF"/>
<path d="M398.939 293.261C398.939 293.261 416.087 274.186 418.013 265.323C419.94 256.459 420.325 244.32 410.114 242.201C399.71 239.889 395.857 251.835 393.93 260.12C392.003 268.213 398.939 293.261 398.939 293.261Z" fill="#F22C5A"/>
<path d="M411.848 318.888C411.27 318.888 410.885 318.503 410.692 318.117C387.765 276.498 370.039 258.193 356.938 244.898C354.626 242.586 352.507 240.274 350.387 238.154C337.093 223.896 329.001 215.996 320.909 211.564C320.139 211.179 319.946 210.216 320.331 209.638C320.717 208.867 321.68 208.674 322.258 209.06C330.735 213.684 339.02 221.776 352.507 236.228C354.433 238.347 356.745 240.467 358.865 242.971C372.159 256.459 390.077 274.764 413.197 316.768C413.582 317.539 413.389 318.31 412.619 318.695C412.426 318.888 412.233 318.888 411.848 318.888Z" fill="#F2EEFF"/>
<path d="M379.287 269.176C378.517 269.176 377.939 268.598 377.939 267.827C377.361 245.284 385.453 226.401 385.838 225.63C386.223 224.859 386.994 224.474 387.765 224.859C388.535 225.245 388.921 226.016 388.535 226.786C388.535 226.979 380.251 245.862 380.829 267.635C381.021 268.598 380.251 269.176 379.287 269.176C379.48 269.176 379.48 269.176 379.287 269.176Z" fill="#F2EEFF"/>
<path d="M330.928 269.754C330.35 269.754 329.772 269.369 329.579 268.598C329.386 267.827 329.772 267.057 330.542 266.864C331.891 266.479 362.718 258.193 378.709 266.093C379.48 266.479 379.672 267.249 379.287 268.02C378.902 268.791 378.131 268.983 377.36 268.598C362.332 261.084 331.506 269.369 331.313 269.562C331.313 269.754 331.12 269.754 330.928 269.754Z" fill="#F2EEFF"/>
<path d="M356.36 298.849C355.782 298.849 355.204 298.271 355.011 297.693C354.819 296.922 355.397 296.152 356.167 295.959C357.516 295.766 388.535 289.408 399.903 294.803C400.673 295.188 400.866 295.959 400.673 296.73C400.288 297.5 399.517 297.693 398.747 297.5C388.343 292.491 357.131 298.849 356.938 298.849C356.745 298.849 356.553 298.849 356.36 298.849Z" fill="#F2EEFF"/>
<path d="M1141.28 289.408C1136.47 294.417 1131.65 299.427 1126.83 304.437C1128.18 310.988 1128.57 317.346 1128.18 323.898C1133.77 328.137 1139.16 332.568 1144.37 336.615C1142.05 343.358 1139.94 349.91 1137.62 356.846C1131.07 357.039 1124.14 357.039 1117.01 357.232C1113.54 362.627 1109.3 367.636 1104.1 372.068C1104.87 378.812 1105.83 385.748 1106.6 392.685C1100.44 395.768 1094.08 398.851 1087.72 402.126C1082.71 397.309 1077.9 392.685 1072.69 387.675C1066.34 389.024 1059.79 389.409 1053.24 389.024C1049 394.419 1044.76 400.007 1040.52 405.209C1033.78 402.897 1027.03 400.778 1020.29 398.465C1020.1 391.914 1020.1 384.978 1019.9 378.041C1014.51 374.38 1009.5 370.334 1005.07 365.131C998.326 365.902 991.39 366.866 984.454 367.636C981.371 361.278 978.288 355.112 975.013 348.754C979.83 343.744 984.646 338.734 989.463 333.724C988.885 330.449 988.114 317.539 988.114 314.071C982.72 309.832 977.132 305.593 971.93 301.354C974.242 294.61 976.362 288.059 978.674 281.122C985.224 280.93 992.16 280.93 999.289 280.737C1002.95 275.342 1007 270.332 1012.2 265.9C1011.43 258.964 1010.46 252.22 1009.69 245.284C1015.86 242.201 1022.22 239.118 1028.57 235.842C1033.58 240.659 1038.4 245.284 1043.6 250.101C1046.88 249.715 1059.79 248.752 1063.25 248.752C1067.49 243.357 1071.73 237.962 1075.78 232.759C1082.52 235.071 1089.26 237.191 1096.01 239.503C1096.2 246.247 1096.2 252.991 1096.39 260.12C1101.79 263.781 1106.8 267.827 1111.23 273.03C1117.97 272.259 1124.91 271.296 1131.84 270.525C1134.93 276.883 1138.01 283.049 1141.28 289.408ZM1089.65 303.473C1081.17 286.132 1059.98 279.003 1042.83 287.481C1025.49 295.959 1018.36 317.346 1026.84 334.495C1035.32 351.836 1056.51 358.966 1073.66 350.488C1091 342.01 1098.32 320.622 1089.65 303.473Z" fill="#F2EEFF"/>
<path d="M1039.17 208.481C1029.92 208.289 1020.48 208.289 1011.23 208.096C1006.03 215.418 1000.25 221.776 993.316 227.364C994.087 236.806 995.05 246.054 995.821 254.918C987.151 258.964 978.673 262.818 970.003 266.864C963.838 260.505 957.287 253.954 950.737 247.018C942.259 248.559 933.397 248.945 924.534 247.981C918.561 255.11 912.589 262.24 906.616 269.369C897.753 266.093 889.083 262.818 880.028 259.542C880.221 250.293 880.221 241.045 880.413 231.603C873.285 226.401 866.734 220.62 861.147 213.684C851.899 214.455 842.651 215.418 833.788 216.189C829.742 207.518 825.889 199.04 821.843 190.177C828.201 184.011 834.751 177.46 841.495 170.909C839.953 162.238 839.568 153.76 840.531 144.704C833.403 138.731 826.274 132.758 819.145 126.784C822.421 117.921 825.696 109.25 828.971 100.194C838.219 100.387 847.66 100.387 856.908 100.58C859.605 96.9188 871.551 84.2018 874.826 81.3116C874.055 72.0629 873.092 62.8142 872.321 53.7581C880.991 49.7118 889.469 45.8582 898.331 41.8119C904.497 48.1704 911.047 54.7215 917.598 61.6581C926.268 60.3093 934.938 59.7313 943.801 60.6947C949.773 53.5654 955.746 46.4362 961.719 39.307C970.581 42.5826 979.251 45.8582 988.307 49.1338C988.114 58.3825 988.114 67.6312 987.921 76.8799C991.389 79.5775 1004.3 91.5237 1007.19 94.7993C1016.44 94.0286 1025.68 93.0652 1034.55 92.2944C1038.59 100.965 1042.64 109.443 1046.68 118.306C1040.33 124.472 1033.58 131.023 1026.84 137.575C1028.38 146.245 1028.77 154.723 1027.8 163.779C1034.93 169.752 1042.06 175.726 1049.19 181.699C1045.72 190.947 1042.45 199.618 1039.17 208.481ZM977.903 171.101C987.151 146.823 974.435 119.655 950.544 110.599C926.268 101.35 898.717 113.875 889.661 138.153C880.606 162.431 893.129 189.599 917.02 198.847C941.489 207.711 969.04 195.186 977.903 171.101Z" fill="#756FBF"/>
<path d="M994.45 583.44H435.717C417.221 583.44 402 568.218 402 549.72V200.389C402 181.891 417.221 166.67 435.717 166.67H994.45C1012.95 166.67 1028.17 181.891 1028.17 200.389V549.528C1028.17 568.218 1012.95 583.44 994.45 583.44Z" fill="#C42128"/>
<path d="M1001.58 191.14H428.588V533.342H1001.58V191.14Z" fill="white"/>
<path d="M724.139 567.062H706.028C702.175 567.062 699.092 563.979 699.092 560.125C699.092 556.272 702.175 553.189 706.028 553.189H724.139C727.992 553.189 731.075 556.272 731.075 560.125C731.075 563.979 727.992 567.062 724.139 567.062Z" fill="#AC7EF2"/>
<path d="M1001.58 191.14H428.588V210.215H1001.58V191.14Z" fill="#A42132"/>
<path d="M991.945 200.389C991.945 203.086 989.826 205.206 987.129 205.206C984.431 205.206 982.312 203.086 982.312 200.389C982.312 197.691 984.431 195.572 987.129 195.572C989.826 195.572 991.945 197.884 991.945 200.389Z" fill="white"/>
<path d="M975.183 200.389C975.183 203.086 973.064 205.206 970.366 205.206C967.669 205.206 965.55 203.086 965.55 200.389C965.55 197.691 967.669 195.572 970.366 195.572C973.064 195.572 975.183 197.884 975.183 200.389Z" fill="white"/>
<path d="M958.229 200.389C958.229 203.086 956.109 205.206 953.412 205.206C950.715 205.206 948.595 203.086 948.595 200.389C948.595 197.691 950.715 195.572 953.412 195.572C956.109 195.572 958.229 197.884 958.229 200.389Z" fill="white"/>
<path d="M653.854 350.44V364.2H636.574V393H622.174V364.2H566.654V352.36L606.654 281H621.694L583.294 350.44H622.174V321.8H636.574V350.44H653.854ZM716.545 280.36C731.585 280.36 743.158 285.267 751.265 295.08C759.372 304.787 763.425 318.76 763.425 337C763.425 355.24 759.372 369.267 751.265 379.08C743.158 388.893 731.585 393.8 716.545 393.8C701.398 393.8 689.772 388.893 681.665 379.08C673.665 369.267 669.665 355.24 669.665 337C669.665 318.76 673.665 304.787 681.665 295.08C689.772 285.267 701.398 280.36 716.545 280.36ZM716.545 292.52C695.852 292.52 685.505 307.347 685.505 337C685.505 351.72 688.118 362.813 693.345 370.28C698.572 377.747 706.305 381.48 716.545 381.48C726.785 381.48 734.518 377.747 739.745 370.28C744.972 362.813 747.585 351.72 747.585 337C747.585 307.347 737.238 292.52 716.545 292.52ZM862.135 350.44V364.2H844.855V393H830.455V364.2H774.935V352.36L814.935 281H829.975L791.575 350.44H830.455V321.8H844.855V350.44H862.135Z" fill="#26225B"/>
<path d="M627.178 419.03C629.778 419.03 631.788 419.64 633.208 420.86C634.628 422.06 635.338 423.77 635.338 425.99C635.338 428.29 634.628 430.07 633.208 431.33C631.788 432.59 629.778 433.22 627.178 433.22H621.508V440H619.438V419.03H627.178ZM627.088 431.36C629.088 431.36 630.628 430.91 631.708 430.01C632.808 429.09 633.358 427.77 633.358 426.05C633.358 424.37 632.818 423.09 631.738 422.21C630.658 421.33 629.108 420.89 627.088 420.89H621.508V431.36H627.088ZM648.987 440L648.957 437.36C648.337 438.28 647.527 438.97 646.527 439.43C645.527 439.87 644.377 440.09 643.077 440.09C642.017 440.09 641.077 439.89 640.257 439.49C639.457 439.07 638.837 438.5 638.397 437.78C637.957 437.06 637.737 436.25 637.737 435.35C637.737 433.99 638.257 432.92 639.297 432.14C640.357 431.36 641.807 430.97 643.647 430.97H648.927V429.77C648.927 428.53 648.557 427.57 647.817 426.89C647.077 426.21 645.997 425.87 644.577 425.87C642.897 425.87 641.207 426.5 639.507 427.76L638.607 426.38C639.667 425.64 640.677 425.1 641.637 424.76C642.597 424.4 643.697 424.22 644.937 424.22C646.837 424.22 648.307 424.7 649.347 425.66C650.387 426.6 650.917 427.91 650.937 429.59L650.967 440H648.987ZM643.437 438.41C644.837 438.41 646.017 438.09 646.977 437.45C647.957 436.79 648.617 435.87 648.957 434.69V432.53H643.887C642.507 432.53 641.457 432.76 640.737 433.22C640.017 433.68 639.657 434.37 639.657 435.29C639.657 436.23 639.997 436.99 640.677 437.57C641.377 438.13 642.297 438.41 643.437 438.41ZM669.933 424.28V438.35C669.933 439.87 669.613 441.2 668.973 442.34C668.333 443.48 667.413 444.35 666.213 444.95C665.033 445.57 663.663 445.88 662.103 445.88C659.783 445.88 657.633 445.08 655.653 443.48L656.613 442.04C657.413 442.74 658.253 443.27 659.133 443.63C660.013 443.99 660.973 444.17 662.013 444.17C663.813 444.17 665.243 443.64 666.303 442.58C667.383 441.54 667.923 440.14 667.923 438.38V435.83C667.363 436.93 666.563 437.79 665.523 438.41C664.483 439.03 663.283 439.34 661.923 439.34C660.523 439.34 659.273 439.02 658.173 438.38C657.093 437.72 656.243 436.82 655.623 435.68C655.023 434.52 654.723 433.21 654.723 431.75C654.723 430.29 655.023 428.99 655.623 427.85C656.243 426.71 657.103 425.82 658.203 425.18C659.303 424.54 660.553 424.22 661.953 424.22C663.313 424.22 664.503 424.53 665.523 425.15C666.543 425.75 667.343 426.61 667.923 427.73V424.28H669.933ZM662.283 437.72C663.363 437.72 664.333 437.47 665.193 436.97C666.053 436.45 666.723 435.74 667.203 434.84C667.683 433.94 667.923 432.93 667.923 431.81C667.923 430.67 667.683 429.65 667.203 428.75C666.723 427.85 666.053 427.15 665.193 426.65C664.333 426.13 663.363 425.87 662.283 425.87C661.203 425.87 660.233 426.13 659.373 426.65C658.513 427.15 657.833 427.85 657.333 428.75C656.853 429.65 656.613 430.67 656.613 431.81C656.613 432.95 656.853 433.97 657.333 434.87C657.833 435.75 658.503 436.45 659.343 436.97C660.203 437.47 661.183 437.72 662.283 437.72ZM681.506 424.22C683.946 424.22 685.806 425 687.086 426.56C688.366 428.1 688.956 430.18 688.856 432.8H675.746C675.886 434.48 676.506 435.84 677.606 436.88C678.706 437.9 680.066 438.41 681.686 438.41C682.686 438.41 683.616 438.23 684.476 437.87C685.336 437.51 686.076 437 686.696 436.34L687.836 437.48C687.076 438.3 686.156 438.94 685.076 439.4C684.016 439.84 682.846 440.06 681.566 440.06C680.046 440.06 678.696 439.73 677.516 439.07C676.336 438.39 675.406 437.45 674.726 436.25C674.066 435.05 673.736 433.68 673.736 432.14C673.736 430.62 674.066 429.26 674.726 428.06C675.406 426.84 676.336 425.9 677.516 425.24C678.696 424.56 680.026 424.22 681.506 424.22ZM687.056 431.24C686.956 429.6 686.406 428.3 685.406 427.34C684.426 426.36 683.136 425.87 681.536 425.87C679.956 425.87 678.636 426.36 677.576 427.34C676.516 428.32 675.906 429.62 675.746 431.24H687.056ZM709.534 424.22C711.414 424.22 712.884 424.77 713.944 425.87C715.024 426.95 715.564 428.44 715.564 430.34V440H713.524V430.82C713.524 429.34 713.114 428.18 712.294 427.34C711.474 426.5 710.334 426.08 708.874 426.08C707.254 426.1 705.954 426.6 704.974 427.58C704.014 428.56 703.464 429.88 703.324 431.54V440H701.314V424.28H703.324V427.94C703.864 426.72 704.654 425.8 705.694 425.18C706.754 424.56 708.034 424.24 709.534 424.22ZM727.243 424.22C728.763 424.22 730.123 424.56 731.323 425.24C732.523 425.9 733.463 426.83 734.143 428.03C734.823 429.23 735.163 430.59 735.163 432.11C735.163 433.65 734.823 435.03 734.143 436.25C733.463 437.45 732.523 438.39 731.323 439.07C730.123 439.73 728.763 440.06 727.243 440.06C725.723 440.06 724.363 439.73 723.163 439.07C721.963 438.39 721.023 437.45 720.343 436.25C719.663 435.03 719.323 433.65 719.323 432.11C719.323 430.59 719.663 429.23 720.343 428.03C721.023 426.83 721.963 425.9 723.163 425.24C724.363 424.56 725.723 424.22 727.243 424.22ZM727.243 425.96C726.103 425.96 725.083 426.22 724.183 426.74C723.283 427.26 722.583 427.99 722.083 428.93C721.583 429.87 721.333 430.94 721.333 432.14C721.333 433.36 721.583 434.44 722.083 435.38C722.583 436.32 723.283 437.05 724.183 437.57C725.083 438.09 726.103 438.35 727.243 438.35C728.383 438.35 729.403 438.09 730.303 437.57C731.203 437.05 731.903 436.32 732.403 435.38C732.903 434.44 733.153 433.36 733.153 432.14C733.153 430.94 732.903 429.87 732.403 428.93C731.903 427.99 731.203 427.26 730.303 426.74C729.403 426.22 728.383 425.96 727.243 425.96ZM747.349 438.92C746.269 439.66 745.109 440.05 743.869 440.09C742.669 440.09 741.719 439.72 741.019 438.98C740.319 438.24 739.969 437.13 739.969 435.65V426.29H737.719L737.689 424.73H739.969V420.68H741.979V424.73L747.079 424.7V426.29H741.979V435.32C741.979 437.26 742.699 438.23 744.139 438.23C744.939 438.23 745.809 437.95 746.749 437.39L747.349 438.92ZM764.634 419.3C763.794 419.3 763.084 419.59 762.504 420.17C761.944 420.75 761.664 421.52 761.664 422.48V424.7H766.284V426.29H761.664V440H759.654V426.29H757.644V424.7H759.654V422.72C759.654 421.68 759.874 420.77 760.314 419.99C760.754 419.19 761.344 418.58 762.084 418.16C762.824 417.74 763.624 417.53 764.484 417.53C765.464 417.53 766.384 417.77 767.244 418.25L766.734 419.87C766.014 419.49 765.314 419.3 764.634 419.3ZM768.984 424.28H770.994V440H768.984V424.28ZM770.004 418.34C770.404 418.34 770.734 418.48 770.994 418.76C771.254 419.02 771.384 419.35 771.384 419.75C771.384 420.15 771.244 420.49 770.964 420.77C770.704 421.05 770.384 421.19 770.004 421.19C769.604 421.19 769.264 421.05 768.984 420.77C768.724 420.49 768.594 420.15 768.594 419.75C768.594 419.35 768.724 419.02 768.984 418.76C769.264 418.48 769.604 418.34 770.004 418.34ZM785.061 424.22C786.941 424.22 788.411 424.77 789.471 425.87C790.551 426.95 791.091 428.44 791.091 430.34V440H789.051V430.82C789.051 429.34 788.641 428.18 787.821 427.34C787.001 426.5 785.861 426.08 784.401 426.08C782.781 426.1 781.481 426.6 780.501 427.58C779.541 428.56 778.991 429.88 778.851 431.54V440H776.841V424.28H778.851V427.94C779.391 426.72 780.181 425.8 781.221 425.18C782.281 424.56 783.561 424.24 785.061 424.22ZM810.78 417.74V440H808.77V436.4C808.17 437.58 807.33 438.5 806.25 439.16C805.17 439.8 803.91 440.12 802.47 440.12C800.99 440.12 799.67 439.78 798.51 439.1C797.35 438.42 796.45 437.47 795.81 436.25C795.17 435.03 794.85 433.65 794.85 432.11C794.85 430.57 795.17 429.2 795.81 428C796.47 426.8 797.37 425.86 798.51 425.18C799.67 424.5 800.98 424.16 802.44 424.16C803.88 424.16 805.14 424.49 806.22 425.15C807.32 425.81 808.17 426.73 808.77 427.91V417.74H810.78ZM802.83 438.38C803.97 438.38 804.99 438.12 805.89 437.6C806.79 437.06 807.49 436.32 807.99 435.38C808.51 434.44 808.77 433.37 808.77 432.17C808.77 430.97 808.51 429.9 807.99 428.96C807.49 428 806.79 427.25 805.89 426.71C804.99 426.17 803.97 425.9 802.83 425.9C801.69 425.9 800.67 426.17 799.77 426.71C798.87 427.25 798.16 428 797.64 428.96C797.12 429.9 796.86 430.97 796.86 432.17C796.86 433.37 797.11 434.44 797.61 435.38C798.13 436.32 798.84 437.06 799.74 437.6C800.66 438.12 801.69 438.38 802.83 438.38Z" fill="#26225B"/>
<path d="M1046.11 494.421C1035.51 497.504 1054.01 539.701 1062.48 547.601C1070.96 555.693 1119.13 533.728 1119.13 533.728L1113.54 522.938L1072.12 530.452C1072.12 530.452 1067.49 513.689 1062.68 504.826C1057.86 496.155 1053.43 492.301 1046.11 494.421Z" fill="#26225B"/>
<path d="M1093.5 443.746C1095.04 454.728 1092.73 460.509 1088.69 465.133C1083.29 471.299 1072.69 472.841 1063.64 472.841C1047.65 472.841 1034.55 462.05 1034.55 448.563C1034.55 435.075 1047.65 422.743 1063.64 422.743C1079.63 422.743 1091.96 432.763 1093.5 443.746Z" fill="#756FBF"/>
<path d="M1092.15 459.16C1092.15 459.16 1089.46 465.711 1090.42 471.877C1091.38 477.85 1095.43 477.658 1095.43 477.658C1093.5 479.006 1086.76 477.08 1086.57 469.372C1086.57 461.858 1090.03 455.692 1090.03 455.692L1092.15 459.16Z" fill="#756FBF"/>
<path d="M1052.46 460.509L1052.7 460.589L1052.73 460.492L1052.69 460.399L1052.69 460.399L1052.69 460.399L1052.69 460.398L1052.69 460.394L1052.68 460.376C1052.67 460.36 1052.66 460.336 1052.64 460.305C1052.61 460.242 1052.57 460.149 1052.52 460.029C1052.41 459.788 1052.26 459.441 1052.1 459.013C1051.77 458.156 1051.37 456.983 1051.1 455.712C1050.82 454.438 1050.68 453.078 1050.84 451.845C1051.01 450.614 1051.48 449.524 1052.43 448.757C1053.36 448 1054.33 447.944 1055.28 448.289C1056.24 448.64 1057.19 449.408 1058.04 450.3C1058.88 451.189 1059.6 452.181 1060.11 452.954C1060.36 453.34 1060.57 453.67 1060.7 453.903C1060.77 454.02 1060.83 454.112 1060.86 454.175C1060.88 454.206 1060.89 454.23 1060.9 454.246L1060.91 454.264L1060.91 454.269L1060.91 454.27L1060.91 454.27L1061 454.423L1061.17 454.398L1090.71 450.014C1090.69 450.165 1090.66 450.368 1090.63 450.617C1090.54 451.216 1090.41 452.086 1090.21 453.166C1089.81 455.327 1089.17 458.328 1088.16 461.689C1086.14 468.419 1082.69 476.561 1076.95 482.298C1074.69 484.561 1072.3 485.301 1069.93 485.068C1067.53 484.833 1065.12 483.61 1062.83 481.889L1062.58 481.703L1062.45 481.985C1061.8 483.395 1061.07 485.052 1060.29 486.811C1058.51 490.834 1056.49 495.39 1054.75 498.737L1054.75 498.737L1054.75 498.741C1054.28 499.667 1053.72 500.22 1053.1 500.503C1052.48 500.786 1051.78 500.813 1051.02 500.627C1049.5 500.252 1047.79 499.027 1046.24 497.471C1044.69 495.922 1043.32 494.074 1042.45 492.5C1042.02 491.712 1041.73 491.004 1041.59 490.444C1041.53 490.164 1041.51 489.932 1041.52 489.752C1041.54 489.572 1041.59 489.462 1041.66 489.395C1041.81 489.249 1041.97 489.006 1042.14 488.702C1042.32 488.392 1042.52 488 1042.73 487.538C1043.17 486.615 1043.68 485.406 1044.24 484.013C1045.36 481.227 1046.68 477.695 1047.93 474.226C1049.18 470.756 1050.38 467.347 1051.26 464.806C1051.7 463.535 1052.06 462.481 1052.31 461.744C1052.43 461.376 1052.53 461.087 1052.6 460.891L1052.68 460.666L1052.69 460.608L1052.7 460.594L1052.7 460.59L1052.7 460.589C1052.7 460.589 1052.7 460.589 1052.46 460.509Z" fill="white" stroke="black" stroke-width="0.5"/>
<path d="M1127.6 577.659C1127.6 577.659 1145.14 572.457 1152.27 577.659C1159.39 582.862 1154 589.991 1148.8 593.459C1143.6 596.927 1121.44 592.496 1121.44 592.496L1127.6 577.659Z" fill="#C42128"/>
<path d="M1181.55 570.723L1189.45 580.357L1181.74 590.184L1173.27 585.174L1169.41 576.311L1181.55 570.723Z" fill="white"/>
<path d="M1132.79 544.727L1132.64 544.572L1132.46 544.705L1089.57 577.404C1089.52 577.4 1089.45 577.395 1089.36 577.389C1089.16 577.375 1088.87 577.354 1088.49 577.325C1087.73 577.267 1086.64 577.178 1085.29 577.055C1082.6 576.809 1078.9 576.424 1074.87 575.87C1066.8 574.762 1057.45 572.983 1052.19 570.307L1052.19 570.306C1051.55 569.993 1051.11 569.634 1050.83 569.243C1050.55 568.854 1050.42 568.422 1050.42 567.942C1050.43 566.967 1051 565.78 1052.08 564.414C1054.24 561.691 1058.29 558.415 1063.25 554.959C1071.09 549.497 1081.13 543.629 1089.33 538.837C1091.49 537.571 1093.53 536.38 1095.36 535.292L1095.37 535.291C1098.52 533.383 1101.4 531.537 1104.08 529.815C1105.13 529.143 1106.15 528.491 1107.14 527.86C1110.68 525.612 1113.92 523.65 1117.09 522.128C1123.43 519.088 1129.54 517.801 1137.38 519.521C1139.32 519.967 1141.59 521.226 1144.09 523.115C1146.58 525.001 1149.27 527.501 1152.05 530.404C1157.63 536.211 1163.57 543.615 1169.01 550.911C1174.45 558.205 1179.4 565.386 1182.98 570.744C1184.77 573.423 1186.23 575.645 1187.23 577.198C1187.73 577.975 1188.12 578.583 1188.39 578.998C1188.52 579.206 1188.62 579.364 1188.69 579.471L1188.7 579.486C1188.63 579.567 1188.54 579.681 1188.43 579.823C1188.18 580.121 1187.82 580.541 1187.37 581.024C1186.47 581.993 1185.18 583.213 1183.67 584.23C1182.16 585.248 1180.44 586.053 1178.64 586.212C1176.86 586.37 1174.99 585.892 1173.16 584.311C1169.42 581.068 1159.33 571.177 1150.17 562.087C1145.59 557.544 1141.25 553.204 1138.05 550C1136.45 548.398 1135.13 547.079 1134.22 546.162C1133.76 545.703 1133.4 545.344 1133.16 545.1L1132.89 544.822L1132.81 544.751L1132.8 544.733L1132.79 544.729L1132.79 544.728C1132.79 544.727 1132.79 544.727 1132.61 544.903L1132.79 544.727Z" fill="white" stroke="black" stroke-width="0.5"/>
<path d="M1053.62 562.109C1056.9 562.109 1059.98 561.945 1063.3 561.768C1070.76 561.37 1079.4 560.909 1094.06 562.109C1104.67 562.976 1114.32 563.842 1121.32 566.024C1124.81 567.114 1127.63 568.526 1129.56 570.411C1131.49 572.288 1132.56 574.644 1132.56 577.659C1132.56 583.771 1130.79 587.635 1127.34 590.199C1123.85 592.782 1118.61 594.078 1111.58 594.945C1104.56 595.811 1093.11 596.677 1081 596.677C1068.9 596.677 1056.16 595.81 1046.56 593.218C1027.33 588.026 1016.88 577.488 1016.88 565.328C1016.88 563.833 1017.28 562.68 1017.98 561.793C1018.68 560.904 1019.71 560.261 1021 559.82C1023.59 558.935 1027.17 558.881 1031.13 559.218C1034.74 559.526 1038.63 560.154 1042.3 560.748C1042.65 560.804 1042.99 560.859 1043.33 560.914C1047.29 561.551 1050.95 562.109 1053.62 562.109Z" fill="white" stroke="black" stroke-width="0.5"/>
<path d="M1218.54 595.386C1215.85 595.386 1172.69 595.386 1172.69 595.386C1172.69 595.386 1169.22 591.918 1172.69 584.018C1179.24 590.954 1188.49 579.586 1188.49 579.586C1188.49 579.586 1207.95 579.586 1216.62 584.789C1225.67 589.991 1221.24 595.386 1218.54 595.386Z" fill="#C42128"/>
<path d="M1044.37 482.86C1044.37 482.86 1032.43 488.062 1025.3 500.394C1018.17 512.726 1013.93 548.179 1017.01 563.015C1020.1 577.852 1063.83 561.474 1063.83 561.474C1063.83 561.474 1073.08 537.582 1069.61 525.443C1066.14 513.111 1057.47 493.65 1057.47 493.65L1044.37 482.86Z" fill="#26225B"/>
<path d="M1037.24 438.158C1037.24 438.158 1033.58 428.716 1024.14 427.753C1014.7 426.79 1001.99 431.029 1003.14 444.516C1004.3 458.004 1017.21 473.419 1016.24 480.162C1015.28 486.906 1014.89 488.062 1012 491.723C1015.28 493.843 1025.3 487.484 1027.23 476.694C1029.15 465.904 1036.09 445.672 1036.09 445.672L1037.24 438.158Z" fill="#756FBF"/>
<path d="M1076.93 447.021C1076.93 447.021 1069.8 455.307 1067.11 464.555C1064.41 473.804 1068.65 475.345 1068.65 475.345C1065.76 476.309 1059.79 470.336 1064.41 459.353C1069.03 448.37 1076.74 441.433 1076.74 441.433L1076.93 447.021Z" fill="#756FBF"/>
<path d="M1119.32 527.562C1120.86 528.14 1122.6 527.369 1123.17 525.828L1136.47 491.723C1137.05 490.182 1136.27 488.448 1134.73 487.87C1133.19 487.292 1131.46 488.062 1130.88 489.604L1117.59 523.708C1117.01 525.057 1117.78 526.791 1119.32 527.562Z" fill="#121729"/>
<path d="M1109.35 526.399L1109.18 526.452L1102.11 528.687L1105.03 537.266L1114.04 534.261L1114.08 534.249L1109.35 526.399ZM1109.35 526.399L1109.36 526.227L1109.36 526.227L1109.36 526.227L1109.36 526.227L1109.36 526.226L1109.36 526.222C1109.36 526.217 1109.36 526.209 1109.36 526.197C1109.36 526.173 1109.37 526.136 1109.38 526.087C1109.39 525.988 1109.42 525.838 1109.47 525.644C1109.58 525.256 1109.78 524.691 1110.17 523.999C1110.94 522.616 1112.46 520.717 1115.41 518.713C1118.38 516.701 1121.44 515.22 1124 514.409C1125.27 514.003 1126.41 513.768 1127.34 513.716C1128.29 513.663 1128.98 513.798 1129.39 514.086C1129.58 514.221 1129.68 514.383 1129.73 514.567C1129.77 514.757 1129.76 514.988 1129.68 515.257C1129.53 515.798 1129.16 516.425 1128.7 517.032C1128.26 517.635 1127.75 518.198 1127.35 518.613C1127.15 518.819 1126.98 518.988 1126.86 519.105C1126.79 519.163 1126.75 519.209 1126.71 519.239L1126.68 519.274L1126.67 519.283L1126.67 519.285L1126.66 519.285L1126.66 519.285L1126.66 519.285L1126.54 519.4L1126.6 519.558L1126.6 519.558L1126.6 519.558L1126.6 519.559L1126.6 519.563L1126.61 519.579C1126.61 519.593 1126.62 519.615 1126.63 519.645C1126.65 519.703 1126.68 519.789 1126.72 519.901C1126.79 520.124 1126.89 520.449 1126.99 520.849C1127.19 521.651 1127.4 522.753 1127.45 523.959C1127.55 526.378 1126.97 529.156 1124.39 530.82C1121.72 532.535 1119.15 533.393 1117.24 533.821C1116.29 534.035 1115.51 534.142 1114.96 534.196C1114.69 534.222 1114.48 534.235 1114.33 534.242C1114.26 534.245 1114.21 534.247 1114.17 534.248L1114.13 534.248L1114.12 534.249L1114.12 534.249H1114.12H1114.12L1109.35 526.399Z" fill="white" stroke="black" stroke-width="0.5"/>
<path d="M1036.28 497.696C1025.68 500.779 1039.94 550.106 1048.42 558.198C1056.9 566.291 1107.95 538.545 1107.95 538.545L1102.37 527.755L1060.75 539.508C1060.75 539.508 1056.51 519.084 1051.69 510.413C1046.68 501.55 1043.6 495.577 1036.28 497.696Z" fill="#26225B"/>
<path d="M294.535 586.273L294.531 586.273C292.77 586.153 291.03 586.071 289.324 585.994C289.173 585.988 289.022 585.981 288.871 585.974C287.322 585.905 285.801 585.836 284.315 585.743C281.054 585.539 277.971 585.215 275.14 584.498C269.495 583.069 264.843 580.078 261.796 573.318C261.057 571.678 260.992 569.076 261.508 565.739C262.023 562.414 263.108 558.403 264.622 553.977C267.651 545.127 272.39 534.644 277.684 524.717C282.978 514.79 288.822 505.429 294.06 498.818C296.68 495.511 299.139 492.904 301.295 491.257C302.373 490.434 303.365 489.858 304.254 489.552C305.143 489.246 305.914 489.214 306.566 489.453L306.567 489.454C307.901 489.935 308.675 491.303 308.952 493.48C309.228 495.648 308.998 498.538 308.402 501.913C307.21 508.658 304.573 517.259 301.719 525.724C300.306 529.915 298.837 534.082 297.467 537.969C296.076 541.914 294.787 545.57 293.762 548.67C292.743 551.751 291.976 554.307 291.622 556.078C291.446 556.959 291.366 557.672 291.419 558.164C291.446 558.409 291.509 558.635 291.643 558.798C291.79 558.978 291.997 559.051 292.226 559.025C292.9 558.969 293.544 558.913 294.189 558.857C297.969 558.528 301.746 558.199 311.285 557.87C316.86 557.678 325.23 558.014 332.215 558.4C335.706 558.592 338.847 558.797 341.116 558.954C342.251 559.032 343.167 559.098 343.8 559.145C344.116 559.168 344.361 559.186 344.528 559.199L344.717 559.213L344.752 559.216C356.761 563.041 363.224 573.136 361.699 585.142L361.699 585.144C361.536 586.497 361.063 587.55 360.351 588.367C359.638 589.185 358.672 589.779 357.502 590.192C355.155 591.019 352.026 591.102 348.601 590.826C345.331 590.562 341.823 589.974 338.515 589.419C338.365 589.394 338.215 589.369 338.065 589.344C334.636 588.77 331.437 588.248 329.006 588.199C319.38 588.007 308.596 587.429 294.535 586.273Z" fill="white" stroke="black" stroke-width="0.5"/>
<path d="M299.909 492.109C301.065 487.484 303.569 480.74 303.569 480.74L315.707 486.328C315.707 486.328 310.313 493.457 308.771 495.577C307.037 497.696 298.753 496.733 299.909 492.109Z" fill="white"/>
<path d="M289.155 466.636C290.653 468.148 315 491.576 315 491.576C315 491.576 315 495.544 308.82 498C308.82 490.631 298.894 492.899 298.894 492.899C298.894 492.899 286.533 481.373 284.473 473.627C282.413 465.88 287.657 465.125 289.155 466.636Z" fill="#C42128"/>
<path d="M469.648 491.916C465.024 478.043 448.84 473.226 435.739 476.116C422.637 479.006 414.931 483.631 405.105 492.301C395.279 500.972 400.095 505.596 371.003 515.038C341.91 524.479 340.176 545.096 342.488 551.455C344.8 557.813 353.855 559.162 353.855 559.162L418.399 552.996C418.399 552.996 439.592 550.298 453.079 540.857C466.565 531.416 463.675 511.569 463.675 511.569C463.675 511.569 474.079 505.789 469.648 491.916Z" fill="#756FBF"/>
<path d="M475.813 584.403C475.813 584.403 482.942 580.935 488.337 582.476C493.731 584.018 499.319 590.184 499.319 590.184L476.006 590.762L475.813 584.403Z" fill="#D0D1FC"/>
<path d="M250.636 579.334L250.635 579.331C248.618 571.453 245.489 550.468 244.478 531.475C243.972 521.978 243.997 512.995 244.951 506.406C245.428 503.108 246.135 500.432 247.111 498.592C248.078 496.769 249.276 495.821 250.738 495.827C251.141 495.965 251.585 496.321 252.063 496.916C252.551 497.523 253.054 498.353 253.569 499.381C254.599 501.436 255.663 504.248 256.743 507.566C258.902 514.2 261.115 522.817 263.258 531.35C263.525 532.415 263.792 533.48 264.057 534.539C265.914 541.954 267.705 549.106 269.344 554.597C270.281 557.734 271.171 560.34 271.999 562.147C272.412 563.049 272.817 563.766 273.212 564.252C273.597 564.725 274.03 565.049 274.503 564.998L274.505 564.998C276.603 564.762 279.047 564.453 281.727 564.115C287.8 563.348 295.089 562.428 302.337 561.844C312.793 561 323.101 560.862 329.503 562.868C330.228 563.108 330.862 562.689 331.564 562.085C331.799 561.882 332.049 561.653 332.322 561.402C332.901 560.869 333.587 560.238 334.476 559.552C337.067 557.556 341.313 555.164 349.075 554.014C354.598 553.205 358.676 554.586 361.595 557.178C364.522 559.777 366.31 563.617 367.194 567.764C368.078 571.909 368.054 576.338 367.379 580.087C367.041 581.96 366.542 583.659 365.916 585.063C365.289 586.471 364.541 587.568 363.714 588.257C360.303 591.1 355.114 592.635 347.942 593.693C342.595 594.483 336.178 595.005 328.619 595.619C326.047 595.828 323.342 596.048 320.502 596.293C309.347 597.255 292.8 596.918 278.567 594.369C271.449 593.095 264.925 591.269 259.946 588.786C254.959 586.298 251.573 583.176 250.636 579.334Z" fill="white" stroke="black" stroke-width="0.5"/>
<path d="M244.999 502.513C243.072 496.155 242.879 490.76 242.879 490.76L252.127 488.448C252.127 488.448 254.439 495.192 255.595 499.816C256.944 504.248 246.925 508.872 244.999 502.513Z" fill="white"/>
<path d="M423.986 537.389C428.417 537.196 434.968 543.362 438.051 550.491C441.133 557.813 445.565 573.228 445.565 573.228L478.511 582.862L476.584 590.184C476.584 590.184 446.335 590.954 437.28 585.366C431.307 581.706 423.408 560.703 421.674 551.84C420.133 543.169 419.555 537.581 423.986 537.389Z" fill="#26225B"/>
<path d="M228.513 480.282C230.344 481.387 260.914 498.892 260.914 498.892C260.914 498.892 262.013 502.762 256.338 507C254.507 499.445 244.988 504.42 244.988 504.42C244.988 504.42 229.612 495.944 225.584 488.573C221.374 481.203 226.683 479.176 228.513 480.282Z" fill="#C42128"/>
<path d="M417.435 531.994C417.435 531.994 428.225 533.535 432.849 544.711C437.28 555.886 434.968 574.191 423.986 581.32C413.004 588.642 408.765 587.293 408.765 587.293C408.765 587.293 375.241 593.652 352.699 592.881C330.157 592.11 349.231 562.245 361.755 554.923C374.085 547.601 395.086 528.911 417.435 531.994Z" fill="#26225B"/>
<path d="M412.233 535.847C413.967 534.113 424.179 515.038 424.179 515.038C424.179 515.038 419.747 508.487 423.986 504.055C428.225 499.623 433.041 509.45 433.041 509.45L460.785 508.487C460.785 508.487 457.51 523.901 447.299 534.691C443.253 538.93 437.087 536.618 432.849 533.535C432.849 533.535 430.729 538.545 426.105 544.325C421.481 550.491 410.499 537.774 412.233 535.847Z" fill="white"/>
<path d="M452.115 584.981C452.115 584.981 459.244 581.513 464.639 583.054C470.033 584.596 475.621 590.762 475.621 590.762L452.308 591.34L452.115 584.981Z" fill="white"/>
<path d="M397.205 540.664C402.022 540.472 407.031 546.83 410.499 554.73C413.967 562.63 417.821 578.815 417.821 578.815L452.501 585.366V594.615C452.501 594.615 416.665 597.698 406.839 591.532C400.481 587.486 393.159 566.291 391.233 556.85C389.306 547.216 392.389 540.857 397.205 540.664Z" fill="#26225B"/>
<path d="M440.941 597.698L531.301 596.735L532.072 591.34L441.133 592.496L440.941 597.698Z" fill="#26225B"/>
<path d="M481.593 593.074L532.072 591.34L538.815 552.611C539.393 548.757 536.503 545.289 532.65 545.289L493.731 545.674C490.649 545.674 487.951 547.986 487.566 551.069L481.593 593.074Z" fill="#26225B"/>
<path d="M481.786 591.918L441.133 592.496L440.941 597.698L481.593 597.12L481.786 591.918Z" fill="#26225B"/>
<path d="M517.622 571.879C517.429 574.384 515.31 576.311 512.805 576.311C510.301 576.118 508.374 573.998 508.374 571.494C508.567 568.989 510.686 567.062 513.191 567.062C515.695 567.255 517.622 569.374 517.622 571.879Z" fill="white"/>
<path d="M589.046 40.4923L589.047 40.4995L589.048 40.5065C589.328 42.0905 589.047 43.5737 588.425 44.7019C587.803 45.8316 586.849 46.5897 585.787 46.7674C583.482 47.1209 581.249 44.9852 580.873 41.7827L580.872 41.7755L580.87 41.7684C580.591 40.1845 580.872 38.7013 581.493 37.5731C582.116 36.4428 583.07 35.6845 584.133 35.5073C585.191 35.331 586.319 35.7685 587.241 36.668C588.162 37.5657 588.86 38.9091 589.046 40.4923Z" fill="white" stroke="black" stroke-width="0.5"/>
<path d="M623.257 40.5065L623.258 40.4995L623.259 40.4923C623.445 38.9091 624.143 37.5657 625.064 36.668C625.987 35.7685 627.114 35.331 628.172 35.5073C629.235 35.6845 630.189 36.4428 630.812 37.5731C631.433 38.7013 631.714 40.1845 631.435 41.7684L631.434 41.7755L631.433 41.7827C631.056 44.9852 628.823 47.1209 626.519 46.7674C625.456 46.5897 624.503 45.8316 623.88 44.7019C623.259 43.5737 622.978 42.0905 623.257 40.5065Z" fill="white" stroke="black" stroke-width="0.5"/>
<path d="M648.443 82.6604C649.214 72.8337 637.268 64.5483 628.406 64.5483C619.736 64.5483 605.864 64.5483 605.864 64.5483C605.864 64.5483 597.964 64.5483 588.138 64.5483C578.12 64.5483 564.44 72.8337 565.211 82.6604L574.459 136.611H639.388L648.443 82.6604Z" fill="#C42128"/>
<path d="M645.553 73.6042C645.553 73.6042 670.6 115.223 661.159 127.17C651.718 139.116 634.378 139.309 634.378 139.309L623.396 121.582L635.92 105.011L626.479 89.9822L645.553 73.6042Z" fill="#C42128"/>
<path d="M596.865 70.3283V55.5496H615.247V71.8691L615.247 71.8693L615.247 71.8697V71.8702L615.247 71.8743C615.246 71.8797 615.246 71.8891 615.245 71.9022C615.243 71.9284 615.239 71.9694 615.231 72.023C615.215 72.1302 615.182 72.2877 615.114 72.479C614.978 72.8603 614.704 73.3794 614.146 73.9037C613.029 74.9518 610.742 76.0518 606.056 76.0518C601.392 76.0518 599.113 74.5793 597.992 73.1603C597.427 72.4458 597.145 71.7321 597.005 71.1983C596.934 70.9315 596.9 70.7102 596.882 70.5573C596.874 70.4809 596.869 70.4217 596.867 70.3826C596.866 70.3631 596.866 70.3486 596.866 70.3395L596.865 70.3299L596.865 70.3287L596.865 70.3284L596.865 70.3283Z" fill="white" stroke="black" stroke-width="0.5"/>
<path d="M626.229 38.729C626.229 51.9331 617.16 62.5642 606.056 62.5642C594.952 62.5642 585.884 51.9331 585.884 38.729C585.884 25.5249 594.952 14.8938 606.056 14.8938C617.16 14.8938 626.229 25.5249 626.229 38.729Z" fill="white" stroke="black" stroke-width="0.5"/>
<path d="M569.257 73.0264C566.752 75.3385 541.513 113.875 552.495 125.821C563.477 137.767 579.275 140.85 579.275 140.85L590.257 121.582L577.734 105.011L587.175 89.9823C587.175 89.9823 571.761 70.7142 569.257 73.0264Z" fill="#C42128"/>
<path d="M601.432 133.528L569.835 136.611C569.835 136.611 532.072 114.067 524.173 132.18C516.273 150.292 560.394 171.294 571.376 174.184C582.358 177.267 631.296 180.157 647.094 174.184C662.893 168.211 697.573 151.64 688.132 133.528C678.692 115.416 639.195 136.611 639.195 136.611L601.432 133.528Z" fill="#756FBF"/>
<path d="M571.761 97.1115H642.085C644.782 97.1115 647.094 99.4236 647.094 102.121V139.116C647.094 141.814 644.782 144.126 642.085 144.126H571.761C569.064 144.126 566.752 141.814 566.752 139.116V102.121C566.752 99.4236 568.871 97.1115 571.761 97.1115Z" fill="#26225B"/>
<path d="M566.945 143.162H646.709C647.672 143.162 648.443 143.933 648.443 144.896V147.209C648.443 148.172 647.672 148.943 646.709 148.943H566.945C565.982 148.943 565.211 148.172 565.211 147.209V144.896C565.211 143.933 565.982 143.162 566.945 143.162Z" fill="#26225B"/>
<path d="M602.396 121.967C602.396 124.28 604.322 126.206 606.827 126.206C609.331 126.206 611.258 124.28 611.258 121.967C611.258 119.655 609.331 117.728 606.827 117.728C604.322 117.728 602.396 119.655 602.396 121.967Z" fill="white"/>
<path d="M561.936 139.694C575.23 146.823 618.58 169.752 618.58 169.752L615.497 183.24C615.497 183.24 589.487 180.928 571.376 174.184C553.266 167.44 537.852 159.155 530.146 150.099C522.632 141.043 548.642 132.565 561.936 139.694Z" fill="#756FBF"/>
<path d="M592.377 172.643C592.377 172.643 579.853 169.56 568.679 172.643C557.697 175.726 554.421 180.157 556.155 184.589C557.697 189.021 568.679 192.103 576.578 190.562C584.477 189.021 598.927 183.818 598.927 183.818L592.377 172.643Z" fill="#26225B"/>
<path d="M620.313 172.835C620.313 172.835 632.837 169.752 644.011 172.835C654.993 175.918 658.269 180.35 656.535 184.782C654.993 189.213 644.011 192.296 636.112 190.755C628.213 189.213 615.689 183.24 615.689 183.24L620.313 172.835Z" fill="#26225B"/>
<path d="M614.675 182.345L618.927 173.287C618.93 173.288 618.934 173.288 618.937 173.288C619.054 173.295 619.224 173.307 619.44 173.325C619.873 173.361 620.488 173.42 621.215 173.514C622.67 173.703 624.569 174.031 626.356 174.591C628.151 175.154 629.796 175.938 630.78 177.017C631.267 177.552 631.588 178.154 631.69 178.837C631.792 179.52 631.679 180.304 631.261 181.209C630.431 183.007 628.995 183.977 627.283 184.422C625.561 184.87 623.566 184.785 621.656 184.463C619.748 184.141 617.945 183.586 616.617 183.11C615.953 182.873 615.409 182.655 615.032 182.497C614.888 182.437 614.768 182.386 614.675 182.345Z" fill="white" stroke="black" stroke-width="0.5"/>
<path d="M598.392 182.906C598.294 182.941 598.168 182.985 598.018 183.036C597.615 183.173 597.033 183.361 596.324 183.563C594.905 183.967 592.981 184.427 590.952 184.654C588.92 184.881 586.802 184.872 584.986 184.352C583.177 183.833 581.68 182.813 580.851 181.016C580.434 180.113 580.33 179.33 580.446 178.649C580.562 177.968 580.904 177.365 581.419 176.829C582.456 175.748 584.175 174.962 586.043 174.399C587.902 173.839 589.874 173.51 591.384 173.321C592.138 173.227 592.776 173.168 593.224 173.132C593.449 173.115 593.625 173.103 593.746 173.095C593.752 173.095 593.758 173.095 593.764 173.094L598.392 182.906Z" fill="white" stroke="black" stroke-width="0.5"/>
<path d="M649.021 142.584C635.341 149.328 592.377 172.643 592.377 172.643L595.074 184.589C595.074 184.589 619.735 182.855 641.699 175.725C663.663 168.596 675.609 160.696 683.315 151.64C691.022 142.584 662.7 136.033 649.021 142.584Z" fill="#756FBF"/>
<path d="M617.038 28.3242C607.79 27.9388 602.395 32.9485 593.34 29.8656C585.826 27.3608 585.441 38.9217 585.441 38.9217C585.441 38.9217 580.817 27.9388 582.358 20.8096C583.899 13.6804 584.285 -0.770745 608.368 -1.85203e-05C632.451 0.770708 628.02 27.9388 628.02 27.9388L626.479 40.2704C626.671 40.2704 626.479 28.7095 617.038 28.3242Z" fill="#26225B"/>
<path d="M644.204 559.162C619.928 563.979 603.551 579.586 584.477 597.698C553.843 626.793 498.548 663.017 411.655 663.017H411.463C325.533 663.017 279.293 635.849 238.641 611.957C212.823 596.735 180.841 582.476 148.665 575.54C84.5073 561.474 18.0373 575.925 -1.80737 580.164V569.759C20.1566 565.135 86.6266 551.455 150.977 565.713C184.694 573.035 217.447 587.871 243.843 603.479C285.459 627.949 328.423 653.19 411.655 653.19H411.848C494.695 653.19 546.907 620.049 577.734 590.762C597 572.457 615.304 554.923 642.47 549.528C645.167 548.95 647.865 550.684 648.443 553.574C648.828 555.886 646.901 558.584 644.204 559.162Z" fill="#26225B"/>
<path d="M692.371 609.259C665.012 612.727 639.965 593.266 636.497 565.906L634.185 548.372C630.717 521.011 650.177 495.962 677.535 492.494C704.894 489.026 729.941 508.487 733.409 535.847L735.721 553.381C739.189 580.549 719.729 605.791 692.371 609.259Z" fill="#26225B"/>
<path d="M743.329 613.329C756.205 611.682 762.706 579.543 757.849 541.544C752.992 503.545 738.616 474.075 725.739 475.722C712.863 477.368 706.362 509.507 711.219 547.506C716.076 585.505 730.452 614.975 743.329 613.329Z" fill="#756FBF"/>
<path d="M721.271 546.252C726.087 584.21 719.729 616.388 706.821 618.122C693.912 619.856 679.655 590.184 674.838 552.225C670.021 514.267 676.379 482.089 689.288 480.355C702.197 478.621 716.454 508.101 721.271 546.252Z" fill="#756FBF"/>
<path d="M725.78 475.694L689.279 480.361L706.893 618.159L743.394 613.492L725.78 475.694Z" fill="#756FBF"/>
<path d="M751.905 542.206C756.336 577.274 751.712 606.947 741.501 608.103C731.289 609.452 719.151 582.091 714.72 546.83C710.289 511.762 714.913 482.089 725.124 480.933C735.528 479.777 747.473 507.138 751.905 542.206Z" fill="#26225B"/>
<path d="M734.179 520.433C734.95 525.828 733.601 530.452 731.482 530.645C729.363 530.838 727.051 526.791 726.28 521.396C725.509 516.001 726.858 511.377 728.977 511.184C731.289 510.991 733.601 515.038 734.179 520.433Z" fill="#756FBF"/>
<path d="M740.345 567.832C741.115 573.227 739.767 577.852 737.647 578.044C735.528 578.237 733.216 574.191 732.445 568.796C731.674 563.401 733.023 558.776 735.143 558.584C737.262 558.391 739.574 562.437 740.345 567.832Z" fill="#756FBF"/>
<path d="M855.559 541.435C855.367 541.435 855.174 541.435 855.174 541.435L807.778 537.389C805.081 537.196 802.961 534.691 803.154 531.994C803.347 529.296 805.851 527.177 808.549 527.369L855.945 531.416C858.642 531.608 860.761 534.113 860.569 536.811C860.376 539.508 858.257 541.435 855.559 541.435Z" fill="#26225B"/>
<path d="M851.513 589.027C851.321 589.027 851.128 589.027 851.128 589.027L803.732 584.981C801.035 584.788 798.915 582.284 799.108 579.586C799.301 576.888 801.805 574.769 804.503 574.962L851.899 579.008C854.596 579.201 856.715 581.705 856.523 584.403C856.33 587.101 854.018 589.027 851.513 589.027Z" fill="#26225B"/>
<path d="M836.1 558.777C832.825 596.927 840.724 628.913 853.44 629.876C866.349 631.032 879.45 600.974 882.725 562.63C886.001 524.479 878.101 492.494 865.385 491.531C852.477 490.567 839.375 520.626 836.1 558.777Z" fill="#756FBF"/>
<path d="M872.899 561.859C869.624 600.01 877.523 631.995 890.239 632.959C903.148 634.115 916.249 604.057 919.525 565.713C922.8 527.562 914.901 495.577 902.185 494.614C889.276 493.65 876.175 523.708 872.899 561.859Z" fill="#756FBF"/>
<path d="M853.577 629.938L890.244 633.072L902.073 494.649L865.406 491.515L853.577 629.938Z" fill="#756FBF"/>
<path d="M965.957 569.374C963.453 598.854 939.369 621.591 910.662 623.132C907.965 623.325 905.075 623.325 902.185 622.939L893.322 622.169C890.625 621.976 887.927 621.591 885.23 620.82C879.835 607.91 877.523 586.137 879.45 561.859C881.569 537.582 887.542 516.387 895.056 504.633C897.753 504.44 900.451 504.44 903.148 504.826L912.011 505.596C914.901 505.789 917.598 506.367 920.295 506.945C933.011 509.835 943.993 516.965 951.893 526.406C961.911 537.967 967.306 553.189 965.957 569.374Z" fill="#756FBF"/>
<path d="M1443 582.284V592.496C1418.72 590.762 1368.82 587.293 1332.22 595.771C1295.61 604.249 1249.95 621.591 1224.13 635.849C1196 651.264 1169.61 665.908 1132.42 672.073C1124.52 673.422 1117.01 674 1109.88 674C1046.88 674 1001.6 626.408 991.004 604.057C978.481 577.467 950.159 574.577 949.773 574.577C947.076 574.384 944.957 571.879 945.149 568.989C945.342 566.291 947.847 564.172 950.737 564.364C952.085 564.557 985.031 567.833 1000.25 599.625C1011.04 622.362 1059.21 674 1130.88 662.054C1166.33 656.274 1192.15 642.015 1219.31 626.986C1245.71 612.535 1292.14 594.808 1329.9 585.945C1367.47 577.081 1418.15 580.55 1443 582.284Z" fill="#26225B"/>
</g>
<defs>
<clipPath id="clip0">
<rect width="1445" height="674" fill="white" transform="translate(-2)"/>
</clipPath>
</defs>
</svg>
