<svg width="124" height="119" viewBox="0 0 124 119" fill="none" xmlns="http://www.w3.org/2000/svg">
<g clip-path="url(#clip0)">
<path d="M45.8092 123.284C52.517 118.049 56.3617 110.197 56.3617 101.69C56.3617 94.2469 53.4168 87.2127 48.0997 82.0597C42.9462 77.0703 36.1566 74.2893 28.958 74.2893C25.3587 74.2893 21.7594 75.0254 18.4873 76.3341C10.6343 79.6059 4.58094 86.4765 2.45408 94.7377C1.88147 97.0279 1.55426 99.3181 1.55426 101.69C1.55426 116.822 13.8246 129.091 28.958 129.091C35.0932 129.091 40.9011 127.046 45.8092 123.284ZM54.0713 101.69C54.0713 108.806 51.1264 115.431 45.9728 120.175C45.9728 119.93 45.891 119.685 45.891 119.521C45.6456 117.313 45.3184 114.941 43.6824 113.55C42.5371 112.65 41.2283 112.569 40.0831 112.487C38.856 112.405 38.1198 112.323 37.629 111.669C37.3836 111.26 37.22 110.687 37.0564 110.115C36.6474 108.479 36.2384 106.598 36.5656 104.798C36.811 103.244 37.7108 101.936 38.6924 101.772C38.7742 101.772 38.9379 101.772 39.1015 101.772C39.5923 101.772 40.0831 101.772 40.6557 101.445C41.3101 101.036 41.8827 100.381 42.2099 99.3181C42.9462 97.0279 42.3735 94.5741 41.8827 92.3657C41.8009 92.0385 41.7191 91.7931 41.6373 91.4659C40.9829 88.7668 41.2283 86.5583 42.2099 85.5768C42.9462 84.9225 45.4002 84.3499 46.7909 84.0227H46.8727C51.5354 88.7667 54.0713 94.9831 54.0713 101.69ZM18.0783 78.8697C18.1601 79.1151 18.3237 79.3605 18.4055 79.6877C18.8145 80.5056 19.4689 81.16 20.0416 81.8143C20.7778 82.6322 21.4322 83.3684 21.5958 84.2681C21.6776 85.0042 21.3504 85.8222 21.0232 86.7219C20.7778 87.3763 20.5324 88.0306 20.3688 88.685V88.7667V88.8485C20.3688 88.9303 20.3688 88.9303 20.3688 89.0121V89.0939V89.1757V89.2575C20.3688 89.2575 20.3688 89.3393 20.4506 89.3393C20.4506 89.3393 20.4506 89.4211 20.5324 89.4211C20.5324 89.4211 20.5324 89.5029 20.6142 89.5029L20.696 89.5847L20.7778 89.6665L20.8596 89.7483C20.8596 89.7483 20.9414 89.7483 20.9414 89.8301L21.0232 89.9119H21.105H21.1868C21.5958 89.9937 22.0866 90.0754 22.4956 90.0754C23.2318 90.1572 23.8863 90.239 24.2135 90.5662C24.7043 90.9752 24.7043 91.7113 24.6225 92.9382C24.6225 93.429 24.6225 93.9197 24.6225 94.4105C24.7043 94.9013 25.0315 95.3102 25.5223 95.392C27.1583 95.7192 28.7126 96.1282 30.2668 96.7007C29.6942 97.1097 29.1216 97.6822 28.958 98.4184C28.7944 98.9091 28.8762 99.3181 28.8762 99.6453C28.8762 99.7271 28.8762 99.8089 28.8762 99.8907C28.8762 101.281 26.9947 102.753 25.5223 103.98L25.1951 104.226C25.1951 104.226 25.1951 104.226 25.1133 104.308L25.0315 104.389C25.0315 104.389 25.0315 104.471 24.9497 104.471L24.8679 104.553C24.8679 104.553 24.8679 104.635 24.7861 104.635C24.7861 104.635 24.7861 104.716 24.7043 104.716V104.798V104.88V104.962V105.044C24.7043 105.125 24.7043 105.125 24.7043 105.207C24.6225 105.371 24.4589 105.698 24.2953 105.943C23.9681 106.434 23.559 107.007 23.4772 107.743C23.4772 107.743 23.4772 107.743 23.4772 107.825C22.4138 108.07 21.7594 109.215 21.6776 110.197C21.6776 110.687 21.6776 111.096 21.7594 111.505C21.7594 111.751 21.8412 111.996 21.8412 112.241C21.8412 112.896 21.514 113.55 21.0232 113.959C20.5324 111.587 19.7961 109.133 18.3237 107.007C18.2419 106.925 18.1601 106.843 18.1601 106.761C17.9147 106.434 17.6693 106.107 17.5875 105.78C17.5057 105.371 17.5875 104.88 17.6693 104.308C17.6693 104.144 17.7511 103.98 17.7511 103.817V103.735C17.9147 102.181 17.5057 101.281 17.0149 100.79C16.8513 100.545 16.6059 100.381 16.3605 100.381C15.706 100.218 14.888 99.9725 14.07 99.7271C13.1702 99.4817 12.2703 99.1545 11.5341 98.9909C10.9615 98.9091 10.4707 98.7456 10.0617 98.5002L9.97988 98.4184C8.83465 96.9461 7.44402 95.8828 5.80797 95.392L5.39896 95.2284C5.23536 95.2284 4.98995 95.0648 4.90815 95.0648C4.82635 95.0648 4.82635 94.8195 4.74454 94.7377C6.54419 87.867 11.5341 81.9779 18.0783 78.8697ZM3.68112 101.69C3.68112 100.218 3.84472 98.7456 4.09013 97.3551C4.33553 97.4369 4.49914 97.5187 4.66274 97.6004L5.07175 97.764C6.21698 98.0912 7.28041 98.9091 8.09843 99.9725C8.26204 100.136 8.34384 100.3 8.50744 100.381C9.24366 101.036 10.1435 101.199 10.8797 101.363C11.5341 101.527 12.3521 101.772 13.252 102.017C13.9882 102.263 14.7244 102.426 15.3788 102.59C15.4606 102.835 15.5424 103.162 15.4606 103.653V103.735C15.4606 103.899 15.3788 104.062 15.3788 104.226C15.2152 104.962 15.1334 105.78 15.3788 106.68C15.5424 107.334 15.9514 107.906 16.2787 108.315C16.3605 108.397 16.3605 108.479 16.4423 108.561C17.9965 110.687 18.5691 113.55 19.0599 116.004C19.1417 116.495 19.6325 116.904 20.1234 116.904C20.2052 116.904 20.287 116.904 20.3688 116.904C22.4138 116.495 23.9681 114.613 24.0499 112.487C24.0499 112.16 24.0499 111.833 23.9681 111.505C23.9681 111.178 23.8863 110.933 23.8863 110.606C23.8863 110.442 23.9681 110.278 24.0499 110.197C24.2135 110.197 24.5407 110.197 24.8679 110.033C25.6859 109.624 25.6859 108.724 25.6859 108.397C25.6859 108.315 25.6859 108.315 25.6859 108.234C25.6859 108.07 25.9313 107.743 26.0949 107.497C26.4221 107.088 26.7493 106.598 26.9129 105.943V105.862C28.7126 104.389 31.003 102.508 31.003 100.054C31.003 99.9725 31.003 99.8089 31.003 99.7271C31.003 99.4817 31.003 99.2363 31.003 99.1545C31.0848 98.7456 31.9847 98.3366 32.3119 98.173C32.6391 98.0094 32.8027 97.764 32.8845 97.5186C33.2117 96.3735 32.4755 95.3102 31.003 94.8195C29.6124 94.3287 28.2218 93.9197 26.7493 93.5926C26.7493 93.429 26.7493 93.2654 26.7493 93.1018C26.7493 91.7931 26.8311 90.1572 25.5223 89.0121C24.7043 88.276 23.6408 88.1124 22.741 88.0306C22.8228 87.867 22.9046 87.7034 22.9046 87.5398C23.3136 86.4765 23.8045 85.3314 23.6408 83.9409C23.3954 82.3869 22.4138 81.3235 21.5958 80.342C21.105 79.7695 20.6142 79.1969 20.287 78.6244C20.2052 78.4608 20.1234 78.2154 20.0416 78.0518C22.8228 76.9885 25.7677 76.4977 28.7944 76.4977C34.6841 76.4977 40.3285 78.5426 44.8276 82.3051C43.028 82.7958 41.4737 83.2866 40.6557 84.0227C38.447 86.0676 38.9379 89.9119 39.4287 91.9567C39.5105 92.2839 39.5923 92.611 39.6741 92.8564C40.1649 94.8195 40.6557 96.8643 40.0831 98.6638C39.9195 99.2363 39.6741 99.4817 39.5923 99.4817C39.5105 99.5635 39.2651 99.5635 39.0197 99.5635C38.856 99.5635 38.6106 99.5635 38.3652 99.6453C36.1566 99.9725 34.7659 102.344 34.4387 104.471C34.1115 106.598 34.5205 108.806 34.9295 110.687C35.0932 111.505 35.3386 112.323 35.8294 112.978C36.8928 114.532 38.6106 114.613 39.9195 114.695C40.8193 114.777 41.6373 114.777 42.2099 115.268C43.1916 116.086 43.437 117.967 43.6824 119.766C43.7642 120.503 43.846 121.239 43.9278 121.893C39.5923 125.165 34.3569 126.883 28.8762 126.883C14.9698 126.883 3.68112 115.595 3.68112 101.69Z" fill="white"/>
<path d="M69.45 64.4742C70.5952 63.3291 70.5952 61.4478 69.45 60.3027L59.3065 50.1603C62.7422 45.0073 62.7422 38.3002 59.3065 33.1473C54.6438 26.113 45.1548 24.3136 38.2016 28.9758C31.2484 33.638 29.2852 43.1261 34.0297 50.1603C38.7742 57.1945 48.1814 58.994 55.1346 54.3318L65.2781 64.4742C66.4233 65.6193 68.3048 65.6193 69.45 64.4742ZM46.6272 55.6405C38.9378 55.6405 32.7208 49.3424 32.7208 41.6538C32.7208 33.9652 39.0196 27.7489 46.709 27.7489C54.3984 27.7489 60.6154 34.047 60.6154 41.7356C60.6154 49.4242 54.3166 55.6405 46.6272 55.6405ZM66.1779 63.5744L56.3617 53.6774L58.6521 51.3872L68.5502 61.2842C68.8774 61.6114 69.041 62.0204 69.041 62.4293C69.041 62.8383 68.8774 63.2473 68.5502 63.5744C67.8958 64.2288 66.8323 64.2288 66.1779 63.5744Z" fill="white"/>
<path d="M67.3232 65.3739C66.587 65.3739 65.7689 65.0467 65.1963 64.4741L55.1347 54.3318C52.517 56.0494 49.5721 56.8674 46.709 56.8674C41.8009 56.8674 36.8928 54.4953 34.0297 50.0785C31.7392 46.725 30.9212 42.6353 31.7392 38.6274C32.5573 34.6195 34.8477 31.1842 38.2016 28.894C41.5555 26.6038 45.6456 25.7858 49.6539 26.6038C53.6622 27.4217 57.0979 29.7119 59.3884 33.0654C61.1062 35.601 62.006 38.5456 62.006 41.572C62.006 44.5983 61.1062 47.5429 59.3884 50.0785L69.5318 60.2209C70.1045 60.7934 70.4317 61.5296 70.4317 62.3475C70.4317 63.1655 70.1045 63.9016 69.5318 64.4741C68.8774 65.1285 68.1412 65.3739 67.3232 65.3739ZM55.1347 54.25L65.2781 64.4741C65.8507 65.0467 66.587 65.2921 67.3232 65.2921C68.0594 65.2921 68.7956 64.9649 69.3682 64.4741C69.9409 63.9016 70.1863 63.1655 70.1863 62.4293C70.1863 61.6932 69.8591 60.957 69.3682 60.3845L59.2248 50.1603C60.9426 47.6247 61.8424 44.6801 61.8424 41.6538C61.8424 38.6274 60.9426 35.6828 59.3066 33.1472C57.0161 29.7937 53.5804 27.5035 49.6539 26.6856C45.6456 25.8676 41.6373 26.6856 38.2016 28.9758C34.8477 31.266 32.5573 34.7013 31.7392 38.6274C30.9212 42.6353 31.7392 46.6432 34.0297 50.0785C38.6924 57.1127 48.1815 58.994 55.1347 54.25ZM67.3232 64.0652C66.9142 64.0652 66.4234 63.9016 66.0962 63.5744L56.2799 53.6774L58.6521 51.3054L68.5502 61.2024C68.8774 61.5296 69.041 61.9385 69.041 62.4293C69.041 62.8383 68.8774 63.329 68.5502 63.5744C68.223 63.9016 67.814 64.0652 67.3232 64.0652ZM56.3617 53.6774L66.178 63.5744C66.8324 64.2288 67.814 64.2288 68.4684 63.5744C68.7956 63.2472 68.9592 62.8383 68.9592 62.4293C68.9592 62.0203 68.7956 61.6114 68.4684 61.2842L58.6521 51.3872L56.3617 53.6774ZM46.709 55.6404C46.709 55.6404 46.6272 55.6404 46.709 55.6404C38.9378 55.6404 32.7209 49.3424 32.7209 41.6538C32.7209 37.8913 34.1933 34.4559 36.811 31.7568C39.4286 29.1394 42.9461 27.6671 46.709 27.6671C50.4719 27.6671 53.9076 29.1394 56.6071 31.7568C59.2248 34.3741 60.6972 37.8913 60.6972 41.6538C60.6154 49.4241 54.3984 55.6404 46.709 55.6404ZM46.6272 55.5587C46.6272 55.5587 46.709 55.5587 46.6272 55.5587C54.3166 55.5587 60.5336 49.3424 60.5336 41.6538C60.5336 37.9731 59.0612 34.4559 56.4435 31.8385C53.8258 29.2212 50.3083 27.7489 46.6272 27.7489C42.9461 27.7489 39.4286 29.2212 36.811 31.8385C34.1933 34.4559 32.7209 37.9731 32.7209 41.6538C32.8027 49.3424 39.0196 55.5587 46.6272 55.5587Z" fill="white"/>
<path d="M67.3232 65.7011C66.5051 65.7011 65.6871 65.3739 65.0327 64.7195L55.1346 54.7407C51.699 56.9492 47.6907 57.6853 43.6823 56.9492C39.5922 56.1312 36.0747 53.7592 33.7843 50.3239C29.0398 43.2079 30.9212 33.4744 38.038 28.7304C45.1548 23.9864 54.8074 25.8676 59.6338 32.9837C63.1513 38.2185 63.1513 44.8437 59.7156 50.0785L69.6954 60.0573C71.0043 61.366 70.9225 63.4108 69.6954 64.6377C69.041 65.3739 68.223 65.7011 67.3232 65.7011ZM55.2164 53.9228L65.5235 64.3106C66.5051 65.2921 68.223 65.3739 69.2046 64.3106C70.1862 63.3291 70.268 61.6114 69.2046 60.6299L58.8975 50.2421L59.0611 49.9967C62.4968 44.9255 62.4968 38.4638 59.0611 33.3926C54.4802 26.522 45.2366 24.7225 38.3652 29.303C31.4938 33.8834 29.6942 43.1261 34.2751 49.9967C36.4838 53.2685 39.8376 55.5587 43.7641 56.2948C47.6906 57.031 51.6171 56.2948 54.971 54.0864L55.2164 53.9228ZM67.3232 64.3924C66.8324 64.3924 66.3415 64.147 65.9325 63.8198L55.8709 53.6774L58.6521 50.8964L68.7138 61.0388C69.041 61.366 69.2864 61.9386 69.2864 62.4293C69.2864 62.9201 69.041 63.4108 68.7138 63.8198C68.3866 64.147 67.8958 64.3924 67.3232 64.3924ZM56.7707 53.6774L66.4233 63.3291C66.6688 63.5744 66.996 63.738 67.3232 63.738C67.6504 63.738 67.9776 63.5744 68.223 63.3291C68.4684 63.0837 68.632 62.7565 68.632 62.4293C68.632 62.1021 68.4684 61.775 68.223 61.5296L58.6521 51.7962L56.7707 53.6774ZM46.709 55.8858C46.709 55.8858 46.6272 55.8858 46.709 55.8858C38.856 55.8858 32.4754 49.506 32.4754 41.572C32.4754 33.7198 38.856 27.3399 46.709 27.3399C54.562 27.3399 60.9426 33.8016 60.9426 41.6538C60.9426 45.4981 59.4702 49.0152 56.7707 51.7144C54.0712 54.4136 50.4719 55.8858 46.709 55.8858ZM46.6272 55.3133C46.6272 55.3133 46.709 55.3133 46.6272 55.3133C50.3083 55.3133 53.6622 53.9228 56.2799 51.3054C58.8157 48.7698 60.2882 45.3345 60.2882 41.6538C60.2882 34.1288 54.2348 28.0761 46.709 27.9943C39.1832 27.9943 33.1299 34.047 33.1299 41.572C33.0481 49.1788 39.1832 55.2315 46.6272 55.3133Z" fill="white"/>
<path d="M67.3232 65.7011C66.4234 65.7011 65.6053 65.3739 64.9509 64.7196L55.0529 54.7407C51.6172 56.9492 47.6089 57.6853 43.6006 56.9492C39.5104 56.1312 35.993 53.7592 33.7025 50.3239C28.958 43.2079 30.8394 33.4744 37.9562 28.6486C45.073 23.9046 54.8074 25.7859 59.6338 32.9019C63.0695 38.0549 63.1513 44.8437 59.7974 50.0785L69.6954 60.0573C71.0043 61.366 71.0043 63.4109 69.6954 64.7196C69.041 65.3739 68.223 65.7011 67.3232 65.7011ZM55.1347 54.6589L65.1145 64.6378C65.6871 65.2103 66.5052 65.6193 67.405 65.6193C68.3048 65.6193 69.041 65.2921 69.6954 64.7196C70.9225 63.4926 70.9225 61.4478 69.6954 60.1391L59.6338 50.1603C62.9877 44.9255 62.9877 38.2185 59.552 33.0655C54.8074 25.9494 45.1548 24.0682 38.038 28.8122C30.9212 33.5562 29.0398 43.2079 33.7843 50.3239C36.0748 53.7592 39.5922 56.1312 43.6824 56.9492C47.6089 57.6853 51.699 56.8674 55.1347 54.6589ZM67.3232 65.0467C66.6688 65.0467 65.9325 64.8013 65.4417 64.3106L55.2165 53.9228L55.0529 54.0864C51.699 56.2948 47.7725 57.1128 43.846 56.2948C39.9195 55.5587 36.5656 53.2685 34.3569 49.9149C29.776 43.0443 31.6574 33.7198 38.447 29.1394C45.3184 24.5589 54.562 26.4402 59.2248 33.2291C62.5787 38.3003 62.5787 44.8437 59.2248 49.9149L58.8976 50.2421L69.2046 60.5481C70.2681 61.6114 70.2681 63.2473 69.2046 64.3106C68.7138 64.8013 68.0594 65.0467 67.3232 65.0467ZM55.2165 53.841L65.5235 64.2288C66.5052 65.2103 68.1412 65.2103 69.2046 64.2288C70.1863 63.2473 70.1863 61.6114 69.2046 60.5481L58.8158 50.2421L58.9794 49.9967C62.3332 44.9255 62.415 38.4638 58.9794 33.3926C54.3984 26.6038 45.1548 24.7225 38.3652 29.303C31.5756 33.8834 29.6942 43.1261 34.2751 49.9149C36.4838 53.1867 39.8377 55.4769 43.7642 56.213C47.6907 56.9492 51.6172 56.213 54.971 54.0046L55.2165 53.841ZM67.3232 64.3924C66.7506 64.3924 66.2597 64.147 65.9325 63.8198L55.7891 53.6774L58.5703 50.8965L68.632 61.0388C69.041 61.4478 69.2046 61.9386 69.2046 62.4293C69.2046 63.0019 68.9592 63.4926 68.632 63.8198C68.3866 64.2288 67.8958 64.3924 67.3232 64.3924ZM55.9527 53.6774L66.0143 63.8198C66.3415 64.147 66.8324 64.3924 67.405 64.3924C67.8958 64.3924 68.3866 64.2288 68.7956 63.8198C69.1228 63.4926 69.3682 63.0019 69.3682 62.4293C69.3682 61.9386 69.2046 61.4478 68.7956 61.0388L58.6521 50.9782L55.9527 53.6774ZM67.3232 63.738C66.996 63.738 66.587 63.5744 66.3415 63.3291L56.7707 53.6774L58.6521 51.7962L68.3048 61.4478C68.5502 61.6932 68.7138 62.0204 68.7138 62.4293C68.7138 62.7565 68.5502 63.1655 68.3048 63.4109C68.0594 63.6562 67.7322 63.738 67.3232 63.738ZM56.8525 53.6774L66.5052 63.3291C66.7506 63.5744 67.0778 63.738 67.405 63.738C67.7322 63.738 68.0594 63.5744 68.3048 63.3291C68.5502 63.0837 68.7138 62.7565 68.7138 62.4293C68.7138 62.1022 68.5502 61.775 68.3048 61.5296L58.6521 51.878L56.8525 53.6774ZM46.709 55.9676C38.7742 55.9676 32.3937 49.506 32.3937 41.6538C32.3937 33.8016 38.856 27.4217 46.709 27.4217C54.562 27.4217 60.9426 33.8834 60.9426 41.7356C60.9426 45.5799 59.4702 49.1788 56.7707 51.7962C54.0712 54.4954 50.4719 55.9676 46.709 55.9676ZM46.709 27.4217C38.856 27.4217 32.4755 33.8016 32.4755 41.6538C32.4755 49.506 38.7742 55.8859 46.6272 55.8859C50.3901 55.8859 53.9894 54.4136 56.6889 51.7144C59.3884 49.0152 60.8608 45.4981 60.8608 41.6538C60.9426 33.8834 54.562 27.5035 46.709 27.4217ZM46.709 55.3133C43.0279 55.3133 39.5922 53.841 37.0564 51.3054C34.5205 48.7698 33.0481 45.3345 33.0481 41.6538C33.0481 34.1288 39.1832 28.0761 46.709 28.0761C54.2348 28.0761 60.37 34.2106 60.2882 41.7356C60.2882 45.4163 58.8976 48.7698 56.2799 51.3872C53.744 53.9228 50.3083 55.3133 46.709 55.3133ZM46.6272 55.2315C50.3083 55.2315 53.6622 53.841 56.1981 51.3054C58.7339 48.7698 60.2064 45.3345 60.2064 41.7356C60.2064 34.2924 54.153 28.1579 46.6272 28.1579C39.1832 28.1579 33.0481 34.2106 33.0481 41.7356C33.0481 45.3345 34.4387 48.7698 36.9746 51.3054C39.5922 53.841 43.0279 55.2315 46.6272 55.2315Z" fill="white"/>
<path d="M118.204 -1.61503H115.014V-2.67835C115.014 -3.08731 114.768 -3.49628 114.359 -3.57807C112.151 -4.15063 109.942 -4.4778 107.652 -4.39601C103.971 -4.39601 98.8988 -3.57807 95.1359 0.26622C91.4548 -3.57807 86.3013 -4.39601 82.6202 -4.39601C80.3297 -4.39601 78.1211 -4.15063 75.9124 -3.57807C75.5034 -3.49628 75.258 -3.08731 75.258 -2.67835V-1.61503H72.1495C71.6587 -1.61503 71.2497 -1.20606 71.2497 -0.715303V28.8939C71.2497 29.3847 71.6587 29.7937 72.1495 29.7937C72.3131 29.7937 72.4767 29.7119 72.6403 29.7119C72.7221 29.6301 82.0476 24.5589 94.9723 27.8306H95.1359H95.2177C95.2995 27.8306 95.3813 27.8306 95.4631 27.8306C108.47 24.5589 117.713 29.6301 117.795 29.7119C118.122 29.8755 118.45 29.8755 118.695 29.7119C118.94 29.5483 119.186 29.2211 119.186 28.8939V-0.715303C119.104 -1.20606 118.695 -1.61503 118.204 -1.61503ZM73.1311 27.4217V0.184426H75.3398V23.4138C75.3398 23.9045 75.7488 24.3135 76.2396 24.3135C76.3214 24.3135 76.3214 24.3135 76.4032 24.3135C78.2847 23.9863 80.2479 23.9045 82.2112 23.8227C84.9107 23.7409 87.6101 24.1499 90.146 25.0496C84.338 24.4771 78.5301 25.2132 73.1311 27.4217ZM82.2112 22.1051C80.4933 22.1051 78.8573 22.1869 77.1395 22.4323V-2.024C78.9391 -2.43296 80.8205 -2.59655 82.6202 -2.59655C86.0559 -2.59655 90.8822 -1.77862 94.2361 1.98388V25.1314C92.3547 23.8227 88.5918 22.1051 82.2112 22.1051ZM96.1176 1.98388C99.4714 -1.69682 104.216 -2.59655 107.733 -2.59655C109.615 -2.59655 111.415 -2.35117 113.214 -2.024V22.3505C111.578 22.1051 109.86 22.0233 108.224 22.0233C101.926 22.0233 98.0808 23.7409 96.1994 24.9679V1.98388H96.1176ZM117.304 27.4217C111.905 25.2132 106.016 24.3953 100.289 25.1314C102.825 24.3135 105.525 23.9045 108.224 23.9045C110.188 23.9045 112.151 24.0681 114.032 24.3953C114.523 24.4771 115.014 24.1499 115.096 23.5774C115.096 23.4956 115.096 23.4956 115.096 23.4138V0.184426H117.304V27.4217Z" fill="white"/>
<path d="M97.0991 139.234C96.3629 139.397 95.6267 139.234 95.0541 138.825L93.3362 137.516C92.6818 137.025 92.2728 136.289 92.2728 135.553L91.373 108.479L82.702 102.099C82.3747 101.854 82.0475 101.527 81.8021 101.118L78.8573 96.6191C78.3664 95.883 78.3664 94.9015 78.9391 94.1653C79.5117 93.4292 80.4115 93.102 81.2295 93.3474L86.3831 94.8197C86.7921 94.9833 87.2011 95.1469 87.6101 95.3922L96.2811 101.772L122.376 94.4925C123.112 94.2471 123.93 94.4107 124.585 94.9015L126.303 96.2102C126.957 96.7009 127.366 97.5189 127.366 98.3368C127.366 99.1547 126.875 99.9727 126.221 100.463L109.369 111.424L114.359 115.104L123.685 113.632C124.339 113.55 125.075 113.714 125.566 114.123L126.548 114.777C127.202 115.268 127.611 116.086 127.611 116.986C127.611 117.804 127.121 118.622 126.384 119.112L119.022 123.693L116.895 132.036C116.65 132.854 116.077 133.508 115.259 133.835C114.441 134.162 113.541 133.999 112.887 133.508L111.905 132.854C111.333 132.445 111.006 131.872 110.842 131.136L109.369 121.812L104.38 118.131L99.0624 137.516C98.817 138.334 98.2444 138.988 97.4263 139.234C97.3445 139.152 97.2627 139.234 97.0991 139.234ZM80.3297 95.5558L83.2746 100.054C83.4382 100.218 83.6018 100.382 83.7654 100.545L93.2544 107.416L94.2361 135.471C94.2361 135.716 94.3179 135.88 94.4815 135.962L96.1993 137.27C96.4447 137.434 96.6901 137.434 96.8537 137.352C96.9355 137.352 97.1809 137.189 97.2627 136.862L103.316 114.777L111.169 120.503L112.723 130.645C112.723 130.809 112.887 130.972 112.969 131.136L113.869 131.79C114.114 131.954 114.359 131.954 114.523 131.872C114.605 131.872 114.85 131.709 114.932 131.381L117.304 122.302L125.321 117.313C125.566 117.149 125.648 116.904 125.648 116.74C125.648 116.659 125.648 116.331 125.403 116.168L124.421 115.513C124.257 115.432 124.094 115.35 123.93 115.432L113.787 116.986L105.934 111.26L125.157 98.8276C125.403 98.664 125.484 98.4186 125.484 98.255C125.484 98.1732 125.484 97.846 125.239 97.6825L123.521 96.3738C123.358 96.2102 123.112 96.2102 122.949 96.292L95.9539 103.817L86.4649 96.8645C86.3012 96.7009 86.0558 96.6191 85.8104 96.5373L80.6569 95.0651C80.5751 95.0651 80.4933 95.0651 80.4115 95.1469C80.2479 95.3104 80.2479 95.474 80.3297 95.5558Z" fill="white"/>
<path d="M124.585 83.2868H92.3547C91.7002 83.2868 91.1276 82.7143 91.1276 82.0599V57.7673C91.1276 57.4401 91.2912 57.0311 91.5366 56.7857L107.57 41.9811C108.061 41.4903 108.879 41.4903 109.369 41.9811L125.403 56.8675C125.648 57.1129 125.812 57.4401 125.812 57.849V82.0599C125.812 82.7143 125.321 83.2868 124.585 83.2868ZM93.0909 81.3238H123.93V58.0944L108.551 43.7806L93.1727 58.0944V81.3238H93.0909Z" fill="white"/>
<path d="M114.441 83.2866H102.58V66.6008C102.58 65.2921 103.643 64.2288 104.952 64.2288H112.151C113.46 64.2288 114.523 65.2921 114.523 66.6008V83.2866H114.441ZM104.461 81.3236H112.478V66.6008C112.478 66.3554 112.314 66.1918 112.069 66.1918H104.87C104.625 66.1918 104.461 66.3554 104.461 66.6008V81.3236Z" fill="white"/>
<path d="M122.949 57.1945L115.341 50.1603V46.316C115.341 45.6617 115.914 45.0891 116.568 45.0891H121.722C122.376 45.0891 122.949 45.6617 122.949 46.316V57.1945ZM117.304 49.2606L121.067 52.7777V46.9704H117.304V49.2606Z" fill="white"/>
<path d="M127.775 61.6115L108.47 43.6987L89.2462 61.6115L87.9373 60.221L107.733 41.8993C108.224 41.4903 108.96 41.4903 109.369 41.8993L129.166 60.221L127.775 61.6115Z" fill="white"/>
</g>
<defs>
<clipPath id="clip0">
<rect width="325" height="301" fill="white" transform="translate(0 -21)"/>
</clipPath>
</defs>
</svg>
