<svg width="125" height="119" viewBox="0 0 125 119" fill="none" xmlns="http://www.w3.org/2000/svg">
<g clip-path="url(#clip0)">
<path d="M79.3545 100.205H73.2193C72.7285 100.205 72.4012 99.7958 72.4012 99.3868C72.4012 98.9778 72.8103 98.5688 73.2193 98.5688H79.2726C79.7635 98.5688 80.0907 98.9778 80.0907 99.3868C80.0907 99.7958 79.7635 100.205 79.3545 100.205Z" fill="white"/>
<path d="M49.5784 33.6248C56.5316 28.1447 60.5399 19.8835 60.5399 11.0498C60.5399 3.27946 57.4314 -4.08196 51.8689 -9.48033C46.4699 -14.7151 39.3531 -17.5779 31.9091 -17.5779C28.1462 -17.5779 24.3834 -16.8417 20.9477 -15.3695C12.6856 -11.9341 6.46867 -4.7363 4.17821 3.85201C3.52379 6.22402 3.27838 8.67783 3.27838 11.1316C3.27838 26.9178 16.1213 39.8411 31.991 39.8411C38.3715 39.7593 44.4249 37.6327 49.5784 33.6248ZM58.2495 11.0498C58.2495 18.493 55.2228 25.4455 49.742 30.4349C49.742 30.1895 49.6602 29.9441 49.6602 29.6987C49.4148 27.4085 49.0058 24.8729 47.3698 23.4824C46.2245 22.5009 44.8339 22.4191 43.6069 22.3373C42.298 22.2555 41.5618 22.1737 41.071 21.5194C40.7438 21.1104 40.5802 20.4561 40.4166 19.8835C40.0076 18.1659 39.5985 16.2028 39.9258 14.3216C40.1712 12.6857 41.1528 11.2952 42.1344 11.1316C42.2162 11.1316 42.3798 11.1316 42.5434 11.1316C43.0342 11.1316 43.6069 11.1316 44.1795 10.8045C44.9157 10.3955 45.4065 9.65935 45.7337 8.59603C46.4699 6.14223 45.8973 3.60663 45.3247 1.31641C45.2429 0.989241 45.1611 0.662066 45.0793 0.334892C44.4249 -2.52788 44.6703 -4.8181 45.7337 -5.79962C46.4699 -6.45397 49.0876 -7.10831 50.4783 -7.43549H50.56C55.55 -2.44609 58.2495 4.09739 58.2495 11.0498ZM20.6205 -12.8339C20.7023 -12.5885 20.8659 -12.2613 20.9477 -12.0159C21.4385 -11.198 22.0111 -10.4618 22.5837 -9.8075C23.4017 -8.90777 24.0561 -8.17163 24.1379 -7.2719C24.2197 -6.45397 23.8925 -5.63603 23.5653 -4.7363C23.3199 -4.08196 22.9927 -3.42761 22.9109 -2.60968V-2.52788V-2.44609C22.9109 -2.36429 22.9109 -2.36429 22.9109 -2.2825V-2.20071C22.9109 -2.11891 22.9109 -2.11891 22.9109 -2.11891V-2.03712C22.9109 -2.03712 22.9109 -1.95533 22.9927 -1.95533C22.9927 -1.95533 22.9927 -1.87353 23.0745 -1.87353L23.1563 -1.79174L23.2381 -1.70995L23.3199 -1.62815L23.4017 -1.54636C23.4017 -1.54636 23.4835 -1.54636 23.4835 -1.46457L23.5653 -1.38277H23.6471H23.7289C24.1379 -1.30098 24.6288 -1.21918 25.0378 -1.13739C25.774 -1.0556 26.5102 -0.973804 26.8374 -0.646631C27.3282 -0.237663 27.3282 0.580271 27.3282 1.80717C27.3282 2.29793 27.3282 2.87049 27.3282 3.36125C27.41 3.85201 27.7372 4.26098 28.2281 4.42456C29.8641 4.75174 31.5819 5.2425 33.1362 5.81506C32.5636 6.22402 31.9909 6.79657 31.7455 7.61451C31.5819 8.10527 31.6638 8.51424 31.6638 8.92321C31.6638 9.005 31.6638 9.08679 31.6638 9.16859C31.6638 10.6409 29.7005 12.1949 28.1462 13.5036L27.819 13.749C27.819 13.749 27.819 13.749 27.7372 13.8308L27.6554 13.9126L27.5736 13.9944L27.4918 14.0762C27.4918 14.0762 27.4918 14.158 27.41 14.158C27.41 14.158 27.41 14.2398 27.3282 14.2398V14.3216V14.4034C27.3282 14.4852 27.3282 14.4852 27.3282 14.567V14.6488C27.3282 14.7305 27.3282 14.7305 27.3282 14.8123C27.2464 14.9759 27.0828 15.3031 26.9192 15.5485C26.592 16.0392 26.1012 16.6118 26.0194 17.4297C26.0194 17.4297 26.0194 17.4297 26.0194 17.5115C24.8742 17.7569 24.2197 18.902 24.0561 19.9653C23.9743 20.4561 24.0561 20.9468 24.1379 21.3558C24.1379 21.6012 24.2197 21.8466 24.2197 22.092C24.2197 22.7463 23.8925 23.4824 23.3199 23.8914C22.7473 21.4376 22.0111 18.8202 20.4568 16.6118C20.375 16.53 20.2932 16.4482 20.2932 16.3664C20.0478 16.0392 19.8024 15.6303 19.7206 15.3849C19.6388 14.9759 19.7206 14.4034 19.8024 13.8308C19.8024 13.6672 19.8842 13.5036 19.8842 13.3401V13.1765C20.0478 11.5406 19.6388 10.6409 19.0662 10.0683C18.9026 9.82293 18.6572 9.65935 18.4118 9.57755C17.7574 9.41397 16.8576 9.16859 16.0395 8.92321C15.1397 8.67783 14.1581 8.35065 13.4218 8.18706C12.8492 8.02348 12.2766 7.94168 11.9494 7.61451L11.8676 7.53272C10.7224 5.97864 9.16814 4.91533 7.53209 4.42456L7.12308 4.26098C6.95948 4.26098 6.71408 4.09739 6.63228 4.0156C6.55047 3.9338 6.46866 3.77022 6.46866 3.68842C8.51372 -3.42761 13.7491 -9.56212 20.6205 -12.8339ZM5.48704 11.0498C5.48704 9.49576 5.65064 7.94168 5.89605 6.4694C6.14146 6.5512 6.30506 6.63299 6.46866 6.71478L6.87767 6.87837C8.10471 7.28734 9.16813 8.02348 10.068 9.25038C10.2316 9.41397 10.3952 9.57755 10.477 9.74114C11.2132 10.3955 12.1948 10.5591 12.931 10.8045C13.5854 10.968 14.4853 11.2134 15.3851 11.5406C16.1213 11.786 16.9393 12.0314 17.5938 12.1949C17.7574 12.4403 17.7574 12.8493 17.6756 13.3401V13.4218C17.6756 13.5854 17.5938 13.749 17.5938 13.9126C17.4302 14.6487 17.3484 15.5485 17.5938 16.4482C17.8392 17.1843 18.1664 17.6751 18.5754 18.1659C18.6572 18.2477 18.6572 18.3295 18.739 18.4113C20.2932 20.7015 20.9476 23.646 21.5203 26.2634C21.6021 26.836 22.0929 27.1632 22.6655 27.1632C22.7473 27.1632 22.8291 27.1632 22.9109 27.1632C25.0378 26.7542 26.6738 24.7093 26.7556 22.5827C26.7556 22.1738 26.6738 21.8466 26.6738 21.5194C26.6738 21.1922 26.592 20.8651 26.592 20.6197C26.592 20.3743 26.6738 20.2107 26.7556 20.2107C26.9192 20.2107 27.2464 20.2107 27.5736 19.9653C28.3917 19.5564 28.4734 18.6566 28.4734 18.2477C28.4734 18.1659 28.4734 18.1659 28.4734 18.0841C28.4734 17.9205 28.7189 17.5933 28.8825 17.3479C29.2097 16.939 29.6187 16.3664 29.7005 15.7121V15.6303C31.5819 14.0762 33.9542 12.1132 33.9542 9.57755C33.9542 9.49576 33.9542 9.33217 33.9542 9.25038C33.9542 9.005 33.9542 8.75962 33.9542 8.67783C34.036 8.26886 34.9358 7.85989 35.3449 7.6963C35.6721 7.53272 35.9175 7.28734 35.9993 6.96016C36.3265 5.81505 35.5903 4.66994 34.036 4.09739C32.5636 3.60663 31.0911 3.11587 29.6187 2.7887C29.6187 2.62511 29.6187 2.46152 29.6187 2.29793C29.6187 0.907444 29.7005 -0.810217 28.3917 -1.95533C27.4918 -2.69147 26.4284 -2.85506 25.4468 -3.01864C25.5286 -3.18223 25.6104 -3.34582 25.6922 -3.5094C26.1012 -4.57272 26.592 -5.88141 26.4284 -7.2719C26.183 -8.82598 25.2014 -9.97109 24.3016 -11.0344C23.8107 -11.607 23.2381 -12.1795 22.9109 -12.7521C22.8291 -12.9157 22.7473 -13.161 22.6655 -13.4064C25.6104 -14.4697 28.6371 -15.0423 31.8273 -15.0423C38.0443 -15.0423 43.9341 -12.9157 48.5968 -8.98957C46.7153 -8.49881 45.1611 -8.00804 44.2613 -7.19011C41.9708 -5.06348 42.4616 -1.0556 42.9524 1.15283C43.0342 1.48 43.116 1.80717 43.1978 2.13435C43.6887 4.17919 44.1795 6.38761 43.6069 8.18706C43.4432 8.75962 43.1979 9.005 43.1161 9.08679C43.0343 9.16859 42.7888 9.16859 42.5434 9.16859C42.298 9.16859 42.1344 9.16858 41.8072 9.25038C39.5168 9.57755 38.0443 12.1131 37.6353 14.3216C37.2263 16.6118 37.7171 18.8202 38.2079 20.7833C38.4533 21.6012 38.6169 22.5009 39.1895 23.2371C40.3348 24.8729 42.0526 24.9547 43.4433 25.0365C44.4249 25.1183 45.2429 25.2001 45.8973 25.6091C46.879 26.427 47.2062 28.4718 47.3698 30.2713C47.4516 31.0074 47.5334 31.7436 47.6152 32.5615C43.0343 35.9968 37.6353 37.7963 31.8273 37.7963C17.3484 37.3873 5.48704 25.6091 5.48704 11.0498Z" fill="white"/>
<path d="M100.459 36.4875H98.0871V35.6695C98.0871 35.3424 97.9235 35.097 97.5962 35.0152C95.9602 34.6062 94.2424 34.3608 92.6063 34.3608C89.8251 34.3608 86.0621 35.0152 83.2809 37.7962C80.4996 34.9334 76.6549 34.3608 73.9554 34.3608C72.2376 34.3608 70.6015 34.6062 68.9655 35.0152C68.6383 35.097 68.4747 35.4242 68.4747 35.6695V36.4875H66.1024C65.6934 36.4875 65.448 36.8146 65.448 37.1418V59.3079C65.448 59.7168 65.7752 59.9622 66.1024 59.9622C66.1842 59.9622 66.3478 59.9622 66.4296 59.8804C66.5114 59.8804 73.4646 56.0361 83.1173 58.4899H83.1991H83.2809C83.3627 58.4899 83.3627 58.4899 83.4445 58.4899C93.1789 56.0361 100.132 59.7986 100.132 59.8804C100.378 60.044 100.623 60.044 100.787 59.8804C101.032 59.7168 101.114 59.5532 101.114 59.3079V37.1418C101.196 36.8146 100.868 36.4875 100.459 36.4875ZM66.7568 58.2445V37.878H68.3929V55.3C68.3929 55.7089 68.7201 56.0361 69.0473 56.0361H69.1291C70.6015 55.7907 71.9922 55.7089 73.4646 55.7089C75.5097 55.7089 77.4729 55.9543 79.3544 56.6087C75.1825 56.0361 70.7651 56.6087 66.7568 58.2445ZM73.5464 54.2367C72.3194 54.2367 71.0105 54.3185 69.7835 54.482V36.2421C71.1741 35.9149 72.483 35.7513 73.8736 35.7513C76.4913 35.7513 80.0906 36.3239 82.5446 39.1867V56.4451C81.154 55.5454 78.2909 54.2367 73.5464 54.2367ZM83.9353 39.1867C86.3894 36.4057 89.9887 35.7513 92.6063 35.7513C93.997 35.7513 95.3876 35.9149 96.6964 36.2421V54.482C95.4694 54.3185 94.1606 54.2367 92.9335 54.2367C88.189 54.2367 85.4077 55.5454 83.9353 56.4451V39.1867ZM99.8049 58.2445C95.7966 56.6087 91.3793 56.0361 87.0438 56.5269C88.9252 55.8725 90.9703 55.6271 93.0153 55.6271C94.4878 55.6271 95.9602 55.7089 97.3508 55.9543C97.7599 56.0361 98.0871 55.7907 98.1689 55.3818V55.3V37.878H99.8049V58.2445Z" fill="white"/>
<path d="M100.459 60.2076C100.296 60.2076 100.132 60.2076 100.05 60.1258C99.6413 59.8804 92.8518 56.4451 83.5263 58.8171C83.4445 58.8171 83.3627 58.8171 83.2809 58.8171H83.1173C73.8737 56.5269 67.2477 59.7986 66.5115 60.2076C66.3478 60.2894 66.1842 60.2894 66.1024 60.2894C65.6116 60.2894 65.2026 59.8804 65.2026 59.3897V37.1418C65.2026 36.6511 65.6116 36.2421 66.1024 36.2421H68.2293V35.6696C68.2293 35.2606 68.4747 34.9334 68.8837 34.7698C70.5198 34.3609 72.2376 34.1155 73.9555 34.1155C76.6549 34.1155 80.4996 34.688 83.2809 37.469C86.144 34.688 89.9887 34.0337 92.6881 34.1155C94.406 34.1155 96.042 34.3609 97.6781 34.7698C98.0871 34.8516 98.3325 35.2606 98.3325 35.6696V36.2421H100.541C101.032 36.2421 101.441 36.6511 101.441 37.1418V59.3079C101.441 59.6351 101.277 59.8804 101.032 60.044C100.787 60.2076 100.623 60.2076 100.459 60.2076ZM100.214 59.7986C100.378 59.8804 100.541 59.8804 100.705 59.7986C100.868 59.7168 100.95 59.5533 100.95 59.3897V37.1418C100.95 36.8965 100.705 36.6511 100.459 36.6511H97.9235V35.6696C97.9235 35.4242 97.7599 35.2606 97.5963 35.1788C95.9602 34.7698 94.3242 34.5244 92.6064 34.5244C89.9069 34.5244 86.144 35.097 83.3627 37.9598L83.1991 38.1234L83.0355 37.9598C80.2542 35.097 76.4913 34.5244 73.7919 34.5244C72.1558 34.5244 70.5198 34.7698 68.8837 35.1788C68.6383 35.2606 68.5565 35.4242 68.5565 35.6696V36.6511H66.0207C65.7753 36.6511 65.5298 36.8965 65.5298 37.1418V59.3079C65.5298 59.5533 65.7753 59.7986 66.0207 59.7986C66.1025 59.7986 66.1843 59.7986 66.2661 59.7168C67.0023 59.3079 73.7919 55.9543 83.1173 58.3264H83.1991C83.2809 58.3264 83.2809 58.3264 83.3627 58.3264C92.4427 56.0361 99.4777 59.2261 100.214 59.7986ZM66.5933 58.4899V37.7144H68.6383V55.3C68.6383 55.4636 68.7201 55.5454 68.8019 55.6272C68.8837 55.709 69.0473 55.7908 69.1291 55.7908H69.2109C70.6834 55.5454 72.1558 55.4636 73.5464 55.4636C75.5915 55.4636 77.6366 55.709 79.518 56.3633L79.4362 56.7723C75.1825 56.2815 70.7652 56.8541 66.8387 58.4899H66.5933ZM66.9205 38.0416V57.9174C70.2743 56.6087 73.7919 56.0361 77.3912 56.1179C76.1641 55.8725 74.8553 55.709 73.5464 55.7908C72.074 55.7908 70.6834 55.9543 69.2109 56.1179C69.1291 56.1179 69.1291 56.1179 69.0473 56.1179C68.5565 56.1179 68.1475 55.709 68.1475 55.2182V38.0416H66.9205ZM99.9685 58.4899L99.7231 58.4081C95.7148 56.7723 91.3793 56.1997 87.0438 56.6905L86.962 56.2815C88.9252 55.6272 90.9703 55.3 93.0154 55.3818C94.4878 55.3818 95.9602 55.5454 97.4327 55.709C97.5963 55.709 97.6781 55.709 97.8417 55.6272C97.9235 55.5454 98.0053 55.4636 98.0053 55.3V55.2182V37.7144H100.05L99.9685 58.4899ZM90.0705 56.1179C93.3426 56.1179 96.5329 56.6905 99.5595 57.9174V38.0416H98.2507V55.2182C98.2507 55.3 98.2507 55.3 98.2507 55.3818C98.2507 55.6272 98.0871 55.7908 97.9235 55.9543C97.7599 56.1179 97.5145 56.1179 97.2691 56.1179C95.7966 55.8725 94.406 55.7908 92.9336 55.7908C91.6247 55.7908 90.3159 55.8725 89.0888 56.1179C89.4161 56.1179 89.7433 56.1179 90.0705 56.1179ZM82.7901 56.7723L82.4629 56.6087C80.9086 55.6272 78.1274 54.4003 73.5464 54.4003C72.3194 54.4003 71.0106 54.4821 69.7835 54.6456H69.5381V36.0785H69.7018C71.0924 35.7514 72.483 35.5878 73.8736 35.5878C76.4913 35.5878 80.1724 36.1603 82.7083 39.0231L82.7901 39.1049V56.7723ZM73.5464 54.0731C77.9638 54.0731 80.745 55.1364 82.3811 56.1179V39.2685C79.927 36.5693 76.4095 35.9967 73.8736 35.9967C72.5648 35.9967 71.256 36.1603 69.9472 36.4057V54.3185C71.1742 54.1549 72.3194 54.0731 73.5464 54.0731ZM83.7717 56.7723V39.1049L83.8535 39.0231C86.3894 36.1603 90.0705 35.5878 92.6881 35.5878C94.0788 35.5878 95.4694 35.7514 96.8601 36.0785H97.0237V54.7274H96.7782C95.5512 54.5639 94.3242 54.4821 93.0154 54.4821C88.4344 54.4821 85.6532 55.709 84.0989 56.6905L83.7717 56.7723ZM84.1807 39.2685V56.1179C85.8168 55.1364 88.5981 54.0731 93.0154 54.0731C94.2424 54.0731 95.3876 54.1549 96.6147 54.3185V36.4057C95.3058 36.1603 93.997 35.9967 92.6881 35.9967C90.0705 35.9149 86.6348 36.4875 84.1807 39.2685Z" fill="white"/>
<path d="M104.631 80.656C98.6597 80.656 93.8334 85.4818 93.8334 91.4528C93.8334 94.5609 95.2241 97.5873 97.5145 99.5503C99.2324 101.268 99.0688 104.949 99.0688 104.949C99.0688 105.112 99.0688 105.276 99.2324 105.439C99.3142 105.521 99.5596 105.603 99.7232 105.603H109.621C109.785 105.603 109.948 105.521 110.112 105.439C110.194 105.358 110.276 105.112 110.276 104.949C110.276 104.949 110.112 101.268 111.83 99.5503L111.912 99.4685C114.202 97.4237 115.511 94.4791 115.511 91.4528C115.429 85.5636 110.603 80.656 104.631 80.656ZM110.848 98.5688C110.848 98.5688 110.766 98.6506 110.766 98.7324C109.212 100.368 108.967 103.067 108.967 104.294H100.378C100.378 102.986 100.05 100.205 98.4143 98.5688C96.3693 96.7693 95.1423 94.1519 95.1423 91.4528C95.1423 86.218 99.396 81.9647 104.631 81.9647C109.867 81.9647 114.12 86.218 114.12 91.4528C114.039 94.2337 112.893 96.7693 110.848 98.5688Z" fill="white"/>
<path d="M109.539 105.848H99.6413C99.4777 105.848 99.2324 105.767 99.0687 105.603C98.8233 105.358 98.8233 105.194 98.8233 105.03V104.949C98.9051 104.54 98.9051 101.268 97.3509 99.7139C94.9786 97.6691 93.6698 94.6427 93.6698 91.4528C93.6698 85.4 98.5779 80.4924 104.631 80.4924C110.685 80.4924 115.593 85.4 115.593 91.4528C115.593 94.4791 114.284 97.4237 111.993 99.5503L111.912 99.6321C110.357 101.186 110.439 104.54 110.439 104.949C110.439 105.194 110.357 105.439 110.194 105.603C109.948 105.767 109.785 105.848 109.539 105.848ZM99.1506 105.03C99.1506 105.194 99.1505 105.276 99.3141 105.439C99.3959 105.521 99.5596 105.603 99.7232 105.603H109.621C109.785 105.603 109.867 105.521 110.03 105.439C110.112 105.358 110.194 105.194 110.194 105.03C110.194 104.376 110.112 101.186 111.748 99.5503L111.83 99.4685C114.039 97.4237 115.347 94.5609 115.347 91.5346C115.347 85.6454 110.521 80.9014 104.713 80.9014C98.9051 80.9014 94.0788 85.7272 94.0788 91.5346C94.0788 94.6427 95.3876 97.5055 97.6781 99.5503C98.5779 100.45 98.987 101.922 99.1506 102.986C99.1506 103.722 99.1506 104.703 99.1506 105.03ZM109.049 104.458H100.214V104.294C100.132 102.904 99.8868 100.205 98.3325 98.6506C96.2057 96.8511 95.0604 94.1519 95.0604 91.371C95.0604 86.0544 99.396 81.7193 104.713 81.7193C110.03 81.7193 114.366 86.0544 114.366 91.371C114.366 94.1519 113.139 96.8511 111.094 98.6506L111.012 98.7324C109.539 100.286 109.294 102.822 109.212 104.213L109.049 104.458ZM100.459 104.213H108.803C108.885 102.74 109.212 100.286 110.603 98.6506C110.603 98.5688 110.685 98.5688 110.766 98.487C112.812 96.7693 113.957 94.152 113.957 91.4528C113.957 86.2998 109.785 82.1283 104.631 82.1283C99.4777 82.1283 95.3058 86.2998 95.3058 91.4528C95.3058 94.152 96.4511 96.6875 98.4961 98.487C100.05 100.123 100.378 102.74 100.459 104.213Z" fill="white"/>
<path d="M109.539 105.848H99.6414C99.4777 105.848 99.2324 105.767 99.0688 105.603C98.9051 105.439 98.8233 105.194 98.8233 105.03V104.949C98.9051 104.54 98.9051 101.268 97.3509 99.6321C94.9786 97.5873 93.6698 94.5609 93.6698 91.4528C93.6698 85.4 98.5779 80.5742 104.549 80.5742C110.603 80.5742 115.429 85.4818 115.429 91.4528C115.429 94.4791 114.12 97.4237 111.83 99.5503L111.748 99.6321C110.194 101.186 110.276 104.54 110.276 104.949C110.276 105.194 110.194 105.439 110.03 105.521C109.948 105.767 109.785 105.848 109.539 105.848ZM99.0688 105.03C99.0688 105.194 99.0687 105.358 99.2323 105.439C99.3141 105.521 99.4777 105.603 99.6414 105.603H109.539C109.703 105.603 109.785 105.521 109.948 105.439C110.03 105.358 110.112 105.194 110.112 105.03C110.112 104.376 110.03 101.186 111.666 99.5503L111.748 99.4685C114.039 97.4237 115.266 94.4791 115.266 91.5345C115.266 85.6454 110.439 80.8196 104.549 80.8196C98.6597 80.8196 93.8334 85.6454 93.8334 91.5345C93.8334 94.6427 95.1422 97.5873 97.4327 99.5503C98.3325 100.45 98.7415 101.922 98.9051 102.904C99.0687 103.722 99.1506 104.703 99.0688 105.03ZM108.967 104.458H100.214V104.376C100.132 102.904 99.8868 100.286 98.3325 98.6506C96.2057 96.8511 95.0604 94.2337 95.0604 91.4528C95.0604 86.1362 99.396 81.8829 104.631 81.8829C109.867 81.8829 114.202 86.218 114.202 91.4528C114.202 94.2337 112.975 96.8511 110.93 98.6506C110.848 98.7324 110.848 98.7324 110.848 98.7324C109.376 100.286 109.13 102.904 109.049 104.294L108.967 104.458ZM100.378 104.213H108.803C108.885 102.822 109.212 100.286 110.603 98.6506C110.603 98.5688 110.685 98.5688 110.766 98.487C112.812 96.6875 113.957 94.1519 113.957 91.371C113.957 86.218 109.785 81.9647 104.549 81.9647C99.3141 81.9647 95.1422 86.1362 95.1422 91.371C95.1422 94.0701 96.2875 96.6875 98.3325 98.487C100.05 100.123 100.378 102.74 100.378 104.213Z" fill="white"/>
<path d="M109.539 105.93H99.6413C99.3959 105.93 99.1505 105.848 98.9869 105.685C98.7415 105.439 98.7415 105.194 98.7415 105.03V104.949C98.8233 104.54 98.8233 101.35 97.2691 99.7957C94.8968 97.7509 93.5062 94.7245 93.5062 91.5346C93.5062 85.4818 98.4961 80.4924 104.549 80.4924C110.603 80.4924 115.593 85.4818 115.593 91.5346C115.593 94.6427 114.284 97.5873 111.912 99.7139L111.83 99.7957C110.276 101.35 110.357 104.622 110.357 105.03C110.357 105.276 110.276 105.521 110.112 105.767C110.03 105.848 109.785 105.93 109.539 105.93ZM99.2323 105.03C99.2323 105.194 99.2323 105.276 99.3959 105.358C99.4777 105.439 99.5595 105.521 99.7231 105.521H109.621C109.703 105.521 109.867 105.521 109.948 105.358C110.03 105.276 110.112 105.112 110.112 105.03C110.112 104.376 110.03 101.104 111.666 99.4685L111.748 99.3867C113.957 97.3419 115.266 94.4791 115.266 91.5346C115.266 85.7272 110.521 80.9832 104.713 80.9832C98.9051 80.9832 94.1606 85.7272 94.1606 91.5346C94.1606 94.5609 95.4694 97.5055 97.7599 99.4685C98.7415 100.45 99.0687 101.841 99.2323 102.904C99.2323 103.722 99.3141 104.622 99.2323 105.03ZM109.13 104.622H100.05V104.376C99.9685 102.986 99.7231 100.368 98.1689 98.8142C96.042 97.0147 94.815 94.3155 94.815 91.4528C94.815 86.0544 99.1505 81.7193 104.549 81.7193C109.948 81.7193 114.284 86.0544 114.284 91.4528C114.284 94.3155 113.057 96.9329 111.012 98.8142C111.012 98.8142 111.012 98.8142 111.012 98.896V98.9778H110.93C109.539 100.532 109.212 103.067 109.212 104.376L109.13 104.622ZM100.541 104.131H108.64C108.721 102.74 109.049 100.205 110.521 98.6506C110.521 98.5688 110.603 98.487 110.685 98.487C112.73 96.7693 113.875 94.2337 113.875 91.5346C113.875 86.4634 109.703 82.2919 104.631 82.2919C99.5595 82.2919 95.3876 86.4634 95.3876 91.5346C95.3876 94.2337 96.5329 96.7693 98.5779 98.487C100.132 100.041 100.459 102.658 100.541 104.131Z" fill="white"/>
<path d="M104.549 77.466C104.958 77.466 105.204 77.1389 105.204 76.8117V72.313C105.204 71.9859 104.877 71.6587 104.549 71.6587C104.222 71.6587 103.895 71.9859 103.895 72.313V76.8117C103.895 77.1389 104.222 77.466 104.549 77.466Z" fill="white"/>
<path d="M104.549 77.5478C104.14 77.5478 103.731 77.1389 103.731 76.7299V72.2313C103.731 71.8223 104.14 71.4133 104.549 71.4133C104.958 71.4133 105.367 71.8223 105.367 72.2313V76.7299C105.367 77.2207 105.04 77.5478 104.549 77.5478ZM104.549 71.7405C104.304 71.7405 104.059 71.9859 104.059 72.2313V76.7299C104.059 76.9753 104.304 77.2207 104.549 77.2207C104.877 77.2207 105.04 76.9753 105.04 76.7299V72.2313C105.122 71.9859 104.877 71.7405 104.549 71.7405Z" fill="white"/>
<path d="M104.549 77.5478C104.14 77.5478 103.813 77.2207 103.813 76.8117V72.313C103.813 71.9041 104.14 71.5769 104.549 71.5769C104.958 71.5769 105.286 71.9041 105.286 72.313V76.8117C105.367 77.2207 105.04 77.5478 104.549 77.5478ZM104.549 71.7405C104.222 71.7405 103.977 71.9859 103.977 72.313V76.8117C103.977 77.1389 104.222 77.3842 104.549 77.3842C104.877 77.3842 105.122 77.1389 105.122 76.8117V72.313C105.122 71.9859 104.877 71.7405 104.549 71.7405Z" fill="white"/>
<path d="M104.549 77.7119C104.059 77.7119 103.65 77.3029 103.65 76.8122V72.3135C103.65 71.8228 104.059 71.4138 104.549 71.4138C105.04 71.4138 105.449 71.8228 105.449 72.3135V76.8122C105.449 77.3029 105.122 77.7119 104.549 77.7119ZM104.549 71.8228C104.304 71.8228 104.14 72.0682 104.14 72.2318V76.7304C104.14 76.9758 104.386 77.1394 104.549 77.1394C104.795 77.1394 104.958 76.894 104.958 76.7304V72.2318C105.04 72.0682 104.795 71.8228 104.549 71.8228Z" fill="white"/>
<path d="M104.549 77.5478C104.14 77.5478 103.731 77.2207 103.731 76.7299V72.2313C103.731 71.8223 104.059 71.4133 104.549 71.4133C104.958 71.4133 105.367 71.7405 105.367 72.2313V76.7299C105.367 77.2207 105.04 77.5478 104.549 77.5478ZM104.549 71.7405C104.304 71.7405 103.977 71.9859 103.977 72.3131V76.8117C103.977 77.0571 104.222 77.3842 104.549 77.3842C104.877 77.3842 105.122 77.1389 105.122 76.8117V72.3131C105.122 71.9859 104.877 71.7405 104.549 71.7405Z" fill="white"/>
<path d="M104.549 77.7119C104.059 77.7119 103.65 77.3029 103.65 76.8122V72.3135C103.65 71.8228 104.059 71.4138 104.549 71.4138C105.04 71.4138 105.449 71.8228 105.449 72.3135V76.8122C105.531 77.3029 105.122 77.7119 104.549 77.7119ZM104.549 71.9046C104.304 71.9046 104.14 72.0682 104.14 72.3135V76.8122C104.14 77.0576 104.304 77.2211 104.549 77.2211C104.795 77.2211 104.958 76.9758 104.958 76.8122V72.3135C104.958 72.0682 104.795 71.9046 104.549 71.9046Z" fill="white"/>
<path d="M104.549 77.6296C104.059 77.6296 103.65 77.2207 103.65 76.7299V72.2313C103.65 71.7405 104.059 71.3315 104.549 71.3315C105.04 71.3315 105.449 71.7405 105.449 72.2313V76.7299C105.449 77.3025 105.122 77.6296 104.549 77.6296ZM104.549 71.5769C104.222 71.5769 103.895 71.9041 103.895 72.2313V76.7299C103.895 77.0571 104.222 77.3843 104.549 77.3843C104.958 77.3843 105.204 77.0571 105.204 76.7299V72.2313C105.286 71.9041 104.958 71.5769 104.549 71.5769ZM104.549 77.3843C104.222 77.3843 103.895 77.0571 103.895 76.7299V72.2313C103.895 71.9041 104.222 71.5769 104.549 71.5769C104.877 71.5769 105.204 71.9041 105.204 72.2313V76.7299C105.204 77.0571 104.958 77.3843 104.549 77.3843ZM104.549 71.8223C104.304 71.8223 104.14 72.0677 104.14 72.2313V76.7299C104.14 76.9753 104.386 77.1389 104.549 77.1389C104.795 77.1389 104.958 76.8935 104.958 76.7299V72.2313C105.04 72.0677 104.795 71.8223 104.549 71.8223Z" fill="white"/>
<path d="M104.549 77.7932C103.977 77.7932 103.568 77.3025 103.568 76.8117V72.3131C103.568 71.7405 104.059 71.3315 104.549 71.3315C105.122 71.3315 105.531 71.8223 105.531 72.3131V76.8117C105.613 77.3843 105.122 77.7932 104.549 77.7932ZM104.549 71.9859C104.386 71.9859 104.222 72.1495 104.222 72.3131V76.8117C104.222 76.9753 104.386 77.1389 104.549 77.1389C104.713 77.1389 104.877 76.9753 104.877 76.8117V72.3131C104.877 72.1495 104.713 71.9859 104.549 71.9859Z" fill="white"/>
<path d="M115.593 74.9305C115.266 74.6851 114.857 74.8487 114.693 75.0941L112.239 78.8566C111.993 79.1837 112.075 79.5927 112.402 79.7563C112.484 79.8381 112.648 79.8381 112.73 79.8381C112.975 79.8381 113.139 79.7563 113.302 79.5109L115.756 75.7484C116.002 75.5848 115.92 75.1758 115.593 74.9305Z" fill="white"/>
<path d="M112.73 80.0016C112.566 80.0016 112.402 79.9198 112.321 79.838C112.157 79.7563 111.993 79.5109 111.993 79.3473C111.993 79.1019 111.993 78.9383 112.157 78.6929L114.611 74.9304C114.775 74.7669 114.938 74.6033 115.102 74.6033C115.266 74.6033 115.511 74.6033 115.675 74.7669C115.838 74.8486 116.002 75.094 116.002 75.2576C116.002 75.503 116.002 75.6666 115.838 75.8302L113.384 79.5109C113.22 79.9198 112.975 80.0016 112.73 80.0016ZM115.265 74.9304C115.184 74.9304 115.184 74.9304 115.265 74.9304C115.02 74.9304 114.938 75.0122 114.856 75.1758L112.402 78.9383C112.321 79.1019 112.239 79.1837 112.321 79.3473C112.321 79.5109 112.402 79.5927 112.566 79.6745C112.648 79.7563 112.73 79.7563 112.811 79.7563C112.975 79.7563 113.139 79.6745 113.22 79.5109L115.675 75.7484C115.756 75.6666 115.838 75.503 115.756 75.4212C115.756 75.2576 115.675 75.1758 115.511 75.094C115.429 75.0122 115.347 74.9304 115.265 74.9304Z" fill="white"/>
<path d="M112.73 80.0016C112.566 80.0016 112.484 79.9198 112.321 79.838C112.157 79.7562 112.075 79.5927 111.993 79.3473C111.993 79.1019 111.993 78.9383 112.157 78.7747L114.611 75.0122C114.775 74.8486 114.938 74.6851 115.102 74.6851C115.266 74.6851 115.511 74.6851 115.593 74.8486C115.756 74.9304 115.92 75.1758 115.92 75.3394C115.92 75.503 115.92 75.7484 115.756 75.912L113.302 79.6745C113.22 79.838 112.975 80.0016 112.73 80.0016ZM115.266 74.9304C115.184 74.9304 115.184 74.9304 115.266 74.9304C115.02 74.9304 114.938 75.0122 114.856 75.1758L112.402 78.9383C112.321 79.1019 112.239 79.2655 112.321 79.3473C112.321 79.5109 112.402 79.5927 112.566 79.6745C112.648 79.7562 112.73 79.7562 112.893 79.7562C113.057 79.7562 113.22 79.6745 113.384 79.5109L115.838 75.7484C115.92 75.6666 116.002 75.503 115.92 75.3394C115.92 75.1758 115.838 75.094 115.675 75.0122C115.429 74.9304 115.347 74.9304 115.266 74.9304Z" fill="white"/>
<path d="M112.73 80.1657C112.566 80.1657 112.402 80.0839 112.239 80.0021C112.075 79.8385 111.912 79.6749 111.83 79.4296C111.748 79.1842 111.83 78.9388 111.993 78.6934L114.447 75.0127C114.611 74.8491 114.775 74.6856 115.02 74.6038C115.266 74.6038 115.429 74.6038 115.675 74.7673C115.838 74.9309 116.002 75.0945 116.084 75.3399C116.084 75.5853 116.084 75.8307 115.92 75.9942L113.466 79.675C113.302 80.0021 113.057 80.1657 112.73 80.1657ZM115.266 75.0945C115.184 75.0945 115.184 75.0945 115.266 75.0945C115.102 75.0945 115.02 75.1763 114.938 75.2581L112.484 79.0206C112.402 79.1024 112.402 79.266 112.402 79.3478C112.402 79.4296 112.484 79.5114 112.566 79.5932C112.648 79.675 112.73 79.675 112.811 79.675C112.975 79.675 113.057 79.5932 113.139 79.5114L115.593 75.7489C115.675 75.6671 115.675 75.5853 115.675 75.4217C115.675 75.3399 115.593 75.1763 115.511 75.1763C115.347 75.0945 115.266 75.0945 115.266 75.0945Z" fill="white"/>
<path d="M112.73 80.0016C112.566 80.0016 112.484 79.9198 112.321 79.838C112.157 79.7562 111.993 79.5927 111.993 79.3473C111.993 79.1019 111.993 78.9383 112.157 78.7747L114.611 75.0122C114.775 74.8486 114.938 74.6851 115.102 74.6851C115.266 74.6851 115.511 74.6851 115.675 74.8486C115.838 74.9304 116.002 75.1758 116.002 75.3394C116.002 75.503 116.002 75.7484 115.838 75.912L113.384 79.5927C113.22 79.838 112.975 80.0016 112.73 80.0016ZM115.265 74.9304C115.184 74.9304 115.184 74.9304 115.265 74.9304C115.02 74.9304 114.938 75.0122 114.856 75.1758L112.402 78.9383C112.321 79.1019 112.239 79.1837 112.321 79.3473C112.321 79.5109 112.402 79.5927 112.566 79.6745C112.893 79.838 113.139 79.7562 113.302 79.5109L115.756 75.7484C115.838 75.6666 115.92 75.503 115.838 75.3394C115.838 75.1758 115.756 75.094 115.593 75.0122C115.429 75.0122 115.347 74.9304 115.265 74.9304Z" fill="white"/>
<path d="M112.73 80.1652C112.566 80.1652 112.402 80.0834 112.239 80.0016C111.993 79.8381 111.912 79.6745 111.83 79.4291C111.748 79.1837 111.83 78.9383 111.993 78.6929L114.447 75.0122C114.611 74.7669 114.857 74.6851 115.02 74.6033C115.266 74.6033 115.511 74.6033 115.675 74.7669C115.92 74.9304 116.002 75.094 116.084 75.3394C116.084 75.5848 116.084 75.8302 115.92 75.9938L113.466 79.6745C113.302 80.0016 113.057 80.1652 112.73 80.1652ZM115.266 75.094C115.184 75.094 115.184 75.094 115.266 75.094C115.102 75.094 115.02 75.1758 114.938 75.2576L112.484 79.0201C112.402 79.1019 112.402 79.2655 112.402 79.3473C112.402 79.4291 112.484 79.5109 112.566 79.5927C112.648 79.6745 112.811 79.6745 112.893 79.6745C112.975 79.6745 113.057 79.5927 113.139 79.5109L115.593 75.7484C115.675 75.6666 115.675 75.5848 115.675 75.503C115.675 75.4212 115.593 75.3394 115.511 75.2576C115.347 75.094 115.266 75.094 115.266 75.094Z" fill="white"/>
<path d="M112.73 80.0835C112.566 80.0835 112.402 80.0017 112.239 79.9199C112.075 79.7563 111.912 79.5927 111.83 79.3473C111.748 79.1019 111.83 78.8565 111.993 78.693L114.447 74.9305C114.611 74.7669 114.775 74.6033 115.02 74.5215C115.266 74.5215 115.429 74.5215 115.675 74.6851C115.838 74.8487 116.002 75.0123 116.084 75.2576C116.084 75.503 116.084 75.7484 115.92 75.912L113.466 79.5927C113.302 80.0017 113.057 80.0835 112.73 80.0835ZM115.184 74.8487H115.102C114.938 74.8487 114.775 75.0123 114.611 75.094L112.157 78.8565C112.075 79.0201 111.993 79.1837 111.993 79.4291C111.993 79.5927 112.157 79.7563 112.239 79.8381C112.321 79.9199 112.484 79.9199 112.566 79.9199C112.811 79.9199 112.975 79.8381 113.139 79.5927L115.593 75.8302C115.675 75.6666 115.756 75.503 115.756 75.3394C115.756 75.1758 115.593 75.0122 115.429 74.9305C115.511 74.8487 115.347 74.8487 115.184 74.8487ZM112.73 79.8381C112.648 79.8381 112.484 79.8381 112.402 79.7563C112.239 79.6745 112.157 79.5109 112.157 79.3473C112.157 79.1837 112.157 79.0201 112.321 78.8565L114.775 75.094C114.856 74.9305 115.02 74.8487 115.184 74.8487C115.347 74.8487 115.511 74.8487 115.593 74.9305C115.756 75.0122 115.838 75.1758 115.838 75.3394C115.838 75.503 115.838 75.6666 115.675 75.8302L113.22 79.5927C113.139 79.7563 112.975 79.8381 112.811 79.9199C112.811 79.8381 112.811 79.8381 112.73 79.8381ZM115.266 75.0123C115.184 75.0123 115.184 75.0123 115.266 75.0123C115.102 75.0123 115.02 75.094 114.938 75.1758L112.484 78.9383C112.402 79.0201 112.402 79.1837 112.402 79.2655C112.402 79.3473 112.484 79.5109 112.566 79.5109C112.648 79.5927 112.811 79.5927 112.893 79.5927C112.975 79.5927 113.057 79.5109 113.139 79.4291L115.593 75.6666C115.675 75.5848 115.675 75.503 115.675 75.3394C115.675 75.2576 115.593 75.094 115.511 75.094C115.347 75.094 115.347 75.0123 115.266 75.0123Z" fill="white"/>
<path d="M112.73 80.247C112.566 80.247 112.321 80.1652 112.157 80.0834C111.912 79.9199 111.748 79.6745 111.748 79.4291C111.666 79.1837 111.748 78.8565 111.912 78.6112L114.366 74.9305C114.529 74.6851 114.775 74.5215 115.02 74.5215C115.266 74.5215 115.511 74.5215 115.756 74.6851C116.002 74.8487 116.165 75.094 116.165 75.3394C116.247 75.5848 116.165 75.912 115.92 76.0756L113.466 79.7563C113.384 80.0835 113.057 80.247 112.73 80.247ZM115.266 75.1758C115.184 75.1758 115.184 75.1758 115.266 75.1758C115.184 75.1758 115.102 75.2576 115.02 75.3394L112.566 79.1019C112.484 79.1837 112.484 79.2655 112.484 79.3473C112.484 79.4291 112.566 79.5109 112.566 79.5109C112.648 79.5109 112.73 79.5927 112.811 79.5927C112.893 79.5927 112.975 79.5109 112.975 79.4291L115.511 75.6666C115.593 75.5848 115.593 75.503 115.593 75.4212C115.593 75.3394 115.511 75.2576 115.511 75.2576C115.347 75.1758 115.266 75.1758 115.266 75.1758Z" fill="white"/>
<path d="M96.6965 79.7561C96.7783 79.7561 96.9419 79.7561 97.0237 79.6743C97.3509 79.5107 97.4327 79.02 97.1873 78.7746L94.8151 75.0121C94.6515 74.6849 94.1606 74.6031 93.9152 74.8485C93.6698 75.0939 93.5062 75.5028 93.7516 75.7482L96.1239 79.5107C96.2875 79.6743 96.4511 79.7561 96.6965 79.7561Z" fill="white"/>
<path d="M96.6965 79.838C96.3693 79.838 96.2057 79.7562 95.9602 79.429L93.588 75.6665C93.5062 75.503 93.4244 75.2576 93.5062 75.094C93.588 74.8486 93.6698 74.685 93.8334 74.6032C93.997 74.5214 94.2424 74.4396 94.406 74.5214C94.6514 74.6032 94.815 74.685 94.8968 74.8486L97.2691 78.6111C97.5145 79.0201 97.4327 79.5108 97.0237 79.7562C96.9419 79.838 96.8601 79.838 96.6965 79.838ZM94.2424 74.7668C94.1606 74.7668 93.997 74.7668 93.9152 74.8486C93.8334 74.9304 93.7516 75.0122 93.6698 75.1758C93.6698 75.3394 93.6698 75.503 93.7516 75.5847L96.1239 79.3472C96.2057 79.5108 96.3693 79.5926 96.6147 79.5926C96.6965 79.5926 96.7783 79.5926 96.8601 79.5108C97.1055 79.3472 97.1873 79.0201 97.0237 78.7747L94.6514 75.0122C94.5696 74.9304 94.4878 74.8486 94.3242 74.7668C94.3242 74.7668 94.3242 74.7668 94.2424 74.7668Z" fill="white"/>
<path d="M96.6964 79.838C96.3692 79.838 96.2056 79.7562 96.042 79.5108L93.6698 75.7483C93.4244 75.4211 93.5062 74.9304 93.9152 74.685C94.0788 74.6032 94.3242 74.5214 94.4878 74.6032C94.7332 74.685 94.8968 74.7668 94.9786 74.9304L97.3508 78.6929C97.5963 79.0201 97.5145 79.5108 97.1055 79.7562C96.9419 79.7562 96.86 79.838 96.6964 79.838ZM94.2424 74.685C94.1606 74.685 93.997 74.685 93.9152 74.7668C93.6698 74.9304 93.588 75.2576 93.7516 75.5847L96.1238 79.3472C96.2874 79.5108 96.3692 79.5926 96.6146 79.5926C96.6964 79.5926 96.7782 79.5926 96.9418 79.5108C97.1872 79.3472 97.2691 79.0201 97.1055 78.6929L94.7332 74.9304C94.6514 74.7668 94.4878 74.685 94.406 74.685C94.3242 74.685 94.3242 74.685 94.2424 74.685Z" fill="white"/>
<path d="M96.6965 80.0017C96.3693 80.0017 96.1238 79.8381 95.8784 79.5927L93.5061 75.8302C93.2607 75.4212 93.3425 74.8487 93.7516 74.6033C93.9152 74.4397 94.1606 74.4397 94.406 74.4397C94.6514 74.5215 94.8968 74.6033 94.9786 74.8487L97.3509 78.6112C97.5963 79.0201 97.5145 79.5927 97.1055 79.8381C97.0237 79.9199 96.8601 80.0017 96.6965 80.0017ZM94.2424 74.8487C94.1606 74.8487 94.0788 74.8487 93.997 74.9305C93.8334 75.0122 93.7515 75.3394 93.9152 75.503L96.2875 79.2655C96.3693 79.4291 96.4511 79.4291 96.6965 79.4291C96.7783 79.4291 96.8601 79.4291 96.9419 79.3473C97.1055 79.1837 97.1873 78.9383 97.1055 78.7748L94.7332 75.0122C94.6514 74.9305 94.5696 74.8487 94.4878 74.8487C94.3242 74.8487 94.3242 74.8487 94.2424 74.8487Z" fill="white"/>
<path d="M96.6964 79.8381C96.3692 79.8381 96.2056 79.7563 96.042 79.511L93.6698 75.7485C93.588 75.5849 93.5062 75.3395 93.588 75.1759C93.6698 74.9305 93.7516 74.7669 93.9152 74.6851C94.3242 74.4398 94.815 74.5216 94.9786 74.9305L97.3508 78.693C97.4326 78.8566 97.5144 79.102 97.4326 79.2656C97.3508 79.5109 97.269 79.6745 97.1054 79.7563C96.9418 79.8381 96.86 79.8381 96.6964 79.8381ZM94.2424 74.7669C94.1606 74.7669 93.997 74.7669 93.9152 74.8487C93.8334 74.9305 93.7516 75.0123 93.6698 75.1759C93.6698 75.3395 93.6698 75.5031 93.7516 75.5849L96.1238 79.3474C96.2056 79.511 96.3692 79.5927 96.6146 79.5927C96.6964 79.5927 96.7782 79.5927 96.86 79.511C97.0236 79.4292 97.1054 79.3474 97.1054 79.1838C97.1054 79.0202 97.1054 78.8566 97.0236 78.7748L94.6514 75.0123C94.6514 74.8487 94.4878 74.7669 94.2424 74.7669Z" fill="white"/>
<path d="M96.6964 80.0017C96.3692 80.0017 96.1238 79.8382 95.8784 79.5928L93.4244 75.8303C93.2608 75.5849 93.2607 75.3395 93.2607 75.0941C93.3425 74.8488 93.4243 74.6034 93.6698 74.5216C94.0788 74.2762 94.7332 74.358 94.9786 74.767L97.3509 78.5295C97.5145 78.7748 97.5145 79.0202 97.5145 79.2656C97.4327 79.511 97.3509 79.7564 97.1055 79.8382C97.0237 79.9199 96.86 80.0017 96.6964 80.0017ZM94.2424 74.8488C94.1606 74.8488 94.0788 74.8487 93.997 74.9305C93.9152 75.0123 93.8334 75.0941 93.8334 75.1759C93.8334 75.2577 93.8333 75.4213 93.9151 75.5031L96.2874 79.2656C96.3692 79.4292 96.451 79.4292 96.6146 79.4292C96.6964 79.4292 96.7782 79.4292 96.86 79.3474C96.9418 79.2656 97.0236 79.1838 97.0236 79.102C97.0236 79.0202 97.0236 78.8566 96.9418 78.7748L94.5696 75.0123C94.5696 74.9305 94.406 74.8488 94.2424 74.8488Z" fill="white"/>
<path d="M96.6965 79.92C96.3692 79.92 96.1238 79.7564 95.9602 79.511L93.588 75.7485C93.4244 75.5849 93.4244 75.3395 93.4244 75.0941C93.5062 74.8488 93.588 74.6852 93.8334 74.5216C94.2424 74.2762 94.815 74.358 95.0604 74.767L97.4327 78.5295C97.5963 78.6931 97.5963 78.9384 97.5963 79.1838C97.5145 79.4292 97.4326 79.5928 97.1872 79.7564C97.0236 79.92 96.8601 79.92 96.6965 79.92ZM94.2424 74.6034C94.0788 74.6034 93.997 74.6034 93.8334 74.6852C93.6698 74.767 93.588 74.9305 93.5062 75.0941C93.5062 75.2577 93.5062 75.5031 93.588 75.5849L95.9602 79.3474C96.1238 79.5928 96.2874 79.6746 96.5328 79.6746C96.6146 79.6746 96.7782 79.6746 96.86 79.5928C97.0236 79.511 97.1054 79.3474 97.1872 79.1838C97.1872 79.0202 97.1873 78.7748 97.1055 78.693L94.7332 74.9305C94.7332 74.6852 94.4878 74.6034 94.2424 74.6034ZM96.6965 79.7564C96.451 79.7564 96.2874 79.6746 96.1238 79.4292L93.7516 75.6667C93.6698 75.5031 93.588 75.3395 93.6698 75.1759C93.6698 75.0123 93.8334 74.8487 93.9152 74.767C93.997 74.6852 94.1606 74.6852 94.2424 74.6852C94.4878 74.6852 94.6514 74.767 94.815 75.0123L97.1872 78.7748C97.269 78.9384 97.3509 79.102 97.269 79.2656C97.269 79.4292 97.1055 79.5928 97.0237 79.6746C96.9419 79.6746 96.7783 79.7564 96.6965 79.7564ZM94.2424 74.8488C94.1606 74.8488 94.0788 74.8487 93.997 74.9305C93.9152 75.0123 93.8334 75.0941 93.8334 75.1759C93.8334 75.2577 93.8334 75.4213 93.9152 75.5031L96.2874 79.2656C96.3692 79.4292 96.5328 79.511 96.6965 79.511C96.7783 79.511 96.86 79.511 96.9418 79.4292C97.0236 79.3474 97.1055 79.2656 97.1055 79.1838C97.1055 79.102 97.1055 78.9384 97.0237 78.8566L94.6514 75.0941C94.5696 74.9305 94.406 74.8488 94.2424 74.8488Z" fill="white"/>
<path d="M96.6965 80.0834C96.2874 80.0834 96.042 79.9199 95.7966 79.5927L93.3426 75.8302C93.179 75.5848 93.179 75.3394 93.179 75.0941C93.2608 74.8487 93.4244 74.6033 93.588 74.4397C93.8334 74.2761 94.0788 74.2761 94.406 74.2761C94.6514 74.3579 94.8968 74.5215 95.0604 74.6851L97.4327 78.4476C97.5963 78.693 97.5963 78.9383 97.5963 79.1837C97.5145 79.4291 97.3508 79.6745 97.1872 79.8381C97.1054 80.0016 96.8601 80.0834 96.6965 80.0834ZM94.2424 75.0123C94.1606 75.0123 94.0788 75.0123 94.0788 75.0941C93.997 75.0941 93.997 75.1758 93.9152 75.2576C93.9152 75.3394 93.9152 75.4212 93.997 75.503L96.3692 79.2655C96.451 79.3473 96.5328 79.4291 96.6146 79.4291C96.6964 79.4291 96.6964 79.4291 96.7782 79.3473C96.86 79.2655 96.86 79.2655 96.9418 79.1837C96.9418 79.1019 96.9418 79.0201 96.86 78.9383L94.4878 75.1758C94.4878 75.0123 94.406 75.0123 94.2424 75.0123Z" fill="white"/>
<path d="M91.9519 83.8458L88.0254 81.7192C87.6982 81.5556 87.2892 81.7192 87.1256 81.9646C86.962 82.2917 87.0438 82.7007 87.371 82.8643L91.2975 84.9909C91.3793 84.9909 91.4611 85.0727 91.6247 85.0727C91.8701 85.0727 92.1155 84.9909 92.1973 84.7455C92.4427 84.4183 92.2791 84.0094 91.9519 83.8458Z" fill="white"/>
<path d="M91.7065 85.2363C91.6247 85.2363 91.5429 85.2363 91.3793 85.1545H91.2975L87.371 83.0279C87.2074 82.9461 87.0438 82.7825 86.962 82.5372C86.8802 82.2918 86.962 82.1282 87.0438 81.8828C87.2074 81.5556 87.6982 81.392 88.1072 81.5556L92.0337 83.6823C92.1973 83.7641 92.3609 83.9276 92.4427 84.173C92.5245 84.3366 92.5245 84.582 92.3609 84.7456C92.2791 85.0727 91.9519 85.2363 91.7065 85.2363ZM87.78 81.801C87.6164 81.801 87.371 81.8828 87.2892 82.0464C87.2074 82.21 87.2074 82.2918 87.2074 82.4554C87.2892 82.619 87.371 82.7007 87.4528 82.7825L91.4611 84.9092C91.5429 84.9092 91.6247 84.991 91.6247 84.991C91.7883 84.991 92.0337 84.9092 92.1155 84.7456C92.1973 84.6638 92.1973 84.5002 92.1155 84.3366C92.1155 84.173 91.9519 84.0912 91.8701 84.0094L87.9436 81.8828C87.9436 81.801 87.8618 81.801 87.78 81.801Z" fill="white"/>
<path d="M91.7065 85.2364C91.6247 85.2364 91.5429 85.2364 91.4611 85.1546H91.3793L87.4528 83.028C87.2892 82.9462 87.1256 82.7826 87.0438 82.619C86.962 82.4554 87.0438 82.21 87.1256 82.0464C87.2074 81.8828 87.371 81.7193 87.5346 81.7193C87.6982 81.6375 87.9436 81.6375 88.1072 81.8011L92.0337 83.9277C92.1973 84.0095 92.3609 84.1731 92.3609 84.4184C92.4427 84.582 92.4427 84.8274 92.2791 84.991C92.1973 85.0728 91.9519 85.2364 91.7065 85.2364ZM87.78 81.7193C87.6982 81.7193 87.6982 81.7193 87.6164 81.7193C87.4528 81.801 87.371 81.8828 87.2892 81.9646C87.2074 82.1282 87.2074 82.2918 87.2074 82.3736C87.2892 82.5372 87.371 82.619 87.4528 82.7008L91.3793 84.8274H91.4611C91.5429 84.8274 91.6247 84.9092 91.7065 84.9092C91.9519 84.9092 92.1155 84.8274 92.1973 84.582C92.2791 84.4184 92.2791 84.3366 92.1973 84.1731C92.1155 84.0095 92.0337 83.9277 91.9519 83.8459L88.0254 81.7193C87.9436 81.801 87.8618 81.7193 87.78 81.7193Z" fill="white"/>
<path d="M91.7065 85.3182C91.5429 85.3182 91.4611 85.3182 91.3793 85.2364H91.2975L87.371 83.1098C87.1256 83.028 86.962 82.8644 86.8802 82.619C86.7984 82.3736 86.8802 82.1282 86.962 81.8829C87.0438 81.7193 87.2074 81.5557 87.4528 81.4739C87.6982 81.3921 87.9436 81.3921 88.1072 81.5557L92.0337 83.6823C92.1973 83.7641 92.3609 84.0095 92.4427 84.2549C92.5245 84.5003 92.5245 84.7456 92.3609 84.9092C92.3609 85.1546 92.0337 85.3182 91.7065 85.3182ZM87.78 81.8829C87.6982 81.8829 87.6982 81.8829 87.6164 81.8829C87.5346 81.8829 87.4528 81.9647 87.371 82.0465C87.2892 82.1282 87.2892 82.2918 87.2892 82.3736C87.2892 82.4554 87.371 82.5372 87.5346 82.619L91.5429 84.7456C91.6247 84.7456 91.6247 84.8274 91.7065 84.8274C91.8701 84.8274 92.0337 84.7456 92.1155 84.582C92.1973 84.5002 92.1973 84.3367 92.1155 84.2549C92.1155 84.1731 92.0337 84.0913 91.9519 84.0095L87.9436 81.9647C87.8618 81.8829 87.8618 81.8829 87.78 81.8829Z" fill="white"/>
<path d="M91.7065 85.2363C91.6247 85.2363 91.5429 85.2363 91.4611 85.1545H91.3793L87.4528 83.0279C87.2892 82.9461 87.1256 82.7825 87.0438 82.5371C86.962 82.2918 87.0438 82.1282 87.1256 81.9646C87.2892 81.6374 87.78 81.4738 88.189 81.6374L92.1155 83.764C92.4427 83.9276 92.6063 84.4184 92.4427 84.8274C92.2791 85.0727 91.9519 85.2363 91.7065 85.2363ZM87.78 81.801C87.6164 81.801 87.371 81.8828 87.2892 82.0464C87.2074 82.21 87.2074 82.2918 87.2074 82.4554C87.2892 82.6189 87.371 82.7007 87.4528 82.7825L91.4611 84.9092C91.5429 84.9092 91.6247 84.9909 91.6247 84.9909C91.8701 84.9909 92.0337 84.9091 92.1155 84.7456C92.2791 84.5002 92.1155 84.173 91.8701 84.0094L87.9436 81.8828C87.9436 81.801 87.8618 81.801 87.78 81.801Z" fill="white"/>
<path d="M91.7065 85.3182C91.5429 85.3182 91.4611 85.3182 91.3793 85.2364H91.2975L87.371 83.1098C87.1256 83.028 86.962 82.7826 86.8802 82.5372C86.7984 82.2918 86.8802 82.0465 86.962 81.8011C87.0438 81.6375 87.2074 81.4739 87.4528 81.3921C87.6982 81.3103 87.9436 81.3103 88.189 81.4739L92.1155 83.6005C92.5246 83.8459 92.6882 84.4185 92.5246 84.8274C92.361 85.1546 92.0337 85.3182 91.7065 85.3182ZM87.78 81.8829C87.6164 81.8829 87.4528 81.9647 87.4528 82.0465C87.371 82.1283 87.371 82.2918 87.371 82.3736C87.371 82.4554 87.4528 82.5372 87.5346 82.619L91.5429 84.7456C91.6247 84.7456 91.6247 84.7456 91.7065 84.7456C91.8701 84.7456 92.0337 84.6638 92.0337 84.5003C92.1155 84.3367 92.0337 84.0095 91.8701 83.9277L87.9436 81.9647C87.8618 81.8829 87.8618 81.8829 87.78 81.8829Z" fill="white"/>
<path d="M91.7065 85.3182C91.5429 85.3182 91.4611 85.3182 91.3793 85.2364H91.2975L87.371 83.1097C87.1256 83.028 86.962 82.8644 86.962 82.619C86.8802 82.3736 86.962 82.1282 87.0438 81.9646C87.1256 81.8011 87.2892 81.6375 87.5346 81.5557C87.78 81.4739 88.0254 81.4739 88.2708 81.6375L92.1973 83.7641C92.6063 84.0095 92.7699 84.5002 92.5245 84.991C92.2791 85.1546 92.0337 85.3182 91.7065 85.3182ZM87.78 81.6375C87.6982 81.6375 87.6164 81.6375 87.5346 81.6375C87.371 81.7193 87.2074 81.8011 87.2074 81.9646C87.1256 82.1282 87.0438 82.2918 87.1256 82.5372C87.2074 82.7008 87.2892 82.8644 87.4528 82.9462L91.3793 85.0728H91.4611C91.5429 85.0728 91.6247 85.1546 91.7065 85.1546C91.9519 85.1546 92.1973 84.991 92.2791 84.8274C92.4427 84.5002 92.2791 84.0913 92.0337 83.9277L88.1072 81.8011C87.9436 81.6375 87.8618 81.6375 87.78 81.6375ZM91.7065 85.0728C91.6247 85.0728 91.5429 85.0728 91.4611 84.991L87.4528 82.8644C87.2892 82.7826 87.2074 82.7008 87.1256 82.5372C87.0438 82.3736 87.1256 82.21 87.2074 82.0464C87.2892 81.8829 87.5346 81.7193 87.78 81.7193C87.8618 81.7193 87.9436 81.7193 88.1072 81.8011L92.0337 83.9277C92.3609 84.0913 92.4427 84.5002 92.2791 84.8274C92.1155 84.991 91.9519 85.0728 91.7065 85.0728ZM87.78 81.8828C87.6164 81.8828 87.4528 81.9646 87.371 82.1282C87.2892 82.21 87.2892 82.3736 87.2892 82.4554C87.2892 82.5372 87.371 82.619 87.5346 82.7008L91.5429 84.8274C91.6247 84.8274 91.6247 84.8274 91.7065 84.8274C91.8701 84.8274 92.0337 84.7456 92.1155 84.582C92.1973 84.3367 92.1155 84.0913 91.9519 84.0095L88.0254 81.8828C87.8618 81.8828 87.8618 81.8828 87.78 81.8828Z" fill="white"/>
<path d="M91.7066 85.4818C91.543 85.4818 91.4612 85.4818 91.3794 85.4H91.2976L87.2892 83.2734C87.0438 83.1916 86.8802 82.9462 86.7984 82.7008C86.7166 82.4554 86.7166 82.1282 86.8802 81.8829C86.962 81.7193 87.2074 81.4739 87.4528 81.3921C87.6982 81.3103 88.0254 81.3103 88.2709 81.4739L92.1974 83.6005C92.6882 83.8459 92.8518 84.5003 92.6064 84.991C92.4428 85.2364 92.0338 85.4818 91.7066 85.4818ZM87.78 82.0465C87.6982 82.0465 87.5346 82.1282 87.5346 82.21C87.4528 82.2918 87.4528 82.3736 87.4528 82.4554C87.4528 82.5372 87.5346 82.619 87.6164 82.619L91.6248 84.7456H91.7066C91.7884 84.7456 91.952 84.6638 91.952 84.582C92.0338 84.4185 91.952 84.2549 91.8702 84.1731L87.9436 82.0465C87.8618 82.0465 87.78 82.0465 87.78 82.0465Z" fill="white"/>
<path d="M122.055 81.9646C121.891 81.6375 121.482 81.5557 121.155 81.7192L117.229 83.8459C116.902 84.0095 116.82 84.4184 116.983 84.7456C117.065 84.991 117.311 85.0728 117.556 85.0728C117.638 85.0728 117.801 85.0728 117.883 84.991L121.81 82.8644C122.055 82.7008 122.219 82.2918 122.055 81.9646Z" fill="white"/>
<path d="M117.474 85.2363C117.147 85.2363 116.902 85.0727 116.738 84.8274C116.656 84.6638 116.656 84.4184 116.656 84.2548C116.738 84.0094 116.82 83.8458 117.065 83.764L120.992 81.6374C121.401 81.4738 121.891 81.6374 122.055 81.9646C122.219 82.3736 122.055 82.8643 121.728 83.0279L117.801 85.1545C117.801 85.1545 117.638 85.2363 117.474 85.2363ZM121.482 81.801C121.401 81.801 121.319 81.801 121.237 81.8828L117.311 84.0094C117.229 84.0912 117.147 84.173 117.065 84.3366C117.065 84.5002 117.065 84.582 117.065 84.7456C117.147 84.9091 117.311 84.9909 117.556 84.9909C117.638 84.9909 117.801 84.9092 117.801 84.9092L121.728 82.7825C121.973 82.7007 122.055 82.2918 121.973 82.0464C121.81 81.8828 121.646 81.801 121.482 81.801Z" fill="white"/>
<path d="M117.474 85.2364C117.147 85.2364 116.902 85.0728 116.82 84.8274C116.738 84.6638 116.738 84.4184 116.738 84.2549C116.82 84.0913 116.902 83.9277 117.065 83.7641L120.992 81.6375C121.155 81.5557 121.401 81.5557 121.564 81.5557C121.728 81.6375 121.892 81.7192 122.055 81.8828C122.137 82.0464 122.137 82.2918 122.137 82.4554C122.055 82.619 121.973 82.7826 121.81 82.9462L117.883 85.0728C117.801 85.1546 117.638 85.2364 117.474 85.2364ZM121.482 81.7192C121.401 81.7192 121.319 81.7193 121.237 81.801L117.311 83.9277C117.147 84.0095 117.065 84.0913 117.065 84.2549C116.983 84.4184 117.065 84.582 117.065 84.6638C117.147 84.8274 117.311 84.991 117.556 84.991C117.638 84.991 117.801 84.9092 117.801 84.9092L121.728 82.7826C121.891 82.7008 121.973 82.619 121.973 82.4554C122.055 82.2918 121.973 82.1282 121.973 82.0464C121.892 81.9646 121.81 81.801 121.646 81.801C121.564 81.801 121.482 81.7192 121.482 81.7192Z" fill="white"/>
<path d="M117.474 85.3181C117.147 85.3181 116.82 85.1545 116.656 84.8274C116.574 84.6638 116.574 84.3366 116.574 84.173C116.656 83.9276 116.82 83.764 116.983 83.6005L120.91 81.4738C121.155 81.392 121.401 81.3102 121.564 81.392C121.81 81.4738 121.973 81.6374 122.137 81.801C122.219 81.9646 122.219 82.2918 122.219 82.4554C122.137 82.7007 121.973 82.8643 121.81 83.0279L117.883 85.1545C117.801 85.2363 117.72 85.3181 117.474 85.3181ZM121.483 81.8828C121.401 81.8828 121.319 81.8828 121.319 81.9646L117.392 84.0912C117.311 84.173 117.229 84.2548 117.229 84.3366C117.229 84.4184 117.229 84.582 117.229 84.6638C117.311 84.8274 117.474 84.9092 117.638 84.9092C117.72 84.9092 117.801 84.8274 117.801 84.8274L121.728 82.7007C121.81 82.6189 121.892 82.5371 121.892 82.4554C121.892 82.3736 121.892 82.21 121.892 82.1282C121.81 82.0464 121.728 81.9646 121.646 81.9646C121.564 81.8828 121.483 81.8828 121.483 81.8828Z" fill="white"/>
<path d="M117.474 85.2363C117.147 85.2363 116.902 85.0727 116.82 84.8274C116.656 84.4184 116.82 83.9276 117.147 83.764L121.073 81.6374C121.483 81.4738 121.973 81.6374 122.137 81.9646C122.219 82.1282 122.219 82.3736 122.219 82.5371C122.137 82.7825 122.055 82.9461 121.81 83.0279L117.883 85.1545C117.801 85.1545 117.638 85.2363 117.474 85.2363ZM121.483 81.801C121.401 81.801 121.319 81.801 121.237 81.8828L117.311 84.0094C117.065 84.173 116.983 84.5002 117.065 84.7456C117.147 84.9091 117.311 84.9909 117.556 84.9909C117.638 84.9909 117.801 84.9092 117.801 84.9092L121.728 82.7825C121.81 82.7007 121.973 82.6189 121.973 82.4554C122.055 82.2918 121.973 82.1282 121.973 82.0464C121.892 81.8828 121.646 81.801 121.483 81.801Z" fill="white"/>
<path d="M117.474 85.3181C117.147 85.3181 116.82 85.1545 116.656 84.8274C116.411 84.4184 116.574 83.764 117.065 83.6005L120.992 81.4738C121.237 81.392 121.483 81.3102 121.728 81.392C121.973 81.4738 122.137 81.6374 122.219 81.801C122.301 82.0464 122.382 82.2918 122.301 82.4554C122.219 82.7007 122.055 82.8643 121.892 83.0279L117.965 85.1545C117.883 85.3181 117.72 85.3181 117.474 85.3181ZM121.483 81.8828C121.401 81.8828 121.319 81.8828 121.319 81.9646L117.392 84.0912C117.229 84.173 117.147 84.4184 117.229 84.6638C117.311 84.8274 117.392 84.9092 117.556 84.9092C117.638 84.9092 117.72 84.8274 117.72 84.8274L121.646 82.7007C121.728 82.6189 121.81 82.5371 121.81 82.4554C121.81 82.3736 121.81 82.21 121.81 82.1282C121.728 81.9646 121.646 81.8828 121.483 81.8828Z" fill="white"/>
<path d="M117.474 85.3181C117.147 85.3181 116.82 85.1545 116.656 84.8274C116.411 84.4184 116.656 83.8458 117.065 83.6005L120.992 81.4738C121.237 81.392 121.482 81.3102 121.728 81.392C121.973 81.4738 122.137 81.6374 122.219 81.801C122.301 81.9646 122.301 82.21 122.301 82.4554C122.219 82.7007 122.055 82.8643 121.891 82.9461L117.965 85.0727C117.801 85.2363 117.638 85.3181 117.474 85.3181ZM121.482 81.6374C121.401 81.6374 121.237 81.6374 121.155 81.7192L117.229 83.8458C116.902 84.0094 116.82 84.4184 116.983 84.7456C117.065 84.9909 117.311 85.0727 117.556 85.0727C117.72 85.0727 117.801 84.9909 117.883 84.9909L121.81 82.8643C121.973 82.7825 122.055 82.6189 122.137 82.4554C122.219 82.2918 122.137 82.1282 122.137 81.9646C122.055 81.801 121.891 81.7192 121.728 81.6374C121.646 81.6374 121.564 81.6374 121.482 81.6374ZM117.474 85.0727C117.229 85.0727 116.983 84.9091 116.902 84.7456C116.738 84.4184 116.902 84.0094 117.147 83.8458L121.073 81.7192C121.155 81.6374 121.237 81.6374 121.401 81.6374C121.646 81.6374 121.891 81.801 121.973 81.9646C122.055 82.1282 122.055 82.2918 121.973 82.4554C121.891 82.6189 121.81 82.7825 121.646 82.8643L117.72 84.9909C117.801 84.9909 117.638 85.0727 117.474 85.0727ZM121.482 81.8828C121.401 81.8828 121.319 81.8828 121.319 81.9646L117.392 84.0912C117.229 84.173 117.147 84.5002 117.229 84.6638C117.311 84.8274 117.474 84.9092 117.638 84.9092C117.72 84.9092 117.801 84.8274 117.883 84.8274L121.81 82.7007C121.891 82.6189 121.973 82.5371 121.973 82.4554C121.973 82.3736 121.973 82.21 121.973 82.1282C121.81 81.9646 121.646 81.8828 121.482 81.8828Z" fill="white"/>
<path d="M117.474 85.4818C117.065 85.4818 116.738 85.2364 116.574 84.9092C116.329 84.4185 116.493 83.7641 116.983 83.5187L120.91 81.3921C121.155 81.2285 121.483 81.2285 121.728 81.3103C121.973 81.3921 122.219 81.5557 122.301 81.8011C122.382 82.0465 122.464 82.2918 122.382 82.5372C122.301 82.7826 122.137 83.028 121.892 83.1098L117.965 85.2364C117.883 85.4 117.72 85.4818 117.474 85.4818ZM121.483 82.0465C121.401 82.0465 121.401 82.0465 121.319 82.0465L117.392 84.1731C117.229 84.2549 117.229 84.4185 117.311 84.582C117.392 84.6638 117.474 84.7456 117.556 84.7456C117.638 84.7456 117.72 84.7456 117.72 84.7456L121.646 82.619C121.728 82.619 121.728 82.5372 121.81 82.4554C121.81 82.3736 121.81 82.2918 121.81 82.21C121.646 82.0465 121.564 82.0465 121.483 82.0465Z" fill="white"/>
<path d="M109.948 109.938H99.2323C98.8233 109.938 98.4961 109.611 98.4961 109.202C98.4961 108.793 98.8233 108.466 99.2323 108.466H109.948C110.357 108.466 110.685 108.793 110.685 109.202C110.685 109.611 110.357 109.938 109.948 109.938Z" fill="white"/>
<path d="M109.948 110.02H99.2323C98.7415 110.02 98.4143 109.611 98.4143 109.202C98.4143 108.711 98.8233 108.384 99.2323 108.384H109.948C110.439 108.384 110.766 108.793 110.766 109.202C110.848 109.693 110.439 110.02 109.948 110.02ZM99.2323 108.629C98.9051 108.629 98.6597 108.875 98.6597 109.202C98.6597 109.529 98.9051 109.774 99.2323 109.774H109.948C110.276 109.774 110.521 109.529 110.521 109.202C110.521 108.875 110.276 108.629 109.948 108.629H99.2323Z" fill="white"/>
<path d="M109.948 110.02H99.2323C98.7415 110.02 98.4143 109.693 98.4143 109.202C98.4143 108.711 98.7415 108.384 99.2323 108.384H109.948C110.439 108.384 110.766 108.711 110.766 109.202C110.766 109.611 110.439 110.02 109.948 110.02ZM99.2323 108.547C98.9051 108.547 98.5779 108.793 98.5779 109.202C98.5779 109.611 98.8233 109.856 99.2323 109.856H109.948C110.276 109.856 110.603 109.611 110.603 109.202C110.603 108.793 110.357 108.547 109.948 108.547H99.2323Z" fill="white"/>
<path d="M109.948 110.183H99.2323C98.7415 110.183 98.2507 109.774 98.2507 109.202C98.2507 108.711 98.6597 108.22 99.2323 108.22H109.948C110.439 108.22 110.93 108.629 110.93 109.202C110.93 109.693 110.521 110.183 109.948 110.183ZM99.2323 108.711C98.9869 108.711 98.7415 108.956 98.7415 109.202C98.7415 109.447 98.9869 109.693 99.2323 109.693H109.948C110.194 109.693 110.439 109.447 110.439 109.202C110.439 108.956 110.194 108.711 109.948 108.711H99.2323Z" fill="white"/>
<path d="M109.948 113.373H99.2323C98.8233 113.373 98.4961 113.046 98.4961 112.637C98.4961 112.228 98.8233 111.901 99.2323 111.901H109.948C110.357 111.901 110.685 112.228 110.685 112.637C110.685 113.128 110.357 113.373 109.948 113.373Z" fill="white"/>
<path d="M109.948 113.537H99.2323C98.7415 113.537 98.4143 113.128 98.4143 112.719C98.4143 112.228 98.8233 111.901 99.2323 111.901H109.948C110.439 111.901 110.766 112.31 110.766 112.719C110.766 113.128 110.439 113.537 109.948 113.537ZM99.2323 112.146C98.9051 112.146 98.6597 112.392 98.6597 112.719C98.6597 113.046 98.9051 113.292 99.2323 113.292H109.948C110.276 113.292 110.521 113.046 110.521 112.719C110.521 112.392 110.276 112.146 109.948 112.146H99.2323Z" fill="white"/>
<path d="M109.948 113.537H99.2323C98.7415 113.537 98.4143 113.21 98.4143 112.719C98.4143 112.228 98.7415 111.901 99.2323 111.901H109.948C110.439 111.901 110.766 112.228 110.766 112.719C110.766 113.128 110.357 113.537 109.948 113.537ZM99.2323 112.065C98.9051 112.065 98.5779 112.31 98.5779 112.719C98.5779 113.128 98.8233 113.373 99.2323 113.373H109.948C110.276 113.373 110.603 113.128 110.603 112.719C110.603 112.31 110.357 112.065 109.948 112.065H99.2323Z" fill="white"/>
<path d="M109.948 113.619H99.2323C98.7415 113.619 98.2507 113.21 98.2507 112.637C98.2507 112.065 98.6597 111.656 99.2323 111.656H109.948C110.439 111.656 110.93 112.065 110.93 112.637C110.93 113.21 110.439 113.619 109.948 113.619ZM99.2323 112.228C98.9869 112.228 98.7415 112.474 98.7415 112.719C98.7415 112.964 98.9869 113.21 99.2323 113.21H109.948C110.194 113.21 110.439 112.964 110.439 112.719C110.439 112.474 110.194 112.228 109.948 112.228H99.2323Z" fill="white"/>
<path d="M44.0159 50.3923H30.1095H25.6104C25.6104 50.3923 11.8676 50.3923 11.704 50.3923C11.3768 50.4741 10.8042 50.3105 10.7224 51.1285C10.7224 56.2815 10.886 69.532 10.886 72.6402C10.886 72.9673 10.9678 73.2127 11.704 73.2127C12.4402 73.1309 43.9341 73.2127 43.9341 73.2127C44.3431 73.2127 44.7521 72.8855 44.7521 72.3948V64.0518V59.5532V51.2103C44.7521 50.7195 44.4249 50.3923 44.0159 50.3923ZM30.5185 51.2103H42.9525L30.5185 58.8171V51.2103ZM25.2014 51.2103V58.8171L12.7675 51.2103H25.2014ZM11.704 51.5374L24.138 59.1442H11.704V51.5374ZM11.704 64.4608H24.138L11.704 72.0676V64.4608ZM25.2014 72.3948H12.7675L25.2014 64.788V72.3948ZM30.5185 72.3948V64.788L42.9525 72.3948H30.5185ZM43.9341 72.0676L31.5002 64.4608H43.9341V72.0676ZM43.9341 63.6429H30.0277H29.9459C29.9459 63.6429 29.9459 63.6429 29.8641 63.6429C29.8641 63.6429 29.7823 63.6429 29.7823 63.7247L29.7005 63.8065V63.8883V63.9701V72.313H26.0194V63.9701V63.8883V63.8065L25.9376 63.7247C25.9376 63.7247 25.8558 63.7247 25.8558 63.6429C25.8558 63.6429 25.8558 63.6429 25.774 63.6429H25.6922H11.7858V59.9622H25.6922C25.774 59.9622 25.8558 59.9622 25.8558 59.8804C25.8558 59.8804 25.8558 59.8804 25.9376 59.8804L26.0194 59.7986V59.7168V59.635V51.2921H29.7005V59.635V59.7168V59.7986L29.7823 59.8804C29.8641 59.8804 29.8641 59.9622 29.9459 59.9622H43.8523V63.6429H43.9341ZM43.9341 59.1442H31.5002L43.9341 51.5374V59.1442Z" fill="white"/>
<path d="M11.7858 73.4581C11.295 73.4581 10.6406 73.3763 10.6406 72.6402C10.6406 71.4133 10.6406 68.5505 10.5588 65.2788C10.5588 60.3712 10.477 54.2367 10.477 51.1285C10.5588 50.147 11.2132 50.147 11.5404 50.0652C11.6222 50.0652 11.6222 50.0652 11.704 50.0652C11.9494 50.0652 24.2198 50.0652 25.6104 50.0652H44.0159C44.5885 50.0652 45.0793 50.5559 45.0793 51.1285V72.3948C45.0793 72.9674 44.5885 73.4581 44.0159 73.4581C33.1362 73.4581 12.3584 73.4581 11.7858 73.4581ZM20.5387 72.8856C29.7823 72.8856 43.1161 72.8856 43.9341 72.8856C44.2613 72.8856 44.4249 72.6402 44.4249 72.3948V51.1285C44.4249 50.8013 44.1795 50.6377 43.9341 50.6377H25.5286C20.8659 50.6377 12.0312 50.6377 11.704 50.6377C11.6222 50.6377 11.6222 50.6377 11.5404 50.6377C11.2132 50.6377 11.0496 50.6377 10.9678 51.1285C10.9678 54.2367 11.0496 60.2894 11.0496 65.197C11.0496 68.4687 11.1314 71.3315 11.1314 72.5584C11.1314 72.722 11.1314 72.8856 11.704 72.8856C12.113 72.8856 15.7941 72.8856 20.5387 72.8856ZM44.2613 72.722L43.7705 72.313L30.6003 64.2155H44.2613V72.722ZM32.4818 64.7062L43.6887 71.5769V64.7062H32.4818ZM43.9341 72.6402H30.2731V64.2155L43.9341 72.6402ZM30.7639 72.1494H41.9708L30.7639 65.2788V72.1494ZM25.4468 72.6402H11.7858L25.4468 64.2155V72.6402ZM13.7491 72.1494H24.956V65.2788L13.7491 72.1494ZM29.9459 72.6402H25.774V64.0519C25.774 64.0519 25.774 64.0519 25.774 63.9701C25.774 63.9701 25.774 63.9701 25.6922 63.9701H25.6104H11.4586V59.7168H25.6104C25.6104 59.7168 25.6104 59.7168 25.6922 59.7168C25.6922 59.7168 25.6922 59.7168 25.774 59.635V50.8831H30.0277V59.4714C30.0277 59.4714 30.0277 59.4714 30.0277 59.5532V59.635H44.1795V63.8883H30.0277C30.0277 63.8883 30.0277 63.8883 29.9459 63.8883C29.9459 63.8883 29.9459 63.8883 29.8641 63.8883V63.9701V72.6402H29.9459ZM26.2648 72.1494H29.3733V63.9701V63.8883C29.3733 63.8883 29.3733 63.8065 29.4551 63.7247V63.6429C29.4551 63.6429 29.4551 63.5611 29.5369 63.5611C29.5369 63.4793 29.6187 63.4793 29.6187 63.4793C29.6187 63.4793 29.6187 63.4793 29.7005 63.4793C29.7823 63.4793 29.7823 63.3975 29.8641 63.3975H29.9459H30.0277H43.6069V60.2894H30.0277C29.9459 60.2894 29.8641 60.2894 29.7005 60.2076C29.7005 60.2076 29.6187 60.2076 29.6187 60.1258C29.5369 60.1258 29.5369 60.044 29.4551 59.9622C29.4551 59.9622 29.4551 59.9622 29.3733 59.8804V59.7986C29.3733 59.7168 29.3733 59.7168 29.2915 59.7168V59.635V59.5532V51.4557H26.183V59.635V59.7168V59.7986V59.8804V59.9622C26.1012 60.044 26.1012 60.044 26.0194 60.1258C26.0194 60.1258 25.9376 60.1258 25.9376 60.2076C25.8558 60.2894 25.774 60.2894 25.6104 60.2894H12.0313V63.3975H25.6104C25.6922 63.3975 25.6922 63.3975 25.6922 63.3975H25.774C25.8558 63.3975 25.8558 63.4793 25.9376 63.4793C25.9376 63.4793 25.9376 63.4793 26.0194 63.4793C26.1012 63.4793 26.1012 63.5611 26.1012 63.5611C26.1012 63.5611 26.1012 63.5611 26.183 63.6429V63.7247C26.183 63.8065 26.183 63.8065 26.2648 63.8065V63.8883V63.9701V72.1494ZM25.6922 63.8883C25.6922 63.8883 25.6922 63.9701 25.6922 63.8883V63.8883ZM11.4586 72.5584V64.1337H25.1196L11.4586 72.5584ZM12.0313 64.7062V71.5769L23.2381 64.7062H12.0313ZM44.2613 59.3896H30.6003L44.2613 50.9649V59.3896ZM32.5636 58.8989H43.7705V52.0282L32.5636 58.8989ZM25.1196 59.3896H11.4586V50.9649L25.1196 59.3896ZM12.0313 58.8989H23.2381L12.0313 52.0282V58.8989ZM30.2731 59.3079V50.8831H43.9341L30.2731 59.3079ZM30.7639 51.4557V58.3263L41.9708 51.4557H30.7639ZM25.4468 59.3079L11.7858 50.8831H25.4468V59.3079ZM13.7491 51.4557L24.956 58.3263V51.4557H13.7491Z" fill="white"/>
<path d="M80.2543 96.1149C80.2543 95.8695 80.0088 95.7059 79.7634 95.6241C75.2643 94.6426 71.3378 92.925 67.9021 91.2073C66.0207 90.2258 63.9756 89.1625 61.6033 88.3445C54.4048 85.6453 42.2162 85.4818 33.8724 86.4633C25.1196 87.4448 16.694 93.0885 15.7123 93.7429C14.4853 93.9883 3.85101 96.1967 0.333513 97.26C-2.93857 98.2415 -5.22903 102.004 -5.14723 104.376V110.429C-5.14723 111.165 -4.49282 111.819 -3.7566 111.819H5.56886C6.55049 114.518 9.16815 116.481 12.1948 116.481C15.2215 116.481 17.8392 114.518 18.8208 111.819H55.3864C56.368 114.518 58.9857 116.481 62.0124 116.481C65.039 116.481 67.6567 114.518 68.6383 111.819H69.3745C76.0005 111.574 80.0088 107.075 80.1724 102.658L80.2543 96.1149ZM19.2298 108.22C18.6572 104.703 15.7123 102.168 12.1948 102.168C8.26833 102.168 5.48706 105.439 5.15985 108.22C4.99625 109.938 5.15985 110.756 5.15985 110.756L-2.61136 110.838C-3.67479 110.756 -4.16561 109.938 -4.16561 109.038V108.139C-4.16561 108.139 -4.16561 106.584 -4.16561 105.848V104.294C-4.16561 102.822 -2.77496 100.614 -1.22072 99.2231C-0.72991 98.8141 -0.157292 98.4051 0.66073 98.1597C4.34183 97.0146 15.9577 94.6426 16.0395 94.6426C16.1213 94.6426 16.2031 94.6426 16.2031 94.5608C16.2849 94.479 25.2014 88.4263 34.036 87.363C42.2162 86.3815 54.1594 86.5451 61.2761 89.1625C63.6484 90.0622 65.6117 91.0437 67.4931 92.0252C70.6834 93.6611 72.074 94.7244 78.6182 96.5239C78.9454 96.6057 79.2726 96.851 79.2726 97.26C79.2726 99.0595 79.2726 102.822 79.2726 102.904C78.5364 107.975 73.0557 111.492 69.0473 110.429C69.2928 109.938 69.2928 109.12 69.211 108.139C68.7201 104.703 65.7753 102.086 62.176 102.086C58.5767 102.086 55.6318 104.703 55.141 108.139C54.9774 109.12 54.9774 109.938 55.2228 110.674H19.148C19.0662 110.756 19.4752 110.102 19.2298 108.22ZM8.92274 114.518C8.10472 114.028 7.3685 113.373 6.87769 112.474C4.42362 107.811 7.69571 103.067 12.1948 103.067C15.5487 103.067 18.33 105.848 18.33 109.202C18.33 113.701 13.5855 117.054 8.92274 114.518ZM58.8221 114.518C58.0041 114.028 57.2678 113.373 56.777 112.474C54.323 107.811 57.6768 103.067 62.0942 103.067C65.4481 103.067 68.2293 105.848 68.2293 109.202C68.2293 113.701 63.4848 117.054 58.8221 114.518Z" fill="white"/>
<path d="M62.0942 116.809C59.0675 116.809 56.2862 114.927 55.141 112.146H19.0662C17.921 114.927 15.1397 116.809 12.113 116.809C9.08637 116.809 6.30511 114.927 5.15988 112.146H-3.92017C-4.9018 112.146 -5.71982 111.329 -5.71982 110.347V104.294C-5.80162 101.677 -3.34755 97.8326 0.00633669 96.8511C3.60563 95.706 14.2399 93.5793 15.3851 93.334C16.6122 92.516 25.0378 87.0359 33.7088 86.0543C42.0527 85.0728 54.323 85.2364 61.6034 87.9356C64.0574 88.8353 66.0207 89.8986 67.9839 90.8802C72.0741 93.0068 75.9188 94.4791 79.6816 95.297C80.1725 95.3788 80.4997 95.7878 80.4997 96.1967L80.5815 102.658C80.4997 105.03 79.4363 107.321 77.473 109.12C76.0006 110.511 73.3829 112.146 69.3746 112.228H68.9656C67.9021 114.927 65.1209 116.809 62.0942 116.809ZM18.5754 111.329H55.7136L55.7954 111.574C56.7771 114.191 59.3129 115.991 62.0942 115.991C64.8755 115.991 67.4113 114.191 68.393 111.574L68.4748 111.329H69.4564C74.4463 111.165 79.6817 107.893 79.8453 102.577L79.7635 96.1149C79.7635 96.1149 79.6816 96.0332 79.5998 96.0332C75.7551 95.2152 71.8287 93.7429 67.6567 91.5345C65.7753 90.553 63.812 89.5715 61.4398 88.6717C54.2412 86.0543 42.1345 85.8908 33.9542 86.7905C25.2832 87.772 16.8576 93.334 15.9578 93.9883L15.876 94.0701H15.7941C15.3033 94.1519 4.09645 96.4421 0.415348 97.5872C-2.03872 98.3234 -4.81999 101.513 -4.73819 104.294V110.347C-4.73819 110.838 -4.32918 111.329 -3.75657 111.329H5.8143L5.89609 111.574C6.87772 114.191 9.41358 115.991 12.1949 115.991C14.9761 115.991 17.512 114.191 18.4936 111.574L18.5754 111.329ZM62.0942 115.827C60.949 115.827 59.7219 115.5 58.5767 114.927C57.6769 114.437 56.8588 113.701 56.368 112.719C55.141 110.429 55.141 107.975 56.368 105.93C57.5133 103.967 59.7219 102.74 62.0124 102.74C65.6117 102.74 68.5565 105.685 68.5565 109.284C68.5565 109.611 68.5566 109.938 68.4748 110.265C68.6384 109.774 68.6384 108.957 68.6384 108.22C68.1475 104.949 65.2845 102.495 62.0124 102.495C58.7403 102.495 55.8772 104.949 55.3864 108.22C55.2228 109.284 55.2228 110.02 55.4682 110.592L55.6318 111.083H18.4118C17.921 112.637 16.9394 113.946 15.4669 114.846C13.4219 116.073 10.886 116.073 8.67737 114.846C7.77755 114.355 6.95952 113.619 6.4687 112.637C5.24167 110.347 5.24167 107.893 6.4687 105.848C7.61393 103.885 9.82259 102.658 12.113 102.658C15.7123 102.658 18.6572 105.603 18.6572 109.202C18.6572 109.774 18.5754 110.265 18.4936 110.838L18.6572 110.511C18.6572 110.511 18.9026 109.938 18.739 108.22C18.2482 104.949 15.3851 102.495 12.113 102.495C8.18654 102.495 5.81429 105.848 5.48708 108.22C5.32348 109.774 5.48708 110.592 5.48708 110.592L5.65068 111.083H5.15988L-2.61133 111.165C-3.75656 111.083 -4.57459 110.183 -4.57459 108.957V108.057V104.212C-4.57459 102.495 -3.02034 100.205 -1.5479 98.8141C-0.975285 98.3234 -0.320867 97.9144 0.497155 97.669C4.17825 96.5239 15.876 94.1519 15.9578 94.1519C16.3668 93.9065 25.1196 87.9356 33.9542 86.9541C42.1345 85.9726 54.2412 86.1361 61.358 88.8353C63.7302 89.735 65.7753 90.7984 67.5749 91.6981C67.9839 91.9435 68.393 92.1071 68.802 92.3524C71.256 93.6611 73.0557 94.6427 78.6182 96.1967C79.1908 96.3603 79.5998 96.7693 79.5998 97.3419C79.5998 98.3234 79.5998 99.7957 79.5998 101.023C79.5998 102.822 79.5998 102.986 79.5998 103.149C79.1908 105.685 77.6366 108.057 75.2643 109.611C73.1375 111.001 70.7652 111.492 68.802 111.001L68.4748 110.92C68.0658 112.555 67.0023 114.11 65.4481 115.009C64.4665 115.5 63.3212 115.827 62.0942 115.827ZM62.0942 103.558C60.1309 103.558 58.2495 104.621 57.1861 106.339C56.1226 108.139 56.1226 110.347 57.1861 112.31C57.5951 113.128 58.2495 113.701 59.0675 114.191C61.1126 115.255 63.3212 115.255 65.1209 114.191C66.8387 113.128 67.9021 111.247 67.9021 109.284C67.8203 106.094 65.2845 103.558 62.0942 103.558ZM9.08638 114.191C11.1314 115.255 13.2583 115.255 15.1397 114.191C16.8576 113.128 17.921 111.247 17.921 109.284C17.921 106.094 15.3851 103.558 12.1949 103.558C10.2316 103.558 8.35015 104.621 7.28673 106.339C6.2233 108.139 6.2233 110.347 7.28673 112.392C7.69574 113.128 8.35016 113.782 9.08638 114.191ZM43.6887 87.2812C40.253 87.2812 36.8991 87.4448 34.1179 87.772C25.4468 88.7535 16.8576 94.6427 16.4486 94.888C16.3668 94.9698 16.285 94.9698 16.1214 95.0516C15.9578 95.0516 4.34185 97.4236 0.742551 98.5688C0.0881338 98.8141 -0.484474 99.0595 -0.975287 99.5503C-2.52953 101.023 -3.75657 103.067 -3.75657 104.376V109.12C-3.75657 109.529 -3.67476 110.429 -2.61133 110.511L4.66906 110.429C4.58726 110.02 4.58726 109.284 4.75087 108.22C5.07807 105.112 8.18655 101.759 12.1949 101.759C15.876 101.759 19.0662 104.54 19.6389 108.22C19.8025 109.284 19.7207 109.938 19.6389 110.429H54.6502C54.5684 109.856 54.5684 109.12 54.732 108.22C55.3046 104.54 58.4949 101.759 62.176 101.759C65.8571 101.759 69.0474 104.54 69.62 108.22V108.302C69.62 109.202 69.62 109.856 69.5382 110.347C71.1742 110.592 73.2193 110.102 74.9371 108.957C77.064 107.484 78.5364 105.358 78.8636 103.067C78.8636 102.904 78.8636 102.004 78.8636 101.104C78.8636 99.8774 78.8636 98.4052 78.8636 97.4236C78.8636 97.2601 78.6182 97.1783 78.5364 97.0965C72.8921 95.4606 70.9288 94.4791 68.5565 93.1704C68.1475 93.0068 67.7385 92.7614 67.3295 92.516C65.4481 91.5345 63.5666 90.553 61.1944 89.6533C56.5316 87.9356 49.9875 87.2812 43.6887 87.2812Z" fill="white"/>
<path d="M17.8392 98.1598C18.1664 98.1598 49.5784 96.9329 66.675 96.0332C66.9205 96.0332 67.0841 95.8696 67.1659 95.6242C67.2477 95.3788 67.084 95.2152 66.9204 95.0517C65.2026 94.1519 63.2394 93.1704 60.9489 92.2707C57.1042 90.8802 50.4782 89.9805 43.6068 89.9805C40.4984 89.9805 37.3899 90.144 34.445 90.4712C27.001 91.3709 19.3116 95.9514 17.5938 97.0965C17.4302 97.2601 17.3484 97.4237 17.4302 97.669C17.4302 98.078 17.5938 98.1598 17.8392 98.1598ZM56.9406 95.5424C56.9406 95.5424 50.8872 95.7878 47.8606 95.9514C44.8339 96.115 41.8072 96.1968 38.7805 96.3604V91.2074C40.3348 91.1256 41.9708 91.0438 43.5251 91.0438C48.5968 91.0438 53.9139 91.6163 56.9406 92.2707C59.7219 92.925 64.5482 95.297 64.5482 95.297L56.9406 95.5424ZM34.445 91.6163C35.5084 91.4528 36.6537 91.3709 37.7171 91.2892V96.3604C29.4551 96.6875 22.7473 96.9329 19.557 97.0965C22.5837 95.3788 28.6371 92.2707 34.445 91.6163Z" fill="white"/>
<path d="M17.8392 98.5688C17.4302 98.5688 17.103 98.3234 16.9394 97.9962C16.7758 97.5873 16.9394 97.1783 17.2666 96.9329C18.9844 95.706 26.7556 91.0438 34.2814 90.2259C37.3081 89.8987 40.4166 89.7351 43.5251 89.7351C50.4782 89.7351 57.186 90.6348 61.0307 92.0253C63.403 92.925 65.3662 93.9066 67.0841 94.8063C67.4113 94.9699 67.6567 95.3788 67.5749 95.7878C67.4931 96.1968 67.1659 96.4422 66.7569 96.524C49.742 97.4237 18.1664 98.5688 17.8392 98.5688ZM43.5251 90.553C40.4166 90.553 37.3899 90.7166 34.445 91.0438C27.0828 91.8617 19.4752 96.4422 17.8392 97.5873V97.6691L17.921 97.7509C18.1664 97.7509 48.5968 96.6057 65.7752 95.706L57.0224 95.9514C56.8588 95.9514 50.8872 96.1968 47.9424 96.3604C44.9157 96.524 41.889 96.6057 38.8623 96.7693H38.4533V90.7984H38.8623C40.4984 90.7166 42.1344 90.6348 43.6068 90.6348C48.924 90.6348 54.2411 91.2892 57.1042 91.8617C59.8855 92.5161 64.5482 94.8063 64.7936 94.8881L66.266 95.6242C66.4296 95.6242 66.5933 95.6242 66.7569 95.6242C66.7569 95.6242 66.8387 95.6242 66.8387 95.5424C66.8387 95.5424 66.8387 95.4606 66.7569 95.4606C65.039 94.5609 63.1575 93.5794 60.7853 92.6797C56.9406 91.371 50.3964 90.553 43.5251 90.553ZM39.1895 91.6164V95.9514C42.0526 95.8696 44.9975 95.706 47.8606 95.5424C50.8872 95.3789 56.9406 95.1335 56.9406 95.1335L62.7486 94.9699C61.1125 94.2337 58.5766 93.1704 56.777 92.6797C53.9139 92.1071 48.6786 91.4528 43.4432 91.4528C42.1344 91.5346 40.662 91.5346 39.1895 91.6164ZM18.0028 97.5873L19.3934 96.7693C21.2749 95.6242 27.9008 91.9435 34.3632 91.2074C35.4266 91.1256 36.4901 91.0438 37.4717 90.962L38.1261 90.8802V96.7693H37.7171C29.9459 97.0965 23.5653 97.3419 20.1296 97.5055L18.0028 97.5873ZM37.3899 91.7799C36.4083 91.8617 35.5084 91.9435 34.5268 92.0253C29.3733 92.5979 24.0561 95.1335 21.3567 96.6057C24.8742 96.4422 30.6003 96.2786 37.3899 95.9514V91.7799Z" fill="white"/>
</g>
<defs>
<clipPath id="clip0">
<rect width="325" height="301" fill="white" transform="translate(-200 -35)"/>
</clipPath>
</defs>
</svg>
