<svg width="70" height="69" viewBox="0 0 70 69" fill="none" xmlns="http://www.w3.org/2000/svg">
<circle cx="34.756" cy="34.2509" r="34.2509" fill="#756FBF"/>
<g clip-path="url(#clip0)">
<path d="M28.7128 34.2507C28.7128 30.9127 31.4181 28.206 34.7561 28.206C38.0941 28.206 40.8009 30.9127 40.8009 34.2507C40.8009 37.5887 38.0941 40.2955 34.7561 40.2955C31.4181 40.2955 28.7128 37.5887 28.7128 34.2507ZM25.4451 34.2507C25.4451 39.3932 29.6136 43.5617 34.7561 43.5617C39.8986 43.5617 44.0671 39.3932 44.0671 34.2507C44.0671 29.1082 39.8986 24.9397 34.7561 24.9397C29.6136 24.9397 25.4451 29.1082 25.4451 34.2507ZM42.2597 24.5706C42.2597 25.7717 43.2337 26.7471 44.4362 26.7471C45.6372 26.7471 46.6127 25.7717 46.6127 24.5706C46.6127 23.3696 45.6387 22.3956 44.4362 22.3956C43.2337 22.3956 42.2597 23.3696 42.2597 24.5706ZM27.4297 49.0104C25.6619 48.9298 24.701 48.6354 24.0624 48.3864C23.2158 48.0569 22.6124 47.6643 21.9767 47.0301C21.3425 46.3959 20.9485 45.7924 20.6204 44.9459C20.3714 44.3073 20.077 43.3464 19.9965 41.5785C19.9086 39.6671 19.891 39.093 19.891 34.2507C19.891 29.4085 19.91 28.8358 19.9965 26.9229C20.077 25.155 20.3729 24.1957 20.6204 23.5556C20.95 22.709 21.3425 22.1056 21.9767 21.4699C22.6109 20.8357 23.2144 20.4417 24.0624 20.1136C24.701 19.8646 25.6619 19.5702 27.4297 19.4896C29.3412 19.4017 29.9153 19.3842 34.7561 19.3842C39.5984 19.3842 40.171 19.4032 42.0839 19.4896C43.8518 19.5702 44.8112 19.8661 45.4512 20.1136C46.2978 20.4417 46.9013 20.8357 47.5369 21.4699C48.1712 22.1041 48.5637 22.709 48.8932 23.5556C49.1422 24.1942 49.4366 25.155 49.5172 26.9229C49.6051 28.8358 49.6227 29.4085 49.6227 34.2507C49.6227 39.0915 49.6051 39.6657 49.5172 41.5785C49.4366 43.3464 49.1408 44.3073 48.8932 44.9459C48.5637 45.7924 48.1712 46.3959 47.5369 47.0301C46.9027 47.6643 46.2978 48.0569 45.4512 48.3864C44.8126 48.6354 43.8518 48.9298 42.0839 49.0104C40.1725 49.0982 39.5984 49.1158 34.7561 49.1158C29.9153 49.1158 29.3412 49.0982 27.4297 49.0104ZM27.2803 16.2278C25.3499 16.3157 24.0317 16.6218 22.879 17.07C21.6867 17.5328 20.6761 18.1538 19.6669 19.1615C18.6592 20.1692 18.0382 21.1799 17.5753 22.3736C17.1271 23.5263 16.821 24.8445 16.7331 26.775C16.6438 28.7084 16.6233 29.3265 16.6233 34.2507C16.6233 39.175 16.6438 39.7931 16.7331 41.7265C16.821 43.6569 17.1271 44.9752 17.5753 46.1279C18.0382 47.3201 18.6577 48.3322 19.6669 49.3399C20.6746 50.3476 21.6852 50.9672 22.879 51.4315C24.0331 51.8797 25.3499 52.1858 27.2803 52.2737C29.2152 52.3616 29.8318 52.3835 34.7561 52.3835C39.6818 52.3835 40.2985 52.363 42.2319 52.2737C44.1623 52.1858 45.4805 51.8797 46.6332 51.4315C47.8255 50.9672 48.8361 50.3476 49.8453 49.3399C50.853 48.3322 51.4726 47.3201 51.9369 46.1279C52.3851 44.9752 52.6926 43.6569 52.7791 41.7265C52.8669 39.7916 52.8874 39.175 52.8874 34.2507C52.8874 29.3265 52.8669 28.7084 52.7791 26.775C52.6912 24.8445 52.3851 23.5263 51.9369 22.3736C51.4726 21.1813 50.853 20.1707 49.8453 19.1615C48.8376 18.1538 47.8255 17.5328 46.6347 17.07C45.4805 16.6218 44.1623 16.3142 42.2333 16.2278C40.2999 16.1399 39.6818 16.1179 34.7576 16.1179C29.8318 16.1179 29.2152 16.1384 27.2803 16.2278Z" fill="white"/>
</g>
<defs>
<clipPath id="clip0">
<rect width="36.2656" height="36.2656" fill="white" transform="translate(16.6233 16.1179)"/>
</clipPath>
</defs>
</svg>
