<svg width="210" height="109" viewBox="0 0 210 109" fill="none" xmlns="http://www.w3.org/2000/svg">
<g clip-path="url(#clip0)">
<path d="M136.468 178.787C136.468 178.787 184.825 158.469 186.003 137.071C187.18 115.674 153.946 78.363 135.382 74.8567L133.842 102.548C133.842 102.548 158.292 124.664 163.454 132.126C168.616 139.589 136.468 168.988 136.468 168.988V178.787Z" fill="#C42128"/>
<path d="M75.0712 178.787C75.0712 178.787 26.7142 158.469 25.5369 137.071C24.4502 115.674 57.1411 78.363 75.7051 74.8567L77.6973 102.548C77.6973 102.548 53.2471 124.664 48.0854 132.126C42.9237 139.589 75.0712 168.988 75.0712 168.988V178.787Z" fill="#C42128"/>
<path d="M144.618 79.532C136.831 72.0698 110.207 70.2717 100.336 70.991C100.336 70.991 72.264 71.9799 67.7361 80.0714C63.2989 88.2528 61.1255 103.627 61.85 115.045C62.5744 126.463 68.6417 158.199 68.6417 169.797C68.6417 171.685 68.4606 173.933 68.1889 176.36C82.1346 176.99 117.723 178.518 138.642 177.529C139.095 166.471 139.91 155.142 142.536 148.13C147.788 134.374 152.406 86.9941 144.618 79.532Z" fill="#C42128"/>
<path d="M96.0802 46.9863C96.0802 46.9863 95.9896 59.3933 96.0802 71.2608C96.0802 71.2608 97.348 74.6772 104.321 75.6662C112.561 76.8349 117.361 71.6204 117.361 71.6204C117.361 71.6204 116.908 50.0431 116.455 46.2671L96.0802 46.9863Z" fill="#F7C3B3"/>
<path d="M105.498 26.8474C105.498 26.8474 91.5524 29.0051 90.8279 37.9957C90.0129 46.9862 93.9974 62.2701 102.872 65.5067C111.746 68.7433 120.259 57.8648 121.798 49.7733C123.428 41.5919 119.263 30.5335 115.912 28.6455C112.471 26.7575 107.038 26.6676 105.498 26.8474Z" fill="#F7C3B3"/>
<path d="M122.885 44.379L123.79 43.39C123.79 43.39 127.413 35.7481 124.153 28.5556C122.613 25.2291 117.451 22.532 117.451 22.532C117.451 22.532 115.006 18.8458 110.66 18.8458C106.313 18.7559 88.4735 20.7339 88.0207 35.9279C88.0207 35.9279 88.4735 35.838 89.1979 35.7481C88.3829 37.6361 88.2018 43.0304 89.1074 43.6597C89.4696 43.5698 90.4657 43.6597 90.8279 43.5698C91.3713 43.4799 92.8202 35.1187 93.4541 35.0288C94.8124 34.7591 96.4424 34.4894 98.163 34.0399C103.959 32.7812 112.471 31.3427 114.554 29.185L122.885 44.379Z" fill="white"/>
<path d="M118.81 43.4799C118.81 43.4799 123.881 41.4121 125.149 44.5588C126.507 47.7953 122.523 51.6613 118.267 51.6613L118.81 43.4799Z" fill="#F7C3B3"/>
<path d="M93.5446 44.1093C93.5446 44.1093 88.4735 42.0415 87.2057 45.1881C85.8473 48.4247 89.8318 52.2907 94.088 52.2907L93.5446 44.1093Z" fill="#F7C3B3"/>
<path d="M121.345 48.7038C121.345 52.2102 118.448 55.0871 114.916 55.0871C111.384 55.0871 108.486 52.2102 108.486 48.7038C108.486 45.1975 111.384 42.3206 114.916 42.3206C118.538 42.3206 121.345 45.1076 121.345 48.7038Z" fill="black"/>
<path d="M120.349 48.7039C120.349 51.6708 117.904 54.0982 114.916 54.0982C111.928 54.0982 109.483 51.6708 109.483 48.7039C109.483 45.737 111.928 43.3096 114.916 43.3096C117.904 43.3096 120.349 45.737 120.349 48.7039Z" fill="#F7C3B3"/>
<path d="M105.045 48.7038C105.045 52.2102 102.147 55.0871 98.6158 55.0871C95.0841 55.0871 92.1863 52.2102 92.1863 48.7038C92.1863 45.1975 95.0841 42.3206 98.6158 42.3206C102.147 42.3206 105.045 45.1076 105.045 48.7038Z" fill="black"/>
<path d="M104.049 48.7039C104.049 51.6708 101.604 54.0982 98.6158 54.0982C95.6275 54.0982 93.1824 51.6708 93.1824 48.7039C93.1824 45.737 95.6275 43.3096 98.6158 43.3096C101.604 43.3096 104.049 45.737 104.049 48.7039Z" fill="#F7C3B3"/>
<path d="M104.592 49.2432V47.9845L109.573 47.8047V49.1533L104.592 49.2432Z" fill="black"/>
<path d="M89.8318 14.4498L90.4657 29.9136C90.4657 29.9136 98.8875 26.1375 107.671 31.7117C107.671 31.7117 117.633 28.7448 123.519 29.6439L122.794 13.9104L89.8318 14.4498Z" fill="black"/>
<path d="M75.7956 14.2701L108.215 25.8679L136.921 11.483L103.777 0.694336L75.7956 14.2701Z" fill="black"/>
<path d="M132.755 25.5083C132.665 25.5083 132.665 25.5083 132.574 25.5083C130.763 24.6092 127.594 18.0461 127.05 16.5177C126.326 15.4389 113.195 12.1124 101.151 9.50512C100.97 9.41521 100.789 9.2354 100.88 9.05559C100.88 8.87578 101.151 8.69597 101.332 8.78588C107.4 10.1345 127.141 14.5398 127.775 16.248C128.318 17.9562 131.488 24.1597 132.846 24.789C133.027 24.879 133.118 25.1487 133.027 25.3285C133.027 25.4184 132.937 25.5083 132.755 25.5083Z" fill="#C42128"/>
<path d="M133.118 26.4073C133.118 26.4073 133.842 27.3963 137.917 27.8458C141.992 28.2953 142.354 27.8458 142.354 27.8458L141.63 24.1597C141.63 24.1597 138.732 25.2385 137.464 25.1486C136.197 25.0587 134.476 24.2496 134.476 24.2496L133.118 26.4073Z" fill="#C42128"/>
<path d="M132.937 24.4294C132.937 24.4294 131.578 25.5982 132.665 26.2275C133.752 26.8569 135.925 26.5871 135.291 25.2386C134.657 23.9799 133.389 23.9799 132.937 24.4294Z" fill="#C42128"/>
</g>
<defs>
<clipPath id="clip0">
<rect width="210" height="229.529" fill="white" transform="translate(0 0.694336)"/>
</clipPath>
</defs>
</svg>
