<svg width="380" height="288" viewBox="0 0 380 288" fill="none" xmlns="http://www.w3.org/2000/svg">
<g clip-path="url(#clip0)">
<path d="M219.599 40.12L216.753 35.255L201.196 44.4242L204.029 49.2892L195.127 65.0319L189.512 65.0841L189.642 83.1876L195.257 83.1485L204.393 98.7608L201.625 103.665L217.311 112.599L220.08 107.708L238.132 107.578L240.978 112.43L256.534 103.261L253.701 98.4087L262.604 82.6529L268.218 82.6137L268.088 64.4972L262.474 64.5493L253.337 48.924L256.105 44.0329L240.419 35.0854L237.638 39.9896L219.599 40.12Z" fill="white"/>
<path d="M217.312 113.017C217.247 113.028 217.181 113.028 217.117 113.017L201.443 104.017C201.398 103.99 201.358 103.954 201.327 103.912C201.296 103.869 201.273 103.821 201.261 103.769C201.223 103.673 201.223 103.566 201.261 103.469L203.86 98.7738L194.958 83.5528H189.577C189.471 83.5528 189.368 83.5102 189.293 83.4343C189.217 83.3585 189.175 83.2557 189.175 83.1484L189.045 65.0449C189.043 64.9915 189.052 64.9383 189.072 64.8889C189.093 64.8394 189.123 64.7948 189.162 64.758C189.198 64.7175 189.242 64.685 189.291 64.6626C189.34 64.6401 189.393 64.6282 189.448 64.6275H194.828L203.497 49.2891L200.78 44.6328C200.758 44.5859 200.747 44.5347 200.747 44.4828C200.747 44.431 200.758 44.3797 200.78 44.3328C200.808 44.2268 200.872 44.1342 200.962 44.072L216.558 34.9419C216.653 34.8898 216.765 34.877 216.869 34.9062C216.973 34.9355 217.062 35.0044 217.117 35.0985L219.846 39.7417L237.417 39.6243L240.081 34.9289C240.106 34.8815 240.14 34.8396 240.181 34.8058C240.222 34.772 240.269 34.747 240.321 34.7323C240.372 34.7177 240.425 34.7137 240.478 34.7206C240.531 34.7274 240.581 34.7451 240.627 34.7724L256.314 43.7198C256.361 43.7443 256.403 43.7782 256.436 43.8195C256.47 43.8608 256.495 43.9086 256.51 43.9599C256.524 44.0112 256.528 44.065 256.521 44.1179C256.514 44.1708 256.497 44.2218 256.47 44.2676L253.87 48.963L262.773 64.171H268.153C268.26 64.171 268.363 64.2136 268.438 64.2895C268.514 64.3653 268.556 64.4681 268.556 64.5754L268.686 82.6919C268.686 82.7992 268.644 82.902 268.568 82.9778C268.493 83.0537 268.39 83.0963 268.283 83.0963H262.903L254.221 98.4347L256.951 103.091C256.978 103.137 256.997 103.188 257.005 103.242C257.013 103.295 257.01 103.349 256.997 103.402C256.983 103.454 256.96 103.503 256.927 103.546C256.895 103.589 256.854 103.625 256.808 103.652L241.212 112.782C241.165 112.804 241.114 112.815 241.062 112.815C241.011 112.815 240.96 112.804 240.913 112.782C240.862 112.77 240.813 112.747 240.771 112.716C240.728 112.685 240.693 112.645 240.666 112.599L237.937 107.943L220.366 108.073L217.702 112.769C217.678 112.814 217.644 112.854 217.604 112.885C217.564 112.917 217.517 112.939 217.468 112.951L217.312 113.017ZM202.171 103.508L217.169 112.051L219.768 107.513C219.804 107.45 219.855 107.399 219.916 107.362C219.978 107.326 220.047 107.305 220.119 107.304L238.171 107.173C238.241 107.172 238.311 107.19 238.372 107.224C238.434 107.259 238.485 107.309 238.522 107.369L241.121 111.882L256.028 103.117L253.428 98.6043C253.39 98.5438 253.37 98.4737 253.37 98.4021C253.37 98.3305 253.39 98.2604 253.428 98.1999L262.331 82.4572C262.367 82.3951 262.418 82.3432 262.479 82.3067C262.541 82.2701 262.61 82.2501 262.682 82.2485H267.88L267.724 64.9145H262.526C262.455 64.9106 262.386 64.8895 262.325 64.8532C262.264 64.8169 262.213 64.7663 262.175 64.7058L253.078 49.0543C253.042 48.9929 253.024 48.9232 253.024 48.8522C253.024 48.7812 253.042 48.7115 253.078 48.65L255.677 44.098L240.562 35.6332L237.963 40.1852C237.931 40.2481 237.883 40.3009 237.823 40.3378C237.764 40.3746 237.695 40.3941 237.625 40.3939L219.573 40.5243C219.502 40.5227 219.432 40.5026 219.37 40.4661C219.309 40.4295 219.258 40.3777 219.222 40.3156L216.623 35.8158L201.755 44.5676L204.354 49.0804C204.392 49.1409 204.413 49.211 204.413 49.2826C204.413 49.3542 204.392 49.4243 204.354 49.4848L195.478 65.2145C195.44 65.2733 195.388 65.3219 195.327 65.356C195.265 65.3901 195.197 65.4087 195.127 65.4101H189.928L190.058 82.718H195.257C195.327 82.7194 195.395 82.738 195.457 82.7721C195.518 82.8062 195.57 82.8548 195.608 82.9137L204.705 98.5651C204.737 98.6277 204.754 98.697 204.754 98.7673C204.754 98.8376 204.737 98.9069 204.705 98.9695L202.171 103.508Z" fill="#26225B"/>
<path d="M228.735 59.3581C231.593 59.3298 234.394 60.1529 236.785 61.7232C239.176 63.2935 241.048 65.5405 242.166 68.1796C243.284 70.8186 243.596 73.7312 243.064 76.5486C242.531 79.3659 241.178 81.9614 239.175 84.0064C237.172 86.0514 234.609 87.4539 231.811 88.0365C229.014 88.6191 226.106 88.3555 223.458 87.2791C220.81 86.2027 218.539 84.3619 216.933 81.9897C215.328 79.6175 214.46 76.8206 214.439 73.9531C214.412 70.1166 215.901 66.4257 218.581 63.6897C221.261 60.9538 224.913 59.396 228.735 59.3581Z" fill="white"/>
<path d="M228.866 88.6916C225.087 88.4842 221.529 86.8357 218.921 84.0833C216.313 81.3309 214.851 77.6825 214.835 73.8842C214.818 70.086 216.248 66.4249 218.832 63.6496C221.416 60.8743 224.959 59.1946 228.736 58.9539H228.84C232.756 58.9606 236.512 60.5177 239.29 63.2871C242.069 66.0564 243.647 69.8143 243.682 73.7445C243.689 77.6794 242.147 81.4577 239.391 84.2571C236.636 87.0566 232.89 88.6504 228.97 88.6916H228.866ZM228.736 59.7625C225.004 59.7763 221.43 61.2756 218.798 63.9312C216.167 66.5868 214.693 70.1818 214.7 73.927C214.707 77.6722 216.194 81.2617 218.835 83.9076C221.476 86.5534 225.056 88.0394 228.788 88.0394C232.52 88.0394 236.099 86.5534 238.74 83.9076C241.382 81.2617 242.869 77.6722 242.876 73.927C242.883 70.1818 241.409 66.5868 238.777 63.9312C236.146 61.2756 232.572 59.7763 228.84 59.7625H228.736Z" fill="#26225B"/>
<path d="M11.0608 155.55C5.97924 164.249 -4.98967 172.61 2.86012 184.713C8.27959 193.061 19.1575 196.022 14.9207 207.891C13.2442 212.586 10.0341 216.134 11.0218 221.429C11.8666 226.033 15.4536 229.672 18.6247 232.842C21.3409 235.568 25.6947 238.137 27.7221 241.463C31.0102 246.902 27.6441 250.997 26.0846 256.397C24.59 261.549 24.3561 267.249 27.2023 272.049C30.9582 278.401 38.3141 279.053 43.1748 283.709C43.1748 283.709 65.4635 298.317 74.5869 271.331C76.7443 264.953 79.9414 259.123 78.3948 251.884C77.2252 246.419 73.1963 242.402 68.6086 239.637C63.7999 236.742 58.5624 236.05 57.2888 229.803C56.509 225.981 57.9646 221.129 58.1205 217.269C58.2895 212.795 58.4584 207.669 55.9501 203.73C53.078 199.191 48.3213 198.774 43.9025 196.478C32.7517 190.674 38.704 181.075 37.0405 171.253C34.5712 157.036 20.873 158.38 11.2428 155.471L11.0608 155.55Z" fill="#756FBF"/>
<path d="M56.2735 287.765C51.6157 287.613 47.0743 286.266 43.0822 283.853C41.0343 282.064 38.7353 280.587 36.2592 279.47C32.8411 277.722 29.3191 275.922 27.0837 272.153C23.9256 266.832 24.7314 260.662 25.9531 256.423C26.343 255.119 26.8238 253.815 27.2527 252.654C28.7343 248.898 30.0209 245.637 27.5516 241.567C25.9769 239.368 24.0488 237.446 21.8462 235.881C20.6716 234.965 19.5438 233.99 18.4672 232.959C15.452 229.933 11.6961 226.177 10.8513 221.508C10.1625 217.738 11.5661 214.856 13.0477 211.817C13.6988 210.547 14.2759 209.24 14.7762 207.904C17.6614 199.817 13.5546 195.983 8.7979 191.535C6.50916 189.553 4.47089 187.297 2.72861 184.818C-3.43166 175.336 1.84486 168.201 6.95242 161.341C8.3765 159.492 9.69973 157.568 10.9163 155.576L11.1632 155.471C13.4087 156.099 15.6864 156.604 17.9863 156.984C26.3949 158.562 35.1025 160.18 37.013 171.331C37.4237 174.359 37.4543 177.426 37.1039 180.462C36.6361 186.983 36.2202 192.591 43.81 196.543C45.0769 197.178 46.3787 197.739 47.7089 198.226C50.854 199.452 53.8302 200.6 55.8836 203.834C58.4829 207.839 58.223 213.16 58.054 217.438C57.9694 218.924 57.8046 220.405 57.5602 221.873C57.0111 224.528 56.9013 227.255 57.2353 229.946C58.184 234.616 61.3291 236.116 65.0331 237.863C66.1897 238.424 67.3984 238.998 68.5681 239.715C72.337 241.985 77.1067 245.95 78.4063 252.015C79.7059 258.08 77.8344 262.775 75.898 267.927C75.4561 269.101 75.0013 270.314 74.5984 271.527C71.8042 279.809 67.4634 285.026 61.732 287.009C59.9664 287.561 58.1221 287.816 56.2735 287.765ZM11.1242 155.628C9.92751 157.613 8.62602 159.533 7.22534 161.38C2.10478 168.253 -3.13274 175.297 2.94955 184.661C4.68627 187.125 6.71565 189.368 8.99284 191.339C13.5935 195.643 17.9473 199.713 15.0231 207.917C14.5122 209.251 13.9308 210.557 13.2816 211.83C11.813 214.843 10.4224 217.686 11.0983 221.39C11.943 226.007 15.673 229.738 18.6621 232.737C19.7297 233.76 20.8489 234.726 22.0152 235.633C24.2388 237.217 26.1845 239.16 27.7726 241.385C30.2938 245.546 28.9292 249.002 27.4866 252.654C27.0188 253.854 26.5249 255.093 26.187 256.41C24.9783 260.597 24.1856 266.701 27.2917 271.97C29.5011 275.701 32.9971 277.488 36.3891 279.209C38.8801 280.332 41.1923 281.818 43.2512 283.618C43.3292 283.618 52.7775 289.761 61.758 286.657C67.4374 284.687 71.7262 279.522 74.5074 271.292C74.9103 270.066 75.3781 268.853 75.807 267.679C77.7305 262.553 79.55 257.715 78.3023 251.897C77.0547 246.08 72.298 241.959 68.5551 239.715C67.3854 239.011 66.1897 238.411 65.0331 237.876C61.4981 236.181 58.158 234.59 57.2353 229.816C56.8882 227.104 56.9981 224.353 57.5602 221.677C57.7811 220.112 58.002 218.625 58.054 217.256C58.21 213.017 58.4179 207.734 55.9096 203.769C53.8952 200.587 50.945 199.452 47.8259 198.252C46.4965 197.758 45.195 197.192 43.927 196.556C36.2202 192.539 36.6491 186.579 37.1169 180.279C37.45 177.278 37.4194 174.247 37.0259 171.253C35.1285 160.245 26.4989 158.628 18.1553 157.076C15.8611 156.688 13.5881 156.183 11.3452 155.563L11.1242 155.628Z" fill="#D4E6FC"/>
<path d="M19.936 177.97L62.603 287.126L19.936 177.97Z" fill="#D4E6FC"/>
<path d="M62.6033 287.53C62.523 287.532 62.4442 287.509 62.3771 287.464C62.3099 287.42 62.2574 287.357 62.2264 287.283L19.5594 178.114C19.5384 178.065 19.5275 178.013 19.5273 177.96C19.5272 177.907 19.5377 177.854 19.5584 177.805C19.5791 177.756 19.6094 177.712 19.6475 177.676C19.6857 177.639 19.7309 177.611 19.7803 177.592C19.8786 177.553 19.9882 177.555 20.0855 177.596C20.1827 177.638 20.2598 177.716 20.3002 177.814L62.9801 286.944C62.999 286.993 63.0078 287.046 63.0062 287.099C63.0047 287.152 62.9927 287.205 62.9709 287.253C62.9492 287.302 62.9182 287.345 62.8796 287.382C62.8411 287.418 62.7957 287.446 62.7462 287.465C62.7064 287.501 62.6565 287.524 62.6033 287.53Z" fill="white"/>
<path d="M21.7427 215.742L38.6379 225.733L21.7427 215.742Z" fill="#D4E6FC"/>
<path d="M38.5989 226.138C38.5353 226.157 38.4675 226.157 38.4039 226.138L21.5087 216.134C21.4324 216.073 21.3805 215.987 21.3625 215.891C21.3444 215.795 21.3615 215.696 21.4106 215.612C21.4596 215.528 21.5374 215.464 21.6294 215.433C21.7215 215.402 21.8217 215.405 21.9115 215.442L38.8068 225.433C38.8534 225.46 38.8941 225.496 38.9266 225.539C38.9591 225.582 38.9827 225.631 38.9961 225.683C39.0094 225.736 39.0121 225.79 39.0042 225.843C38.9962 225.897 38.9777 225.948 38.9498 225.994C38.9075 226.045 38.8533 226.085 38.7922 226.11C38.731 226.135 38.6646 226.144 38.5989 226.138Z" fill="white"/>
<path d="M54.6494 266.792L63.7468 251.689L54.6494 266.792Z" fill="#D4E6FC"/>
<path d="M54.6495 267.197C54.577 267.2 54.5051 267.183 54.4419 267.147C54.3786 267.111 54.3265 267.059 54.2914 266.995C54.2563 266.931 54.2396 266.859 54.2431 266.786C54.2467 266.714 54.2704 266.644 54.3116 266.584L63.409 251.48C63.4656 251.388 63.5554 251.322 63.6596 251.295C63.7638 251.268 63.8743 251.283 63.9679 251.336C64.0134 251.364 64.0529 251.401 64.0841 251.445C64.1153 251.488 64.1376 251.537 64.1497 251.59C64.1618 251.642 64.1635 251.696 64.1546 251.749C64.1456 251.801 64.1264 251.852 64.0978 251.897L55.0004 267.001C54.964 267.062 54.9125 267.111 54.8509 267.146C54.7894 267.18 54.7199 267.198 54.6495 267.197Z" fill="#0C5AE5"/>
<path d="M32.9717 211.295L37.4424 197.574L32.9717 211.295Z" fill="#D4E6FC"/>
<path d="M32.9716 211.725H32.8417C32.741 211.687 32.6584 211.612 32.6102 211.515C32.5621 211.419 32.5519 211.307 32.5817 211.203L37.0655 197.495C37.0982 197.393 37.17 197.309 37.2651 197.26C37.3601 197.211 37.4707 197.202 37.5723 197.235C37.674 197.267 37.7585 197.339 37.8072 197.435C37.856 197.53 37.865 197.641 37.8323 197.743L33.3485 211.464C33.3211 211.542 33.2699 211.609 33.2023 211.656C33.1346 211.703 33.0538 211.727 32.9716 211.725Z" fill="white"/>
<path d="M48.1772 153.371H134.187V102.152L48.1772 115.051V153.371Z" fill="#C42128"/>
<path d="M46.9297 287.674L60.3549 273.809H71.7007V287.674H46.9297Z" fill="#26225B"/>
<path d="M120.788 287.674L112.093 273.809H100.76V287.674H120.788Z" fill="#26225B"/>
<path d="M127.429 153.11V277.487H92.6378V178.27H88.1021L81.7209 277.487H46.9297L53.3109 178.27L54.9354 153.11H127.429Z" fill="white"/>
<path d="M127.429 277.879H92.6379C92.5856 277.881 92.5335 277.872 92.4847 277.853C92.4359 277.834 92.3914 277.805 92.3538 277.769C92.3162 277.732 92.2863 277.689 92.2659 277.64C92.2455 277.592 92.235 277.54 92.235 277.487V178.688H88.4791L82.1239 277.527C82.1173 277.626 82.0733 277.719 82.0009 277.787C81.9285 277.854 81.8331 277.892 81.734 277.892H46.9298C46.8768 277.892 46.8243 277.882 46.7752 277.862C46.7261 277.842 46.6815 277.812 46.6439 277.774C46.6059 277.735 46.577 277.688 46.559 277.636C46.541 277.584 46.5345 277.529 46.5399 277.474L54.5846 153.084C54.5941 152.983 54.6404 152.888 54.7146 152.819C54.7888 152.749 54.8859 152.709 54.9875 152.706H127.429C127.534 152.71 127.633 152.754 127.706 152.829C127.778 152.905 127.819 153.005 127.819 153.111V277.487C127.819 277.591 127.778 277.691 127.705 277.764C127.632 277.838 127.533 277.879 127.429 277.879ZM93.0408 277.083H127.026V153.515H55.3124L47.3587 277.083H81.3571L87.7123 178.244C87.7187 178.144 87.7623 178.049 87.8344 177.979C87.9065 177.909 88.002 177.869 88.1022 177.866H92.6379C92.7448 177.866 92.8473 177.909 92.9228 177.984C92.9984 178.06 93.0408 178.163 93.0408 178.27V277.083Z" fill="#26225B"/>
<path d="M143.999 91.6525C143.999 62.9581 122.048 50.0718 93.4046 49.3805H91.6371C48.5412 49.3805 34.947 80.8139 32.9066 86.2397C28.3579 98.3174 15.5695 136.194 56.7809 153.711C69.1794 158.928 78.0429 146.198 84.658 142.781C89.7509 140.011 94.9921 137.524 100.358 135.333L143.999 91.6525Z" fill="#C42128"/>
<path d="M124.907 105.973C124.907 105.973 129.508 126.999 155.202 122.46C180.896 117.921 173.397 78.2703 173.397 78.2703H153.512L152.785 96.5304C152.785 96.5304 142.232 69.1403 129.027 59.6972C120.97 53.9453 124.907 105.973 124.907 105.973Z" fill="#C42128"/>
<path d="M133.862 119.995C133.809 119.995 133.757 119.984 133.708 119.964C133.659 119.944 133.615 119.914 133.577 119.876C133.54 119.839 133.51 119.794 133.49 119.745C133.47 119.696 133.459 119.643 133.459 119.59V97.7304C133.459 97.6231 133.502 97.5203 133.577 97.4445C133.653 97.3686 133.756 97.326 133.862 97.326C133.969 97.326 134.072 97.3686 134.147 97.4445C134.223 97.5203 134.265 97.6231 134.265 97.7304V119.564C134.269 119.619 134.261 119.675 134.242 119.727C134.224 119.779 134.195 119.827 134.157 119.867C134.119 119.907 134.073 119.94 134.023 119.962C133.972 119.983 133.918 119.995 133.862 119.995Z" fill="white"/>
<path d="M74.3262 148.989L81.5522 156.293L87.3745 163.206L84.9312 165.671L87.0886 168.514L75.015 177.931L59.3154 159.006L74.3262 148.989Z" fill="white"/>
<path d="M75.0024 178.335C74.9452 178.334 74.8891 178.321 74.8375 178.296C74.786 178.271 74.7403 178.236 74.7034 178.192L59.0039 159.267C58.9353 159.173 58.903 159.057 58.9129 158.941C58.9407 158.831 59.0049 158.735 59.0948 158.667L74.0796 148.689C74.1523 148.627 74.2444 148.594 74.3395 148.594C74.4347 148.594 74.5268 148.627 74.5995 148.689L81.8774 156.006L87.7258 162.945C87.7972 163.018 87.8372 163.116 87.8372 163.219C87.8372 163.321 87.7972 163.419 87.7258 163.493L85.5294 165.71L87.4659 168.318C87.539 168.396 87.5797 168.499 87.5797 168.605C87.5797 168.712 87.539 168.815 87.4659 168.892L75.3922 178.296C75.3359 178.336 75.2706 178.36 75.2024 178.367C75.1341 178.373 75.0653 178.363 75.0024 178.335ZM59.9136 159.123L75.0673 177.383L86.5171 168.449L84.6067 165.932C84.5443 165.857 84.5101 165.762 84.5101 165.664C84.5101 165.567 84.5443 165.472 84.6067 165.397L86.79 163.206L81.2406 156.515L74.2746 149.471L59.9136 159.123Z" fill="#26225B"/>
<path d="M84.5676 170.731C84.5114 170.733 84.4556 170.722 84.404 170.699C84.3524 170.676 84.3062 170.643 84.2687 170.601L79.0702 164.666C79.0325 164.629 79.0026 164.584 78.9821 164.535C78.9617 164.486 78.9512 164.433 78.9512 164.379C78.9512 164.326 78.9617 164.273 78.9821 164.224C79.0026 164.175 79.0325 164.13 79.0702 164.093C79.1067 164.053 79.1509 164.022 79.2001 164C79.2493 163.978 79.3025 163.967 79.3561 163.967C79.4098 163.967 79.4629 163.978 79.5121 164C79.5613 164.022 79.6056 164.053 79.6421 164.093L84.8406 170.04C84.8969 170.097 84.9343 170.17 84.9479 170.249C84.9615 170.328 84.9505 170.41 84.9165 170.482C84.8824 170.555 84.827 170.615 84.7576 170.655C84.6882 170.695 84.6083 170.712 84.5287 170.705L84.5676 170.731Z" fill="#26225B"/>
<path d="M81.1753 173.079C81.1161 173.079 81.0577 173.066 81.0039 173.041C80.9501 173.016 80.9022 172.98 80.8634 172.936L75.6649 167.001C75.6227 166.963 75.589 166.917 75.566 166.865C75.543 166.813 75.5311 166.756 75.5313 166.7C75.5314 166.643 75.5434 166.586 75.5667 166.535C75.5899 166.483 75.6238 166.436 75.6661 166.399C75.7084 166.361 75.7582 166.332 75.8122 166.315C75.8662 166.298 75.9232 166.292 75.9795 166.299C76.0358 166.305 76.0901 166.323 76.1389 166.352C76.1877 166.381 76.2299 166.42 76.2627 166.466L81.4612 172.401C81.499 172.438 81.5289 172.483 81.5493 172.532C81.5698 172.582 81.5803 172.634 81.5803 172.688C81.5803 172.741 81.5698 172.794 81.5493 172.843C81.5289 172.892 81.499 172.937 81.4612 172.975C81.3825 173.045 81.2803 173.082 81.1753 173.079Z" fill="#26225B"/>
<path d="M77.9777 175.649C77.9206 175.647 77.8644 175.634 77.8129 175.609C77.7614 175.584 77.7157 175.549 77.6788 175.505L72.4803 169.571C72.4381 169.533 72.4045 169.486 72.3814 169.434C72.3584 169.382 72.3466 169.326 72.3467 169.269C72.3468 169.212 72.3589 169.156 72.3821 169.104C72.4053 169.052 72.4392 169.006 72.4815 168.968C72.5238 168.93 72.5736 168.902 72.6276 168.884C72.6816 168.867 72.7386 168.862 72.7949 168.868C72.8512 168.874 72.9056 168.893 72.9544 168.922C73.0032 168.951 73.0453 168.989 73.0781 169.036L78.2767 174.97C78.3144 175.008 78.3443 175.053 78.3648 175.102C78.3852 175.151 78.3957 175.204 78.3957 175.257C78.3957 175.311 78.3852 175.363 78.3648 175.413C78.3443 175.462 78.3144 175.507 78.2767 175.544C78.1946 175.617 78.0872 175.655 77.9777 175.649Z" fill="#26225B"/>
<path d="M84.9959 166.206C84.9387 166.205 84.8822 166.192 84.8305 166.167C84.7789 166.142 84.7333 166.107 84.697 166.062L80.7981 161.627C80.7631 161.587 80.7364 161.54 80.7194 161.49C80.7024 161.439 80.6956 161.386 80.6992 161.332C80.7028 161.279 80.7168 161.227 80.7405 161.179C80.7642 161.131 80.797 161.089 80.8371 161.054C80.8772 161.018 80.9238 160.992 80.9743 160.975C81.0247 160.958 81.078 160.951 81.1311 160.954C81.1842 160.958 81.2361 160.972 81.2837 160.996C81.3314 161.02 81.374 161.052 81.4089 161.093L85.3078 165.527C85.381 165.605 85.4217 165.708 85.4217 165.814C85.4217 165.921 85.381 166.024 85.3078 166.101C85.2211 166.175 85.1094 166.212 84.9959 166.206Z" fill="#26225B"/>
<path d="M54.9618 98.8259C44.0578 122.186 77.4844 147.906 77.4844 147.906L57.483 162.867C57.483 162.867 30.6066 140.041 29.229 124.599L54.9618 98.8259Z" fill="#C42128"/>
<path d="M89.22 36.52C89.22 36.52 76.4965 39.8199 75.7298 24.2858C74.963 8.75172 99.825 3.14327 105.621 9.63863C111.418 16.134 89.22 36.52 89.22 36.52Z" fill="#26225B"/>
<path d="M90.4154 57.7931C92.4835 57.7931 94.4669 56.9686 95.9293 55.501C97.3916 54.0334 98.2132 52.0429 98.2132 49.9674V24.299H82.5656V49.9152C82.5587 50.9517 82.757 51.9792 83.1491 52.9381C83.5411 53.897 84.1191 54.7682 84.8494 55.5012C85.5797 56.2341 86.4478 56.8141 87.4033 57.2075C88.3588 57.601 89.3826 57.8 90.4154 57.7931Z" fill="white"/>
<path d="M90.4156 58.1973C88.2267 58.1939 86.1282 57.3206 84.5792 55.7685C83.0302 54.2164 82.1568 52.1118 82.1499 49.9151V24.2989C82.1499 24.1916 82.1923 24.0888 82.2679 24.013C82.3435 23.9371 82.4459 23.8945 82.5528 23.8945H98.2654C98.3183 23.8945 98.3707 23.905 98.4196 23.9253C98.4684 23.9456 98.5128 23.9754 98.5503 24.013C98.5877 24.0505 98.6173 24.0951 98.6376 24.1441C98.6578 24.1932 98.6683 24.2458 98.6683 24.2989V49.9151C98.6648 52.1106 97.7942 54.2152 96.2473 55.7677C94.7004 57.3202 92.6033 58.1939 90.4156 58.1973ZM82.9687 24.7032V49.9151C82.9687 51.8972 83.7533 53.7981 85.1498 55.1997C86.5464 56.6013 88.4405 57.3887 90.4156 57.3887C92.3906 57.3887 94.2848 56.6013 95.6813 55.1997C97.0779 53.7981 97.8625 51.8972 97.8625 49.9151V24.7032H82.9687Z" fill="#26225B"/>
<path d="M77.0422 25.5772C76.9863 26.2438 77.0837 26.9144 77.3268 27.5373C77.57 28.1602 77.9524 28.7188 78.4446 29.1699C78.9369 29.6211 79.5257 29.9528 80.1659 30.1394C80.806 30.3261 81.4803 30.3627 82.1368 30.2465C82.3012 31.8207 82.7879 33.3437 83.5664 34.7203C84.8118 36.9517 86.7493 38.7138 89.0842 39.7387C91.4192 40.7635 94.0238 40.995 96.5018 40.398C98.9799 39.8009 101.196 38.4079 102.813 36.4309C104.429 34.4539 105.359 32.001 105.459 29.4454C105.559 26.8898 104.825 24.3712 103.368 22.2728C101.911 20.1743 99.811 18.6109 97.3874 17.8202C94.9637 17.0295 92.3491 17.0548 89.9411 17.8923C87.5331 18.7298 85.4636 20.3337 84.0472 22.4599C83.426 21.9776 82.6864 21.6728 81.9066 21.578C81.1269 21.4832 80.3361 21.6018 79.6181 21.9213C78.9001 22.2408 78.2815 22.7493 77.8281 23.393C77.3746 24.0366 77.103 24.7913 77.0422 25.5772Z" fill="white"/>
<path d="M93.704 41.059C93.3835 41.059 93.0585 41.059 92.7293 41.059C90.7575 40.8987 88.855 40.2547 87.1894 39.1835C85.5237 38.1123 84.1459 36.6468 83.177 34.9158C82.4403 33.6144 81.9553 32.185 81.7474 30.7029C81.4875 30.7029 81.2275 30.7029 80.9676 30.7029C79.7209 30.5837 78.5713 29.9759 77.7684 29.0113C76.9655 28.0468 76.574 26.8034 76.6788 25.551C76.7405 24.7275 77.014 23.9343 77.4725 23.2486C77.931 22.563 78.5589 22.0084 79.2949 21.6391C80.0308 21.2699 80.8496 21.0985 81.6713 21.1417C82.4929 21.185 83.2894 21.4414 83.9828 21.8859C85.1911 20.2081 86.8084 18.8697 88.6799 17.9989C90.5513 17.1282 92.6142 16.7543 94.6709 16.913C96.7276 17.0718 98.7093 17.7578 100.426 18.9055C102.143 20.0531 103.537 21.624 104.476 23.4675C105.414 25.311 105.865 27.3655 105.786 29.4341C105.706 31.5028 105.099 33.5163 104.022 35.2818C102.945 37.0473 101.434 38.5057 99.634 39.5173C97.8342 40.5288 95.8058 41.0597 93.743 41.059H93.704ZM82.1373 29.8421C82.2217 29.8421 82.3037 29.8695 82.3712 29.9203C82.4167 29.9507 82.4544 29.9912 82.4815 30.0388C82.5085 30.0863 82.5242 30.1395 82.5272 30.1942C82.7213 31.9444 83.3215 33.6246 84.2795 35.1C85.2376 36.5754 86.5268 37.8049 88.0439 38.6899C89.5609 39.5749 91.2635 40.0908 93.0151 40.1962C94.7667 40.3016 96.5185 39.9935 98.13 39.2968C99.7415 38.6 101.168 37.5339 102.295 36.1839C103.422 34.834 104.217 33.2378 104.619 31.5234C105.02 29.8091 105.015 28.0242 104.605 26.312C104.194 24.5998 103.39 23.008 102.256 21.6642C101.132 20.3392 99.7177 19.2933 98.1238 18.6086C96.53 17.9238 94.7998 17.6187 93.0688 17.7173C91.3378 17.8158 89.6531 18.3153 88.1466 19.1766C86.6402 20.0378 85.3529 21.2375 84.3857 22.6815C84.3181 22.7718 84.2218 22.8362 84.1127 22.8641C84.0573 22.8732 84.0004 22.8697 83.9465 22.8539C83.8925 22.8381 83.8427 22.8104 83.8008 22.7728C83.1937 22.31 82.4681 22.0296 81.7084 21.9642C81.1879 21.9142 80.6626 21.9698 80.1639 22.1277C79.6652 22.2856 79.2033 22.5425 78.8056 22.8833C78.4079 23.224 78.0825 23.6415 77.8489 24.111C77.6152 24.5805 77.4781 25.0924 77.4456 25.6162C77.4009 26.1371 77.4607 26.6617 77.6214 27.159C77.7821 27.6563 78.0405 28.1163 78.3814 28.5117C79.0619 29.3099 80.0285 29.8067 81.0716 29.8942C81.3992 29.9405 81.7317 29.9405 82.0593 29.8942L82.1373 29.8421Z" fill="#26225B"/>
<path d="M83.5145 28.1987C83.4076 28.1987 83.3051 28.1561 83.2296 28.0803C83.154 28.0044 83.1116 27.9016 83.1116 27.7944C83.1039 27.3127 82.9241 26.8498 82.6047 26.4901C82.4393 26.3487 82.2465 26.2433 82.0385 26.1804C81.8305 26.1176 81.6117 26.0987 81.3961 26.1249C81.2879 26.1285 81.1826 26.0896 81.1025 26.0166C81.0224 25.9435 80.9739 25.842 80.9672 25.7336C80.9637 25.6811 80.9707 25.6285 80.9879 25.5789C81.0051 25.5292 81.0321 25.4835 81.0673 25.4446C81.1025 25.4056 81.1451 25.3742 81.1927 25.3521C81.2402 25.3301 81.2917 25.3179 81.3441 25.3162C81.6735 25.2781 82.0073 25.3107 82.3232 25.4119C82.6391 25.5131 82.93 25.6806 83.1766 25.9032C83.6521 26.4278 83.9162 27.1112 83.9173 27.8205C83.9157 27.8718 83.9039 27.9224 83.8827 27.9692C83.8616 28.0161 83.8314 28.0582 83.794 28.0934C83.7566 28.1285 83.7126 28.1559 83.6647 28.174C83.6167 28.192 83.5657 28.2004 83.5145 28.1987Z" fill="#2D71F0"/>
<path d="M331.199 77.2921H112.821V287.674H331.199V77.2921Z" fill="#756FBF"/>
<g clip-path="url(#clip1)">
<path d="M223.175 175.398L210.489 164.237L174.219 195.49C175.538 196.72 177.317 197.486 179.28 197.486H267.069C269.025 197.486 270.797 196.72 272.108 195.49L235.86 164.237L223.175 175.398Z" fill="white"/>
<path d="M272.13 125.857C270.812 124.62 269.039 123.862 267.069 123.862H179.28C177.325 123.862 175.552 124.627 174.234 125.872L223.175 168.036L272.13 125.857Z" fill="white"/>
<path d="M171.905 130.326V191.493L207.303 161.255L171.905 130.326Z" fill="white"/>
<path d="M239.046 161.255L274.445 191.493V130.304L239.046 161.255Z" fill="white"/>
</g>
<path d="M156.645 69.6621L156.774 81.9094L172.045 81.8311L172.37 69.7795L156.645 69.6621Z" fill="white"/>
<path d="M156.775 82.3137C156.723 82.3154 156.67 82.3066 156.622 82.2877C156.573 82.2689 156.528 82.2403 156.491 82.2038C156.453 82.1673 156.423 82.1236 156.403 82.0752C156.382 82.0269 156.372 81.9749 156.372 81.9224L156.229 69.6621C156.233 69.5531 156.28 69.4501 156.359 69.3751C156.395 69.335 156.439 69.3035 156.488 69.2832C156.538 69.2628 156.591 69.2541 156.645 69.2578L172.37 69.3751C172.423 69.3749 172.476 69.3851 172.525 69.4052C172.574 69.4254 172.619 69.455 172.656 69.4925C172.695 69.5323 172.725 69.5792 172.745 69.6307C172.765 69.6822 172.775 69.7372 172.773 69.7925L172.448 81.8441C172.448 81.9479 172.407 82.0474 172.334 82.1208C172.261 82.1942 172.162 82.2354 172.059 82.2354L156.775 82.3137ZM157.048 70.0664L157.165 81.505L171.656 81.4268L171.955 70.1838L157.048 70.0664Z" fill="#26225B"/>
<path d="M159.855 82.1702C159.749 82.1635 159.65 82.1166 159.578 82.0391C159.505 81.9615 159.465 81.8591 159.465 81.7528L159.673 73.8619C159.673 73.7546 159.716 73.6518 159.791 73.5759C159.867 73.5001 159.969 73.4575 160.076 73.4575C160.129 73.4592 160.181 73.4713 160.229 73.4932C160.278 73.5151 160.321 73.5463 160.357 73.5851C160.394 73.6239 160.422 73.6694 160.44 73.7191C160.459 73.7689 160.468 73.8218 160.466 73.8749L160.258 81.7789C160.255 81.8839 160.211 81.9834 160.136 82.0564C160.06 82.1294 159.96 82.1702 159.855 82.1702Z" fill="#26225B"/>
<path d="M163.962 81.7139C163.909 81.7122 163.857 81.7 163.809 81.6781C163.76 81.6562 163.717 81.625 163.681 81.5863C163.645 81.5475 163.616 81.502 163.598 81.4522C163.579 81.4025 163.57 81.3496 163.572 81.2965L163.78 73.4707C163.78 73.3635 163.822 73.2607 163.898 73.1848C163.973 73.109 164.076 73.0664 164.183 73.0664C164.236 73.0681 164.288 73.0802 164.336 73.1021C164.384 73.124 164.428 73.1552 164.464 73.194C164.5 73.2328 164.528 73.2783 164.547 73.328C164.566 73.3777 164.574 73.4307 164.573 73.4838L164.365 81.3878C164.349 81.4822 164.299 81.5675 164.225 81.6276C164.151 81.6877 164.057 81.7184 163.962 81.7139Z" fill="#26225B"/>
<path d="M168.056 81.6354C168.002 81.6355 167.948 81.6246 167.899 81.6035C167.849 81.5823 167.804 81.5514 167.766 81.5124C167.729 81.4735 167.699 81.4274 167.68 81.3768C167.66 81.3262 167.651 81.2723 167.653 81.2181L167.861 73.3271C167.857 73.2718 167.865 73.2163 167.885 73.1645C167.904 73.1127 167.935 73.0658 167.975 73.0272C168.014 72.9887 168.062 72.9593 168.114 72.9413C168.166 72.9232 168.222 72.9169 168.277 72.9228C168.33 72.9245 168.382 72.9366 168.43 72.9585C168.478 72.9804 168.522 73.0116 168.558 73.0504C168.594 73.0891 168.622 73.1347 168.641 73.1844C168.66 73.2341 168.668 73.2871 168.667 73.3402L168.459 81.2442C168.459 81.2967 168.448 81.3486 168.428 81.397C168.408 81.4453 168.378 81.489 168.34 81.5256C168.302 81.5621 168.258 81.5906 168.209 81.6095C168.16 81.6284 168.108 81.6372 168.056 81.6354Z" fill="#26225B"/>
<path d="M77.4839 148.311C77.3958 148.309 77.31 148.282 77.237 148.232C76.8991 147.972 43.6804 122.029 54.5974 98.6695C54.6478 98.5822 54.7289 98.5171 54.8248 98.4868C54.9206 98.4565 55.0243 98.4633 55.1155 98.5057C55.2066 98.5482 55.2786 98.6233 55.3174 98.7164C55.3562 98.8094 55.359 98.9136 55.3252 99.0086C44.6812 121.794 77.4189 147.345 77.7309 147.593C77.8153 147.66 77.8706 147.757 77.8852 147.864C77.8997 147.971 77.8724 148.08 77.8088 148.167C77.7699 148.215 77.7201 148.253 77.6636 148.278C77.6071 148.303 77.5455 148.314 77.4839 148.311Z" fill="white"/>
<path d="M271.429 242.526H174.921V254.653H271.429V242.526Z" fill="#26225B"/>
<path d="M298.136 61.9538C315.076 61.9538 328.808 48.1726 328.808 31.1726C328.808 14.1726 315.076 0.391357 298.136 0.391357C281.197 0.391357 267.465 14.1726 267.465 31.1726C267.465 48.1726 281.197 61.9538 298.136 61.9538Z" fill="white"/>
<path d="M297.85 62.3581C295.117 62.338 292.398 61.952 289.767 61.2104C289.715 61.1967 289.667 61.1731 289.625 61.1408C289.583 61.1085 289.548 61.0681 289.521 61.0221C289.494 60.9761 289.477 60.9252 289.47 60.8725C289.463 60.8197 289.467 60.7661 289.481 60.7147C289.514 60.6117 289.584 60.525 289.678 60.4718C289.772 60.4186 289.883 60.4029 289.987 60.4278C292.548 61.1471 295.192 61.5242 297.85 61.5495C297.957 61.5495 298.06 61.5921 298.135 61.6679C298.211 61.7437 298.253 61.8466 298.253 61.9538C298.253 62.061 298.211 62.1639 298.135 62.2397C298.06 62.3155 297.957 62.3581 297.85 62.3581ZM301.879 62.1364C301.78 62.1341 301.684 62.0959 301.61 62.0289C301.536 61.9618 301.489 61.8704 301.476 61.7712C301.469 61.7188 301.472 61.6654 301.486 61.6143C301.5 61.5632 301.524 61.5155 301.557 61.4741C301.59 61.4326 301.631 61.3983 301.677 61.3731C301.724 61.348 301.775 61.3325 301.827 61.3277C304.469 61.0025 307.056 60.3271 309.521 59.3191C309.623 59.2839 309.734 59.2884 309.833 59.3319C309.932 59.3755 310.011 59.4547 310.054 59.5539C310.093 59.6526 310.091 59.7625 310.05 59.8601C310.008 59.9577 309.931 60.0351 309.833 60.0756C307.301 61.1074 304.644 61.796 301.931 62.1234L301.879 62.1364ZM286.063 59.88H285.907C283.394 58.7949 281.034 57.3829 278.889 55.6802C278.847 55.6483 278.812 55.6082 278.786 55.5624C278.76 55.5166 278.743 55.466 278.737 55.4136C278.731 55.3613 278.735 55.3082 278.75 55.2576C278.765 55.207 278.79 55.16 278.824 55.1193C278.857 55.0769 278.898 55.0415 278.944 55.0152C278.991 54.9889 279.043 54.9722 279.096 54.9662C279.149 54.9601 279.203 54.9647 279.254 54.9798C279.306 54.9949 279.354 55.0202 279.395 55.0541C281.482 56.7056 283.776 58.0739 286.219 59.1235C286.308 59.1572 286.383 59.2218 286.429 59.3057C286.475 59.3895 286.491 59.4872 286.472 59.5813C286.453 59.6753 286.402 59.7597 286.327 59.8192C286.252 59.8787 286.158 59.9095 286.063 59.9061V59.88ZM313.355 58.3409C313.283 58.3393 313.214 58.3193 313.152 58.2827C313.091 58.2462 313.04 58.1943 313.004 58.1322C312.953 58.0387 312.94 57.9287 312.97 57.8261C312.999 57.7235 313.067 57.6366 313.16 57.5844C315.466 56.2533 317.593 54.6315 319.489 52.7586C319.565 52.6825 319.668 52.6397 319.775 52.6397C319.882 52.6397 319.985 52.6825 320.061 52.7586C320.137 52.8347 320.179 52.9379 320.179 53.0455C320.179 53.1531 320.137 53.2563 320.061 53.3324C318.118 55.26 315.934 56.9261 313.563 58.2887C313.481 58.325 313.392 58.3428 313.303 58.3409H313.355ZM276.198 53.0325C276.145 53.0327 276.093 53.0225 276.044 53.0024C275.995 52.9822 275.95 52.9526 275.912 52.9151C274.011 50.9614 272.368 48.7694 271.026 46.3936C270.974 46.2985 270.962 46.1867 270.993 46.0827C271.023 45.9787 271.093 45.8912 271.188 45.8393C271.283 45.7874 271.394 45.7754 271.498 45.806C271.602 45.8366 271.689 45.9072 271.741 46.0023C273.035 48.333 274.63 50.4819 276.484 52.3934C276.522 52.4309 276.552 52.4756 276.572 52.5249C276.593 52.5741 276.603 52.627 276.603 52.6803C276.603 52.7336 276.593 52.7865 276.572 52.8357C276.552 52.885 276.522 52.9297 276.484 52.9672C276.436 53.0025 276.381 53.0266 276.323 53.0379C276.264 53.0492 276.204 53.0473 276.146 53.0325H276.198ZM322.452 50.4239C322.364 50.4258 322.277 50.3983 322.205 50.3456C322.121 50.2787 322.066 50.1815 322.051 50.0745C322.037 49.9674 322.064 49.8589 322.127 49.7717C323.757 47.6626 325.103 45.3472 326.13 42.8851C326.15 42.835 326.18 42.7894 326.218 42.751C326.256 42.7126 326.301 42.6822 326.35 42.6615C326.4 42.6409 326.453 42.6304 326.507 42.6307C326.561 42.631 326.614 42.6421 326.663 42.6634C326.762 42.7065 326.84 42.7863 326.881 42.8861C326.922 42.9858 326.923 43.0976 326.884 43.1981C325.825 45.7254 324.44 48.1022 322.764 50.2674C322.722 50.3213 322.665 50.363 322.602 50.3882C322.538 50.4134 322.468 50.4212 322.4 50.4108L322.452 50.4239ZM269.661 42.8981C269.581 42.9011 269.501 42.8788 269.433 42.8344C269.366 42.79 269.314 42.7257 269.284 42.6503C268.283 40.1005 267.619 37.4301 267.309 34.7072C267.298 34.5984 267.33 34.4897 267.398 34.4043C267.466 34.319 267.565 34.2638 267.673 34.2507C267.726 34.2434 267.78 34.2473 267.832 34.262C267.884 34.2768 267.932 34.3021 267.973 34.3364C268.015 34.3707 268.049 34.4132 268.073 34.4613C268.097 34.5094 268.111 34.562 268.115 34.6159C268.409 37.2687 269.056 39.8699 270.038 42.3503C270.057 42.4 270.066 42.4529 270.064 42.506C270.063 42.5591 270.051 42.6114 270.029 42.6599C270.007 42.7083 269.976 42.752 269.938 42.7884C269.899 42.8248 269.854 42.8532 269.804 42.8721C269.743 42.8992 269.674 42.9039 269.609 42.8851L269.661 42.8981ZM327.807 39.6113H327.703C327.652 39.5977 327.604 39.5741 327.561 39.5418C327.519 39.5094 327.484 39.4691 327.457 39.4231C327.431 39.377 327.414 39.3262 327.407 39.2734C327.4 39.2207 327.403 39.1671 327.417 39.1157C328.109 36.5385 328.459 33.8808 328.457 31.2117C328.457 31.1045 328.499 31.0016 328.575 30.9258C328.65 30.85 328.753 30.8074 328.86 30.8074C328.966 30.8074 329.069 30.85 329.144 30.9258C329.22 31.0016 329.262 31.1045 329.262 31.2117C329.268 33.9557 328.909 36.6882 328.197 39.3374C328.165 39.4256 328.103 39.4999 328.022 39.5475C327.942 39.5951 327.847 39.613 327.755 39.5983L327.807 39.6113ZM267.53 31.0161C267.477 31.0144 267.425 31.0022 267.377 30.9804C267.328 30.9585 267.285 30.9272 267.249 30.8885C267.212 30.8497 267.184 30.8042 267.166 30.7544C267.147 30.7047 267.138 30.6518 267.14 30.5987C267.182 27.8569 267.588 25.133 268.349 22.4991C268.381 22.3966 268.453 22.3109 268.547 22.2599C268.642 22.2088 268.752 22.1964 268.855 22.2252C268.957 22.2583 269.043 22.3297 269.094 22.4244C269.145 22.5192 269.157 22.6301 269.128 22.7338C268.388 25.2777 267.99 27.9097 267.946 30.5596C267.95 30.6212 267.941 30.683 267.918 30.7406C267.896 30.7982 267.861 30.8501 267.816 30.8925C267.772 30.9349 267.718 30.9668 267.659 30.986C267.601 31.0051 267.539 31.0109 267.478 31.003L267.53 31.0161ZM328.678 28.6944C328.577 28.6949 328.48 28.6577 328.406 28.5902C328.331 28.5226 328.284 28.4296 328.275 28.3292C328.033 25.6524 327.434 23.0203 326.494 20.5035C326.46 20.4014 326.467 20.2901 326.513 20.1929C326.559 20.0956 326.641 20.02 326.741 19.9818C326.791 19.9629 326.843 19.954 326.896 19.9556C326.949 19.9572 327.001 19.9692 327.05 19.991C327.098 20.0128 327.141 20.044 327.178 20.0827C327.214 20.1214 327.242 20.1669 327.261 20.2166C328.209 22.7871 328.821 25.4702 329.081 28.1988C329.086 28.2519 329.081 28.3056 329.065 28.3568C329.05 28.4079 329.025 28.4554 328.991 28.4967C328.957 28.5379 328.915 28.572 328.868 28.597C328.821 28.622 328.77 28.6374 328.717 28.6423L328.678 28.6944ZM270.051 19.2123C269.995 19.2242 269.938 19.2242 269.882 19.2123C269.788 19.1644 269.715 19.0834 269.676 18.9847C269.638 18.8861 269.637 18.7767 269.674 18.6775C270.778 16.1698 272.207 13.8191 273.924 11.6865C273.957 11.6441 273.998 11.6087 274.045 11.5824C274.091 11.5561 274.143 11.5394 274.196 11.5333C274.249 11.5273 274.303 11.5319 274.355 11.547C274.406 11.5621 274.454 11.5874 274.496 11.6213C274.534 11.6589 274.563 11.7036 274.584 11.7528C274.604 11.8021 274.615 11.8549 274.615 11.9082C274.615 11.9616 274.604 12.0144 274.584 12.0637C274.563 12.1129 274.534 12.1576 274.496 12.1952C272.83 14.2753 271.441 16.5639 270.363 19.0036C270.331 19.0594 270.286 19.1065 270.231 19.1406C270.177 19.1748 270.115 19.1949 270.051 19.1992V19.2123ZM325.221 17.1254C325.16 17.1211 325.1 17.1037 325.046 17.0745C324.993 17.0453 324.946 17.0048 324.909 16.9558C323.66 14.5869 322.104 12.394 320.282 10.4344C320.244 10.3968 320.214 10.3521 320.194 10.3029C320.173 10.2536 320.163 10.2008 320.163 10.1475C320.163 10.0941 320.173 10.0413 320.194 9.99204C320.214 9.94279 320.244 9.89809 320.282 9.86051C320.319 9.82265 320.364 9.7926 320.413 9.7721C320.462 9.75159 320.515 9.74104 320.568 9.74104C320.621 9.74104 320.674 9.75159 320.723 9.7721C320.772 9.7926 320.816 9.82265 320.854 9.86051C322.716 11.8619 324.31 14.098 325.597 16.5124C325.624 16.559 325.641 16.6107 325.647 16.6642C325.653 16.7177 325.648 16.7718 325.632 16.8232C325.616 16.8747 325.59 16.9222 325.555 16.963C325.52 17.0038 325.477 17.0369 325.429 17.0602C325.368 17.1028 325.294 17.1214 325.221 17.1124V17.1254ZM276.965 9.29966C276.912 9.29994 276.86 9.28971 276.81 9.26956C276.761 9.24942 276.717 9.21976 276.679 9.18228C276.641 9.14469 276.612 9.09999 276.591 9.05074C276.571 9.0015 276.56 8.94868 276.56 8.89533C276.56 8.84199 276.571 8.78917 276.591 8.73992C276.612 8.69068 276.641 8.64597 276.679 8.60839C278.674 6.71216 280.906 5.08544 283.32 3.76948C283.367 3.74449 283.419 3.72905 283.471 3.72405C283.524 3.71905 283.578 3.72459 283.628 3.74035C283.679 3.7561 283.726 3.78177 283.767 3.81587C283.808 3.84997 283.842 3.89183 283.866 3.93904C283.917 4.03252 283.93 4.14257 283.901 4.24519C283.871 4.3478 283.803 4.43467 283.71 4.48684C281.371 5.76238 279.212 7.34589 277.29 9.19532C277.247 9.23629 277.196 9.26697 277.14 9.28505C277.083 9.30312 277.024 9.30812 276.965 9.29966ZM317.579 7.82582C317.534 7.82795 317.488 7.82097 317.446 7.80528C317.404 7.7896 317.365 7.76554 317.332 7.73452C315.287 6.02547 313.028 4.59168 310.613 3.46949C310.557 3.45386 310.505 3.42634 310.461 3.38881C310.417 3.35128 310.381 3.30462 310.356 3.25202C310.332 3.19942 310.319 3.14211 310.318 3.08399C310.318 3.02587 310.33 2.96832 310.353 2.91525C310.377 2.86218 310.412 2.81484 310.455 2.77646C310.498 2.73807 310.55 2.70955 310.605 2.69283C310.661 2.67611 310.719 2.67159 310.776 2.67958C310.834 2.68756 310.889 2.70786 310.938 2.73909C313.433 3.8609 315.767 5.31286 317.878 7.05629C317.915 7.09387 317.945 7.13857 317.966 7.18782C317.986 7.23707 317.997 7.28989 317.997 7.34323C317.997 7.39658 317.986 7.44939 317.966 7.49864C317.945 7.54789 317.915 7.59259 317.878 7.63017C317.845 7.683 317.802 7.72797 317.75 7.76181C317.698 7.79565 317.64 7.81751 317.579 7.82582ZM287.128 2.84344C287.047 2.84173 286.968 2.81611 286.901 2.76974C286.834 2.72337 286.782 2.6583 286.751 2.58258C286.733 2.53291 286.724 2.48001 286.725 2.4269C286.727 2.37379 286.739 2.32151 286.761 2.27306C286.782 2.22461 286.813 2.18093 286.852 2.14452C286.89 2.10811 286.936 2.07968 286.985 2.06086C289.535 1.0705 292.206 0.429962 294.926 0.1566C295.031 0.145542 295.136 0.176235 295.219 0.242084C295.301 0.307933 295.355 0.403683 295.368 0.508758C295.379 0.617517 295.347 0.726265 295.279 0.811628C295.211 0.89699 295.112 0.952153 295.004 0.965259C292.36 1.23222 289.763 1.85518 287.284 2.81735L287.128 2.84344ZM306.961 2.08695H306.844C304.312 1.31223 301.691 0.873739 299.046 0.782659C298.938 0.779269 298.835 0.733804 298.76 0.655896C298.685 0.577988 298.643 0.473757 298.643 0.365286C298.65 0.259175 298.696 0.159599 298.774 0.0868827C298.851 0.0141665 298.953 -0.026208 299.059 -0.0260002C301.79 0.0526914 304.499 0.491208 307.117 1.27829C307.212 1.30311 307.294 1.36192 307.349 1.44366C307.404 1.5254 307.427 1.62444 307.415 1.72216C307.402 1.81988 307.354 1.90956 307.28 1.97433C307.206 2.03911 307.111 2.07452 307.013 2.0739L306.961 2.08695Z" fill="#26225B"/>
<path d="M379.597 288H18.2989C18.192 288 18.0896 287.957 18.014 287.882C17.9384 287.806 17.896 287.703 17.896 287.596C17.896 287.488 17.9384 287.386 18.014 287.31C18.0896 287.234 18.192 287.191 18.2989 287.191H379.597C379.704 287.191 379.807 287.234 379.882 287.31C379.958 287.386 380 287.488 380 287.596C380 287.703 379.958 287.806 379.882 287.882C379.807 287.957 379.704 288 379.597 288Z" fill="#26225B"/>
<path d="M347.769 287.596H294.276L286.998 227.807H355.034L347.769 287.596Z" fill="#26225B"/>
<path d="M359.57 227.807H282.476V241.437H359.57V227.807Z" fill="white"/>
<path d="M359.57 241.841H282.476C282.369 241.841 282.266 241.798 282.191 241.723C282.115 241.647 282.073 241.544 282.073 241.437V227.807C282.073 227.7 282.115 227.597 282.191 227.521C282.266 227.445 282.369 227.403 282.476 227.403H359.57C359.677 227.403 359.779 227.445 359.855 227.521C359.93 227.597 359.973 227.7 359.973 227.807V241.437C359.973 241.544 359.93 241.647 359.855 241.723C359.779 241.798 359.677 241.841 359.57 241.841ZM282.892 241.032H359.18V228.25H282.892V241.032Z" fill="#26225B"/>
<path d="M321.009 228.25C320.902 228.25 320.8 228.208 320.724 228.132C320.649 228.056 320.606 227.953 320.606 227.846V166.949C320.606 166.842 320.649 166.739 320.724 166.663C320.8 166.587 320.902 166.545 321.009 166.545C321.116 166.545 321.219 166.587 321.294 166.663C321.37 166.739 321.412 166.842 321.412 166.949V227.872C321.406 227.975 321.36 228.071 321.285 228.141C321.211 228.212 321.112 228.251 321.009 228.25Z" fill="#2D71F0"/>
<path d="M321.023 195.63C339.728 195.63 354.891 180.413 354.891 161.64C354.891 142.868 339.728 127.651 321.023 127.651C302.318 127.651 287.154 142.868 287.154 161.64C287.154 180.413 302.318 195.63 321.023 195.63Z" fill="white"/>
<path d="M321.009 196.035C314.231 196.037 307.603 194.022 301.966 190.244C296.328 186.467 291.934 181.096 289.338 174.812C286.742 168.527 286.061 161.611 287.382 154.938C288.703 148.266 291.966 142.136 296.758 137.325C301.551 132.513 307.657 129.236 314.306 127.908C320.954 126.58 327.845 127.26 334.109 129.863C340.372 132.466 345.725 136.874 349.491 142.531C353.258 148.187 355.268 154.837 355.268 161.64C355.257 170.757 351.645 179.497 345.223 185.945C338.801 192.392 330.093 196.021 321.009 196.035ZM321.009 128.068C314.389 128.065 307.917 130.033 302.412 133.723C296.907 137.412 292.615 142.657 290.081 148.795C287.546 154.932 286.882 161.686 288.173 168.202C289.464 174.719 292.652 180.704 297.333 185.402C302.014 190.1 307.978 193.299 314.471 194.594C320.964 195.89 327.694 195.223 333.809 192.68C339.925 190.136 345.151 185.83 348.827 180.304C352.504 174.779 354.465 168.284 354.462 161.64C354.448 152.741 350.919 144.209 344.649 137.916C338.378 131.623 329.877 128.082 321.009 128.068Z" fill="#2D71F0"/>
<path d="M340.259 180.952C350.887 170.286 350.887 152.993 340.259 142.327C329.631 131.661 312.4 131.661 301.772 142.327C291.144 152.993 291.144 170.286 301.772 180.952C312.4 191.618 329.631 191.618 340.259 180.952Z" fill="#C42128"/>
<path d="M321.01 189.356C315.548 189.356 310.208 187.731 305.667 184.685C301.125 181.64 297.585 177.311 295.495 172.247C293.405 167.182 292.858 161.61 293.923 156.233C294.989 150.857 297.619 145.918 301.481 142.042C305.344 138.166 310.265 135.526 315.622 134.457C320.979 133.387 326.532 133.936 331.578 136.034C336.625 138.132 340.938 141.684 343.973 146.242C347.007 150.8 348.627 156.159 348.627 161.64C348.62 168.989 345.708 176.035 340.531 181.231C335.353 186.427 328.332 189.35 321.01 189.356ZM321.01 134.733C315.703 134.73 310.515 136.307 306.102 139.264C301.689 142.221 298.249 146.426 296.217 151.345C294.185 156.265 293.653 161.679 294.687 166.902C295.722 172.125 298.277 176.923 302.029 180.689C305.781 184.455 310.562 187.019 315.767 188.057C320.971 189.096 326.366 188.561 331.268 186.522C336.17 184.483 340.359 181.031 343.306 176.601C346.252 172.172 347.824 166.966 347.821 161.64C347.811 154.507 344.983 147.669 339.957 142.625C334.931 137.581 328.117 134.743 321.01 134.733Z" fill="#2D71F0"/>
<path d="M321.01 227.664C321.01 227.664 321.01 201.747 294.822 198.539C292.652 220.151 321.01 227.664 321.01 227.664Z" fill="#26225B"/>
<path d="M314.824 220.308C314.721 220.306 314.623 220.264 314.551 220.19L300.086 206.078C300.048 206.04 300.018 205.995 299.998 205.946C299.977 205.897 299.967 205.844 299.967 205.791C299.967 205.737 299.977 205.685 299.998 205.635C300.018 205.586 300.048 205.541 300.086 205.504C300.163 205.43 300.265 205.39 300.372 205.39C300.478 205.39 300.58 205.43 300.658 205.504L315.11 219.668C315.147 219.706 315.177 219.751 315.198 219.8C315.218 219.849 315.229 219.902 315.229 219.955C315.229 220.009 315.218 220.062 315.198 220.111C315.177 220.16 315.147 220.205 315.11 220.242C315.024 220.296 314.924 220.319 314.824 220.308Z" fill="white"/>
<path d="M321.14 227.95C321.14 227.95 321.14 202.047 347.34 198.826C349.511 220.425 321.14 227.95 321.14 227.95Z" fill="#26225B"/>
<path d="M327.339 220.594C327.228 220.593 327.122 220.551 327.04 220.477C327.002 220.439 326.972 220.395 326.952 220.345C326.931 220.296 326.921 220.243 326.921 220.19C326.921 220.137 326.931 220.084 326.952 220.035C326.972 219.985 327.002 219.941 327.04 219.903L341.492 205.739C341.528 205.699 341.573 205.668 341.622 205.646C341.671 205.624 341.724 205.613 341.778 205.613C341.831 205.613 341.885 205.624 341.934 205.646C341.983 205.668 342.027 205.699 342.064 205.739C342.101 205.776 342.131 205.821 342.152 205.87C342.172 205.919 342.183 205.972 342.183 206.025C342.183 206.079 342.172 206.132 342.152 206.181C342.131 206.23 342.101 206.275 342.064 206.312L327.612 220.425C327.581 220.471 327.541 220.51 327.494 220.539C327.446 220.568 327.394 220.587 327.339 220.594Z" fill="white"/>
<path d="M344.325 122.381C344.261 122.399 344.194 122.399 344.13 122.381C344.037 122.329 343.969 122.242 343.94 122.14C343.91 122.037 343.923 121.927 343.974 121.834C345.209 119.452 346.252 116.974 347.093 114.425C347.111 114.374 347.138 114.328 347.174 114.287C347.21 114.247 347.253 114.215 347.301 114.192C347.35 114.169 347.402 114.155 347.456 114.153C347.509 114.151 347.563 114.159 347.613 114.177C347.663 114.194 347.71 114.22 347.75 114.254C347.789 114.289 347.822 114.331 347.845 114.379C347.868 114.426 347.881 114.478 347.884 114.531C347.886 114.584 347.878 114.636 347.86 114.686C347.011 117.284 345.946 119.806 344.676 122.225C344.636 122.279 344.583 122.322 344.521 122.349C344.46 122.377 344.392 122.388 344.325 122.381ZM348.666 111.034H348.562C348.511 111.02 348.463 110.997 348.42 110.964C348.378 110.932 348.343 110.892 348.316 110.846C348.29 110.8 348.273 110.749 348.266 110.696C348.259 110.643 348.262 110.59 348.276 110.538C348.974 107.943 349.49 105.302 349.823 102.634C349.836 102.527 349.892 102.43 349.977 102.364C350.063 102.298 350.171 102.268 350.277 102.282C350.384 102.296 350.481 102.352 350.547 102.438C350.613 102.523 350.642 102.632 350.628 102.739C350.288 105.441 349.762 108.117 349.056 110.747C349.029 110.83 348.977 110.902 348.907 110.953C348.837 111.005 348.753 111.033 348.666 111.034ZM350.563 99.0346C350.51 99.0329 350.458 99.0208 350.41 98.9989C350.362 98.977 350.318 98.9458 350.282 98.907C350.246 98.8683 350.218 98.8227 350.199 98.773C350.18 98.7233 350.172 98.6703 350.173 98.6172C350.173 97.926 350.173 97.2347 350.173 96.5304C350.171 94.5454 350.037 92.5628 349.771 90.5959C349.763 90.5427 349.767 90.4886 349.78 90.4368C349.794 90.3849 349.818 90.3363 349.851 90.2938C349.883 90.2513 349.924 90.2158 349.971 90.1893C350.017 90.1628 350.068 90.1458 350.121 90.1394C350.175 90.1301 350.229 90.1321 350.282 90.1451C350.334 90.1582 350.383 90.182 350.426 90.2151C350.469 90.2482 350.504 90.2899 350.53 90.3375C350.556 90.3851 350.572 90.4375 350.576 90.4915C350.843 92.4934 350.977 94.5107 350.979 96.5304C350.979 97.2477 350.979 97.9521 350.979 98.6433C350.978 98.6964 350.965 98.7487 350.944 98.7971C350.922 98.8455 350.891 98.8891 350.852 98.9255C350.813 98.9618 350.768 98.9902 350.719 99.0089C350.669 99.0276 350.616 99.0364 350.563 99.0346ZM349.472 86.9569C349.38 86.9587 349.291 86.9284 349.22 86.8712C349.149 86.814 349.1 86.7336 349.082 86.6439C348.481 84.0423 347.61 81.5111 346.482 79.092C346.456 78.9972 346.464 78.8962 346.505 78.8066C346.545 78.7171 346.616 78.6449 346.705 78.6028C346.794 78.5607 346.894 78.5513 346.989 78.5764C347.084 78.6015 347.167 78.6594 347.223 78.7399C348.389 81.2111 349.291 83.7993 349.914 86.4613C349.937 86.5667 349.919 86.6772 349.864 86.7696C349.808 86.862 349.719 86.9292 349.615 86.9569H349.472ZM344.884 75.7661C344.814 75.7647 344.745 75.7461 344.684 75.712C344.623 75.6779 344.571 75.6293 344.533 75.5705C343.143 73.2866 341.533 71.1459 339.724 69.1795C339.687 69.1419 339.657 69.0972 339.636 69.0479C339.616 68.9987 339.605 68.9459 339.605 68.8925C339.605 68.8392 339.616 68.7863 339.636 68.7371C339.657 68.6878 339.687 68.6431 339.724 68.6056C339.761 68.5661 339.805 68.5345 339.854 68.513C339.903 68.4914 339.957 68.4803 340.01 68.4803C340.064 68.4803 340.117 68.4914 340.166 68.513C340.215 68.5345 340.26 68.5661 340.296 68.6056C342.145 70.6109 343.79 72.7955 345.209 75.127C345.237 75.1723 345.257 75.2228 345.266 75.2756C345.274 75.3285 345.273 75.3825 345.261 75.4347C345.249 75.4869 345.226 75.5361 345.195 75.5796C345.164 75.6231 345.124 75.6598 345.079 75.6878C345.021 75.7297 344.954 75.7566 344.884 75.7661ZM337.151 66.5187C337.051 66.516 336.955 66.4792 336.878 66.4144C334.9 64.6091 332.789 62.9567 330.562 61.4711C330.509 61.4465 330.463 61.4107 330.425 61.3663C330.388 61.3219 330.36 61.2698 330.344 61.2137C330.329 61.1577 330.325 61.0988 330.335 61.0413C330.344 60.9838 330.365 60.9289 330.397 60.8805C330.429 60.832 330.472 60.7911 330.521 60.7606C330.57 60.73 330.626 60.7105 330.683 60.7034C330.741 60.6964 330.799 60.7018 330.855 60.7195C330.91 60.7372 330.961 60.7667 331.004 60.8059C333.27 62.3058 335.417 63.9803 337.424 65.8144C337.463 65.851 337.495 65.8954 337.516 65.9448C337.538 65.9942 337.549 66.0475 337.549 66.1013C337.549 66.1552 337.538 66.2085 337.516 66.2579C337.495 66.3073 337.463 66.3516 337.424 66.3883C337.351 66.4626 337.255 66.5088 337.151 66.5187ZM327.352 59.4103C327.288 59.4288 327.221 59.4288 327.157 59.4103L326.429 59.006C326.383 58.9804 326.342 58.9456 326.31 58.9038C326.278 58.862 326.254 58.814 326.241 58.7628C326.227 58.7116 326.225 58.6582 326.232 58.6058C326.24 58.5535 326.258 58.5032 326.286 58.4582C326.311 58.4108 326.344 58.3689 326.385 58.3351C326.427 58.3013 326.474 58.2763 326.525 58.2616C326.576 58.247 326.63 58.243 326.683 58.2499C326.736 58.2567 326.786 58.2744 326.832 58.3017L327.56 58.7191C327.606 58.7447 327.646 58.7795 327.679 58.8213C327.711 58.8631 327.735 58.911 327.748 58.9622C327.761 59.0135 327.764 59.0669 327.757 59.1192C327.749 59.1716 327.73 59.2218 327.703 59.2669C327.654 59.3054 327.597 59.3325 327.536 59.346C327.475 59.3595 327.412 59.3592 327.352 59.3451V59.4103Z" fill="#26225B"/>
<path d="M203.146 38.1113L201.846 28.3813L198.844 28.7726L192.892 20.9469L194.061 18.1296L184.964 14.3602L183.807 17.1775L174.099 18.4818L172.253 16.0558L164.456 22.0164L166.301 24.4424L162.558 33.5724L159.543 33.9637L160.843 43.6937L163.858 43.3024L169.797 51.1281L168.627 53.9454L177.725 57.7148L178.894 54.8975L188.59 53.5932L190.435 56.0192L198.233 50.0586L196.388 47.6326L200.144 38.5026L203.146 38.1113ZM182.417 43.798C180.889 43.9929 179.338 43.7295 177.959 43.041C176.58 42.3525 175.436 41.2698 174.669 39.9292C173.903 38.5887 173.549 37.0505 173.653 35.5085C173.756 33.9665 174.313 32.4899 175.251 31.2647C176.19 30.0395 177.469 29.1207 178.927 28.6241C180.386 28.1275 181.958 28.0753 183.446 28.4742C184.933 28.8731 186.27 29.7051 187.287 30.8654C188.305 32.0257 188.957 33.4623 189.162 34.9941C189.298 36.0172 189.232 37.0573 188.967 38.0546C188.701 39.0518 188.242 39.9866 187.615 40.8049C186.988 41.6232 186.206 42.309 185.314 42.8227C184.421 43.3364 183.437 43.6678 182.417 43.798Z" fill="#26225B"/>
</g>
<defs>
<clipPath id="clip0">
<rect width="380" height="288" fill="white"/>
</clipPath>
<clipPath id="clip1">
<rect width="102.54" height="103.074" fill="white" transform="translate(171.905 109.137)"/>
</clipPath>
</defs>
</svg>
