<svg width="363" height="264" viewBox="0 0 363 264" fill="none" xmlns="http://www.w3.org/2000/svg">
<g clip-path="url(#clip0)">
<path d="M224.744 72.967L222.054 67.0848L223.22 65.4503L217.958 61.6964L216.792 63.3309L210.365 62.7202L209.531 60.9241L203.66 63.6183L204.493 65.4144L200.8 70.677L198.801 70.4794L198.111 76.9275L200.11 77.1161L202.799 82.9983L201.697 84.6418L206.959 88.3956L208.124 86.7522L214.551 87.3718L215.385 89.168L221.266 86.4738L220.432 84.6777L224.107 79.4151L226.106 79.6037L226.716 73.1646L224.744 72.967ZM216.676 78.041C216.086 78.8786 215.262 79.5218 214.307 79.8891C213.352 80.2564 212.309 80.3312 211.312 80.104C210.314 79.8768 209.406 79.3579 208.704 78.6131C208.001 77.8683 207.535 76.9312 207.365 75.9206C207.195 74.9101 207.328 73.8716 207.748 72.9371C208.167 72.0025 208.855 71.2139 209.723 70.6714C210.591 70.1288 211.6 69.8568 212.622 69.8898C213.645 69.9228 214.634 70.2593 215.466 70.8566C216.568 71.6561 217.311 72.8595 217.533 74.2049C217.755 75.5504 217.437 76.929 216.649 78.041H216.676Z" fill="white"/>
<path d="M215.34 89.4733C215.288 89.471 215.237 89.4549 215.193 89.4265C215.149 89.3981 215.113 89.3584 215.089 89.3116L214.327 87.6323L208.214 87.0396L207.138 88.5573C207.094 88.6145 207.03 88.653 206.959 88.665C206.926 88.6797 206.891 88.6872 206.855 88.6872C206.82 88.6872 206.785 88.6797 206.752 88.665L201.49 84.9112C201.434 84.8682 201.396 84.8052 201.384 84.7351C201.372 84.6649 201.388 84.593 201.428 84.534L202.503 83.0163L199.957 77.4214L198.111 77.2328C198.041 77.2239 197.977 77.1886 197.931 77.134C197.907 77.1061 197.889 77.0732 197.878 77.0375C197.867 77.0019 197.864 76.9644 197.869 76.9275L198.487 70.4884C198.496 70.4155 198.531 70.3483 198.586 70.2998C198.642 70.2564 198.712 70.2342 198.783 70.2369L200.621 70.4166L204.206 65.4054L203.436 63.717C203.421 63.6847 203.412 63.6496 203.411 63.6139C203.41 63.5783 203.415 63.5427 203.428 63.5093C203.44 63.4758 203.459 63.4452 203.484 63.4192C203.508 63.3933 203.537 63.3724 203.57 63.3578L209.442 60.6637C209.508 60.633 209.584 60.63 209.653 60.6552C209.722 60.6804 209.778 60.7319 209.809 60.7984L210.571 62.4867L216.685 63.0705L217.76 61.5617C217.804 61.5026 217.868 61.4628 217.94 61.451C218.013 61.4392 218.086 61.4564 218.146 61.4989L223.408 65.2527C223.437 65.2722 223.461 65.2974 223.48 65.3268C223.498 65.3561 223.51 65.389 223.516 65.4234C223.537 65.4905 223.537 65.5628 223.516 65.6299L222.44 67.1386L224.923 72.7425L226.77 72.9221C226.805 72.9255 226.839 72.9358 226.871 72.9526C226.902 72.9694 226.93 72.9922 226.952 73.0197C226.975 73.0473 226.992 73.079 227.002 73.1132C227.012 73.1473 227.015 73.1831 227.012 73.2185L226.402 79.6575C226.4 79.6938 226.39 79.7292 226.374 79.7616C226.358 79.7941 226.335 79.8229 226.308 79.8464C226.28 79.8699 226.248 79.8876 226.213 79.8983C226.179 79.9091 226.142 79.9127 226.106 79.909L224.313 79.7294L220.728 84.7405L221.499 86.4289C221.514 86.4613 221.522 86.4963 221.523 86.532C221.525 86.5677 221.519 86.6032 221.506 86.6367C221.494 86.6701 221.475 86.7007 221.45 86.7267C221.426 86.7527 221.397 86.7736 221.364 86.7881L215.484 89.4823C215.436 89.4919 215.386 89.4888 215.34 89.4733ZM208.079 86.4828L214.506 87.1024C214.555 87.1075 214.601 87.125 214.64 87.1534C214.679 87.1817 214.711 87.2199 214.731 87.2641L215.448 88.8357L220.826 86.375L220.1 84.7944C220.078 84.7529 220.067 84.7067 220.067 84.6597C220.067 84.6127 220.078 84.5665 220.1 84.525L223.847 79.2624C223.876 79.2233 223.914 79.1921 223.958 79.1717C224.002 79.1513 224.05 79.1423 224.098 79.1456L225.828 79.3073L226.384 73.4161L224.654 73.2454C224.607 73.2381 224.562 73.2196 224.523 73.1915C224.484 73.1634 224.452 73.1265 224.43 73.0838L221.741 67.2015C221.719 67.16 221.707 67.1138 221.707 67.0668C221.707 67.0198 221.719 66.9736 221.741 66.9321L222.852 65.5581L218.029 62.1185L217.025 63.4925C216.996 63.5305 216.958 63.5608 216.914 63.5811C216.87 63.6014 216.822 63.611 216.774 63.6093L210.347 62.9986C210.299 62.9936 210.253 62.976 210.214 62.9476C210.174 62.9193 210.143 62.8811 210.123 62.837L209.406 61.2564L204.027 63.7081L204.753 65.2976C204.775 65.3391 204.787 65.3854 204.787 65.4323C204.787 65.4793 204.775 65.5256 204.753 65.567L201.006 70.8386C200.978 70.8777 200.94 70.9089 200.896 70.9293C200.852 70.9497 200.803 70.9587 200.755 70.9554L199.007 70.7847L198.442 76.685L200.173 76.8466C200.221 76.8517 200.267 76.8692 200.306 76.8976C200.345 76.9259 200.377 76.9641 200.397 77.0083L203.086 82.8905C203.108 82.932 203.119 82.9783 203.119 83.0252C203.119 83.0722 203.108 83.1185 203.086 83.16L202.073 84.5789L206.851 88.0095L207.855 86.5905C207.881 86.5564 207.915 86.5289 207.954 86.5101C207.993 86.4914 208.036 86.4821 208.079 86.4828ZM212.454 80.4927C211.596 80.4943 210.75 80.2927 209.984 79.9042C209.219 79.5158 208.556 78.9516 208.05 78.2577C207.544 77.5638 207.209 76.7599 207.072 75.9114C206.935 75.063 207 74.1942 207.263 73.3759C207.525 72.5575 207.976 71.8129 208.58 71.2027C209.184 70.5925 209.924 70.1341 210.739 69.8648C211.553 69.5955 212.42 69.5231 213.268 69.6533C214.116 69.7835 214.921 70.1127 215.618 70.6141C216.791 71.4515 217.584 72.7213 217.823 74.1444C218.062 75.5674 217.726 77.0272 216.891 78.2027C216.388 78.912 215.722 79.4901 214.95 79.8885C214.178 80.287 213.322 80.4942 212.454 80.4927ZM212.454 70.1381C212.18 70.1402 211.907 70.1642 211.638 70.21C211.003 70.314 210.395 70.5439 209.851 70.8862C209.306 71.2286 208.834 71.6765 208.465 72.2037C208.065 72.7263 207.774 73.3242 207.61 73.9617C207.446 74.5992 207.412 75.2632 207.51 75.9143C207.608 76.5653 207.835 77.1899 208.179 77.751C208.523 78.312 208.976 78.7979 209.511 79.1798C210.046 79.5616 210.653 79.8316 211.295 79.9735C211.936 80.1155 212.6 80.1265 213.246 80.006C213.892 79.8855 214.507 79.6359 215.055 79.2721C215.603 78.9082 216.072 78.4377 216.434 77.8884C216.952 77.1547 217.26 76.2925 217.323 75.3959C217.386 74.4992 217.202 73.6024 216.792 72.8031C216.381 72.0038 215.76 71.3327 214.995 70.8628C214.23 70.3929 213.351 70.1422 212.454 70.1381Z" fill="#26225B"/>
<path d="M149.497 3.69101C146.898 3.20573 144.273 2.87289 141.636 2.69416C141.223 2.69416 140.802 2.64028 140.381 2.62232C139.807 2.62232 139.224 2.56844 138.642 2.55946H137.055C121.983 2.57032 107.336 7.5698 95.3929 16.7806C83.4495 25.9913 74.8784 38.8973 71.0124 53.4918C67.1463 68.0863 68.2018 83.5516 74.0148 97.4831C79.8278 111.415 90.0725 123.032 103.156 130.528C116.24 138.025 131.429 140.98 146.363 138.936C161.296 136.891 175.137 129.961 185.733 119.223C196.33 108.485 203.087 94.5398 204.956 79.5566C206.825 64.5734 203.7 49.3915 196.067 36.3713C194.706 34.057 193.21 31.8259 191.585 29.6897L190.688 28.4953C189.478 26.9596 188.205 25.4689 186.852 24.0589C186.43 23.6189 186.018 23.1609 185.579 22.7388C185.139 22.3167 184.754 21.9215 184.324 21.5174C183.893 21.1133 183.293 20.5385 182.764 20.0715L149.497 3.69101Z" fill="white"/>
<path d="M137.073 139.926C120.599 139.911 104.679 133.966 92.2142 123.174C79.7497 112.383 71.571 97.4633 69.1686 81.1357C66.7663 64.8081 70.3004 48.1593 79.1267 34.2239C87.953 20.2884 101.484 9.99425 117.253 5.21769C124.195 3.14273 131.417 2.16705 138.66 2.32595C139.242 2.32595 139.843 2.32595 140.408 2.38882C140.972 2.45168 141.304 2.38882 141.681 2.46066C144.321 2.63295 146.949 2.9598 149.551 3.43954C149.622 3.4547 149.684 3.49698 149.724 3.55737C149.765 3.61776 149.78 3.69149 149.766 3.76284C149.762 3.79996 149.75 3.83578 149.731 3.86788C149.712 3.89999 149.687 3.92762 149.656 3.94891C149.626 3.9702 149.591 3.98465 149.554 3.99129C149.517 3.99792 149.48 3.99658 149.444 3.98736C146.862 3.5052 144.255 3.17237 141.636 2.99051L140.372 2.91867C139.807 2.91867 139.224 2.91867 138.642 2.86479C126.931 2.58127 115.346 5.33145 105.008 10.8491C94.6691 16.3667 85.9278 24.4649 79.6298 34.3596C73.1189 44.5858 69.446 56.3655 68.9889 68.4861C68.5318 80.6068 71.3071 92.6305 77.0292 103.32C82.7513 114.009 91.2134 122.977 101.544 129.302C111.876 135.627 123.702 139.079 135.808 139.303C147.913 139.528 159.859 136.517 170.417 130.579C180.975 124.642 189.762 115.994 195.876 105.524C201.989 95.0546 205.206 83.142 205.197 71.0127C205.189 58.8834 201.953 46.9756 195.825 36.5149C194.467 34.2079 192.97 31.9856 191.343 29.8603L190.446 28.6659C189.218 27.1123 187.936 25.6215 186.619 24.2475C186.206 23.8074 185.794 23.3494 185.355 22.9363C184.915 22.5232 184.539 22.1191 184.109 21.724C183.571 21.1941 183.024 20.7002 182.549 20.2781C182.522 20.2537 182.5 20.2239 182.486 20.1906C182.471 20.1574 182.463 20.1214 182.463 20.085C182.463 20.0486 182.471 20.0126 182.486 19.9794C182.5 19.9461 182.522 19.9163 182.549 19.8919C182.574 19.8661 182.604 19.8456 182.637 19.8316C182.67 19.8176 182.706 19.8104 182.742 19.8104C182.777 19.8104 182.813 19.8176 182.846 19.8316C182.879 19.8456 182.909 19.8661 182.934 19.8919C183.409 20.314 183.965 20.79 184.512 21.3468C185.059 21.9036 185.355 22.155 185.767 22.5771C186.179 22.9992 186.663 23.4752 187.04 23.8883C188.367 25.2803 189.666 26.78 190.904 28.3785L191.8 29.573C199.692 40.0145 204.45 52.4931 205.517 65.5465C206.584 78.6 203.915 91.6877 197.824 103.276C191.992 114.351 183.25 123.618 172.544 130.078C161.837 136.537 149.571 139.942 137.073 139.926Z" fill="#26225B"/>
<path d="M175.207 94.4934C182.919 96.7045 190.418 99.5986 197.618 103.142C191.811 114.148 183.123 123.363 172.486 129.797C161.848 136.231 149.662 139.643 137.236 139.665C124.81 139.687 112.612 136.319 101.952 129.923C91.2915 123.526 82.5707 114.343 76.7253 103.357C84.9766 99.256 93.6241 96.0091 102.534 93.6672C123.427 88.1977 145.31 87.7179 166.422 92.2663L175.207 94.4934Z" fill="white"/>
<path d="M137.073 139.935C124.615 139.948 112.388 136.562 101.706 130.14C91.0233 123.718 82.2884 114.502 76.4386 103.483C76.4232 103.449 76.4153 103.412 76.4153 103.375C76.4153 103.338 76.4232 103.301 76.4386 103.267C76.4505 103.232 76.4693 103.2 76.494 103.172C76.5186 103.144 76.5485 103.122 76.582 103.106C84.8453 98.9989 93.5046 95.7461 102.426 93.3977C123.36 87.9163 145.287 87.4365 166.44 91.9968C166.504 92.0197 166.558 92.0655 166.591 92.1256C166.624 92.1857 166.633 92.2557 166.618 92.3224C166.602 92.389 166.563 92.4476 166.507 92.487C166.451 92.5263 166.382 92.5436 166.315 92.5356C145.246 87.9992 123.41 88.4791 102.561 93.9366C93.7733 96.2513 85.2411 99.4466 77.093 103.474C82.9305 114.353 91.6054 123.441 102.193 129.77C112.781 136.098 124.884 139.43 137.213 139.41C149.542 139.39 161.634 136.018 172.201 129.655C182.768 123.291 191.413 114.175 197.214 103.276C190.123 99.8001 182.741 96.9543 175.153 94.7718C175.114 94.7662 175.076 94.7522 175.043 94.7307C175.009 94.7093 174.981 94.6809 174.959 94.6474C174.938 94.614 174.923 94.5763 174.918 94.5369C174.912 94.4975 174.914 94.4573 174.925 94.4191C174.936 94.3808 174.956 94.3453 174.981 94.3151C175.007 94.2848 175.039 94.2605 175.075 94.2437C175.111 94.2269 175.151 94.2181 175.19 94.2178C175.23 94.2175 175.269 94.2257 175.306 94.2419C183.018 96.4596 190.517 99.3597 197.716 102.908C197.783 102.941 197.835 102.999 197.86 103.07C197.887 103.139 197.887 103.216 197.86 103.285C192.022 114.356 183.28 123.62 172.574 130.08C161.869 136.54 149.606 139.95 137.109 139.944L137.073 139.935Z" fill="#26225B"/>
<path d="M171.478 49.3931C173.477 62.5792 173.555 75.9861 171.711 89.1949L171.478 49.3931Z" fill="white"/>
<path d="M171.711 89.4732C171.639 89.4622 171.574 89.4229 171.53 89.3641C171.486 89.3052 171.468 89.2315 171.478 89.1589C172.359 82.8421 172.799 76.4714 172.796 70.0932C172.799 63.1784 172.278 56.2734 171.236 49.4379C171.233 49.3692 171.256 49.3018 171.299 49.2488C171.343 49.1958 171.405 49.1609 171.473 49.1509C171.541 49.1408 171.61 49.1564 171.667 49.1944C171.724 49.2325 171.766 49.2905 171.783 49.3571C172.828 56.2195 173.352 63.1514 173.351 70.0932C173.352 76.4985 172.909 82.896 172.025 89.2398C172.014 89.3122 171.974 89.3774 171.916 89.4211C171.857 89.4648 171.783 89.4836 171.711 89.4732Z" fill="#26225B"/>
<path d="M155.602 137.115C162.414 124.961 167.324 111.831 170.16 98.1844L155.602 137.115Z" fill="white"/>
<path d="M155.593 137.402C155.549 137.411 155.503 137.411 155.459 137.402C155.396 137.365 155.351 137.305 155.333 137.234C155.314 137.164 155.324 137.089 155.36 137.025C162.163 124.895 167.064 111.789 169.891 98.1665C169.914 98.1035 169.96 98.0511 170.018 98.0188C170.077 97.9865 170.145 97.9765 170.211 97.9907C170.276 98.005 170.334 98.0424 170.375 98.0961C170.415 98.1498 170.434 98.2163 170.429 98.2832C167.593 111.961 162.671 125.119 155.835 137.295C155.808 137.332 155.771 137.362 155.728 137.381C155.686 137.399 155.639 137.407 155.593 137.402Z" fill="#26225B"/>
<path d="M196.067 36.3713C189.31 39.4154 182.315 41.8994 175.153 43.7982C174.91 42.8057 174.342 41.9237 173.539 41.2935C172.736 40.6633 171.745 40.3215 170.725 40.3227C170.424 40.3179 170.123 40.3481 169.828 40.4125C168.798 40.6258 167.873 41.1893 167.21 42.0076C166.546 42.8259 166.186 43.8487 166.189 44.9028C166.191 45.2221 166.221 45.5407 166.279 45.8547C157.628 47.5407 148.835 48.3857 140.022 48.3783C127.669 48.3966 115.371 46.7319 103.466 43.43C95.1673 41.1363 87.1074 38.0509 79.3967 34.2159C86.7377 22.7318 97.3238 13.6958 109.807 8.25835C122.291 2.82086 136.107 1.22783 149.497 3.68206L196.067 36.3713Z" fill="white"/>
<path d="M140.004 48.6386C127.627 48.6525 115.306 46.9849 103.376 43.6814C95.0689 41.384 87.0001 38.2956 79.2802 34.4583C79.2455 34.4418 79.2147 34.418 79.19 34.3886C79.1653 34.3592 79.1471 34.3248 79.1368 34.2877C79.1194 34.2528 79.1104 34.2144 79.1104 34.1755C79.1104 34.1365 79.1194 34.0981 79.1368 34.0632C86.5074 22.5257 97.1416 13.4494 109.683 7.99192C122.224 2.53448 136.104 0.943367 149.551 3.42155C149.587 3.42863 149.621 3.44272 149.652 3.46302C149.682 3.48332 149.708 3.50944 149.729 3.53988C149.749 3.57032 149.763 3.60448 149.771 3.64042C149.778 3.67636 149.778 3.71337 149.771 3.74934C149.764 3.78531 149.75 3.81953 149.729 3.85006C149.709 3.88058 149.683 3.90681 149.653 3.92724C149.622 3.94767 149.588 3.96191 149.552 3.96913C149.517 3.97636 149.48 3.97644 149.444 3.96936C136.156 1.50833 122.438 3.06148 110.034 8.43133C97.6294 13.8012 87.0993 22.7452 79.7822 34.1261C87.394 37.8635 95.3419 40.8704 103.52 43.1066C115.402 46.399 127.676 48.0606 140.004 48.0459C148.711 48.0516 157.398 47.2247 165.947 45.5763C165.911 45.3355 165.893 45.0923 165.893 44.8488C165.895 43.734 166.28 42.6538 166.984 41.7902C167.688 40.9265 168.667 40.3321 169.757 40.1071C170.075 40.0375 170.399 40.0044 170.725 40.0083C171.759 40.0026 172.767 40.3318 173.599 40.9468C174.431 41.5617 175.042 42.4296 175.342 43.4209C182.401 41.5387 189.296 39.0849 195.959 36.0838C195.993 36.0689 196.029 36.0608 196.066 36.06C196.102 36.0592 196.139 36.0656 196.173 36.079C196.207 36.0924 196.238 36.1124 196.265 36.1378C196.291 36.1633 196.312 36.1938 196.327 36.2275C196.342 36.2605 196.35 36.296 196.35 36.3321C196.351 36.3682 196.344 36.404 196.331 36.4375C196.318 36.471 196.298 36.5015 196.272 36.5271C196.247 36.5528 196.217 36.573 196.183 36.5867C189.414 39.6353 182.408 42.1252 175.234 44.0316C175.2 44.047 175.163 44.055 175.126 44.055C175.089 44.055 175.053 44.047 175.019 44.0316C174.987 44.0131 174.96 43.9885 174.939 43.9592C174.917 43.9299 174.902 43.8965 174.893 43.861C174.667 42.928 174.134 42.0986 173.379 41.507C172.624 40.9154 171.692 40.5962 170.734 40.601C170.448 40.5968 170.162 40.6239 169.882 40.6819C168.911 40.8792 168.038 41.4076 167.412 42.1772C166.786 42.9468 166.446 43.91 166.449 44.9027C166.448 45.2039 166.475 45.5045 166.53 45.8008C166.556 45.8671 166.556 45.941 166.53 46.0073C166.509 46.038 166.483 46.0642 166.452 46.0843C166.421 46.1044 166.387 46.1179 166.35 46.1241C157.669 47.8079 148.847 48.6499 140.004 48.6386Z" fill="#26225B"/>
<path d="M205.497 71.3865H105.214C105.14 71.3865 105.069 71.3571 105.017 71.3049C104.965 71.2527 104.936 71.1819 104.936 71.1081C104.936 71.0342 104.965 70.9634 105.017 70.9112C105.069 70.859 105.14 70.8297 105.214 70.8297H205.497C205.571 70.8297 205.642 70.859 205.694 70.9112C205.746 70.9634 205.775 71.0342 205.775 71.1081C205.775 71.1819 205.746 71.2527 205.694 71.3049C205.642 71.3571 205.571 71.3865 205.497 71.3865Z" fill="#26225B"/>
<path d="M96.0883 71.3865H68.6575C68.5838 71.3865 68.5131 71.3571 68.461 71.3049C68.4089 71.2527 68.3796 71.1819 68.3796 71.1081C68.3796 71.0342 68.4089 70.9634 68.461 70.9112C68.5131 70.859 68.5838 70.8297 68.6575 70.8297H96.0883C96.162 70.8297 96.2327 70.859 96.2848 70.9112C96.3369 70.9634 96.3662 71.0342 96.3662 71.1081C96.3662 71.1819 96.3369 71.2527 96.2848 71.3049C96.2327 71.3571 96.162 71.3865 96.0883 71.3865Z" fill="#26225B"/>
<path d="M137.073 139.935C137.037 139.935 137 139.928 136.967 139.914C136.933 139.9 136.902 139.879 136.877 139.853C136.851 139.828 136.83 139.797 136.816 139.763C136.802 139.729 136.795 139.693 136.795 139.657V2.56843C136.795 2.49459 136.824 2.42378 136.877 2.37157C136.929 2.31936 136.999 2.29003 137.073 2.29003C137.147 2.29003 137.217 2.31936 137.27 2.37157C137.322 2.42378 137.351 2.49459 137.351 2.56843V139.657C137.351 139.73 137.322 139.801 137.27 139.853C137.217 139.906 137.147 139.935 137.073 139.935Z" fill="#26225B"/>
<path d="M100.651 75.6791C103.171 75.6791 105.214 73.6326 105.214 71.108C105.214 68.5835 103.171 66.5369 100.651 66.5369C98.1312 66.5369 96.0884 68.5835 96.0884 71.108C96.0884 73.6326 98.1312 75.6791 100.651 75.6791Z" fill="#26225B"/>
<path d="M100.651 75.9485C99.6955 75.9485 98.7613 75.6647 97.9667 75.1328C97.1721 74.6009 96.5528 73.8449 96.1871 72.9604C95.8214 72.0759 95.7257 71.1027 95.9122 70.1637C96.0986 69.2247 96.5588 68.3622 97.2345 67.6853C97.9103 67.0083 98.7712 66.5473 99.7085 66.3605C100.646 66.1737 101.617 66.2696 102.5 66.636C103.383 67.0023 104.138 67.6228 104.669 68.4188C105.199 69.2148 105.483 70.1507 105.483 71.108C105.483 72.3918 104.974 73.623 104.068 74.5308C103.162 75.4386 101.933 75.9485 100.651 75.9485ZM100.651 66.8153C99.8011 66.8135 98.9697 67.0645 98.2622 67.5365C97.5547 68.0085 97.0029 68.6803 96.6768 69.4667C96.3507 70.2531 96.2649 71.1187 96.4303 71.954C96.5957 72.7893 97.0048 73.5566 97.6059 74.1588C98.2069 74.7609 98.9729 75.1708 99.8066 75.3365C100.64 75.5022 101.505 75.4162 102.289 75.0895C103.074 74.7628 103.745 74.2101 104.216 73.5013C104.687 72.7925 104.938 71.9596 104.936 71.108C104.934 69.9703 104.481 68.8798 103.678 68.0752C102.875 67.2707 101.787 66.8177 100.651 66.8153Z" fill="#26225B"/>
<path d="M170.725 98.2293C173.245 98.2293 175.288 96.1828 175.288 93.6582C175.288 91.1337 173.245 89.0871 170.725 89.0871C168.205 89.0871 166.162 91.1337 166.162 93.6582C166.162 96.1828 168.205 98.2293 170.725 98.2293Z" fill="#26225B"/>
<path d="M170.725 98.4987C169.77 98.4969 168.836 98.2115 168.043 97.6786C167.25 97.1456 166.632 96.389 166.267 95.5044C165.903 94.6197 165.809 93.6467 165.996 92.7084C166.183 91.77 166.644 90.9083 167.32 90.2323C167.997 89.5562 168.857 89.0961 169.795 88.91C170.732 88.724 171.703 88.8204 172.585 89.187C173.467 89.5536 174.221 90.1741 174.752 90.9699C175.282 91.7657 175.566 92.7012 175.566 93.6582C175.566 94.2946 175.44 94.9248 175.197 95.5127C174.954 96.1005 174.597 96.6345 174.147 97.0841C173.698 97.5337 173.164 97.8901 172.577 98.1328C171.989 98.3756 171.36 98.4999 170.725 98.4987ZM170.725 89.3655C169.875 89.3655 169.045 89.618 168.338 90.0911C167.632 90.5642 167.082 91.2365 166.757 92.0231C166.432 92.8096 166.348 93.675 166.514 94.5097C166.681 95.3444 167.09 96.1109 167.692 96.7121C168.293 97.3134 169.059 97.7223 169.893 97.8873C170.726 98.0523 171.59 97.9658 172.374 97.6388C173.159 97.3119 173.829 96.7591 174.299 96.0505C174.77 95.3419 175.021 94.5094 175.019 93.6582C175.016 92.5189 174.563 91.427 173.758 90.6223C172.953 89.8175 171.862 89.3655 170.725 89.3655Z" fill="#26225B"/>
<path d="M179.402 3.59223C176.981 1.43411 173.853 0.241837 170.613 0.241837C167.372 0.241837 164.244 1.43411 161.823 3.59223C159.559 5.68338 158.094 8.501 157.681 11.5588C157.269 14.6166 157.935 17.7227 159.564 20.341L170.59 38.5086L181.608 20.341C183.244 17.7286 183.919 14.6262 183.516 11.5687C183.113 8.51121 181.659 5.69025 179.402 3.59223ZM170.832 20.4038C169.612 20.4056 168.418 20.0445 167.403 19.3663C166.387 18.6881 165.595 17.7232 165.127 16.5938C164.659 15.4645 164.536 14.2214 164.774 13.022C165.012 11.8227 165.599 10.7209 166.462 9.85627C167.326 8.99163 168.425 8.40299 169.622 8.16488C170.82 7.92676 172.06 8.04987 173.188 8.51863C174.315 8.98739 175.278 9.78071 175.955 10.7982C176.632 11.8156 176.993 13.0114 176.991 14.2342C176.994 15.0467 176.838 15.8518 176.53 16.6035C176.222 17.3551 175.769 18.0385 175.197 18.6142C174.624 19.19 173.944 19.6468 173.195 19.9586C172.446 20.2703 171.643 20.4308 170.832 20.4308V20.4038Z" fill="#C42128"/>
<path d="M170.617 38.787C170.57 38.7871 170.524 38.7746 170.483 38.751C170.442 38.7273 170.408 38.6933 170.384 38.6523L159.358 20.4847C158.075 18.4644 157.358 16.1359 157.281 13.7428C157.204 11.3496 157.77 8.97968 158.92 6.88083C160.071 4.78198 161.763 3.03131 163.82 1.8119C165.877 0.5925 168.223 -0.0508423 170.613 -0.0508423C173.003 -0.0508423 175.349 0.5925 177.406 1.8119C179.463 3.03131 181.155 4.78198 182.305 6.88083C183.455 8.97968 184.022 11.3496 183.945 13.7428C183.868 16.1359 183.15 18.4644 181.867 20.4847L170.85 38.6164C170.83 38.6629 170.798 38.7033 170.757 38.7332C170.716 38.7632 170.668 38.7818 170.617 38.787ZM170.617 0.547835C168.326 0.537715 166.074 1.14762 164.099 2.31318C162.125 3.47874 160.501 5.15671 159.399 7.16998C158.297 9.18326 157.759 11.4571 157.84 13.7517C157.921 16.0462 158.619 18.2762 159.86 20.2063L170.617 37.9878L181.374 20.2063C182.978 17.6508 183.638 14.6137 183.24 11.6216C182.842 8.62957 181.412 5.87145 179.196 3.82574C176.839 1.70795 173.783 0.540133 170.617 0.547835ZM170.832 20.7092C169.559 20.711 168.314 20.3343 167.254 19.6269C166.194 18.9194 165.368 17.913 164.88 16.7349C164.391 15.5569 164.262 14.2601 164.51 13.0087C164.757 11.7573 165.369 10.6075 166.269 9.70487C167.169 8.8022 168.316 8.18719 169.564 7.93767C170.813 7.68814 172.108 7.8153 173.284 8.30308C174.461 8.79085 175.467 9.6173 176.174 10.6779C176.882 11.7384 177.26 12.9855 177.26 14.2611C177.257 15.969 176.58 17.6063 175.375 18.8148C174.171 20.0233 172.537 20.7044 170.832 20.7092ZM170.832 8.36092C169.667 8.35914 168.528 8.70367 167.558 9.35091C166.588 9.99816 165.832 10.919 165.385 11.997C164.938 13.075 164.82 14.2616 165.046 15.4067C165.272 16.5518 165.832 17.604 166.656 18.43C167.479 19.2561 168.528 19.8189 169.671 20.0473C170.814 20.2757 171.999 20.1594 173.075 19.7131C174.152 19.2668 175.072 18.5105 175.72 17.5401C176.367 16.5696 176.713 15.4285 176.713 14.2611C176.711 12.6986 176.091 11.2006 174.989 10.0948C173.886 8.9891 172.392 8.36566 170.832 8.36092Z" fill="#C42128"/>
<path d="M117.334 137.034C117.284 137.033 117.236 137.019 117.194 136.994C117.151 136.969 117.116 136.933 117.092 136.891C109.731 123.442 104.694 108.843 102.193 93.7121C101.2 87.7471 100.601 81.7231 100.4 75.6791C100.4 75.6059 100.428 75.5354 100.478 75.482C100.528 75.4286 100.596 75.3963 100.669 75.3917C100.742 75.3936 100.811 75.4221 100.864 75.4718C100.917 75.5214 100.949 75.5888 100.956 75.6611C101.622 97.0026 107.297 117.887 117.522 136.621C117.557 136.686 117.566 136.761 117.546 136.832C117.526 136.903 117.478 136.962 117.414 136.998C117.39 137.015 117.362 137.027 117.334 137.034ZM100.723 66.8243C100.65 66.8197 100.581 66.7874 100.532 66.734C100.482 66.6806 100.454 66.6101 100.454 66.5369C100.699 58.7487 101.599 50.995 103.143 43.3581C105.872 30.057 110.574 17.2404 117.092 5.33443C117.13 5.27362 117.186 5.22648 117.253 5.19972C124.195 3.12476 131.417 2.14909 138.66 2.30799C139.242 2.30799 139.843 2.30799 140.408 2.37085C140.973 2.43371 141.304 2.37085 141.681 2.44269C144.321 2.61499 146.949 2.94184 149.551 3.42157C149.622 3.43673 149.684 3.47901 149.725 3.5394C149.765 3.5998 149.78 3.67352 149.766 3.74487C149.763 3.78199 149.751 3.81781 149.732 3.84991C149.713 3.88202 149.687 3.90965 149.656 3.93094C149.626 3.95223 149.591 3.96669 149.554 3.97332C149.518 3.97995 149.48 3.97861 149.444 3.96939C146.862 3.49326 144.255 3.16642 141.636 2.99051L140.372 2.91866C139.807 2.91866 139.224 2.91866 138.642 2.86478C131.497 2.70206 124.371 3.65958 117.522 5.70263C111.07 17.5321 106.417 30.2601 103.717 43.4659C102.177 51.0733 101.278 58.7967 101.028 66.5549C101.025 66.5926 101.016 66.6296 100.999 66.6636C100.983 66.6976 100.959 66.728 100.931 66.753C100.903 66.778 100.87 66.7972 100.834 66.8094C100.798 66.8217 100.761 66.8267 100.723 66.8243Z" fill="#26225B"/>
<path d="M171.478 49.393C171.229 49.4366 170.977 49.4577 170.725 49.4559C169.601 49.4445 168.52 49.0179 167.691 48.2577C166.862 47.4976 166.341 46.4574 166.23 45.3367C166.119 44.216 166.425 43.0937 167.089 42.185C167.753 41.2762 168.729 40.6451 169.828 40.4125C170.123 40.3513 170.424 40.3212 170.725 40.3227C171.877 40.3081 172.992 40.7317 173.845 41.508C174.698 42.2844 175.225 43.3558 175.321 44.5063C175.416 45.6568 175.073 46.8007 174.36 47.7076C173.646 48.6144 172.617 49.2167 171.478 49.393Z" fill="#26225B"/>
<path d="M170.725 49.7343C169.617 49.7334 168.543 49.351 167.683 48.6513C166.823 47.9515 166.229 46.9768 166.001 45.8906C165.93 45.5631 165.894 45.229 165.893 44.8938C165.897 43.777 166.283 42.6955 166.988 41.8305C167.694 40.9655 168.674 40.3697 169.766 40.1431C170.081 40.0764 170.403 40.0433 170.725 40.0443C171.806 40.0402 172.857 40.4014 173.707 41.0696C174.558 41.7377 175.159 42.6737 175.413 43.7263C175.514 44.1073 175.565 44.4997 175.566 44.8938C175.569 46.0409 175.164 47.1516 174.423 48.0259C173.682 48.9002 172.653 49.4806 171.523 49.6625C171.259 49.7102 170.992 49.7343 170.725 49.7343ZM170.725 40.5921C170.438 40.5885 170.153 40.6186 169.873 40.6819C168.903 40.8808 168.031 41.4097 167.405 42.1789C166.779 42.9482 166.438 43.9105 166.44 44.9028C166.438 45.2045 166.468 45.5055 166.53 45.8008C166.734 46.7643 167.262 47.6283 168.026 48.2493C168.789 48.8702 169.742 49.2104 170.725 49.2135C170.959 49.2169 171.194 49.1958 171.424 49.1506C172.427 48.9899 173.34 48.4753 173.997 47.6996C174.655 46.924 175.014 45.9384 175.01 44.9207C175.009 44.5727 174.967 44.226 174.884 43.888C174.662 42.9498 174.131 42.1141 173.376 41.516C172.621 40.9179 171.687 40.5924 170.725 40.5921Z" fill="#26225B"/>
<path d="M48.5506 50.785C48.5506 50.785 57.4252 51.5933 55.4441 40.5382C43.7099 42.5588 48.5506 50.785 48.5506 50.785Z" fill="#756FBF"/>
<path d="M45.0905 54.5569C45.0905 54.5569 48.8375 49.8331 41.8723 46.8605C38.6541 54.2426 45.0905 54.5569 45.0905 54.5569Z" fill="#756FBF"/>
<path d="M40.8593 60.1697C40.8593 60.1697 44.0954 55.0867 36.8523 52.8506C34.4319 60.5738 40.8593 60.1697 40.8593 60.1697Z" fill="#756FBF"/>
<path d="M38.6361 65.9442C38.6361 65.9442 40.0256 60.0799 32.4597 60.3493C32.6749 68.3959 38.6361 65.9442 38.6361 65.9442Z" fill="#756FBF"/>
<path d="M46.6951 55.0508C46.6951 55.0508 49.725 60.2595 55.0229 54.8443C49.3037 49.1596 46.6951 55.0508 46.6951 55.0508Z" fill="#756FBF"/>
<path d="M43.2168 61.6156C43.2168 61.6156 46.2378 66.8243 51.5446 61.409C45.8433 55.7243 43.2168 61.6156 43.2168 61.6156Z" fill="#756FBF"/>
<path d="M33.9388 79.8281C33.9388 79.8281 36.4757 74.359 29.0174 73.1017C27.61 81.0315 33.9388 79.8281 33.9388 79.8281Z" fill="#756FBF"/>
<path d="M36.8882 79.9269C36.8882 79.9269 39.9091 85.1356 45.216 79.7203C39.5147 74.0626 36.8882 79.9269 36.8882 79.9269Z" fill="#756FBF"/>
<path d="M32.2714 86.2762C32.2714 86.2762 34.7814 80.825 27.3231 79.5498C25.9157 87.4796 32.2714 86.2762 32.2714 86.2762Z" fill="#756FBF"/>
<path d="M35.1938 86.4109C35.1938 86.4109 38.2238 91.6196 43.5217 86.2043C37.8204 80.5196 35.1938 86.4109 35.1938 86.4109Z" fill="#756FBF"/>
<path d="M40.8054 66.6267C40.8054 66.6267 42.2845 72.4731 48.8733 68.7282C44.9559 61.6964 40.8054 66.6267 40.8054 66.6267Z" fill="#756FBF"/>
<path d="M36.5385 72.2216C36.5385 72.2216 37.9279 66.3573 30.3621 66.6177C30.5772 74.6733 36.5385 72.2216 36.5385 72.2216Z" fill="#756FBF"/>
<path d="M38.7078 72.9041C38.7078 72.9041 40.1869 78.7504 46.7756 75.0056C42.8582 67.9648 38.7078 72.9041 38.7078 72.9041Z" fill="#756FBF"/>
<path d="M30.7834 99.6842C30.7834 99.6842 32.3342 93.8558 24.7683 93.9097C24.7594 101.992 30.7834 99.6842 30.7834 99.6842Z" fill="#756FBF"/>
<path d="M33.7056 99.3249C33.7056 99.3249 37.5871 103.932 41.872 97.6815C35.2743 93.0655 33.7056 99.3249 33.7056 99.3249Z" fill="#756FBF"/>
<path d="M30.2276 106.357C30.2276 106.357 31.7874 100.582 24.2036 100.582C24.2036 108.665 30.2276 106.357 30.2276 106.357Z" fill="#756FBF"/>
<path d="M33.1677 105.971C33.1677 105.971 37.0493 110.578 41.3342 104.327C34.7275 99.6842 33.1677 105.971 33.1677 105.971Z" fill="#756FBF"/>
<path d="M32.0203 91.7723C32.0203 91.7723 32.3789 85.7464 24.9744 87.282C26.579 95.1939 32.0203 91.7723 32.0203 91.7723Z" fill="#756FBF"/>
<path d="M34.2795 92.0597C34.2795 92.0597 36.7447 97.5648 42.5805 92.7332C37.5156 86.4827 34.2795 92.0597 34.2795 92.0597Z" fill="#756FBF"/>
<path d="M50.7467 174.223C50.6971 174.224 50.6482 174.211 50.6054 174.185C50.5627 174.16 50.5278 174.123 50.5047 174.079C29.8868 134.466 30.326 103.133 34.3689 83.8065C38.6897 62.8639 48.0574 51.1173 48.1471 51.0006C48.1729 50.9745 48.2036 50.9538 48.2375 50.9397C48.2713 50.9256 48.3076 50.9183 48.3443 50.9183C48.3809 50.9183 48.4172 50.9256 48.4511 50.9397C48.4849 50.9538 48.5157 50.9745 48.5415 51.0006C48.5672 51.0257 48.5877 51.0557 48.6017 51.0889C48.6157 51.122 48.6229 51.1576 48.6229 51.1936C48.6229 51.2296 48.6157 51.2653 48.6017 51.2984C48.5877 51.3316 48.5672 51.3616 48.5415 51.3867C48.4518 51.5035 39.1559 63.1513 34.8351 83.9772C30.846 103.205 30.4067 134.394 50.9708 173.846C50.988 173.878 50.9986 173.913 51.002 173.95C51.0055 173.987 51.0017 174.023 50.9908 174.058C50.98 174.093 50.9624 174.126 50.9389 174.154C50.9155 174.182 50.8867 174.206 50.8543 174.223C50.8187 174.23 50.7822 174.23 50.7467 174.223Z" fill="#26225B"/>
<path d="M245.882 14.0725L234.138 12.6266L233.69 16.2817L222.798 20.9157L219.858 18.6975L212.732 28.172L215.672 30.3812L214.246 42.1547L210.867 43.5916L215.484 54.512L218.881 53.0661L228.32 60.2505L227.881 63.9056L239.624 65.3605L240.073 61.6964L250.964 57.0714L253.878 59.2716L261.049 49.8061L258.064 47.5969L259.507 35.8324L262.905 34.3865L258.279 23.4752L254.891 24.921L245.442 17.7366L245.882 14.0725ZM246.267 40.1161C246.038 41.9778 245.264 43.7298 244.041 45.1505C242.819 46.5712 241.203 47.5968 239.399 48.0975C237.595 48.5983 235.682 48.5518 233.904 47.9639C232.126 47.376 230.562 46.2731 229.41 44.7947C228.258 43.3162 227.569 41.5287 227.431 39.6581C227.293 37.7875 227.712 35.9178 228.634 34.2856C229.557 32.6534 230.942 31.3319 232.614 30.4882C234.286 29.6446 236.171 29.3167 238.029 29.546C240.521 29.8557 242.789 31.1438 244.333 33.1275C245.878 35.1112 246.574 37.628 246.267 40.1251V40.1161Z" fill="#756FBF"/>
<path d="M351.4 100.403C342.131 101.866 329.644 98.8759 325.592 111.7C322.804 120.546 327.107 130.155 316.081 134.098C311.715 135.66 307.26 135.436 304.033 139.261C301.227 142.584 300.734 147.344 300.331 151.484C299.981 155.076 300.716 159.719 299.515 163.159C297.561 168.754 292.63 168.727 287.816 170.792C283.236 172.759 279.004 175.947 277.239 180.85C274.89 187.325 278.78 193.019 278.305 199.269C278.305 199.269 280.995 223.993 305.781 214.653C311.635 212.444 317.721 211.312 322.006 205.915C325.242 201.847 325.735 196.557 325.009 191.627C324.247 186.436 321.648 182.242 325.377 177.644C327.663 174.824 332.01 173.001 334.87 170.828C338.187 168.305 341.97 165.44 343.323 161.273C344.883 156.513 342.355 152.831 341.396 148.287C338.976 136.81 349.41 135.454 355.461 128.44C364.246 118.265 355.165 109.168 351.553 100.501L351.4 100.403Z" fill="white"/>
<path d="M295.517 217.033C292.5 217.088 289.527 216.295 286.938 214.743C279.238 210.001 277.974 199.395 277.974 199.287C278.044 196.757 277.742 194.231 277.077 191.789C276.306 188.268 275.508 184.604 276.916 180.743C278.897 175.255 283.845 172.157 287.673 170.532C288.856 170.02 290.048 169.634 291.196 169.274C294.728 168.134 297.785 167.155 299.264 163.06C300.017 160.905 299.99 158.219 299.972 155.633C299.926 154.24 299.959 152.846 300.071 151.457C300.456 147.47 300.967 142.476 303.836 139.082C306.175 136.316 309.098 135.624 312.19 134.888C313.48 134.614 314.752 134.263 316 133.837C323.405 131.188 323.727 126.015 324.068 120.016C324.132 117.177 324.547 114.356 325.305 111.619C328.514 101.444 336.824 101.049 344.865 100.663C347.028 100.601 349.185 100.421 351.328 100.124C351.387 100.106 351.449 100.106 351.508 100.124L351.66 100.214C351.689 100.227 351.715 100.245 351.737 100.268C351.758 100.292 351.775 100.319 351.786 100.349C352.657 102.331 353.635 104.265 354.717 106.141C358.598 113.209 362.605 120.51 355.613 128.593C353.678 130.669 351.495 132.5 349.114 134.044C344.211 137.51 339.98 140.492 341.611 148.197C341.903 149.486 342.268 150.757 342.705 152.005C343.709 155.031 344.65 157.887 343.52 161.336C342.122 165.592 338.142 168.601 334.969 171.026C333.843 171.842 332.676 172.601 331.472 173.298C329.258 174.636 326.99 175.992 325.529 177.788C322.795 181.156 323.557 184.281 324.444 187.891C324.731 189.068 325.027 190.28 325.215 191.555C325.825 195.65 325.78 201.497 322.159 206.068C318.645 210.495 314.046 212.049 309.169 213.71C308.067 214.078 306.928 214.465 305.808 214.887C302.533 216.212 299.047 216.939 295.517 217.033ZM351.301 100.69C349.172 100.975 347.03 101.149 344.883 101.211C337.03 101.588 328.918 101.983 325.825 111.781C325.082 114.477 324.676 117.255 324.615 120.052C324.238 125.988 323.889 131.592 316.144 134.358C314.874 134.789 313.581 135.146 312.271 135.427C309.268 136.136 306.426 136.81 304.203 139.441C301.415 142.728 300.949 147.595 300.564 151.511C300.461 152.882 300.428 154.258 300.465 155.633C300.465 158.264 300.519 161.021 299.73 163.24C298.206 167.595 294.88 168.628 291.357 169.795C290.219 170.164 289.044 170.541 287.879 171.044C284.177 172.624 279.372 175.633 277.454 180.922C276.1 184.658 276.88 188.214 277.633 191.654C278.305 194.134 278.607 196.701 278.529 199.269C278.529 199.323 279.749 209.66 287.216 214.258C291.931 217.168 298.125 217.204 305.628 214.375C306.749 213.953 307.896 213.567 308.999 213.189C313.795 211.564 318.322 210.028 321.737 205.727C325.153 201.425 325.269 195.632 324.686 191.645C324.498 190.397 324.202 189.193 323.916 188.053C323.019 184.461 322.203 181.048 325.108 177.465C326.605 175.615 328.936 174.214 331.195 172.849C332.382 172.162 333.534 171.416 334.646 170.613C337.774 168.242 341.665 165.287 343.001 161.183C344.076 157.914 343.162 155.139 342.194 152.202C341.747 150.935 341.373 149.642 341.073 148.332C339.37 140.249 343.951 137.034 348.8 133.613C351.147 132.087 353.296 130.277 355.201 128.224C361.915 120.456 357.998 113.326 354.206 106.429C353.138 104.568 352.168 102.653 351.301 100.69Z" fill="#26225B"/>
<path d="M340.509 120.043L284.491 220.419L340.509 120.043Z" fill="white"/>
<path d="M284.491 220.697C284.447 220.709 284.4 220.709 284.356 220.697C284.292 220.661 284.245 220.601 284.225 220.531C284.205 220.46 284.213 220.384 284.249 220.32L340.266 119.944C340.284 119.913 340.308 119.886 340.336 119.863C340.364 119.841 340.397 119.825 340.431 119.815C340.466 119.806 340.502 119.803 340.537 119.808C340.573 119.812 340.607 119.823 340.638 119.841C340.67 119.859 340.697 119.882 340.719 119.911C340.741 119.939 340.757 119.971 340.767 120.006C340.777 120.041 340.779 120.077 340.775 120.112C340.771 120.148 340.759 120.182 340.742 120.214L284.733 220.553C284.708 220.596 284.673 220.632 284.63 220.657C284.588 220.682 284.54 220.696 284.491 220.697Z" fill="#26225B"/>
<path d="M314.449 143.689L317.237 161.767L314.449 143.689Z" fill="white"/>
<path d="M317.237 162.018C317.171 162.017 317.107 161.994 317.057 161.951C317.006 161.908 316.972 161.85 316.959 161.785L314.171 143.689C314.165 143.619 314.186 143.549 314.229 143.494C314.272 143.439 314.334 143.402 314.403 143.39C314.472 143.379 314.543 143.394 314.602 143.433C314.66 143.472 314.702 143.531 314.718 143.599L317.506 161.677C317.513 161.712 317.512 161.749 317.504 161.784C317.496 161.819 317.481 161.852 317.46 161.881C317.439 161.911 317.413 161.936 317.382 161.954C317.352 161.973 317.318 161.986 317.282 161.991L317.237 162.018Z" fill="#26225B"/>
<path d="M297.238 197.572L313.481 195.237L297.238 197.572Z" fill="white"/>
<path d="M297.238 197.86C297.164 197.865 297.091 197.842 297.035 197.794C296.978 197.746 296.943 197.677 296.937 197.604C296.931 197.53 296.955 197.457 297.003 197.4C297.051 197.344 297.119 197.309 297.193 197.303L313.436 194.968C313.509 194.957 313.582 194.976 313.641 195.02C313.7 195.064 313.739 195.129 313.75 195.201C313.756 195.237 313.755 195.274 313.747 195.31C313.738 195.346 313.723 195.379 313.701 195.409C313.679 195.438 313.652 195.463 313.62 195.481C313.588 195.5 313.553 195.511 313.517 195.516L297.274 197.851L297.238 197.86Z" fill="#26225B"/>
<path d="M324.256 149.158L336.762 144.291L324.256 149.158Z" fill="white"/>
<path d="M324.256 149.436C324.2 149.435 324.146 149.418 324.099 149.386C324.053 149.354 324.017 149.309 323.996 149.257C323.983 149.223 323.977 149.186 323.978 149.15C323.979 149.113 323.988 149.077 324.003 149.044C324.018 149.01 324.039 148.98 324.066 148.955C324.092 148.93 324.124 148.911 324.158 148.898L336.663 144.03C336.732 144.004 336.808 144.006 336.876 144.037C336.943 144.067 336.995 144.123 337.021 144.192C337.048 144.261 337.045 144.337 337.015 144.405C336.985 144.472 336.929 144.525 336.86 144.551L324.355 149.419L324.256 149.436Z" fill="#26225B"/>
<path d="M362.731 227.998H336.735C336.695 228.006 336.653 228.004 336.614 227.994C336.575 227.983 336.538 227.964 336.507 227.938C336.476 227.912 336.45 227.879 336.433 227.842C336.416 227.805 336.407 227.765 336.407 227.724C336.407 227.684 336.416 227.643 336.433 227.606C336.45 227.569 336.476 227.537 336.507 227.511C336.538 227.485 336.575 227.466 336.614 227.455C336.653 227.445 336.695 227.443 336.735 227.45H362.731C362.795 227.462 362.853 227.496 362.895 227.546C362.936 227.596 362.959 227.659 362.959 227.724C362.959 227.79 362.936 227.853 362.895 227.903C362.853 227.953 362.795 227.987 362.731 227.998Z" fill="#26225B"/>
<path d="M57.3714 227.998H3.39737C3.33334 227.987 3.27543 227.953 3.23373 227.903C3.19203 227.853 3.16919 227.79 3.16919 227.724C3.16919 227.659 3.19203 227.596 3.23373 227.546C3.27543 227.496 3.33334 227.462 3.39737 227.451H57.3714C57.4354 227.462 57.4933 227.496 57.535 227.546C57.5767 227.596 57.5996 227.659 57.5996 227.724C57.5996 227.79 57.5767 227.853 57.535 227.903C57.4933 227.953 57.4354 227.987 57.3714 227.998Z" fill="#26225B"/>
<path d="M332.261 229.426L321.773 221.99V213.36H332.261V229.426Z" fill="#26225B"/>
<path d="M332.261 229.696C332.206 229.696 332.152 229.677 332.109 229.642L321.612 222.215C321.577 222.189 321.549 222.155 321.531 222.116C321.512 222.077 321.503 222.034 321.504 221.99V213.36C321.503 213.324 321.509 213.289 321.522 213.255C321.535 213.222 321.555 213.192 321.58 213.167C321.606 213.141 321.636 213.122 321.669 213.109C321.702 213.095 321.738 213.089 321.773 213.091H332.261C332.297 213.089 332.333 213.095 332.366 213.109C332.399 213.122 332.429 213.141 332.454 213.167C332.48 213.192 332.499 213.222 332.512 213.255C332.526 213.289 332.532 213.324 332.53 213.36V229.426C332.529 229.476 332.516 229.524 332.49 229.566C332.465 229.609 332.43 229.644 332.387 229.669C332.348 229.687 332.305 229.696 332.261 229.696ZM322.042 221.82L331.993 228.869V213.602H322.042V221.82Z" fill="#26225B"/>
<path d="M298.278 205.08V227.729H251.753C247.255 227.729 242.941 225.939 239.76 222.752C236.58 219.566 234.793 215.244 234.793 210.738V172.013H262.457V205.08H298.278Z" fill="#D4E6FC"/>
<path d="M298.269 227.998H251.753C247.185 227.994 242.806 226.174 239.575 222.938C236.345 219.702 234.529 215.314 234.524 210.738V172.013C234.523 171.978 234.529 171.942 234.542 171.909C234.555 171.876 234.575 171.845 234.6 171.82C234.625 171.795 234.655 171.775 234.688 171.762C234.722 171.749 234.757 171.743 234.793 171.744H262.457C262.528 171.744 262.596 171.772 262.647 171.823C262.697 171.874 262.725 171.942 262.725 172.013V204.81H298.269C298.305 204.809 298.341 204.815 298.375 204.828C298.408 204.841 298.439 204.861 298.465 204.886C298.491 204.911 298.511 204.941 298.526 204.975C298.54 205.008 298.547 205.044 298.547 205.08V227.729C298.545 227.801 298.514 227.87 298.462 227.92C298.41 227.97 298.341 227.998 298.269 227.998ZM235.071 172.319V210.774C235.075 215.205 236.835 219.453 239.962 222.586C243.09 225.719 247.33 227.482 251.753 227.486H298V205.349H262.457C262.421 205.351 262.385 205.344 262.351 205.331C262.317 205.318 262.287 205.299 262.261 205.274C262.235 205.249 262.214 205.218 262.2 205.185C262.186 205.152 262.179 205.116 262.179 205.08V172.283L235.071 172.319Z" fill="#2D71F0"/>
<path d="M258.288 172.013H285.961V205.08H321.818V227.729H275.293C270.795 227.729 266.481 225.939 263.3 222.752C260.12 219.566 258.333 215.244 258.333 210.738V172.013H258.288Z" fill="white"/>
<path d="M321.818 227.998H275.293C270.725 227.994 266.346 226.174 263.115 222.938C259.885 219.702 258.069 215.314 258.064 210.738V187.388C258.057 187.348 258.058 187.307 258.069 187.267C258.079 187.228 258.098 187.191 258.124 187.16C258.15 187.129 258.183 187.104 258.22 187.086C258.256 187.069 258.297 187.06 258.337 187.06C258.378 187.06 258.418 187.069 258.455 187.086C258.492 187.104 258.525 187.129 258.551 187.16C258.577 187.191 258.596 187.228 258.606 187.267C258.616 187.307 258.618 187.348 258.611 187.388V210.738C258.615 215.169 260.375 219.417 263.502 222.55C266.63 225.683 270.87 227.446 275.293 227.45H321.549V205.349H285.961C285.925 205.351 285.89 205.344 285.856 205.331C285.823 205.318 285.793 205.298 285.768 205.273C285.743 205.248 285.723 205.218 285.71 205.184C285.697 205.151 285.691 205.116 285.692 205.08V172.283H258.288C258.217 172.283 258.148 172.255 258.098 172.204C258.047 172.153 258.019 172.085 258.019 172.013C258.019 171.942 258.047 171.874 258.098 171.823C258.148 171.772 258.217 171.744 258.288 171.744H285.961C285.996 171.743 286.032 171.749 286.065 171.762C286.098 171.775 286.128 171.795 286.154 171.82C286.179 171.845 286.199 171.876 286.212 171.909C286.225 171.942 286.231 171.978 286.23 172.013V204.81H321.818C321.854 204.809 321.889 204.815 321.922 204.828C321.955 204.842 321.986 204.861 322.011 204.887C322.036 204.912 322.056 204.942 322.069 204.975C322.082 205.009 322.088 205.044 322.087 205.08V227.729C322.087 227.8 322.058 227.869 322.008 227.919C321.958 227.97 321.889 227.998 321.818 227.998Z" fill="#26225B"/>
<path d="M292.362 178.013H227.039C226.965 178.013 226.894 177.983 226.842 177.931C226.79 177.879 226.761 177.808 226.761 177.734V155.687H219.025C218.989 155.687 218.953 155.68 218.92 155.666C218.886 155.651 218.856 155.631 218.831 155.605C218.806 155.579 218.787 155.548 218.774 155.514C218.761 155.481 218.755 155.445 218.756 155.408V134.062C218.735 123.467 222.824 113.279 230.158 105.647C233.759 101.857 238.072 98.8161 242.848 96.6986C247.624 94.5812 252.771 93.429 257.992 93.308H259.355C291.958 93.308 302.446 116.729 304.176 121.426C305.79 125.701 309.071 136.513 304.795 144.713C302.518 149.086 298.412 152.068 292.595 153.585V177.743C292.593 177.808 292.569 177.871 292.527 177.92C292.484 177.969 292.426 178.002 292.362 178.013ZM227.308 177.465H292.084V153.361C292.084 153.301 292.105 153.242 292.142 153.195C292.179 153.148 292.231 153.115 292.29 153.1C298.063 151.646 302.151 148.736 304.347 144.452C308.524 136.451 305.288 125.809 303.701 121.615C301.909 116.972 291.6 93.8378 259.355 93.8378H258.01C252.859 93.9573 247.782 95.0946 243.07 97.1843C238.358 99.274 234.104 102.275 230.553 106.015C223.313 113.541 219.278 123.592 219.303 134.044V155.121H227.039C227.11 155.121 227.178 155.149 227.229 155.2C227.279 155.251 227.308 155.319 227.308 155.391V177.465Z" fill="#26225B"/>
<path d="M248.894 92.4997C248.861 92.5019 248.828 92.4974 248.798 92.4866C248.767 92.4758 248.738 92.4589 248.714 92.4368C248.684 92.4118 248.659 92.3803 248.642 92.3446C248.625 92.3089 248.616 92.2698 248.616 92.2303V74.341C248.616 67.8121 256.504 62.5495 263.03 62.5495C266.15 62.5543 269.14 63.7984 271.345 66.009C273.549 68.2195 274.789 71.216 274.791 74.341V88.7099C274.792 88.7755 274.769 88.8391 274.726 88.8888C274.683 88.9384 274.623 88.9706 274.558 88.9793L248.929 92.4997H248.894ZM263.03 63.1153C255.348 63.1153 249.163 69.267 249.163 74.359V91.916L274.263 88.5034V74.341C274.258 71.3589 273.073 68.5004 270.967 66.3926C268.861 64.2848 266.007 63.0997 263.03 63.0974V63.1153Z" fill="#26225B"/>
<path d="M245.173 75.3199C245.111 75.3195 245.05 75.298 245.002 75.2589C244.953 75.2197 244.919 75.1653 244.905 75.1043L244.77 74.4577C244.547 73.3526 244.581 72.211 244.868 71.121C245.156 70.031 245.69 69.0218 246.428 68.1713C248.062 66.2221 250.305 64.8833 252.793 64.3726L259.068 62.9806C259.352 62.8861 259.662 62.9077 259.931 63.0404C260.199 63.1732 260.405 63.4066 260.502 63.69L263.434 72.8053C263.451 72.8417 263.46 72.8816 263.46 72.922C263.46 72.9625 263.451 73.0024 263.434 73.0388C263.411 73.0708 263.381 73.0977 263.347 73.1177C263.313 73.1378 263.276 73.1507 263.237 73.1555L245.182 75.3199H245.173ZM259.454 63.4925C259.382 63.4838 259.31 63.4838 259.238 63.4925L252.963 64.8755C250.589 65.3523 248.444 66.618 246.877 68.4677C246.194 69.2522 245.699 70.1828 245.43 71.1883C245.161 72.1939 245.126 73.2477 245.326 74.2691L245.416 74.6733L262.896 72.5808L260.054 63.7529C259.965 63.6182 259.74 63.4925 259.454 63.4925Z" fill="#26225B"/>
<path d="M303.961 121.516C302.41 117.403 292.083 93.5684 259.355 93.5684H258.001C236.245 94.0892 219.024 112.239 219.024 134.044V155.39H227.038V177.716H292.361V153.361C311.321 148.574 307.036 129.679 303.961 121.516Z" fill="#C42128"/>
<path d="M274.522 88.7279L248.894 92.2124V74.3411C248.894 67.9828 256.684 62.828 263.03 62.828C266.078 62.828 269.001 64.041 271.156 66.2001C273.312 68.3592 274.522 71.2876 274.522 74.3411V88.7279Z" fill="#26225B"/>
<path d="M252.425 74.2782H264.357V93.7031C264.357 94.4886 264.203 95.2663 263.902 95.992C263.602 96.7176 263.163 97.377 262.608 97.9324C262.054 98.4877 261.396 98.9283 260.671 99.2289C259.947 99.5295 259.171 99.6842 258.387 99.6842C256.803 99.6842 255.285 99.054 254.165 97.9324C253.046 96.8107 252.417 95.2894 252.417 93.7031V74.2782H252.425Z" fill="white"/>
<path d="M258.396 99.9626C256.731 99.9626 255.135 99.3003 253.959 98.1214C252.782 96.9425 252.121 95.3435 252.121 93.6762V74.2782C252.121 74.2421 252.128 74.2063 252.142 74.173C252.156 74.1397 252.177 74.1096 252.203 74.0845C252.228 74.0593 252.259 74.0397 252.293 74.0267C252.326 74.0137 252.362 74.0076 252.398 74.0088H264.357C264.393 74.0076 264.429 74.0137 264.463 74.0267C264.496 74.0397 264.527 74.0593 264.553 74.0845C264.579 74.1096 264.599 74.1397 264.613 74.173C264.628 74.2063 264.635 74.2421 264.635 74.2782V93.7032C264.628 95.3595 263.968 96.9462 262.8 98.1183C261.632 99.2904 260.049 99.9532 258.396 99.9626ZM252.703 74.5387V93.6852C252.673 94.4525 252.797 95.2181 253.07 95.936C253.342 96.6539 253.756 97.3094 254.287 97.863C254.818 98.4167 255.455 98.8572 256.161 99.1581C256.866 99.459 257.625 99.6141 258.391 99.6141C259.158 99.6141 259.916 99.459 260.622 99.1581C261.327 98.8572 261.964 98.4167 262.495 97.863C263.026 97.3094 263.441 96.6539 263.713 95.936C263.985 95.2181 264.109 94.4525 264.079 93.6852V74.5387H252.703Z" fill="#26225B"/>
<path d="M268.552 75.2571C268.624 76.137 268.344 77.0096 267.774 77.6831C267.205 78.3567 266.391 78.7761 265.513 78.8493C265.236 78.8855 264.956 78.8855 264.679 78.8493C264.454 80.9179 263.509 82.8411 262.01 84.2814C260.511 85.7217 258.553 86.587 256.481 86.7255C254.408 86.8641 252.353 86.267 250.677 85.039C249 83.811 247.808 82.0306 247.311 80.0103C246.813 77.9899 247.042 75.8586 247.957 73.9904C248.872 72.1222 250.414 70.6365 252.314 69.7939C254.213 68.9513 256.348 68.8057 258.343 69.3827C260.339 69.9597 262.068 71.2223 263.227 72.9491C263.7 72.5854 264.263 72.3563 264.855 72.2859C265.447 72.2156 266.048 72.3065 266.593 72.5492C267.138 72.7919 267.608 73.1773 267.952 73.6649C268.297 74.1526 268.504 74.7243 268.552 75.3199V75.2571Z" fill="white"/>
<path d="M255.886 86.9587C254.324 86.9575 252.788 86.5544 251.427 85.7879C250.065 85.0215 248.923 83.9175 248.11 82.5818C247.296 81.2461 246.839 79.7234 246.782 78.1598C246.725 76.5963 247.07 75.0442 247.783 73.6524C248.497 72.2606 249.555 71.0759 250.857 70.2117C252.159 69.3475 253.661 68.8329 255.219 68.7173C256.776 68.6016 258.337 68.8887 259.752 69.5511C261.167 70.2135 262.388 71.2289 263.299 72.5C263.795 72.1735 264.366 71.9788 264.957 71.9342C265.428 71.8965 265.902 71.952 266.351 72.0977C266.801 72.2434 267.217 72.4763 267.577 72.7832C267.937 73.09 268.232 73.4649 268.447 73.8863C268.662 74.3077 268.792 74.7673 268.83 75.2391C268.868 75.7108 268.812 76.1854 268.667 76.6356C268.521 77.0859 268.289 77.5031 267.983 77.8633C267.676 78.2236 267.302 78.5199 266.881 78.7353C266.461 78.9507 266.002 79.0809 265.531 79.1187C265.328 79.1322 265.125 79.1322 264.922 79.1187C264.768 80.2528 264.4 81.3471 263.837 82.3427C263.107 83.6374 262.072 84.7334 260.822 85.5349C259.572 86.3365 258.145 86.8191 256.665 86.9407C256.406 86.9612 256.146 86.9672 255.886 86.9587ZM255.886 69.2491H255.204C253.59 69.3886 252.048 69.9845 250.757 70.9674C249.467 71.9503 248.482 73.28 247.917 74.8016C247.352 76.3233 247.229 77.9745 247.563 79.5633C247.898 81.152 248.675 82.613 249.806 83.7764C250.937 84.9398 252.374 85.7578 253.95 86.1352C255.526 86.5127 257.177 86.4341 258.711 85.9086C260.244 85.3831 261.597 84.4323 262.613 83.1667C263.628 81.9011 264.264 80.3728 264.446 78.7595C264.45 78.7223 264.462 78.6863 264.48 78.6538C264.499 78.6214 264.524 78.5931 264.554 78.5709C264.583 78.5447 264.617 78.5261 264.655 78.5166C264.692 78.5072 264.732 78.5074 264.769 78.517C265.288 78.6078 265.822 78.5611 266.317 78.3815C266.812 78.2019 267.252 77.8957 267.593 77.4932C267.983 77.035 268.229 76.471 268.3 75.8726C268.37 75.2742 268.261 74.6685 267.988 74.1319C267.714 73.5953 267.288 73.1522 266.763 72.8585C266.238 72.5648 265.638 72.4338 265.038 72.4821C264.454 72.5336 263.897 72.7518 263.433 73.1107C263.404 73.1328 263.371 73.149 263.336 73.1582C263.3 73.1675 263.264 73.1696 263.227 73.1646C263.151 73.1484 263.083 73.1034 263.039 73.0388C262.252 71.8665 261.188 70.907 259.941 70.2459C258.695 69.5847 257.305 69.2423 255.895 69.2491H255.886Z" fill="#26225B"/>
<path d="M245.173 75.0505L263.228 72.8862L260.287 63.7619C260.198 63.5568 260.035 63.3924 259.831 63.301C259.628 63.2096 259.397 63.1979 259.185 63.268L252.91 64.651C247.648 65.8095 244.134 70.183 245.057 74.4219L245.173 75.0505Z" fill="#26225B"/>
<path d="M263.631 77.2327C263.557 77.2327 263.487 77.2034 263.434 77.1512C263.382 77.099 263.353 77.0282 263.353 76.9543C263.355 76.4268 263.557 75.9197 263.918 75.5354C264.099 75.3668 264.315 75.2394 264.55 75.1619C264.785 75.0844 265.034 75.0586 265.28 75.0864C265.354 75.0864 265.425 75.1157 265.477 75.1679C265.529 75.2201 265.558 75.2909 265.558 75.3648C265.558 75.4386 265.529 75.5094 265.477 75.5616C265.425 75.6138 265.354 75.6432 265.28 75.6432C265.112 75.6175 264.94 75.63 264.777 75.6797C264.614 75.7294 264.465 75.8152 264.339 75.9305C264.089 76.2132 263.949 76.5767 263.945 76.9543C263.942 77.0274 263.912 77.097 263.861 77.1487C263.809 77.2004 263.74 77.2305 263.667 77.2327H263.631Z" fill="#26225B"/>
<path d="M88.092 221.487C88.092 221.487 21.5142 205.583 0.277832 129.85C71.6784 136.918 102.802 216.261 102.802 216.261L88.092 221.487Z" fill="white"/>
<path d="M88.0921 221.766H88.0293C87.859 221.766 71.1048 217.626 51.9839 204.299C34.3422 192.004 10.9992 169.122 9.27132e-06 129.922C-0.0136823 129.88 -0.0159119 129.836 -0.00644342 129.793C0.00302504 129.75 0.0238391 129.711 0.053795 129.679C0.0815701 129.645 0.11736 129.618 0.158007 129.601C0.198654 129.583 0.242909 129.576 0.286867 129.58C37.2646 133.244 63.2341 156.594 78.5093 175.534C88.5131 187.891 96.7831 201.56 103.089 216.162C103.116 216.228 103.116 216.302 103.089 216.368C103.075 216.403 103.053 216.434 103.025 216.459C102.997 216.483 102.964 216.502 102.928 216.512L88.2176 221.748L88.0921 221.766ZM0.645438 130.164C11.6536 168.969 34.7815 191.645 52.2977 203.859C70.6745 216.656 86.8192 220.922 88.0742 221.218L102.417 216.108C96.1416 201.663 87.9522 188.13 78.07 175.875C62.9383 157.079 37.2197 133.936 0.645438 130.164Z" fill="#26225B"/>
<path d="M15.9565 165.934L47.3316 173.235L15.9565 165.934Z" fill="white"/>
<path d="M47.2866 173.513H47.2328L15.8578 166.212C15.7934 166.189 15.7397 166.143 15.7069 166.083C15.6741 166.023 15.6646 165.953 15.6801 165.886C15.6956 165.82 15.7351 165.761 15.7911 165.722C15.847 165.683 15.9154 165.665 15.9833 165.673L47.3583 172.974C47.4232 172.991 47.4798 173.031 47.5177 173.086C47.5556 173.142 47.5723 173.209 47.5647 173.276C47.557 173.342 47.5256 173.404 47.4761 173.449C47.4267 173.495 47.3625 173.521 47.2955 173.522L47.2866 173.513Z" fill="#26225B"/>
<path d="M59.9352 184.901L54.6821 152.265L59.9352 184.901Z" fill="white"/>
<path d="M59.9354 185.179C59.8699 185.18 59.8064 185.156 59.7569 185.113C59.7074 185.07 59.6752 185.011 59.6665 184.946L54.4493 152.31C54.4388 152.239 54.4563 152.166 54.4981 152.108C54.5398 152.049 54.6027 152.009 54.6734 151.996C54.7456 151.985 54.8192 152.002 54.8791 152.044C54.9391 152.086 54.9809 152.149 54.9961 152.22L60.2043 184.856C60.2121 184.891 60.2123 184.928 60.205 184.964C60.1977 184.999 60.183 185.033 60.1619 185.063C60.1408 185.092 60.1137 185.117 60.0824 185.136C60.0511 185.154 60.0163 185.166 59.9802 185.17L59.9354 185.179Z" fill="#26225B"/>
<path d="M64.489 160.671L69.4732 193.702L64.489 160.671Z" fill="white"/>
<path d="M69.4732 193.98C69.4064 193.977 69.3425 193.951 69.292 193.907C69.2415 193.863 69.2075 193.803 69.1954 193.738L64.2112 160.752C64.2083 160.683 64.231 160.616 64.2747 160.563C64.3185 160.51 64.3803 160.475 64.4483 160.465C64.5162 160.455 64.5855 160.47 64.6426 160.508C64.6998 160.547 64.7409 160.605 64.758 160.671L69.7422 193.693C69.7485 193.729 69.7475 193.766 69.739 193.801C69.7306 193.837 69.715 193.871 69.6932 193.9C69.6714 193.93 69.6438 193.954 69.6122 193.973C69.5805 193.991 69.5454 194.003 69.5091 194.007L69.4732 193.98Z" fill="#26225B"/>
<path d="M0.277832 129.85L96.8143 218.955L0.277832 129.85Z" fill="white"/>
<path d="M96.8144 219.233C96.7453 219.231 96.6789 219.206 96.6261 219.161L0.0896783 130.056C0.0636589 130.03 0.0430081 130 0.0289158 129.966C0.0148235 129.932 0.00756836 129.896 0.00756836 129.859C0.00756836 129.822 0.0148235 129.786 0.0289158 129.752C0.0430081 129.718 0.0636589 129.687 0.0896783 129.661C0.115509 129.635 0.146233 129.614 0.18008 129.6C0.213928 129.586 0.250229 129.579 0.286893 129.579C0.323556 129.579 0.359858 129.586 0.393705 129.6C0.427552 129.614 0.458277 129.635 0.484107 129.661L97.0474 218.757C97.0979 218.811 97.126 218.881 97.126 218.955C97.126 219.028 97.0979 219.099 97.0474 219.152C97.0179 219.184 96.9812 219.207 96.9407 219.221C96.9002 219.235 96.8568 219.239 96.8144 219.233Z" fill="#26225B"/>
<path d="M140.336 193.872H83.072V209.597H140.336V193.872Z" fill="#756FBF"/>
<path d="M140.345 209.876H83.0721C83.036 209.876 83.0003 209.868 82.967 209.854C82.9338 209.84 82.9038 209.819 82.8787 209.794C82.8536 209.768 82.834 209.737 82.821 209.703C82.808 209.669 82.8019 209.633 82.8031 209.597V193.872C82.8019 193.836 82.808 193.801 82.8211 193.768C82.8341 193.734 82.8539 193.704 82.8791 193.679C82.9043 193.654 82.9345 193.634 82.9677 193.621C83.0009 193.608 83.0364 193.602 83.0721 193.603H140.345C140.38 193.603 140.415 193.61 140.448 193.623C140.48 193.637 140.51 193.657 140.535 193.682C140.56 193.707 140.58 193.736 140.593 193.769C140.607 193.802 140.614 193.837 140.614 193.872V209.597C140.614 209.669 140.586 209.739 140.536 209.791C140.485 209.843 140.417 209.873 140.345 209.876ZM83.3679 209.328H140.085V194.151H83.3679V209.328Z" fill="#26225B"/>
<path d="M125.995 210.319V227.229H71.7591C70.2909 227.229 68.8372 226.939 67.4812 226.374C66.1252 225.81 64.8938 224.983 63.8575 223.941C62.8212 222.899 62.0004 221.662 61.4423 220.301C60.8843 218.94 60.5999 217.482 60.6056 216.011V216.009C60.6056 213.045 61.7809 210.203 63.8727 208.107C65.9586 206.018 68.7854 204.841 71.7342 204.835L125.995 210.319Z" fill="white" stroke="#26225B"/>
<path d="M126.495 227.998H71.759C68.6429 227.913 65.6831 226.613 63.5093 224.375C61.3354 222.136 60.1191 219.137 60.1191 216.014C60.1191 212.891 61.3354 209.891 63.5093 207.653C65.6831 205.415 68.6429 204.115 71.759 204.029L126.522 209.561C126.588 209.568 126.65 209.599 126.695 209.649C126.74 209.699 126.764 209.764 126.764 209.831V227.729C126.764 227.8 126.736 227.869 126.685 227.919C126.635 227.97 126.566 227.998 126.495 227.998ZM71.7141 204.568C68.6852 204.568 65.7804 205.774 63.6386 207.919C61.4969 210.065 60.2936 212.975 60.2936 216.009C60.2936 219.044 61.4969 221.954 63.6386 224.099C65.7804 226.245 68.6852 227.451 71.7141 227.451H126.181V210.082L71.7141 204.568Z" fill="#26225B"/>
<path d="M83.1616 230.531L93.6498 223.095V214.465H83.1616V230.531Z" fill="#26225B"/>
<path d="M83.1618 230.8H83.0363C82.9924 230.777 82.9557 230.742 82.9304 230.699C82.9051 230.657 82.8921 230.608 82.8929 230.558V214.465C82.8951 214.394 82.9241 214.327 82.9741 214.277C83.0241 214.227 83.0912 214.197 83.1618 214.195H93.659C93.7296 214.197 93.7967 214.227 93.8467 214.277C93.8966 214.327 93.9257 214.394 93.9279 214.465V223.095C93.9276 223.139 93.9168 223.182 93.8966 223.221C93.8763 223.26 93.8471 223.294 93.8114 223.319L83.368 230.8C83.3354 230.814 83.3003 230.822 83.2649 230.822C83.2294 230.822 83.1943 230.814 83.1618 230.8ZM83.4397 214.743V230.01L93.3811 222.969V214.752L83.4397 214.743Z" fill="#26225B"/>
<path d="M93.2822 227.729H148.018C149.552 227.729 151.071 227.425 152.488 226.836C153.905 226.246 155.192 225.382 156.274 224.294C157.357 223.205 158.215 221.912 158.798 220.491C159.381 219.069 159.678 217.546 159.672 216.009C159.672 212.913 158.444 209.943 156.259 207.754C154.073 205.565 151.109 204.335 148.018 204.335L93.2822 209.867V227.729Z" fill="#756FBF"/>
<path d="M148.018 227.998H93.2824C93.211 227.998 93.1426 227.97 93.0922 227.919C93.0418 227.869 93.0134 227.8 93.0134 227.729V209.831C93.0131 209.764 93.0377 209.699 93.0825 209.649C93.1272 209.599 93.1889 209.568 93.2555 209.561L147.991 204.029C149.59 203.985 151.181 204.263 152.671 204.845C154.16 205.428 155.518 206.304 156.665 207.421C157.811 208.538 158.722 209.874 159.344 211.35C159.966 212.826 160.286 214.412 160.286 216.014C160.286 217.616 159.966 219.202 159.344 220.677C158.722 222.153 157.811 223.489 156.665 224.606C155.518 225.724 154.16 226.599 152.671 227.182C151.181 227.765 149.59 228.042 147.991 227.998H148.018ZM93.5513 227.45H148.018C151.047 227.45 153.952 226.245 156.094 224.099C158.236 221.954 159.439 219.044 159.439 216.009C159.439 212.975 158.236 210.065 156.094 207.919C153.952 205.773 151.047 204.568 148.018 204.568L93.5513 210.082V227.45Z" fill="#26225B"/>
<path d="M101.395 99.2442C101.395 99.2442 96.5544 91.0808 101.395 88.0364C106.236 84.992 120.372 81.8039 120.372 81.8039L118.714 96.3883L101.395 99.2442Z" fill="#26225B"/>
<path d="M101.395 99.5136C101.348 99.5136 101.302 99.5012 101.261 99.4775C101.22 99.4539 101.186 99.4198 101.162 99.3789C100.956 99.0376 96.2497 90.9551 101.252 87.8029C106.066 84.7675 119.736 81.6692 120.31 81.5165C120.352 81.5058 120.397 81.5059 120.439 81.5169C120.481 81.5279 120.52 81.5494 120.552 81.5794C120.584 81.6086 120.609 81.6449 120.624 81.6855C120.64 81.726 120.646 81.7697 120.641 81.8129L118.983 96.3883C118.976 96.4487 118.949 96.5051 118.907 96.5489C118.865 96.5926 118.81 96.6214 118.75 96.6308L101.44 99.4866L101.395 99.5136ZM120.059 82.1631C117.791 82.693 105.841 85.5578 101.539 88.2609C97.2358 90.9641 100.911 97.7983 101.539 98.9388L118.463 96.1548L120.059 82.1631Z" fill="#26225B"/>
<path d="M150.6 157.77C150.6 135.966 133.38 117.816 111.623 117.295H110.27C77.5412 117.295 67.2412 141.129 65.6635 145.242C62.5888 153.406 58.3038 174.941 77.2633 180.267V199.458H142.532V179.916L150.546 179.126L150.6 157.77Z" fill="#C42128"/>
<path d="M142.532 199.737H77.2273C77.1912 199.737 77.1555 199.729 77.1223 199.715C77.0891 199.701 77.059 199.68 77.0339 199.654C77.0088 199.628 76.9892 199.598 76.9762 199.564C76.9632 199.53 76.9572 199.494 76.9584 199.458V180.509C71.3647 178.884 67.3487 175.705 65.0179 171.071C61.0378 163.177 62.7231 152.211 65.3765 145.144C67.1694 140.447 77.6307 117.026 110.198 117.026C110.655 117.026 111.094 117.026 111.552 117.026C116.775 117.146 121.923 118.298 126.701 120.415C131.479 122.533 135.792 125.574 139.395 129.365C146.731 136.993 150.819 147.178 150.797 157.77V179.126C150.795 179.194 150.769 179.259 150.723 179.308C150.676 179.358 150.614 179.389 150.546 179.396L142.783 180.159V199.458C142.786 199.528 142.761 199.596 142.714 199.648C142.667 199.7 142.602 199.732 142.532 199.737ZM77.4783 199.189H142.263V179.916C142.26 179.878 142.264 179.84 142.275 179.804C142.287 179.767 142.306 179.734 142.331 179.705C142.357 179.677 142.388 179.653 142.422 179.637C142.457 179.621 142.494 179.612 142.532 179.611L150.295 178.848V157.743C150.316 147.292 146.282 137.242 139.045 129.715C135.493 125.976 131.239 122.975 126.527 120.885C121.816 118.796 116.739 117.658 111.587 117.537H110.261C77.9893 117.537 67.6534 140.671 65.9054 145.305C63.2968 152.229 61.6384 163.06 65.5289 170.792C67.8238 175.336 71.8039 178.435 77.3259 180.006C77.382 180.023 77.4313 180.058 77.4667 180.104C77.5021 180.151 77.5219 180.208 77.5231 180.267L77.4783 199.189Z" fill="#C42128"/>
<path d="M108.647 123.186C107.064 123.186 105.545 122.556 104.426 121.434C103.306 120.313 102.677 118.791 102.677 117.205V97.7803H114.608V117.205C114.608 118.79 113.981 120.31 112.863 121.431C111.745 122.553 110.229 123.184 108.647 123.186Z" fill="white"/>
<path d="M108.638 123.456C106.974 123.456 105.378 122.793 104.201 121.614C103.024 120.436 102.363 118.837 102.363 117.169V97.7803C102.363 97.7065 102.393 97.6357 102.445 97.5835C102.497 97.5313 102.567 97.5019 102.641 97.5019H114.573C114.646 97.5019 114.717 97.5313 114.769 97.5835C114.821 97.6357 114.851 97.7065 114.851 97.7803V117.205C114.841 118.855 114.185 120.436 113.022 121.605C111.86 122.775 110.285 123.439 108.638 123.456ZM102.955 98.0587V117.205C102.925 117.973 103.049 118.738 103.321 119.456C103.593 120.174 104.007 120.829 104.539 121.383C105.07 121.937 105.707 122.377 106.412 122.678C107.118 122.979 107.876 123.134 108.643 123.134C109.409 123.134 110.168 122.979 110.873 122.678C111.578 122.377 112.216 121.937 112.747 121.383C113.278 120.829 113.692 120.174 113.964 119.456C114.236 118.738 114.361 117.973 114.331 117.205V98.0587H102.955Z" fill="#26225B"/>
<path d="M98.1859 101.48C98.3369 102.344 98.8237 103.113 99.5395 103.618C100.255 104.123 101.142 104.323 102.005 104.174C102.28 104.131 102.549 104.049 102.802 103.932C103.218 105.061 103.862 106.091 104.694 106.958C106.023 108.354 107.77 109.276 109.67 109.586C111.569 109.895 113.518 109.575 115.22 108.674C116.921 107.773 118.283 106.34 119.097 104.592C119.912 102.845 120.135 100.88 119.732 98.9939C119.33 97.1083 118.324 95.4058 116.867 94.1452C115.411 92.8845 113.583 92.1347 111.662 92.0096C109.742 91.8844 107.833 92.3909 106.225 93.4519C104.618 94.5129 103.401 96.0705 102.758 97.8881C102.17 97.6368 101.523 97.5589 100.893 97.6636C100.03 97.813 99.2616 98.2981 98.7545 99.0131C98.2473 99.7281 98.0429 100.615 98.1859 101.48Z" fill="white"/>
<path d="M111.068 109.985C109.261 109.983 107.495 109.444 105.995 108.435C104.494 107.426 103.327 105.993 102.641 104.318C102.448 104.384 102.25 104.435 102.05 104.471C101.583 104.551 101.105 104.537 100.643 104.431C100.181 104.324 99.7454 104.127 99.3602 103.851C98.9725 103.582 98.6426 103.237 98.3901 102.837C98.1376 102.438 97.9676 101.992 97.8901 101.525C97.8104 101.059 97.8234 100.582 97.9281 100.121C98.0329 99.6604 98.2274 99.2247 98.5005 98.8393C98.7737 98.4538 99.1201 98.1262 99.5199 97.8751C99.9197 97.6241 100.365 97.4545 100.83 97.3762C101.43 97.2666 102.048 97.3162 102.623 97.5199C103.128 96.2331 103.918 95.078 104.933 94.1418C105.949 93.2056 107.163 92.5128 108.485 92.1158C109.807 91.7188 111.201 91.6279 112.564 91.85C113.926 92.072 115.22 92.6013 116.348 93.3978C117.327 94.0879 118.16 94.9667 118.798 95.9828C119.435 96.9989 119.864 98.1321 120.059 99.316C120.461 101.703 119.902 104.153 118.504 106.128C117.106 108.103 114.983 109.442 112.6 109.85C112.094 109.935 111.581 109.98 111.068 109.985ZM102.803 103.699C102.835 103.689 102.869 103.689 102.901 103.699C102.937 103.713 102.968 103.735 102.995 103.763C103.021 103.791 103.041 103.824 103.054 103.86C103.464 104.95 104.089 105.945 104.891 106.788C106.179 108.136 107.87 109.027 109.709 109.326C111.547 109.624 113.433 109.313 115.08 108.441C116.726 107.569 118.044 106.182 118.833 104.492C119.622 102.801 119.839 100.899 119.451 99.0742C119.063 97.2491 118.092 95.6004 116.684 94.3783C115.277 93.1563 113.51 92.4274 111.651 92.3024C109.793 92.1774 107.944 92.6631 106.386 93.6857C104.828 94.7083 103.645 96.2121 103.018 97.9689C103.005 98.0042 102.985 98.0365 102.959 98.0639C102.934 98.0913 102.903 98.1132 102.868 98.1283C102.834 98.1434 102.797 98.1514 102.759 98.1518C102.722 98.1522 102.685 98.145 102.65 98.1306C102.148 97.9147 101.598 97.8383 101.056 97.9095C100.515 97.9806 100.002 98.1967 99.5728 98.5349C99.1435 98.8731 98.8131 99.321 98.6163 99.8314C98.4196 100.342 98.3638 100.896 98.4548 101.435C98.5929 102.23 99.039 102.937 99.6956 103.403C100.352 103.869 101.166 104.056 101.96 103.923C102.211 103.882 102.456 103.807 102.686 103.699C102.722 103.68 102.762 103.671 102.803 103.672V103.699Z" fill="#26225B"/>
<path d="M103.367 102.172C103.304 102.173 103.243 102.152 103.194 102.113C103.145 102.073 103.111 102.018 103.098 101.956C102.996 101.592 102.771 101.275 102.462 101.058C102.31 100.983 102.143 100.94 101.973 100.932C101.804 100.924 101.634 100.952 101.476 101.013C101.406 101.036 101.329 101.03 101.264 100.996C101.198 100.962 101.149 100.904 101.126 100.834C101.106 100.762 101.115 100.686 101.15 100.621C101.185 100.555 101.244 100.506 101.314 100.483C101.545 100.397 101.792 100.361 102.038 100.378C102.284 100.395 102.523 100.464 102.74 100.582C103.182 100.869 103.502 101.311 103.636 101.821C103.65 101.893 103.636 101.967 103.598 102.028C103.56 102.09 103.5 102.135 103.43 102.154L103.367 102.172Z" fill="#26225B"/>
<path d="M68.1824 120.797H67.9135C66.1384 120.676 64.3902 120.298 62.7232 119.675C62.6898 119.661 62.6596 119.641 62.6342 119.615C62.6089 119.59 62.5889 119.559 62.5756 119.526C62.5622 119.492 62.5556 119.456 62.5564 119.42C62.5571 119.384 62.565 119.349 62.5797 119.316C62.6076 119.248 62.6608 119.194 62.7278 119.166C62.7949 119.137 62.8705 119.136 62.9383 119.163C64.5582 119.761 66.2543 120.127 67.9762 120.25H68.2452C68.3092 120.261 68.3671 120.295 68.4088 120.345C68.4505 120.395 68.4734 120.458 68.4734 120.524C68.4734 120.589 68.4505 120.652 68.4088 120.702C68.3671 120.752 68.3092 120.786 68.2452 120.797H68.1824ZM60.3476 118.391C60.3006 118.403 60.2512 118.403 60.2042 118.391C58.5832 117.478 57.0603 116.401 55.6593 115.176C55.6333 115.15 55.6126 115.119 55.5985 115.085C55.5844 115.051 55.5772 115.015 55.5772 114.978C55.5772 114.941 55.5844 114.905 55.5985 114.871C55.6126 114.837 55.6333 114.806 55.6593 114.78C55.6845 114.753 55.715 114.732 55.7489 114.717C55.7829 114.702 55.8195 114.694 55.8565 114.694C55.8935 114.694 55.9302 114.702 55.9641 114.717C55.998 114.732 56.0286 114.753 56.0537 114.78C57.437 115.981 58.9389 117.037 60.5359 117.933C60.5677 117.95 60.5956 117.974 60.618 118.003C60.6403 118.032 60.6566 118.065 60.6658 118.1C60.675 118.135 60.677 118.172 60.6716 118.208C60.6662 118.244 60.6536 118.279 60.6345 118.31C60.6007 118.351 60.5551 118.381 60.5038 118.396C60.4525 118.41 60.3979 118.408 60.3476 118.391ZM53.9292 113.209C53.8874 113.209 53.8463 113.199 53.8089 113.18C53.7716 113.162 53.7391 113.135 53.714 113.101C53.463 112.787 53.23 112.455 53.0148 112.131C52.1979 110.896 51.592 109.533 51.222 108.099C51.2098 108.03 51.2242 107.958 51.2625 107.899C51.3008 107.84 51.36 107.798 51.4282 107.78C51.4965 107.763 51.5686 107.773 51.6301 107.807C51.6917 107.841 51.738 107.897 51.7598 107.964C52.1254 109.339 52.7161 110.644 53.5079 111.826C53.7192 112.137 53.9466 112.437 54.1892 112.724C54.239 112.776 54.2669 112.845 54.2669 112.917C54.2669 112.989 54.239 113.058 54.1892 113.11C54.1583 113.148 54.118 113.177 54.0724 113.194C54.0268 113.212 53.9774 113.217 53.9292 113.209ZM51.0965 105.566C51.0604 105.566 51.0247 105.559 50.9914 105.545C50.9582 105.531 50.9282 105.51 50.9031 105.484C50.878 105.458 50.8584 105.428 50.8454 105.394C50.8324 105.36 50.8263 105.324 50.8275 105.288C50.8701 103.41 51.3424 101.566 52.208 99.8997C52.2408 99.8348 52.2976 99.7853 52.3662 99.7618C52.4349 99.7383 52.5101 99.7427 52.5756 99.774C52.6404 99.8068 52.6897 99.8637 52.7132 99.9325C52.7366 100.001 52.7323 100.077 52.7011 100.142C51.8729 101.753 51.4193 103.531 51.3744 105.342C51.3635 105.407 51.3292 105.466 51.278 105.507C51.2268 105.548 51.1622 105.57 51.0965 105.566ZM53.8754 97.8881C53.8174 97.8869 53.7612 97.8681 53.714 97.8342C53.655 97.791 53.6153 97.7263 53.6035 97.654C53.5918 97.5817 53.609 97.5077 53.6513 97.448C54.7447 95.9398 55.9915 94.5493 57.3715 93.299C57.3973 93.2729 57.428 93.2522 57.4619 93.2381C57.4957 93.224 57.532 93.2167 57.5687 93.2167C57.6054 93.2167 57.6417 93.224 57.6755 93.2381C57.7094 93.2522 57.7401 93.2729 57.7659 93.299C57.8163 93.3524 57.8445 93.4231 57.8445 93.4966C57.8445 93.5701 57.8163 93.6408 57.7659 93.6941C56.4122 94.9197 55.1894 96.2832 54.1174 97.7623C54.0949 97.7997 54.0635 97.8307 54.0259 97.8527C53.9883 97.8747 53.9458 97.8868 53.9023 97.8881H53.8754ZM59.6574 91.9788C59.6156 91.9788 59.5744 91.9691 59.5371 91.9504C59.4998 91.9317 59.4673 91.9045 59.4422 91.8711C59.3924 91.8192 59.3645 91.75 59.3645 91.678C59.3645 91.606 59.3924 91.5368 59.4422 91.4849C60.8986 90.3366 62.419 89.2721 63.9961 88.2968C64.0568 88.2727 64.1241 88.2708 64.1861 88.2915C64.2481 88.3121 64.3008 88.354 64.3351 88.4098C64.3693 88.4655 64.3829 88.5315 64.3733 88.5963C64.3638 88.661 64.3318 88.7203 64.283 88.7638C62.7331 89.7326 61.2369 90.7849 59.8008 91.916C59.7676 91.946 59.7276 91.9676 59.6843 91.9788H59.6574Z" fill="#26225B"/>
<path d="M286.517 105.971C286.443 105.971 286.372 105.941 286.32 105.889C286.268 105.837 286.239 105.766 286.239 105.692C286.242 105.643 286.257 105.596 286.282 105.554C286.307 105.512 286.341 105.476 286.382 105.45C286.669 105.261 287.467 104.722 288.641 103.842C288.67 103.819 288.702 103.803 288.738 103.793C288.773 103.784 288.809 103.781 288.845 103.786C288.881 103.791 288.916 103.804 288.947 103.823C288.978 103.841 289.005 103.866 289.027 103.896C289.07 103.955 289.088 104.028 289.078 104.1C289.068 104.172 289.03 104.238 288.973 104.282C287.781 105.18 286.974 105.719 286.687 105.917C286.637 105.952 286.578 105.971 286.517 105.971ZM290.999 102.639C290.957 102.639 290.916 102.629 290.878 102.61C290.841 102.592 290.809 102.564 290.784 102.531C290.739 102.473 290.719 102.401 290.728 102.329C290.736 102.257 290.772 102.191 290.828 102.145C292.254 100.995 293.661 99.7829 295.015 98.5526C295.041 98.5284 295.072 98.5097 295.106 98.4975C295.14 98.4853 295.175 98.4799 295.211 98.4816C295.247 98.4832 295.282 98.492 295.314 98.5072C295.347 98.5225 295.376 98.544 295.4 98.5705C295.424 98.5971 295.443 98.6281 295.455 98.6619C295.467 98.6956 295.473 98.7315 295.471 98.7673C295.469 98.8032 295.461 98.8384 295.445 98.8709C295.43 98.9034 295.409 98.9325 295.382 98.9567C294.029 100.205 292.612 101.426 291.178 102.549C291.157 102.582 291.13 102.61 291.097 102.632C291.065 102.654 291.028 102.668 290.99 102.675L290.999 102.639ZM297.202 97.1157C297.165 97.1159 297.129 97.1088 297.095 97.095C297.061 97.0811 297.031 97.0607 297.005 97.0349C296.978 97.0096 296.956 96.9791 296.941 96.9451C296.926 96.9111 296.919 96.8744 296.919 96.8373C296.919 96.8002 296.926 96.7635 296.941 96.7295C296.956 96.6955 296.978 96.6649 297.005 96.6397C298.331 95.3286 299.604 93.9456 300.797 92.6344C300.822 92.6086 300.852 92.5881 300.885 92.5741C300.918 92.5601 300.953 92.5529 300.989 92.5529C301.025 92.5529 301.061 92.5601 301.094 92.5741C301.127 92.5881 301.157 92.6086 301.182 92.6344C301.208 92.6603 301.229 92.6911 301.243 92.725C301.257 92.7589 301.264 92.7952 301.264 92.832C301.264 92.8687 301.257 92.9051 301.243 92.939C301.229 92.9729 301.208 93.0037 301.182 93.0295C299.99 94.3856 298.699 95.7237 297.363 97.0618C297.319 97.1111 297.259 97.143 297.193 97.1516L297.202 97.1157ZM302.796 90.982C302.734 90.98 302.674 90.958 302.625 90.9191C302.596 90.8963 302.572 90.868 302.554 90.8357C302.536 90.8034 302.524 90.7678 302.52 90.731C302.516 90.6942 302.519 90.6569 302.53 90.6214C302.54 90.5858 302.557 90.5527 302.581 90.524C303.773 89.0601 304.866 87.5694 305.853 86.0965C305.894 86.036 305.958 85.9944 306.03 85.9809C306.103 85.9675 306.177 85.9832 306.238 86.0247C306.269 86.0437 306.295 86.0689 306.315 86.0986C306.336 86.1283 306.35 86.162 306.357 86.1975C306.363 86.233 306.363 86.2694 306.355 86.3046C306.347 86.3398 306.331 86.3729 306.31 86.4019C305.324 87.8927 304.212 89.4014 303.011 90.8922C302.987 90.9302 302.954 90.9616 302.915 90.9836C302.876 91.0055 302.832 91.0173 302.787 91.0179L302.796 90.982ZM307.565 84.1927C307.514 84.1917 307.464 84.1761 307.421 84.1478C307.359 84.1104 307.313 84.0499 307.295 83.9794C307.277 83.9088 307.287 83.8339 307.323 83.7706C308.264 82.1941 309.112 80.5627 309.86 78.8852C309.874 78.8526 309.895 78.8232 309.921 78.7987C309.947 78.7743 309.977 78.7552 310.011 78.7427C310.044 78.7301 310.08 78.7244 310.115 78.7257C310.151 78.7271 310.186 78.7355 310.218 78.7505C310.251 78.7642 310.282 78.7844 310.307 78.81C310.332 78.8357 310.352 78.8661 310.366 78.8997C310.379 78.9332 310.386 78.969 310.385 79.0051C310.384 79.0412 310.376 79.0767 310.362 79.1097C309.608 80.807 308.752 82.4565 307.798 84.049C307.779 84.0991 307.746 84.1426 307.703 84.1745C307.66 84.2063 307.609 84.2251 307.556 84.2286L307.565 84.1927ZM311.15 76.7119H311.052C311.018 76.6989 310.986 76.6793 310.96 76.6543C310.933 76.6292 310.912 76.5991 310.897 76.5658C310.882 76.5324 310.874 76.4964 310.872 76.4598C310.871 76.4233 310.877 76.3868 310.89 76.3526C311.513 74.6337 311.999 72.868 312.343 71.0721C312.348 71.0354 312.361 71.0003 312.381 70.9688C312.4 70.9372 312.426 70.9099 312.456 70.8884C312.486 70.8669 312.52 70.8516 312.557 70.8435C312.593 70.8354 312.63 70.8347 312.667 70.8412C312.703 70.8478 312.738 70.8616 312.769 70.8819C312.8 70.9021 312.826 70.9283 312.847 70.959C312.868 70.9898 312.882 71.0243 312.89 71.0607C312.897 71.0971 312.897 71.1345 312.889 71.1709C312.539 73.0031 312.044 74.8048 311.41 76.5592C311.39 76.6159 311.352 76.6646 311.302 76.6985C311.252 76.7323 311.193 76.7496 311.132 76.7478L311.15 76.7119ZM313.015 68.6294C312.942 68.6203 312.875 68.5837 312.829 68.5268C312.782 68.47 312.759 68.3974 312.764 68.324C312.863 67.3362 312.916 66.3393 312.916 65.3515C312.916 64.5253 312.916 63.6811 312.809 62.8549C312.804 62.7815 312.827 62.7089 312.874 62.6521C312.92 62.5952 312.987 62.5586 313.06 62.5495C313.132 62.5445 313.203 62.568 313.259 62.615C313.314 62.662 313.349 62.7287 313.356 62.801C313.436 63.699 313.472 64.5073 313.472 65.3515C313.472 66.3573 313.418 67.3721 313.32 68.3779C313.325 68.4208 313.319 68.4641 313.304 68.5046C313.29 68.5451 313.266 68.5816 313.234 68.6112C313.203 68.6408 313.165 68.6627 313.124 68.6752C313.083 68.6877 313.039 68.6905 312.997 68.6833L313.015 68.6294ZM312.692 60.3673C312.626 60.3664 312.562 60.3426 312.512 60.3001C312.461 60.2576 312.427 60.1988 312.414 60.1338C312.172 58.8141 311.843 57.512 311.428 56.2362C311.276 55.7692 311.106 55.3381 310.935 54.8712C310.921 54.8377 310.913 54.8016 310.913 54.7651C310.913 54.7286 310.92 54.6924 310.935 54.6588C310.949 54.6252 310.97 54.5949 310.996 54.5696C311.022 54.5444 311.054 54.5248 311.088 54.5119C311.155 54.4852 311.231 54.4862 311.298 54.5148C311.365 54.5433 311.418 54.5971 311.446 54.6646C311.626 55.1136 311.796 55.5627 311.948 56.0566C312.376 57.358 312.714 58.6873 312.961 60.035C312.974 60.1076 312.958 60.1825 312.916 60.2431C312.874 60.3037 312.81 60.3452 312.737 60.3583L312.692 60.3673ZM310.003 52.5542C309.955 52.554 309.907 52.5416 309.865 52.518C309.822 52.4945 309.787 52.4606 309.761 52.4195C308.867 50.8337 307.747 49.3875 306.435 48.1268C306.385 48.0749 306.358 48.0057 306.358 47.9337C306.358 47.8617 306.385 47.7925 306.435 47.7406C306.461 47.7145 306.492 47.6938 306.526 47.6797C306.559 47.6656 306.596 47.6583 306.632 47.6583C306.669 47.6583 306.705 47.6656 306.739 47.6797C306.773 47.6938 306.804 47.7145 306.83 47.7406C308.179 49.036 309.332 50.5214 310.254 52.1501C310.289 52.2144 310.298 52.2902 310.278 52.3609C310.258 52.4315 310.21 52.4913 310.146 52.5272C310.125 52.5518 310.099 52.5717 310.07 52.5857C310.04 52.5996 310.009 52.6072 309.976 52.6081L310.003 52.5542ZM304.508 46.4384C304.451 46.4361 304.396 46.4207 304.347 46.3935C302.867 45.3313 301.266 44.4508 299.578 43.7712C299.543 43.7584 299.512 43.7387 299.486 43.7135C299.46 43.6883 299.439 43.6579 299.424 43.6243C299.41 43.5907 299.403 43.5546 299.403 43.5181C299.403 43.4816 299.411 43.4455 299.425 43.412C299.438 43.3778 299.458 43.3466 299.483 43.3202C299.508 43.2939 299.538 43.2729 299.572 43.2586C299.605 43.2443 299.641 43.237 299.678 43.2372C299.714 43.2373 299.75 43.2448 299.784 43.2593C301.514 43.9573 303.155 44.8619 304.669 45.9535C304.718 45.986 304.756 46.0338 304.775 46.0896C304.794 46.1454 304.795 46.206 304.777 46.2621C304.758 46.3182 304.722 46.3668 304.674 46.4003C304.625 46.4337 304.567 46.4503 304.508 46.4474V46.4384ZM267.001 43.4479C266.941 43.4476 266.883 43.427 266.836 43.3896C266.789 43.3521 266.755 43.2999 266.741 43.2413C266.722 43.1711 266.731 43.096 266.766 43.0322C266.801 42.9684 266.86 42.9209 266.93 42.9001C266.93 42.9001 269.09 42.3163 272.371 41.7596C272.406 41.7518 272.443 41.7515 272.479 41.7589C272.514 41.7662 272.548 41.7809 272.578 41.8021C272.607 41.8232 272.632 41.8503 272.65 41.8817C272.669 41.913 272.68 41.9479 272.685 41.9841C272.698 42.0567 272.681 42.1316 272.639 42.1922C272.597 42.2528 272.533 42.2942 272.461 42.3074C269.207 42.8552 267.082 43.4299 267.082 43.4389L267.001 43.4479ZM297.068 42.8731H296.996C295.234 42.3543 293.436 41.9671 291.617 41.7146C291.545 41.7036 291.48 41.6643 291.436 41.6055C291.393 41.5466 291.374 41.4729 291.384 41.4003C291.388 41.3639 291.4 41.3288 291.419 41.2971C291.437 41.2654 291.461 41.2377 291.491 41.2159C291.52 41.194 291.554 41.1784 291.589 41.17C291.625 41.1615 291.662 41.1605 291.698 41.1668C293.535 41.4251 295.351 41.8184 297.13 42.3433C297.166 42.3536 297.199 42.3708 297.228 42.3941C297.256 42.4174 297.28 42.4462 297.298 42.4788C297.315 42.5114 297.326 42.5472 297.33 42.5841C297.333 42.6209 297.33 42.6582 297.319 42.6935C297.308 42.7593 297.274 42.8191 297.223 42.862C297.172 42.9048 297.107 42.9279 297.041 42.927L297.068 42.8731ZM275.15 41.8853C275.086 41.8736 275.028 41.8398 274.986 41.7898C274.944 41.7397 274.922 41.6766 274.922 41.6114C274.922 41.5462 274.944 41.483 274.986 41.433C275.028 41.3829 275.086 41.3491 275.15 41.3375C277.014 41.086 278.87 40.9064 280.663 40.7897C280.737 40.7897 280.807 40.819 280.859 40.8712C280.911 40.9234 280.941 40.9942 280.941 41.068C280.941 41.1419 280.911 41.2127 280.859 41.2649C280.807 41.3171 280.737 41.3464 280.663 41.3464C278.87 41.4542 277.032 41.6338 275.186 41.8853H275.15ZM288.928 41.4003C287.135 41.2566 285.279 41.2028 283.433 41.2387C283.396 41.2412 283.36 41.2361 283.326 41.2236C283.291 41.211 283.26 41.1914 283.234 41.166C283.208 41.1406 283.187 41.11 283.174 41.0761C283.16 41.0422 283.154 41.0058 283.155 40.9693C283.154 40.9327 283.16 40.8963 283.173 40.862C283.186 40.8278 283.205 40.7964 283.23 40.7697C283.255 40.743 283.285 40.7215 283.318 40.7065C283.351 40.6914 283.387 40.683 283.424 40.6819C285.288 40.6819 287.198 40.6819 288.973 40.8435C289.045 40.8504 289.112 40.8852 289.158 40.9406C289.205 40.9959 289.229 41.0675 289.224 41.1399C289.228 41.1831 289.223 41.2266 289.208 41.2674C289.193 41.3082 289.169 41.3451 289.138 41.3753C289.107 41.4056 289.07 41.4284 289.029 41.442C288.988 41.4557 288.944 41.4599 288.901 41.4542L288.928 41.4003Z" fill="#26225B"/>
<path d="M231.18 181.982L234.255 186.409L239.463 174.133L231.18 181.982Z" fill="white"/>
<path d="M234.255 186.679C234.211 186.681 234.167 186.671 234.127 186.651C234.088 186.63 234.055 186.6 234.031 186.562L230.956 182.135C230.914 182.075 230.897 182.001 230.908 181.929C230.92 181.856 230.96 181.792 231.019 181.748C231.08 181.709 231.154 181.695 231.226 181.708C231.297 181.721 231.361 181.762 231.404 181.82L234.192 185.844L239.212 174.025C239.24 173.958 239.293 173.904 239.36 173.875C239.427 173.847 239.503 173.846 239.571 173.873C239.639 173.902 239.693 173.957 239.721 174.026C239.75 174.095 239.75 174.172 239.723 174.241L234.506 186.517C234.487 186.562 234.456 186.601 234.416 186.629C234.377 186.657 234.33 186.675 234.282 186.679H234.255Z" fill="#2D71F0"/>
<path d="M93.2288 181.991C90.6471 181.991 87.9936 181.991 85.2864 181.892C85.2503 181.892 85.2146 181.885 85.1814 181.871C85.1482 181.857 85.1181 181.836 85.093 181.81C85.0679 181.784 85.0483 181.753 85.0353 181.72C85.0224 181.686 85.0163 181.65 85.0175 181.614C85.0198 181.541 85.0501 181.473 85.102 181.423C85.1538 181.372 85.2232 181.344 85.2954 181.344C99.3424 181.686 112.269 181.012 118.723 180.581C118.794 180.578 118.863 180.603 118.916 180.65C118.97 180.696 119.003 180.762 119.01 180.832C119.014 180.869 119.01 180.905 118.999 180.94C118.989 180.974 118.971 181.007 118.948 181.034C118.924 181.062 118.895 181.085 118.863 181.101C118.831 181.117 118.795 181.127 118.759 181.129C113.578 181.479 104.129 181.991 93.2288 181.991Z" fill="white"/>
<path d="M122.811 160.847C122.515 160.847 92.6463 160.12 87.8504 159.949C87.3829 159.938 86.9232 159.826 86.5025 159.622C86.0819 159.417 85.71 159.125 85.4121 158.764C83.1082 156.069 83.7626 149.855 83.7895 149.594C83.7929 149.558 83.8035 149.522 83.8206 149.49C83.8378 149.457 83.8613 149.428 83.8896 149.405C83.9179 149.382 83.9506 149.364 83.9858 149.353C84.0209 149.343 84.0578 149.339 84.0943 149.343C84.1306 149.346 84.1657 149.357 84.1978 149.374C84.2298 149.392 84.2579 149.415 84.2806 149.444C84.3032 149.472 84.3198 149.505 84.3294 149.54C84.339 149.575 84.3414 149.612 84.3364 149.648C84.3364 149.711 83.682 155.935 85.8244 158.404C86.0726 158.708 86.3842 158.954 86.7373 159.125C87.0903 159.295 87.4763 159.387 87.8683 159.392C92.6911 159.563 122.551 160.29 122.829 160.29C122.902 160.295 122.97 160.327 123.02 160.381C123.07 160.434 123.098 160.504 123.098 160.578C123.098 160.615 123.091 160.651 123.076 160.685C123.061 160.719 123.04 160.75 123.013 160.775C122.986 160.8 122.954 160.82 122.92 160.832C122.885 160.844 122.848 160.85 122.811 160.847Z" fill="white"/>
<path d="M286.606 127.003C286.606 127.003 289.179 136.594 284.392 137.519C279.605 138.444 250.677 142.459 250.677 142.459L255.527 158.956C260.009 158.597 273.922 157.285 289.959 154.376L286.606 127.003Z" fill="#C42128"/>
<path d="M255.527 159.18C255.468 159.18 255.411 159.161 255.364 159.126C255.317 159.09 255.283 159.04 255.267 158.983L250.418 142.539C250.4 142.504 250.391 142.466 250.391 142.427C250.391 142.388 250.4 142.35 250.418 142.315C250.437 142.281 250.465 142.252 250.497 142.23C250.53 142.209 250.567 142.194 250.606 142.189C250.893 142.189 279.578 138.157 284.303 137.25C284.69 137.185 285.059 137.035 285.383 136.811C285.706 136.588 285.977 136.296 286.176 135.957C287.915 133.173 286.32 127.138 286.302 127.075C286.285 127.005 286.296 126.931 286.333 126.869C286.37 126.807 286.429 126.762 286.499 126.743C286.533 126.733 286.569 126.73 286.604 126.735C286.639 126.739 286.673 126.75 286.704 126.768C286.735 126.785 286.762 126.809 286.783 126.837C286.805 126.865 286.821 126.897 286.831 126.931C286.902 127.192 288.498 133.218 286.642 136.244C286.4 136.645 286.076 136.99 285.692 137.256C285.307 137.522 284.87 137.704 284.41 137.789C279.928 138.687 254.147 142.279 250.991 142.692L255.689 158.615C258.907 158.354 273.115 157.106 289.878 154.061C289.914 154.055 289.95 154.057 289.985 154.065C290.02 154.073 290.053 154.088 290.082 154.109C290.111 154.129 290.136 154.156 290.155 154.186C290.173 154.217 290.186 154.251 290.192 154.286C290.198 154.321 290.197 154.357 290.189 154.392C290.181 154.427 290.166 154.46 290.145 154.49C290.124 154.519 290.098 154.544 290.068 154.563C290.037 154.582 290.003 154.594 289.968 154.6C272.766 157.716 258.243 158.965 255.509 159.18H255.527Z" fill="#26225B"/>
<path d="M255.527 159.18C255.463 159.169 255.405 159.135 255.363 159.085C255.322 159.035 255.299 158.972 255.299 158.906C255.299 158.841 255.322 158.778 255.363 158.728C255.405 158.678 255.463 158.644 255.527 158.633C258.261 158.417 272.756 157.178 289.932 154.061C289.968 154.054 290.005 154.053 290.041 154.061C290.077 154.068 290.112 154.082 290.142 154.104C290.172 154.125 290.198 154.152 290.217 154.183C290.237 154.214 290.249 154.249 290.255 154.286C290.268 154.359 290.251 154.433 290.209 154.494C290.167 154.555 290.103 154.596 290.031 154.609C272.828 157.725 258.306 158.965 255.572 159.18H255.527Z" fill="white"/>
<path d="M250.677 142.737C250.613 142.725 250.555 142.691 250.514 142.641C250.472 142.591 250.449 142.528 250.449 142.463C250.449 142.398 250.472 142.335 250.514 142.285C250.555 142.235 250.613 142.201 250.677 142.189C250.964 142.144 279.65 138.157 284.374 137.25C284.761 137.181 285.128 137.03 285.451 136.807C285.774 136.584 286.046 136.294 286.248 135.957C287.987 133.173 286.391 127.138 286.373 127.075C286.356 127.004 286.367 126.928 286.404 126.865C286.441 126.802 286.5 126.755 286.57 126.734C286.642 126.717 286.717 126.728 286.78 126.765C286.843 126.801 286.89 126.861 286.911 126.931C286.974 127.192 288.578 133.218 286.714 136.244C286.476 136.648 286.153 136.995 285.767 137.262C285.382 137.529 284.943 137.708 284.482 137.789C279.74 138.687 251.045 142.692 250.749 142.737H250.677Z" fill="white"/>
<path d="M251.215 144.91L239.248 146.123V148.727L234.255 149.742L236.191 160.878L254.631 158.184L251.215 144.91Z" fill="white"/>
<path d="M236.191 161.156C236.126 161.157 236.062 161.133 236.013 161.09C235.963 161.047 235.931 160.988 235.922 160.923L233.968 149.787C233.961 149.752 233.962 149.716 233.969 149.682C233.976 149.647 233.991 149.614 234.011 149.585C234.03 149.556 234.056 149.531 234.086 149.511C234.115 149.492 234.148 149.479 234.183 149.472L238.952 148.502V146.123C238.952 146.055 238.976 145.989 239.02 145.937C239.065 145.886 239.127 145.853 239.194 145.844L251.17 144.632C251.236 144.623 251.303 144.64 251.358 144.678C251.413 144.716 251.451 144.773 251.466 144.838L254.882 158.112C254.909 158.184 254.909 158.264 254.882 158.336C254.859 158.368 254.829 158.395 254.795 158.415C254.761 158.435 254.724 158.448 254.684 158.453L236.254 161.147L236.191 161.156ZM234.578 149.975L236.415 160.581L254.281 157.968L251 145.207L239.517 146.383V148.745C239.518 148.808 239.497 148.869 239.458 148.919C239.419 148.968 239.363 149.002 239.302 149.014L234.578 149.975Z" fill="#26225B"/>
<path d="M234.865 153.424C234.802 153.423 234.742 153.402 234.693 153.363C234.644 153.324 234.61 153.269 234.596 153.208C234.582 153.135 234.598 153.059 234.64 152.997C234.682 152.934 234.746 152.891 234.82 152.876L240.539 151.753C240.574 151.746 240.611 151.745 240.646 151.752C240.682 151.758 240.716 151.772 240.746 151.792C240.776 151.812 240.802 151.838 240.822 151.869C240.842 151.899 240.855 151.933 240.862 151.969C240.875 152.042 240.858 152.116 240.816 152.177C240.774 152.238 240.71 152.279 240.637 152.292L234.865 153.424Z" fill="#26225B"/>
<path d="M235.555 156.262C235.492 156.259 235.431 156.236 235.382 156.195C235.334 156.155 235.3 156.099 235.286 156.037C235.273 155.966 235.288 155.892 235.328 155.832C235.368 155.771 235.43 155.729 235.501 155.714L241.22 154.582C241.256 154.574 241.292 154.574 241.328 154.581C241.363 154.587 241.397 154.601 241.427 154.621C241.458 154.641 241.483 154.667 241.503 154.698C241.523 154.728 241.537 154.762 241.543 154.798C241.552 154.833 241.554 154.87 241.548 154.907C241.542 154.943 241.528 154.977 241.508 155.008C241.487 155.038 241.461 155.064 241.43 155.084C241.399 155.103 241.364 155.116 241.328 155.121L235.609 156.262H235.555Z" fill="#26225B"/>
<path d="M235.967 158.731C235.903 158.73 235.842 158.708 235.793 158.667C235.744 158.626 235.71 158.569 235.698 158.507C235.685 158.435 235.7 158.362 235.74 158.301C235.78 158.241 235.842 158.199 235.913 158.183L241.632 157.052C241.706 157.039 241.782 157.055 241.844 157.097C241.906 157.139 241.949 157.203 241.964 157.276C241.977 157.349 241.961 157.424 241.919 157.485C241.877 157.545 241.813 157.587 241.74 157.6L236.021 158.731H235.967Z" fill="#26225B"/>
<path d="M73.3908 123.824L92.1082 129.76L68.1108 130.227L73.3908 123.824Z" fill="white"/>
<path d="M68.1287 130.505C68.0771 130.505 68.0269 130.489 67.984 130.46C67.9411 130.432 67.9073 130.391 67.8867 130.344C67.8585 130.301 67.8435 130.251 67.8435 130.2C67.8435 130.149 67.8585 130.099 67.8867 130.056L73.1577 123.644C73.1936 123.603 73.2408 123.574 73.2934 123.559C73.346 123.545 73.4017 123.546 73.4535 123.563L92.1709 129.5C92.2347 129.515 92.2901 129.554 92.3253 129.609C92.3604 129.665 92.3726 129.732 92.3592 129.796C92.3525 129.86 92.3222 129.92 92.2741 129.963C92.2261 130.006 92.1637 130.03 92.0992 130.029L68.1287 130.505ZM73.5073 124.138L68.7293 129.94L90.4587 129.518L73.5073 124.138Z" fill="#26225B"/>
<path d="M92.1081 129.76L78.6258 118.552L75.9097 121.345L92.1081 129.76Z" fill="white"/>
<path d="M92.1083 130.029C92.067 130.039 92.0241 130.039 91.9828 130.029L75.7843 121.597C75.7454 121.577 75.7121 121.547 75.6871 121.511C75.6621 121.475 75.6462 121.434 75.6409 121.39C75.6329 121.348 75.6352 121.305 75.6477 121.264C75.6602 121.224 75.6825 121.187 75.7126 121.157L78.4019 118.364C78.4517 118.317 78.5174 118.291 78.5857 118.291C78.6539 118.291 78.7196 118.317 78.7694 118.364L92.2159 129.571C92.267 129.616 92.3004 129.678 92.3103 129.746C92.3201 129.813 92.3057 129.882 92.2696 129.94C92.2281 129.988 92.171 130.02 92.1083 130.029ZM76.367 121.237L89.9658 128.296L78.6439 118.929L76.367 121.237Z" fill="#26225B"/>
<path d="M75.9097 121.345L76.2593 124.731L92.1081 129.76L75.9097 121.345Z" fill="#756FBF"/>
<path d="M92.108 130.029H92.0274L76.1964 124.991C76.1471 124.973 76.1037 124.941 76.0706 124.9C76.0375 124.859 76.016 124.81 76.0082 124.758L75.6675 121.372C75.6633 121.324 75.6719 121.275 75.6923 121.231C75.7128 121.187 75.7444 121.149 75.7841 121.121C75.8263 121.096 75.8742 121.083 75.923 121.083C75.9718 121.083 76.0197 121.096 76.062 121.121L92.2604 129.536C92.3201 129.566 92.3661 129.619 92.3893 129.682C92.4126 129.745 92.4113 129.814 92.3859 129.877C92.3617 129.928 92.3218 129.971 92.2718 129.999C92.2219 130.026 92.1645 130.037 92.108 130.029ZM76.5102 124.524L89.1767 128.539L76.1964 121.821L76.5102 124.524Z" fill="#26225B"/>
<path d="M284.553 108.162L266.535 115.975L290.452 113.99L284.553 108.162Z" fill="white"/>
<path d="M266.535 116.244C266.474 116.244 266.414 116.224 266.366 116.187C266.317 116.149 266.282 116.097 266.266 116.038C266.249 115.975 266.256 115.907 266.286 115.849C266.316 115.791 266.366 115.746 266.428 115.723L284.446 107.901C284.497 107.88 284.554 107.875 284.608 107.886C284.662 107.897 284.712 107.924 284.751 107.964L290.64 113.793C290.68 113.83 290.707 113.877 290.72 113.93C290.733 113.983 290.73 114.038 290.712 114.089C290.692 114.138 290.659 114.181 290.616 114.213C290.574 114.245 290.523 114.264 290.47 114.269L266.553 116.244H266.535ZM284.464 108.485L268.149 115.562L289.807 113.766L284.464 108.485Z" fill="#26225B"/>
<path d="M266.535 115.975L278.807 103.447L281.792 105.953L266.535 115.975Z" fill="white"/>
<path d="M266.535 116.244C266.494 116.244 266.454 116.235 266.417 116.218C266.38 116.201 266.347 116.176 266.32 116.145C266.275 116.095 266.251 116.029 266.251 115.961C266.251 115.894 266.275 115.828 266.32 115.777L278.61 103.276C278.66 103.227 278.728 103.199 278.798 103.199C278.869 103.199 278.936 103.227 278.987 103.276L281.972 105.773C282.003 105.803 282.028 105.839 282.045 105.88C282.062 105.92 282.071 105.963 282.07 106.006C282.065 106.049 282.052 106.09 282.03 106.127C282.008 106.164 281.979 106.197 281.945 106.222L266.706 116.235C266.652 116.258 266.591 116.261 266.535 116.244ZM278.789 103.824L268.481 114.34L281.299 105.926L278.789 103.824Z" fill="#26225B"/>
<path d="M281.792 105.953V109.356L266.535 115.975L281.792 105.953Z" fill="#756FBF"/>
<path d="M266.535 116.244C266.478 116.242 266.422 116.222 266.377 116.186C266.331 116.151 266.298 116.102 266.281 116.047C266.264 115.992 266.265 115.933 266.283 115.878C266.302 115.823 266.336 115.775 266.383 115.741L281.622 105.728C281.666 105.702 281.715 105.688 281.766 105.688C281.816 105.688 281.866 105.702 281.909 105.728C281.95 105.754 281.983 105.79 282.006 105.833C282.03 105.875 282.043 105.922 282.044 105.971V109.374C282.042 109.428 282.024 109.48 281.994 109.524C281.964 109.569 281.922 109.604 281.873 109.626L266.634 116.235C266.602 116.245 266.568 116.248 266.535 116.244ZM281.524 106.455L269.323 114.466L281.524 109.177V106.455Z" fill="#26225B"/>
</g>
<g clip-path="url(#clip1)">
<path d="M292.139 174.3H79.766C77.097 174.3 75 176.416 75 178.9V264H297V178.992C297 176.416 294.808 174.3 292.139 174.3Z" fill="#756FBF"/>
<path d="M292.139 174.3H185.953V264H296.905V178.992C297 176.416 294.808 174.3 292.139 174.3Z" fill="#756FBF"/>
<path d="M139.246 124.436V209.26H232.754V124.436L185.952 94.904L139.246 124.436Z" fill="#756FBF"/>
<path d="M247.529 116.248L190.909 76.32C187.954 74.204 183.95 74.204 180.996 76.32L124.375 116.248C123.136 117.076 122.374 118.548 122.374 120.02C122.374 121.492 123.136 122.872 124.375 123.792L133.05 129.956C134.765 131.152 137.053 131.152 138.769 129.956L185.952 96.56L233.135 129.956C234.851 131.152 237.139 131.152 238.855 129.956L247.529 123.792C248.768 122.872 249.531 121.492 249.531 120.02C249.531 118.456 248.768 117.076 247.529 116.248Z" fill="#26225B"/>
<path d="M247.625 116.248L190.909 76.3199C189.384 75.3079 187.668 74.7559 185.953 74.7559V96.5599L233.136 129.956C233.994 130.508 234.947 130.876 235.996 130.876C236.949 130.876 237.997 130.6 238.855 129.956L247.529 123.792C248.768 122.872 249.531 121.492 249.531 120.02C249.531 118.456 248.768 117.076 247.625 116.248Z" fill="#26225B"/>
<path d="M100.546 191.412H86.7244V204.292H100.546V191.412Z" fill="#26225B"/>
<path d="M125.329 191.412H111.508V204.292H125.329V191.412Z" fill="#26225B"/>
<path d="M150.017 191.412H136.195V204.292H150.017V191.412Z" fill="#26225B"/>
<path d="M100.546 214.228H86.7244V227.108H100.546V214.228Z" fill="#26225B"/>
<path d="M125.329 214.228H111.508V227.108H125.329V214.228Z" fill="#26225B"/>
<path d="M150.017 214.228H136.195V227.108H150.017V214.228Z" fill="#26225B"/>
<path d="M235.709 191.412H221.888V204.292H235.709V191.412Z" fill="#26225B"/>
<path d="M260.493 191.412H246.671V204.292H260.493V191.412Z" fill="#26225B"/>
<path d="M285.276 191.412H271.454V204.292H285.276V191.412Z" fill="#26225B"/>
<path d="M235.709 214.228H221.888V227.108H235.709V214.228Z" fill="#26225B"/>
<path d="M260.493 214.228H246.671V227.108H260.493V214.228Z" fill="#26225B"/>
<path d="M285.276 214.228H271.454V227.108H285.276V214.228Z" fill="#26225B"/>
<path d="M75.5 263.5V246.652H296.5V263.5H75.5Z" fill="white" stroke="#26225B"/>
<path d="M185.952 118.64C172.798 118.64 162.122 128.944 162.122 141.64C162.122 154.336 172.798 164.64 185.952 164.64C199.106 164.64 209.687 154.336 209.687 141.64C209.687 128.944 199.106 118.64 185.952 118.64Z" fill="#FBFAFF"/>
<path d="M197.009 141.548H185.952C184.999 141.548 184.237 142.284 184.237 143.204C184.237 144.124 184.999 144.86 185.952 144.86H197.009C197.963 144.86 198.725 144.124 198.725 143.204C198.725 142.284 197.963 141.548 197.009 141.548Z" fill="#26225B"/>
<path d="M186.62 178.532C171.845 178.532 159.835 190.124 159.835 204.384V264H211.975V203.004C212.07 189.48 200.727 178.532 186.62 178.532Z" fill="#26225B"/>
<path d="M185.952 130.784C184.999 130.784 184.237 131.52 184.237 132.44V143.204C184.237 144.124 184.999 144.86 185.952 144.86C186.906 144.86 187.668 144.124 187.668 143.204V132.44C187.668 131.52 186.906 130.784 185.952 130.784Z" fill="#26225B"/>
<path d="M185.953 130.784V144.768C186.906 144.768 187.668 144.032 187.668 143.112V132.44C187.668 131.52 186.906 130.784 185.953 130.784Z" fill="#26225B"/>
</g>
<defs>
<clipPath id="clip0">
<rect width="363" height="236" fill="white"/>
</clipPath>
<clipPath id="clip1">
<rect width="222" height="230" fill="white" transform="translate(75 34)"/>
</clipPath>
</defs>
</svg>
