<svg width="441" height="274" viewBox="0 0 441 274" fill="none" xmlns="http://www.w3.org/2000/svg">
<path d="M366.83 19.8899C366.83 19.8899 355.853 19.8899 359.497 6.62256C373.635 10.3458 366.83 19.8899 366.83 19.8899Z" fill="#756FBF"/>
<path d="M370.66 24.8652C370.66 24.8652 366.61 18.6709 375.391 15.8043C378.563 25.1727 370.66 24.8652 370.66 24.8652Z" fill="#756FBF"/>
<path d="M375.227 32.2239C375.227 32.2239 371.824 25.6342 380.913 23.7122C383.075 33.3552 375.227 32.2239 375.227 32.2239Z" fill="#756FBF"/>
<path d="M377.345 39.4725C377.345 39.4725 376.247 32.1579 385.501 33.2892C384.37 43.1079 377.345 39.4725 377.345 39.4725Z" fill="#756FBF"/>
<path d="M368.64 25.2607C368.64 25.2607 364.381 31.3123 358.476 24.1624C366.049 17.8143 368.64 25.2607 368.64 25.2607Z" fill="#756FBF"/>
<path d="M372.197 33.6955C372.197 33.6955 367.938 39.7361 362.032 32.5972C369.606 26.2051 372.197 33.6955 372.197 33.6955Z" fill="#756FBF"/>
<path d="M381.604 56.9465C381.604 56.9465 379.079 49.9943 388.354 49.2584C389.222 59.0991 381.604 56.9465 381.604 56.9465Z" fill="#756FBF"/>
<path d="M377.982 56.7817C377.982 56.7817 373.723 62.8333 367.817 55.6834C375.391 49.3023 377.982 56.7817 377.982 56.7817Z" fill="#756FBF"/>
<path d="M382.988 65.0079C382.988 65.0079 380.463 58.0557 389.727 57.3198C390.594 67.1605 382.988 65.0079 382.988 65.0079Z" fill="#756FBF"/>
<path d="M379.365 64.8542C379.365 64.8542 375.106 70.8948 369.2 63.7559C376.774 57.3749 379.365 64.8542 379.365 64.8542Z" fill="#756FBF"/>
<path d="M374.612 40.0765C374.612 40.0765 372.186 47.0616 364.524 41.7898C370.057 33.5966 374.612 40.0765 374.612 40.0765Z" fill="#756FBF"/>
<path d="M379.243 47.3692C379.243 47.3692 378.146 40.0545 387.399 41.1858C386.269 51.0045 379.243 47.3692 379.243 47.3692Z" fill="#756FBF"/>
<path d="M376.489 47.9734C376.489 47.9734 374.052 54.9586 366.391 49.6758C371.956 41.4935 376.489 47.9734 376.489 47.9734Z" fill="#756FBF"/>
<path d="M383.338 81.5809C383.338 81.5809 382.054 74.2992 391.318 75.1778C390.462 85.0185 383.338 81.5809 383.338 81.5809Z" fill="#756FBF"/>
<path d="M379.782 80.8012C379.782 80.8012 374.535 86.018 369.958 77.9127C378.542 72.9813 379.782 80.8012 379.782 80.8012Z" fill="#756FBF"/>
<path d="M383.305 89.7742C383.305 89.7742 381.977 82.4816 391.274 83.3602C390.429 93.2119 383.305 89.7742 383.305 89.7742Z" fill="#756FBF"/>
<path d="M379.782 88.9617C379.782 88.9617 374.546 94.1786 369.969 86.0732C378.509 81.1638 379.782 88.9617 379.782 88.9617Z" fill="#756FBF"/>
<path d="M382.669 71.7514C382.669 71.7514 382.878 64.3489 391.769 67.0727C388.959 76.5509 382.669 71.7514 382.669 71.7514Z" fill="#756FBF"/>
<path d="M379.87 71.861C379.87 71.861 376.27 78.319 369.64 71.7951C376.489 64.7002 379.87 71.861 379.87 71.861Z" fill="#756FBF"/>
<path d="M350.968 170.499C350.901 170.501 350.836 170.482 350.781 170.444C350.744 170.422 350.712 170.392 350.687 170.357C350.662 170.322 350.645 170.282 350.635 170.24C350.626 170.198 350.626 170.154 350.634 170.112C350.642 170.07 350.658 170.029 350.682 169.994C380.056 123.953 382.855 85.7657 380.023 61.8339C376.96 35.9253 366.851 20.7249 366.741 20.5711C366.715 20.5357 366.696 20.4952 366.686 20.4522C366.676 20.4092 366.675 20.3646 366.684 20.3212C366.692 20.2778 366.709 20.2366 366.734 20.2002C366.759 20.1639 366.791 20.1331 366.829 20.1099C366.865 20.085 366.905 20.0676 366.948 20.0585C366.991 20.0495 367.035 20.049 367.078 20.0572C367.121 20.0654 367.162 20.082 367.198 20.1061C367.234 20.1303 367.266 20.1614 367.29 20.1977C367.389 20.3515 377.597 35.6946 380.682 61.7571C383.525 85.7986 380.682 124.14 351.242 170.345C351.214 170.392 351.173 170.431 351.125 170.458C351.077 170.485 351.023 170.499 350.968 170.499Z" fill="#26225B"/>
<path d="M147.625 32.8389L134.738 15.1235L137.504 8.89616L117.494 0L114.728 6.22731L92.9609 8.53372L88.9544 3.04227L71.249 15.9142L75.2555 21.4057L66.3644 41.4165L59.5918 42.1414L61.8969 63.9205L68.6695 63.2066L81.5561 80.944L78.79 87.1604L98.7785 96.0565L101.534 89.8402L123.311 87.5228L127.318 93.0143L145.045 80.1752L141.039 74.6838L149.93 54.6619L156.702 53.948L154.386 32.1689L147.625 32.8389ZM124.157 55.1452C122.755 58.3292 120.44 61.0253 117.505 62.8917C114.571 64.7581 111.148 65.7109 107.672 65.6293C104.196 65.5477 100.822 64.4353 97.9781 62.4333C95.1342 60.4312 92.9482 57.6295 91.6973 54.3832C90.4463 51.1369 90.1866 47.5921 90.9511 44.198C91.7156 40.8038 93.4699 37.7132 95.9917 35.3176C98.5134 32.922 101.689 31.3294 105.116 30.7415C108.544 30.1536 112.068 30.5969 115.244 32.0152C119.483 33.9089 122.801 37.4052 124.471 41.7397C126.141 46.0741 126.028 50.8939 124.157 55.1452Z" fill="#756FBF"/>
<path d="M79.6574 95.9689L73.6752 86.7652L75.2448 83.7229L65.4426 78.7037L63.884 81.746L52.9073 82.2951L51.0522 79.4176L41.7989 85.3374L43.654 88.2149L38.6266 98.0117L35.2129 98.1874L35.7617 109.17L39.1755 109.006L45.1578 118.253L43.5881 121.295L53.3793 126.304L54.9489 123.261L65.9256 122.712L67.7807 125.59L77.023 119.615L75.168 116.738L80.1843 106.941L83.609 106.765L83.0602 95.7821L79.6574 95.9689ZM67.2538 106.534C66.4552 108.074 65.2191 109.342 63.7014 110.18C62.1836 111.017 60.4521 111.387 58.7248 111.242C56.9976 111.096 55.3519 110.443 53.9951 109.364C52.6384 108.284 51.6312 106.827 51.1005 105.176C50.5698 103.525 50.5393 101.754 51.0128 100.086C51.4864 98.4174 52.4428 96.9266 53.7616 95.8011C55.0804 94.6756 56.7025 93.9659 58.4237 93.7612C60.145 93.5565 61.8882 93.8661 63.4339 94.6509C64.4684 95.1761 65.3885 95.9013 66.1413 96.7843C66.8941 97.6674 67.4645 98.691 67.8197 99.7959C68.1749 100.901 68.3077 102.065 68.2106 103.222C68.1135 104.378 67.7883 105.504 67.2538 106.534Z" fill="white"/>
<path d="M65.739 79.5384L74.3447 83.9316L73.0824 86.3918C73.0286 86.4932 73.0005 86.6064 73.0005 86.7213C73.0005 86.8361 73.0286 86.9493 73.0824 87.0507L79.0647 96.2983C79.1235 96.3936 79.206 96.4721 79.3041 96.526C79.4022 96.5798 79.5126 96.6074 79.6245 96.6059L82.3687 96.4741L82.8517 106.139L80.1185 106.293C80.0019 106.3 79.8892 106.337 79.7911 106.401C79.6931 106.464 79.613 106.552 79.5586 106.655L74.6301 116.419C74.5703 116.521 74.5387 116.636 74.5387 116.754C74.5387 116.872 74.5703 116.988 74.6301 117.089L76.123 119.406L68.0441 124.689L66.5513 122.372C66.491 122.278 66.4082 122.201 66.3104 122.147C66.2126 122.093 66.103 122.065 65.9915 122.064L55.0148 122.613C54.8985 122.622 54.7862 122.659 54.6884 122.723C54.5905 122.786 54.5102 122.873 54.455 122.976L53.1927 125.436L44.587 121.043L45.7505 118.616C45.8043 118.514 45.8325 118.401 45.8325 118.286C45.8325 118.171 45.8043 118.058 45.7505 117.957L39.7682 108.709C39.7094 108.614 39.6269 108.535 39.5288 108.481C39.4307 108.428 39.3203 108.4 39.2084 108.402L36.4642 108.544L35.9154 98.8464L38.6596 98.7036C38.7764 98.6974 38.8895 98.6607 38.9878 98.5971C39.086 98.5335 39.1658 98.4452 39.2194 98.3412L44.2467 88.5444C44.3006 88.441 44.3287 88.3261 44.3287 88.2094C44.3287 88.0928 44.3006 87.9779 44.2467 87.8745L42.7429 85.5571L50.8766 80.3072L52.3694 82.6246C52.4298 82.7185 52.5126 82.7958 52.6103 82.8495C52.7081 82.9032 52.8177 82.9316 52.9292 82.9322L63.9059 82.383C64.0222 82.3747 64.1345 82.3371 64.2324 82.2738C64.3302 82.2104 64.4105 82.1233 64.4657 82.0206L65.728 79.5604L65.739 79.5384ZM59.4055 112.026C61.408 112.032 63.3612 111.404 64.985 110.231C66.6089 109.059 67.82 107.402 68.445 105.498C69.07 103.595 69.0767 101.542 68.4642 99.6342C67.8517 97.7265 66.6513 96.0618 65.0352 94.8786C63.4191 93.6954 61.4701 93.0544 59.4675 93.0475C57.465 93.0406 55.5116 93.6682 53.8874 94.8402C52.2631 96.0123 51.0514 97.6687 50.4258 99.5721C49.8001 101.476 49.7927 103.528 50.4046 105.436C51.0183 107.344 52.2194 109.009 53.8361 110.193C55.4528 111.376 57.4022 112.018 59.4055 112.026ZM65.4426 78.7037L63.884 81.746L52.9073 82.2951L51.0522 79.4176L41.7989 85.3374L43.654 88.2149L38.6266 98.0117L35.2129 98.1874L35.7617 109.17L39.1755 109.006L45.1578 118.253L43.5881 121.295L53.3793 126.304L54.9489 123.261L65.9256 122.712L67.7807 125.59L77.023 119.615L75.168 116.738L80.1843 106.941L83.609 106.765L83.0602 95.7821L79.6465 95.9579L73.6752 86.7652L75.2448 83.7229L65.4426 78.7037ZM59.4055 111.356C57.4937 111.353 55.6351 110.727 54.1117 109.571C52.5884 108.415 51.4836 106.794 50.9651 104.952C50.4466 103.111 50.5428 101.151 51.239 99.3698C51.9353 97.5883 53.1935 96.0828 54.8227 95.082C56.4518 94.0811 58.3629 93.6396 60.2657 93.8244C62.1685 94.0092 63.959 94.8102 65.3654 96.1059C66.7718 97.4015 67.7172 99.121 68.058 101.003C68.3988 102.885 68.1165 104.827 67.2538 106.534C66.517 107.982 65.3934 109.197 64.0079 110.045C62.6224 110.892 61.0293 111.338 59.4055 111.334V111.356Z" fill="#26225B"/>
<path d="M426.345 105.787C416.258 109.664 401.461 109.302 400.001 124.711C398.969 135.331 406.137 145.117 394.655 152.168C390.1 154.98 385.04 155.793 382.307 160.878C379.947 165.271 380.528 170.762 381.077 175.529C381.538 179.625 383.481 184.711 382.954 188.851C382.087 195.617 376.533 196.781 371.604 200.262C366.906 203.557 362.911 208.192 362.088 214.123C360.99 221.976 366.753 227.456 367.719 234.606C367.719 234.606 376.676 261.8 402.372 245.314C408.442 241.426 415.028 238.724 418.563 231.575C421.23 226.215 420.527 220.141 418.563 214.771C416.455 209.115 412.514 205.018 415.621 198.933C417.52 195.21 421.987 192.113 424.688 188.983C427.827 185.348 431.383 181.174 431.921 176.199C432.536 170.466 428.804 166.929 426.63 162.031C421.142 149.697 432.58 145.666 437.717 136.309C445.17 122.745 432.755 114.694 426.608 105.798L426.345 105.787Z" fill="white"/>
<path d="M426.224 106.534C427.563 108.423 429.188 110.301 430.758 112.114C436.608 118.879 442.656 125.864 437.069 136.023C435.428 138.756 433.455 141.276 431.197 143.525C426.477 148.643 422.009 153.464 425.961 162.338C426.609 163.755 427.342 165.13 428.156 166.457C429.923 169.477 431.592 172.333 431.175 176.155C430.659 180.987 427.179 185.018 424.106 188.588C423.162 189.686 421.998 190.784 420.813 191.882C418.617 193.969 416.257 196.133 414.984 198.637C412.492 203.524 414.282 207.226 416.181 211.147C416.773 212.377 417.388 213.651 417.893 215.002C419.496 219.285 420.802 225.578 417.97 231.278C415.138 236.978 410.506 239.647 405.533 242.602C404.381 243.293 403.184 244.007 402.01 244.798C396.631 248.247 391.604 249.993 387.06 249.993C374.052 249.993 368.718 235.507 368.399 234.496C367.86 231.574 366.895 228.747 365.534 226.105C363.8 222.294 362.164 218.692 362.779 214.266C363.657 207.95 368.267 203.491 372.021 200.856C373.196 200.021 374.425 199.318 375.611 198.659C379.387 196.462 382.954 194.452 383.646 189.005C383.997 186.226 383.306 183.129 382.647 180.142C382.274 178.617 381.981 177.073 381.769 175.518C381.242 170.839 380.671 165.534 382.932 161.24C384.754 157.846 387.74 156.43 390.901 154.936C392.32 154.28 393.701 153.547 395.04 152.739C403.294 147.643 402.339 141.141 401.307 134.255C400.721 131.121 400.515 127.928 400.693 124.744C401.79 113.201 410.747 110.84 419.353 108.566C421.669 107.951 424.073 107.314 426.246 106.512L426.224 106.534ZM426.345 105.776C416.258 109.653 401.461 109.291 400.001 124.7C398.969 135.321 406.137 145.106 394.655 152.157C390.1 154.969 385.04 155.782 382.307 160.867C379.947 165.26 380.528 170.751 381.077 175.518C381.538 179.615 383.481 184.7 382.954 188.84C382.087 195.606 376.533 196.77 371.604 200.251C366.906 203.546 362.911 208.181 362.088 214.112C360.99 221.965 366.753 227.445 367.719 234.595C367.719 234.595 372.998 250.608 387.06 250.608C391.329 250.608 396.39 249.136 402.372 245.303C408.354 241.47 415.028 238.714 418.563 231.564C421.23 226.204 420.527 220.131 418.563 214.76C416.455 209.104 412.514 205.007 415.621 198.923C417.52 195.199 421.987 192.102 424.688 188.972C427.827 185.337 431.383 181.163 431.921 176.188C432.536 170.455 428.804 166.918 426.63 162.02C421.142 149.686 432.58 145.655 437.717 136.298C445.17 122.734 432.755 114.684 426.608 105.787L426.411 105.733L426.345 105.776Z" fill="#26225B"/>
<path d="M418.826 130.51L379.782 257L418.826 130.51Z" fill="#D4E6FC"/>
<path d="M379.782 257.308H379.683C379.641 257.295 379.602 257.274 379.568 257.247C379.534 257.219 379.506 257.184 379.485 257.145C379.465 257.106 379.452 257.064 379.448 257.02C379.445 256.976 379.45 256.932 379.463 256.89L418.507 130.422C418.52 130.38 418.541 130.341 418.568 130.307C418.596 130.273 418.631 130.245 418.67 130.224C418.708 130.204 418.751 130.191 418.795 130.188C418.839 130.184 418.883 130.189 418.924 130.203C418.966 130.215 419.006 130.236 419.04 130.264C419.074 130.292 419.102 130.326 419.122 130.365C419.142 130.404 419.155 130.446 419.159 130.49C419.162 130.534 419.157 130.578 419.144 130.62L380.1 257.066C380.079 257.135 380.037 257.195 379.98 257.239C379.923 257.282 379.853 257.306 379.782 257.308Z" fill="#26225B"/>
<path d="M395.149 163.36L402.624 183.041L395.149 163.36Z" fill="#D4E6FC"/>
<path d="M402.602 183.415C402.536 183.415 402.471 183.395 402.416 183.358C402.362 183.32 402.319 183.268 402.295 183.206L394.809 163.524C394.793 163.483 394.786 163.44 394.787 163.396C394.789 163.352 394.799 163.309 394.817 163.269C394.836 163.229 394.862 163.193 394.895 163.163C394.927 163.134 394.965 163.111 395.006 163.096C395.047 163.08 395.09 163.072 395.133 163.073C395.177 163.074 395.219 163.083 395.259 163.1C395.299 163.118 395.335 163.143 395.365 163.174C395.395 163.205 395.419 163.242 395.435 163.283L402.921 182.964C402.936 183.005 402.944 183.049 402.942 183.093C402.941 183.137 402.93 183.18 402.912 183.22C402.894 183.26 402.867 183.296 402.835 183.325C402.803 183.355 402.764 183.378 402.723 183.393C402.686 183.411 402.644 183.419 402.602 183.415Z" fill="#26225B"/>
<path d="M388.662 228.192L406.411 221.602L388.662 228.192Z" fill="#D4E6FC"/>
<path d="M388.662 228.532C388.58 228.54 388.497 228.516 388.431 228.466C388.365 228.415 388.32 228.341 388.306 228.259C388.292 228.177 388.31 228.093 388.356 228.023C388.401 227.954 388.472 227.904 388.553 227.884L406.302 221.295C406.345 221.272 406.393 221.259 406.442 221.257C406.491 221.255 406.539 221.263 406.585 221.281C406.63 221.299 406.671 221.327 406.704 221.362C406.738 221.398 406.764 221.44 406.78 221.486C406.796 221.532 406.801 221.581 406.797 221.63C406.792 221.679 406.777 221.726 406.752 221.768C406.728 221.81 406.695 221.847 406.655 221.875C406.615 221.903 406.569 221.922 406.521 221.932L388.783 228.466L388.662 228.532Z" fill="#26225B"/>
<path d="M407.498 167.193L420.396 158.703L407.498 167.193Z" fill="#D4E6FC"/>
<path d="M407.498 167.522C407.443 167.522 407.389 167.507 407.341 167.48C407.293 167.454 407.253 167.415 407.224 167.369C407.176 167.295 407.159 167.206 407.175 167.12C407.192 167.035 407.24 166.958 407.312 166.907L420.242 158.429C420.277 158.402 420.318 158.383 420.361 158.373C420.404 158.364 420.449 158.363 420.492 158.371C420.535 158.379 420.576 158.396 420.613 158.421C420.649 158.447 420.68 158.479 420.703 158.516C420.749 158.591 420.765 158.681 420.746 158.767C420.728 158.853 420.677 158.928 420.604 158.978L407.685 167.467C407.628 167.502 407.564 167.521 407.498 167.522Z" fill="#26225B"/>
<path d="M84.4105 255.407C84.4105 255.407 9.31907 222.481 0.416992 128.818C83.0713 152.366 102.873 252.387 102.873 252.387L84.4105 255.407Z" fill="#756FBF"/>
<path d="M46.5957 190.345C46.5418 190.36 46.4849 190.36 46.431 190.345L11.0532 175.079C11.0013 175.055 10.9545 175.022 10.9153 174.981C10.8762 174.94 10.8456 174.892 10.8252 174.838C10.8048 174.785 10.7951 174.729 10.7965 174.672C10.798 174.615 10.8106 174.559 10.8337 174.507C10.8567 174.456 10.8898 174.409 10.9309 174.37C10.9721 174.33 11.0206 174.3 11.0736 174.279C11.1266 174.259 11.1831 174.249 11.2399 174.251C11.2966 174.252 11.3526 174.265 11.4044 174.288L46.7713 189.554C46.8597 189.597 46.9312 189.668 46.9745 189.756C47.0178 189.844 47.0303 189.944 47.0101 190.04C46.9899 190.136 46.9381 190.223 46.863 190.286C46.7878 190.349 46.6937 190.385 46.5957 190.389V190.345Z" fill="white"/>
<path d="M59.021 206.764C58.9639 206.764 58.9073 206.753 58.8546 206.731C58.8019 206.708 58.7543 206.676 58.7144 206.635C58.6745 206.594 58.6432 206.545 58.6223 206.492C58.6014 206.439 58.5914 206.382 58.5929 206.325L59.3942 166.786C59.3971 166.672 59.4446 166.563 59.5266 166.483C59.6087 166.403 59.7187 166.358 59.8333 166.358C59.9469 166.364 60.0543 166.412 60.1337 166.494C60.2131 166.575 60.2587 166.684 60.2614 166.797L59.4601 206.336C59.4601 206.393 59.4487 206.45 59.4265 206.502C59.4043 206.555 59.3718 206.603 59.3308 206.643C59.2899 206.683 59.2414 206.714 59.1882 206.735C59.135 206.756 59.0781 206.766 59.021 206.764Z" fill="white"/>
<path d="M68.3845 219.153C68.3278 219.153 68.2717 219.142 68.2196 219.119C68.1675 219.097 68.1205 219.064 68.0815 219.023C68.0425 218.982 68.0122 218.933 67.9926 218.88C67.973 218.827 67.9644 218.77 67.9674 218.714L69.065 178.78C69.0706 178.666 69.1189 178.559 69.2004 178.479C69.2818 178.4 69.3904 178.354 69.5041 178.351C69.5613 178.353 69.6176 178.366 69.6698 178.389C69.7219 178.413 69.7688 178.446 69.8077 178.488C69.8466 178.53 69.8766 178.58 69.8961 178.634C69.9156 178.687 69.9242 178.745 69.9212 178.802L68.8236 218.736C68.8236 218.792 68.8122 218.848 68.7898 218.901C68.7675 218.953 68.7348 219 68.6937 219.039C68.6526 219.078 68.604 219.108 68.5509 219.128C68.4977 219.147 68.4411 219.156 68.3845 219.153Z" fill="white"/>
<path d="M95.2664 254.716C95.2006 254.718 95.1352 254.704 95.0759 254.675C95.0166 254.647 94.9652 254.604 94.9261 254.551L0.0766681 129.082C0.0141833 128.992 -0.0115347 128.882 0.00479645 128.774C0.0211276 128.665 0.0782681 128.568 0.164482 128.5C0.209724 128.466 0.261337 128.441 0.316316 128.427C0.371295 128.412 0.428543 128.409 0.484726 128.418C0.540909 128.426 0.594905 128.445 0.643571 128.474C0.692238 128.504 0.734602 128.542 0.768198 128.588L95.6176 254.024C95.6841 254.116 95.7121 254.231 95.6957 254.344C95.6793 254.456 95.6199 254.558 95.5298 254.628C95.455 254.687 95.3618 254.718 95.2664 254.716Z" fill="white"/>
<path d="M431.965 258.527H418.793C418.744 258.536 418.694 258.534 418.646 258.521C418.597 258.508 418.553 258.485 418.514 258.453C418.476 258.421 418.445 258.381 418.424 258.336C418.403 258.291 418.392 258.242 418.392 258.192C418.392 258.142 418.403 258.093 418.424 258.047C418.445 258.002 418.476 257.962 418.514 257.93C418.553 257.898 418.597 257.875 418.646 257.862C418.694 257.85 418.744 257.848 418.793 257.857H431.965C432.044 257.871 432.115 257.912 432.166 257.974C432.217 258.035 432.245 258.112 432.245 258.192C432.245 258.271 432.217 258.349 432.166 258.41C432.115 258.471 432.044 258.512 431.965 258.527Z" fill="#26225B"/>
<path d="M58.2751 258.527H24.928C24.879 258.536 24.8286 258.534 24.7804 258.521C24.7322 258.508 24.6874 258.485 24.6491 258.453C24.6108 258.421 24.5801 258.381 24.5589 258.336C24.5378 258.291 24.5269 258.242 24.5269 258.192C24.5269 258.142 24.5378 258.093 24.5589 258.047C24.5801 258.002 24.6108 257.962 24.6491 257.93C24.6874 257.898 24.7322 257.875 24.7804 257.862C24.8286 257.85 24.879 257.848 24.928 257.857H58.2751C58.3242 257.848 58.3746 257.85 58.4228 257.862C58.471 257.875 58.5158 257.898 58.554 257.93C58.5923 257.962 58.6231 258.002 58.6442 258.047C58.6653 258.093 58.6763 258.142 58.6763 258.192C58.6763 258.242 58.6653 258.291 58.6442 258.336C58.6231 258.381 58.5923 258.421 58.554 258.453C58.5158 258.485 58.471 258.508 58.4228 258.521C58.3746 258.534 58.3242 258.536 58.2751 258.527Z" fill="#2D71F0"/>
<path d="M159.93 216.715H89.6685V235.99H159.93V216.715Z" fill="white"/>
<path d="M159.93 236.319H89.6796C89.6354 236.319 89.5917 236.31 89.551 236.293C89.5103 236.276 89.4735 236.251 89.4428 236.219C89.412 236.187 89.388 236.149 89.3721 236.108C89.3562 236.067 89.3488 236.023 89.3503 235.979V216.715C89.3488 216.671 89.3562 216.627 89.3721 216.585C89.388 216.544 89.412 216.506 89.4428 216.475C89.4735 216.443 89.5103 216.418 89.551 216.4C89.5917 216.383 89.6354 216.374 89.6796 216.374H159.93C160.021 216.374 160.107 216.41 160.171 216.474C160.235 216.538 160.271 216.624 160.271 216.715V235.979C160.271 236.069 160.235 236.156 160.171 236.22C160.107 236.283 160.021 236.319 159.93 236.319ZM89.9979 235.649H159.601V217.044H89.9979V235.649Z" fill="#26225B"/>
<path d="M142.949 258.197H75.7831C71.979 258.189 68.3339 256.67 65.6482 253.974C62.9624 251.279 61.4556 247.627 61.4585 243.821C61.4788 240.031 62.9962 236.403 65.6798 233.728C68.3633 231.053 71.9952 229.549 75.7831 229.543L142.949 236.319V258.197Z" fill="white"/>
<path d="M142.949 258.527H75.7824C71.9582 258.422 68.3257 256.829 65.6577 254.085C62.9898 251.342 61.4971 247.665 61.4971 243.837C61.4971 240.009 62.9898 236.333 65.6577 233.589C68.3257 230.846 71.9582 229.252 75.7824 229.147L142.982 235.935C143.062 235.945 143.136 235.984 143.191 236.045C143.245 236.105 143.276 236.183 143.278 236.264V258.23C143.267 258.311 143.229 258.385 143.168 258.439C143.108 258.494 143.03 258.525 142.949 258.527ZM75.7275 229.817C72.0793 229.92 68.6147 231.441 66.0703 234.06C63.526 236.678 62.1025 240.185 62.1025 243.837C62.1025 247.489 63.526 250.997 66.0703 253.615C68.6147 256.233 72.0793 257.755 75.7275 257.857H142.553V236.572L75.7275 229.817Z" fill="#26225B"/>
<path d="M89.7778 261.635L102.653 252.519V241.942H89.7778V261.635Z" fill="#26225B"/>
<path d="M89.4492 262.272V241.624H102.983V252.706L89.4492 262.272ZM90.1078 242.283V260.954L102.314 252.321V242.283H90.1078Z" fill="#26225B"/>
<path d="M102.193 258.197H169.348C171.234 258.197 173.101 257.825 174.843 257.102C176.585 256.38 178.168 255.32 179.5 253.985C180.833 252.65 181.889 251.065 182.609 249.321C183.329 247.577 183.698 245.708 183.695 243.821C183.674 240.027 182.154 236.395 179.466 233.72C176.777 231.045 173.14 229.543 169.348 229.543L102.193 236.319V258.197Z" fill="white"/>
<path d="M169.348 258.527H102.193C102.105 258.527 102.021 258.492 101.96 258.43C101.898 258.368 101.863 258.285 101.863 258.197V236.231C101.863 236.149 101.893 236.07 101.948 236.009C102.003 235.948 102.078 235.91 102.16 235.902L169.315 229.125C173.207 229.125 176.94 230.672 179.692 233.426C182.445 236.18 183.991 239.915 183.991 243.81C183.991 247.704 182.445 251.439 179.692 254.193C176.94 256.947 173.207 258.494 169.315 258.494L169.348 258.527ZM102.522 257.857H169.348C171.221 257.909 173.085 257.585 174.831 256.904C176.577 256.223 178.169 255.199 179.512 253.892C180.855 252.585 181.923 251.022 182.652 249.295C183.382 247.568 183.757 245.712 183.757 243.837C183.757 241.962 183.382 240.106 182.652 238.379C181.923 236.652 180.855 235.089 179.512 233.782C178.169 232.475 176.577 231.451 174.831 230.77C173.085 230.089 171.221 229.765 169.348 229.817L102.522 236.572V257.857Z" fill="#26225B"/>
<path d="M112.149 100.746C112.149 100.746 106.21 90.741 112.149 87.0068C118.087 83.2726 135.43 79.3187 135.43 79.3187L133.388 97.1879L112.149 100.746Z" fill="#26225B"/>
<path d="M82.5002 223.557H162.652V183.887H82.5002V223.557Z" fill="#C42128"/>
<path d="M172.476 172.432C172.476 145.71 151.346 123.47 124.651 122.833H122.993C82.8296 122.833 70.1625 152.047 68.2636 157.088C64.0266 168.302 57.9236 200.152 92.3245 201.503C126.725 202.854 131.127 202.69 131.127 202.69L172.476 198.626V172.432Z" fill="#C42128"/>
<path d="M121.039 130.081C122.981 130.081 124.843 129.31 126.216 127.936C127.589 126.562 128.361 124.699 128.361 122.756V98.9558H113.718V122.756C113.718 124.699 114.489 126.562 115.862 127.936C117.235 129.31 119.097 130.081 121.039 130.081Z" fill="white"/>
<path d="M121.039 130.411C120.03 130.411 119.031 130.212 118.099 129.826C117.167 129.44 116.32 128.873 115.606 128.159C114.893 127.445 114.327 126.598 113.941 125.665C113.554 124.732 113.356 123.733 113.356 122.723V98.9561C113.354 98.9119 113.362 98.8679 113.378 98.8266C113.393 98.7854 113.417 98.7477 113.448 98.716C113.479 98.6842 113.516 98.6589 113.556 98.6417C113.597 98.6244 113.641 98.6156 113.685 98.6156H128.416C128.504 98.6185 128.588 98.6556 128.649 98.7191C128.711 98.7827 128.745 98.8676 128.745 98.9561V122.756C128.736 124.793 127.92 126.743 126.475 128.179C125.03 129.614 123.075 130.417 121.039 130.411ZM114.047 99.2856V122.756C114.01 123.697 114.163 124.637 114.497 125.517C114.832 126.398 115.34 127.202 115.993 127.881C116.645 128.56 117.428 129.101 118.294 129.47C119.16 129.839 120.092 130.029 121.034 130.029C121.975 130.029 122.907 129.839 123.773 129.47C124.64 129.101 125.423 128.56 126.075 127.881C126.727 127.202 127.236 126.398 127.57 125.517C127.905 124.637 128.058 123.697 128.021 122.756V99.2856H114.047Z" fill="#26225B"/>
<path d="M108.208 103.481C108.299 104.005 108.493 104.506 108.778 104.956C109.063 105.405 109.434 105.794 109.869 106.1C110.304 106.406 110.796 106.623 111.315 106.739C111.834 106.855 112.371 106.868 112.895 106.776C113.232 106.722 113.561 106.623 113.872 106.479C114.38 107.863 115.169 109.127 116.188 110.192C117.818 111.901 119.96 113.032 122.291 113.412C124.621 113.792 127.012 113.4 129.1 112.297C131.188 111.193 132.859 109.438 133.859 107.298C134.859 105.158 135.134 102.749 134.641 100.439C134.149 98.1282 132.916 96.0415 131.131 94.4957C129.345 92.9499 127.104 92.0294 124.748 91.8741C122.392 91.7187 120.049 92.3371 118.076 93.6351C116.104 94.9331 114.608 96.84 113.817 99.066C113.1 98.748 112.305 98.6524 111.534 98.7914C111.007 98.8805 110.504 99.0725 110.052 99.3565C109.6 99.6405 109.208 100.011 108.899 100.446C108.59 100.882 108.37 101.374 108.251 101.895C108.133 102.416 108.118 102.955 108.208 103.481Z" fill="white"/>
<path d="M124.025 113.904C122.516 113.903 121.022 113.598 119.634 113.005C118.245 112.413 116.991 111.545 115.946 110.455C114.976 109.442 114.208 108.253 113.685 106.952C113.446 107.036 113.2 107.098 112.95 107.138C112.38 107.236 111.797 107.22 111.234 107.092C110.67 106.963 110.138 106.725 109.667 106.39C109.196 106.056 108.795 105.631 108.488 105.141C108.181 104.652 107.974 104.106 107.878 103.536C107.781 102.966 107.797 102.383 107.925 101.819C108.053 101.255 108.291 100.722 108.626 100.251C108.96 99.7797 109.385 99.379 109.874 99.0719C110.364 98.7649 110.909 98.5575 111.479 98.4618C112.213 98.3278 112.97 98.3884 113.674 98.6375C114.388 96.8201 115.566 95.2216 117.09 94.0011C118.613 92.7807 120.43 91.9808 122.359 91.6812C124.287 91.3816 126.261 91.5927 128.083 92.2934C129.904 92.9941 131.511 94.1601 132.743 95.6752C133.974 97.1904 134.787 99.0018 135.102 100.929C135.416 102.857 135.22 104.833 134.534 106.661C133.847 108.489 132.695 110.106 131.19 111.349C129.685 112.593 127.881 113.421 125.957 113.75C125.318 113.853 124.672 113.904 124.025 113.904ZM113.872 106.216H113.992C114.078 106.255 114.145 106.326 114.179 106.413C114.665 107.744 115.412 108.965 116.374 110.005C117.945 111.67 120.015 112.778 122.271 113.159C124.527 113.541 126.846 113.176 128.876 112.119C130.906 111.063 132.536 109.373 133.52 107.305C134.503 105.238 134.785 102.906 134.323 100.663C133.862 98.4208 132.682 96.3901 130.963 94.8793C129.243 93.3685 127.078 92.46 124.796 92.2918C122.514 92.1236 120.24 92.7047 118.318 93.947C116.396 95.1893 114.931 97.0251 114.146 99.1757C114.131 99.22 114.106 99.2606 114.074 99.2947C114.042 99.3288 114.003 99.3556 113.96 99.3734C113.875 99.4065 113.781 99.4065 113.696 99.3734C113.037 99.0871 112.308 98.9993 111.6 99.1208C110.625 99.2873 109.755 99.8343 109.183 100.642C108.611 101.449 108.383 102.45 108.548 103.426C108.623 103.914 108.793 104.381 109.05 104.802C109.307 105.223 109.645 105.589 110.044 105.878C110.444 106.167 110.896 106.374 111.376 106.487C111.856 106.599 112.354 106.616 112.84 106.534C113.147 106.489 113.447 106.4 113.729 106.271C113.768 106.229 113.817 106.198 113.872 106.183V106.216Z" fill="#26225B"/>
<path d="M114.563 104.338C114.488 104.338 114.415 104.313 114.356 104.267C114.296 104.222 114.253 104.158 114.234 104.085C114.12 103.635 113.842 103.243 113.454 102.987C113.269 102.892 113.065 102.838 112.857 102.828C112.648 102.819 112.441 102.854 112.247 102.932C112.168 102.943 112.087 102.926 112.02 102.884C111.952 102.841 111.901 102.777 111.876 102.701C111.851 102.625 111.854 102.542 111.884 102.468C111.913 102.394 111.968 102.333 112.038 102.295C112.323 102.191 112.626 102.147 112.928 102.166C113.23 102.185 113.525 102.266 113.795 102.405C114.339 102.758 114.73 103.303 114.892 103.931C114.912 104.016 114.898 104.105 114.853 104.179C114.808 104.253 114.735 104.306 114.651 104.327L114.563 104.338Z" fill="#26225B"/>
<path d="M252.771 159.966H169.216C164.666 159.966 160.302 161.775 157.085 164.994C153.867 168.213 152.06 172.58 152.06 177.132V224.787C152.06 229.34 153.867 233.706 157.085 236.926C160.302 240.145 164.666 241.953 169.216 241.953H189.589V273.474L218.205 241.953H252.771C257.321 241.953 261.685 240.145 264.902 236.926C268.12 233.706 269.927 229.34 269.927 224.787V177.132C269.927 172.58 268.12 168.213 264.902 164.994C261.685 161.775 257.321 159.966 252.771 159.966Z" fill="#756FBF"/>
<path d="M186.186 206.006C189.005 206.006 191.29 203.72 191.29 200.899C191.29 198.079 189.005 195.792 186.186 195.792C183.367 195.792 181.082 198.079 181.082 200.899C181.082 203.72 183.367 206.006 186.186 206.006Z" fill="#26225B"/>
<path d="M186.186 206.325C185.113 206.314 184.068 205.986 183.181 205.381C182.294 204.777 181.607 203.924 181.204 202.929C180.802 201.934 180.702 200.842 180.919 199.791C181.136 198.739 181.659 197.776 182.422 197.021C183.185 196.267 184.154 195.756 185.207 195.551C186.261 195.347 187.351 195.46 188.34 195.874C189.329 196.289 190.174 196.988 190.767 197.882C191.361 198.776 191.676 199.826 191.674 200.9C191.657 202.344 191.071 203.724 190.043 204.74C189.016 205.756 187.63 206.325 186.186 206.325ZM186.186 196.122C185.241 196.122 184.318 196.402 183.533 196.927C182.748 197.452 182.136 198.198 181.774 199.071C181.413 199.944 181.318 200.905 181.503 201.832C181.687 202.758 182.142 203.61 182.809 204.278C183.477 204.946 184.328 205.401 185.254 205.585C186.18 205.77 187.14 205.675 188.013 205.313C188.885 204.952 189.631 204.339 190.156 203.554C190.681 202.768 190.961 201.844 190.961 200.9C190.961 200.272 190.837 199.651 190.597 199.071C190.357 198.492 190.005 197.965 189.562 197.521C189.119 197.078 188.592 196.726 188.013 196.486C187.434 196.246 186.813 196.122 186.186 196.122Z" fill="#26225B"/>
<path d="M216.229 200.899C216.229 201.909 215.929 202.897 215.369 203.737C214.808 204.576 214.011 205.231 213.078 205.618C212.145 206.004 211.119 206.105 210.129 205.908C209.139 205.711 208.229 205.225 207.515 204.511C206.802 203.796 206.316 202.886 206.119 201.896C205.922 200.905 206.023 199.878 206.409 198.945C206.795 198.012 207.45 197.214 208.289 196.653C209.128 196.092 210.115 195.792 211.125 195.792C212.478 195.792 213.777 196.33 214.734 197.288C215.691 198.246 216.229 199.545 216.229 200.899Z" fill="#26225B"/>
<path d="M211.169 206.325C210.096 206.314 209.051 205.986 208.164 205.381C207.278 204.777 206.59 203.924 206.188 202.929C205.785 201.934 205.686 200.842 205.903 199.791C206.119 198.739 206.642 197.776 207.405 197.021C208.168 196.267 209.138 195.756 210.191 195.551C211.244 195.347 212.334 195.46 213.323 195.874C214.313 196.289 215.157 196.988 215.751 197.882C216.344 198.776 216.66 199.826 216.657 200.9C216.64 202.344 216.054 203.724 215.027 204.74C213.999 205.756 212.613 206.325 211.169 206.325ZM211.169 196.122C210.225 196.122 209.302 196.402 208.516 196.927C207.731 197.452 207.119 198.198 206.758 199.071C206.396 199.944 206.302 200.905 206.486 201.832C206.67 202.758 207.125 203.61 207.793 204.278C208.461 204.946 209.311 205.401 210.238 205.585C211.164 205.77 212.124 205.675 212.996 205.313C213.869 204.952 214.615 204.339 215.139 203.554C215.664 202.768 215.944 201.844 215.944 200.9C215.944 200.272 215.82 199.651 215.58 199.071C215.341 198.492 214.989 197.965 214.545 197.521C214.102 197.078 213.576 196.726 212.996 196.486C212.417 196.246 211.796 196.122 211.169 196.122Z" fill="#26225B"/>
<path d="M241.256 200.899C241.256 201.909 240.956 202.897 240.395 203.737C239.835 204.576 239.037 205.231 238.105 205.618C237.172 206.004 236.146 206.105 235.156 205.908C234.166 205.711 233.256 205.225 232.542 204.511C231.829 203.796 231.342 202.886 231.145 201.896C230.948 200.905 231.05 199.878 231.436 198.945C231.822 198.012 232.476 197.214 233.316 196.653C234.155 196.092 235.142 195.792 236.152 195.792C237.505 195.792 238.803 196.33 239.761 197.288C240.718 198.246 241.256 199.545 241.256 200.899Z" fill="#26225B"/>
<path d="M236.152 206.325C235.077 206.325 234.026 206.006 233.132 205.408C232.239 204.81 231.542 203.96 231.131 202.966C230.72 201.972 230.613 200.879 230.824 199.824C231.035 198.769 231.553 197.8 232.314 197.04C233.075 196.28 234.044 195.763 235.099 195.555C236.154 195.346 237.246 195.456 238.239 195.869C239.232 196.282 240.08 196.98 240.675 197.876C241.271 198.771 241.588 199.824 241.586 200.899C241.568 202.335 240.99 203.707 239.975 204.721C238.959 205.735 237.587 206.311 236.152 206.325ZM236.152 196.122C235.208 196.122 234.285 196.402 233.499 196.927C232.714 197.452 232.102 198.198 231.741 199.071C231.379 199.944 231.285 200.905 231.469 201.831C231.653 202.758 232.108 203.609 232.776 204.278C233.444 204.946 234.294 205.401 235.221 205.585C236.147 205.769 237.107 205.675 237.979 205.313C238.852 204.952 239.598 204.339 240.122 203.554C240.647 202.768 240.927 201.844 240.927 200.899C240.927 200.272 240.804 199.651 240.564 199.071C240.324 198.491 239.972 197.965 239.529 197.521C239.085 197.077 238.559 196.726 237.979 196.485C237.4 196.245 236.779 196.122 236.152 196.122Z" fill="#26225B"/>
<path d="M137.077 183.744L152.192 181.108L152.301 184.754L158.536 185.04L158.295 200.251L135.43 200.46L137.077 183.744Z" fill="white"/>
<path d="M135.43 200.801C135.384 200.801 135.339 200.791 135.297 200.772C135.255 200.753 135.218 200.725 135.188 200.691C135.155 200.656 135.13 200.614 135.115 200.569C135.1 200.523 135.095 200.475 135.1 200.427L136.736 183.711C136.745 183.639 136.777 183.572 136.826 183.519C136.875 183.466 136.94 183.43 137.01 183.415L152.136 180.779C152.182 180.77 152.23 180.771 152.275 180.782C152.321 180.793 152.363 180.815 152.4 180.845C152.437 180.875 152.467 180.914 152.488 180.957C152.509 181.001 152.52 181.049 152.52 181.097L152.63 184.392L158.557 184.667C158.6 184.668 158.642 184.678 158.681 184.696C158.72 184.714 158.755 184.74 158.783 184.771C158.812 184.803 158.834 184.841 158.848 184.881C158.862 184.921 158.868 184.964 158.865 185.007L158.623 200.207C158.623 200.295 158.589 200.379 158.527 200.44C158.465 200.502 158.381 200.537 158.294 200.537L135.43 200.757V200.801ZM137.372 184.03L135.792 200.131L157.965 199.922L158.195 185.359L152.29 185.084C152.205 185.084 152.124 185.05 152.065 184.991C152.005 184.931 151.971 184.85 151.971 184.765L151.873 181.471L137.372 184.03Z" fill="#26225B"/>
<path d="M158.459 189.62L151.313 189.334C151.269 189.333 151.225 189.323 151.185 189.304C151.145 189.286 151.109 189.259 151.079 189.226C151.05 189.193 151.027 189.155 151.012 189.113C150.998 189.071 150.992 189.027 150.995 188.983C150.995 188.939 151.004 188.896 151.021 188.856C151.038 188.816 151.064 188.779 151.096 188.749C151.128 188.72 151.165 188.697 151.207 188.682C151.248 188.667 151.292 188.661 151.335 188.664L158.481 188.95C158.57 188.955 158.654 188.995 158.715 189.06C158.777 189.126 158.81 189.212 158.81 189.301C158.802 189.389 158.761 189.47 158.696 189.529C158.631 189.588 158.547 189.62 158.459 189.62Z" fill="#2D71F0"/>
<path d="M158.141 193.453L150.995 193.156C150.951 193.156 150.907 193.148 150.866 193.13C150.826 193.113 150.789 193.088 150.758 193.056C150.727 193.024 150.703 192.987 150.688 192.945C150.672 192.904 150.664 192.86 150.666 192.816C150.665 192.771 150.675 192.727 150.693 192.686C150.711 192.645 150.737 192.608 150.77 192.578C150.803 192.548 150.842 192.525 150.885 192.512C150.928 192.498 150.972 192.493 151.017 192.497L158.163 192.783C158.241 192.797 158.312 192.839 158.363 192.9C158.414 192.961 158.442 193.038 158.442 193.118C158.442 193.198 158.414 193.275 158.363 193.336C158.312 193.397 158.241 193.439 158.163 193.453H158.141Z" fill="#2D71F0"/>
<path d="M158.053 197.264L150.907 196.978C150.82 196.978 150.736 196.944 150.675 196.882C150.613 196.82 150.578 196.736 150.578 196.649C150.578 196.562 150.613 196.478 150.675 196.416C150.736 196.354 150.82 196.319 150.907 196.319L158.053 196.605C158.14 196.611 158.221 196.649 158.28 196.712C158.339 196.775 158.372 196.859 158.372 196.945C158.369 197.029 158.334 197.109 158.275 197.168C158.216 197.227 158.137 197.261 158.053 197.264Z" fill="#2D71F0"/>
<path d="M102.073 202.14H101.041C100.953 202.14 100.87 202.106 100.808 202.044C100.746 201.982 100.711 201.898 100.711 201.811C100.711 201.722 100.746 201.637 100.807 201.574C100.869 201.51 100.952 201.473 101.041 201.47C115.102 201.47 127.385 200.833 133.444 200.372C133.489 200.369 133.533 200.375 133.576 200.389C133.618 200.404 133.657 200.426 133.691 200.456C133.725 200.486 133.752 200.522 133.772 200.562C133.792 200.602 133.803 200.646 133.806 200.691C133.809 200.779 133.778 200.865 133.718 200.931C133.659 200.997 133.576 201.036 133.488 201.042C127.582 201.481 115.738 202.14 102.073 202.14Z" fill="white"/>
<path d="M137.274 181.13C136.922 181.13 101.358 180.24 95.4525 180.032C94.8782 180.02 94.3132 179.884 93.7961 179.634C93.279 179.384 92.8218 179.025 92.4559 178.582C89.6348 175.287 90.4361 167.676 90.4691 167.347C90.4679 167.298 90.4771 167.249 90.4962 167.205C90.5152 167.16 90.5437 167.12 90.5796 167.087C90.6155 167.054 90.6581 167.029 90.7044 167.014C90.7507 166.999 90.7997 166.994 90.848 167C90.8964 167.005 90.943 167.021 90.9847 167.046C91.0264 167.071 91.0622 167.105 91.0898 167.145C91.1173 167.185 91.136 167.231 91.1444 167.279C91.1528 167.327 91.1509 167.376 91.1387 167.423C91.1387 167.5 90.3374 175.111 92.9608 178.154C93.2659 178.527 93.6492 178.828 94.0835 179.037C94.5178 179.246 94.9926 179.357 95.4744 179.362C101.38 179.581 136.933 180.46 137.296 180.46C137.339 180.462 137.381 180.471 137.421 180.489C137.46 180.507 137.496 180.533 137.525 180.564C137.555 180.596 137.578 180.633 137.593 180.674C137.608 180.714 137.615 180.757 137.614 180.801C137.614 180.845 137.605 180.889 137.588 180.929C137.571 180.97 137.545 181.007 137.514 181.038C137.482 181.068 137.444 181.092 137.403 181.108C137.362 181.124 137.318 181.132 137.274 181.13Z" fill="white"/>
<path d="M183.837 64.2719H159.294C157.855 64.2719 156.476 64.8435 155.459 65.861C154.442 66.8784 153.871 68.2585 153.871 69.6974V94.2552C153.871 95.6941 154.442 97.0742 155.459 98.0916C156.476 99.1091 157.855 99.6807 159.294 99.6807H162.51V107.16L171.642 99.6807H183.837C185.276 99.6807 186.655 99.1091 187.672 98.0916C188.689 97.0742 189.26 95.6941 189.26 94.2552V69.6974C189.26 68.2585 188.689 66.8784 187.672 65.861C186.655 64.8435 185.276 64.2719 183.837 64.2719Z" fill="white"/>
<path d="M183.837 64.9418C185.098 64.9418 186.307 65.4428 187.198 66.3347C188.09 67.2265 188.59 68.4361 188.59 69.6974V94.2552C188.59 95.5175 188.09 96.7282 187.199 97.6218C186.308 98.5154 185.099 99.0189 183.837 99.0218H171.642C171.488 99.024 171.339 99.0739 171.214 99.1646L163.168 105.754V99.6807C163.168 99.506 163.099 99.3384 162.975 99.2148C162.852 99.0912 162.684 99.0218 162.51 99.0218H159.294C158.032 99.0189 156.823 98.5154 155.932 97.6218C155.041 96.7282 154.541 95.5175 154.541 94.2552V69.6974C154.541 68.4361 155.041 67.2265 155.933 66.3347C156.824 65.4428 158.033 64.9418 159.294 64.9418H183.837ZM183.837 64.2719H159.294C157.855 64.2719 156.476 64.8435 155.459 65.861C154.442 66.8784 153.871 68.2585 153.871 69.6974V94.2552C153.871 95.6941 154.442 97.0742 155.459 98.0916C156.476 99.1091 157.855 99.6807 159.294 99.6807H162.51V107.16L171.642 99.6807H183.837C185.276 99.6807 186.655 99.1091 187.672 98.0916C188.689 97.0742 189.26 95.6941 189.26 94.2552V69.6974C189.26 68.2585 188.689 66.8784 187.672 65.861C186.655 64.8435 185.276 64.2719 183.837 64.2719Z" fill="#C42128"/>
<path d="M171.225 90.7079L179.106 82.7892C179.84 81.9987 180.24 80.9545 180.221 79.8757C180.202 78.7969 179.766 77.7672 179.005 77.0029C178.244 76.2385 177.217 75.7987 176.139 75.7759C175.061 75.7531 174.015 76.1489 173.223 76.8804L171.466 78.6377L170.007 77.0781C169.642 76.6482 169.194 76.2968 168.689 76.045C168.185 75.7932 167.635 75.6463 167.072 75.6131C166.51 75.5799 165.946 75.6611 165.416 75.8519C164.886 76.0426 164.399 76.339 163.987 76.723C163.574 77.107 163.243 77.5707 163.014 78.0861C162.786 78.6016 162.664 79.158 162.656 79.7219C162.648 80.2857 162.755 80.8453 162.969 81.3669C163.184 81.8884 163.501 82.361 163.903 82.7563L171.225 90.7079Z" fill="#C42128"/>
<path d="M171.225 91.1581L163.629 82.9869C163.221 82.5449 162.905 82.0258 162.699 81.4601C162.494 80.8943 162.403 80.2932 162.433 79.692C162.449 79.1002 162.585 78.5179 162.832 77.98C163.079 77.4421 163.433 76.9597 163.871 76.5619C164.748 75.7521 165.909 75.322 167.101 75.3652C168.294 75.4084 169.421 75.9214 170.237 76.7925L171.445 78.1104L172.959 76.5838C173.806 75.7415 174.949 75.2644 176.143 75.2549C177.336 75.2549 178.481 75.7293 179.325 76.5738C180.169 77.4183 180.643 78.5636 180.643 79.7579C180.651 80.3494 180.539 80.9364 180.315 81.4838C180.09 82.0311 179.758 82.5274 179.337 82.9429L171.225 91.1581ZM166.933 76.0786C165.939 76.0752 164.982 76.46 164.267 77.1512C163.552 77.8423 163.134 78.7854 163.102 79.7798C163.079 80.2827 163.158 80.785 163.333 81.2567C163.509 81.7285 163.777 82.16 164.123 82.5256L171.236 90.2136L178.92 82.5256C179.467 81.9892 179.841 81.3013 179.995 80.5504C180.149 79.7994 180.074 79.0197 179.782 78.3113C179.489 77.6029 178.991 76.9983 178.353 76.575C177.714 76.1517 176.964 75.9291 176.197 75.9358C175.696 75.9317 175.198 76.0266 174.733 76.215C174.267 76.4035 173.844 76.6818 173.486 77.0341L171.488 79.044L169.798 77.2318C169.457 76.8603 169.046 76.5603 168.588 76.3492C168.13 76.138 167.635 76.0199 167.131 76.0017L166.933 76.0786Z" fill="#C42128"/>
<path d="M414.38 260.273L401.505 251.168V240.592H414.38V260.273Z" fill="#26225B"/>
<path d="M414.71 260.921L401.175 251.344V240.262H414.71V260.921ZM401.845 251.036L414.051 259.68V241.009H401.845V251.036Z" fill="#2D71F0"/>
<path d="M372.68 230.443V258.197H315.601C310.07 258.197 304.765 255.999 300.854 252.085C296.943 248.172 294.746 242.864 294.746 237.33V189.884H328.685V230.399L372.68 230.443Z" fill="white"/>
<path d="M372.68 258.527H315.601C309.996 258.521 304.622 256.29 300.659 252.325C296.695 248.359 294.466 242.982 294.46 237.374V189.927C294.459 189.883 294.466 189.839 294.482 189.798C294.498 189.757 294.522 189.719 294.553 189.687C294.583 189.656 294.62 189.63 294.661 189.613C294.702 189.596 294.745 189.587 294.789 189.587H328.729C328.818 189.59 328.901 189.627 328.963 189.69C329.024 189.754 329.059 189.839 329.059 189.927V230.114H372.68C372.724 230.112 372.767 230.12 372.808 230.136C372.848 230.152 372.885 230.176 372.916 230.207C372.947 230.238 372.971 230.275 372.987 230.315C373.003 230.356 373.011 230.4 373.009 230.443V258.197C373.009 258.24 373.001 258.283 372.984 258.323C372.968 258.363 372.943 258.4 372.913 258.43C372.882 258.461 372.846 258.485 372.806 258.502C372.766 258.518 372.723 258.527 372.68 258.527ZM295.119 190.257V237.374C295.125 242.806 297.285 248.014 301.125 251.855C304.965 255.695 310.172 257.854 315.601 257.857H372.34V230.773H328.729C328.685 230.774 328.641 230.767 328.6 230.751C328.559 230.735 328.521 230.711 328.489 230.68C328.458 230.65 328.432 230.613 328.415 230.572C328.398 230.531 328.389 230.488 328.389 230.443V190.257H295.119Z" fill="#26225B"/>
<path d="M323.625 189.927H357.554V230.443H401.461V258.197H344.382C338.851 258.197 333.546 255.999 329.635 252.085C325.724 248.172 323.526 242.864 323.526 237.33V189.884L323.625 189.927Z" fill="white"/>
<path d="M401.504 258.527H344.426C338.82 258.521 333.446 256.29 329.483 252.325C325.52 248.359 323.29 242.982 323.284 237.374V208.818C323.276 208.769 323.278 208.719 323.29 208.67C323.303 208.622 323.326 208.577 323.358 208.539C323.39 208.501 323.43 208.47 323.475 208.449C323.52 208.428 323.569 208.417 323.619 208.417C323.669 208.417 323.718 208.428 323.763 208.449C323.809 208.47 323.849 208.501 323.881 208.539C323.912 208.577 323.936 208.622 323.948 208.67C323.961 208.719 323.963 208.769 323.954 208.818V237.374C323.96 242.804 326.119 248.011 329.956 251.851C333.794 255.691 338.998 257.851 344.426 257.857H401.175V230.773H357.554C357.51 230.774 357.467 230.767 357.426 230.751C357.385 230.735 357.348 230.711 357.317 230.68C357.287 230.649 357.262 230.612 357.246 230.571C357.23 230.531 357.223 230.487 357.224 230.443V190.257H323.625C323.576 190.266 323.525 190.264 323.477 190.251C323.429 190.239 323.384 190.215 323.346 190.183C323.308 190.151 323.277 190.111 323.256 190.066C323.235 190.021 323.224 189.972 323.224 189.922C323.224 189.872 323.235 189.823 323.256 189.778C323.277 189.733 323.308 189.693 323.346 189.661C323.384 189.629 323.429 189.606 323.477 189.593C323.525 189.58 323.576 189.578 323.625 189.587H357.554C357.644 189.587 357.73 189.623 357.794 189.687C357.858 189.751 357.894 189.837 357.894 189.928V230.114H401.504C401.548 230.113 401.592 230.12 401.634 230.136C401.675 230.152 401.712 230.176 401.744 230.207C401.776 230.237 401.801 230.274 401.818 230.315C401.836 230.355 401.845 230.399 401.845 230.443V258.197C401.842 258.286 401.805 258.369 401.741 258.431C401.678 258.492 401.593 258.527 401.504 258.527Z" fill="#26225B"/>
<path d="M365.424 154.826H285.272V196.935H365.424V154.826Z" fill="#C42128"/>
<path d="M275.438 143.404C275.438 116.693 296.568 94.4421 323.263 93.8051H324.898C365.062 93.8051 377.729 123.009 379.628 128.05C383.865 139.274 389.968 167.05 355.567 168.401C321.166 169.752 316.765 169.587 316.765 169.587H275.438V143.404Z" fill="#C42128"/>
<path d="M343.558 87.8633L312.11 92.1356V70.2247C312.11 62.4269 321.671 56.1117 329.453 56.1117C333.194 56.1117 336.782 57.5986 339.427 60.2453C342.072 62.892 343.558 66.4817 343.558 70.2247V87.8633Z" fill="#C42128"/>
<path d="M323.8 101.284C321.859 101.284 319.996 100.513 318.623 99.1388C317.25 97.7649 316.479 95.9016 316.479 93.9588V70.1588H331.122V93.9588C331.122 95.9016 330.351 97.7649 328.978 99.1388C327.604 100.513 325.742 101.284 323.8 101.284Z" fill="white"/>
<path d="M323.801 101.614C321.763 101.614 319.808 100.804 318.367 99.3619C316.926 97.9201 316.117 95.9646 316.117 93.9256V70.1586C316.115 70.1144 316.123 70.0704 316.139 70.0291C316.155 69.9879 316.179 69.9502 316.209 69.9185C316.24 69.8867 316.277 69.8614 316.318 69.8442C316.358 69.827 316.402 69.8181 316.446 69.8181H331.089C331.177 69.821 331.261 69.8581 331.323 69.9216C331.384 69.9852 331.418 70.0702 331.418 70.1586V93.9585C331.41 95.9805 330.605 97.9176 329.18 99.3504C327.754 100.783 325.821 101.596 323.801 101.614ZM316.808 70.4881V93.9585C316.771 94.8999 316.924 95.839 317.258 96.7197C317.593 97.6004 318.101 98.4045 318.754 99.0837C319.406 99.7629 320.189 100.303 321.055 100.672C321.922 101.042 322.854 101.232 323.795 101.232C324.737 101.232 325.668 101.042 326.535 100.672C327.401 100.303 328.184 99.7629 328.836 99.0837C329.489 98.4045 329.997 97.6004 330.332 96.7197C330.666 95.839 330.819 94.8999 330.782 93.9585V70.4881H316.808Z" fill="#26225B"/>
<path d="M336.204 71.3891C336.249 71.9223 336.188 72.4591 336.025 72.9687C335.863 73.4784 335.601 73.9509 335.255 74.359C334.909 74.7672 334.487 75.1031 334.011 75.3473C333.535 75.5915 333.016 75.7394 332.483 75.7823C332.144 75.8266 331.801 75.8266 331.462 75.7823C331.183 78.3167 330.022 80.6721 328.181 82.4352C326.34 84.1982 323.937 85.2563 321.395 85.4239C318.852 85.5914 316.331 84.8577 314.275 83.3515C312.219 81.8452 310.759 79.6626 310.15 77.1866C309.542 74.7106 309.825 72.0993 310.948 69.8109C312.072 67.5225 313.965 65.7032 316.296 64.672C318.627 63.6409 321.246 63.4639 323.694 64.172C326.142 64.8801 328.262 66.4282 329.684 68.5445C330.299 68.0625 331.044 67.7757 331.824 67.7208C332.89 67.6293 333.949 67.9637 334.77 68.6511C335.591 69.3384 336.106 70.3228 336.204 71.3891Z" fill="white"/>
<path d="M320.672 85.6667C318.757 85.6657 316.875 85.1724 315.206 84.2342C313.536 83.2959 312.136 81.9442 311.139 80.3086C310.142 78.6731 309.581 76.8086 309.511 74.8941C309.441 72.9796 309.864 71.0792 310.74 69.3752C311.615 67.6713 312.913 66.221 314.51 65.1634C316.106 64.1058 317.948 63.4765 319.857 63.3358C321.767 63.195 323.68 63.5476 325.415 64.3597C327.149 65.1717 328.645 66.4161 329.761 67.9733C330.371 67.57 331.073 67.3282 331.802 67.2704C332.379 67.2242 332.959 67.2921 333.509 67.4703C334.06 67.6484 334.57 67.9333 335.01 68.3086C335.45 68.6839 335.812 69.1423 336.076 69.6576C336.339 70.173 336.498 70.7352 336.544 71.3121C336.591 71.889 336.523 72.4694 336.345 73.02C336.167 73.5707 335.882 74.0809 335.507 74.5215C335.132 74.962 334.674 75.3244 334.158 75.5878C333.643 75.8512 333.082 76.0105 332.505 76.0567C332.253 76.0785 332 76.0785 331.748 76.0567C331.562 77.4491 331.107 78.792 330.408 80.0105C329.515 81.6018 328.246 82.9495 326.711 83.9356C325.176 84.9217 323.423 85.5161 321.605 85.6667C321.276 85.6667 320.979 85.6667 320.672 85.6667ZM320.672 63.9645C320.391 63.9484 320.108 63.9484 319.827 63.9645C317.838 64.1241 315.935 64.8468 314.34 66.0483C312.746 67.2498 311.527 68.8803 310.824 70.7495C310.122 72.6186 309.966 74.6492 310.374 76.6039C310.782 78.5586 311.738 80.3568 313.129 81.7883C314.52 83.2198 316.29 84.2256 318.232 84.688C320.173 85.1505 322.206 85.0506 324.093 84.4C325.98 83.7495 327.643 82.575 328.888 81.014C330.132 79.4529 330.907 77.5698 331.122 75.5844C331.127 75.5389 331.141 75.4949 331.164 75.4552C331.186 75.4155 331.217 75.381 331.254 75.3538C331.295 75.335 331.34 75.3252 331.385 75.3252C331.431 75.3252 331.476 75.335 331.517 75.3538C331.823 75.3929 332.133 75.3929 332.439 75.3538C333.017 75.3068 333.576 75.1257 334.072 74.8247C334.568 74.5238 334.987 74.1113 335.296 73.6201C335.605 73.1288 335.795 72.5723 335.852 71.9947C335.908 71.4171 335.829 70.8342 335.621 70.2925C335.413 69.7508 335.082 69.265 334.653 68.8737C334.225 68.4825 333.711 68.1966 333.153 68.0386C332.595 67.8807 332.007 67.8551 331.438 67.9638C330.868 68.0726 330.331 68.3127 329.871 68.6652C329.835 68.6923 329.794 68.712 329.751 68.7233C329.708 68.7346 329.662 68.7373 329.618 68.7311C329.572 68.7238 329.528 68.7074 329.489 68.6829C329.449 68.6583 329.415 68.6262 329.388 68.5883C328.425 67.1648 327.128 65.9996 325.611 65.1952C324.093 64.3909 322.401 63.972 320.683 63.9755L320.672 63.9645Z" fill="#26225B"/>
<path d="M307.522 71.0924L329.684 68.4455L326.073 57.2429C325.963 56.9895 325.762 56.7866 325.51 56.6746C325.258 56.5627 324.973 56.5499 324.712 56.6388L317.028 58.3302C310.519 59.758 306.238 65.1067 307.336 70.2906L307.522 71.0924Z" fill="#C42128"/>
<path d="M330.167 73.7394C330.08 73.7394 329.996 73.7046 329.934 73.6428C329.873 73.5811 329.838 73.4972 329.838 73.4099C329.84 72.7666 330.083 72.1474 330.518 71.6746C330.742 71.4696 331.006 71.3145 331.293 71.2198C331.581 71.1252 331.886 71.093 332.187 71.1254C332.275 71.1311 332.358 71.1709 332.417 71.2366C332.477 71.3022 332.508 71.3884 332.505 71.4769C332.504 71.5211 332.494 71.5646 332.475 71.6048C332.456 71.645 332.43 71.681 332.397 71.7108C332.364 71.7405 332.326 71.7633 332.284 71.7779C332.242 71.7924 332.198 71.7983 332.154 71.7954C331.946 71.7704 331.736 71.7887 331.535 71.8492C331.335 71.9097 331.15 72.011 330.99 72.1468C330.685 72.4931 330.514 72.9372 330.507 73.3989C330.509 73.4431 330.501 73.4871 330.486 73.5283C330.47 73.5696 330.446 73.6072 330.415 73.639C330.384 73.6708 330.347 73.696 330.307 73.7133C330.266 73.7305 330.222 73.7394 330.178 73.7394H330.167Z" fill="#26225B"/>
<path d="M255.317 187.171H296.809C301.514 187.171 305.327 183.355 305.327 178.648V154.98C305.327 150.273 301.514 146.457 296.809 146.457H255.317C250.613 146.457 246.8 150.273 246.8 154.98V178.648C246.8 183.355 250.613 187.171 255.317 187.171Z" fill="#26225B"/>
<path d="M286.689 179.944V202.811L265.91 179.944H286.689Z" fill="#26225B"/>
<path d="M285.843 166.786C285.843 167.288 285.992 167.779 286.271 168.196C286.549 168.613 286.945 168.938 287.409 169.13C287.872 169.322 288.382 169.373 288.874 169.275C289.365 169.177 289.817 168.935 290.172 168.58C290.526 168.226 290.768 167.773 290.866 167.281C290.964 166.789 290.913 166.279 290.722 165.815C290.53 165.352 290.205 164.956 289.788 164.677C289.371 164.398 288.88 164.249 288.379 164.249C288.046 164.248 287.715 164.312 287.407 164.439C287.099 164.566 286.818 164.753 286.583 164.989C286.347 165.225 286.16 165.505 286.033 165.814C285.906 166.122 285.842 166.453 285.843 166.786Z" fill="white"/>
<path d="M288.38 169.653C287.81 169.655 287.252 169.488 286.778 169.173C286.303 168.857 285.933 168.408 285.714 167.882C285.495 167.355 285.437 166.776 285.547 166.217C285.658 165.658 285.932 165.144 286.335 164.741C286.738 164.338 287.251 164.063 287.81 163.953C288.369 163.842 288.948 163.9 289.474 164.119C290 164.338 290.449 164.709 290.764 165.184C291.08 165.659 291.247 166.216 291.244 166.786C291.244 167.547 290.943 168.276 290.405 168.813C289.868 169.351 289.139 169.653 288.38 169.653ZM288.38 164.59C287.945 164.59 287.521 164.719 287.16 164.96C286.799 165.201 286.517 165.544 286.351 165.946C286.185 166.347 286.142 166.789 286.226 167.215C286.311 167.641 286.52 168.032 286.827 168.34C287.134 168.647 287.525 168.856 287.951 168.941C288.377 169.026 288.818 168.982 289.22 168.816C289.621 168.65 289.964 168.368 290.205 168.007C290.446 167.646 290.575 167.221 290.575 166.786C290.575 166.204 290.344 165.645 289.932 165.233C289.52 164.821 288.962 164.59 288.38 164.59Z" fill="white"/>
<path d="M273.439 166.786C273.439 167.289 273.588 167.78 273.868 168.197C274.147 168.614 274.543 168.94 275.007 169.131C275.471 169.323 275.982 169.373 276.474 169.274C276.966 169.175 277.418 168.932 277.772 168.576C278.126 168.22 278.367 167.767 278.463 167.275C278.56 166.782 278.508 166.271 278.315 165.808C278.121 165.344 277.794 164.949 277.376 164.672C276.957 164.394 276.466 164.247 275.964 164.249C275.632 164.249 275.302 164.315 274.995 164.443C274.688 164.57 274.41 164.757 274.175 164.993C273.94 165.229 273.755 165.509 273.629 165.816C273.502 166.124 273.438 166.454 273.439 166.786Z" fill="white"/>
<path d="M275.965 169.653C275.395 169.653 274.839 169.484 274.366 169.167C273.893 168.851 273.524 168.401 273.307 167.874C273.089 167.348 273.033 166.769 273.145 166.21C273.257 165.652 273.532 165.139 273.935 164.737C274.338 164.335 274.852 164.062 275.41 163.952C275.969 163.842 276.548 163.901 277.073 164.12C277.598 164.34 278.047 164.71 278.361 165.185C278.676 165.659 278.843 166.217 278.841 166.786C278.841 167.164 278.766 167.537 278.621 167.886C278.477 168.234 278.265 168.551 277.998 168.817C277.73 169.084 277.413 169.295 277.064 169.438C276.716 169.581 276.342 169.654 275.965 169.653ZM275.965 164.59C275.531 164.59 275.106 164.719 274.745 164.96C274.384 165.201 274.103 165.544 273.936 165.946C273.77 166.347 273.727 166.789 273.812 167.215C273.896 167.641 274.105 168.032 274.412 168.34C274.719 168.647 275.111 168.856 275.536 168.941C275.962 169.026 276.404 168.982 276.805 168.816C277.206 168.65 277.549 168.368 277.79 168.007C278.031 167.646 278.16 167.221 278.16 166.786C278.16 166.204 277.929 165.645 277.517 165.233C277.105 164.821 276.547 164.59 275.965 164.59Z" fill="white"/>
<path d="M261.024 166.787C261.024 167.288 261.173 167.779 261.452 168.196C261.73 168.613 262.126 168.938 262.59 169.13C263.053 169.322 263.563 169.373 264.055 169.275C264.547 169.177 264.998 168.935 265.353 168.581C265.708 168.226 265.949 167.774 266.047 167.281C266.145 166.789 266.095 166.279 265.903 165.816C265.711 165.352 265.386 164.956 264.969 164.677C264.552 164.398 264.062 164.25 263.56 164.25C262.888 164.25 262.243 164.517 261.767 164.993C261.292 165.468 261.024 166.114 261.024 166.787Z" fill="white"/>
<path d="M263.561 169.653C262.992 169.653 262.435 169.484 261.962 169.167C261.489 168.851 261.12 168.401 260.903 167.874C260.686 167.348 260.629 166.769 260.741 166.21C260.853 165.652 261.128 165.139 261.531 164.737C261.935 164.335 262.448 164.062 263.007 163.952C263.565 163.842 264.144 163.901 264.669 164.12C265.194 164.34 265.643 164.71 265.957 165.185C266.272 165.659 266.439 166.217 266.437 166.786C266.437 167.164 266.362 167.537 266.218 167.886C266.073 168.234 265.861 168.551 265.594 168.817C265.327 169.084 265.01 169.295 264.661 169.438C264.312 169.581 263.938 169.654 263.561 169.653ZM263.561 164.59C263.127 164.59 262.702 164.719 262.341 164.96C261.98 165.201 261.699 165.544 261.533 165.946C261.367 166.347 261.323 166.789 261.408 167.215C261.492 167.641 261.702 168.032 262.009 168.34C262.316 168.647 262.707 168.856 263.133 168.941C263.558 169.026 264 168.982 264.401 168.816C264.802 168.65 265.145 168.368 265.386 168.007C265.628 167.646 265.756 167.221 265.756 166.786C265.756 166.204 265.525 165.645 265.113 165.233C264.702 164.821 264.143 164.59 263.561 164.59Z" fill="white"/>
<path d="M320.475 158.923L305.788 160.405V163.601L299.663 164.843L302.045 178.494L324.668 175.188L320.475 158.923Z" fill="white"/>
<path d="M302.045 178.824C301.965 178.827 301.888 178.801 301.827 178.75C301.766 178.699 301.726 178.628 301.715 178.549L299.344 164.897C299.328 164.813 299.345 164.726 299.392 164.654C299.44 164.582 299.513 164.532 299.597 164.513L305.447 163.327V160.405C305.447 160.322 305.479 160.241 305.536 160.18C305.593 160.119 305.671 160.082 305.755 160.076L320.442 158.593C320.52 158.58 320.6 158.598 320.666 158.643C320.731 158.688 320.777 158.757 320.793 158.835L324.986 175.112C325.005 175.153 325.014 175.198 325.014 175.243C325.014 175.289 325.005 175.334 324.986 175.375C324.959 175.413 324.925 175.445 324.885 175.47C324.845 175.494 324.801 175.511 324.755 175.518L302.132 178.813L302.045 178.824ZM300.047 165.106L302.319 178.11L324.272 174.914L320.222 159.252L306.117 160.669V163.645C306.117 163.722 306.09 163.796 306.042 163.856C305.995 163.916 305.928 163.958 305.854 163.975L300.047 165.106Z" fill="#26225B"/>
<path d="M328.971 175.727C328.887 175.727 328.806 175.695 328.745 175.638C328.684 175.581 328.647 175.503 328.641 175.419C328.637 175.375 328.641 175.33 328.654 175.288C328.668 175.246 328.689 175.206 328.718 175.172C328.747 175.139 328.782 175.111 328.821 175.091C328.861 175.071 328.904 175.059 328.949 175.057L329.805 174.991C335.172 174.574 341.879 174.046 360.485 170.675C360.531 170.657 360.581 170.65 360.631 170.654C360.681 170.657 360.729 170.672 360.772 170.697C360.816 170.721 360.853 170.755 360.882 170.796C360.911 170.836 360.931 170.883 360.94 170.932C360.949 170.981 360.947 171.031 360.934 171.079C360.921 171.128 360.898 171.172 360.866 171.211C360.835 171.249 360.795 171.28 360.75 171.301C360.704 171.322 360.655 171.333 360.605 171.334C341.945 174.705 335.238 175.232 329.871 175.65L329.015 175.727H328.971Z" fill="white"/>
<path d="M323.142 154.046C323.06 154.042 322.983 154.009 322.924 153.952C322.866 153.896 322.829 153.82 322.821 153.739C322.813 153.658 322.834 153.577 322.881 153.511C322.928 153.444 322.997 153.396 323.076 153.376C323.339 153.376 349.782 148.434 355.578 147.325C356.054 147.241 356.506 147.055 356.904 146.78C357.302 146.505 357.636 146.148 357.883 145.732C360.012 142.327 358.058 134.925 358.036 134.848C358.025 134.806 358.021 134.762 358.027 134.719C358.032 134.676 358.046 134.635 358.067 134.597C358.089 134.559 358.117 134.526 358.152 134.499C358.186 134.473 358.225 134.453 358.267 134.442C358.353 134.421 358.443 134.433 358.521 134.475C358.598 134.518 358.656 134.588 358.684 134.672C358.761 134.991 360.726 142.437 358.443 146.084C358.151 146.578 357.755 147.002 357.283 147.328C356.811 147.655 356.274 147.874 355.709 147.973C349.903 149.071 323.471 153.991 323.196 154.035L323.142 154.046Z" fill="white"/>
<path d="M300.399 168.687C300.321 168.688 300.246 168.663 300.186 168.614C300.126 168.566 300.085 168.498 300.069 168.423C300.053 168.336 300.071 168.246 300.121 168.172C300.17 168.098 300.246 168.046 300.333 168.028L307.347 166.644C307.434 166.627 307.524 166.646 307.598 166.695C307.672 166.744 307.723 166.82 307.742 166.907C307.758 166.995 307.74 167.085 307.691 167.159C307.641 167.232 307.565 167.284 307.479 167.303L300.464 168.687H300.399Z" fill="#26225B"/>
<path d="M301.265 172.157C301.178 172.166 301.091 172.14 301.023 172.084C300.955 172.028 300.912 171.948 300.903 171.861C300.894 171.773 300.921 171.686 300.976 171.618C301.032 171.55 301.112 171.507 301.199 171.498L308.213 170.114C308.3 170.101 308.389 170.12 308.462 170.169C308.535 170.218 308.588 170.292 308.609 170.378C308.625 170.465 308.606 170.555 308.557 170.629C308.508 170.703 308.432 170.755 308.345 170.773L301.331 172.157H301.265Z" fill="#26225B"/>
<path d="M301.77 175.188C301.683 175.197 301.596 175.171 301.528 175.115C301.46 175.06 301.417 174.979 301.408 174.892C301.399 174.804 301.425 174.717 301.481 174.649C301.537 174.581 301.617 174.538 301.704 174.529L308.718 173.146C308.806 173.129 308.896 173.148 308.969 173.197C309.043 173.246 309.095 173.322 309.113 173.409C309.123 173.452 309.124 173.497 309.116 173.541C309.107 173.585 309.091 173.626 309.066 173.663C309.041 173.7 309.01 173.731 308.972 173.756C308.935 173.78 308.894 173.797 308.85 173.805L301.847 175.188H301.77Z" fill="#26225B"/>
<path d="M295.492 146C295.427 146.001 295.362 145.997 295.301 145.989C295.24 145.981 295.185 145.97 295.139 145.954C295.093 145.939 295.057 145.921 295.033 145.902C295.009 145.882 294.998 145.86 295 145.839V134.161C295 134.118 295.052 134.077 295.144 134.047C295.236 134.017 295.362 134 295.492 134C295.624 134 295.751 134.017 295.846 134.047C295.94 134.077 295.996 134.118 296 134.161V145.839C296 145.861 295.987 145.882 295.961 145.902C295.935 145.922 295.898 145.94 295.85 145.955C295.803 145.97 295.747 145.981 295.685 145.989C295.624 145.997 295.558 146.001 295.492 146Z" fill="white"/>
<path d="M294.164 258.527H220.62C220.542 258.512 220.471 258.471 220.42 258.41C220.369 258.349 220.341 258.271 220.341 258.192C220.341 258.112 220.369 258.035 220.42 257.974C220.471 257.912 220.542 257.871 220.62 257.857H294.164C294.242 257.871 294.313 257.912 294.364 257.974C294.415 258.035 294.443 258.112 294.443 258.192C294.443 258.271 294.415 258.349 294.364 258.41C294.313 258.471 294.242 258.512 294.164 258.527Z" fill="#26225B"/>
<path d="M304.756 13.3331C303.167 13.3084 301.59 13.5976 300.113 14.1841C298.637 14.7706 297.29 15.6428 296.151 16.7508C295.012 17.8588 294.103 19.1809 293.475 20.6411C292.848 22.1014 292.515 23.6712 292.495 25.2606C292.487 27.2333 292.99 29.1744 293.955 30.8948L295.393 33.0914C296.521 34.8376 297.269 36.8024 297.588 38.8574L298.159 42.5916H311.331L312.055 38.451C312.376 36.6639 313.024 34.9513 313.965 33.3989L315.502 30.8509C316.459 29.1422 316.968 27.2192 316.984 25.2606C316.964 23.674 316.631 22.1069 316.006 20.6488C315.381 19.1907 314.474 17.8702 313.339 16.7626C312.203 15.655 310.861 14.7821 309.388 14.1936C307.915 13.6052 306.341 13.3128 304.756 13.3331Z" fill="white"/>
<path d="M311.342 42.9101H298.17C298.09 42.9108 298.012 42.8822 297.951 42.8296C297.891 42.777 297.851 42.7041 297.841 42.6245L297.27 38.8903C296.967 36.8859 296.241 34.969 295.141 33.2671L293.703 31.0705C292.715 29.2898 292.197 27.2863 292.199 25.2495C292.251 21.9647 293.604 18.8347 295.96 16.5469C298.316 14.2591 301.484 13.0006 304.767 13.0475C308.08 13.0326 311.266 14.3227 313.636 16.6389C315.551 18.4548 316.806 20.8574 317.204 23.467C317.602 26.0765 317.119 28.7443 315.831 31.0485L314.295 33.5966C313.379 35.1176 312.747 36.7921 312.429 38.5389L311.726 42.6355C311.708 42.7208 311.658 42.7962 311.587 42.847C311.516 42.8977 311.429 42.9202 311.342 42.9101ZM298.423 42.2401H311.057L311.748 38.3741C312.07 36.5478 312.729 34.7974 313.691 33.2121L315.228 30.6641C316.436 28.4887 316.889 25.9738 316.515 23.5133C316.142 21.0528 314.963 18.7858 313.164 17.0673C310.913 14.8792 307.895 13.6609 304.756 13.6736C303.211 13.6474 301.677 13.9267 300.24 14.4954C298.804 15.0641 297.494 15.911 296.385 16.9876C295.277 18.0641 294.391 19.3491 293.78 20.7688C293.169 22.1885 292.844 23.7149 292.824 25.2605C292.823 27.1816 293.31 29.0715 294.24 30.752L295.667 32.9486C296.809 34.7326 297.557 36.7394 297.863 38.8354L298.423 42.2401Z" fill="#C42128"/>
<path d="M306.83 44.5576H302.637C302.556 44.5557 302.478 44.5247 302.418 44.4703C302.357 44.4159 302.319 44.3417 302.308 44.2611L300.113 25.5901C300.104 25.543 300.107 25.4946 300.12 25.4486C300.133 25.4025 300.156 25.36 300.188 25.3241C300.219 25.2882 300.258 25.2599 300.303 25.2413C300.347 25.2227 300.394 25.2143 300.442 25.2167H309.092C309.139 25.2143 309.187 25.2227 309.231 25.2413C309.275 25.2599 309.315 25.2882 309.346 25.3241C309.378 25.36 309.401 25.4025 309.414 25.4486C309.427 25.4946 309.429 25.543 309.421 25.5901L307.226 44.2611C307.22 44.307 307.206 44.3514 307.183 44.3915C307.16 44.4316 307.129 44.4666 307.092 44.4943C307.055 44.5221 307.013 44.542 306.968 44.5529C306.923 44.5638 306.876 44.5654 306.83 44.5576ZM302.945 43.9316H306.545L308.74 25.9196H300.749L302.945 43.9316Z" fill="#C42128"/>
<path d="M304.734 42.5806H298.137V48.5223H304.734H311.407V42.5806H304.734Z" fill="#C42128"/>
<path d="M311.726 48.8631H297.808V42.2733H311.726V48.8631ZM298.456 48.1931H311.068V42.9103H298.467L298.456 48.1931Z" fill="#C42128"/>
<path d="M304.767 9.25859C304.724 9.25859 304.681 9.25007 304.641 9.23351C304.601 9.21695 304.565 9.19268 304.534 9.16209C304.504 9.13149 304.48 9.09517 304.463 9.05519C304.447 9.01522 304.438 8.97237 304.438 8.9291V2.27346C304.452 2.19501 304.494 2.12406 304.555 2.07297C304.616 2.02188 304.693 1.9939 304.773 1.9939C304.853 1.9939 304.93 2.02188 304.991 2.07297C305.052 2.12406 305.093 2.19501 305.108 2.27346V8.9291C305.108 8.97331 305.099 9.01707 305.082 9.05778C305.064 9.09849 305.039 9.13531 305.007 9.16606C304.976 9.1968 304.938 9.22084 304.897 9.23673C304.855 9.25263 304.811 9.26007 304.767 9.25859Z" fill="#C42128"/>
<path d="M288.675 25.3266H282.089C282.011 25.3123 281.94 25.271 281.889 25.2097C281.838 25.1485 281.81 25.0713 281.81 24.9916C281.81 24.9119 281.838 24.8347 281.889 24.7734C281.94 24.7122 282.011 24.6709 282.089 24.6566H288.675C288.753 24.6709 288.824 24.7122 288.875 24.7734C288.926 24.8347 288.954 24.9119 288.954 24.9916C288.954 25.0713 288.926 25.1485 288.875 25.2097C288.824 25.271 288.753 25.3123 288.675 25.3266Z" fill="#C42128"/>
<path d="M327.467 25.3264H320.881C320.832 25.3354 320.781 25.3334 320.733 25.3207C320.685 25.308 320.64 25.2848 320.602 25.2529C320.563 25.2209 320.533 25.1809 320.512 25.1358C320.49 25.0906 320.479 25.0413 320.479 24.9915C320.479 24.9416 320.49 24.8923 320.512 24.8472C320.533 24.802 320.563 24.762 320.602 24.7301C320.64 24.6981 320.685 24.675 320.733 24.6623C320.781 24.6495 320.832 24.6476 320.881 24.6565H327.467C327.516 24.6476 327.566 24.6495 327.614 24.6623C327.662 24.675 327.707 24.6981 327.746 24.7301C327.784 24.762 327.815 24.802 327.836 24.8472C327.857 24.8923 327.868 24.9416 327.868 24.9915C327.868 25.0413 327.857 25.0906 327.836 25.1358C327.815 25.1809 327.784 25.2209 327.746 25.2529C327.707 25.2848 327.662 25.308 327.614 25.3207C327.566 25.3334 327.516 25.3354 327.467 25.3264Z" fill="#C42128"/>
<path d="M288.675 41.3836C288.631 41.3839 288.586 41.3753 288.545 41.3583C288.503 41.3413 288.466 41.3164 288.434 41.2848C288.375 41.2201 288.343 41.136 288.343 41.0487C288.343 40.9614 288.375 40.8772 288.434 40.8125L293.143 36.1118C293.174 36.0808 293.211 36.0562 293.251 36.0395C293.292 36.0227 293.335 36.014 293.379 36.014C293.423 36.014 293.466 36.0227 293.507 36.0395C293.547 36.0562 293.584 36.0808 293.615 36.1118C293.646 36.1429 293.67 36.1797 293.687 36.2202C293.704 36.2607 293.713 36.3041 293.713 36.348C293.713 36.3918 293.704 36.4353 293.687 36.4758C293.67 36.5163 293.646 36.5531 293.615 36.5841L288.906 41.2848C288.876 41.316 288.84 41.3409 288.801 41.3579C288.761 41.3749 288.718 41.3836 288.675 41.3836Z" fill="#C42128"/>
<path d="M316.118 13.9702C316.031 13.969 315.948 13.9335 315.887 13.8714C315.856 13.8407 315.831 13.804 315.814 13.7634C315.796 13.7229 315.788 13.6793 315.788 13.6353C315.788 13.5912 315.796 13.5477 315.814 13.5071C315.831 13.4665 315.856 13.4298 315.887 13.3991L320.585 8.68746C320.65 8.6288 320.734 8.59631 320.821 8.59631C320.908 8.59631 320.993 8.6288 321.057 8.68746C321.089 8.71816 321.114 8.75488 321.131 8.79543C321.148 8.83599 321.157 8.87957 321.157 8.92359C321.157 8.96761 321.148 9.01119 321.131 9.05175C321.114 9.09231 321.089 9.12902 321.057 9.15972L316.359 13.8714C316.327 13.903 316.29 13.9279 316.248 13.9449C316.207 13.9619 316.163 13.9705 316.118 13.9702Z" fill="#C42128"/>
<path d="M293.418 13.9701C293.375 13.9701 293.332 13.9613 293.292 13.9443C293.253 13.9273 293.217 13.9025 293.187 13.8712L288.478 9.15955C288.447 9.12854 288.423 9.09173 288.406 9.05121C288.389 9.0107 288.38 8.96727 288.38 8.92342C288.38 8.83485 288.416 8.74991 288.478 8.68729C288.541 8.62466 288.626 8.58948 288.714 8.58948C288.803 8.58948 288.888 8.62466 288.95 8.68729L293.659 13.399C293.691 13.4297 293.716 13.4664 293.733 13.5069C293.75 13.5475 293.759 13.5911 293.759 13.6351C293.759 13.6791 293.75 13.7227 293.733 13.7632C293.716 13.8038 293.691 13.8405 293.659 13.8712C293.627 13.9028 293.59 13.9278 293.548 13.9447C293.507 13.9617 293.462 13.9703 293.418 13.9701Z" fill="#C42128"/>
<path d="M320.826 41.3836C320.782 41.3839 320.737 41.3753 320.696 41.3583C320.654 41.3413 320.617 41.3164 320.585 41.2848L315.887 36.5841C315.856 36.5531 315.831 36.5163 315.814 36.4758C315.798 36.4353 315.789 36.3918 315.789 36.348C315.789 36.3041 315.798 36.2607 315.814 36.2202C315.831 36.1797 315.856 36.1429 315.887 36.1118C315.918 36.0808 315.955 36.0562 315.995 36.0395C316.036 36.0227 316.079 36.014 316.123 36.014C316.167 36.014 316.21 36.0227 316.251 36.0395C316.291 36.0562 316.328 36.0808 316.359 36.1118L321.057 40.8125C321.088 40.8432 321.113 40.88 321.131 40.9205C321.148 40.9611 321.156 41.0046 321.156 41.0487C321.156 41.0927 321.148 41.1363 321.131 41.1768C321.113 41.2174 321.088 41.2541 321.057 41.2848C320.996 41.3469 320.913 41.3824 320.826 41.3836Z" fill="#C42128"/>
<path d="M233.66 88.9616C232.535 88.9709 231.41 88.9196 230.29 88.8079C230.247 88.8037 230.205 88.7911 230.167 88.7706C230.128 88.7501 230.094 88.7222 230.067 88.6885C230.039 88.6548 230.019 88.616 230.006 88.5742C229.994 88.5325 229.99 88.4887 229.994 88.4454C229.997 88.4015 230.008 88.3586 230.028 88.3194C230.048 88.2802 230.076 88.2456 230.11 88.2178C230.144 88.1899 230.184 88.1694 230.226 88.1575C230.268 88.1457 230.313 88.1427 230.356 88.1489C231.454 88.2477 232.552 88.3026 233.649 88.3026C234.808 88.3214 235.967 88.2627 237.118 88.1269C237.204 88.1232 237.289 88.1513 237.356 88.206C237.422 88.2607 237.467 88.3381 237.48 88.4235C237.485 88.4668 237.481 88.5105 237.468 88.5523C237.456 88.594 237.435 88.6328 237.408 88.6665C237.38 88.7002 237.346 88.7281 237.308 88.7486C237.269 88.7691 237.227 88.7818 237.184 88.7859C236.013 88.9051 234.837 88.9637 233.66 88.9616ZM226.954 88.3246H226.888C224.634 87.8856 222.428 87.2272 220.302 86.3587C220.219 86.3245 220.153 86.2594 220.119 86.1772C220.084 86.095 220.082 86.0024 220.115 85.9194C220.151 85.8386 220.217 85.7746 220.298 85.74C220.379 85.7054 220.471 85.7027 220.554 85.7326C222.639 86.5951 224.805 87.2464 227.019 87.6766C227.062 87.6845 227.102 87.7008 227.139 87.7244C227.175 87.748 227.206 87.7785 227.231 87.8142C227.255 87.8499 227.272 87.8901 227.281 87.9324C227.29 87.9748 227.291 88.0185 227.283 88.061C227.261 88.1315 227.218 88.1932 227.158 88.2367C227.099 88.2803 227.027 88.3034 226.954 88.3026V88.3246ZM240.51 88.3246C240.432 88.3236 240.356 88.2957 240.296 88.2457C240.236 88.1957 240.196 88.1266 240.18 88.05C240.172 88.0075 240.173 87.9638 240.182 87.9214C240.191 87.8791 240.208 87.8389 240.233 87.8032C240.257 87.7675 240.288 87.737 240.325 87.7134C240.361 87.6898 240.401 87.6736 240.444 87.6656C242.654 87.2174 244.816 86.5553 246.898 85.6887C246.98 85.6581 247.07 85.6591 247.152 85.6916C247.233 85.7241 247.299 85.7857 247.337 85.8644C247.37 85.9475 247.369 86.0401 247.334 86.1223C247.299 86.2045 247.233 86.2696 247.151 86.3038C245.028 87.1921 242.821 87.8654 240.565 88.3136L240.51 88.3246ZM217.327 84.8979C217.277 84.9139 217.223 84.9139 217.173 84.8979C215.145 83.8196 213.226 82.5469 211.443 81.0979C211.389 81.0382 211.357 80.961 211.354 80.8801C211.351 80.7991 211.377 80.7198 211.427 80.6563C211.478 80.5928 211.549 80.5493 211.628 80.5336C211.708 80.518 211.79 80.5311 211.861 80.5707C213.608 81.9986 215.49 83.2529 217.481 84.3158C217.52 84.3356 217.555 84.363 217.584 84.3965C217.612 84.43 217.634 84.4689 217.647 84.5108C217.66 84.5528 217.665 84.597 217.661 84.6409C217.657 84.6847 217.644 84.7273 217.623 84.7662C217.588 84.8103 217.543 84.8454 217.491 84.8683C217.44 84.8913 217.383 84.9014 217.327 84.8979ZM250.092 84.8101C250.032 84.8087 249.973 84.7918 249.921 84.7611C249.869 84.7303 249.826 84.6866 249.796 84.6344C249.775 84.5955 249.762 84.553 249.758 84.5091C249.754 84.4653 249.759 84.421 249.772 84.3791C249.786 84.3371 249.807 84.2982 249.836 84.2647C249.864 84.2312 249.899 84.2038 249.939 84.1841C251.924 83.1159 253.799 81.8541 255.537 80.4169C255.567 80.3854 255.604 80.3603 255.645 80.3432C255.685 80.326 255.729 80.3172 255.773 80.3172C255.817 80.3172 255.86 80.326 255.901 80.3432C255.941 80.3603 255.978 80.3854 256.009 80.4169C256.07 80.4804 256.104 80.565 256.104 80.653C256.104 80.7411 256.07 80.8257 256.009 80.8892C254.222 82.3656 252.296 83.6641 250.257 84.7662C250.212 84.7971 250.158 84.8125 250.103 84.8101H250.092ZM209.116 78.8464C209.073 78.8464 209.031 78.8376 208.991 78.8206C208.951 78.8036 208.916 78.7787 208.886 78.7475C207.252 77.128 205.781 75.3512 204.495 73.4428C204.469 73.4074 204.45 73.3669 204.44 73.3238C204.43 73.2808 204.429 73.2362 204.438 73.1928C204.446 73.1494 204.463 73.1082 204.488 73.0719C204.513 73.0355 204.546 73.0047 204.583 72.9815C204.619 72.9566 204.66 72.9392 204.702 72.9301C204.745 72.9211 204.789 72.9207 204.832 72.9288C204.875 72.937 204.916 72.9536 204.952 72.9778C204.989 73.0019 205.02 73.033 205.044 73.0694C206.31 74.9374 207.751 76.6805 209.347 78.2752C209.396 78.3207 209.43 78.3799 209.445 78.4451C209.459 78.5103 209.453 78.5784 209.428 78.6403C209.403 78.7023 209.36 78.7551 209.305 78.7919C209.249 78.8287 209.183 78.8477 209.116 78.8464ZM258.27 78.7146C258.227 78.7146 258.184 78.7058 258.145 78.6888C258.105 78.6718 258.069 78.647 258.039 78.6157C258.008 78.585 257.983 78.5483 257.966 78.5077C257.949 78.4672 257.94 78.4236 257.94 78.3796C257.94 78.3356 257.949 78.292 257.966 78.2514C257.983 78.2109 258.008 78.1742 258.039 78.1435C259.636 76.5482 261.074 74.8009 262.331 72.9266C262.355 72.8898 262.386 72.8581 262.422 72.8332C262.458 72.8083 262.499 72.7908 262.541 72.7816C262.584 72.7724 262.628 72.7718 262.671 72.7797C262.715 72.7876 262.756 72.8039 262.792 72.8277C262.829 72.8515 262.861 72.8823 262.886 72.9184C262.911 72.9545 262.928 72.9951 262.937 73.0379C262.946 73.0807 262.947 73.125 262.939 73.168C262.931 73.2111 262.915 73.2522 262.891 73.289C261.603 75.2026 260.133 76.9866 258.5 78.6157C258.442 78.6743 258.364 78.7095 258.281 78.7146H258.27ZM203.057 70.6751C202.997 70.6737 202.938 70.6568 202.886 70.6261C202.834 70.5953 202.791 70.5516 202.761 70.4994C201.669 68.4759 200.779 66.3496 200.105 64.1512C200.092 64.1094 200.087 64.0654 200.091 64.0218C200.095 63.9782 200.108 63.9358 200.128 63.8971C200.148 63.8583 200.176 63.824 200.21 63.796C200.243 63.768 200.282 63.7469 200.324 63.7339C200.366 63.7209 200.41 63.7163 200.453 63.7203C200.497 63.7243 200.539 63.7369 200.578 63.7573C200.617 63.7777 200.651 63.8055 200.679 63.8392C200.707 63.8729 200.728 63.9117 200.741 63.9535C201.401 66.1117 202.276 68.198 203.354 70.1808C203.374 70.2197 203.387 70.2622 203.391 70.3061C203.395 70.3499 203.391 70.3942 203.377 70.4361C203.364 70.4781 203.342 70.517 203.314 70.5505C203.285 70.584 203.25 70.6114 203.211 70.6311C203.166 70.6621 203.112 70.6775 203.057 70.6751ZM264.395 70.5103H264.241C264.203 70.4896 264.169 70.4615 264.141 70.4276C264.114 70.3937 264.094 70.3546 264.081 70.3127C264.069 70.2709 264.065 70.2269 264.07 70.1836C264.075 70.1402 264.088 70.0982 264.11 70.06C265.165 68.0672 266.029 65.9783 266.689 63.8217C266.699 63.779 266.718 63.7389 266.744 63.7038C266.77 63.6686 266.804 63.6393 266.842 63.6177C266.88 63.596 266.922 63.5825 266.966 63.5779C267.009 63.5733 267.053 63.5778 267.095 63.5911C267.181 63.6166 267.253 63.6746 267.296 63.7527C267.339 63.8307 267.35 63.9225 267.326 64.0084C266.659 66.2097 265.776 68.3397 264.691 70.3676C264.655 70.4226 264.604 70.4657 264.543 70.4911C264.482 70.5166 264.416 70.5233 264.351 70.5103H264.395ZM199.578 61.087C199.5 61.086 199.424 61.0581 199.364 61.0081C199.304 60.9581 199.264 60.889 199.248 60.8124C198.794 58.5597 198.559 56.2682 198.546 53.9701C198.546 53.8827 198.581 53.7989 198.642 53.7371C198.704 53.6753 198.788 53.6406 198.875 53.6406C198.963 53.6406 199.046 53.6753 199.108 53.7371C199.17 53.7989 199.205 53.8827 199.205 53.9701C199.214 56.2242 199.446 58.4719 199.896 60.6806C199.912 60.7679 199.894 60.8581 199.845 60.9319C199.795 61.0058 199.719 61.0575 199.633 61.076L199.578 61.087ZM267.82 60.9003H267.754C267.667 60.8818 267.591 60.83 267.542 60.7562C267.493 60.6823 267.474 60.5922 267.49 60.5049C267.93 58.2915 268.151 56.0401 268.149 53.7834C268.145 52.5358 268.076 51.2894 267.94 50.0492C267.934 49.9623 267.961 49.8763 268.016 49.8089C268.072 49.7415 268.15 49.6978 268.237 49.6867C268.281 49.6806 268.326 49.6835 268.369 49.6953C268.412 49.707 268.452 49.7274 268.487 49.7551C268.522 49.7828 268.551 49.8173 268.572 49.8565C268.593 49.8958 268.606 49.9389 268.61 49.9833C268.742 51.2457 268.808 52.5141 268.808 53.7834C268.809 56.0837 268.589 58.3788 268.149 60.6367C268.132 60.7113 268.09 60.7779 268.03 60.8257C267.97 60.8735 267.896 60.8998 267.82 60.9003ZM199.018 50.8949C198.969 50.8986 198.92 50.8913 198.874 50.8735C198.828 50.8558 198.787 50.8279 198.753 50.7921C198.719 50.7563 198.694 50.7134 198.679 50.6666C198.664 50.6198 198.66 50.5702 198.667 50.5214C198.875 48.2328 199.309 45.9704 199.962 43.767C199.987 43.6815 200.045 43.6095 200.123 43.5664C200.201 43.5232 200.293 43.5124 200.379 43.5363C200.421 43.5488 200.46 43.5696 200.494 43.5975C200.528 43.6254 200.556 43.6598 200.577 43.6987C200.597 43.7376 200.61 43.7802 200.613 43.824C200.617 43.8678 200.612 43.9119 200.599 43.9537C199.963 46.104 199.536 48.3109 199.325 50.5434C199.328 50.5894 199.322 50.6356 199.306 50.6789C199.29 50.7222 199.265 50.7617 199.233 50.7948C199.201 50.828 199.162 50.854 199.12 50.8712C199.077 50.8884 199.031 50.8965 198.985 50.8949H199.018ZM267.743 46.974C267.667 46.9751 267.593 46.9492 267.535 46.9009C267.477 46.8526 267.438 46.785 267.425 46.7104C266.963 44.5029 266.283 42.3469 265.394 40.2744C265.36 40.1927 265.36 40.1012 265.393 40.0192C265.426 39.9373 265.489 39.8712 265.569 39.8351C265.61 39.8171 265.653 39.8073 265.697 39.8064C265.741 39.8056 265.785 39.8135 265.826 39.8299C265.867 39.8463 265.904 39.8708 265.936 39.9019C265.967 39.9329 265.992 39.97 266.009 40.0108C266.911 42.1341 267.603 44.3414 268.072 46.6005C268.088 46.6878 268.07 46.778 268.021 46.8518C267.972 46.9257 267.895 46.9774 267.809 46.9959L267.743 46.974ZM201.433 40.9773C201.39 40.988 201.344 40.988 201.301 40.9773C201.261 40.9617 201.224 40.938 201.193 40.9077C201.162 40.8774 201.137 40.8411 201.121 40.801C201.105 40.7609 201.096 40.7179 201.097 40.6745C201.098 40.6312 201.108 40.5885 201.125 40.549C201.994 38.4178 203.067 36.3764 204.331 34.4534C204.385 34.3933 204.46 34.3547 204.541 34.3448C204.622 34.3349 204.703 34.3543 204.771 34.3995C204.839 34.4447 204.888 34.5126 204.91 34.591C204.932 34.6694 204.925 34.7531 204.89 34.8269C203.645 36.7092 202.59 38.7106 201.74 40.8016C201.708 40.8616 201.658 40.9105 201.597 40.9419C201.536 40.9732 201.468 40.9856 201.4 40.9773H201.433ZM264.219 37.4079C264.159 37.4088 264.099 37.3929 264.046 37.3619C263.994 37.3308 263.951 37.2859 263.923 37.2321C262.845 35.2567 261.577 33.3917 260.136 31.6638C260.096 31.5942 260.082 31.5129 260.097 31.434C260.111 31.3552 260.152 31.2839 260.214 31.2327C260.276 31.1816 260.353 31.1538 260.433 31.1543C260.514 31.1548 260.591 31.1835 260.652 31.2355C262.126 32.9965 263.424 34.8984 264.527 36.9136C264.548 36.9518 264.561 36.9938 264.566 37.0371C264.571 37.0805 264.567 37.1244 264.555 37.1663C264.543 37.2082 264.522 37.2473 264.495 37.2812C264.467 37.3151 264.433 37.3432 264.395 37.3639C264.365 37.3848 264.331 37.3994 264.295 37.407C264.259 37.4145 264.222 37.4148 264.186 37.4079H264.219ZM206.625 32.202C206.548 32.2013 206.475 32.1741 206.416 32.1251C206.385 32.0944 206.36 32.0577 206.342 32.0171C206.325 31.9765 206.317 31.933 206.317 31.8889C206.317 31.8449 206.325 31.8013 206.342 31.7608C206.36 31.7202 206.385 31.6835 206.416 31.6528C207.862 29.8659 209.48 28.2252 211.246 26.7544C211.311 26.6958 211.395 26.6633 211.482 26.6633C211.569 26.6633 211.653 26.6958 211.718 26.7544C211.779 26.8179 211.813 26.9025 211.813 26.9906C211.813 27.0786 211.779 27.1633 211.718 27.2267C209.981 28.6681 208.392 30.2796 206.976 32.0372C206.938 32.1022 206.88 32.1533 206.811 32.183C206.742 32.2126 206.665 32.2193 206.592 32.202H206.625ZM258.061 29.2695C258.017 29.2697 257.972 29.2611 257.931 29.2442C257.889 29.2272 257.852 29.2022 257.82 29.1707C256.212 27.5942 254.455 26.1781 252.573 24.9422C252.499 24.891 252.448 24.8136 252.43 24.7258C252.412 24.638 252.427 24.5464 252.474 24.47C252.499 24.4337 252.53 24.4025 252.566 24.3784C252.603 24.3543 252.644 24.3376 252.686 24.3295C252.729 24.3213 252.773 24.3217 252.816 24.3308C252.859 24.3398 252.899 24.3573 252.935 24.3821C254.858 25.6411 256.653 27.0868 258.292 28.6984C258.323 28.7291 258.349 28.7658 258.366 28.8064C258.383 28.8469 258.392 28.8905 258.392 28.9345C258.392 28.9786 258.383 29.0221 258.366 29.0627C258.349 29.1033 258.323 29.14 258.292 29.1707C258.258 29.2056 258.217 29.2326 258.171 29.2497C258.126 29.2668 258.077 29.2735 258.028 29.2695H258.061ZM214.155 25.2937C214.099 25.2933 214.045 25.2802 213.995 25.2554C213.946 25.2307 213.903 25.1949 213.869 25.1509C213.822 25.0775 213.805 24.9886 213.821 24.9027C213.837 24.8168 213.886 24.7405 213.957 24.6896C215.858 23.3913 217.884 22.2874 220.005 21.3948C220.045 21.3769 220.087 21.3673 220.131 21.3666C220.174 21.3658 220.217 21.3739 220.257 21.3904C220.297 21.4068 220.334 21.4313 220.364 21.4622C220.394 21.4932 220.418 21.5301 220.433 21.5705C220.451 21.6108 220.461 21.6543 220.462 21.6984C220.463 21.7425 220.455 21.7864 220.439 21.8274C220.422 21.8683 220.398 21.9056 220.367 21.9369C220.336 21.9683 220.299 21.9931 220.258 22.0098C218.17 22.8961 216.173 23.9849 214.297 25.2608C214.236 25.2738 214.172 25.2738 214.111 25.2608L214.155 25.2937ZM249.829 23.2619C249.779 23.2778 249.725 23.2778 249.675 23.2619C247.676 22.2204 245.58 21.3745 243.419 20.7358C243.333 20.7103 243.261 20.6523 243.218 20.5742C243.175 20.4962 243.164 20.4044 243.188 20.3184C243.201 20.2763 243.221 20.2371 243.249 20.2032C243.277 20.1692 243.311 20.1411 243.35 20.1207C243.389 20.1002 243.432 20.0877 243.476 20.084C243.519 20.0802 243.563 20.0852 243.605 20.0988C245.813 20.7413 247.949 21.6061 249.983 22.6798C250.06 22.7218 250.118 22.7922 250.145 22.8761C250.171 22.9601 250.164 23.0511 250.125 23.1301C250.086 23.1811 250.034 23.2204 249.974 23.2436C249.914 23.2669 249.848 23.2732 249.785 23.2619H249.829ZM223.287 20.8676C223.216 20.866 223.146 20.8418 223.089 20.7984C223.032 20.7551 222.99 20.6947 222.969 20.626C222.955 20.5842 222.95 20.5401 222.954 20.4963C222.958 20.4525 222.97 20.4099 222.991 20.371C223.011 20.3321 223.039 20.2977 223.073 20.2698C223.107 20.2419 223.146 20.2211 223.189 20.2086C225.384 19.5278 227.642 19.0643 229.928 18.8248C229.971 18.8202 230.015 18.8243 230.057 18.8368C230.099 18.8492 230.137 18.8699 230.171 18.8974C230.205 18.925 230.233 18.959 230.253 18.9974C230.274 19.0359 230.286 19.078 230.29 19.1213C230.297 19.1649 230.294 19.2092 230.282 19.2516C230.27 19.294 230.249 19.3334 230.222 19.3675C230.194 19.4015 230.159 19.4294 230.12 19.4495C230.081 19.4695 230.038 19.4811 229.994 19.4837C227.76 19.7239 225.554 20.18 223.408 20.8456L223.287 20.8676ZM240.147 19.9011C238.02 19.4962 235.859 19.2939 233.693 19.297H233.419C233.34 19.2828 233.269 19.2414 233.218 19.1802C233.167 19.119 233.139 19.0418 233.139 18.9621C233.139 18.8823 233.167 18.8051 233.218 18.7439C233.269 18.6827 233.34 18.6413 233.419 18.6271H233.693C235.903 18.627 238.108 18.8329 240.279 19.2421C240.366 19.2607 240.442 19.3124 240.491 19.3862C240.54 19.4601 240.559 19.5502 240.543 19.6375C240.535 19.6812 240.518 19.7228 240.494 19.76C240.47 19.7971 240.438 19.8289 240.401 19.8535C240.364 19.8781 240.323 19.895 240.279 19.9032C240.236 19.9114 240.191 19.9107 240.147 19.9011Z" fill="#26225B"/>
<path d="M232.069 93.1241C232.069 93.1241 233.298 117.956 208.14 130.038L232.069 93.1241Z" fill="white"/>
<path d="M208.14 130.367C208.077 130.368 208.016 130.351 207.963 130.318C207.911 130.285 207.869 130.237 207.843 130.18C207.805 130.1 207.8 130.008 207.828 129.924C207.857 129.84 207.918 129.77 207.997 129.73C209.636 128.952 211.227 128.075 212.761 127.105C212.836 127.069 212.922 127.061 213.002 127.084C213.082 127.107 213.151 127.159 213.196 127.229C213.241 127.3 213.258 127.384 213.245 127.467C213.231 127.549 213.188 127.624 213.123 127.676C211.56 128.651 209.944 129.538 208.282 130.334C208.238 130.356 208.189 130.368 208.14 130.367ZM215.757 125.798C215.685 125.802 215.614 125.781 215.555 125.741C215.495 125.7 215.451 125.64 215.428 125.572C215.406 125.503 215.406 125.429 215.43 125.361C215.454 125.292 215.5 125.234 215.56 125.194C217.372 123.852 219.068 122.361 220.631 120.735C220.661 120.703 220.697 120.678 220.738 120.66C220.778 120.642 220.821 120.633 220.865 120.632C220.909 120.631 220.952 120.638 220.993 120.654C221.034 120.67 221.071 120.694 221.103 120.724C221.135 120.754 221.16 120.791 221.178 120.831C221.196 120.871 221.205 120.914 221.206 120.958C221.207 121.002 221.2 121.045 221.184 121.086C221.168 121.127 221.144 121.165 221.114 121.196C219.519 122.845 217.794 124.362 215.955 125.732C215.897 125.774 215.828 125.797 215.757 125.798ZM223.123 118.736C223.048 118.735 222.976 118.712 222.914 118.67C222.883 118.64 222.858 118.603 222.84 118.562C222.823 118.522 222.814 118.478 222.814 118.434C222.814 118.39 222.823 118.347 222.84 118.306C222.858 118.265 222.883 118.229 222.914 118.198C224.33 116.438 225.593 114.56 226.69 112.586C226.712 112.548 226.74 112.515 226.775 112.489C226.809 112.463 226.848 112.443 226.89 112.432C226.932 112.421 226.976 112.418 227.018 112.424C227.061 112.429 227.103 112.443 227.14 112.465C227.179 112.486 227.212 112.514 227.24 112.548C227.267 112.582 227.288 112.621 227.3 112.663C227.312 112.704 227.316 112.748 227.311 112.792C227.306 112.835 227.293 112.877 227.272 112.915C226.16 114.924 224.875 116.831 223.43 118.615C223.395 118.662 223.347 118.697 223.293 118.719C223.239 118.74 223.18 118.746 223.123 118.736ZM228.457 110.038C228.414 110.048 228.369 110.048 228.326 110.038C228.286 110.02 228.25 109.994 228.22 109.963C228.19 109.931 228.167 109.893 228.151 109.853C228.136 109.812 228.129 109.768 228.131 109.724C228.132 109.681 228.143 109.638 228.161 109.598C229.062 107.53 229.796 105.392 230.356 103.206C230.368 103.164 230.387 103.125 230.414 103.091C230.441 103.057 230.474 103.028 230.511 103.007C230.549 102.985 230.591 102.971 230.634 102.966C230.677 102.961 230.721 102.964 230.762 102.976C230.847 102.999 230.92 103.054 230.965 103.13C231.01 103.206 231.024 103.296 231.004 103.382C230.416 105.604 229.649 107.775 228.71 109.873C228.683 109.918 228.647 109.956 228.603 109.985C228.559 110.013 228.509 110.031 228.457 110.038ZM231.476 100.263H231.41C231.368 100.255 231.327 100.239 231.291 100.215C231.254 100.192 231.223 100.161 231.199 100.125C231.174 100.09 231.157 100.049 231.148 100.007C231.139 99.9648 231.139 99.9211 231.147 99.8785C231.528 97.839 231.73 95.7699 231.75 93.6951C231.75 93.3437 231.75 93.157 231.75 93.146C231.747 93.1024 231.753 93.0586 231.768 93.0174C231.783 92.9761 231.806 92.9384 231.835 92.9064C231.865 92.8745 231.901 92.8491 231.942 92.8317C231.982 92.8143 232.025 92.8054 232.069 92.8055C232.155 92.8023 232.24 92.8324 232.305 92.8895C232.371 92.9467 232.412 93.0266 232.42 93.113V93.6951C232.4 95.81 232.198 97.9191 231.816 99.9993C231.799 100.076 231.755 100.144 231.693 100.192C231.631 100.24 231.554 100.265 231.476 100.263Z" fill="#26225B"/>
<path d="M250.543 45.6671V31.7628C250.541 31.6067 250.496 31.454 250.413 31.3217C250.331 31.1894 250.213 31.0827 250.073 31.0133C249.933 30.944 249.777 30.9147 249.621 30.9287C249.466 30.9427 249.318 30.9995 249.192 31.0928L223.913 46.3151H216.229C214.619 46.3419 213.077 46.9732 211.91 48.084C210.743 49.1947 210.036 50.7037 209.929 52.3118C209.892 53.163 210.027 54.0129 210.327 54.8103C210.627 55.6078 211.085 56.3363 211.674 56.9519C212.262 57.5676 212.969 58.0577 213.752 58.3927C214.535 58.7278 215.378 58.9009 216.229 58.9015H223.913L249.159 74.1129C249.283 74.2105 249.433 74.271 249.589 74.2873C249.746 74.3035 249.905 74.275 250.046 74.2048C250.187 74.1347 250.306 74.0258 250.388 73.891C250.47 73.7561 250.512 73.6008 250.51 73.4429V45.6671H250.543Z" fill="white"/>
<path d="M249.697 74.6837C249.444 74.683 249.198 74.6023 248.995 74.4531L223.847 59.3077H216.229C214.469 59.3077 212.782 58.6082 211.537 57.3631C210.293 56.118 209.594 54.4293 209.594 52.6685C209.594 50.9077 210.293 49.219 211.537 47.9739C212.782 46.7288 214.469 46.0293 216.229 46.0293H223.825L248.995 30.8619C249.17 30.737 249.377 30.6629 249.591 30.6475C249.806 30.6322 250.021 30.6762 250.213 30.7749C250.404 30.8735 250.565 31.0229 250.677 31.2068C250.79 31.3907 250.849 31.6019 250.85 31.8174V45.6669C250.85 45.7102 250.841 45.753 250.825 45.793C250.808 45.8329 250.784 45.8693 250.753 45.8999C250.723 45.9305 250.686 45.9547 250.646 45.9713C250.606 45.9878 250.564 45.9964 250.52 45.9964C250.477 45.9964 250.434 45.9878 250.394 45.9713C250.354 45.9547 250.318 45.9305 250.287 45.8999C250.257 45.8693 250.233 45.8329 250.216 45.793C250.199 45.753 250.191 45.7102 250.191 45.6669V31.7625C250.191 31.6667 250.164 31.5728 250.114 31.4913C250.063 31.4099 249.991 31.344 249.906 31.3012C249.82 31.2584 249.724 31.2409 249.629 31.2506C249.533 31.2603 249.443 31.2969 249.368 31.3562L224.121 46.5894C224.064 46.6054 224.003 46.6054 223.946 46.5894H216.262C214.732 46.6081 213.266 47.203 212.155 48.2554C211.044 49.3078 210.371 50.7404 210.269 52.2676C210.181 53.6305 210.569 54.9816 211.366 56.0897C211.922 56.8499 212.649 57.4686 213.488 57.896C214.327 58.3234 215.255 58.5473 216.196 58.5498H223.88C223.937 58.5334 223.998 58.5334 224.056 58.5498L249.302 73.7612C249.375 73.8279 249.466 73.8716 249.564 73.8871C249.661 73.9025 249.761 73.8889 249.851 73.848C249.941 73.807 250.017 73.7406 250.07 73.6568C250.122 73.573 250.149 73.4757 250.147 73.3768V59.5713C250.147 59.4839 250.182 59.4001 250.244 59.3383C250.305 59.2765 250.389 59.2418 250.476 59.2418C250.564 59.2418 250.647 59.2765 250.709 59.3383C250.771 59.4001 250.806 59.4839 250.806 59.5713V73.4756C250.818 73.7021 250.763 73.9271 250.647 74.1225C250.532 74.3178 250.362 74.4749 250.158 74.5739C250.014 74.6437 249.857 74.6811 249.697 74.6837Z" fill="#26225B"/>
<path d="M223.946 46.3038H217.941V58.9342H223.946V46.3038Z" fill="#26225B"/>
<path d="M224.275 59.3075H217.601V45.9742H224.275V59.3075ZM218.271 58.6485H223.605V46.6442H218.271V58.6485Z" fill="#26225B"/>
<path d="M254.22 52.6192C254.221 53.9904 253.887 55.3411 253.246 56.5531C252.605 57.7651 251.676 58.8014 250.542 59.5714V45.667C251.675 46.4383 252.602 47.4749 253.243 48.6866C253.884 49.8983 254.219 51.2483 254.22 52.6192Z" fill="white"/>
<path d="M250.542 59.9116C250.492 59.9275 250.439 59.9275 250.389 59.9116C250.334 59.8842 250.288 59.8417 250.257 59.7891C250.226 59.7365 250.211 59.6761 250.213 59.615V45.6667C250.214 45.6064 250.231 45.5474 250.262 45.4954C250.293 45.4435 250.336 45.4004 250.389 45.3702C250.44 45.3403 250.499 45.3246 250.559 45.3246C250.619 45.3246 250.677 45.3403 250.729 45.3702C251.897 46.1785 252.852 47.2584 253.512 48.5171C254.171 49.7757 254.516 51.1757 254.516 52.5969C254.516 54.0182 254.171 55.4181 253.512 56.6768C252.852 57.9355 251.897 59.0154 250.729 59.8237C250.679 59.8744 250.613 59.9056 250.542 59.9116ZM250.872 46.3367V58.9121C251.811 58.1556 252.569 57.198 253.089 56.1099C253.61 55.0218 253.88 53.8308 253.88 52.6244C253.88 51.418 253.61 50.227 253.089 49.1389C252.569 48.0508 251.811 47.0932 250.872 46.3367Z" fill="#26225B"/>
<path d="M216.229 58.9343H217.744L222.584 74.497C222.618 74.5618 222.635 74.6342 222.633 74.7072C222.63 74.7802 222.61 74.8515 222.572 74.9142C222.535 74.9769 222.482 75.0291 222.419 75.0656C222.356 75.1022 222.284 75.1219 222.211 75.1231H217.821C217.74 75.1228 217.662 75.1001 217.594 75.0574C217.526 75.0146 217.471 74.9537 217.436 74.8814L211.158 56.3423C211.739 57.1436 212.501 57.7962 213.383 58.2466C214.264 58.697 215.239 58.9327 216.229 58.9343Z" fill="white"/>
<path d="M222.234 75.4524H217.843C217.701 75.4548 217.56 75.4156 217.439 75.3395C217.319 75.2635 217.222 75.1538 217.163 75.0241L210.84 56.452C210.804 56.3753 210.799 56.2875 210.825 56.207C210.852 56.1264 210.909 56.0594 210.984 56.0197C211.059 55.9801 211.146 55.9709 211.228 55.9942C211.31 56.0174 211.379 56.0712 211.422 56.1444C211.979 56.9034 212.706 57.5212 213.545 57.9484C214.384 58.3757 215.311 58.6004 216.252 58.6046H217.767C217.837 58.6037 217.906 58.6257 217.964 58.6672C218.021 58.7088 218.064 58.7677 218.085 58.8353L222.926 74.398C222.981 74.5048 223.01 74.6235 223.01 74.744C223.01 74.8645 222.981 74.9832 222.926 75.09C222.854 75.2075 222.752 75.3033 222.63 75.3672C222.508 75.431 222.371 75.4605 222.234 75.4524ZM217.788 74.7715H222.234C222.246 74.7782 222.259 74.7818 222.272 74.7818C222.286 74.7818 222.299 74.7782 222.311 74.7715C222.319 74.7603 222.323 74.7468 222.323 74.733C222.323 74.7192 222.319 74.7058 222.311 74.6946L217.525 59.3185H216.23C214.662 59.316 213.146 58.7597 211.949 57.748L217.767 74.8264L217.788 74.7715Z" fill="#26225B"/>
</svg>
