<svg width="385" height="292" viewBox="0 0 385 292" fill="none" xmlns="http://www.w3.org/2000/svg">
<g clip-path="url(#clip0)">
<path d="M222.057 40.9295L222.203 41.1792L222.492 41.1771L240.768 41.0449L241.057 41.0428L241.2 40.7914L243.77 36.2555L258.795 44.8317L256.236 49.3572L256.094 49.6074L256.239 49.8556L265.496 65.698L265.642 65.9484L265.932 65.9457L271.119 65.8975L271.244 83.2645L266.056 83.3007L265.766 83.3027L265.624 83.5549L256.604 99.5295L256.463 99.7794L256.608 100.027L259.227 104.517L244.327 113.306L241.696 108.819L241.55 108.57L241.261 108.572L222.972 108.704L222.683 108.706L222.54 108.958L219.983 113.48L204.958 104.917L207.518 100.378L207.659 100.128L207.514 99.88L198.258 84.0508L198.112 83.8012L197.823 83.8032L192.634 83.8394L192.51 66.4833L197.699 66.435L197.988 66.4323L198.13 66.181L207.149 50.2196L207.29 49.97L207.146 49.7221L204.526 45.2192L219.427 36.4302L222.057 40.9295Z" fill="white" stroke="#26225B"/>
<path d="M220.171 114.586C220.106 114.598 220.039 114.598 219.974 114.586L204.094 105.462C204.048 105.435 204.008 105.398 203.976 105.355C203.944 105.312 203.922 105.263 203.909 105.21C203.871 105.113 203.871 105.004 203.909 104.906L206.543 100.146L197.523 84.7132H192.072C191.964 84.7132 191.86 84.67 191.783 84.5932C191.707 84.5163 191.664 84.412 191.664 84.3033L191.532 65.9483C191.53 65.8942 191.54 65.8402 191.56 65.7901C191.581 65.7399 191.612 65.6947 191.651 65.6574C191.687 65.6164 191.732 65.5834 191.782 65.5607C191.832 65.5379 191.886 65.5258 191.94 65.5251H197.392L206.174 49.9737L203.422 45.2527C203.4 45.2051 203.388 45.1532 203.388 45.1006C203.388 45.048 203.4 44.9961 203.422 44.9485C203.45 44.841 203.516 44.7471 203.607 44.6841L219.407 35.4272C219.504 35.3744 219.617 35.3614 219.723 35.391C219.828 35.4207 219.918 35.4906 219.974 35.5859L222.739 40.2937L240.541 40.1747L243.24 35.414C243.265 35.366 243.299 35.3235 243.341 35.2892C243.383 35.2549 243.431 35.2296 243.483 35.2147C243.535 35.1999 243.589 35.1958 243.642 35.2028C243.696 35.2098 243.747 35.2276 243.793 35.2553L259.686 44.327C259.734 44.3519 259.776 44.3863 259.811 44.4281C259.845 44.47 259.87 44.5184 259.885 44.5705C259.9 44.6225 259.904 44.677 259.897 44.7306C259.89 44.7843 259.872 44.8359 259.844 44.8824L257.211 49.6431L266.231 65.0623H271.682C271.79 65.0623 271.894 65.1055 271.97 65.1824C272.047 65.2593 272.09 65.3635 272.09 65.4722L272.222 83.8404C272.222 83.9492 272.179 84.0534 272.102 84.1303C272.026 84.2072 271.922 84.2504 271.813 84.2504H266.362L257.566 99.8018L260.332 104.523C260.36 104.57 260.379 104.621 260.387 104.676C260.395 104.73 260.392 104.785 260.378 104.838C260.365 104.891 260.341 104.941 260.308 104.984C260.275 105.028 260.234 105.064 260.187 105.091L244.386 114.348C244.339 114.371 244.287 114.382 244.234 114.382C244.182 114.382 244.13 114.371 244.083 114.348C244.031 114.336 243.982 114.313 243.939 114.281C243.896 114.25 243.86 114.209 243.833 114.163L241.068 109.442L223.265 109.574L220.566 114.335C220.542 114.381 220.508 114.421 220.467 114.453C220.426 114.485 220.379 114.508 220.329 114.52L220.171 114.586ZM204.831 104.946L220.026 113.608L222.66 109.006C222.696 108.943 222.748 108.89 222.81 108.853C222.872 108.816 222.943 108.796 223.015 108.794L241.305 108.662C241.376 108.661 241.446 108.679 241.509 108.713C241.571 108.748 241.623 108.799 241.66 108.86L244.294 113.436L259.397 104.549L256.763 99.9738C256.725 99.9124 256.704 99.8413 256.704 99.7688C256.704 99.6962 256.725 99.6251 256.763 99.5638L265.783 83.6024C265.819 83.5394 265.871 83.4869 265.933 83.4498C265.995 83.4128 266.066 83.3924 266.138 83.3908H271.405L271.247 65.8161H265.98C265.909 65.8121 265.839 65.7908 265.777 65.7539C265.715 65.7171 265.663 65.6658 265.625 65.6045L256.408 49.7356C256.372 49.6733 256.353 49.6026 256.353 49.5307C256.353 49.4587 256.372 49.388 256.408 49.3257L259.041 44.7105L243.728 36.1281L241.094 40.7433C241.062 40.807 241.013 40.8606 240.953 40.898C240.892 40.9354 240.823 40.9551 240.752 40.9549L222.462 41.0871C222.39 41.0855 222.319 41.0652 222.257 41.0281C222.195 40.9911 222.143 40.9385 222.107 40.8755L219.473 36.3132L204.41 45.1866L207.043 49.7621C207.082 49.8234 207.102 49.8945 207.102 49.9671C207.102 50.0396 207.082 50.1107 207.043 50.172L198.05 66.1202C198.011 66.1799 197.959 66.2292 197.897 66.2638C197.835 66.2983 197.765 66.3172 197.695 66.3186H192.428L192.559 83.8669H197.826C197.897 83.8683 197.967 83.8871 198.028 83.9217C198.09 83.9563 198.143 84.0056 198.182 84.0652L207.399 99.9341C207.431 99.9975 207.448 100.068 207.448 100.139C207.448 100.21 207.431 100.281 207.399 100.344L204.831 104.946Z" fill="#26225B"/>
<path d="M231.75 60.6826C234.546 60.6549 237.286 61.4607 239.626 62.9984C241.965 64.5361 243.798 66.7365 244.892 69.3214C245.986 71.9064 246.292 74.7593 245.771 77.519C245.25 80.2787 243.925 82.8208 241.965 84.8234C240.005 86.8261 237.497 88.1994 234.76 88.7698C232.022 89.3402 229.178 89.0821 226.587 88.0282C223.996 86.9743 221.773 85.1717 220.202 82.8484C218.631 80.5251 217.781 77.7856 217.761 74.9767C217.734 71.2186 219.192 67.6036 221.815 64.9241C224.437 62.2448 228.01 60.7197 231.75 60.6826Z" stroke="#26225B"/>
<mask id="path-4-inside-1" fill="white">
<path d="M231.877 89.9234C228.048 89.7131 224.444 88.0417 221.802 85.251C219.159 82.4604 217.678 78.7613 217.661 74.9103C217.645 71.0593 219.093 67.3474 221.711 64.5335C224.329 61.7197 227.919 60.0166 231.745 59.7726H231.851C235.819 59.7794 239.623 61.3582 242.439 64.166C245.254 66.9738 246.853 70.7839 246.888 74.7687C246.895 78.7582 245.333 82.589 242.541 85.4273C239.75 88.2656 235.955 89.8816 231.982 89.9234H231.877ZM231.745 60.5925C227.964 60.6065 224.343 62.1266 221.677 64.8191C219.011 67.5115 217.518 71.1564 217.525 74.9537C217.532 78.7509 219.039 82.3903 221.715 85.0729C224.391 87.7555 228.017 89.2621 231.798 89.2621C235.579 89.2621 239.206 87.7555 241.882 85.0729C244.558 82.3903 246.064 78.7509 246.071 74.9537C246.078 71.1564 244.585 67.5115 241.919 64.8191C239.253 62.1266 235.632 60.6065 231.851 60.5925H231.745Z"/>
</mask>
<path d="M231.877 89.9234C228.048 89.7131 224.444 88.0417 221.802 85.251C219.159 82.4604 217.678 78.7613 217.661 74.9103C217.645 71.0593 219.093 67.3474 221.711 64.5335C224.329 61.7197 227.919 60.0166 231.745 59.7726H231.851C235.819 59.7794 239.623 61.3582 242.439 64.166C245.254 66.9738 246.853 70.7839 246.888 74.7687C246.895 78.7582 245.333 82.589 242.541 85.4273C239.75 88.2656 235.955 89.8816 231.982 89.9234H231.877ZM231.745 60.5925C227.964 60.6065 224.343 62.1266 221.677 64.8191C219.011 67.5115 217.518 71.1564 217.525 74.9537C217.532 78.7509 219.039 82.3903 221.715 85.0729C224.391 87.7555 228.017 89.2621 231.798 89.2621C235.579 89.2621 239.206 87.7555 241.882 85.0729C244.558 82.3903 246.064 78.7509 246.071 74.9537C246.078 71.1564 244.585 67.5115 241.919 64.8191C239.253 62.1266 235.632 60.6065 231.851 60.5925H231.745Z" fill="#26225B"/>
<path d="M231.877 89.9234L231.822 90.9219L231.85 90.9234H231.877V89.9234ZM231.745 59.7726V58.7726H231.714L231.682 58.7746L231.745 59.7726ZM231.851 59.7726L231.852 58.7726H231.851V59.7726ZM246.888 74.7687L247.888 74.7669L247.888 74.7599L246.888 74.7687ZM231.982 89.9234V90.9235L231.993 90.9233L231.982 89.9234ZM231.745 60.5925V59.5925L231.742 59.5925L231.745 60.5925ZM231.851 60.5925L231.854 59.5925H231.851V60.5925ZM231.932 88.9249C228.359 88.7286 224.995 87.1689 222.528 84.5635L221.076 85.9386C223.893 88.9144 227.738 90.6975 231.822 90.9219L231.932 88.9249ZM222.528 84.5635C220.061 81.9579 218.677 78.5033 218.661 74.906L216.661 74.9147C216.679 79.0194 218.258 82.9629 221.076 85.9386L222.528 84.5635ZM218.661 74.906C218.646 71.3086 219.999 67.842 222.443 65.2147L220.979 63.8524C218.188 66.8528 216.643 70.81 216.661 74.9147L218.661 74.906ZM222.443 65.2147C224.888 62.5876 228.238 60.9983 231.809 60.7706L231.682 58.7746C227.599 59.035 223.771 60.8519 220.979 63.8524L222.443 65.2147ZM231.745 60.7726H231.851V58.7726H231.745V60.7726ZM231.849 60.7726C235.552 60.7789 239.104 62.2523 241.733 64.8741L243.145 63.4579C240.143 60.464 236.085 58.7799 231.852 58.7726L231.849 60.7726ZM241.733 64.8741C244.362 67.496 245.855 71.0546 245.888 74.7774L247.888 74.7599C247.851 70.5132 246.147 66.4517 243.145 63.4579L241.733 64.8741ZM245.888 74.7704C245.895 78.4976 244.435 82.0757 241.828 84.7261L243.254 86.1285C246.231 83.1023 247.895 79.0187 247.888 74.7669L245.888 74.7704ZM241.828 84.7261C239.222 87.3763 235.679 88.8844 231.972 88.9235L231.993 90.9233C236.23 90.8787 240.278 89.1549 243.254 86.1285L241.828 84.7261ZM231.982 88.9234H231.877V90.9234H231.982V88.9234ZM231.742 59.5925C227.694 59.6075 223.819 61.2346 220.967 64.1154L222.388 65.5227C224.868 63.0185 228.234 61.6055 231.749 61.5925L231.742 59.5925ZM220.967 64.1154C218.114 66.9961 216.517 70.8948 216.525 74.9555L218.525 74.9519C218.518 71.4181 219.908 68.027 222.388 65.5227L220.967 64.1154ZM216.525 74.9555C216.532 79.0163 218.144 82.909 221.007 85.7791L222.423 84.3666C219.934 81.8715 218.531 78.4856 218.525 74.9519L216.525 74.9555ZM221.007 85.7791C223.87 88.6493 227.751 90.2621 231.798 90.2621V88.2621C228.283 88.2621 224.911 86.8616 222.423 84.3666L221.007 85.7791ZM231.798 90.2621C235.845 90.2621 239.726 88.6493 242.59 85.7791L241.174 84.3666C238.685 86.8616 235.313 88.2621 231.798 88.2621V90.2621ZM242.59 85.7791C245.453 82.909 247.064 79.0163 247.071 74.9555L245.071 74.9519C245.065 78.4856 243.663 81.8715 241.174 84.3666L242.59 85.7791ZM247.071 74.9555C247.079 70.8948 245.482 66.9961 242.629 64.1154L241.208 65.5227C243.688 68.027 245.078 71.4181 245.071 74.9519L247.071 74.9555ZM242.629 64.1154C239.777 61.2346 235.902 59.6075 231.854 59.5925L231.847 61.5925C235.362 61.6055 238.729 63.0185 241.208 65.5227L242.629 64.1154ZM231.851 59.5925H231.745V61.5925H231.851V59.5925Z" fill="#26225B" mask="url(#path-4-inside-1)"/>
<path d="M11.2053 157.71C6.05688 166.53 -5.05635 175.007 2.89672 187.279C8.3875 195.742 19.4086 198.744 15.116 210.778C13.4174 215.539 10.1651 219.135 11.1658 224.504C12.0217 229.173 15.6559 232.862 18.8687 236.075C21.6207 238.839 26.0317 241.444 28.0858 244.817C31.4172 250.331 28.0068 254.483 26.4268 259.958C24.9125 265.182 24.6755 270.96 27.5592 275.827C31.3645 282.267 38.8172 282.928 43.7418 287.649C43.7418 287.649 66.3238 302.46 75.5673 275.1C77.753 268.633 80.9922 262.722 79.4253 255.383C78.2402 249.842 74.1584 245.769 69.5103 242.965C64.6384 240.029 59.3319 239.329 58.0415 232.994C57.2515 229.12 58.7262 224.2 58.8843 220.286C59.0554 215.75 59.2266 210.553 56.6853 206.559C53.7753 201.957 48.9561 201.534 44.4792 199.207C33.1816 193.322 39.2122 183.589 37.5268 173.632C35.025 159.217 21.1467 160.579 11.3897 157.63L11.2053 157.71Z" fill="#756FBF"/>
<path d="M57.0147 291.762C52.2955 291.607 47.6944 290.241 43.6498 287.795C41.5749 285.981 39.2457 284.484 36.737 283.351C33.2739 281.579 29.7056 279.755 27.4408 275.933C24.2411 270.537 25.0575 264.282 26.2952 259.985C26.6903 258.662 27.1775 257.34 27.612 256.163C29.1131 252.354 30.4166 249.048 27.9148 244.922C26.3194 242.692 24.366 240.744 22.1344 239.157C20.9443 238.228 19.8016 237.239 18.7109 236.195C15.656 233.127 11.8507 229.318 10.9948 224.584C10.2969 220.762 11.719 217.84 13.2201 214.758C13.8797 213.471 14.4644 212.146 14.9713 210.791C17.8945 202.592 13.7336 198.704 8.91435 194.195C6.5955 192.185 4.53041 189.898 2.7652 187.385C-3.47612 177.771 1.86982 170.537 7.04459 163.581C8.4874 161.707 9.82805 159.756 11.0606 157.736L11.3108 157.63C13.5858 158.267 15.8935 158.779 18.2237 159.164C26.7429 160.765 35.5651 162.404 37.5007 173.711C37.9168 176.781 37.9478 179.89 37.5928 182.968C37.1188 189.58 36.6975 195.266 44.3872 199.273C45.6708 199.916 46.9896 200.486 48.3374 200.979C51.5239 202.222 54.5392 203.386 56.6196 206.665C59.2531 210.725 58.9898 216.12 58.8186 220.458C58.7329 221.965 58.5658 223.466 58.3182 224.954C57.7619 227.646 57.6507 230.412 57.9891 233.14C58.9503 237.874 62.1368 239.395 65.8895 241.167C67.0614 241.735 68.2859 242.317 69.471 243.045C73.2895 245.346 78.1219 249.366 79.4387 255.515C80.7554 261.664 78.8593 266.425 76.8974 271.648C76.4497 272.838 75.9888 274.068 75.5806 275.298C72.7496 283.695 68.3518 288.985 62.545 290.995C60.7561 291.555 58.8876 291.814 57.0147 291.762ZM11.2713 157.789C10.0588 159.802 8.74021 161.749 7.3211 163.621C2.13317 170.59 -3.17327 177.731 2.98904 187.226C4.74862 189.724 6.80471 191.998 9.11186 193.997C13.7731 198.361 18.1842 202.486 15.2215 210.804C14.7038 212.157 14.1148 213.482 13.4571 214.772C11.9692 217.826 10.5603 220.709 11.245 224.465C12.1008 229.146 15.8799 232.928 18.9084 235.97C19.99 237.006 21.1239 237.986 22.3055 238.905C24.5584 240.511 26.5297 242.482 28.1387 244.737C30.6931 248.956 29.3106 252.46 27.849 256.163C27.375 257.379 26.8746 258.636 26.5323 259.971C25.3077 264.216 24.5045 270.405 27.6515 275.748C29.8899 279.53 33.4319 281.341 36.8686 283.087C39.3924 284.225 41.735 285.732 43.821 287.557C43.9 287.557 53.4727 293.785 62.5713 290.638C68.3254 288.641 72.6706 283.404 75.4885 275.06C75.8966 273.817 76.3707 272.587 76.8052 271.397C78.754 266.2 80.5974 261.294 79.3333 255.396C78.0693 249.498 73.25 245.319 69.4578 243.045C68.2728 242.33 67.0614 241.722 65.8895 241.18C62.3079 239.461 58.9239 237.848 57.9891 233.008C57.6375 230.258 57.7487 227.468 58.3182 224.756C58.5421 223.169 58.7659 221.661 58.8186 220.273C58.9766 215.975 59.1873 210.619 56.646 206.599C54.605 203.372 51.6161 202.222 48.4559 201.005C47.109 200.505 45.7903 199.931 44.5057 199.286C36.6975 195.213 37.132 189.17 37.606 182.783C37.9434 179.74 37.9125 176.667 37.5138 173.632C35.5914 162.471 26.8483 160.831 18.3948 159.257C16.0705 158.864 13.7676 158.352 11.4951 157.723L11.2713 157.789Z" fill="#D4E6FC"/>
<path d="M20.1985 180.442L63.4269 291.114L20.1985 180.442Z" fill="#D4E6FC"/>
<path d="M63.4271 291.524C63.3458 291.525 63.266 291.502 63.198 291.457C63.1299 291.412 63.0768 291.348 63.0453 291.273L19.8169 180.587C19.7956 180.538 19.7846 180.485 19.7844 180.431C19.7843 180.377 19.795 180.324 19.8159 180.275C19.8368 180.225 19.8676 180.181 19.9062 180.143C19.9449 180.106 19.9906 180.077 20.0407 180.058C20.1403 180.019 20.2514 180.021 20.3499 180.063C20.4484 180.105 20.5265 180.184 20.5674 180.283L63.809 290.929C63.828 290.979 63.837 291.033 63.8354 291.087C63.8338 291.14 63.8216 291.193 63.7996 291.243C63.7776 291.292 63.7462 291.336 63.7071 291.373C63.6681 291.41 63.6221 291.439 63.572 291.458C63.5316 291.494 63.481 291.517 63.4271 291.524Z" fill="white"/>
<path d="M22.0291 218.739L39.1466 228.868L22.0291 218.739Z" fill="#D4E6FC"/>
<path d="M39.107 229.278C39.0426 229.298 38.9739 229.298 38.9095 229.278L21.7919 219.136C21.7147 219.074 21.6621 218.987 21.6438 218.89C21.6255 218.793 21.6429 218.692 21.6926 218.607C21.7423 218.522 21.821 218.457 21.9143 218.425C22.0075 218.394 22.1091 218.397 22.2001 218.435L39.3177 228.564C39.3649 228.592 39.4061 228.628 39.4391 228.672C39.472 228.715 39.4959 228.765 39.5094 228.818C39.5229 228.871 39.5257 228.926 39.5177 228.98C39.5096 229.034 39.4908 229.086 39.4625 229.133C39.4197 229.185 39.3648 229.225 39.3028 229.25C39.2408 229.276 39.1736 229.285 39.107 229.278Z" fill="white"/>
<path d="M55.3687 270.498L64.5858 255.184L55.3687 270.498Z" fill="#D4E6FC"/>
<path d="M55.3687 270.908C55.2953 270.911 55.2224 270.893 55.1584 270.857C55.0943 270.821 55.0415 270.768 55.0059 270.703C54.9703 270.639 54.9534 270.566 54.957 270.492C54.9606 270.418 54.9846 270.347 55.0263 270.286L64.2435 254.973C64.3008 254.88 64.3918 254.812 64.4974 254.785C64.603 254.758 64.7149 254.773 64.8097 254.827C64.8558 254.856 64.8958 254.893 64.9275 254.937C64.9591 254.981 64.9817 255.031 64.9939 255.084C65.0062 255.137 65.0079 255.192 64.9988 255.245C64.9898 255.299 64.9703 255.35 64.9414 255.396L55.7242 270.709C55.6874 270.771 55.6352 270.821 55.5728 270.856C55.5104 270.891 55.44 270.909 55.3687 270.908Z" fill="#0C5AE5"/>
<path d="M33.4055 214.229L37.9351 200.318L33.4055 214.229Z" fill="#D4E6FC"/>
<path d="M33.4055 214.666H33.2738C33.1718 214.627 33.0881 214.551 33.0393 214.453C32.9905 214.355 32.9802 214.242 33.0104 214.137L37.5532 200.238C37.5864 200.135 37.6591 200.049 37.7554 199.999C37.8517 199.95 37.9637 199.941 38.0667 199.974C38.1697 200.007 38.2553 200.08 38.3047 200.177C38.3541 200.274 38.3632 200.386 38.33 200.49L33.7873 214.401C33.7596 214.48 33.7077 214.548 33.6391 214.596C33.5705 214.643 33.4887 214.668 33.4055 214.666Z" fill="white"/>
<path d="M48.8113 155.502H135.953V103.571L48.8113 116.649V155.502Z" fill="#C42128"/>
<path d="M47.5471 291.669L61.149 277.612H72.6441V291.669H47.5471Z" fill="#26225B"/>
<path d="M122.377 291.669L113.568 277.612H102.086V291.669H122.377Z" fill="#26225B"/>
<path d="M129.106 155.237V281.341H93.8566V180.746H89.2612L82.7961 281.341H47.5471L54.0123 180.746L55.6582 155.237H129.106Z" fill="white"/>
<path d="M129.106 281.738H93.8568C93.8039 281.74 93.7511 281.731 93.7016 281.712C93.6522 281.693 93.607 281.664 93.569 281.627C93.5309 281.59 93.5006 281.545 93.4799 281.496C93.4592 281.447 93.4486 281.395 93.4486 281.341V181.169H89.6433L83.2044 281.381C83.1978 281.482 83.1532 281.576 83.0798 281.645C83.0065 281.713 82.9098 281.751 82.8094 281.751H47.5473C47.4936 281.752 47.4403 281.741 47.3906 281.721C47.3409 281.7 47.2957 281.67 47.2576 281.632C47.2191 281.592 47.1898 281.544 47.1716 281.492C47.1534 281.439 47.1468 281.383 47.1522 281.328L55.3028 155.211C55.3124 155.108 55.3593 155.012 55.4345 154.941C55.5097 154.87 55.6081 154.83 55.711 154.827H129.106C129.212 154.83 129.312 154.875 129.386 154.952C129.46 155.028 129.501 155.13 129.501 155.237V281.341C129.501 281.447 129.459 281.547 129.385 281.622C129.311 281.696 129.211 281.738 129.106 281.738ZM94.265 280.931H128.698V155.647H56.0402L47.9818 280.931H82.4276L88.8664 180.72C88.8729 180.618 88.917 180.522 88.9901 180.451C89.0631 180.38 89.1599 180.339 89.2614 180.336H93.8568C93.9651 180.336 94.0689 180.379 94.1455 180.456C94.222 180.533 94.265 180.637 94.265 180.746V280.931Z" fill="#26225B"/>
<path d="M145.894 92.9254C145.894 63.8325 123.654 50.7672 94.6337 50.0663H92.8429C49.18 50.0663 35.4069 81.9362 33.3397 87.4374C28.7311 99.6829 15.7744 138.085 57.5281 155.845C70.0897 161.135 79.0699 148.228 85.772 144.764C90.932 141.955 96.2421 139.434 101.678 137.213L145.894 92.9254Z" fill="#C42128"/>
<path d="M126.551 107.445C126.551 107.445 131.213 128.762 157.245 124.16C183.276 119.558 175.679 79.3574 175.679 79.3574H155.533L154.795 97.8711C154.795 97.8711 144.104 70.1006 130.725 60.5264C122.562 54.6946 126.551 107.445 126.551 107.445Z" fill="#C42128"/>
<path d="M135.624 121.661C135.57 121.661 135.517 121.651 135.467 121.63C135.418 121.609 135.373 121.579 135.335 121.541C135.297 121.503 135.267 121.458 135.246 121.408C135.226 121.358 135.215 121.305 135.215 121.251V99.0877C135.215 98.979 135.258 98.8747 135.335 98.7978C135.411 98.7209 135.515 98.6777 135.624 98.6777C135.732 98.6777 135.836 98.7209 135.912 98.7978C135.989 98.8747 136.032 98.979 136.032 99.0877V121.225C136.035 121.281 136.027 121.337 136.009 121.39C135.99 121.443 135.96 121.491 135.922 121.532C135.884 121.573 135.837 121.605 135.786 121.628C135.735 121.65 135.679 121.661 135.624 121.661Z" fill="white"/>
<path d="M75.304 151.058L82.625 158.464L88.524 165.472L86.0486 167.972L88.2343 170.855L76.0019 180.402L60.0957 161.214L75.304 151.058Z" fill="white"/>
<path d="M75.9887 180.812C75.9309 180.811 75.874 180.797 75.8217 180.772C75.7695 180.747 75.7232 180.711 75.6859 180.667L59.7797 161.479C59.7103 161.383 59.6775 161.266 59.6876 161.148C59.7157 161.037 59.7808 160.939 59.8719 160.87L75.0539 150.754C75.1275 150.691 75.2208 150.657 75.3172 150.657C75.4136 150.657 75.5069 150.691 75.5806 150.754L82.9543 158.173L88.8796 165.208C88.952 165.282 88.9925 165.382 88.9925 165.486C88.9925 165.589 88.952 165.689 88.8796 165.763L86.6543 168.011L88.6162 170.656C88.6903 170.735 88.7316 170.839 88.7316 170.947C88.7316 171.055 88.6903 171.159 88.6162 171.238L76.3838 180.773C76.3267 180.812 76.2605 180.837 76.1914 180.844C76.1223 180.851 76.0525 180.84 75.9887 180.812ZM60.7015 161.333L76.0546 179.847L87.655 170.788L85.7194 168.236C85.6562 168.16 85.6216 168.064 85.6216 167.965C85.6216 167.866 85.6562 167.77 85.7194 167.694L87.9315 165.472L82.3091 158.688L75.2514 151.547L60.7015 161.333Z" fill="#26225B"/>
<path d="M85.6799 173.103C85.6229 173.104 85.5663 173.093 85.514 173.07C85.4618 173.047 85.415 173.013 85.377 172.97L80.1101 166.953C80.0719 166.915 80.0416 166.87 80.0209 166.82C80.0002 166.77 79.9895 166.717 79.9895 166.663C79.9895 166.608 80.0002 166.555 80.0209 166.505C80.0416 166.455 80.0719 166.41 80.1101 166.372C80.1471 166.332 80.1919 166.3 80.2418 166.278C80.2916 166.256 80.3454 166.245 80.3998 166.245C80.4542 166.245 80.508 166.256 80.5578 166.278C80.6077 166.3 80.6525 166.332 80.6895 166.372L85.9564 172.402C86.0134 172.46 86.0514 172.534 86.0652 172.614C86.0789 172.694 86.0678 172.776 86.0333 172.85C85.9988 172.924 85.9426 172.985 85.8723 173.025C85.802 173.066 85.7211 173.084 85.6404 173.076L85.6799 173.103Z" fill="#26225B"/>
<path d="M82.2432 175.483C82.1832 175.483 82.1241 175.47 82.0696 175.444C82.0151 175.419 81.9665 175.383 81.9272 175.337L76.6603 169.321C76.6176 169.282 76.5834 169.235 76.5601 169.182C76.5368 169.13 76.5248 169.072 76.5249 169.015C76.525 168.957 76.5372 168.9 76.5608 168.848C76.5843 168.795 76.6186 168.748 76.6615 168.71C76.7044 168.671 76.7548 168.642 76.8095 168.625C76.8642 168.607 76.922 168.602 76.979 168.608C77.0361 168.615 77.0911 168.633 77.1406 168.663C77.19 168.692 77.2327 168.731 77.266 168.778L82.5329 174.795C82.5711 174.833 82.6014 174.879 82.6221 174.929C82.6428 174.979 82.6535 175.032 82.6535 175.086C82.6535 175.14 82.6428 175.194 82.6221 175.244C82.6014 175.294 82.5711 175.339 82.5329 175.377C82.4531 175.448 82.3496 175.486 82.2432 175.483Z" fill="#26225B"/>
<path d="M79.004 178.088C78.9461 178.087 78.8892 178.073 78.837 178.048C78.7848 178.023 78.7385 177.987 78.7012 177.943L73.4342 171.926C73.3915 171.887 73.3574 171.84 73.334 171.787C73.3107 171.735 73.2987 171.678 73.2988 171.62C73.2989 171.562 73.3112 171.505 73.3347 171.453C73.3582 171.4 73.3926 171.353 73.4354 171.315C73.4783 171.276 73.5287 171.248 73.5834 171.23C73.6381 171.213 73.6959 171.207 73.753 171.214C73.81 171.22 73.8651 171.239 73.9145 171.268C73.9639 171.297 74.0067 171.337 74.0399 171.384L79.3069 177.401C79.3451 177.439 79.3754 177.484 79.3961 177.534C79.4168 177.584 79.4275 177.637 79.4275 177.691C79.4275 177.746 79.4168 177.799 79.3961 177.849C79.3754 177.899 79.3451 177.944 79.3069 177.982C79.2237 178.056 79.1149 178.094 79.004 178.088Z" fill="#26225B"/>
<path d="M86.1145 168.514C86.0565 168.514 85.9993 168.5 85.9469 168.475C85.8946 168.45 85.8484 168.414 85.8117 168.369L81.8614 163.872C81.826 163.832 81.7989 163.784 81.7817 163.733C81.7645 163.681 81.7575 163.627 81.7612 163.573C81.7649 163.519 81.7791 163.466 81.8031 163.418C81.8271 163.369 81.8603 163.326 81.9009 163.29C81.9416 163.255 81.9888 163.228 82.0399 163.21C82.091 163.193 82.145 163.186 82.1988 163.19C82.2526 163.193 82.3052 163.208 82.3535 163.232C82.4018 163.256 82.4449 163.289 82.4803 163.33L86.4305 167.826C86.5046 167.905 86.5459 168.009 86.5459 168.117C86.5459 168.225 86.5046 168.33 86.4305 168.408C86.3427 168.483 86.2295 168.521 86.1145 168.514Z" fill="#26225B"/>
<path d="M55.6849 100.198C44.6375 123.883 78.5039 149.961 78.5039 149.961L58.2393 165.129C58.2393 165.129 31.0093 141.986 29.6135 126.329L55.6849 100.198Z" fill="#C42128"/>
<path d="M90.3938 37.0273C90.3938 37.0273 77.503 40.373 76.7261 24.6232C75.9492 8.87336 101.138 3.18702 107.011 9.7726C112.884 16.3582 90.3938 37.0273 90.3938 37.0273Z" fill="#26225B"/>
<path d="M91.6051 58.5957C93.7004 58.5957 95.7099 57.7597 97.1915 56.2717C98.6731 54.7837 99.5055 52.7656 99.5055 50.6613V24.6364H83.652V50.6084C83.645 51.6592 83.846 52.701 84.2432 53.6733C84.6404 54.6455 85.2259 55.5288 85.9658 56.2719C86.7057 57.015 87.5853 57.6031 88.5533 58.002C89.5214 58.4009 90.5587 58.6027 91.6051 58.5957Z" fill="white"/>
<path d="M91.6051 59.0057C89.3874 59.0022 87.2614 58.1168 85.692 56.5431C84.1226 54.9694 83.2377 52.8356 83.2307 50.6084V24.6364C83.2307 24.5277 83.2737 24.4234 83.3503 24.3465C83.4268 24.2696 83.5306 24.2264 83.6389 24.2264H99.5582C99.6118 24.2264 99.6649 24.237 99.7144 24.2576C99.7639 24.2782 99.8089 24.3084 99.8468 24.3465C99.8847 24.3846 99.9148 24.4298 99.9353 24.4795C99.9558 24.5292 99.9664 24.5826 99.9664 24.6364V50.6084C99.9629 52.8344 99.0809 54.9683 97.5136 56.5423C95.9463 58.1163 93.8216 59.0022 91.6051 59.0057ZM84.0603 25.0463V50.6084C84.0603 52.618 84.8552 54.5454 86.2701 55.9664C87.685 57.3874 89.6041 58.1858 91.6051 58.1858C93.6062 58.1858 95.5252 57.3874 96.9402 55.9664C98.3551 54.5454 99.15 52.618 99.15 50.6084V25.0463H84.0603Z" fill="#26225B"/>
<path d="M78.0561 25.9323C77.9994 26.6082 78.0981 27.2881 78.3444 27.9197C78.5908 28.5512 78.9783 29.1175 79.477 29.5749C79.9757 30.0323 80.5723 30.3686 81.2208 30.5579C81.8694 30.7471 82.5526 30.7843 83.2177 30.6665C83.3843 32.2625 83.8774 33.8067 84.6661 35.2023C85.9279 37.4647 87.8909 39.2514 90.2566 40.2905C92.6222 41.3296 95.2611 41.5643 97.7718 40.9589C100.282 40.3535 102.528 38.9412 104.166 36.9368C105.804 34.9323 106.745 32.4454 106.847 29.8542C106.948 27.2631 106.204 24.7096 104.728 22.582C103.252 20.4544 101.124 18.8692 98.6689 18.0675C96.2134 17.2659 93.5644 17.2915 91.1247 18.1407C88.685 18.9898 86.5882 20.6159 85.1533 22.7717C84.5239 22.2827 83.7745 21.9737 82.9845 21.8775C82.1945 21.7814 81.3933 21.9017 80.6658 22.2256C79.9384 22.5496 79.3117 23.0652 78.8523 23.7177C78.3928 24.3703 78.1177 25.1355 78.0561 25.9323Z" fill="white"/>
<path d="M94.9366 41.6292C94.6118 41.6292 94.2826 41.6292 93.949 41.6292C91.9512 41.4667 90.0238 40.8138 88.3362 39.7277C86.6486 38.6416 85.2526 37.1557 84.271 35.4007C83.5247 34.0812 83.0332 32.632 82.8226 31.1293C82.5593 31.1293 82.2959 31.1293 82.0326 31.1293C80.7695 31.0084 79.6048 30.3922 78.7913 29.4142C77.9778 28.4363 77.5811 27.1756 77.6874 25.9058C77.7498 25.0709 78.0269 24.2666 78.4915 23.5715C78.956 22.8763 79.5922 22.3141 80.3378 21.9396C81.0834 21.5652 81.913 21.3915 82.7455 21.4353C83.578 21.4792 84.3849 21.7392 85.0874 22.1899C86.3116 20.4887 87.9502 19.1317 89.8463 18.2489C91.7424 17.3661 93.8324 16.987 95.9162 17.1479C98 17.3088 100.008 18.0044 101.747 19.168C103.486 20.3316 104.899 21.9243 105.85 23.7934C106.801 25.6625 107.258 27.7456 107.177 29.8429C107.097 31.9403 106.481 33.9818 105.39 35.7718C104.299 37.5618 102.768 39.0405 100.945 40.0661C99.1211 41.0917 97.066 41.6299 94.9761 41.6292H94.9366ZM83.2176 30.2565C83.3031 30.2565 83.3863 30.2844 83.4546 30.3359C83.5007 30.3666 83.5389 30.4077 83.5663 30.4559C83.5938 30.5042 83.6096 30.5581 83.6127 30.6136C83.8094 32.3881 84.4174 34.0916 85.3881 35.5875C86.3587 37.0833 87.6649 38.3299 89.2019 39.2272C90.7389 40.1245 92.4639 40.6476 94.2385 40.7545C96.0132 40.8613 97.788 40.549 99.4208 39.8425C101.054 39.1361 102.499 38.0551 103.64 36.6865C104.782 35.3178 105.588 33.6994 105.995 31.9612C106.401 30.223 106.396 28.4134 105.981 26.6774C105.565 24.9415 104.75 23.3275 103.601 21.965C102.462 20.6216 101.029 19.5613 99.4145 18.867C97.7997 18.1727 96.0467 17.8634 94.293 17.9633C92.5392 18.0632 90.8323 18.5697 89.306 19.4429C87.7798 20.3161 86.4755 21.5324 85.4956 22.9965C85.4271 23.0881 85.3296 23.1534 85.2191 23.1817C85.1629 23.1909 85.1053 23.1873 85.0506 23.1713C84.9959 23.1553 84.9455 23.1272 84.9031 23.0891C84.2879 22.6198 83.5528 22.3355 82.7831 22.2692C82.2557 22.2185 81.7236 22.2749 81.2183 22.435C80.7131 22.5951 80.245 22.8556 79.8421 23.201C79.4391 23.5465 79.1095 23.9698 78.8728 24.4459C78.6361 24.9219 78.4971 25.4409 78.4642 25.9719C78.4189 26.5001 78.4795 27.0319 78.6423 27.5362C78.8052 28.0404 79.067 28.5068 79.4123 28.9077C80.1017 29.717 81.0811 30.2206 82.1379 30.3094C82.4699 30.3563 82.8067 30.3563 83.1386 30.3094L83.2176 30.2565Z" fill="#26225B"/>
<path d="M84.6134 28.5903C84.5052 28.5903 84.4013 28.5471 84.3248 28.4702C84.2482 28.3933 84.2052 28.289 84.2052 28.1803C84.1975 27.6919 84.0153 27.2226 83.6917 26.8579C83.5241 26.7146 83.3288 26.6077 83.118 26.544C82.9073 26.4802 82.6857 26.4611 82.4672 26.4876C82.3576 26.4913 82.2509 26.4519 82.1697 26.3778C82.0886 26.3038 82.0394 26.2008 82.0326 26.0909C82.0291 26.0377 82.0362 25.9844 82.0536 25.934C82.0711 25.8837 82.0984 25.8374 82.1341 25.7979C82.1697 25.7584 82.2129 25.7265 82.2611 25.7041C82.3093 25.6818 82.3614 25.6694 82.4145 25.6678C82.7483 25.6291 83.0864 25.6622 83.4065 25.7648C83.7266 25.8674 84.0213 26.0372 84.2711 26.2628C84.7529 26.7948 85.0204 27.4877 85.0216 28.2068C85.0199 28.2589 85.008 28.3101 84.9866 28.3576C84.9651 28.4051 84.9346 28.4479 84.8967 28.4835C84.8588 28.5191 84.8142 28.5469 84.7656 28.5652C84.717 28.5835 84.6653 28.592 84.6134 28.5903Z" fill="#26225B"/>
<path d="M335.557 78.3657H114.306V291.669H335.557V78.3657Z" fill="#756FBF"/>
<path d="M158.706 70.6296L158.837 83.047L174.309 82.9676L174.638 70.7487L158.706 70.6296Z" fill="white"/>
<path d="M158.838 83.4568C158.785 83.4586 158.732 83.4497 158.682 83.4305C158.633 83.4114 158.588 83.3824 158.55 83.3454C158.512 83.3084 158.481 83.2641 158.461 83.2151C158.44 83.166 158.429 83.1134 158.43 83.0601L158.285 70.6295C158.289 70.519 158.336 70.4145 158.416 70.3386C158.452 70.2979 158.497 70.266 158.547 70.2453C158.598 70.2247 158.652 70.2159 158.706 70.2196L174.639 70.3386C174.692 70.3383 174.745 70.3487 174.795 70.3691C174.845 70.3895 174.89 70.4196 174.928 70.4576C174.967 70.4979 174.998 70.5455 175.018 70.5977C175.038 70.6499 175.048 70.7057 175.047 70.7617L174.718 82.9808C174.718 83.086 174.676 83.1869 174.602 83.2613C174.528 83.3357 174.427 83.3775 174.323 83.3775L158.838 83.4568ZM159.114 71.0395L159.233 82.637L173.914 82.5576L174.217 71.1585L159.114 71.0395Z" fill="#26225B"/>
<path d="M161.959 83.3113C161.851 83.3046 161.751 83.257 161.677 83.1784C161.604 83.0997 161.563 82.9959 161.563 82.8881L161.774 74.8876C161.774 74.7789 161.817 74.6746 161.894 74.5977C161.97 74.5209 162.074 74.4777 162.182 74.4777C162.236 74.4794 162.289 74.4917 162.338 74.5139C162.386 74.5361 162.431 74.5677 162.467 74.607C162.504 74.6463 162.532 74.6925 162.551 74.7429C162.57 74.7933 162.579 74.847 162.577 74.9008L162.367 82.9146C162.363 83.021 162.319 83.1219 162.243 83.196C162.166 83.27 162.065 83.3114 161.959 83.3113Z" fill="#26225B"/>
<path d="M166.119 82.8486C166.066 82.8469 166.013 82.8346 165.964 82.8124C165.915 82.7902 165.871 82.7585 165.834 82.7192C165.798 82.6799 165.769 82.6337 165.75 82.5833C165.731 82.5329 165.722 82.4793 165.724 82.4254L165.935 74.491C165.935 74.3823 165.978 74.278 166.054 74.2011C166.131 74.1242 166.235 74.0811 166.343 74.0811C166.397 74.0828 166.449 74.0951 166.498 74.1173C166.547 74.1395 166.591 74.1711 166.628 74.2104C166.665 74.2497 166.693 74.2959 166.712 74.3463C166.731 74.3967 166.74 74.4504 166.738 74.5042L166.527 82.518C166.511 82.6137 166.461 82.7002 166.386 82.7611C166.311 82.822 166.216 82.8532 166.119 82.8486Z" fill="#26225B"/>
<path d="M170.267 82.7693C170.212 82.7693 170.158 82.7583 170.108 82.7369C170.057 82.7154 170.012 82.6841 169.974 82.6446C169.936 82.6051 169.906 82.5583 169.886 82.5071C169.866 82.4558 169.857 82.401 169.859 82.3461L170.07 74.3456C170.065 74.2895 170.073 74.2332 170.093 74.1807C170.113 74.1281 170.144 74.0806 170.185 74.0415C170.225 74.0024 170.273 73.9727 170.326 73.9544C170.379 73.9361 170.435 73.9297 170.491 73.9356C170.544 73.9374 170.597 73.9497 170.646 73.9719C170.695 73.994 170.739 74.0257 170.776 74.065C170.812 74.1043 170.841 74.1505 170.86 74.2009C170.879 74.2513 170.888 74.305 170.886 74.3588L170.675 82.3726C170.675 82.4258 170.665 82.4785 170.644 82.5275C170.623 82.5765 170.593 82.6208 170.555 82.6579C170.517 82.6949 170.472 82.7238 170.422 82.743C170.373 82.7621 170.32 82.7711 170.267 82.7693Z" fill="#26225B"/>
<path d="M78.5037 150.37C78.4144 150.369 78.3275 150.341 78.2535 150.291C77.9112 150.027 44.2555 123.724 55.316 100.04C55.3672 99.9514 55.4493 99.8853 55.5464 99.8546C55.6436 99.8239 55.7486 99.8308 55.8409 99.8738C55.9333 99.9169 56.0063 99.993 56.0456 100.087C56.0849 100.182 56.0877 100.287 56.0534 100.384C45.2694 123.486 78.4379 149.392 78.7539 149.643C78.8395 149.711 78.8955 149.81 78.9103 149.918C78.925 150.027 78.8973 150.137 78.8329 150.225C78.7934 150.274 78.743 150.312 78.6857 150.338C78.6285 150.363 78.5661 150.374 78.5037 150.37Z" fill="white"/>
<path d="M305.917 118.884H144.327V143.838H305.917V118.884Z" fill="white"/>
<path d="M305.917 154.311H144.327V179.265H305.917V154.311Z" fill="white"/>
<path d="M305.917 190.836H144.327V215.79H305.917V190.836Z" fill="white"/>
<path d="M273.762 233.51H176.482V258.464H273.762V233.51Z" fill="#26225B"/>
<path d="M301.769 63.2241C299 63.2037 296.245 62.8123 293.579 62.0604C293.527 62.0465 293.478 62.0226 293.436 61.9898C293.393 61.9571 293.357 61.9162 293.33 61.8695C293.303 61.8228 293.286 61.7713 293.279 61.7178C293.272 61.6643 293.275 61.6099 293.289 61.5578C293.323 61.4534 293.394 61.3654 293.49 61.3115C293.585 61.2576 293.697 61.2417 293.803 61.2669C296.397 61.9962 299.076 62.3786 301.769 62.4042C301.877 62.4042 301.981 62.4474 302.058 62.5243C302.134 62.6011 302.177 62.7054 302.177 62.8141C302.177 62.9229 302.134 63.0271 302.058 63.104C301.981 63.1809 301.877 63.2241 301.769 63.2241ZM305.851 62.9993C305.75 62.9969 305.653 62.9582 305.579 62.8903C305.504 62.8223 305.455 62.7296 305.443 62.629C305.436 62.5758 305.439 62.5217 305.453 62.4699C305.467 62.4182 305.492 62.3698 305.525 62.3278C305.558 62.2857 305.599 62.2509 305.646 62.2254C305.693 62.1999 305.745 62.1842 305.798 62.1794C308.475 61.8497 311.096 61.1649 313.593 60.1429C313.697 60.1071 313.81 60.1118 313.91 60.1559C314.01 60.2 314.09 60.2803 314.133 60.3809C314.173 60.4809 314.171 60.5924 314.129 60.6914C314.087 60.7903 314.008 60.8688 313.909 60.9099C311.345 61.9559 308.652 62.6541 305.904 62.986L305.851 62.9993ZM289.826 60.7115H289.668C287.123 59.6114 284.732 58.1797 282.558 56.4534C282.516 56.4211 282.48 56.3805 282.454 56.334C282.427 56.2876 282.411 56.2363 282.404 56.1831C282.398 56.13 282.403 56.0762 282.418 56.0249C282.433 55.9737 282.458 55.926 282.492 55.8847C282.526 55.8417 282.567 55.8058 282.615 55.7792C282.662 55.7525 282.714 55.7356 282.768 55.7294C282.822 55.7233 282.877 55.728 282.929 55.7433C282.981 55.7586 283.029 55.7842 283.072 55.8186C285.185 57.4931 287.51 58.8803 289.984 59.9445C290.075 59.9787 290.151 60.0442 290.198 60.1292C290.245 60.2142 290.26 60.3133 290.241 60.4087C290.222 60.504 290.17 60.5895 290.094 60.6499C290.018 60.7102 289.923 60.7414 289.826 60.738V60.7115ZM317.478 59.1511C317.405 59.1494 317.335 59.1291 317.272 59.0921C317.21 59.055 317.158 59.0025 317.122 58.9395C317.07 58.8447 317.058 58.7331 317.087 58.6291C317.117 58.525 317.186 58.437 317.28 58.3841C319.617 57.0344 321.772 55.3901 323.693 53.4912C323.77 53.414 323.874 53.3707 323.982 53.3707C324.091 53.3707 324.195 53.414 324.272 53.4912C324.349 53.5683 324.392 53.673 324.392 53.7821C324.392 53.8912 324.349 53.9959 324.272 54.073C322.304 56.0274 320.09 57.7166 317.688 59.0982C317.606 59.135 317.516 59.153 317.425 59.1511H317.478ZM279.832 53.7689C279.779 53.7692 279.725 53.7588 279.676 53.7384C279.626 53.718 279.581 53.6879 279.543 53.6499C277.616 51.669 275.952 49.4467 274.592 47.0379C274.539 46.9414 274.527 46.828 274.558 46.7226C274.589 46.6172 274.66 46.5284 274.756 46.4758C274.852 46.4232 274.965 46.4111 275.07 46.4421C275.175 46.4731 275.264 46.5447 275.316 46.6411C276.627 49.0042 278.243 51.1829 280.122 53.1209C280.16 53.159 280.191 53.2043 280.211 53.2543C280.232 53.3042 280.243 53.3578 280.243 53.4118C280.243 53.4659 280.232 53.5195 280.211 53.5694C280.191 53.6193 280.16 53.6647 280.122 53.7028C280.073 53.7385 280.017 53.763 279.958 53.7744C279.899 53.7858 279.838 53.7839 279.78 53.7689H279.832ZM326.695 51.1241C326.605 51.126 326.517 51.0981 326.445 51.0447C326.359 50.9769 326.303 50.8783 326.288 50.7698C326.274 50.6613 326.301 50.5513 326.366 50.4629C328.017 48.3245 329.381 45.9769 330.421 43.4806C330.442 43.4298 330.472 43.3836 330.51 43.3446C330.548 43.3057 330.594 43.2749 330.644 43.2539C330.694 43.233 330.748 43.2223 330.803 43.2227C330.857 43.223 330.911 43.2342 330.961 43.2558C331.061 43.2995 331.14 43.3805 331.182 43.4816C331.224 43.5827 331.225 43.6961 331.185 43.798C330.112 46.3604 328.709 48.7701 327.011 50.9654C326.968 51.0201 326.911 51.0624 326.846 51.0879C326.781 51.1134 326.711 51.1214 326.642 51.1109L326.695 51.1241ZM273.209 43.4938C273.128 43.4968 273.047 43.4742 272.978 43.4292C272.91 43.3842 272.857 43.319 272.827 43.2426C271.813 40.6574 271.14 37.9499 270.826 35.1891C270.815 35.0789 270.847 34.9686 270.916 34.882C270.985 34.7955 271.085 34.7396 271.195 34.7263C271.249 34.7189 271.303 34.7228 271.356 34.7377C271.408 34.7527 271.457 34.7784 271.499 34.8131C271.541 34.8479 271.576 34.891 271.6 34.9398C271.625 34.9886 271.639 35.0419 271.642 35.0966C271.94 37.7862 272.596 40.4236 273.591 42.9384C273.61 42.9888 273.619 43.0424 273.617 43.0962C273.616 43.1501 273.604 43.2031 273.582 43.2522C273.56 43.3013 273.528 43.3456 273.489 43.3826C273.45 43.4195 273.404 43.4483 273.354 43.4674C273.292 43.4949 273.222 43.4996 273.157 43.4806L273.209 43.4938ZM332.12 40.1614H332.015C331.963 40.1475 331.914 40.1236 331.871 40.0908C331.829 40.0581 331.793 40.0172 331.766 39.9705C331.739 39.9238 331.721 39.8722 331.714 39.8188C331.707 39.7653 331.711 39.7109 331.725 39.6588C332.426 37.0458 332.78 34.3513 332.778 31.6451C332.778 31.5364 332.821 31.4321 332.898 31.3552C332.974 31.2783 333.078 31.2351 333.186 31.2351C333.295 31.2351 333.399 31.2783 333.475 31.3552C333.552 31.4321 333.595 31.5364 333.595 31.6451C333.6 34.4272 333.237 37.1977 332.515 39.8837C332.482 39.9731 332.42 40.0484 332.338 40.0966C332.257 40.1449 332.161 40.1631 332.067 40.1481L332.12 40.1614ZM271.05 31.4467C270.996 31.445 270.943 31.4327 270.895 31.4105C270.846 31.3883 270.802 31.3567 270.765 31.3174C270.728 31.2781 270.7 31.2319 270.681 31.1815C270.662 31.1311 270.653 31.0774 270.655 31.0235C270.697 28.2437 271.109 25.4819 271.879 22.8114C271.913 22.7076 271.985 22.6207 272.081 22.5689C272.176 22.5172 272.288 22.5046 272.393 22.5337C272.496 22.5673 272.583 22.6397 272.634 22.7358C272.686 22.8319 272.698 22.9443 272.669 23.0495C271.919 25.6287 271.516 28.2972 271.471 30.9839C271.476 31.0464 271.466 31.1091 271.443 31.1674C271.421 31.2258 271.386 31.2784 271.34 31.3214C271.295 31.3644 271.24 31.3968 271.181 31.4162C271.122 31.4356 271.059 31.4415 270.997 31.4335L271.05 31.4467ZM333.002 29.0928C332.9 29.0933 332.802 29.0556 332.727 28.9871C332.651 28.9186 332.604 28.8243 332.594 28.7226C332.349 26.0085 331.743 23.3398 330.79 20.7881C330.756 20.6846 330.763 20.5717 330.809 20.4732C330.856 20.3746 330.939 20.2979 331.04 20.2592C331.09 20.2401 331.144 20.231 331.197 20.2326C331.251 20.2343 331.304 20.2465 331.353 20.2686C331.402 20.2907 331.446 20.3222 331.482 20.3615C331.519 20.4007 331.548 20.4468 331.567 20.4972C332.527 23.1034 333.147 25.8239 333.41 28.5903C333.416 28.6442 333.41 28.6986 333.395 28.7505C333.379 28.8023 333.354 28.8505 333.319 28.8923C333.285 28.9341 333.243 28.9687 333.195 28.994C333.147 29.0194 333.095 29.035 333.042 29.0399L333.002 29.0928ZM273.604 19.479C273.548 19.4911 273.489 19.4911 273.433 19.479C273.338 19.4305 273.263 19.3483 273.225 19.2483C273.186 19.1483 273.185 19.0374 273.222 18.9368C274.341 16.3942 275.789 14.011 277.528 11.8487C277.561 11.8057 277.603 11.7698 277.65 11.7431C277.698 11.7165 277.75 11.6996 277.804 11.6934C277.858 11.6872 277.913 11.692 277.965 11.7073C278.017 11.7226 278.065 11.7482 278.107 11.7826C278.146 11.8207 278.176 11.866 278.197 11.9159C278.217 11.9659 278.228 12.0194 278.228 12.0735C278.228 12.1276 278.217 12.1811 278.197 12.2311C278.176 12.281 278.146 12.3263 278.107 12.3644C276.42 14.4734 275.012 16.7938 273.92 19.2674C273.888 19.324 273.842 19.3717 273.787 19.4063C273.732 19.4409 273.669 19.4613 273.604 19.4657V19.479ZM329.5 17.3631C329.438 17.3588 329.378 17.3412 329.323 17.3115C329.269 17.2819 329.221 17.2408 329.184 17.1912C327.918 14.7893 326.342 12.5661 324.496 10.5792C324.458 10.5411 324.427 10.4958 324.407 10.4458C324.386 10.3959 324.375 10.3423 324.375 10.2883C324.375 10.2342 324.386 10.1806 324.407 10.1307C324.427 10.0808 324.458 10.0354 324.496 9.99733C324.534 9.95895 324.579 9.92848 324.629 9.90769C324.679 9.88691 324.732 9.8762 324.786 9.8762C324.84 9.8762 324.893 9.88691 324.943 9.90769C324.992 9.92848 325.037 9.95895 325.075 9.99733C326.962 12.0265 328.577 14.2937 329.881 16.7416C329.909 16.7889 329.926 16.8413 329.932 16.8955C329.938 16.9498 329.932 17.0046 329.916 17.0568C329.9 17.1089 329.874 17.1571 329.838 17.1985C329.803 17.2398 329.759 17.2733 329.71 17.297C329.649 17.3402 329.574 17.359 329.5 17.3499V17.3631ZM280.609 9.4287C280.556 9.42898 280.502 9.4186 280.453 9.39818C280.403 9.37776 280.358 9.34768 280.32 9.30968C280.281 9.27158 280.251 9.22625 280.23 9.17632C280.21 9.12639 280.199 9.07284 280.199 9.01875C280.199 8.96467 280.21 8.91111 280.23 8.86118C280.251 8.81125 280.281 8.76593 280.32 8.72782C282.34 6.80526 284.602 5.15594 287.048 3.82171C287.096 3.79637 287.148 3.78071 287.201 3.77565C287.255 3.77058 287.309 3.77619 287.36 3.79217C287.412 3.80814 287.459 3.83417 287.501 3.86874C287.542 3.90331 287.576 3.94575 287.601 3.99362C287.653 4.0884 287.666 4.19998 287.636 4.30402C287.606 4.40806 287.537 4.49613 287.443 4.54903C285.073 5.84229 282.885 7.44778 280.938 9.32291C280.895 9.36444 280.843 9.39555 280.786 9.41388C280.729 9.43221 280.669 9.43727 280.609 9.4287ZM321.757 7.93438C321.711 7.93654 321.666 7.92946 321.623 7.91356C321.58 7.89766 321.54 7.87326 321.507 7.84181C319.435 6.10903 317.146 4.65533 314.7 3.51755C314.643 3.5017 314.591 3.4738 314.546 3.43575C314.501 3.3977 314.465 3.35039 314.44 3.29706C314.415 3.24373 314.402 3.18562 314.401 3.1267C314.401 3.06777 314.413 3.00942 314.437 2.95561C314.461 2.9018 314.496 2.8538 314.54 2.81489C314.584 2.77597 314.636 2.74706 314.692 2.73011C314.748 2.71316 314.807 2.70857 314.865 2.71666C314.924 2.72476 314.979 2.74534 315.029 2.77701C317.556 3.9144 319.921 5.38653 322.06 7.15416C322.098 7.19227 322.129 7.23759 322.149 7.28752C322.17 7.33745 322.181 7.39101 322.181 7.44509C322.181 7.49918 322.17 7.55273 322.149 7.60266C322.129 7.65259 322.098 7.69792 322.06 7.73602C322.027 7.78958 321.983 7.83517 321.931 7.86948C321.879 7.90379 321.819 7.92596 321.757 7.93438ZM290.906 2.8828C290.824 2.88107 290.744 2.85509 290.676 2.80808C290.608 2.76107 290.555 2.69509 290.524 2.61832C290.505 2.56796 290.496 2.51432 290.498 2.46048C290.499 2.40663 290.512 2.35363 290.534 2.3045C290.556 2.25538 290.587 2.21109 290.626 2.17417C290.665 2.13726 290.711 2.10844 290.761 2.08936C293.344 1.08524 296.05 0.435807 298.807 0.158648C298.913 0.147436 299.019 0.178555 299.103 0.245319C299.187 0.312083 299.241 0.409162 299.254 0.515697C299.265 0.625966 299.233 0.736225 299.164 0.822773C299.095 0.909321 298.995 0.96525 298.886 0.978538C296.206 1.24921 293.576 1.88082 291.064 2.85635L290.906 2.8828ZM310.999 2.11581H310.881C308.316 1.33033 305.66 0.885747 302.981 0.793402C302.871 0.789965 302.767 0.743869 302.691 0.664878C302.615 0.585888 302.572 0.48021 302.572 0.370233C302.579 0.262647 302.626 0.161688 302.705 0.0879623C302.783 0.0142361 302.886 -0.0266992 302.994 -0.0264884C305.761 0.0532961 308.506 0.497903 311.157 1.29592C311.254 1.32108 311.338 1.38071 311.393 1.46358C311.449 1.54646 311.472 1.64687 311.459 1.74595C311.446 1.84503 311.398 1.93595 311.323 2.00163C311.248 2.0673 311.152 2.1032 311.052 2.10258L310.999 2.11581Z" fill="#26225B"/>
<path d="M384.592 292H18.5398C18.4315 292 18.3277 291.957 18.2511 291.88C18.1746 291.803 18.1316 291.699 18.1316 291.59C18.1316 291.481 18.1746 291.377 18.2511 291.3C18.3277 291.223 18.4315 291.18 18.5398 291.18H384.592C384.7 291.18 384.804 291.223 384.881 291.3C384.957 291.377 385 291.481 385 291.59C385 291.699 384.957 291.803 384.881 291.88C384.804 291.957 384.7 292 384.592 292Z" fill="#2D71F0"/>
<path d="M352.345 291.59H298.148L290.775 230.971H359.706L352.345 291.59Z" fill="#C42128"/>
<path d="M364.301 230.971H286.192V244.79H364.301V230.971Z" fill="white"/>
<path d="M364.301 245.2H286.192C286.084 245.2 285.98 245.157 285.904 245.08C285.827 245.003 285.784 244.899 285.784 244.79V230.971C285.784 230.862 285.827 230.758 285.904 230.681C285.98 230.604 286.084 230.561 286.192 230.561H364.301C364.409 230.561 364.513 230.604 364.589 230.681C364.666 230.758 364.709 230.862 364.709 230.971V244.79C364.709 244.899 364.666 245.003 364.589 245.08C364.513 245.157 364.409 245.2 364.301 245.2ZM286.613 244.38H363.906V231.421H286.613V244.38Z" fill="#26225B"/>
<path d="M325.233 231.421C325.125 231.421 325.021 231.377 324.945 231.301C324.868 231.224 324.825 231.119 324.825 231.011V169.268C324.825 169.159 324.868 169.055 324.945 168.978C325.021 168.901 325.125 168.858 325.233 168.858C325.342 168.858 325.445 168.901 325.522 168.978C325.599 169.055 325.642 169.159 325.642 169.268V231.037C325.635 231.141 325.589 231.239 325.513 231.31C325.437 231.381 325.337 231.421 325.233 231.421Z" fill="#26225B"/>
<path d="M325.247 198.347C344.198 198.347 359.561 182.918 359.561 163.886C359.561 144.853 344.198 129.424 325.247 129.424C306.296 129.424 290.933 144.853 290.933 163.886C290.933 182.918 306.296 198.347 325.247 198.347Z" fill="white"/>
<path d="M325.233 198.757C318.366 198.76 311.651 196.717 305.939 192.887C300.227 189.057 295.775 183.611 293.145 177.24C290.515 170.868 289.825 163.856 291.164 157.091C292.502 150.325 295.808 144.11 300.663 139.232C305.519 134.354 311.706 131.031 318.441 129.685C325.177 128.338 332.159 129.028 338.505 131.667C344.85 134.306 350.274 138.776 354.09 144.51C357.906 150.245 359.943 156.988 359.943 163.886C359.932 173.129 356.272 181.99 349.766 188.527C343.259 195.064 334.437 198.743 325.233 198.757ZM325.233 129.847C318.526 129.844 311.969 131.84 306.391 135.58C300.814 139.321 296.466 144.639 293.898 150.862C291.33 157.084 290.657 163.932 291.965 170.539C293.273 177.145 296.503 183.214 301.245 187.977C305.988 192.74 312.031 195.984 318.609 197.297C325.187 198.611 332.006 197.935 338.202 195.356C344.398 192.777 349.693 188.411 353.418 182.809C357.142 177.207 359.129 170.622 359.126 163.886C359.112 154.862 355.537 146.213 349.184 139.832C342.831 133.452 334.218 129.861 325.233 129.847Z" fill="#26225B"/>
<path d="M344.736 183.465C355.503 172.651 355.503 155.118 344.736 144.304C333.968 133.49 316.51 133.49 305.742 144.304C294.975 155.118 294.975 172.651 305.742 183.465C316.51 194.279 333.968 194.279 344.736 183.465Z" fill="white"/>
<path d="M325.233 191.987C319.699 191.987 314.29 190.338 309.688 187.251C305.087 184.163 301.5 179.774 299.383 174.639C297.265 169.504 296.711 163.854 297.79 158.403C298.87 152.952 301.535 147.945 305.448 144.015C309.361 140.085 314.347 137.409 319.775 136.324C325.202 135.24 330.828 135.796 335.941 137.923C341.054 140.05 345.424 143.652 348.498 148.273C351.573 152.895 353.214 158.328 353.214 163.885C353.207 171.336 350.257 178.48 345.011 183.748C339.765 189.017 332.652 191.98 325.233 191.987ZM325.233 136.604C319.857 136.602 314.601 138.2 310.129 141.199C305.658 144.197 302.173 148.459 300.114 153.447C298.055 158.435 297.516 163.924 298.564 169.22C299.613 174.516 302.201 179.381 306.003 183.199C309.804 187.017 314.648 189.617 319.921 190.669C325.194 191.722 330.66 191.18 335.627 189.113C340.593 187.045 344.838 183.545 347.823 179.054C350.808 174.564 352.4 169.285 352.398 163.885C352.387 156.653 349.522 149.72 344.43 144.606C339.338 139.492 332.435 136.615 325.233 136.604Z" fill="#26225B"/>
<path d="M325.233 230.826C325.233 230.826 325.233 204.55 298.701 201.296C296.502 223.209 325.233 230.826 325.233 230.826Z" fill="#26225B"/>
<path d="M318.966 223.367C318.862 223.366 318.762 223.323 318.689 223.248L304.034 208.94C303.996 208.902 303.966 208.856 303.945 208.806C303.924 208.757 303.914 208.703 303.914 208.649C303.914 208.595 303.924 208.541 303.945 208.491C303.966 208.441 303.996 208.396 304.034 208.358C304.112 208.284 304.216 208.242 304.324 208.242C304.432 208.242 304.535 208.284 304.614 208.358L319.256 222.719C319.294 222.757 319.324 222.803 319.345 222.853C319.366 222.903 319.376 222.956 319.376 223.01C319.376 223.064 319.366 223.118 319.345 223.168C319.324 223.218 319.294 223.263 319.256 223.301C319.169 223.356 319.067 223.379 318.966 223.367Z" fill="white"/>
<path d="M325.365 231.117C325.365 231.117 325.365 204.854 351.911 201.587C354.11 223.486 325.365 231.117 325.365 231.117Z" fill="#26225B"/>
<path d="M331.646 223.658C331.534 223.657 331.426 223.614 331.343 223.539C331.305 223.501 331.274 223.456 331.254 223.406C331.233 223.356 331.222 223.302 331.222 223.248C331.222 223.194 331.233 223.141 331.254 223.091C331.274 223.041 331.305 222.995 331.343 222.957L345.985 208.596C346.022 208.556 346.067 208.524 346.117 208.502C346.167 208.48 346.22 208.469 346.275 208.469C346.329 208.469 346.383 208.48 346.433 208.502C346.483 208.524 346.527 208.556 346.564 208.596C346.603 208.634 346.633 208.679 346.654 208.729C346.674 208.779 346.685 208.833 346.685 208.887C346.685 208.941 346.674 208.995 346.654 209.044C346.633 209.094 346.603 209.14 346.564 209.178L331.922 223.486C331.891 223.533 331.85 223.572 331.803 223.602C331.755 223.632 331.701 223.651 331.646 223.658Z" fill="white"/>
<path d="M314.146 160.011V167.654C314.146 170.671 315.34 173.563 317.463 175.696C319.587 177.829 322.467 179.027 325.47 179.027C328.474 179.027 331.354 177.829 333.478 175.696C335.601 173.563 336.794 170.671 336.794 167.654V160.011H314.146ZM326.813 171.714H324.101V165.909H326.813V171.714Z" fill="#26225B"/>
<path d="M333.845 157.763H331.212V156.282C331.249 155.5 331.128 154.72 330.856 153.987C330.584 153.254 330.166 152.584 329.629 152.018C329.092 151.452 328.445 151.001 327.729 150.693C327.014 150.385 326.243 150.226 325.464 150.226C324.685 150.226 323.915 150.385 323.199 150.693C322.483 151.001 321.836 151.452 321.299 152.018C320.762 152.584 320.344 153.254 320.072 153.987C319.8 154.72 319.679 155.5 319.716 156.282V157.763H317.083V156.282C317.038 155.148 317.222 154.017 317.623 152.957C318.024 151.897 318.634 150.928 319.417 150.111C320.199 149.293 321.138 148.642 322.178 148.198C323.217 147.753 324.335 147.524 325.464 147.524C326.594 147.524 327.711 147.753 328.75 148.198C329.79 148.642 330.729 149.293 331.511 150.111C332.294 150.928 332.904 151.897 333.305 152.957C333.706 154.017 333.89 155.148 333.845 156.282V157.763Z" fill="#26225B"/>
<path d="M348.856 124.081C348.791 124.099 348.723 124.099 348.658 124.081C348.564 124.028 348.495 123.94 348.465 123.836C348.436 123.732 348.448 123.62 348.5 123.526C349.752 121.111 350.808 118.599 351.66 116.014C351.678 115.963 351.706 115.915 351.742 115.875C351.778 115.834 351.822 115.801 351.871 115.778C351.92 115.754 351.973 115.741 352.028 115.738C352.082 115.736 352.136 115.744 352.187 115.763C352.238 115.78 352.285 115.806 352.325 115.841C352.366 115.876 352.398 115.919 352.422 115.967C352.445 116.016 352.459 116.068 352.461 116.122C352.464 116.175 352.456 116.229 352.437 116.279C351.577 118.913 350.498 121.47 349.211 123.922C349.171 123.977 349.116 124.021 349.054 124.049C348.992 124.077 348.923 124.088 348.856 124.081ZM353.254 112.576H353.148C353.096 112.562 353.048 112.538 353.005 112.506C352.962 112.473 352.926 112.432 352.9 112.385C352.873 112.339 352.855 112.287 352.848 112.234C352.841 112.18 352.845 112.126 352.859 112.074C353.565 109.442 354.089 106.764 354.425 104.06C354.439 103.951 354.496 103.852 354.582 103.786C354.669 103.719 354.778 103.689 354.886 103.703C354.995 103.717 355.093 103.774 355.159 103.86C355.226 103.947 355.256 104.057 355.242 104.166C354.897 106.906 354.364 109.619 353.649 112.285C353.621 112.369 353.568 112.442 353.497 112.494C353.427 112.546 353.341 112.575 353.254 112.576ZM355.176 100.41C355.122 100.408 355.07 100.396 355.021 100.374C354.972 100.352 354.928 100.32 354.891 100.281C354.854 100.241 354.826 100.195 354.807 100.145C354.788 100.094 354.779 100.041 354.781 99.9869C354.781 99.286 354.781 98.5852 354.781 97.8711C354.779 95.8585 354.642 93.8484 354.373 91.8541C354.365 91.8002 354.369 91.7454 354.383 91.6928C354.397 91.6402 354.421 91.591 354.454 91.5479C354.487 91.5048 354.528 91.4688 354.575 91.4419C354.623 91.415 354.674 91.3978 354.728 91.3913C354.782 91.3819 354.837 91.3839 354.891 91.3971C354.944 91.4104 354.994 91.4345 355.037 91.4681C355.08 91.5017 355.116 91.5439 355.142 91.5922C355.168 91.6404 355.184 91.6936 355.189 91.7483C355.459 93.778 355.596 95.8234 355.597 97.8711C355.597 98.5984 355.597 99.3125 355.597 100.013C355.596 100.067 355.583 100.12 355.561 100.169C355.539 100.218 355.508 100.263 355.469 100.299C355.429 100.336 355.383 100.365 355.333 100.384C355.283 100.403 355.23 100.412 355.176 100.41ZM354.07 88.1646C353.977 88.1665 353.887 88.1358 353.815 88.0778C353.743 88.0198 353.693 87.9382 353.675 87.8472C353.066 85.2095 352.184 82.6432 351.041 80.1905C351.015 80.0944 351.023 79.9919 351.064 79.9012C351.105 79.8104 351.177 79.7372 351.267 79.6945C351.357 79.6518 351.459 79.6423 351.555 79.6677C351.651 79.6932 351.735 79.7519 351.792 79.8335C352.973 82.339 353.887 84.9632 354.518 87.6621C354.542 87.7689 354.524 87.881 354.467 87.9747C354.411 88.0684 354.32 88.1365 354.215 88.1646H354.07ZM349.422 76.8184C349.351 76.817 349.282 76.7981 349.22 76.7636C349.158 76.729 349.105 76.6797 349.066 76.62C347.658 74.3045 346.027 72.1341 344.194 70.1403C344.156 70.1022 344.126 70.0568 344.105 70.0069C344.084 69.957 344.074 69.9034 344.074 69.8493C344.074 69.7952 344.084 69.7417 344.105 69.6918C344.126 69.6418 344.156 69.5965 344.194 69.5584C344.231 69.5183 344.276 69.4864 344.326 69.4645C344.376 69.4427 344.43 69.4314 344.484 69.4314C344.538 69.4314 344.592 69.4427 344.642 69.4645C344.692 69.4864 344.737 69.5183 344.774 69.5584C346.647 71.5916 348.314 73.8065 349.751 76.1704C349.78 76.2163 349.799 76.2675 349.808 76.3211C349.818 76.3747 349.816 76.4295 349.804 76.4824C349.791 76.5353 349.769 76.5852 349.737 76.6293C349.705 76.6734 349.665 76.7107 349.619 76.739C349.561 76.7815 349.493 76.8088 349.422 76.8184ZM341.587 67.4426C341.486 67.4398 341.388 67.4025 341.311 67.3368C339.306 65.5065 337.167 63.8311 334.911 62.3248C334.858 62.2999 334.811 62.2636 334.773 62.2186C334.735 62.1735 334.707 62.1208 334.691 62.0639C334.675 62.0071 334.672 61.9474 334.681 61.8891C334.69 61.8308 334.712 61.7752 334.745 61.726C334.777 61.6769 334.82 61.6354 334.87 61.6044C334.92 61.5735 334.976 61.5537 335.035 61.5465C335.093 61.5393 335.152 61.5449 335.208 61.5628C335.264 61.5808 335.316 61.6106 335.359 61.6504C337.655 63.1711 339.83 64.8689 341.864 66.7285C341.904 66.7656 341.935 66.8106 341.957 66.8607C341.979 66.9107 341.99 66.9648 341.99 67.0194C341.99 67.074 341.979 67.128 341.957 67.1781C341.935 67.2282 341.904 67.2732 341.864 67.3103C341.79 67.3857 341.692 67.4325 341.587 67.4426ZM331.659 60.2354C331.595 60.2542 331.526 60.2542 331.462 60.2354L330.724 59.8255C330.677 59.7995 330.636 59.7642 330.604 59.7219C330.571 59.6795 330.547 59.6309 330.533 59.5789C330.52 59.527 330.517 59.4729 330.525 59.4198C330.533 59.3667 330.551 59.3158 330.579 59.2701C330.604 59.222 330.638 59.1796 330.68 59.1453C330.722 59.111 330.77 59.0857 330.822 59.0708C330.874 59.0559 330.928 59.0519 330.981 59.0589C331.035 59.0658 331.086 59.0837 331.132 59.1114L331.87 59.5346C331.917 59.5606 331.958 59.5958 331.99 59.6382C332.023 59.6806 332.047 59.7292 332.061 59.7811C332.074 59.8331 332.077 59.8872 332.069 59.9403C332.061 59.9934 332.043 60.0443 332.015 60.09C331.965 60.1291 331.907 60.1565 331.846 60.1702C331.784 60.184 331.72 60.1837 331.659 60.1693V60.2354Z" fill="#26225B"/>
<path d="M205.819 38.6407L204.502 28.7755L201.46 29.1723L195.43 21.2378L196.615 18.3814L187.398 14.5597L186.226 17.4161L176.39 18.7385L174.52 16.2788L166.62 22.3222L168.489 24.7819L164.697 34.0387L161.642 34.4354L162.959 44.3006L166.014 43.9038L172.031 51.8383L170.846 54.6946L180.063 58.5164L181.248 55.66L191.071 54.3376L192.941 56.7973L200.842 50.7539L198.972 48.2942L202.777 39.0374L205.819 38.6407ZM184.817 44.4063C183.269 44.604 181.698 44.3369 180.301 43.6388C178.904 42.9408 177.744 41.843 176.968 40.4838C176.191 39.1247 175.833 37.5651 175.938 36.0017C176.043 34.4383 176.606 32.9411 177.557 31.6989C178.508 30.4567 179.804 29.5251 181.282 29.0216C182.759 28.5181 184.352 28.4653 185.86 28.8697C187.367 29.2741 188.721 30.1177 189.752 31.2941C190.783 32.4705 191.443 33.9271 191.651 35.4801C191.789 36.5174 191.722 37.572 191.453 38.5831C191.184 39.5942 190.719 40.5419 190.084 41.3716C189.448 42.2013 188.656 42.8966 187.752 43.4174C186.848 43.9383 185.851 44.2744 184.817 44.4063Z" fill="#26225B"/>
<path d="M311.658 32.1079C310.585 33.187 309.217 33.9222 307.728 34.2204C306.238 34.5186 304.694 34.3664 303.291 33.7832C301.888 33.1999 300.688 32.2118 299.844 30.9437C299 29.6757 298.55 28.1848 298.55 26.6596C298.55 25.1344 299 23.6434 299.844 22.3754C300.688 21.1074 301.888 20.1192 303.291 19.5359C304.694 18.9527 306.238 18.8005 307.728 19.0988C309.217 19.397 310.585 20.1321 311.658 21.2113C313.096 22.6568 313.903 24.6164 313.903 26.6596C313.903 28.7027 313.096 30.6623 311.658 32.1079Z" fill="#C42128"/>
<path d="M295.646 45.6626L290.076 40.0689L304.824 25.2579L307.629 28.0614L295.659 40.0689L298.451 42.8591L295.646 45.6626Z" fill="#C42128"/>
<path d="M298.028 34.9018L295.235 37.707L298.307 40.7928L301.1 37.9876L298.028 34.9018Z" fill="#C42128"/>
<path d="M309.116 29.5558C308.546 30.1299 307.819 30.5211 307.027 30.6799C306.234 30.8387 305.413 30.7579 304.667 30.4479C303.921 30.1378 303.283 29.6124 302.834 28.9381C302.385 28.2638 302.146 27.4709 302.146 26.6598C302.146 25.8486 302.385 25.0557 302.834 24.3814C303.283 23.7071 303.921 23.1817 304.667 22.8716C305.413 22.5616 306.234 22.4808 307.027 22.6396C307.819 22.7984 308.546 23.1896 309.116 23.7637C309.877 24.534 310.304 25.5749 310.304 26.6598C310.304 27.7446 309.877 28.7855 309.116 29.5558Z" fill="white"/>
</g>
<defs>
<clipPath id="clip0">
<rect width="385" height="292" fill="white"/>
</clipPath>
</defs>
</svg>
