<svg width="63" height="63" viewBox="0 0 63 63" fill="none" xmlns="http://www.w3.org/2000/svg">
<g clip-path="url(#clip0)">
<path d="M61.6693 25.9728L31.4828 12.4751C31.2435 12.3678 30.9706 12.3678 30.7314 12.4751L18.4929 17.9474C18.0292 18.1548 17.8213 18.6988 18.0287 19.163C18.2362 19.6272 18.7806 19.8351 19.2448 19.6276L31.1068 14.3234L41.9664 19.1791V25.9581C36.2032 23.8506 31.3508 23.6907 31.1325 23.6845C31.1154 23.684 31.0983 23.684 31.0812 23.6845C30.8472 23.6907 25.2814 23.8744 18.979 26.4484C16.4648 27.4746 14.1679 28.7524 12.1525 30.2456C12.0016 30.3576 11.8915 30.5114 11.8317 30.6842L3.17495 26.8129L15.3109 21.3862C15.7751 21.1788 15.983 20.6349 15.7751 20.1707C15.5677 19.7064 15.0232 19.4985 14.5595 19.706L0.544427 25.9728C0.213119 26.1209 0 26.4503 0 26.8129C0 27.176 0.213119 27.505 0.544427 27.6531L11.7799 32.6777V37.0849C11.7799 37.5932 12.1924 38.0052 12.7003 38.0052C13.2086 38.0052 13.6206 37.5932 13.6206 37.0849V32.1006C13.6206 32.1001 13.6206 32.0991 13.6206 32.0987V31.4536C15.4224 30.1673 17.4568 29.0576 19.6748 28.1524C25.4428 25.7967 30.6967 25.5418 31.1073 25.5252C31.5093 25.5409 36.4163 25.7753 41.9664 27.9246V37.0702C40.6208 37.4679 39.6354 38.7153 39.6354 40.1887C39.6354 41.5424 40.467 42.7053 41.6465 43.1937L41.0029 44.8877C36.8032 45.6106 33.4777 46.6055 31.1068 47.8519C25.646 44.9831 16.5013 44.1724 13.6211 43.9821V41.4004C13.6211 40.8921 13.2086 40.4801 12.7008 40.4801C12.1924 40.4801 11.7804 40.8921 11.7804 41.4004V44.8516C11.7804 45.3439 12.1682 45.7492 12.6604 45.771C12.7805 45.7763 24.7417 46.3349 30.6516 49.7007C30.7926 49.7809 30.9497 49.8213 31.1073 49.8213C31.2644 49.8213 31.4215 49.7809 31.563 49.7002C33.5499 48.5677 36.5293 47.607 40.2396 46.896L39.6957 48.3285C39.5879 48.6114 39.6264 48.9289 39.7982 49.1781C39.97 49.4268 40.2534 49.5759 40.5558 49.5759H45.2187C45.5216 49.5759 45.8045 49.4268 45.9763 49.1781C46.1481 48.9289 46.1866 48.6114 46.0793 48.3285L45.2472 46.1389C47.7515 45.8522 49.5333 45.7715 49.5537 45.7706C50.046 45.7492 50.4342 45.3439 50.4342 44.8512V41.4C50.4342 40.8921 50.0218 40.4796 49.5139 40.4796C49.0055 40.4796 48.5935 40.8921 48.5935 41.4V43.983C47.7344 44.0409 46.3066 44.1553 44.5727 44.3646L44.128 43.1937C45.307 42.7053 46.1391 41.5424 46.1391 40.1887C46.1391 38.7149 45.1537 37.4679 43.8076 37.0702V28.7044C45.5363 29.4976 47.1416 30.417 48.5935 31.4536V32.0987V32.1006V37.0849C48.5935 37.5932 49.0055 38.0052 49.5139 38.0052C50.0222 38.0052 50.4342 37.5932 50.4342 37.0849V32.6777L61.6697 27.6531C62.001 27.505 62.2142 27.176 62.2142 26.8129C62.2142 26.4503 62.0006 26.1209 61.6693 25.9728ZM41.8895 47.7352L42.8868 45.1108L43.884 47.7352H41.8895ZM44.2979 40.1887C44.2979 40.9666 43.6652 41.5993 42.8868 41.5993C42.1088 41.5993 41.4761 40.9666 41.4761 40.1887C41.4761 39.4102 42.1088 38.7775 42.8868 38.7775C43.6652 38.7775 44.2979 39.4102 44.2979 40.1887ZM50.382 30.6842C50.3222 30.5114 50.2121 30.3576 50.0611 30.2456C48.2005 28.8668 46.0973 27.6744 43.8071 26.6914V20.0021L59.0387 26.8129L50.382 30.6842Z" fill="url(#paint0_linear)"/>
</g>
<defs>
<linearGradient id="paint0_linear" x1="31" y1="50" x2="31" y2="14.5" gradientUnits="userSpaceOnUse">
<stop stop-color="#26225B"/>
<stop offset="1" stop-color="#C42128"/>
</linearGradient>
<clipPath id="clip0">
<rect width="62.2143" height="62.2143" fill="white"/>
</clipPath>
</defs>
</svg>
