<svg width="361" height="320" viewBox="0 0 361 320" fill="none" xmlns="http://www.w3.org/2000/svg">
<g clip-path="url(#clip0)">
<path d="M2.55984 157.889C11.7483 156.602 22.7156 150.166 30.2533 161.12C35.449 168.714 34.0925 179.141 45.7125 179.643C50.3067 179.862 54.453 178.356 58.6122 181.046C62.2338 183.389 64.0638 187.752 65.6507 191.588C67.0072 194.883 67.6599 199.53 69.7842 202.439C73.2523 207.189 77.9105 205.735 83.0679 206.301C87.9693 206.829 92.8962 208.631 95.9804 212.737C100.076 218.208 98.028 224.76 100.28 230.565C100.28 230.565 104.875 254.842 78.7168 253.168C72.5357 252.782 66.4441 253.464 60.8005 249.59C56.5646 246.655 54.5554 241.776 53.826 236.872C53.0581 231.723 54.2995 226.974 49.4493 223.691C46.4675 221.67 41.7709 221.207 38.4948 219.971C34.6556 218.542 30.2149 216.882 27.7322 213.342C24.8784 209.274 26.2093 205.052 25.7998 200.47C24.7888 188.885 14.5253 190.597 6.75737 185.693C-4.49149 178.574 1.48487 167.299 2.39348 158.005L2.55984 157.889Z" fill="#2B2762"/>
<path d="M100.46 252.911C100.41 252.912 100.361 252.904 100.315 252.886C100.269 252.869 100.227 252.842 100.191 252.808L18.1983 173.683C18.1611 173.646 18.1316 173.602 18.1115 173.553C18.0914 173.505 18.0811 173.452 18.0811 173.4C18.0811 173.347 18.0914 173.295 18.1115 173.246C18.1316 173.198 18.1611 173.154 18.1983 173.117C18.234 173.08 18.2768 173.05 18.3241 173.03C18.3713 173.01 18.4221 173 18.4734 173C18.5247 173 18.5755 173.01 18.6227 173.03C18.67 173.05 18.7128 173.08 18.7486 173.117L100.741 252.293C100.813 252.369 100.853 252.471 100.853 252.576C100.853 252.681 100.813 252.783 100.741 252.859C100.655 252.907 100.556 252.925 100.46 252.911Z" fill="white"/>
<path d="M52.5327 206.661C52.4377 206.663 52.3454 206.629 52.2726 206.568C52.1998 206.507 52.1513 206.421 52.136 206.327L49.5765 188.306C49.5724 188.207 49.6047 188.111 49.6672 188.035C49.7297 187.959 49.818 187.909 49.915 187.894C50.012 187.88 50.1108 187.902 50.1925 187.957C50.2741 188.011 50.3328 188.094 50.3572 188.19L52.9166 206.211C52.9313 206.315 52.9046 206.42 52.8423 206.505C52.78 206.589 52.6872 206.645 52.5839 206.661H52.5327Z" fill="white"/>
<path d="M65.7523 237.413C65.6584 237.405 65.5701 237.364 65.5034 237.297C65.4366 237.231 65.3957 237.142 65.388 237.047C65.3803 236.953 65.4063 236.859 65.4614 236.782C65.5164 236.705 65.5968 236.65 65.6883 236.627L81.749 234.053C81.8518 234.042 81.9552 234.07 82.0383 234.132C82.1214 234.194 82.1781 234.285 82.1969 234.388C82.2115 234.492 82.1848 234.597 82.1225 234.682C82.0602 234.766 81.9674 234.822 81.8641 234.838L65.8163 237.348L65.7523 237.413Z" fill="white"/>
<path d="M42.2314 196.737L28.999 195.746C28.9468 195.743 28.8958 195.729 28.8489 195.706C28.802 195.683 28.7602 195.65 28.7257 195.611C28.6912 195.571 28.6648 195.526 28.648 195.476C28.6312 195.426 28.6244 195.373 28.6278 195.321C28.631 195.269 28.6446 195.218 28.6678 195.172C28.6909 195.125 28.7232 195.084 28.7626 195.05C28.8021 195.017 28.8479 194.991 28.8973 194.976C28.9467 194.961 28.9987 194.955 29.0501 194.961L42.2954 195.952C42.3868 195.968 42.4695 196.017 42.529 196.089C42.5885 196.16 42.6211 196.251 42.6211 196.344C42.6211 196.438 42.5885 196.528 42.529 196.6C42.4695 196.672 42.3868 196.72 42.2954 196.737H42.2314Z" fill="white"/>
<path d="M99.8962 212.119C99.8962 212.119 109.264 132.737 35.3977 79.0217C14.4868 160.129 88.3018 226.15 88.3018 226.15L99.8962 212.119Z" fill="white"/>
<path d="M88.3018 226.549C88.2028 226.548 88.1073 226.512 88.0331 226.446C74.6732 213.668 63.1087 199.117 53.6594 183.195C39.1728 158.829 24.2255 120.946 35.0137 78.9316C35.0279 78.8694 35.0577 78.8119 35.1002 78.7646C35.1428 78.7172 35.1967 78.6817 35.2568 78.6613C35.3124 78.633 35.3738 78.6183 35.436 78.6183C35.4983 78.6183 35.5596 78.633 35.6152 78.6613C73.8664 106.478 89.364 141.284 95.7626 165.586C102.596 191.91 100.344 211.926 100.318 212.132C100.315 212.207 100.288 212.279 100.242 212.338L88.6473 226.368C88.6083 226.424 88.5566 226.47 88.4964 226.501C88.4363 226.532 88.3695 226.549 88.3018 226.549ZM35.6408 79.6782C25.147 121.216 39.9919 158.648 54.3377 182.771C63.7009 198.504 75.1246 212.899 88.3018 225.57L99.5507 211.965C99.7298 210.304 101.534 190.944 94.9948 165.792C88.7113 141.722 73.3545 107.302 35.6408 79.6782Z" fill="#2B2762"/>
<path d="M68.3629 110.7L63.7559 148.029L68.3629 110.7Z" fill="white"/>
<path d="M63.7564 148.389C63.7047 148.385 63.6544 148.369 63.6087 148.345C63.563 148.32 63.5228 148.286 63.4905 148.245C63.4582 148.204 63.4345 148.157 63.4208 148.107C63.4071 148.056 63.4037 148.004 63.4109 147.952L68.0307 110.623C68.037 110.572 68.0533 110.523 68.0787 110.478C68.104 110.434 68.138 110.395 68.1785 110.364C68.219 110.332 68.2653 110.31 68.3146 110.297C68.3639 110.284 68.4153 110.281 68.4658 110.288C68.5175 110.293 68.5678 110.308 68.6135 110.333C68.6592 110.358 68.6994 110.392 68.7317 110.432C68.764 110.473 68.7877 110.52 68.8014 110.571C68.8151 110.621 68.8185 110.674 68.8113 110.726L64.1915 148.055C64.1852 148.106 64.1689 148.155 64.1435 148.199C64.1182 148.244 64.0842 148.283 64.0437 148.314C64.0032 148.345 63.957 148.368 63.9076 148.381C63.8583 148.394 63.8069 148.397 63.7564 148.389Z" fill="#0C5AE5"/>
<path d="M71.3708 166.552L37.9697 147.707L71.3708 166.552Z" fill="white"/>
<path d="M71.3703 166.951C71.3069 166.963 71.2418 166.963 71.1784 166.951L37.7773 148.029C37.7272 148.006 37.6823 147.974 37.6454 147.933C37.6086 147.892 37.5806 147.843 37.5632 147.791C37.5459 147.738 37.5396 147.683 37.5447 147.628C37.5498 147.573 37.5662 147.519 37.5929 147.471C37.6196 147.423 37.656 147.381 37.6997 147.347C37.7435 147.314 37.7937 147.29 37.8471 147.277C37.9005 147.264 37.956 147.262 38.0101 147.272C38.0642 147.282 38.1157 147.303 38.1612 147.334L71.5623 166.179C71.6536 166.23 71.7211 166.316 71.7498 166.417C71.7786 166.518 71.7664 166.627 71.7159 166.719C71.6864 166.787 71.6382 166.845 71.5769 166.886C71.5157 166.927 71.444 166.95 71.3703 166.951Z" fill="#2B2762"/>
<path d="M43.2041 161.789L77.1298 180.544L43.2041 161.789Z" fill="white"/>
<path d="M77.1301 180.93C77.0667 180.943 77.0014 180.943 76.9381 180.93L43.0124 162.188C42.921 162.137 42.8536 162.051 42.8248 161.95C42.7961 161.849 42.8083 161.74 42.8588 161.648C42.9123 161.558 42.9975 161.493 43.0973 161.464C43.197 161.435 43.3039 161.446 43.3963 161.493L77.3092 180.209C77.3885 180.248 77.4521 180.312 77.4896 180.392C77.5271 180.473 77.5361 180.563 77.5151 180.649C77.4941 180.735 77.4444 180.811 77.3743 180.865C77.3042 180.918 77.218 180.946 77.1301 180.943V180.93Z" fill="#2B2762"/>
<path d="M35.3975 79.0217L93.6253 220.692L35.3975 79.0217Z" fill="white"/>
<path d="M93.6256 221.091C93.5483 221.091 93.4728 221.068 93.4088 221.024C93.3449 220.981 93.2956 220.919 93.2672 220.846L35.0394 79.1762C35.0187 79.1282 35.008 79.0765 35.0078 79.0241C35.0076 78.9718 35.0181 78.92 35.0384 78.8719C35.0587 78.8237 35.0886 78.7802 35.1262 78.744C35.1637 78.7078 35.2082 78.6797 35.2569 78.6613C35.3521 78.6222 35.4587 78.6218 35.5542 78.6603C35.6497 78.6987 35.7267 78.7729 35.7688 78.8673L93.9967 220.55C94.0348 220.648 94.0333 220.756 93.9926 220.853C93.9519 220.949 93.8753 221.025 93.7791 221.065C93.7308 221.086 93.6781 221.095 93.6256 221.091Z" fill="#2B2762"/>
<path d="M353.744 114.24L350.058 90.7739L355.766 86.1142L340.908 67.6556L335.188 72.3025L313.138 63.7811L311.999 56.4827L288.657 60.2027L289.809 67.5012L271.444 82.4457L264.585 79.8069L256.126 101.985L262.985 104.637L266.671 128.103L260.963 132.763L275.821 151.221L281.541 146.574L303.591 155.096L304.73 162.394L328.073 158.674L326.921 151.376L345.285 136.444L352.132 139.096L360.603 116.917L353.744 114.24ZM326.012 116.248C324.673 119.759 322.329 122.791 319.277 124.962C316.224 127.133 312.601 128.345 308.863 128.444C305.126 128.543 301.444 127.526 298.282 125.52C295.12 123.514 292.62 120.61 291.099 117.175C289.577 113.74 289.103 109.929 289.735 106.223C290.367 102.517 292.078 99.0826 294.651 96.3545C297.224 93.6263 300.543 91.7268 304.189 90.8961C307.835 90.0655 311.644 90.341 315.134 91.6878C319.815 93.4938 323.59 97.0959 325.63 101.702C327.67 106.308 327.808 111.54 326.012 116.248Z" fill="white"/>
<path d="M304.73 162.78C304.647 162.78 304.566 162.753 304.5 162.703C304.457 162.674 304.422 162.636 304.395 162.591C304.369 162.547 304.352 162.497 304.346 162.446L303.246 155.379L281.618 147.012L276.077 151.517C276.001 151.59 275.9 151.63 275.796 151.63C275.691 151.63 275.59 151.59 275.514 151.517L260.656 133.059C260.587 132.981 260.549 132.88 260.549 132.776C260.549 132.671 260.587 132.57 260.656 132.492L266.185 127.987L262.576 104.972L255.921 102.397C255.872 102.379 255.828 102.351 255.79 102.315C255.752 102.279 255.721 102.236 255.7 102.188C255.679 102.14 255.667 102.089 255.665 102.036C255.664 101.984 255.672 101.932 255.691 101.883L264.15 79.7039C264.194 79.6074 264.272 79.5299 264.367 79.4851C264.462 79.4472 264.567 79.4472 264.662 79.4851L271.316 82.0595L289.322 67.4111L288.209 60.3315C288.198 60.2804 288.197 60.2275 288.208 60.1763C288.22 60.1252 288.242 60.0771 288.273 60.0354C288.336 59.9534 288.427 59.8982 288.529 59.8809L311.871 56.1609C311.974 56.1426 312.08 56.1657 312.166 56.2253C312.254 56.2903 312.313 56.3872 312.332 56.4956L313.432 63.5624L335.06 71.9163L340.601 67.4111C340.675 67.3395 340.774 67.2995 340.876 67.2995C340.979 67.2995 341.078 67.3395 341.151 67.4111L356.009 85.8697C356.046 85.9057 356.075 85.9487 356.095 85.9962C356.115 86.0438 356.125 86.0948 356.125 86.1464C356.125 86.198 356.115 86.2491 356.095 86.2966C356.075 86.3442 356.046 86.3872 356.009 86.4232L350.468 90.9413L354.09 113.957L360.731 116.531C360.78 116.548 360.824 116.575 360.862 116.61C360.9 116.644 360.93 116.686 360.952 116.733C360.973 116.78 360.985 116.831 360.987 116.882C360.989 116.934 360.98 116.985 360.962 117.033L352.49 139.212C352.472 139.26 352.445 139.304 352.41 139.342C352.374 139.379 352.332 139.41 352.285 139.43C352.237 139.452 352.185 139.464 352.132 139.464C352.079 139.464 352.026 139.452 351.978 139.43L345.349 136.856L327.33 151.517L328.457 158.597C328.463 158.647 328.46 158.698 328.447 158.746C328.434 158.795 328.411 158.841 328.38 158.88C328.317 158.965 328.226 159.025 328.124 159.047L304.781 162.767L304.73 162.78ZM281.542 146.175C281.588 146.162 281.636 146.162 281.682 146.175L303.732 154.697C303.796 154.72 303.854 154.759 303.899 154.811C303.944 154.863 303.974 154.925 303.988 154.993L305.063 161.905L327.612 158.327L326.524 151.414C326.512 151.345 326.518 151.274 326.543 151.208C326.568 151.142 326.61 151.084 326.665 151.041L345.029 136.097C345.088 136.065 345.154 136.048 345.221 136.048C345.288 136.048 345.354 136.065 345.413 136.097L351.888 138.594L360.092 117.136L353.603 114.562C353.539 114.537 353.482 114.495 353.44 114.441C353.397 114.386 353.369 114.321 353.36 114.253L349.675 90.7868C349.662 90.7176 349.668 90.6462 349.693 90.5804C349.718 90.5147 349.76 90.4569 349.815 90.4135L355.216 86.0113L340.857 68.222L335.444 72.6114C335.389 72.6555 335.323 72.6846 335.254 72.6959C335.184 72.7072 335.113 72.7003 335.047 72.6758L312.997 64.1545C312.933 64.1297 312.876 64.0879 312.834 64.0335C312.791 63.9792 312.763 63.9142 312.754 63.8455L311.679 56.9461L289.105 60.4988L290.205 67.4111C290.211 67.478 290.201 67.5453 290.177 67.6078C290.152 67.6703 290.114 67.7263 290.065 67.7715L271.7 82.7546C271.64 82.7884 271.571 82.8062 271.502 82.8062C271.433 82.8062 271.364 82.7884 271.304 82.7546L264.815 80.1802L256.638 101.625L263.126 104.2C263.191 104.226 263.248 104.268 263.293 104.322C263.337 104.375 263.368 104.44 263.382 104.508L267.068 127.974C267.073 128.041 267.064 128.108 267.039 128.171C267.015 128.233 266.976 128.289 266.927 128.335L261.514 132.75L275.885 150.603L281.298 146.201C281.375 146.167 281.46 146.158 281.542 146.175ZM308.416 128.85C305.284 128.849 302.199 128.083 299.427 126.616C296.655 125.15 294.279 123.027 292.505 120.431C290.73 117.836 289.61 114.845 289.24 111.716C288.871 108.588 289.264 105.416 290.384 102.475C292.435 97.9934 296.105 94.4655 300.649 92.6081C305.193 90.7507 310.269 90.703 314.846 92.4748C319.423 94.2466 323.158 97.7049 325.292 102.147C327.425 106.589 327.797 111.681 326.332 116.389C324.935 120.035 322.478 123.174 319.283 125.396C316.087 127.618 312.301 128.822 308.416 128.85ZM308.416 90.8254C305.658 90.8214 302.934 91.4374 300.444 92.6284C297.953 93.8193 295.759 95.5552 294.021 97.709C292.283 99.8628 291.046 102.38 290.399 105.077C289.753 107.773 289.714 110.581 290.286 113.295C290.857 116.008 292.024 118.559 293.702 120.761C295.379 122.963 297.525 124.759 299.982 126.02C302.438 127.28 305.144 127.972 307.901 128.045C310.658 128.118 313.396 127.571 315.915 126.442C319.786 124.709 322.949 121.692 324.874 117.895C326.799 114.098 327.37 109.752 326.492 105.582C325.614 101.412 323.34 97.6722 320.05 94.9863C316.76 92.3004 312.653 90.8316 308.416 90.8254Z" fill="#2B2762"/>
<path d="M58.7397 106.838H304.448C305.48 106.845 306.501 107.056 307.452 107.46C308.402 107.863 309.265 108.451 309.99 109.19C310.715 109.928 311.288 110.803 311.676 111.765C312.065 112.726 312.262 113.755 312.255 114.793V259.784H50.8693V114.793C50.8625 113.75 51.0612 112.716 51.4539 111.75C51.8465 110.784 52.4254 109.906 53.1571 109.167C53.8887 108.427 54.7587 107.841 55.7169 107.441C56.6751 107.041 57.7024 106.837 58.7397 106.838Z" fill="#756FBF"/>
<path d="M300.289 117.741H62.8984V248.933H300.289V117.741Z" fill="white"/>
<path d="M38.5579 259.784H324.617V264.496C324.617 265.473 324.425 266.44 324.054 267.343C323.682 268.245 323.137 269.066 322.45 269.757C321.763 270.447 320.948 270.995 320.051 271.369C319.153 271.743 318.191 271.936 317.22 271.936H45.9164C43.9546 271.936 42.0732 271.152 40.686 269.757C39.2988 268.361 38.5195 266.469 38.5195 264.496V259.784H38.5579Z" fill="white"/>
<path d="M317.22 272.322H45.9166C43.8519 272.322 41.8715 271.498 40.4103 270.03C38.949 268.563 38.1264 266.572 38.123 264.495V259.784C38.123 259.733 38.1334 259.681 38.1534 259.634C38.1735 259.586 38.203 259.543 38.24 259.507C38.277 259.471 38.3208 259.442 38.3689 259.424C38.417 259.405 38.4683 259.396 38.5198 259.398H324.617C324.668 259.396 324.72 259.405 324.768 259.424C324.816 259.442 324.86 259.471 324.897 259.507C324.934 259.543 324.963 259.586 324.983 259.634C325.003 259.681 325.014 259.733 325.014 259.784V264.495C325.01 266.572 324.188 268.563 322.727 270.03C321.265 271.498 319.285 272.322 317.22 272.322ZM38.9549 260.183V264.495C38.9464 265.426 39.1212 266.348 39.4692 267.21C39.8173 268.071 40.3315 268.855 40.9824 269.516C41.6333 270.177 42.4078 270.701 43.2613 271.059C44.1148 271.417 45.0303 271.601 45.955 271.601H317.259C319.115 271.601 320.896 270.859 322.208 269.539C323.521 268.218 324.259 266.427 324.259 264.56V260.248L38.9549 260.183Z" fill="#2B2762"/>
<path d="M161.246 259.784H201.916V260.879C201.916 262.067 201.447 263.206 200.612 264.046C199.776 264.886 198.644 265.358 197.463 265.358H165.712C164.531 265.358 163.398 264.886 162.563 264.046C161.728 263.206 161.259 262.067 161.259 260.879V259.784H161.246Z" fill="#2B2762"/>
<path d="M334.292 147.913H219.538C214.202 147.913 209.876 152.264 209.876 157.632V228.454C209.876 233.821 214.202 238.172 219.538 238.172H334.292C339.628 238.172 343.954 233.821 343.954 228.454V157.632C343.954 152.264 339.628 147.913 334.292 147.913Z" fill="white"/>
<path d="M334.305 238.558H219.538C216.873 238.555 214.317 237.488 212.434 235.59C210.55 233.693 209.492 231.122 209.492 228.441V157.644C209.492 154.963 210.55 152.392 212.434 150.495C214.317 148.598 216.873 147.53 219.538 147.527H334.305C336.97 147.53 339.525 148.598 341.409 150.495C343.292 152.392 344.35 154.963 344.35 157.644V228.441C344.35 231.122 343.292 233.693 341.409 235.59C339.525 237.488 336.97 238.555 334.305 238.558ZM219.538 148.312C217.081 148.312 214.724 149.294 212.987 151.042C211.249 152.789 210.273 155.16 210.273 157.632V228.428C210.273 230.901 211.249 233.273 212.986 235.022C214.723 236.772 217.08 237.757 219.538 237.76H334.305C336.763 237.757 339.12 236.772 340.857 235.022C342.594 233.273 343.57 230.901 343.57 228.428V157.632C343.57 156.408 343.33 155.196 342.865 154.065C342.399 152.935 341.716 151.907 340.856 151.042C339.996 150.176 338.974 149.49 337.85 149.022C336.726 148.553 335.521 148.312 334.305 148.312H219.538Z" fill="#2B2762"/>
<path d="M343.967 272.322H19.4778C19.4263 272.323 19.375 272.315 19.3269 272.296C19.2789 272.278 19.235 272.249 19.198 272.213C19.161 272.177 19.1315 272.134 19.1115 272.086C19.0914 272.039 19.081 271.987 19.0811 271.936C19.0811 271.83 19.1229 271.728 19.1973 271.653C19.2717 271.579 19.3726 271.537 19.4778 271.537H343.967C344.019 271.537 344.069 271.547 344.117 271.567C344.164 271.587 344.207 271.617 344.243 271.654C344.279 271.691 344.307 271.736 344.325 271.784C344.344 271.832 344.353 271.884 344.351 271.936C344.353 271.987 344.344 272.038 344.325 272.085C344.307 272.133 344.278 272.176 344.242 272.213C344.206 272.249 344.163 272.277 344.116 272.296C344.069 272.315 344.018 272.324 343.967 272.322Z" fill="#2B2762"/>
<path d="M105.373 188.344H189.234V138.298L105.373 150.899V188.344Z" fill="#C42128"/>
<path d="M137.443 55.5817C137.443 55.5817 147.093 42.7096 150.637 41.4224C154.861 43.5591 161.989 50.6903 161.989 50.6903L158.444 54.5519L163.012 52.4666L167.875 57.5125L151.431 73.5511L137.443 55.5817Z" fill="#2B2762"/>
<path d="M222.673 104.264C222.673 104.264 222.2 93.9662 226.743 90.6452C228.893 89.1006 237.569 85.6509 237.569 85.6509L239.31 89.0234L233.461 92.0612L246.054 92.5889L252.606 86.6935L255.089 88.6758L247.411 100.621L237.761 104.264H222.673Z" fill="white"/>
<path d="M237.762 104.637H222.674C222.573 104.637 222.476 104.599 222.402 104.529C222.328 104.46 222.284 104.365 222.277 104.264C222.277 103.826 221.842 93.6701 226.526 90.3105C228.676 88.753 237.058 85.4062 237.417 85.2646C237.509 85.2339 237.609 85.2364 237.7 85.2716C237.791 85.3068 237.867 85.3726 237.916 85.4577L239.707 88.8173C239.729 88.8658 239.741 88.9185 239.741 88.9718C239.741 89.0251 239.729 89.0778 239.707 89.1263C239.674 89.2245 239.605 89.3069 239.515 89.358L234.985 91.7007L245.927 92.1641L252.325 86.3716C252.395 86.3118 252.483 86.2789 252.575 86.2789C252.666 86.2789 252.755 86.3118 252.825 86.3716L255.307 88.3411C255.387 88.4003 255.441 88.4884 255.458 88.5868C255.474 88.6852 255.453 88.7863 255.397 88.8688L247.718 100.814C247.674 100.889 247.606 100.948 247.526 100.981L237.775 104.599C237.772 104.612 237.767 104.625 237.762 104.637ZM223.084 103.852H237.698L247.258 100.299L254.667 88.8173L252.722 87.2727L246.413 92.9493C246.376 92.9852 246.332 93.0129 246.283 93.0306C246.235 93.0483 246.183 93.0557 246.132 93.0522L233.552 92.5245C233.464 92.5183 233.38 92.4836 233.313 92.4256C233.246 92.3676 233.2 92.2894 233.181 92.2027C233.162 92.1173 233.173 92.0282 233.21 91.9491C233.247 91.87 233.308 91.8054 233.385 91.765L238.824 88.8173L237.404 86.1013C235.804 86.7449 228.855 89.5897 227 90.9155C223.16 93.7216 223.058 101.973 223.084 103.852Z" fill="#2B2762"/>
<path d="M104.157 319.601L117.249 306.059H128.306V319.601H104.157Z" fill="#2B2762"/>
<path d="M176.168 319.601L167.697 306.059H156.64V319.601H176.168Z" fill="#2B2762"/>
<path d="M182.643 188.1V309.651H148.73V212.685H144.315L138.096 309.651H104.157L110.377 212.685L111.964 188.1H182.643Z" fill="white"/>
<path d="M182.643 310.05H148.73C148.625 310.05 148.524 310.008 148.45 309.933C148.375 309.858 148.334 309.757 148.334 309.651V213.11H144.674L138.48 309.651C138.473 309.752 138.428 309.847 138.355 309.916C138.281 309.986 138.184 310.024 138.083 310.024H104.157C104.05 310.02 103.949 309.974 103.876 309.895C103.838 309.856 103.81 309.81 103.792 309.759C103.774 309.708 103.768 309.653 103.773 309.599L111.567 188.048C111.576 187.948 111.622 187.855 111.695 187.786C111.768 187.717 111.864 187.678 111.964 187.675H182.643C182.695 187.675 182.747 187.685 182.795 187.705C182.843 187.725 182.887 187.755 182.924 187.792C182.961 187.829 182.99 187.873 183.01 187.921C183.03 187.97 183.04 188.022 183.04 188.074V309.625C183.043 309.68 183.036 309.734 183.017 309.786C182.999 309.837 182.97 309.884 182.933 309.924C182.896 309.964 182.851 309.996 182.801 310.017C182.751 310.039 182.698 310.05 182.643 310.05ZM149.127 309.252H182.259V188.486H112.335L104.58 309.252H137.725L143.919 212.711C143.925 212.612 143.968 212.519 144.039 212.45C144.11 212.381 144.204 212.341 144.302 212.338H148.73C148.836 212.338 148.936 212.38 149.011 212.455C149.085 212.53 149.127 212.631 149.127 212.737V309.252Z" fill="#2B2762"/>
<path d="M198.806 128.026C198.806 99.926 177.409 87.3886 149.485 86.7192H147.745C105.731 86.7192 92.4731 117.445 90.4767 122.761C86.0488 134.565 73.5714 171.572 113.768 188.692C125.861 193.841 134.487 181.355 140.949 178.008C145.932 175.302 151.058 172.874 156.306 170.735L198.806 128.026Z" fill="#C42128"/>
<path d="M191.139 178.027L144.4 131.015L84.3054 191.461L131.044 238.473L191.139 178.027Z" fill="#756FBF"/>
<path d="M183.489 174.851L147.564 138.717L95.2789 191.308L131.204 227.442L183.489 174.851Z" fill="white"/>
<path d="M180.2 162.253L173.942 168.547L153.824 148.325L160.082 142.031L166.941 148.917C167.826 148.294 168.901 148.004 169.977 148.099C171.053 148.193 172.062 148.666 172.826 149.435C173.59 150.203 174.06 151.217 174.154 152.3C174.248 153.382 173.96 154.463 173.34 155.353L180.2 162.253Z" fill="white"/>
<path d="M173.941 168.946C173.889 168.946 173.838 168.936 173.789 168.916C173.741 168.896 173.697 168.867 173.66 168.83L153.568 148.595C153.529 148.559 153.499 148.516 153.479 148.467C153.459 148.418 153.45 148.365 153.453 148.312C153.449 148.259 153.458 148.206 153.478 148.157C153.498 148.108 153.529 148.064 153.568 148.029L159.826 141.734C159.863 141.697 159.907 141.667 159.955 141.647C160.003 141.627 160.055 141.617 160.108 141.617C160.16 141.617 160.212 141.627 160.26 141.647C160.308 141.667 160.352 141.697 160.389 141.734L167.018 148.402C167.974 147.823 169.095 147.582 170.202 147.718C171.31 147.855 172.34 148.36 173.128 149.155C173.916 149.949 174.417 150.986 174.551 152.1C174.684 153.215 174.443 154.342 173.865 155.302L180.507 161.969C180.578 162.041 180.619 162.138 180.622 162.24C180.618 162.345 180.578 162.446 180.507 162.523L174.249 168.817C174.21 168.86 174.162 168.893 174.109 168.916C174.056 168.938 173.999 168.948 173.941 168.946ZM154.374 148.351L173.941 168.032L179.636 162.291L173.058 155.675C172.999 155.605 172.966 155.516 172.966 155.424C172.966 155.332 172.999 155.243 173.058 155.173C173.636 154.36 173.909 153.368 173.827 152.372C173.746 151.377 173.317 150.442 172.615 149.735C171.914 149.028 170.986 148.594 169.996 148.51C169.006 148.426 168.019 148.698 167.21 149.278C167.14 149.341 167.049 149.376 166.954 149.376C166.86 149.376 166.769 149.341 166.698 149.278L160.12 142.661L154.374 148.351Z" fill="#2B2762"/>
<path d="M137.443 158.546C137.351 158.541 137.262 158.51 137.188 158.455C137.136 158.41 137.097 158.351 137.074 158.286C137.052 158.22 137.047 158.15 137.06 158.082L137.507 155.237C137.513 155.186 137.53 155.136 137.556 155.091C137.583 155.046 137.618 155.007 137.66 154.977C137.703 154.946 137.751 154.925 137.801 154.915C137.852 154.904 137.905 154.904 137.955 154.916C138.059 154.931 138.151 154.988 138.214 155.072C138.276 155.156 138.303 155.262 138.288 155.366L137.93 157.58L142.55 156.126C142.598 156.11 142.65 156.104 142.701 156.108C142.752 156.113 142.801 156.127 142.847 156.151C142.892 156.175 142.932 156.208 142.965 156.248C142.997 156.288 143.021 156.334 143.036 156.383C143.065 156.484 143.054 156.592 143.007 156.685C142.959 156.778 142.878 156.85 142.78 156.885L137.559 158.533L137.443 158.546Z" fill="#2B2762"/>
<path d="M165.38 183.196C165.329 183.196 165.28 183.185 165.233 183.165C165.187 183.145 165.146 183.116 165.111 183.08L142.626 160.476C142.589 160.439 142.559 160.395 142.539 160.346C142.519 160.298 142.509 160.246 142.509 160.193C142.509 160.14 142.519 160.088 142.539 160.04C142.559 159.991 142.589 159.947 142.626 159.91C142.703 159.84 142.804 159.802 142.908 159.802C143.011 159.802 143.112 159.84 143.189 159.91L165.661 182.526C165.698 182.562 165.727 182.605 165.747 182.653C165.767 182.7 165.777 182.751 165.777 182.803C165.777 182.854 165.767 182.906 165.747 182.953C165.727 183.001 165.698 183.044 165.661 183.08C165.624 183.117 165.58 183.146 165.532 183.166C165.484 183.186 165.432 183.196 165.38 183.196Z" fill="#2B2762"/>
<path d="M131.352 164.685C131.253 164.685 131.158 164.648 131.083 164.582C131.032 164.54 130.992 164.483 130.97 164.42C130.947 164.357 130.942 164.288 130.955 164.222L131.403 161.377C131.419 161.273 131.475 161.18 131.559 161.117C131.643 161.055 131.748 161.028 131.851 161.043C131.955 161.062 132.048 161.12 132.11 161.207C132.172 161.293 132.199 161.401 132.184 161.506L131.838 163.72L136.445 162.253C136.495 162.237 136.547 162.232 136.599 162.237C136.65 162.242 136.701 162.258 136.746 162.283C136.792 162.308 136.831 162.343 136.863 162.384C136.895 162.425 136.918 162.472 136.932 162.523C136.947 162.572 136.953 162.624 136.949 162.675C136.945 162.726 136.93 162.776 136.906 162.822C136.882 162.867 136.85 162.908 136.81 162.94C136.77 162.973 136.725 162.997 136.676 163.012L131.467 164.66L131.352 164.685Z" fill="#2B2762"/>
<path d="M159.289 189.335C159.237 189.336 159.185 189.326 159.137 189.306C159.088 189.286 159.044 189.257 159.007 189.22L136.535 166.616C136.498 166.579 136.469 166.535 136.448 166.486C136.428 166.438 136.418 166.386 136.418 166.333C136.418 166.28 136.428 166.228 136.448 166.18C136.469 166.131 136.498 166.087 136.535 166.05C136.571 166.013 136.614 165.983 136.661 165.963C136.708 165.943 136.759 165.933 136.81 165.933C136.862 165.933 136.912 165.943 136.96 165.963C137.007 165.983 137.05 166.013 137.085 166.05L159.558 188.653C159.595 188.69 159.624 188.734 159.644 188.783C159.664 188.832 159.675 188.884 159.675 188.936C159.675 188.989 159.664 189.041 159.644 189.09C159.624 189.138 159.595 189.182 159.558 189.22C159.487 189.292 159.39 189.334 159.289 189.335Z" fill="#2B2762"/>
<path d="M125.248 170.813C125.154 170.816 125.063 170.784 124.992 170.722C124.943 170.677 124.904 170.621 124.88 170.559C124.855 170.496 124.846 170.429 124.851 170.362L125.299 167.517C125.318 167.412 125.376 167.319 125.462 167.256C125.548 167.194 125.655 167.168 125.76 167.183C125.861 167.201 125.95 167.259 126.01 167.343C126.07 167.427 126.095 167.531 126.08 167.633L125.734 169.911L130.341 168.457C130.391 168.439 130.444 168.432 130.497 168.436C130.55 168.439 130.601 168.453 130.648 168.477C130.696 168.5 130.738 168.533 130.772 168.574C130.807 168.614 130.833 168.661 130.849 168.712C130.865 168.762 130.871 168.816 130.867 168.868C130.862 168.921 130.847 168.973 130.822 169.02C130.798 169.067 130.764 169.109 130.723 169.142C130.682 169.176 130.635 169.201 130.584 169.216L125.414 170.8L125.248 170.813Z" fill="#2B2762"/>
<path d="M153.184 195.475C153.132 195.476 153.08 195.466 153.032 195.446C152.983 195.426 152.94 195.397 152.902 195.36L130.43 172.743C130.357 172.67 130.316 172.57 130.316 172.467C130.316 172.363 130.357 172.263 130.43 172.19C130.503 172.116 130.602 172.075 130.706 172.075C130.809 172.075 130.908 172.116 130.981 172.19L153.466 194.793C153.503 194.83 153.532 194.874 153.552 194.923C153.572 194.972 153.583 195.024 153.583 195.076C153.583 195.129 153.572 195.181 153.552 195.23C153.532 195.278 153.503 195.323 153.466 195.36C153.429 195.397 153.385 195.426 153.336 195.446C153.288 195.466 153.236 195.476 153.184 195.475Z" fill="#2B2762"/>
<path d="M145.711 94.3009C147.747 94.3009 149.7 93.4872 151.14 92.0388C152.58 90.5904 153.389 88.6259 153.389 86.5776V61.5671H138.032V86.6033C138.039 88.6472 138.851 90.605 140.29 92.0479C141.729 93.4907 143.679 94.3009 145.711 94.3009Z" fill="white"/>
<path d="M145.711 94.6999C143.575 94.6999 141.526 93.8473 140.014 92.3292C138.503 90.8112 137.652 88.7519 137.648 86.6033V61.5671C137.648 61.4613 137.69 61.3598 137.765 61.285C137.839 61.2101 137.94 61.1681 138.045 61.1681H153.402C153.507 61.1681 153.608 61.2101 153.682 61.285C153.757 61.3598 153.799 61.4613 153.799 61.5671V86.6033C153.799 87.6698 153.589 88.7259 153.182 89.7107C152.775 90.6955 152.179 91.5898 151.427 92.3422C150.676 93.0945 149.784 93.6901 148.803 94.0947C147.822 94.4993 146.771 94.705 145.711 94.6999ZM138.442 61.9533V86.6033C138.521 88.4877 139.32 90.2685 140.673 91.5739C142.027 92.8792 143.829 93.608 145.704 93.608C147.579 93.608 149.382 92.8792 150.735 91.5739C152.089 90.2685 152.888 88.4877 152.967 86.6033V61.9533H138.442Z" fill="#2B2762"/>
<path d="M160.056 69.4192C159.838 69.937 159.521 70.4064 159.122 70.8006C158.724 71.1949 158.252 71.5061 157.733 71.7166C157.215 71.927 156.661 72.0326 156.102 72.0271C155.543 72.0216 154.99 71.9052 154.476 71.6847C154.147 71.5452 153.837 71.3635 153.555 71.144C152.706 72.4362 151.599 73.5365 150.304 74.3749C148.23 75.724 145.775 76.3558 143.312 76.1745C140.848 75.9932 138.511 75.0086 136.654 73.3702C134.798 71.7318 133.523 69.5289 133.023 67.0958C132.524 64.6627 132.827 62.1322 133.887 59.8882C134.947 57.6441 136.706 55.809 138.896 54.6613C141.087 53.5135 143.59 53.1158 146.026 53.5285C148.461 53.9411 150.697 55.1416 152.393 56.9477C154.089 58.7539 155.153 61.0672 155.423 63.5366C156.23 63.3897 157.062 63.4837 157.816 63.807C158.851 64.2546 159.668 65.0964 160.088 66.1481C160.507 67.1998 160.496 68.3759 160.056 69.4192Z" fill="white"/>
<path d="M144.124 76.6146C141.877 76.6122 139.678 75.9611 137.789 74.7387C135.899 73.5164 134.398 71.7741 133.464 69.7189C132.53 67.6638 132.202 65.3821 132.519 63.1449C132.836 60.9077 133.785 58.8091 135.253 57.0984C136.721 55.3877 138.646 54.1368 140.8 53.4943C142.954 52.8518 145.246 52.8448 147.404 53.4739C149.562 54.1031 151.495 55.3421 152.973 57.0437C154.451 58.7453 155.413 60.838 155.744 63.0732C156.732 62.9938 157.72 63.233 158.565 63.756C159.409 64.279 160.066 65.0587 160.44 65.9823C160.678 66.5486 160.8 67.1569 160.8 67.7715C160.8 68.386 160.678 68.9944 160.44 69.5607C160.205 70.1318 159.86 70.6504 159.425 71.0868C158.989 71.5231 158.473 71.8684 157.904 72.103C157.335 72.3375 156.726 72.4565 156.112 72.4532C155.497 72.4499 154.889 72.3243 154.323 72.0836C154.091 71.984 153.868 71.8634 153.658 71.7232C152.804 72.8901 151.741 73.8855 150.523 74.658C148.623 75.92 146.4 76.5997 144.124 76.6146ZM144.124 53.7924C142.23 53.7877 140.367 54.277 138.717 55.2126C137.067 56.1482 135.687 57.4981 134.71 59.1306C133.734 60.763 133.195 62.6222 133.146 64.5267C133.097 66.4312 133.54 68.3159 134.431 69.9968C135.323 71.6777 136.632 73.0974 138.232 74.1173C139.832 75.1373 141.667 75.7226 143.559 75.8161C145.451 75.9096 147.334 75.5082 149.026 74.6509C150.717 73.7937 152.159 72.51 153.21 70.9251C153.253 70.8742 153.309 70.8356 153.372 70.813C153.435 70.7904 153.503 70.7847 153.568 70.7964C153.62 70.7858 153.673 70.7873 153.724 70.8007C153.775 70.8141 153.823 70.839 153.863 70.8736C154.118 71.0712 154.398 71.2355 154.694 71.3628C155.164 71.5739 155.671 71.688 156.185 71.6983C156.699 71.7087 157.21 71.615 157.687 71.4229C158.165 71.2308 158.599 70.9442 158.964 70.5801C159.329 70.216 159.618 69.7818 159.813 69.3033C160.093 68.6602 160.192 67.9527 160.102 67.2569C160.012 66.561 159.734 65.9031 159.3 65.3539C158.866 64.8046 158.291 64.3847 157.638 64.1394C156.984 63.894 156.276 63.8325 155.59 63.9613C155.542 63.9834 155.49 63.9948 155.437 63.9948C155.384 63.9948 155.331 63.9834 155.283 63.9613C155.239 63.9281 155.202 63.8855 155.176 63.8366C155.149 63.7878 155.133 63.7337 155.13 63.6782C154.925 61.7092 154.196 59.8321 153.021 58.2443C151.845 56.6565 150.266 55.4165 148.449 54.6548C147.087 54.0825 145.626 53.7893 144.149 53.7924H144.124Z" fill="#2B2762"/>
<path d="M153.466 68.8013C153.407 68.82 153.345 68.82 153.287 68.8013C153.24 68.7794 153.198 68.7481 153.163 68.7093C153.128 68.6706 153.102 68.6252 153.085 68.5759C153.068 68.5266 153.062 68.4744 153.066 68.4224C153.069 68.3705 153.084 68.3198 153.107 68.2736C153.439 67.6748 153.976 67.2174 154.618 66.9863C154.929 66.9063 155.254 66.8925 155.571 66.9456C155.889 66.9988 156.191 67.1179 156.46 67.2953C156.547 67.3511 156.61 67.4377 156.636 67.5379C156.662 67.6381 156.65 67.7445 156.601 67.8359C156.575 67.882 156.539 67.9224 156.497 67.9546C156.455 67.9868 156.407 68.0102 156.356 68.0234C156.304 68.0366 156.251 68.0393 156.199 68.0314C156.146 68.0235 156.096 68.0052 156.051 67.9775C155.868 67.8454 155.658 67.7561 155.437 67.716C155.216 67.6759 154.988 67.6861 154.771 67.7458C154.33 67.9135 153.965 68.2389 153.747 68.6597C153.714 68.7026 153.671 68.7376 153.622 68.762C153.574 68.7865 153.52 68.7999 153.466 68.8013Z" fill="#2B2762"/>
<path d="M180.2 142.031C180.2 142.031 184.679 162.626 209.736 158.146C234.793 153.667 240.948 104.264 240.948 104.264H221.56L207.381 132.788C207.381 132.788 197.143 105.976 184.218 96.7466C176.36 91.173 180.2 142.031 180.2 142.031Z" fill="#C42128"/>
<path d="M188.94 155.752C188.834 155.752 188.734 155.71 188.659 155.635C188.585 155.561 188.543 155.459 188.543 155.353V133.973C188.543 133.867 188.585 133.765 188.659 133.69C188.734 133.616 188.834 133.574 188.94 133.574C189.045 133.574 189.146 133.616 189.22 133.69C189.295 133.765 189.336 133.867 189.336 133.973V155.302C189.344 155.358 189.339 155.416 189.322 155.47C189.306 155.525 189.278 155.575 189.24 155.618C189.202 155.66 189.156 155.695 189.104 155.718C189.053 155.741 188.996 155.753 188.94 155.752Z" fill="white"/>
<path d="M148.552 54.2944C153.466 56.753 155.258 62.8158 151.93 66.0209L155.398 63.5366L160.927 60.0096C160.927 60.0096 150.523 52.3121 148.552 54.2944Z" fill="#2B2762"/>
<path d="M130.866 184.071L137.917 191.202L143.599 197.96L141.206 200.367L143.305 203.147L131.531 212.351L116.238 193.854L130.866 184.071Z" fill="white"/>
<path d="M131.531 212.75C131.475 212.749 131.419 212.735 131.369 212.711C131.318 212.687 131.273 212.652 131.237 212.608L115.88 194.111C115.814 194.022 115.782 193.913 115.79 193.802C115.799 193.745 115.82 193.691 115.851 193.642C115.882 193.593 115.922 193.551 115.969 193.519L130.597 183.736C130.668 183.681 130.756 183.651 130.846 183.651C130.937 183.651 131.024 183.681 131.096 183.736L138.147 190.88L143.855 197.651C143.92 197.726 143.955 197.822 143.955 197.921C143.955 198.021 143.92 198.117 143.855 198.192L141.705 200.354L143.599 202.864C143.631 202.904 143.654 202.95 143.668 202.999C143.681 203.049 143.685 203.101 143.677 203.151C143.67 203.202 143.653 203.251 143.626 203.294C143.599 203.338 143.564 203.375 143.522 203.405L131.749 212.608C131.723 212.645 131.691 212.677 131.654 212.701C131.617 212.726 131.575 212.742 131.531 212.75ZM116.814 193.944L131.595 211.797L142.767 203.07L140.899 200.612C140.838 200.54 140.805 200.448 140.805 200.354C140.805 200.26 140.838 200.169 140.899 200.097L143.023 197.947L137.584 191.511L130.776 184.637L116.814 193.944Z" fill="#2B2762"/>
<path d="M140.86 205.323C140.804 205.321 140.749 205.308 140.698 205.284C140.647 205.259 140.602 205.224 140.566 205.181L135.447 199.389C135.413 199.349 135.386 199.303 135.369 199.253C135.353 199.203 135.346 199.15 135.35 199.097C135.353 199.045 135.367 198.993 135.39 198.946C135.414 198.899 135.446 198.857 135.485 198.822C135.525 198.788 135.571 198.761 135.62 198.744C135.67 198.727 135.723 198.721 135.775 198.724C135.827 198.728 135.878 198.742 135.925 198.765C135.972 198.789 136.014 198.821 136.048 198.861L141.167 204.666C141.206 204.701 141.237 204.744 141.258 204.791C141.279 204.839 141.289 204.891 141.289 204.943C141.289 204.995 141.279 205.047 141.258 205.094C141.237 205.142 141.206 205.185 141.167 205.22C141.127 205.258 141.078 205.287 141.025 205.305C140.972 205.323 140.916 205.329 140.86 205.323Z" fill="#2B2762"/>
<path d="M137.546 207.601C137.491 207.603 137.435 207.593 137.384 207.57C137.333 207.548 137.288 207.514 137.252 207.472L132.133 201.667C132.096 201.631 132.067 201.588 132.047 201.54C132.027 201.493 132.017 201.442 132.017 201.39C132.017 201.339 132.027 201.287 132.047 201.24C132.067 201.192 132.096 201.149 132.133 201.113C132.207 201.042 132.305 201.002 132.408 201.002C132.511 201.002 132.609 201.042 132.683 201.113L137.802 206.919C137.839 206.956 137.869 207 137.889 207.049C137.909 207.097 137.919 207.149 137.919 207.202C137.919 207.255 137.909 207.307 137.889 207.355C137.869 207.404 137.839 207.448 137.802 207.485C137.734 207.554 137.643 207.595 137.546 207.601Z" fill="#2B2762"/>
<path d="M134.372 210.111C134.317 210.112 134.262 210.101 134.211 210.079C134.16 210.057 134.115 210.024 134.078 209.982L128.959 204.177C128.922 204.141 128.893 204.098 128.873 204.05C128.853 204.003 128.843 203.952 128.843 203.9C128.843 203.849 128.853 203.798 128.873 203.75C128.893 203.703 128.922 203.66 128.959 203.624C128.996 203.586 129.04 203.557 129.088 203.536C129.136 203.516 129.188 203.506 129.24 203.506C129.293 203.506 129.345 203.516 129.393 203.536C129.441 203.557 129.485 203.586 129.522 203.624L134.641 209.416C134.678 209.453 134.708 209.497 134.728 209.546C134.748 209.594 134.758 209.646 134.758 209.699C134.758 209.752 134.748 209.804 134.728 209.852C134.708 209.901 134.678 209.945 134.641 209.982C134.607 210.021 134.566 210.053 134.52 210.075C134.474 210.097 134.423 210.109 134.372 210.111Z" fill="#2B2762"/>
<path d="M141.282 200.882C141.225 200.884 141.168 200.874 141.115 200.851C141.062 200.829 141.014 200.796 140.975 200.753L137.251 196.415C137.214 196.378 137.184 196.334 137.164 196.285C137.144 196.237 137.134 196.185 137.134 196.132C137.134 196.079 137.144 196.027 137.164 195.979C137.184 195.93 137.214 195.886 137.251 195.849C137.325 195.777 137.424 195.737 137.526 195.737C137.629 195.737 137.727 195.777 137.801 195.849L141.538 200.2C141.588 200.256 141.621 200.325 141.632 200.4C141.643 200.474 141.632 200.55 141.601 200.618C141.57 200.687 141.519 200.744 141.456 200.784C141.392 200.824 141.319 200.845 141.244 200.843L141.282 200.882Z" fill="#2B2762"/>
<path d="M111.989 135.041C108.662 142.172 109.558 149.535 112.373 156.28C118.541 171.121 133.949 183.015 133.949 183.015L114.446 197.638C114.446 197.638 88.3013 175.331 86.8936 160.232L111.989 135.041Z" fill="#C42128"/>
<path d="M112.374 156.679C112.295 156.68 112.217 156.657 112.151 156.614C112.085 156.57 112.033 156.508 112.003 156.434C108.752 148.595 108.624 141.335 111.632 134.874C111.65 134.821 111.679 134.774 111.717 134.733C111.755 134.693 111.801 134.661 111.852 134.64C111.903 134.618 111.958 134.608 112.013 134.609C112.068 134.61 112.122 134.623 112.172 134.646C112.222 134.669 112.267 134.703 112.303 134.745C112.34 134.786 112.367 134.835 112.384 134.888C112.4 134.941 112.406 134.997 112.4 135.052C112.393 135.107 112.376 135.16 112.348 135.208C109.431 141.464 109.559 148.505 112.732 156.125C112.753 156.173 112.765 156.224 112.766 156.275C112.767 156.327 112.757 156.378 112.738 156.426C112.719 156.474 112.691 156.518 112.654 156.555C112.618 156.592 112.575 156.621 112.527 156.64L112.374 156.679Z" fill="white"/>
<path d="M327.407 162.124H226.423V177.738H327.407V162.124Z" fill="white"/>
<path d="M327.42 178.137H226.423C226.372 178.137 226.321 178.126 226.273 178.106C226.226 178.086 226.183 178.056 226.147 178.019C226.111 177.982 226.083 177.938 226.065 177.889C226.046 177.841 226.038 177.79 226.039 177.738V162.188C226.038 162.136 226.046 162.085 226.065 162.036C226.083 161.988 226.111 161.944 226.147 161.907C226.183 161.87 226.226 161.84 226.273 161.82C226.321 161.8 226.372 161.789 226.423 161.789H327.42C327.471 161.789 327.522 161.8 327.57 161.82C327.617 161.84 327.66 161.87 327.696 161.907C327.732 161.944 327.76 161.988 327.778 162.036C327.797 162.085 327.805 162.136 327.804 162.188V177.802C327.791 177.895 327.745 177.981 327.675 178.042C327.604 178.104 327.513 178.138 327.42 178.137ZM226.82 177.339H327.023V162.523H226.82V177.339Z" fill="#2B2762"/>
<path d="M327.407 184.302H226.423V199.916H327.407V184.302Z" fill="white"/>
<path d="M327.42 200.315H226.423C226.372 200.315 226.321 200.305 226.273 200.285C226.226 200.265 226.183 200.235 226.147 200.198C226.111 200.16 226.083 200.116 226.065 200.068C226.046 200.02 226.038 199.968 226.039 199.916V184.302C226.038 184.251 226.046 184.199 226.065 184.151C226.083 184.102 226.111 184.058 226.147 184.021C226.183 183.984 226.226 183.954 226.273 183.934C226.321 183.914 226.372 183.903 226.423 183.903H327.42C327.471 183.903 327.522 183.914 327.57 183.934C327.617 183.954 327.66 183.984 327.696 184.021C327.732 184.058 327.76 184.102 327.778 184.151C327.797 184.199 327.805 184.251 327.804 184.302V199.916C327.805 199.968 327.797 200.02 327.778 200.068C327.76 200.116 327.732 200.16 327.696 200.198C327.66 200.235 327.617 200.265 327.57 200.285C327.522 200.305 327.471 200.315 327.42 200.315ZM226.82 199.517H327.023V184.702H226.82V199.517Z" fill="#2B2762"/>
<path d="M307.328 211.321H246.528V226.935H307.328V211.321Z" fill="#2B2762"/>
<path d="M222.264 64.193C219.116 61.3425 216.599 57.8586 214.875 53.967C213.151 50.0754 212.259 45.863 212.257 41.6025V20.0289H267.285V41.6025C267.283 45.863 266.391 50.0754 264.667 53.967C262.943 57.8586 260.426 61.3425 257.278 64.193L239.784 80.0386L222.264 64.193Z" fill="#2B2762"/>
<path d="M217.785 25.5768H261.782V41.6025C261.783 45.0841 261.055 48.5268 259.646 51.7069C258.237 54.8871 256.179 57.7334 253.605 60.0611L239.784 72.5599L225.963 60.0611C223.389 57.7334 221.33 54.8871 219.921 51.7069C218.513 48.5268 217.785 45.0841 217.785 41.6025V25.5768Z" fill="white"/>
<path d="M206.395 320H91.219C91.1675 320.002 91.1162 319.993 91.0681 319.974C91.0201 319.956 90.9762 319.928 90.9392 319.892C90.9022 319.856 90.8727 319.812 90.8527 319.765C90.8326 319.717 90.8222 319.666 90.8223 319.614C90.8223 319.561 90.8325 319.51 90.8525 319.461C90.8724 319.413 90.9016 319.369 90.9385 319.332C90.9753 319.295 91.019 319.265 91.0672 319.245C91.1153 319.225 91.1669 319.215 91.219 319.215H206.395C206.5 319.215 206.601 319.257 206.675 319.332C206.75 319.407 206.792 319.508 206.792 319.614C206.792 319.666 206.781 319.717 206.761 319.765C206.741 319.812 206.712 319.856 206.675 319.892C206.638 319.928 206.594 319.956 206.546 319.974C206.498 319.993 206.446 320.002 206.395 320Z" fill="#2B2762"/>
<path d="M236.973 51.9922C236.999 50.4427 237.174 49.2188 237.5 48.3203C237.826 47.4219 238.49 46.4258 239.492 45.332L242.051 42.6953C243.145 41.4583 243.691 40.1302 243.691 38.7109C243.691 37.3438 243.333 36.276 242.617 35.5078C241.901 34.7266 240.859 34.3359 239.492 34.3359C238.164 34.3359 237.096 34.6875 236.289 35.3906C235.482 36.0938 235.078 37.0378 235.078 38.2227H231.465C231.491 36.1133 232.24 34.4141 233.711 33.125C235.195 31.8229 237.122 31.1719 239.492 31.1719C241.953 31.1719 243.867 31.8359 245.234 33.1641C246.615 34.4792 247.305 36.2891 247.305 38.5938C247.305 40.8724 246.25 43.1185 244.141 45.332L242.012 47.4414C241.061 48.4961 240.586 50.013 240.586 51.9922H236.973ZM236.816 58.1836C236.816 57.5977 236.992 57.1094 237.344 56.7188C237.708 56.3151 238.242 56.1133 238.945 56.1133C239.648 56.1133 240.182 56.3151 240.547 56.7188C240.911 57.1094 241.094 57.5977 241.094 58.1836C241.094 58.7695 240.911 59.2578 240.547 59.6484C240.182 60.026 239.648 60.2148 238.945 60.2148C238.242 60.2148 237.708 60.026 237.344 59.6484C236.992 59.2578 236.816 58.7695 236.816 58.1836Z" fill="#2B2762"/>
</g>
<defs>
<clipPath id="clip0">
<rect width="361" height="320" fill="white"/>
</clipPath>
</defs>
</svg>
