<svg width="981" height="313" viewBox="0 0 981 313" fill="none" xmlns="http://www.w3.org/2000/svg">
<path d="M950 303C894.753 128.314 708.888 0 487.901 0C266.915 0 81.2466 128.314 26 303H950Z" fill="#F2EEFF"/>
<g clip-path="url(#clip0)">
<path d="M940.257 316.786H36.126C28.2928 316.786 21.9282 311.279 21.9282 304.63C21.9282 297.981 28.2928 292.579 36.126 292.579H940.135C947.968 292.579 954.333 297.981 954.333 304.63C954.455 311.279 948.091 316.786 940.257 316.786Z" fill="#26225B"/>
<path d="M134.042 264.217L130.86 262.97C129.024 266.502 123.638 274.502 117.519 277.411C115.805 277.93 115.316 276.372 115.193 275.125V261.516H108.951V275.229C108.829 276.476 108.217 278.138 106.381 277.307C100.383 274.294 95.2428 266.502 93.4069 263.074L90.2246 264.321C90.5918 264.944 96.9563 276.995 106.136 280.528C108.217 281.359 108.829 284.06 109.073 285.826V300.267H115.316V285.93C115.56 284.06 116.172 281.359 118.253 280.528H118.131C127.31 276.891 133.797 264.84 134.042 264.217Z" fill="black"/>
<path d="M145.058 243.335C145.18 242.711 145.18 241.984 145.18 241.257C145.18 232.946 137.224 226.297 127.555 226.297C127.433 226.297 127.31 226.297 127.31 226.297C124.25 221.933 118.62 219.024 112.256 219.024C105.891 219.024 100.261 221.933 97.2011 226.297C97.0787 226.297 96.9563 226.297 96.9563 226.297C87.1647 226.297 79.3315 233.049 79.3315 241.257C79.3315 241.984 79.3315 242.607 79.4539 243.335C76.394 246.036 74.4357 249.672 74.4357 253.828C74.4357 262.139 82.3913 268.788 92.0605 268.788C97.3235 268.788 101.975 266.814 105.157 263.801C107.36 264.632 109.685 265.048 112.256 265.048C114.826 265.048 117.151 264.632 119.355 263.801C122.537 266.814 127.31 268.788 132.451 268.788C142.242 268.788 150.076 262.035 150.076 253.828C150.076 249.672 148.117 246.036 145.058 243.335Z" fill="#26225B"/>
<path d="M132.451 265.775C127.188 265.775 122.537 263.801 119.355 260.788C117.151 261.619 114.826 262.035 112.256 262.035C109.685 262.035 107.36 261.619 105.157 260.788C101.975 263.801 97.2011 265.775 92.0605 265.775C82.8809 265.775 75.4148 259.853 74.5581 252.269C74.5581 252.789 74.4357 253.204 74.4357 253.724C74.4357 262.035 82.3913 268.684 92.0605 268.684C97.3235 268.684 101.975 266.71 105.157 263.697C107.36 264.528 109.685 264.944 112.256 264.944C114.826 264.944 117.151 264.528 119.355 263.697C122.537 266.71 127.31 268.684 132.451 268.684C142.242 268.684 150.076 261.931 150.076 253.724C150.076 253.204 150.076 252.789 149.953 252.269C149.097 259.853 141.63 265.775 132.451 265.775Z" fill="#756FBF"/>
<path d="M881.875 248.633L877.714 247.075C875.266 251.75 868.167 262.347 860.089 266.191C857.886 266.918 857.151 264.736 857.029 263.178V245.205H848.828V263.282C848.706 264.944 847.849 267.126 845.401 265.983C837.446 261.931 830.592 251.646 828.144 247.075L823.982 248.633C824.349 249.464 832.917 265.36 845.034 270.139C847.727 271.281 848.584 274.71 848.951 277.203V300.267H857.151V277.307C857.396 274.814 858.375 271.281 861.068 270.139H860.946C872.94 265.36 881.385 249.36 881.875 248.633Z" fill="black"/>
<path d="M896.44 220.894C896.562 220.063 896.685 219.128 896.685 218.193C896.685 207.285 886.159 198.35 873.307 198.35C873.185 198.35 873.063 198.35 872.94 198.35C868.901 192.636 861.435 188.792 852.99 188.792C844.545 188.792 837.079 192.636 833.039 198.35C832.917 198.35 832.795 198.35 832.672 198.35C819.821 198.35 809.295 207.285 809.295 218.193C809.295 219.128 809.417 219.959 809.54 220.894C805.378 224.427 802.93 229.309 802.93 234.712C802.93 245.62 813.456 254.555 826.308 254.555C833.162 254.555 839.404 251.958 843.688 247.906C846.625 248.945 849.808 249.568 853.112 249.568C856.417 249.568 859.722 248.945 862.537 247.906C866.82 251.958 873.063 254.555 879.917 254.555C892.768 254.555 903.294 245.62 903.294 234.712C903.049 229.309 900.479 224.427 896.44 220.894Z" fill="#26225B"/>
<path d="M879.672 250.711C872.818 250.711 866.576 248.114 862.292 244.062C859.354 245.101 856.172 245.724 852.868 245.724C849.563 245.724 846.381 245.101 843.443 244.062C839.159 248.114 832.917 250.711 826.063 250.711C813.946 250.711 803.91 242.815 802.808 232.842C802.686 233.465 802.686 234.088 802.686 234.816C802.686 245.724 813.212 254.659 826.063 254.659C832.917 254.659 839.159 252.062 843.443 248.01C846.381 249.049 849.563 249.672 852.868 249.672C856.172 249.672 859.477 249.049 862.292 248.01C866.576 252.062 872.818 254.659 879.672 254.659C892.523 254.659 903.049 245.724 903.049 234.816C903.049 234.192 903.049 233.465 902.927 232.842C901.825 242.815 891.789 250.711 879.672 250.711Z" fill="#756FBF"/>
<path d="M204.909 242.919L200.258 241.153C197.565 246.348 189.609 258.191 180.552 262.451C177.982 263.282 177.247 260.892 177.125 259.022V238.971H167.945V259.126C167.701 260.996 166.844 263.386 164.029 262.139C155.216 257.672 147.505 246.14 144.813 241.049L140.162 242.815C140.651 243.75 150.198 261.516 163.539 266.814C166.599 268.165 167.578 272.009 167.823 274.71V300.163H177.003V274.918C177.37 272.216 178.349 268.165 181.409 266.918H181.286C194.872 261.62 204.419 243.854 204.909 242.919Z" fill="black"/>
<path d="M221.065 212.064C221.187 211.129 221.31 210.09 221.31 209.051C221.31 196.792 209.682 186.922 195.239 186.922C195.117 186.922 194.995 186.922 194.75 186.922C190.221 180.481 181.898 176.221 172.474 176.221C163.05 176.221 154.727 180.481 150.198 186.922C150.076 186.922 149.953 186.922 149.709 186.922C135.266 186.922 123.638 196.792 123.638 209.051C123.638 210.09 123.761 211.025 123.883 212.064C119.355 216.011 116.417 221.518 116.417 227.543C116.417 239.802 128.045 249.672 142.487 249.672C150.198 249.672 157.175 246.867 161.948 242.296C165.13 243.542 168.68 244.166 172.474 244.166C176.268 244.166 179.818 243.542 183 242.296C187.773 246.763 194.75 249.672 202.461 249.672C216.903 249.672 228.531 239.802 228.531 227.543C228.531 221.518 225.716 216.011 221.065 212.064Z" fill="#26225B"/>
<path d="M202.461 245.309C194.75 245.309 187.773 242.504 183 237.932C179.818 239.179 176.268 239.802 172.474 239.802C168.68 239.802 165.13 239.179 161.948 237.932C157.175 242.4 150.198 245.309 142.487 245.309C128.901 245.309 117.886 236.582 116.54 225.362C116.417 226.089 116.417 226.816 116.417 227.543C116.417 239.802 128.045 249.672 142.487 249.672C150.198 249.672 157.175 246.867 161.948 242.296C165.13 243.542 168.68 244.166 172.474 244.166C176.268 244.166 179.818 243.542 183 242.296C187.773 246.763 194.75 249.672 202.461 249.672C216.903 249.672 228.531 239.802 228.531 227.543C228.531 226.816 228.531 226.089 228.408 225.362C227.185 236.582 216.047 245.309 202.461 245.309Z" fill="#756FBF"/>
<path d="M326.412 75.813C325.466 75.7494 324.545 75.4817 323.714 75.0287C322.883 74.5757 322.161 73.9482 321.6 73.19C320.463 71.367 320.608 68.7833 322.049 65.5177V65.4259H322.142C325.262 66.7374 327.113 68.4817 327.655 70.5539C327.825 71.4467 327.805 72.3648 327.598 73.2498C327.391 74.1348 327.001 74.9674 326.452 75.6949L326.412 75.813ZM322.142 65.7275C320.82 68.8883 320.621 71.3801 321.719 73.1244C322.257 73.8425 322.946 74.4361 323.738 74.8641C324.53 75.292 325.407 75.5442 326.307 75.6031C326.832 74.9077 327.205 74.1108 327.401 73.2636C327.597 72.4165 327.611 71.5381 327.444 70.685C326.928 68.6391 325.143 67.0259 322.142 65.7275Z" fill="#26225B"/>
<path d="M321.047 82.7343C321.047 82.7343 325.308 76.3213 315.802 73.5046C312.59 83.1869 321.047 82.7343 321.047 82.7343Z" fill="#26225B"/>
<path d="M320.892 82.736C319.998 82.7559 319.111 82.5918 318.29 82.2546C317.469 81.9174 316.733 81.415 316.132 80.7815C314.849 79.1958 314.733 76.7743 315.785 73.5907V73.5046H315.875C319.031 74.4388 321.007 75.8647 321.726 77.7577C321.983 78.5742 322.059 79.433 321.951 80.2795C321.843 81.1259 321.552 81.9416 321.097 82.6745H320.892V82.736ZM315.939 73.7382C314.938 76.8235 315.054 79.1467 316.286 80.6709C316.88 81.291 317.608 81.7811 318.418 82.1078C319.228 82.4344 320.103 82.59 320.981 82.5639C321.411 81.862 321.685 81.0828 321.787 80.275C321.888 79.4671 321.815 78.6479 321.572 77.8683C320.866 76.0368 318.98 74.6478 315.939 73.7382Z" fill="#D4E6FC"/>
<path d="M318.409 90.339C318.409 90.339 320.189 82.3845 310.458 82.7498C310.727 93.6669 318.409 90.339 318.409 90.339Z" fill="#26225B"/>
<path d="M315.89 90.8154C314.933 90.835 313.99 90.5647 313.174 90.0365C311.459 88.8615 310.545 86.4456 310.458 82.8548V82.7492H310.545C313.775 82.6304 316.053 83.4225 317.355 85.0859C317.862 85.8285 318.218 86.6745 318.399 87.57C318.58 88.4654 318.582 89.3908 318.406 90.2873C317.605 90.6228 316.752 90.8017 315.89 90.8154ZM310.645 82.8944C310.758 86.3532 311.634 88.6767 313.286 89.8121C314.04 90.2375 314.872 90.486 315.726 90.5407C316.579 90.5954 317.434 90.4549 318.231 90.1289C318.383 89.2818 318.371 88.4108 318.194 87.5688C318.018 86.7269 317.681 85.9315 317.204 85.2311C316.028 83.7129 314 82.9472 311.171 82.9472L310.645 82.8944Z" fill="#D4E6FC"/>
<path d="M327.769 76.6365C327.769 76.6365 331.497 82.734 338.156 76.3912C331.05 69.7563 327.769 76.6365 327.769 76.6365Z" fill="#26225B"/>
<path d="M324.307 84.7201C324.307 84.7201 328.034 90.8066 334.694 84.4752C327.6 77.829 324.307 84.7201 324.307 84.7201Z" fill="#26225B"/>
<path d="M312.245 108.05C312.245 108.05 315.419 101.545 306.096 100.049C304.34 109.486 312.245 108.05 312.245 108.05Z" fill="#26225B"/>
<path d="M311.133 108.124C309.736 108.182 308.372 107.646 307.329 106.628C305.924 105.105 305.5 102.536 306.118 98.9879V98.8953H306.202C309.28 99.4646 311.303 100.722 312.26 102.642C312.594 103.478 312.766 104.379 312.766 105.29C312.766 106.202 312.594 107.103 312.26 107.939C311.893 108.049 311.514 108.111 311.133 108.124ZM306.287 99.1204C305.754 102.55 306.154 105.026 307.499 106.482C308.137 107.054 308.882 107.469 309.68 107.697C310.479 107.926 311.314 107.963 312.127 107.806C312.439 106.998 312.594 106.128 312.584 105.25C312.573 104.373 312.397 103.508 312.066 102.709C311.146 100.908 309.195 99.6897 306.239 99.1204H306.287Z" fill="#D4E6FC"/>
<path d="M316.228 108.43C316.228 108.43 319.956 115.734 326.615 108.136C319.508 100.16 316.228 108.43 316.228 108.43Z" fill="#26225B"/>
<path d="M309.937 116.129C309.937 116.129 313.111 109.636 303.787 108.128C302.032 117.565 309.937 116.129 309.937 116.129Z" fill="#26225B"/>
<path d="M308.825 116.202C307.427 116.259 306.061 115.789 305.021 114.893C303.615 113.561 303.191 111.325 303.809 108.221V108.128H303.894C306.971 108.626 308.995 109.738 309.952 111.418C310.285 112.149 310.458 112.938 310.458 113.735C310.458 114.532 310.285 115.321 309.952 116.052C309.581 116.131 309.204 116.181 308.825 116.202ZM303.979 108.337C303.446 111.337 303.846 113.492 305.191 114.766C305.826 115.271 306.57 115.637 307.37 115.837C308.17 116.037 309.006 116.067 309.819 115.924C310.133 115.22 310.29 114.46 310.279 113.694C310.269 112.928 310.091 112.173 309.758 111.476C308.837 109.901 306.887 108.881 303.931 108.337H303.979Z" fill="#D4E6FC"/>
<path d="M313.92 116.502C313.92 116.502 317.647 123.812 324.307 116.221C317.2 108.238 313.92 116.502 313.92 116.502Z" fill="#26225B"/>
<path d="M320.845 91.5864C320.845 91.5864 322.745 98.2883 331.232 93.9995C326.199 85.9368 320.845 91.5864 320.845 91.5864Z" fill="#26225B"/>
<path d="M316.1 98.4227C316.1 98.4227 317.883 90.4764 308.149 90.8277C308.432 101.734 316.1 98.4227 316.1 98.4227Z" fill="#26225B"/>
<path d="M313.591 98.8945C312.636 98.9116 311.697 98.641 310.883 98.1144C309.165 96.9245 308.25 94.5051 308.149 90.9222V90.8164H308.864C311.76 90.8164 313.879 91.6097 315.058 93.1697C315.561 93.9112 315.913 94.7544 316.092 95.6463C316.271 96.5382 316.274 97.4596 316.099 98.3524C315.298 98.6811 314.45 98.8644 313.591 98.8945ZM308.35 90.9618C308.45 94.4257 309.341 96.7526 310.983 97.8897C311.738 98.3157 312.572 98.5646 313.426 98.6194C314.281 98.6741 315.137 98.5335 315.936 98.207C316.084 97.3521 316.064 96.4742 315.877 95.6279C315.689 94.7817 315.338 93.9854 314.845 93.2887C313.666 91.7683 311.635 91.0015 308.801 91.0015L308.35 90.9618Z" fill="#D4E6FC"/>
<path d="M318.536 98.8998C318.536 98.8998 320.437 106.935 328.924 101.793C323.891 92.1122 318.536 98.8998 318.536 98.8998Z" fill="#26225B"/>
<path d="M307.999 133.121C307.999 133.121 309.76 125.374 301.225 125.44C301.18 136.159 307.999 133.121 307.999 133.121Z" fill="#26225B"/>
<path d="M306.724 133.516C305.681 133.552 304.653 133.261 303.777 132.683C302.054 131.474 301.225 129.068 301.225 125.531V125.44H301.454C304.657 125.44 306.929 126.285 308.192 127.95C308.696 128.702 309.039 129.554 309.2 130.45C309.36 131.346 309.334 132.266 309.123 133.152C308.348 133.404 307.538 133.527 306.724 133.516ZM301.416 125.609C301.416 129.016 302.271 131.331 303.904 132.488C304.67 132.941 305.524 133.217 306.406 133.298C307.287 133.379 308.176 133.262 309.009 132.957C309.199 132.118 309.217 131.248 309.061 130.402C308.905 129.556 308.579 128.752 308.103 128.041C306.826 126.428 304.657 125.609 301.518 125.609H301.416Z" fill="#D4E6FC"/>
<path d="M311.612 132.774C311.612 132.774 316.552 138.124 321.999 130.864C313.613 125.526 311.612 132.774 311.612 132.774Z" fill="#26225B"/>
<path d="M307.974 142.354C307.974 142.354 310.029 134.607 300.071 134.673C300.005 145.392 307.974 142.354 307.974 142.354Z" fill="#26225B"/>
<path d="M305.549 142.75C304.509 142.776 303.487 142.477 302.619 141.894C300.911 140.689 300.071 138.29 300.071 134.764V134.673H300.3C303.51 134.673 305.778 135.516 307.039 137.162C307.543 137.912 307.886 138.761 308.046 139.655C308.206 140.548 308.18 141.466 307.97 142.348C307.191 142.62 306.372 142.756 305.549 142.75ZM300.249 134.867C300.249 138.264 301.103 140.585 302.797 141.739C303.555 142.177 304.397 142.444 305.265 142.522C306.133 142.6 307.008 142.488 307.829 142.193C308.016 141.355 308.031 140.488 307.873 139.645C307.715 138.802 307.388 138 306.912 137.292C305.638 135.684 303.485 134.867 300.338 134.867H300.249Z" fill="#D4E6FC"/>
<path d="M311.612 141.63C311.612 141.63 316.545 148.043 321.999 139.339C313.603 132.925 311.612 141.63 311.612 141.63Z" fill="#26225B"/>
<path d="M310.454 123.333C310.454 123.333 310.911 115.73 301.225 117.681C303.324 127.717 310.454 123.333 310.454 123.333Z" fill="#26225B"/>
<path d="M306.992 124.285C306.363 124.295 305.738 124.177 305.159 123.94C303.249 123.15 301.925 121.078 301.225 117.772V117.686H301.314C304.522 117.032 306.941 117.365 308.533 118.685C309.163 119.28 309.659 119.994 309.99 120.784C310.321 121.574 310.479 122.422 310.455 123.274C309.408 123.89 308.216 124.238 306.992 124.285ZM301.441 117.846C302.129 121.016 303.402 123.015 305.261 123.767C306.087 124.028 306.961 124.114 307.825 124.018C308.688 123.922 309.52 123.647 310.264 123.212C310.286 122.395 310.132 121.583 309.812 120.827C309.492 120.071 309.013 119.388 308.405 118.821C306.865 117.563 304.535 117.23 301.441 117.846Z" fill="#D4E6FC"/>
<path d="M312.766 123.5C312.766 123.5 315.846 129.901 323.153 124.29C316.806 116.982 312.766 123.5 312.766 123.5Z" fill="#26225B"/>
<path d="M332.428 79.2664C332.229 79.2782 332.03 79.2782 331.832 79.2664C330.997 79.1189 330.204 78.8082 329.504 78.3545C328.805 77.9007 328.214 77.314 327.769 76.632C328.137 75.8909 328.671 75.2337 329.335 74.7057C329.998 74.1777 330.776 73.7915 331.613 73.5737C333.571 73.2301 335.748 74.1693 338.083 76.3685H338.156L338.083 76.4373C336.137 78.3043 334.228 79.2664 332.428 79.2664ZM327.988 76.5862C328.417 77.2277 328.981 77.7788 329.647 78.2046C330.313 78.6305 331.065 78.9218 331.856 79.0602C332.042 79.0717 332.229 79.0717 332.416 79.0602C334.155 79.0602 336.064 78.1439 337.913 76.3342C335.639 74.2152 333.547 73.3103 331.674 73.6425C330.869 73.8506 330.122 74.222 329.485 74.7304C328.849 75.2389 328.338 75.8723 327.988 76.5862Z" fill="#756FBF"/>
<path d="M328.929 87.3412C328.735 87.3584 328.539 87.3584 328.345 87.3412C327.519 87.1953 326.733 86.8887 326.038 86.4407C325.343 85.9927 324.754 85.4132 324.307 84.7387C324.679 83.9928 325.215 83.3312 325.881 82.7988C326.546 82.2663 327.324 81.8754 328.163 81.6524C330.121 81.3069 332.286 82.2627 334.633 84.4738H334.694L334.633 84.5429C332.651 86.4085 330.741 87.3412 328.929 87.3412ZM324.489 84.635C324.92 85.2804 325.487 85.8345 326.155 86.2626C326.823 86.6906 327.577 86.9834 328.369 87.1224C330.267 87.3643 332.298 86.4315 334.451 84.4047C332.176 82.2858 330.072 81.376 328.199 81.6985C327.394 81.9065 326.646 82.2766 326.006 82.7834C325.366 83.2902 324.848 83.9217 324.489 84.635Z" fill="#756FBF"/>
<path d="M320.862 111.58C320.664 111.594 320.465 111.594 320.266 111.58C319.439 111.403 318.653 111.033 317.957 110.494C317.262 109.954 316.674 109.257 316.228 108.445C316.599 107.552 317.133 106.76 317.796 106.121C318.459 105.483 319.235 105.013 320.072 104.744C322.03 104.344 324.207 105.476 326.554 108.128H326.615L326.554 108.21C324.511 110.42 322.638 111.58 320.862 111.58ZM316.423 108.335C316.846 109.107 317.407 109.772 318.068 110.285C318.73 110.799 319.478 111.15 320.266 111.317C322.176 111.594 324.207 110.489 326.348 108.058C324.049 105.518 321.957 104.413 320.084 104.827C319.284 105.078 318.541 105.521 317.905 106.126C317.269 106.731 316.756 107.484 316.399 108.335H316.423Z" fill="#756FBF"/>
<path d="M318.542 119.659C318.343 119.673 318.144 119.673 317.946 119.659C317.119 119.485 316.333 119.116 315.64 118.575C314.946 118.035 314.36 117.334 313.92 116.52C314.288 115.625 314.822 114.832 315.485 114.195C316.149 113.557 316.926 113.091 317.763 112.828C319.722 112.413 321.899 113.547 324.246 116.202L324.307 116.285H324.246C322.264 118.511 320.342 119.659 318.542 119.659ZM314.102 116.423C314.531 117.198 315.096 117.863 315.761 118.377C316.427 118.891 317.179 119.243 317.97 119.41C319.868 119.673 321.911 118.58 324.052 116.147C321.789 113.602 319.697 112.51 317.812 112.897C317.006 113.144 316.257 113.588 315.616 114.197C314.976 114.805 314.459 115.565 314.102 116.423Z" fill="#756FBF"/>
<path d="M326.177 95.4326C325.462 95.4383 324.753 95.3161 324.092 95.0732C323.309 94.7246 322.616 94.2351 322.057 93.6356C321.498 93.0362 321.085 92.3399 320.845 91.5911C321.956 90.4707 323.516 89.7813 325.192 89.6704C325.335 89.6595 325.478 89.6595 325.621 89.6704C327.668 89.8388 329.564 91.2878 331.232 93.9499V94.0286H331.156C329.655 94.861 327.943 95.3439 326.177 95.4326ZM321.047 91.5911C321.278 92.3137 321.674 92.9861 322.211 93.566C322.748 94.1459 323.415 94.6208 324.168 94.9609C326 95.646 328.3 95.3091 331.042 93.9499C329.412 91.3889 327.592 89.9961 325.621 89.8276C324.761 89.8115 323.907 89.9608 323.117 90.2651C322.328 90.5695 321.622 91.0218 321.047 91.5911Z" fill="#756FBF"/>
<path d="M323.85 103.512C323.136 103.516 322.428 103.372 321.767 103.087C320.987 102.674 320.298 102.095 319.741 101.387C319.185 100.679 318.775 99.858 318.536 98.9748C319.636 97.6057 321.205 96.7477 322.903 96.587H323.32C325.364 96.7993 327.258 98.5105 328.924 101.654V101.747H328.835C327.343 102.772 325.627 103.379 323.85 103.512ZM318.738 98.9748C318.962 99.8298 319.354 100.626 319.888 101.311C320.423 101.997 321.089 102.557 321.843 102.954C323.673 103.777 325.983 103.379 328.709 101.774C327.081 98.7361 325.263 97.1044 323.295 96.9054H322.903C321.312 96.9988 319.817 97.7413 318.738 98.9748Z" fill="#756FBF"/>
<path d="M315.906 134.673C314.254 134.578 312.71 133.89 311.612 132.76C311.846 131.981 312.261 131.256 312.829 130.635C313.396 130.014 314.102 129.511 314.9 129.16C316.799 128.515 319.157 129.081 321.924 130.847H321.999V130.915C320.199 133.315 318.276 134.582 316.216 134.673H315.906ZM311.773 132.703C312.841 133.77 314.324 134.413 315.906 134.492H316.141C318.09 134.401 319.964 133.19 321.713 130.881C319.033 129.194 316.749 128.617 314.938 129.274C314.174 129.602 313.496 130.076 312.95 130.664C312.404 131.252 312.003 131.939 311.773 132.681V132.703Z" fill="#756FBF"/>
<path d="M315.913 143.838C315.097 143.795 314.298 143.577 313.56 143.194C312.821 142.812 312.159 142.274 311.612 141.61C311.846 140.675 312.26 139.806 312.827 139.06C313.394 138.315 314.099 137.712 314.896 137.291C316.793 136.516 319.16 137.196 321.924 139.315H321.999V139.41C320.189 142.276 318.28 143.797 316.223 143.906L315.913 143.838ZM311.785 141.474C312.851 142.755 314.334 143.525 315.913 143.621H316.136C318.082 143.512 319.966 142.058 321.714 139.287C319.036 137.264 316.756 136.571 314.946 137.359C314.179 137.753 313.498 138.325 312.953 139.036C312.407 139.746 312.009 140.578 311.785 141.474Z" fill="#756FBF"/>
<path d="M317.594 126.594C317.224 126.597 316.856 126.559 316.496 126.481C315.687 126.254 314.937 125.873 314.295 125.363C313.653 124.852 313.132 124.224 312.766 123.516C313.214 122.813 313.821 122.208 314.545 121.743C315.269 121.278 316.093 120.965 316.96 120.823H317.289C319.166 120.823 321.117 121.955 323.092 124.218L323.153 124.286H323.08C321.594 125.621 319.655 126.437 317.594 126.594ZM312.949 123.516C313.309 124.186 313.813 124.78 314.429 125.262C315.045 125.745 315.761 126.106 316.533 126.322C318.398 126.718 320.544 126.028 322.873 124.263C320.958 122.091 319.081 120.993 317.277 120.993H316.96C316.134 121.119 315.348 121.41 314.656 121.846C313.963 122.281 313.381 122.851 312.949 123.516Z" fill="#756FBF"/>
<path d="M333.216 228.156C333.149 228.157 333.082 228.138 333.024 228.103C332.966 228.067 332.919 228.015 332.888 227.953C307.675 177.53 308.222 137.646 313.126 113.05C318.444 86.385 329.894 71.4524 330.004 71.3127C330.039 71.2759 330.08 71.2466 330.126 71.2266C330.172 71.2067 330.222 71.1964 330.271 71.1964C330.321 71.1964 330.37 71.2067 330.416 71.2266C330.462 71.2466 330.504 71.2759 330.539 71.3127C330.574 71.3482 330.602 71.3907 330.621 71.4376C330.64 71.4844 330.65 71.5348 330.65 71.5857C330.65 71.6366 330.64 71.687 330.621 71.7339C330.602 71.7808 330.574 71.8232 330.539 71.8587C330.43 72.0111 319.076 86.8294 313.808 113.33C308.94 137.773 308.405 177.453 333.496 227.61C333.519 227.656 333.534 227.706 333.538 227.757C333.543 227.809 333.538 227.861 333.523 227.911C333.508 227.96 333.484 228.006 333.453 228.046C333.421 228.086 333.382 228.119 333.338 228.143C333.298 228.154 333.257 228.158 333.216 228.156Z" fill="#26225B"/>
<path d="M652.31 158.909C642.991 160.437 630.447 157.318 626.376 170.673C623.568 179.891 627.897 189.898 616.812 194.01C612.423 195.627 607.959 195.398 604.71 199.383C601.89 202.845 601.399 207.785 601.032 212.114C600.676 215.831 601.412 220.695 600.21 224.26C598.236 230.091 593.282 230.065 588.451 232.217C583.841 234.254 579.598 237.589 577.82 242.682C575.466 249.43 579.365 255.413 578.887 261.868C578.887 261.868 581.585 287.624 606.5 277.897C612.386 275.593 618.504 274.409 622.808 268.794C626.058 264.555 626.56 259.055 625.825 253.911C625.052 248.513 622.44 244.133 626.192 239.346C628.485 236.405 632.863 234.508 635.732 232.255C639.067 229.62 642.868 226.602 644.229 222.299C645.786 217.347 643.26 213.502 642.292 208.766C639.84 196.824 650.335 195.41 656.429 188.102C665.245 177.51 656.123 168.038 652.506 158.999L652.31 158.909Z" fill="white"/>
<path d="M596.697 280.089C593.628 280.148 590.606 279.319 587.974 277.696C580.163 272.772 578.956 262.076 578.906 261.633C578.971 259.015 578.668 256.402 578.007 253.873C577.219 250.215 576.418 246.43 577.847 242.38C579.436 237.848 583.206 234.177 588.738 231.734C589.97 231.215 591.202 230.81 592.299 230.468C595.847 229.304 598.902 228.291 600.331 224.139C600.981 221.645 601.222 219.057 601.046 216.481C601.003 215.037 601.035 213.592 601.144 212.152C601.539 208 602.031 202.848 604.964 199.278C607.354 196.379 610.323 195.671 613.465 194.911C614.759 194.616 616.038 194.252 617.296 193.822C624.688 191.101 625.033 185.772 625.415 179.595C625.472 176.646 625.886 173.716 626.647 170.873C629.912 160.278 638.327 159.86 646.483 159.481C648.663 159.418 650.839 159.232 653 158.924C653.077 158.905 653.157 158.905 653.234 158.924L653.407 159.012C653.478 159.056 653.534 159.123 653.567 159.202C654.449 161.254 655.436 163.257 656.524 165.202C660.454 172.544 664.519 180.139 657.448 188.544C655.489 190.701 653.28 192.601 650.869 194.202C645.941 197.772 641.702 200.848 643.329 208.759C643.628 210.091 643.998 211.406 644.438 212.696C645.46 215.835 646.409 218.81 645.263 222.405C643.846 226.861 639.83 230 636.639 232.532C635.495 233.381 634.311 234.171 633.091 234.899C630.866 236.092 628.847 237.653 627.115 239.519C624.38 242.975 625.156 246.177 626.043 249.899C626.327 251.165 626.635 252.367 626.82 253.696C627.707 259.81 626.623 265.089 623.715 268.798C620.142 273.405 615.263 275.127 610.545 276.747C609.424 277.139 608.29 277.544 607.169 278.013C603.826 279.34 600.28 280.043 596.697 280.089ZM652.963 159.632C650.918 159.949 648.7 160.05 646.544 160.164C638.659 160.544 630.528 160.949 627.386 171.025C626.64 173.811 626.227 176.68 626.154 179.569C625.785 185.746 625.427 191.582 617.53 194.481C616.244 194.923 614.937 195.295 613.612 195.595C610.594 196.316 607.748 197.012 605.518 199.709C602.734 203.088 602.253 208.114 601.822 212.152C601.719 213.567 601.686 214.986 601.723 216.405C601.906 219.066 601.656 221.74 600.984 224.316C599.42 228.886 596.056 230 592.459 231.177C591.313 231.557 590.13 231.949 588.96 232.443C585.264 234.076 580.41 237.177 578.488 242.633C577.132 246.43 577.884 249.975 578.672 253.684C579.349 256.265 579.656 258.935 579.584 261.608C579.584 261.608 580.816 272.291 588.307 277.025C593.05 280.013 599.272 280.051 606.787 277.139C607.921 276.709 609.054 276.304 610.2 275.874C615.017 274.19 619.575 272.608 623 268.177C626.425 263.747 626.549 257.785 625.957 253.671C625.772 252.405 625.477 251.139 625.193 249.873C624.294 246.076 623.444 242.582 626.425 238.823C628.21 236.888 630.291 235.268 632.586 234.025C633.784 233.319 634.944 232.546 636.06 231.709C639.214 229.266 643.119 226.215 644.462 222C645.534 218.645 644.622 215.797 643.649 212.772C643.193 211.459 642.814 210.119 642.516 208.759C640.778 200.341 645.435 196.974 650.364 193.405C652.719 191.833 654.879 189.971 656.795 187.86C663.534 179.873 659.591 172.519 655.784 165.405C654.748 163.531 653.807 161.605 652.963 159.632Z" fill="#26225B"/>
<path d="M641.689 179.683L585.138 283.554L641.689 179.683Z" fill="#D4E6FC"/>
<path d="M585.513 284.695C585.453 284.713 585.39 284.713 585.33 284.695C585.243 284.644 585.179 284.56 585.152 284.46C585.125 284.36 585.136 284.253 585.184 284.162L640.986 179.889C641.009 179.843 641.041 179.802 641.079 179.77C641.118 179.737 641.162 179.712 641.21 179.698C641.258 179.684 641.308 179.68 641.357 179.687C641.407 179.693 641.454 179.711 641.497 179.737C641.584 179.788 641.648 179.872 641.675 179.972C641.702 180.072 641.691 180.179 641.643 180.27L585.841 284.454C585.812 284.522 585.767 284.58 585.709 284.622C585.651 284.665 585.583 284.69 585.513 284.695Z" fill="#26225B"/>
<path d="M615.145 203.92L618.607 223.54L615.145 203.92Z" fill="#D4E6FC"/>
<path d="M618.243 223.54C618.153 223.538 618.067 223.503 617.999 223.44C617.931 223.377 617.887 223.291 617.873 223.196L615.149 204.381C615.135 204.278 615.158 204.174 615.213 204.089C615.269 204.004 615.352 203.944 615.448 203.923C615.545 203.911 615.643 203.938 615.723 203.999C615.802 204.061 615.857 204.151 615.878 204.254L618.601 223.082C618.61 223.132 618.609 223.183 618.598 223.233C618.588 223.283 618.568 223.33 618.54 223.372C618.512 223.413 618.477 223.448 618.436 223.475C618.395 223.502 618.35 223.519 618.303 223.527L618.243 223.54Z" fill="#26225B"/>
<path d="M597.833 260.472L613.991 258.163L597.833 260.472Z" fill="#D4E6FC"/>
<path d="M598.218 260.472C598.116 260.472 598.018 260.427 597.946 260.348C597.873 260.268 597.833 260.16 597.833 260.048C597.833 259.935 597.873 259.827 597.946 259.748C598.018 259.668 598.116 259.623 598.218 259.623L614.757 257.009C614.851 257.009 614.942 257.046 615.013 257.114C615.083 257.182 615.129 257.276 615.141 257.378C615.154 257.481 615.131 257.585 615.079 257.671C615.027 257.756 614.948 257.818 614.857 257.844L598.33 260.458L598.218 260.472Z" fill="#26225B"/>
<path d="M625.532 209.691L638.227 205.074L625.532 209.691Z" fill="#D4E6FC"/>
<path d="M624.766 210.843C624.689 210.845 624.613 210.824 624.549 210.781C624.485 210.738 624.436 210.677 624.409 210.606C624.389 210.559 624.378 210.509 624.378 210.458C624.378 210.407 624.388 210.357 624.408 210.31C624.428 210.263 624.458 210.221 624.496 210.186C624.533 210.15 624.577 210.123 624.626 210.105L637.691 205.101C637.788 205.064 637.895 205.065 637.991 205.105C638.086 205.145 638.162 205.22 638.201 205.314C638.22 205.361 638.228 205.412 638.227 205.463C638.225 205.514 638.214 205.564 638.192 205.611C638.171 205.657 638.14 205.699 638.103 205.734C638.065 205.769 638.02 205.796 637.972 205.814L624.906 210.818C624.863 210.84 624.814 210.848 624.766 210.843Z" fill="#26225B"/>
<path d="M649.768 298.558L635.919 288.945V277.783H649.768V298.558Z" fill="#26225B"/>
<path d="M607.066 267.609V296.249H549.527C543.973 296.249 538.647 293.99 534.719 289.967C530.792 285.945 528.586 280.489 528.586 274.801V225.848H562.794V267.647L607.066 267.609Z" fill="white"/>
<path d="M606.7 296.249H549.725C544.119 296.246 538.745 293.93 534.781 289.81C530.817 285.691 528.589 280.104 528.586 274.278V225.087C528.584 225.036 528.593 224.985 528.61 224.938C528.628 224.89 528.655 224.847 528.689 224.81C528.723 224.773 528.764 224.744 528.809 224.724C528.854 224.704 528.903 224.694 528.952 224.694H562.825C562.925 224.694 563.021 224.735 563.092 224.809C563.163 224.883 563.203 224.983 563.203 225.087V266.709H606.7C606.748 266.707 606.797 266.716 606.842 266.735C606.887 266.753 606.928 266.781 606.962 266.817C606.997 266.852 607.023 266.895 607.041 266.942C607.059 266.989 607.067 267.039 607.066 267.09V295.869C607.067 295.919 607.059 295.97 607.041 296.016C607.023 296.063 606.997 296.106 606.962 296.142C606.928 296.177 606.887 296.205 606.842 296.224C606.797 296.242 606.748 296.251 606.7 296.249ZM529.33 225.467V274.278C529.337 279.898 531.487 285.286 535.311 289.26C539.134 293.234 544.318 295.469 549.725 295.476H606.322V267.483H562.825C562.776 267.483 562.727 267.472 562.682 267.452C562.637 267.433 562.596 267.403 562.562 267.367C562.528 267.33 562.501 267.287 562.483 267.239C562.466 267.191 562.457 267.141 562.459 267.09V225.467H529.33Z" fill="#26225B"/>
<path d="M557.439 225.848H591.615V267.625H635.919V296.249H578.385C572.836 296.249 567.515 293.991 563.591 289.971C559.668 285.95 557.463 280.498 557.463 274.812V225.886L557.439 225.848Z" fill="white"/>
<path d="M636.689 296.249H578.885C573.198 296.246 567.745 293.93 563.724 289.81C559.703 285.691 557.442 280.104 557.439 274.278V244.624C557.439 244.52 557.479 244.42 557.551 244.346C557.623 244.272 557.721 244.231 557.822 244.231C557.872 244.231 557.922 244.241 557.967 244.261C558.013 244.281 558.055 244.31 558.089 244.347C558.124 244.384 558.151 244.427 558.169 244.475C558.187 244.522 558.195 244.573 558.194 244.624V274.278C558.2 279.898 560.382 285.286 564.261 289.26C568.14 293.234 573.399 295.469 578.885 295.476H636.306V267.483H592.188C592.086 267.483 591.989 267.441 591.917 267.367C591.845 267.294 591.805 267.194 591.805 267.09V225.467H557.822C557.773 225.469 557.723 225.461 557.677 225.442C557.63 225.424 557.588 225.396 557.552 225.361C557.516 225.325 557.488 225.283 557.468 225.236C557.449 225.189 557.439 225.138 557.439 225.087C557.439 224.983 557.479 224.883 557.551 224.809C557.623 224.735 557.721 224.694 557.822 224.694H592.188C592.238 224.694 592.287 224.704 592.333 224.724C592.379 224.744 592.421 224.773 592.455 224.81C592.49 224.847 592.517 224.89 592.535 224.938C592.553 224.985 592.561 225.036 592.559 225.087V266.709H636.689C636.739 266.708 636.789 266.716 636.835 266.734C636.882 266.753 636.924 266.781 636.96 266.816C636.996 266.852 637.024 266.894 637.044 266.941C637.063 266.988 637.073 267.039 637.073 267.09V295.869C637.073 295.92 637.063 295.97 637.044 296.017C637.024 296.064 636.996 296.107 636.96 296.142C636.924 296.178 636.882 296.206 636.835 296.224C636.789 296.242 636.739 296.251 636.689 296.249Z" fill="#26225B"/>
<path d="M614.096 161.078C612.185 155.834 599.4 125.44 558.886 125.44H557.222C530.283 126.102 508.966 149.254 508.966 177.064V204.301H518.891V232.773H599.745V201.704C623.22 195.582 617.906 171.489 614.096 161.078Z" fill="#C42128"/>
<path d="M578.213 119.772L545.898 124.286V101.124C545.898 92.886 555.719 86.2 563.732 86.2C567.574 86.2034 571.257 87.7772 573.972 90.5757C576.688 93.3741 578.213 97.1681 578.213 101.124V119.772Z" fill="#2B2762"/>
<path d="M558.016 133.519C556.026 133.519 554.118 132.716 552.711 131.288C551.304 129.86 550.514 127.923 550.514 125.903V101.203H565.518V125.916C565.514 127.933 564.723 129.867 563.316 131.293C561.91 132.718 560.003 133.519 558.016 133.519Z" fill="white"/>
<path d="M558.004 133.519C556.019 133.515 554.115 132.662 552.711 131.147C551.307 129.631 550.517 127.577 550.514 125.434V100.447C550.514 100.342 550.553 100.24 550.622 100.166C550.691 100.091 550.785 100.049 550.883 100.049H565.149C565.247 100.049 565.341 100.091 565.41 100.166C565.479 100.24 565.518 100.342 565.518 100.447V125.434C565.516 126.497 565.321 127.55 564.942 128.532C564.564 129.513 564.01 130.405 563.312 131.156C562.614 131.907 561.786 132.502 560.876 132.907C559.965 133.313 558.989 133.52 558.004 133.519ZM551.251 100.845V125.434C551.251 127.367 551.963 129.221 553.229 130.588C554.495 131.955 556.213 132.723 558.004 132.723C559.795 132.723 561.513 131.955 562.779 130.588C564.045 129.221 564.757 127.367 564.757 125.434V100.845H551.251Z" fill="#2B2762"/>
<path d="M570.122 102.419C570.164 102.986 570.1 103.556 569.933 104.096C569.767 104.637 569.502 105.137 569.153 105.569C568.804 106.001 568.378 106.356 567.899 106.614C567.42 106.872 566.898 107.028 566.362 107.072C566.024 107.118 565.681 107.118 565.343 107.072C565.065 109.766 563.9 112.271 562.052 114.147C560.204 116.023 557.79 117.152 555.235 117.335C552.679 117.518 550.144 116.743 548.074 115.147C546.004 113.551 544.53 111.236 543.912 108.606C543.294 105.976 543.57 103.2 544.692 100.764C545.814 98.3277 547.711 96.3871 550.05 95.282C552.389 94.1769 555.02 93.9778 557.484 94.7195C559.948 95.4613 562.086 97.0965 563.525 99.3389C564.147 98.8239 564.899 98.5162 565.687 98.4551C566.224 98.407 566.765 98.4714 567.279 98.6446C567.792 98.8178 568.269 99.0965 568.681 99.4647C569.093 99.8328 569.432 100.283 569.679 100.79C569.926 101.297 570.077 101.851 570.122 102.419Z" fill="white"/>
<path d="M555.037 117.361C553.076 117.359 551.149 116.851 549.439 115.884C547.73 114.918 546.295 113.526 545.272 111.841C544.25 110.157 543.673 108.236 543.598 106.263C543.523 104.289 543.951 102.33 544.843 100.571C545.734 98.8127 547.059 97.314 548.69 96.2183C550.321 95.1227 552.204 94.4669 554.158 94.3136C556.113 94.1604 558.074 94.5147 559.853 95.3429C561.633 96.171 563.172 97.4452 564.323 99.0436C564.949 98.6506 565.66 98.4135 566.395 98.3522C566.988 98.3023 567.585 98.3722 568.151 98.5579C568.717 98.7436 569.24 99.0412 569.69 99.4334C570.144 99.8204 570.518 100.294 570.79 100.827C571.062 101.36 571.227 101.941 571.275 102.539C571.365 103.742 570.978 104.931 570.199 105.848C569.42 106.764 568.313 107.333 567.119 107.429C566.874 107.442 566.628 107.442 566.383 107.429C566.016 110.021 564.784 112.409 562.89 114.201C560.995 115.992 558.551 117.08 555.96 117.286L555.037 117.361ZM555.037 95.0457H554.188C552.168 95.2106 550.236 95.9507 548.618 97.1796C547 98.4085 545.762 100.076 545.049 101.986C544.337 103.897 544.178 105.972 544.592 107.971C545.006 109.969 545.975 111.807 547.387 113.271C548.799 114.735 550.596 115.764 552.567 116.239C554.538 116.714 556.602 116.614 558.519 115.951C560.436 115.289 562.126 114.091 563.392 112.497C564.659 110.904 565.449 108.98 565.671 106.951C565.675 106.897 565.69 106.844 565.716 106.797C565.742 106.749 565.778 106.707 565.821 106.675C565.868 106.654 565.919 106.643 565.971 106.643C566.022 106.643 566.073 106.654 566.12 106.675C566.431 106.719 566.746 106.719 567.057 106.675C567.551 106.638 568.034 106.503 568.476 106.278C568.918 106.052 569.312 105.74 569.633 105.36C569.955 104.98 570.198 104.539 570.35 104.063C570.501 103.588 570.557 103.087 570.514 102.589C570.478 102.091 570.344 101.605 570.12 101.159C569.896 100.714 569.586 100.318 569.208 99.9937C568.831 99.6697 568.394 99.4244 567.921 99.2721C567.449 99.1198 566.952 99.0635 566.457 99.1065C565.731 99.1649 565.037 99.4358 564.46 99.886C564.42 99.9169 564.374 99.9395 564.324 99.9525C564.275 99.9654 564.224 99.9685 564.173 99.9614C564.121 99.9544 564.07 99.9363 564.025 99.9081C563.98 99.8799 563.941 99.8424 563.911 99.798C562.933 98.3326 561.612 97.1325 560.064 96.3036C558.516 95.4748 556.79 95.0428 555.037 95.0457Z" fill="#2B2762"/>
<path d="M541.742 102.358L567.249 98.8953L560.614 88.0421C560.508 87.7766 560.304 87.5634 560.045 87.4478C559.786 87.3321 559.492 87.3233 559.227 87.423L551.315 89.1793C544.716 90.645 540.305 96.1791 541.467 101.536L541.742 102.358Z" fill="#2B2762"/>
<path d="M564.681 104.666C564.64 104.667 564.599 104.66 564.561 104.645C564.522 104.63 564.487 104.607 564.457 104.578C564.428 104.549 564.404 104.514 564.388 104.476C564.372 104.437 564.364 104.396 564.364 104.354C564.363 103.795 564.572 103.256 564.948 102.847C565.138 102.668 565.364 102.533 565.609 102.45C565.855 102.368 566.116 102.34 566.374 102.369C566.415 102.371 566.456 102.382 566.494 102.401C566.531 102.42 566.565 102.446 566.593 102.477C566.62 102.509 566.641 102.546 566.655 102.587C566.668 102.627 566.674 102.669 566.671 102.712C566.67 102.753 566.66 102.795 566.643 102.833C566.625 102.871 566.601 102.905 566.57 102.933C566.54 102.961 566.504 102.983 566.465 102.996C566.425 103.01 566.384 103.016 566.343 103.013C566.173 102.991 566 103.005 565.835 103.055C565.671 103.106 565.519 103.19 565.389 103.304C565.135 103.59 564.993 103.959 564.989 104.344C564.99 104.385 564.984 104.427 564.969 104.466C564.954 104.505 564.931 104.541 564.903 104.571C564.874 104.601 564.84 104.625 564.802 104.641C564.764 104.657 564.723 104.666 564.681 104.666Z" fill="#2B2762"/>
<path d="M578.982 296.249C573.271 296.246 567.795 293.937 563.757 289.829C559.718 285.722 557.448 280.152 557.445 274.343V244.776C557.435 244.72 557.437 244.662 557.452 244.606C557.466 244.551 557.492 244.499 557.528 244.455C557.564 244.411 557.61 244.375 557.661 244.351C557.712 244.327 557.768 244.314 557.824 244.314C557.88 244.314 557.936 244.327 557.987 244.351C558.038 244.375 558.084 244.411 558.12 244.455C558.156 244.499 558.182 244.551 558.197 244.606C558.211 244.662 558.213 244.72 558.203 244.776V274.343C558.21 279.946 560.401 285.318 564.296 289.28C568.192 293.242 573.473 295.471 578.982 295.478C579.084 295.478 579.182 295.519 579.254 295.593C579.326 295.666 579.367 295.766 579.367 295.87C579.367 295.921 579.357 295.971 579.338 296.018C579.318 296.065 579.289 296.107 579.254 296.143C579.218 296.178 579.175 296.206 579.128 296.224C579.082 296.242 579.032 296.251 578.982 296.249Z" fill="#26225B"/>
<path d="M375.137 289.325C375.137 289.325 307.672 272.921 286.221 194.687C358.551 201.993 390.092 283.974 390.092 283.974L375.137 289.325Z" fill="#756FBF"/>
<path d="M302.379 231.619L334.694 239.698L302.379 231.619Z" fill="white"/>
<path d="M332.035 238.544H331.955L302.61 230.151C302.53 230.115 302.464 230.044 302.422 229.953C302.381 229.861 302.369 229.754 302.387 229.652C302.405 229.55 302.452 229.459 302.521 229.397C302.589 229.334 302.674 229.304 302.759 229.312L332.115 237.704C332.205 237.731 332.283 237.8 332.333 237.897C332.382 237.994 332.398 238.111 332.377 238.222C332.355 238.313 332.31 238.393 332.249 238.451C332.187 238.509 332.112 238.541 332.035 238.544Z" fill="white"/>
<path d="M347.389 252.393L341.619 217.769L347.389 252.393Z" fill="white"/>
<path d="M347.03 252.393C346.943 252.392 346.859 252.358 346.792 252.298C346.725 252.238 346.68 252.155 346.664 252.064L341.625 218.229C341.607 218.127 341.629 218.021 341.684 217.936C341.739 217.85 341.824 217.792 341.92 217.773C342.016 217.759 342.115 217.785 342.194 217.846C342.273 217.908 342.327 217.999 342.344 218.103L347.384 251.937C347.401 252.04 347.379 252.145 347.324 252.231C347.269 252.316 347.184 252.374 347.089 252.393H347.03Z" fill="white"/>
<path d="M352.006 227.002L356.622 260.472L352.006 227.002Z" fill="white"/>
<path d="M356.24 261.626C356.15 261.627 356.063 261.593 355.996 261.531C355.928 261.469 355.884 261.383 355.872 261.289L350.857 226.306C350.849 226.254 350.85 226.2 350.862 226.149C350.873 226.097 350.894 226.049 350.924 226.006C350.954 225.964 350.992 225.928 351.035 225.902C351.078 225.875 351.126 225.858 351.176 225.852C351.275 225.837 351.376 225.864 351.456 225.927C351.537 225.99 351.59 226.084 351.605 226.189L356.62 261.172C356.631 261.276 356.604 261.381 356.545 261.465C356.486 261.549 356.399 261.607 356.301 261.626H356.24Z" fill="white"/>
<path d="M286.221 194.687L384.321 287.016L286.221 194.687Z" fill="white"/>
<path d="M383.926 288.163C383.88 288.162 383.834 288.151 383.792 288.132C383.75 288.112 383.712 288.084 383.68 288.049L286.333 195.35C286.297 195.314 286.269 195.272 286.25 195.225C286.231 195.178 286.221 195.127 286.221 195.077C286.221 195.026 286.231 194.975 286.25 194.928C286.269 194.881 286.297 194.839 286.333 194.803C286.368 194.767 286.41 194.737 286.457 194.717C286.503 194.697 286.553 194.687 286.603 194.687C286.653 194.687 286.703 194.697 286.749 194.717C286.796 194.737 286.838 194.767 286.873 194.803L384.209 287.553C384.244 287.59 384.273 287.633 384.292 287.681C384.311 287.729 384.321 287.781 384.321 287.833C384.321 287.885 384.311 287.936 384.292 287.984C384.273 288.032 384.244 288.076 384.209 288.112C384.124 288.164 384.023 288.182 383.926 288.163Z" fill="white"/>
<path d="M439.719 253.547H368.164V273.167H439.719V253.547Z" fill="white"/>
<path d="M439.337 273.167H368.545C368.444 273.167 368.347 273.126 368.275 273.052C368.204 272.978 368.164 272.878 368.164 272.774V252.774C368.164 252.723 368.173 252.672 368.193 252.625C368.212 252.578 368.24 252.536 368.276 252.5C368.312 252.465 368.354 252.437 368.4 252.418C368.446 252.4 368.496 252.391 368.545 252.393H439.337C439.386 252.391 439.436 252.4 439.482 252.418C439.528 252.437 439.571 252.465 439.606 252.5C439.642 252.536 439.67 252.578 439.689 252.625C439.709 252.672 439.719 252.723 439.719 252.774V272.761C439.72 272.814 439.712 272.866 439.693 272.916C439.675 272.965 439.647 273.01 439.611 273.047C439.576 273.085 439.533 273.115 439.486 273.136C439.439 273.157 439.388 273.167 439.337 273.167ZM368.927 272.393H438.968V253.179H368.927V272.393Z" fill="#26225B"/>
<path d="M422.345 296.249H353.928C350.051 296.249 346.333 294.669 343.592 291.855C340.851 289.041 339.311 285.225 339.311 281.246C339.311 277.267 340.851 273.45 343.592 270.637C346.333 267.823 350.051 266.242 353.928 266.242L422.407 273.335L422.345 296.249Z" fill="white"/>
<path d="M422 296.248H354.177C350.234 296.248 346.453 294.667 343.665 291.853C340.877 289.04 339.311 285.224 339.311 281.245C339.311 277.266 340.877 273.45 343.665 270.636C346.453 267.823 350.234 266.242 354.177 266.242L422.061 273.155C422.156 273.164 422.244 273.209 422.308 273.281C422.372 273.352 422.408 273.445 422.407 273.541V295.874C422.407 295.926 422.397 295.978 422.376 296.026C422.355 296.074 422.324 296.117 422.286 296.152C422.247 296.187 422.202 296.214 422.153 296.231C422.104 296.247 422.051 296.253 422 296.248ZM354.116 267.015C350.374 267.015 346.786 268.514 344.14 271.184C341.494 273.854 340.008 277.475 340.008 281.251C340.008 285.027 341.494 288.648 344.14 291.318C346.786 293.988 350.374 295.488 354.116 295.488H421.555V273.878L354.116 267.015Z" fill="#26225B"/>
<path d="M368.164 299.712L382.013 290.099V278.938H368.164V299.712Z" fill="#2B2762"/>
<path d="M380.859 296.249H448.387C452.21 296.249 455.876 294.669 458.579 291.855C461.283 289.041 462.801 285.225 462.801 281.246C462.801 277.267 461.283 273.45 458.579 270.637C455.876 267.823 452.21 266.242 448.387 266.242L380.859 273.322V296.249Z" fill="white"/>
<path d="M449.064 296.249H381.241C381.192 296.251 381.142 296.242 381.096 296.224C381.05 296.206 381.007 296.179 380.972 296.144C380.936 296.109 380.908 296.068 380.888 296.022C380.869 295.975 380.859 295.926 380.859 295.876V273.539C380.858 273.442 380.894 273.349 380.958 273.278C381.021 273.207 381.11 273.162 381.204 273.153L449.089 266.242C453.032 266.242 456.813 267.822 459.601 270.635C462.389 273.447 463.955 277.262 463.955 281.24C463.955 285.217 462.389 289.032 459.601 291.844C456.813 294.657 453.032 296.237 449.089 296.237L449.064 296.249ZM381.624 295.49H449.064C452.806 295.49 456.394 293.99 459.04 291.321C461.685 288.652 463.172 285.033 463.172 281.258C463.172 277.484 461.685 273.864 459.04 271.195C456.394 268.526 452.806 267.027 449.064 267.027L381.624 273.887V295.49Z" fill="#2B2762"/>
<path d="M391.544 132.365C391.544 132.365 385.68 122.103 391.544 118.264C397.408 114.426 414.328 110.436 414.328 110.436L412.338 128.777L391.544 132.365Z" fill="#2B2762"/>
<path d="M452.414 207.181C452.414 179.312 431.093 156.161 404.161 155.447H402.497C361.976 155.447 349.188 185.919 347.264 191.161C343.491 201.582 338.151 229.082 361.63 235.969V260.472H442.5V235.459L452.365 234.452L452.414 207.181Z" fill="#C42128"/>
<path d="M399.902 163.526C401.891 163.526 403.799 162.724 405.206 161.295C406.613 159.867 407.404 157.93 407.404 155.91V131.211H392.4V155.923C392.403 157.941 393.195 159.874 394.602 161.3C396.008 162.725 397.914 163.526 399.902 163.526Z" fill="white"/>
<path d="M399.89 163.526C397.904 163.522 396.001 162.669 394.597 161.154C393.193 159.638 392.403 157.584 392.4 155.441V130.454C392.4 130.349 392.439 130.248 392.508 130.173C392.577 130.098 392.671 130.056 392.769 130.056H407.035C407.133 130.056 407.226 130.098 407.296 130.173C407.365 130.248 407.404 130.349 407.404 130.454V155.441C407.402 156.504 407.206 157.557 406.828 158.539C406.45 159.521 405.896 160.412 405.198 161.163C404.5 161.914 403.672 162.509 402.762 162.914C401.851 163.32 400.875 163.527 399.89 163.526ZM393.137 130.826V155.415C393.137 157.348 393.849 159.202 395.115 160.569C396.381 161.936 398.099 162.704 399.89 162.704C401.681 162.704 403.398 161.936 404.665 160.569C405.931 159.202 406.643 157.348 406.643 155.415V130.826H393.137Z" fill="#2B2762"/>
<path d="M386.688 135.406C386.779 135.966 386.978 136.502 387.272 136.982C387.565 137.463 387.949 137.88 388.4 138.208C388.851 138.536 389.36 138.769 389.899 138.894C390.438 139.02 390.996 139.034 391.54 138.938C391.884 138.875 392.219 138.77 392.539 138.626C393.443 141.175 395.193 143.315 397.48 144.67C399.768 146.026 402.447 146.51 405.047 146.038C407.648 145.566 410.004 144.169 411.701 142.09C413.398 140.012 414.328 137.386 414.328 134.673C414.328 131.96 413.398 129.334 411.701 127.256C410.004 125.177 407.648 123.779 405.047 123.308C402.447 122.836 399.768 123.32 397.48 124.676C395.193 126.031 393.443 128.171 392.539 130.72C391.796 130.385 390.975 130.281 390.175 130.421C389.627 130.511 389.101 130.712 388.628 131.011C388.155 131.311 387.745 131.704 387.421 132.167C387.096 132.631 386.865 133.156 386.739 133.712C386.613 134.267 386.596 134.844 386.688 135.406Z" fill="white"/>
<path d="M403 146.214C401.474 146.213 399.964 145.897 398.562 145.284C397.159 144.672 395.893 143.776 394.839 142.65C393.862 141.622 393.089 140.412 392.562 139.086C392.333 139.162 392.098 139.221 391.86 139.262C391.278 139.362 390.682 139.345 390.107 139.21C389.532 139.075 388.988 138.825 388.508 138.475C388.027 138.125 387.619 137.682 387.307 137.171C386.996 136.66 386.786 136.091 386.69 135.497C386.594 134.905 386.612 134.299 386.746 133.713C386.879 133.128 387.124 132.576 387.467 132.087C387.81 131.599 388.244 131.184 388.745 130.867C389.245 130.55 389.802 130.337 390.383 130.239C391.099 130.11 391.836 130.167 392.525 130.402C393.253 128.532 394.449 126.889 395.994 125.636C397.539 124.383 399.378 123.565 401.33 123.263C403.281 122.96 405.276 123.184 407.117 123.912C408.957 124.64 410.578 125.847 411.818 127.412C413.059 128.978 413.875 130.847 414.187 132.834C414.498 134.821 414.294 136.857 413.593 138.738C412.893 140.619 411.722 142.281 410.196 143.558C408.67 144.834 406.843 145.681 404.896 146.013C404.271 146.136 403.637 146.203 403 146.214ZM392.771 138.195H392.919C393.015 138.24 393.09 138.321 393.128 138.421C393.987 140.763 395.619 142.728 397.744 143.976C399.869 145.224 402.355 145.678 404.773 145.26C406.831 144.907 408.739 143.939 410.256 142.478C411.773 141.018 412.831 139.131 413.295 137.057C413.759 134.983 413.609 132.815 412.863 130.828C412.117 128.842 410.81 127.125 409.106 125.897C407.779 124.941 406.254 124.31 404.649 124.055C403.044 123.799 401.402 123.925 399.853 124.423C398.303 124.921 396.888 125.778 395.717 126.926C394.546 128.075 393.652 129.483 393.104 131.042C393.086 131.093 393.059 131.139 393.023 131.178C392.987 131.217 392.943 131.248 392.894 131.268C392.799 131.306 392.694 131.306 392.599 131.268C391.94 130.98 391.214 130.889 390.506 131.005C390.023 131.085 389.56 131.263 389.145 131.527C388.729 131.792 388.369 132.138 388.086 132.545C387.804 132.953 387.603 133.414 387.496 133.901C387.39 134.389 387.379 134.893 387.466 135.384C387.545 135.876 387.719 136.347 387.977 136.769C388.236 137.192 388.574 137.558 388.973 137.846C389.371 138.134 389.822 138.339 390.298 138.449C390.775 138.558 391.268 138.57 391.75 138.484C392.055 138.428 392.352 138.335 392.636 138.208C392.678 138.187 392.724 138.174 392.771 138.17V138.195Z" fill="#2B2762"/>
<path d="M393.292 136.969C393.2 136.971 393.11 136.944 393.037 136.892C392.964 136.839 392.913 136.765 392.891 136.682C392.744 136.207 392.41 135.802 391.956 135.547C391.746 135.46 391.518 135.415 391.288 135.415C391.057 135.415 390.83 135.46 390.62 135.547C390.569 135.562 390.515 135.568 390.462 135.564C390.408 135.56 390.357 135.546 390.309 135.522C390.262 135.499 390.22 135.467 390.186 135.429C390.152 135.39 390.127 135.346 390.112 135.298C390.078 135.2 390.087 135.094 390.137 135.003C390.188 134.912 390.274 134.843 390.379 134.811C390.695 134.702 391.033 134.657 391.369 134.678C391.705 134.7 392.033 134.788 392.33 134.936C392.935 135.302 393.369 135.868 393.546 136.52C393.567 136.619 393.547 136.721 393.49 136.807C393.433 136.892 393.343 136.955 393.239 136.981L393.292 136.969Z" fill="#2B2762"/>
<path d="M381.238 296.241C381.189 296.243 381.14 296.234 381.094 296.216C381.048 296.198 381.006 296.171 380.971 296.136C380.935 296.102 380.907 296.06 380.888 296.014C380.869 295.968 380.859 295.918 380.859 295.868V273.538C380.858 273.442 380.893 273.349 380.957 273.278C381.02 273.206 381.108 273.162 381.202 273.152L448.544 266.244C448.593 266.239 448.643 266.244 448.69 266.259C448.738 266.274 448.782 266.298 448.819 266.331C448.857 266.364 448.888 266.404 448.91 266.448C448.932 266.493 448.945 266.543 448.948 266.593C448.955 266.642 448.952 266.692 448.939 266.74C448.925 266.788 448.903 266.833 448.871 266.872C448.84 266.91 448.802 266.942 448.758 266.965C448.714 266.987 448.667 267.001 448.618 267.004L381.667 273.874V295.855C381.672 295.912 381.664 295.969 381.643 296.021C381.623 296.074 381.591 296.121 381.549 296.159C381.507 296.196 381.457 296.223 381.403 296.238C381.349 296.252 381.293 296.253 381.238 296.241Z" fill="#2B2762"/>
<path d="M339.684 281.246C339.634 281.246 339.585 281.236 339.538 281.217C339.492 281.198 339.451 281.17 339.416 281.134C339.381 281.099 339.354 281.057 339.336 281.012C339.318 280.966 339.309 280.917 339.311 280.868C339.33 276.995 340.911 273.286 343.708 270.547C346.506 267.809 350.294 266.262 354.25 266.242L377.058 268.436C377.107 268.441 377.155 268.455 377.199 268.478C377.242 268.5 377.281 268.531 377.312 268.569C377.343 268.606 377.367 268.649 377.381 268.695C377.395 268.742 377.4 268.79 377.394 268.838C377.391 268.889 377.378 268.938 377.355 268.983C377.331 269.028 377.299 269.068 377.259 269.1C377.219 269.132 377.173 269.155 377.124 269.169C377.074 269.183 377.022 269.186 376.971 269.18L354.263 266.925C350.495 266.941 346.887 268.417 344.228 271.029C341.568 273.642 340.073 277.179 340.07 280.868C340.07 280.968 340.03 281.064 339.957 281.135C339.885 281.206 339.787 281.246 339.684 281.246Z" fill="#26225B"/>
<path d="M415.976 219.28L431.075 216.615L431.185 220.309L437.411 220.594L437.166 236.012L414.328 236.235L415.976 219.28Z" fill="white"/>
<path d="M414.702 236.235C414.65 236.235 414.599 236.223 414.552 236.201C414.505 236.18 414.463 236.148 414.429 236.109C414.393 236.068 414.366 236.02 414.349 235.968C414.332 235.915 414.325 235.86 414.33 235.805L416.016 218.537C416.026 218.454 416.061 218.376 416.116 218.314C416.172 218.253 416.246 218.211 416.327 218.196L431.681 215.465C431.734 215.457 431.788 215.461 431.839 215.476C431.891 215.492 431.938 215.518 431.979 215.554C432.024 215.587 432.061 215.631 432.087 215.681C432.113 215.732 432.127 215.788 432.128 215.844L432.227 219.258L438.205 219.536C438.303 219.542 438.394 219.586 438.461 219.659C438.528 219.732 438.565 219.828 438.565 219.928L438.317 235.654C438.311 235.754 438.268 235.849 438.197 235.919C438.125 235.99 438.031 236.03 437.932 236.033L414.702 236.235ZM416.723 218.891L415.123 235.452L437.535 235.237L437.771 220.269L431.818 219.991C431.72 219.988 431.627 219.947 431.558 219.876C431.489 219.806 431.449 219.711 431.446 219.612L431.346 216.287L416.723 218.891Z" fill="#26225B"/>
<path d="M438.088 224.687L430.857 224.377C430.756 224.37 430.662 224.322 430.593 224.241C430.524 224.161 430.486 224.055 430.486 223.945C430.487 223.89 430.499 223.836 430.52 223.786C430.54 223.736 430.57 223.691 430.607 223.653C430.644 223.615 430.687 223.586 430.734 223.567C430.781 223.547 430.831 223.538 430.881 223.54L438.113 223.864C438.168 223.853 438.225 223.856 438.279 223.871C438.333 223.887 438.384 223.915 438.427 223.954C438.47 223.994 438.505 224.043 438.529 224.098C438.552 224.154 438.565 224.214 438.565 224.276C438.565 224.337 438.552 224.397 438.529 224.453C438.505 224.508 438.47 224.558 438.427 224.597C438.384 224.636 438.333 224.665 438.279 224.68C438.225 224.696 438.168 224.698 438.113 224.687H438.088Z" fill="#26225B"/>
<path d="M436.999 229.31L429.695 228.988C429.644 228.987 429.595 228.974 429.549 228.951C429.504 228.929 429.463 228.896 429.429 228.856C429.395 228.816 429.369 228.769 429.353 228.718C429.336 228.667 429.329 228.613 429.333 228.559C429.339 228.452 429.382 228.352 429.454 228.277C429.525 228.203 429.62 228.16 429.72 228.156L437.024 228.465C437.126 228.465 437.225 228.509 437.297 228.587C437.37 228.665 437.411 228.771 437.411 228.881C437.411 228.991 437.37 229.097 437.297 229.175C437.225 229.253 437.126 229.297 437.024 229.297L436.999 229.31Z" fill="#26225B"/>
<path d="M437.01 232.772L429.695 232.447C429.645 232.445 429.595 232.433 429.55 232.41C429.504 232.387 429.463 232.354 429.429 232.314C429.395 232.273 429.369 232.226 429.353 232.174C429.336 232.123 429.329 232.068 429.333 232.014C429.332 231.958 429.343 231.904 429.363 231.853C429.384 231.803 429.414 231.758 429.452 231.72C429.489 231.683 429.534 231.655 429.582 231.638C429.631 231.621 429.682 231.615 429.733 231.621L437.048 231.932C437.148 231.939 437.242 231.988 437.31 232.069C437.378 232.15 437.414 232.257 437.41 232.366C437.41 232.421 437.4 232.477 437.38 232.528C437.359 232.579 437.329 232.625 437.292 232.663C437.254 232.701 437.21 232.73 437.161 232.749C437.113 232.768 437.062 232.776 437.01 232.772Z" fill="#26225B"/>
<path d="M380.837 238.543C377.606 238.543 374.276 238.543 370.858 238.388C370.756 238.388 370.658 238.337 370.585 238.247C370.513 238.157 370.472 238.034 370.472 237.906C370.472 237.778 370.513 237.656 370.585 237.565C370.658 237.475 370.756 237.424 370.858 237.424C388.446 237.968 404.636 236.911 412.718 236.243C412.774 236.23 412.831 236.233 412.886 236.251C412.941 236.269 412.992 236.302 413.035 236.347C413.079 236.392 413.114 236.449 413.138 236.513C413.162 236.577 413.174 236.646 413.174 236.717C413.174 236.788 413.162 236.857 413.138 236.921C413.114 236.985 413.079 237.042 413.035 237.087C412.992 237.132 412.941 237.165 412.886 237.183C412.831 237.201 412.774 237.204 412.718 237.191C406.27 237.735 394.433 238.543 380.837 238.543Z" fill="white"/>
<path d="M417.436 216.615C417.069 216.615 380.389 215.683 374.469 215.45C373.89 215.441 373.32 215.298 372.798 215.032C372.276 214.766 371.816 214.383 371.448 213.909C368.61 210.439 369.418 202.255 369.442 201.97C369.453 201.864 369.504 201.767 369.583 201.7C369.662 201.633 369.763 201.602 369.864 201.614C369.965 201.626 370.056 201.68 370.12 201.764C370.183 201.848 370.212 201.955 370.2 202.061C370.2 202.139 369.393 210.18 372.011 213.391C372.307 213.779 372.679 214.096 373.101 214.319C373.523 214.542 373.985 214.668 374.457 214.686C380.376 214.906 417.044 215.838 417.423 215.851C417.473 215.851 417.521 215.862 417.567 215.882C417.612 215.902 417.653 215.932 417.687 215.97C417.722 216.007 417.748 216.051 417.766 216.1C417.784 216.149 417.792 216.201 417.79 216.253C417.782 216.348 417.741 216.437 417.676 216.503C417.611 216.57 417.526 216.609 417.436 216.615Z" fill="white"/>
<path d="M554.339 208.536C554.247 208.532 554.16 208.497 554.094 208.44C554.027 208.383 553.986 208.307 553.977 208.226C553.97 208.135 554.002 208.045 554.067 207.975C554.132 207.905 554.225 207.859 554.326 207.848C557.754 207.615 575.89 206.227 597.378 202.774C597.427 202.764 597.478 202.763 597.528 202.772C597.577 202.78 597.624 202.797 597.666 202.822C597.708 202.847 597.744 202.879 597.772 202.916C597.799 202.954 597.818 202.996 597.827 203.04C597.845 203.13 597.822 203.223 597.764 203.298C597.705 203.372 597.616 203.424 597.515 203.44C576.002 206.904 557.816 208.292 554.389 208.536H554.339Z" fill="white"/>
<path d="M548.58 187.762C548.488 187.763 548.399 187.729 548.33 187.669C548.262 187.608 548.219 187.525 548.21 187.434C548.196 187.336 548.221 187.237 548.281 187.157C548.342 187.078 548.431 187.025 548.531 187.01C548.889 187.01 584.456 182.153 590.31 180.938C590.785 180.861 591.237 180.681 591.634 180.413C592.031 180.144 592.363 179.793 592.607 179.384C594.743 176.021 592.78 168.687 592.755 168.614C592.732 168.518 592.747 168.416 592.798 168.33C592.848 168.245 592.93 168.181 593.027 168.153C593.125 168.13 593.228 168.145 593.315 168.195C593.402 168.244 593.467 168.325 593.496 168.42C593.582 168.736 595.571 176.142 593.249 179.785C592.948 180.278 592.543 180.702 592.062 181.029C591.58 181.356 591.034 181.577 590.458 181.679C584.579 182.784 549 187.641 548.63 187.75L548.58 187.762Z" fill="white"/>
<path d="M548.564 191.225L533.64 192.721V195.921L527.432 197.16L529.84 210.845L552.822 207.546L548.564 191.225Z" fill="white"/>
<path d="M530.271 211.999C530.18 212.001 530.09 211.969 530.019 211.908C529.947 211.848 529.899 211.764 529.881 211.67L527.436 196.982C527.421 196.876 527.445 196.768 527.504 196.68C527.562 196.592 527.651 196.53 527.751 196.508L533.737 195.192V192.086C533.736 191.984 533.772 191.886 533.837 191.811C533.903 191.735 533.993 191.688 534.09 191.678L549.211 190.072C549.303 190.063 549.396 190.088 549.472 190.144C549.549 190.199 549.603 190.281 549.627 190.375L553.949 207.892C553.986 207.999 553.986 208.115 553.949 208.222C553.917 208.268 553.875 208.308 553.827 208.337C553.78 208.367 553.727 208.386 553.672 208.393L530.347 211.946L530.271 211.999ZM528.268 197.193L530.586 211.104L553.105 207.721L548.984 190.981L534.518 192.507V195.587C534.517 195.681 534.485 195.771 534.427 195.843C534.37 195.915 534.291 195.964 534.203 195.982L528.268 197.193Z" fill="#2B2762"/>
<path d="M528.974 201.612C528.883 201.61 528.796 201.577 528.727 201.517C528.657 201.457 528.61 201.373 528.593 201.281C528.574 201.176 528.595 201.067 528.652 200.979C528.709 200.89 528.797 200.827 528.897 200.805L536.188 199.311C536.291 199.291 536.397 199.313 536.484 199.372C536.572 199.431 536.634 199.522 536.658 199.628C536.677 199.735 536.654 199.845 536.594 199.935C536.535 200.024 536.444 200.085 536.341 200.104L529.05 201.612H528.974Z" fill="#2B2762"/>
<path d="M530.077 205.074C529.999 205.073 529.925 205.04 529.865 204.98C529.806 204.92 529.765 204.837 529.75 204.745C529.739 204.693 529.737 204.639 529.744 204.586C529.752 204.533 529.768 204.483 529.793 204.438C529.818 204.393 529.85 204.355 529.888 204.327C529.925 204.298 529.967 204.279 530.011 204.272L536.262 202.772C536.351 202.753 536.441 202.777 536.515 202.839C536.588 202.9 536.639 202.995 536.655 203.101C536.666 203.153 536.668 203.207 536.66 203.26C536.653 203.313 536.636 203.364 536.612 203.409C536.587 203.453 536.555 203.491 536.517 203.52C536.479 203.548 536.437 203.567 536.393 203.575L530.142 205.061L530.077 205.074Z" fill="#2B2762"/>
<path d="M530.14 208.536C530.048 208.536 529.959 208.503 529.888 208.443C529.816 208.383 529.766 208.3 529.746 208.208C529.728 208.101 529.751 207.992 529.81 207.903C529.87 207.814 529.961 207.753 530.064 207.734L537.355 206.235C537.458 206.215 537.564 206.239 537.649 206.301C537.735 206.363 537.794 206.457 537.812 206.563C537.831 206.668 537.81 206.776 537.753 206.864C537.696 206.953 537.608 207.015 537.507 207.037L530.216 208.523L530.14 208.536Z" fill="#2B2762"/>
<path d="M622.069 112.745C638.004 112.745 650.922 99.3101 650.922 82.7376C650.922 66.1652 638.004 52.7306 622.069 52.7306C606.134 52.7306 593.216 66.1652 593.216 82.7376C593.216 99.3101 606.134 112.745 622.069 112.745Z" fill="white"/>
<path d="M621.209 113.899C618.62 113.873 616.045 113.495 613.55 112.774C613.502 112.76 613.456 112.736 613.417 112.704C613.377 112.671 613.344 112.631 613.319 112.585C613.295 112.54 613.279 112.489 613.273 112.437C613.267 112.385 613.272 112.333 613.285 112.282C613.299 112.232 613.322 112.185 613.353 112.144C613.385 112.103 613.423 112.069 613.468 112.043C613.512 112.018 613.56 112.001 613.61 111.995C613.66 111.989 613.711 111.993 613.759 112.008C616.185 112.712 618.69 113.082 621.209 113.107C621.259 113.107 621.309 113.117 621.355 113.137C621.402 113.157 621.444 113.186 621.479 113.223C621.515 113.259 621.543 113.303 621.562 113.351C621.581 113.399 621.591 113.451 621.591 113.503C621.591 113.608 621.551 113.709 621.479 113.783C621.408 113.857 621.31 113.899 621.209 113.899ZM625.026 113.669C624.933 113.67 624.843 113.635 624.773 113.571C624.702 113.508 624.657 113.42 624.645 113.324C624.638 113.272 624.641 113.22 624.654 113.17C624.667 113.12 624.69 113.073 624.721 113.033C624.752 112.992 624.791 112.958 624.835 112.934C624.879 112.909 624.927 112.894 624.977 112.889C627.48 112.571 629.932 111.909 632.267 110.922C632.362 110.886 632.466 110.889 632.56 110.929C632.653 110.969 632.729 111.044 632.772 111.139C632.809 111.237 632.808 111.347 632.769 111.445C632.73 111.542 632.656 111.62 632.562 111.663C630.164 112.673 627.646 113.348 625.076 113.669H625.026ZM610.041 111.471H609.893C607.511 110.41 605.275 109.027 603.243 107.356C603.204 107.325 603.171 107.286 603.146 107.241C603.121 107.196 603.106 107.147 603.1 107.095C603.094 107.044 603.098 106.992 603.112 106.943C603.127 106.893 603.15 106.847 603.182 106.807C603.245 106.724 603.337 106.67 603.438 106.655C603.539 106.641 603.641 106.668 603.724 106.73C605.719 108.334 607.909 109.657 610.238 110.666C610.322 110.699 610.393 110.762 610.437 110.844C610.481 110.927 610.495 111.022 610.478 111.114C610.46 111.207 610.411 111.289 610.34 111.348C610.269 111.406 610.18 111.436 610.09 111.433L610.041 111.471ZM635.9 109.963C635.832 109.96 635.766 109.94 635.708 109.905C635.65 109.869 635.602 109.819 635.567 109.759C635.518 109.667 635.507 109.559 635.534 109.459C635.562 109.358 635.627 109.273 635.715 109.222C637.902 107.921 639.918 106.332 641.712 104.494C641.747 104.457 641.789 104.428 641.836 104.408C641.882 104.388 641.932 104.377 641.983 104.377C642.033 104.377 642.083 104.388 642.129 104.408C642.176 104.428 642.218 104.457 642.253 104.494C642.289 104.531 642.318 104.575 642.337 104.623C642.356 104.671 642.366 104.723 642.366 104.775C642.366 104.828 642.356 104.879 642.337 104.928C642.318 104.976 642.289 105.02 642.253 105.056C640.412 106.945 638.343 108.577 636.097 109.912C636.017 109.937 635.932 109.941 635.85 109.925L635.9 109.963ZM600.694 104.763C600.643 104.764 600.592 104.753 600.545 104.731C600.498 104.708 600.457 104.676 600.424 104.635C598.621 102.724 597.069 100.576 595.806 98.2458C595.776 98.2003 595.756 98.1489 595.747 98.0949C595.737 98.0409 595.739 97.9855 595.751 97.9321C595.764 97.8788 595.787 97.8287 595.819 97.785C595.851 97.7413 595.891 97.7049 595.937 97.6783C595.983 97.6516 596.034 97.6353 596.087 97.6302C596.14 97.6251 596.193 97.6314 596.243 97.6487C596.293 97.666 596.339 97.6939 596.379 97.7307C596.418 97.7675 596.449 97.8124 596.471 97.8624C597.697 100.146 599.208 102.251 600.965 104.124C601.001 104.16 601.029 104.204 601.049 104.253C601.068 104.301 601.078 104.353 601.078 104.405C601.078 104.457 601.068 104.509 601.049 104.557C601.029 104.605 601.001 104.649 600.965 104.686C600.918 104.716 600.865 104.735 600.809 104.742C600.754 104.748 600.698 104.742 600.645 104.724L600.694 104.763ZM644.519 102.207C644.435 102.209 644.353 102.182 644.285 102.13C644.205 102.065 644.153 101.969 644.139 101.865C644.125 101.76 644.151 101.653 644.211 101.568C645.751 99.4754 647.01 97.1757 647.955 94.7318C648.005 94.6502 648.082 94.5897 648.171 94.5613C648.261 94.5329 648.357 94.5384 648.443 94.5768C648.528 94.6152 648.598 94.684 648.64 94.7709C648.681 94.8578 648.692 94.9572 648.669 95.0513C647.652 97.539 646.323 99.8763 644.716 102.003C644.687 102.044 644.65 102.079 644.608 102.105C644.566 102.131 644.519 102.149 644.47 102.156L644.519 102.207ZM594.451 94.7318C594.375 94.7347 594.3 94.7129 594.236 94.6694C594.172 94.6259 594.122 94.5629 594.094 94.4891C593.144 91.9873 592.514 89.3666 592.223 86.6945C592.217 86.6424 592.222 86.5898 592.237 86.5397C592.252 86.4897 592.276 86.4431 592.308 86.4027C592.34 86.3623 592.379 86.3289 592.424 86.3044C592.468 86.2799 592.517 86.2648 592.567 86.26C592.617 86.2509 592.668 86.2529 592.717 86.2658C592.766 86.2786 592.812 86.3022 592.852 86.3348C592.891 86.3674 592.924 86.4083 592.947 86.4549C592.97 86.5015 592.983 86.5527 592.986 86.605C593.269 89.2072 593.882 91.7593 594.808 94.1952C594.826 94.2438 594.835 94.2957 594.833 94.3477C594.832 94.3997 594.82 94.4509 594.8 94.4984C594.779 94.5459 594.75 94.5887 594.713 94.6243C594.677 94.66 594.634 94.6879 594.587 94.7063C594.545 94.728 594.498 94.7369 594.451 94.7318ZM649.543 91.5118H649.445C649.396 91.4984 649.351 91.4753 649.311 91.4436C649.271 91.412 649.237 91.3725 649.212 91.3274C649.187 91.2822 649.171 91.2324 649.164 91.1808C649.157 91.1291 649.161 91.0766 649.174 91.0262C649.829 88.5014 650.161 85.8977 650.159 83.2828C650.159 83.1777 650.199 83.077 650.271 83.0027C650.342 82.9284 650.439 82.8866 650.541 82.8866C650.642 82.8866 650.739 82.9284 650.81 83.0027C650.882 83.077 650.922 83.1777 650.922 83.2828C650.926 85.971 650.587 88.6479 649.913 91.2435C649.896 91.3326 649.85 91.413 649.782 91.4711C649.715 91.5293 649.631 91.5617 649.543 91.5629V91.5118ZM592.432 83.0911C592.382 83.0894 592.332 83.0776 592.287 83.0561C592.241 83.0347 592.2 83.0041 592.166 82.9661C592.131 82.9281 592.104 82.8835 592.087 82.8348C592.069 82.7861 592.061 82.7342 592.063 82.6822C592.108 79.9965 592.493 77.3287 593.208 74.7471C593.239 74.6467 593.306 74.5627 593.396 74.5127C593.485 74.4627 593.59 74.4506 593.688 74.4787C593.785 74.5112 593.866 74.5811 593.914 74.674C593.962 74.7668 593.974 74.8754 593.947 74.9771C593.251 77.4707 592.874 80.0484 592.826 82.6439C592.842 82.7047 592.843 82.7687 592.831 82.8303C592.818 82.8919 592.791 82.9495 592.753 82.9982C592.714 83.047 592.665 83.0855 592.609 83.1105C592.553 83.1355 592.493 83.1464 592.432 83.1422V83.0911ZM650.417 80.8166C650.322 80.8171 650.23 80.7806 650.16 80.7145C650.089 80.6483 650.045 80.5571 650.036 80.4588C649.807 77.8364 649.24 75.2577 648.349 72.792C648.317 72.692 648.323 72.5829 648.367 72.4877C648.41 72.3925 648.488 72.3184 648.583 72.2809C648.63 72.2624 648.68 72.2537 648.73 72.2553C648.78 72.2568 648.829 72.2686 648.875 72.29C648.921 72.3113 648.962 72.3419 648.996 72.3798C649.031 72.4177 649.057 72.4622 649.075 72.5109C649.974 75.0292 650.553 77.6579 650.799 80.3311C650.804 80.3831 650.799 80.4357 650.785 80.4858C650.77 80.5359 650.746 80.5825 650.714 80.6229C650.682 80.6633 650.643 80.6967 650.598 80.7211C650.553 80.7456 650.505 80.7607 650.454 80.7655L650.417 80.8166ZM594.87 71.527C594.821 71.5385 594.771 71.5385 594.722 71.527C594.676 71.5062 594.634 71.4761 594.599 71.4385C594.564 71.4008 594.537 71.3563 594.519 71.3076C594.5 71.2589 594.491 71.207 594.493 71.1547C594.494 71.1024 594.505 71.0509 594.525 71.0031C595.565 68.5417 596.915 66.2343 598.54 64.1413C598.575 64.1042 598.617 64.0748 598.664 64.0547C598.71 64.0346 598.76 64.0243 598.81 64.0243C598.861 64.0243 598.911 64.0346 598.957 64.0547C599.004 64.0748 599.046 64.1042 599.081 64.1413C599.117 64.1771 599.145 64.2198 599.164 64.267C599.183 64.3141 599.193 64.3648 599.193 64.4161C599.193 64.4673 599.183 64.518 599.164 64.5652C599.145 64.6124 599.117 64.6551 599.081 64.6908C597.505 66.7323 596.193 68.979 595.178 71.3737C595.146 71.4303 595.101 71.4783 595.047 71.5138C594.994 71.5493 594.933 71.5714 594.87 71.5781V71.527ZM647.179 69.5336C647.111 69.5347 647.044 69.5162 646.985 69.4801C646.926 69.4441 646.878 69.3918 646.846 69.3292C645.659 67.0079 644.181 64.8597 642.45 62.9402C642.416 62.9016 642.39 62.8565 642.373 62.8073C642.356 62.7582 642.348 62.706 642.351 62.6538C642.353 62.6016 642.365 62.5504 642.386 62.503C642.408 62.4557 642.438 62.4132 642.475 62.378C642.512 62.3427 642.556 62.3154 642.603 62.2977C642.65 62.2799 642.701 62.2719 642.751 62.2743C642.801 62.2767 642.851 62.2893 642.896 62.3115C642.942 62.3337 642.983 62.3649 643.017 62.4035C644.786 64.3601 646.297 66.5514 647.511 68.9203C647.537 68.9652 647.554 69.0151 647.56 69.067C647.567 69.1188 647.563 69.1715 647.549 69.2218C647.535 69.272 647.512 69.3188 647.48 69.3593C647.448 69.3997 647.408 69.433 647.364 69.457C647.311 69.5008 647.246 69.5275 647.179 69.5336ZM601.458 61.8669C601.408 61.8671 601.358 61.8571 601.311 61.8374C601.265 61.8176 601.223 61.7886 601.187 61.7519C601.151 61.715 601.123 61.6712 601.104 61.623C601.084 61.5747 601.074 61.523 601.074 61.4707C601.074 61.4185 601.084 61.3667 601.104 61.3185C601.123 61.2702 601.151 61.2264 601.187 61.1896C603.058 59.3316 605.157 57.7376 607.43 56.449C607.475 56.4245 607.523 56.4094 607.573 56.4045C607.623 56.3996 607.674 56.405 607.722 56.4204C607.77 56.4359 607.815 56.461 607.853 56.4944C607.892 56.5278 607.924 56.5688 607.947 56.6151C607.996 56.7067 608.008 56.8145 607.98 56.915C607.952 57.0156 607.887 57.1007 607.799 57.1518C605.583 58.4014 603.537 59.9528 601.716 61.7646C601.678 61.8053 601.632 61.8366 601.581 61.8565C601.53 61.8764 601.475 61.8843 601.421 61.8796L601.458 61.8669ZM639.938 60.3718C639.896 60.3739 639.853 60.3671 639.813 60.3517C639.773 60.3363 639.736 60.3128 639.704 60.2824C637.752 58.6232 635.6 57.2357 633.301 56.1551C633.255 56.1345 633.213 56.1043 633.179 56.0664C633.144 56.0284 633.117 55.9836 633.1 55.9345C633.083 55.8854 633.075 55.8332 633.078 55.7811C633.081 55.7289 633.094 55.6779 633.117 55.6312C633.16 55.5366 633.236 55.4626 633.33 55.4246C633.424 55.3866 633.528 55.3873 633.621 55.4267C635.979 56.5352 638.186 57.9616 640.185 59.669C640.22 59.7059 640.249 59.7497 640.268 59.7979C640.288 59.8461 640.297 59.8979 640.297 59.9502C640.297 60.0024 640.288 60.0542 640.268 60.1024C640.249 60.1507 640.22 60.1945 640.185 60.2313C640.15 60.2759 640.108 60.3126 640.059 60.3391C640.01 60.3655 639.956 60.381 639.901 60.3846L639.938 60.3718ZM611.1 55.5417C611.022 55.5437 610.945 55.52 610.881 55.4741C610.817 55.4282 610.768 55.3624 610.743 55.2862C610.723 55.2385 610.712 55.1872 610.712 55.1352C610.712 55.0833 610.722 55.0319 610.742 54.9841C610.761 54.9363 610.79 54.8931 610.826 54.8572C610.862 54.8212 610.905 54.7933 610.952 54.7751C613.367 53.8048 615.898 53.1773 618.476 52.9095C618.525 52.9024 618.575 52.9057 618.624 52.9194C618.672 52.9331 618.717 52.9567 618.756 52.989C618.795 53.0212 618.828 53.0614 618.851 53.107C618.875 53.1527 618.89 53.2028 618.894 53.2545C618.901 53.3066 618.898 53.3596 618.885 53.4104C618.872 53.4612 618.849 53.5088 618.818 53.5504C618.787 53.592 618.749 53.6268 618.705 53.6528C618.661 53.6788 618.612 53.6954 618.562 53.7017C616.031 53.9575 613.546 54.5679 611.173 55.5162L611.1 55.5417ZM629.878 54.8006H629.767C627.369 54.0416 624.885 53.6121 622.379 53.5228C622.278 53.5228 622.181 53.4811 622.109 53.4068C622.038 53.3325 621.997 53.2318 621.997 53.1267C621.997 53.0217 622.038 52.9209 622.109 52.8466C622.181 52.7723 622.278 52.7306 622.379 52.7306C624.967 52.8093 627.533 53.2389 630.014 54.0084C630.105 54.0327 630.184 54.0913 630.237 54.1728C630.289 54.2544 630.31 54.3531 630.296 54.4499C630.283 54.5467 630.235 54.6349 630.162 54.6973C630.089 54.7597 629.997 54.7919 629.903 54.7878L629.878 54.8006Z" fill="#2B2762"/>
<path d="M614.38 146.208C614.293 146.21 614.208 146.182 614.139 146.128C614.07 146.075 614.021 145.999 614.001 145.913C613.981 145.828 613.99 145.738 614.028 145.659C614.066 145.579 614.129 145.516 614.208 145.478C616.478 144.439 618.555 143.016 620.348 141.27C620.42 141.198 620.517 141.157 620.619 141.157C620.72 141.157 620.817 141.198 620.889 141.27C620.961 141.342 621.001 141.44 621.001 141.542C621.001 141.644 620.961 141.742 620.889 141.814C619.027 143.633 616.872 145.119 614.515 146.208C614.47 146.216 614.425 146.216 614.38 146.208ZM623.099 138.968C623.029 138.973 622.958 138.957 622.897 138.923C622.835 138.888 622.784 138.837 622.75 138.774C622.717 138.712 622.702 138.64 622.707 138.569C622.712 138.498 622.738 138.43 622.78 138.374C624.17 136.248 625.119 133.861 625.568 131.356C625.586 131.256 625.642 131.167 625.725 131.109C625.808 131.051 625.911 131.029 626.01 131.047C626.11 131.068 626.198 131.127 626.256 131.213C626.313 131.298 626.335 131.403 626.317 131.505C625.852 134.106 624.862 136.583 623.406 138.782C623.374 138.831 623.33 138.872 623.279 138.9C623.228 138.928 623.17 138.943 623.112 138.943L623.099 138.968ZM626.292 128.051C626.242 128.05 626.193 128.038 626.148 128.018C626.102 127.997 626.061 127.967 626.027 127.93C625.993 127.894 625.966 127.85 625.948 127.803C625.931 127.756 625.922 127.706 625.924 127.655V127.148C625.928 124.788 625.609 122.44 624.978 120.167C624.961 120.12 624.954 120.069 624.957 120.018C624.961 119.967 624.974 119.918 624.997 119.872C625.02 119.827 625.052 119.787 625.091 119.755C625.13 119.723 625.175 119.699 625.224 119.685C625.32 119.657 625.423 119.667 625.512 119.713C625.601 119.759 625.669 119.837 625.703 119.932C626.369 122.278 626.7 124.708 626.685 127.148V127.643C626.685 127.694 626.675 127.745 626.655 127.793C626.635 127.84 626.606 127.883 626.57 127.919C626.533 127.955 626.489 127.983 626.442 128.001C626.394 128.02 626.343 128.028 626.292 128.027V128.051Z" fill="#2B2762"/>
<g clip-path="url(#clip1)">
<path d="M449.498 294.535C449.498 294.535 448.81 296.107 448.323 296.249C447.835 296.364 441.645 294.249 437.833 292.45C434.021 290.65 438.119 290.764 440.355 291.564C444.453 292.392 449.498 294.535 449.498 294.535Z" fill="#26225B"/>
<path d="M447.581 288.066L452.203 288.709C452.131 288.875 452.031 289.101 451.911 289.368C451.653 289.945 451.304 290.712 450.938 291.478C450.571 292.244 450.19 293.003 449.869 293.566C449.707 293.848 449.565 294.073 449.45 294.223C449.399 294.29 449.358 294.335 449.329 294.362C449.302 294.356 449.269 294.347 449.229 294.336C449.141 294.312 449.025 294.278 448.884 294.234C448.602 294.148 448.228 294.026 447.793 293.882C446.922 293.593 445.812 293.213 444.718 292.835C444.019 292.593 443.328 292.352 442.71 292.136C442.744 292.14 442.779 292.144 442.813 292.148C443.449 292.22 444.096 292.28 444.598 292.296C444.848 292.304 445.071 292.302 445.242 292.283C445.326 292.273 445.41 292.258 445.483 292.233C445.54 292.212 445.66 292.161 445.715 292.034C445.799 291.839 446.283 290.81 446.75 289.821C446.983 289.328 447.21 288.848 447.38 288.491L447.581 288.066ZM449.298 294.386C449.298 294.386 449.299 294.385 449.303 294.383C449.299 294.386 449.298 294.387 449.298 294.386Z" fill="white" stroke="#26225B" stroke-width="0.5"/>
<path d="M512.637 284.85C512.637 284.85 513.697 286.193 513.582 286.707C513.496 287.221 508.968 292.135 505.787 294.964C502.577 297.764 504.468 293.964 506.102 292.221C508.595 288.65 512.637 284.85 512.637 284.85Z" fill="#26225B"/>
<path d="M506.204 283.838L508.762 279.768C508.872 279.907 509.017 280.092 509.186 280.31C509.571 280.804 510.08 281.467 510.58 282.145C511.08 282.824 511.568 283.514 511.913 284.061C512.085 284.336 512.217 284.568 512.297 284.742C512.336 284.827 512.358 284.89 512.367 284.93C512.366 284.932 512.365 284.933 512.364 284.935C512.346 284.958 512.323 284.988 512.293 285.024C512.234 285.097 512.154 285.192 512.056 285.306C511.859 285.533 511.593 285.832 511.28 286.18C510.655 286.873 509.848 287.754 509.049 288.62C508.552 289.159 508.058 289.692 507.613 290.171C507.629 290.144 507.645 290.118 507.661 290.091C507.997 289.522 508.327 288.937 508.558 288.471C508.673 288.239 508.768 288.028 508.825 287.86C508.853 287.777 508.877 287.694 508.886 287.619C508.893 287.561 508.904 287.434 508.824 287.328C508.695 287.157 508.014 286.25 507.366 285.386L506.49 284.219L506.208 283.842L506.204 283.838ZM512.372 284.961C512.372 284.961 512.372 284.959 512.372 284.957C512.372 284.96 512.372 284.961 512.372 284.961Z" fill="white" stroke="#26225B" stroke-width="0.5"/>
<path d="M483.575 242.881C483.575 242.881 488.476 262.88 490.281 267.251C492.087 271.622 504.784 286.221 504.784 286.221C504.784 286.221 508.595 285.079 510.946 280.907C509.856 275.393 500.513 263.08 499.969 262.423C499.424 261.766 500.771 245.366 500.771 242.881C500.771 240.395 502.577 234.91 500.599 229.31C498.593 223.711 483.546 229.796 483.546 229.796V242.881H483.575Z" fill="#756FBF"/>
<path d="M470.362 227.567L445.858 288.135L452.564 289.85C452.564 289.85 462.337 275.793 464.344 271.879C466.35 267.965 466.98 265.594 467.152 264.537C467.324 263.48 482.658 244.824 483.575 242.909C484.492 240.995 485.466 229.824 485.466 229.824L470.362 227.567Z" fill="#756FBF"/>
<path d="M476.066 184.084C476.066 184.084 481.97 183.713 487.215 182.484C492.488 181.256 498.564 178.113 498.994 179.17C499.453 180.227 503.58 207.969 504.812 229.796C482.801 234.938 466.149 228.367 466.149 228.367C466.149 228.367 471.681 213.625 472.684 204.026C473.716 194.426 473.658 183.998 476.066 184.084Z" fill="#2B2762"/>
<path d="M500.861 190.01C500.83 190.084 500.801 190.151 500.776 190.211L493.751 180.457C493.752 180.456 493.752 180.455 493.753 180.453C493.794 180.363 493.855 180.228 493.933 180.05C494.089 179.695 494.313 179.168 494.587 178.481C495.136 177.107 495.886 175.089 496.693 172.513C498.305 167.361 500.144 159.973 501.049 151.025C501.952 142.092 502.454 134.138 502.73 128.417C502.868 125.557 502.949 123.254 502.996 121.667C503.02 120.873 503.035 120.258 503.044 119.841C503.047 119.682 503.05 119.552 503.052 119.452H506.586C506.607 119.556 506.635 119.702 506.669 119.887C506.748 120.307 506.858 120.933 506.986 121.754C507.242 123.396 507.57 125.819 507.852 128.938C508.417 135.177 508.804 144.199 508.088 155.327C507.358 166.45 505.485 175.275 503.794 181.317C502.949 184.338 502.15 186.663 501.562 188.232C501.268 189.016 501.028 189.611 500.861 190.01Z" fill="white" stroke="#2B2762" stroke-width="0.5"/>
<path d="M452.815 181.855L452.815 181.855C451.838 179.976 451.404 177.369 451.316 174.489C451.228 171.615 451.484 168.496 451.866 165.611C452.249 162.726 452.756 160.082 453.168 158.158C453.374 157.196 453.556 156.414 453.686 155.874C453.752 155.604 453.804 155.393 453.84 155.251C453.842 155.241 453.845 155.231 453.847 155.221H456.89C456.885 155.338 456.879 155.493 456.873 155.681C456.857 156.141 456.836 156.804 456.816 157.613C456.776 159.229 456.742 161.43 456.764 163.766C456.785 166.101 456.863 168.574 457.046 170.734C457.229 172.883 457.519 174.755 457.979 175.866C458.223 176.453 458.701 177.016 459.326 177.548C459.952 178.083 460.741 178.601 461.628 179.096C463.402 180.085 465.593 180.996 467.719 181.769C469.847 182.543 471.918 183.182 473.456 183.628C474.226 183.851 474.862 184.025 475.307 184.144C475.494 184.194 475.647 184.234 475.762 184.264L473.392 193.551C473.271 193.519 473.105 193.475 472.9 193.42C472.43 193.291 471.753 193.099 470.928 192.844C469.278 192.334 467.038 191.574 464.674 190.575C462.309 189.575 459.828 188.338 457.693 186.875C455.555 185.41 453.784 183.731 452.815 181.855Z" fill="white" stroke="#2B2762" stroke-width="0.5"/>
<path d="M484.67 184.92L484.667 184.92C483.427 184.906 482.457 184.536 481.798 184.169C481.468 183.986 481.216 183.804 481.048 183.669C480.969 183.606 480.909 183.553 480.868 183.515L480.483 175.766L486.978 175.097L489.034 181.846C489.026 181.859 489.016 181.873 489.006 181.888C488.946 181.976 488.858 182.103 488.744 182.256C488.516 182.561 488.185 182.967 487.777 183.371C486.951 184.187 485.854 184.946 484.67 184.92Z" fill="white" stroke="#2B2762" stroke-width="0.5"/>
<path d="M456.875 154.678C456.88 154.731 456.885 154.779 456.888 154.821L454.675 155.523C454.667 155.516 454.658 155.51 454.649 155.503C454.566 155.44 454.447 155.349 454.303 155.236C454.014 155.009 453.623 154.695 453.215 154.343C452.806 153.99 452.383 153.602 452.028 153.229C451.668 152.851 451.397 152.505 451.272 152.237C450.998 151.649 450.522 150.072 450.211 148.602C450.057 147.869 449.946 147.178 449.921 146.662C449.908 146.401 449.918 146.202 449.947 146.068C449.959 146.01 449.972 145.977 449.981 145.96C449.99 145.962 450.001 145.965 450.016 145.969C450.071 145.986 450.146 146.02 450.242 146.073C450.433 146.18 450.677 146.351 450.96 146.575C451.526 147.02 452.221 147.652 452.92 148.333C453.619 149.013 454.317 149.739 454.888 150.37C455.465 151.007 455.898 151.533 456.079 151.819C456.439 152.391 456.647 153.18 456.764 153.847C456.822 154.176 456.856 154.468 456.875 154.678Z" fill="white" stroke="#2B2762" stroke-width="0.5"/>
<path d="M509.271 112.224L509.271 112.224C508.918 113.563 508.243 115.277 507.652 116.665C507.358 117.357 507.086 117.965 506.887 118.399C506.788 118.617 506.707 118.791 506.651 118.91C506.624 118.967 506.603 119.012 506.588 119.043C506.582 119.049 506.574 119.054 506.565 119.061C506.521 119.093 506.454 119.14 506.366 119.192C506.19 119.297 505.931 119.424 505.605 119.51C504.978 119.675 504.088 119.692 503.03 119.074C503.021 119.023 503.01 118.954 502.997 118.87C502.966 118.669 502.93 118.379 502.905 118.024C502.856 117.313 502.856 116.35 503.052 115.335C503.144 114.854 503.452 114.145 503.892 113.324C504.328 112.51 504.88 111.609 505.444 110.75C506.007 109.892 506.58 109.079 507.053 108.442C507.533 107.797 507.897 107.354 508.048 107.216C508.063 107.201 508.072 107.196 508.105 107.206C508.155 107.221 508.237 107.27 508.344 107.382C508.555 107.603 508.79 107.995 508.989 108.508C509.388 109.53 509.612 110.946 509.271 112.224Z" fill="white" stroke="black" stroke-width="0.5"/>
<path d="M490.625 181.484C490.625 181.484 492.173 180.742 493.491 178.256C494.781 175.799 495.612 172.628 495.612 172.628L506.131 176.427L501.43 194.998L490.625 181.484Z" fill="#2B2762"/>
<path d="M479.333 183.798C479.333 183.798 476.926 183.57 474.575 182.77C472.225 181.97 467.611 180.027 467.611 180.027L463.054 191.112C463.054 191.112 468.958 193.055 471.194 194.341C473.429 195.626 473.142 199.226 473.142 199.226C473.142 199.226 479.104 190.741 479.333 183.798Z" fill="#2B2762"/>
<path d="M468.399 162.371L468.399 162.37C466.247 153.34 470.719 145.975 477.877 144.128C485.028 142.283 492.215 146.601 494.366 155.629C495.443 160.15 495.031 164.976 493.449 168.898C491.866 172.824 489.128 175.812 485.576 176.728C482.025 177.644 478.273 176.339 475.125 173.645C471.978 170.952 469.462 166.892 468.399 162.371Z" fill="white" stroke="#2B2762" stroke-width="0.5"/>
<path d="M468.442 141.058C468.442 141.058 468.442 136.201 473.171 134.601C477.9 133.001 480.967 138.401 483.059 138.972C485.151 139.543 491.456 140.515 493.893 144.058C496.3 147.6 496.185 153.086 496.3 155C496.415 156.885 497.934 162.656 496.071 166.628C494.208 170.599 492.173 171.97 492.173 171.97C492.173 171.97 493.749 166.256 493.52 163.856C493.291 161.457 491.428 158.257 490.224 155.8C489.02 153.343 486.899 148.914 482.744 149.429C478.617 149.943 477.814 154.514 475.292 155.8C472.741 157.085 469.359 158.857 469.789 164.399C470.219 169.97 475.751 174.427 475.751 174.427C475.751 174.427 470.162 174.399 467.382 170.17C464.602 165.942 465.805 161.571 465.576 159.228C465.347 156.885 462.366 154.057 463.111 149.486C463.799 144.943 467.554 143.343 468.442 141.058Z" fill="#2B2762"/>
</g>
</g>
<path d="M618.973 89.9922C618.999 88.4427 619.174 87.2188 619.5 86.3203C619.826 85.4219 620.49 84.4258 621.492 83.332L624.051 80.6953C625.145 79.4583 625.691 78.1302 625.691 76.7109C625.691 75.3438 625.333 74.276 624.617 73.5078C623.901 72.7266 622.859 72.3359 621.492 72.3359C620.164 72.3359 619.096 72.6875 618.289 73.3906C617.482 74.0938 617.078 75.0378 617.078 76.2227H613.465C613.491 74.1133 614.24 72.4141 615.711 71.125C617.195 69.8229 619.122 69.1719 621.492 69.1719C623.953 69.1719 625.867 69.8359 627.234 71.1641C628.615 72.4792 629.305 74.2891 629.305 76.5938C629.305 78.8724 628.25 81.1185 626.141 83.332L624.012 85.4414C623.061 86.4961 622.586 88.013 622.586 89.9922H618.973ZM618.816 96.1836C618.816 95.5977 618.992 95.1094 619.344 94.7188C619.708 94.3151 620.242 94.1133 620.945 94.1133C621.648 94.1133 622.182 94.3151 622.547 94.7188C622.911 95.1094 623.094 95.5977 623.094 96.1836C623.094 96.7695 622.911 97.2578 622.547 97.6484C622.182 98.026 621.648 98.2148 620.945 98.2148C620.242 98.2148 619.708 98.026 619.344 97.6484C618.992 97.2578 618.816 96.7695 618.816 96.1836Z" fill="#2B2762"/>
<defs>
<clipPath id="clip0">
<rect width="981" height="302.379" fill="white" transform="translate(0 10.0282)"/>
</clipPath>
<clipPath id="clip1">
<rect width="77.3259" height="189.275" fill="white" transform="translate(436.256 106.974)"/>
</clipPath>
</defs>
</svg>
