<svg width="232" height="232" viewBox="0 0 232 232" fill="none" xmlns="http://www.w3.org/2000/svg">
<path d="M115.971 231.472C180.019 231.472 231.941 179.655 231.941 115.736C231.941 51.8167 180.019 0 115.971 0C51.9218 0 0 51.8167 0 115.736C0 179.655 51.9218 231.472 115.971 231.472Z" fill="#756FBF"/>
<path d="M115.92 231.656C179.969 231.656 231.891 179.84 231.891 115.92C231.891 83.9187 218.876 54.9506 197.841 34L115.92 115.92L34 197.841C54.9799 218.736 83.9383 231.656 115.92 231.656Z" fill="#26225B"/>
<g clip-path="url(#clip0)">
<path opacity="0.07" d="M166 68.5731C166 68.4328 166 68.2924 166 68.1521C166 67.8714 166 67.5907 165.977 67.2866C165.977 67.1228 165.953 66.9591 165.93 66.7953C165.907 66.538 165.86 66.2807 165.837 66.0234C165.814 65.8597 165.79 65.6959 165.744 65.5322C165.697 65.2749 165.627 65.0409 165.58 64.807C165.534 64.6433 165.487 64.4795 165.441 64.3158C165.371 64.0819 165.277 63.8246 165.207 63.5906C165.161 63.4503 165.114 63.2866 165.044 63.1462C164.928 62.8655 164.811 62.6082 164.671 62.3509C164.625 62.2573 164.578 62.1404 164.532 62.0468C164.345 61.6959 164.159 61.345 163.949 61.0176C163.856 60.8772 163.762 60.7368 163.669 60.5965C163.529 60.4094 163.413 60.1988 163.249 60.0117C163.133 59.8714 163.016 59.7076 162.9 59.5673C162.76 59.4035 162.62 59.2398 162.48 59.076C162.34 58.9357 162.201 58.7953 162.061 58.655C161.921 58.5146 161.781 58.3743 161.618 58.2339C161.455 58.0936 161.315 57.9532 161.152 57.8363C161.012 57.7193 160.849 57.579 160.685 57.462C160.522 57.345 160.359 57.2047 160.173 57.0877C160.009 56.9708 159.846 56.8772 159.683 56.7602C159.497 56.6433 159.333 56.5263 159.147 56.4328C158.821 56.2456 158.471 56.0819 158.121 55.9181C157.935 55.8246 157.725 55.7544 157.515 55.6842C157.352 55.614 157.212 55.5439 157.049 55.4971C156.117 55.1696 155.138 54.9123 154.135 54.7953L136.91 52.6901L108.426 49.2281C105.792 48.9006 103.251 49.3918 101.036 50.4445C100.99 50.4678 100.967 50.4912 100.943 50.4912C100.011 50.9357 99.1251 51.4971 98.3326 52.1521C98.2393 52.2222 98.1694 52.2924 98.0762 52.386C97.7731 52.6433 97.4701 52.924 97.1904 53.2047C97.0972 53.2983 97.0039 53.4152 96.9107 53.5088C96.631 53.8129 96.3513 54.1404 96.0949 54.4678C96.0249 54.538 95.9783 54.6082 95.9084 54.7018C95.6054 55.1228 95.3256 55.5673 95.0692 56.0117C95.0226 56.1053 94.976 56.1988 94.9294 56.2924C94.7429 56.6667 94.5564 57.0409 94.3933 57.4152C94.3233 57.579 94.2767 57.7193 94.2068 57.883C94.0669 58.2339 93.9504 58.6082 93.8571 58.9591C93.8105 59.1228 93.7639 59.2632 93.7173 59.4269C93.6007 59.9415 93.4842 60.4795 93.4143 61.0176L93.0413 64.0819H83.6942H67.3309V68.6901V166.515V171.123H81.3866C81.4798 171.427 81.573 171.731 81.7129 172.012C81.7595 172.105 81.7828 172.175 81.8294 172.269C81.9926 172.667 82.1791 173.041 82.3889 173.415C82.4588 173.532 82.5287 173.649 82.5987 173.789C82.8084 174.14 83.0182 174.468 83.2513 174.795C83.3213 174.889 83.3912 174.982 83.4378 175.076C84.0672 175.895 84.7898 176.667 85.5823 177.322C85.6056 177.345 85.6289 177.368 85.6755 177.392C87.1673 178.608 88.9155 179.52 90.8502 180.012L90.8269 180.129L99.2883 181.158L108.262 182.257L112.831 182.819L121.059 183.825L138.285 185.93C139.311 186.047 140.313 186.047 141.292 185.953C141.455 185.93 141.618 185.906 141.781 185.883C141.991 185.86 142.201 185.836 142.411 185.789C142.784 185.719 143.157 185.626 143.53 185.532C143.739 185.485 143.926 185.392 144.136 185.345C144.322 185.275 144.509 185.228 144.695 185.158C144.882 185.088 145.091 184.994 145.278 184.924C145.464 184.854 145.651 184.76 145.814 184.69C146 184.596 146.187 184.503 146.35 184.409C146.537 184.316 146.7 184.222 146.886 184.105C147.049 184.012 147.236 183.895 147.399 183.778C147.586 183.661 147.749 183.544 147.912 183.404C148.075 183.287 148.215 183.17 148.378 183.053C148.565 182.912 148.728 182.749 148.914 182.585C149.031 182.468 149.171 182.374 149.287 182.257C149.567 181.977 149.847 181.696 150.103 181.415C150.173 181.322 150.243 181.228 150.313 181.158C150.499 180.924 150.686 180.713 150.849 180.456C150.942 180.339 151.035 180.199 151.105 180.058C151.245 179.848 151.385 179.637 151.525 179.427C151.618 179.287 151.688 179.146 151.758 178.982C151.874 178.772 151.991 178.538 152.108 178.327C152.177 178.164 152.247 178.023 152.317 177.86C152.411 177.626 152.504 177.392 152.597 177.135C152.644 176.971 152.714 176.83 152.76 176.667C152.853 176.386 152.923 176.129 152.993 175.848C153.017 175.708 153.063 175.567 153.087 175.45C153.18 175.029 153.25 174.608 153.296 174.164L165.907 69.8597C165.977 69.4152 166 68.9942 166 68.5731Z" fill="#231F20"/>
<path d="M137.213 167.988H81.3633C74.8366 167.988 69.4987 162.632 69.4987 156.082V77.462C69.4987 70.9123 74.8366 65.5556 81.3633 65.5556H137.213C143.739 65.5556 149.077 70.9123 149.077 77.462V156.082C149.077 162.632 143.739 167.988 137.213 167.988Z" fill="#14202D"/>
<path d="M110.15 65.5556H65V167.988H110.15V65.5556Z" fill="#26225B"/>
<path d="M123.32 48.1988L151.851 51.6842C159.24 52.5965 164.485 59.3333 163.599 66.7252L150.965 171.006C150.056 178.421 143.343 183.684 135.977 182.795L107.423 179.31C100.034 178.398 94.7895 171.661 95.6753 164.269L108.309 59.9883C109.218 52.5731 115.931 47.31 123.32 48.1988Z" fill="#DFD5FF"/>
<path d="M154.765 52.386L138.961 182.819C145.091 182.187 150.173 177.392 150.965 171.006L163.599 66.7252C164.368 60.3392 160.569 54.4678 154.765 52.386Z" fill="#26225B"/>
<path d="M115.931 49.4152C111.899 51.3334 108.915 55.2164 108.332 59.9883L95.6986 164.269C95.1159 169.041 97.0972 173.532 100.547 176.363L115.931 49.4152Z" fill="#18AAD6"/>
<path d="M152.737 96.8538L156.56 65.3684C156.653 64.6199 157.352 64.0819 158.098 64.1754C158.844 64.269 159.38 64.9708 159.287 65.7193L155.464 97.2047C155.371 97.9532 154.672 98.4912 153.926 98.3977C153.18 98.3041 152.644 97.6257 152.737 96.8538Z" fill="white"/>
<path d="M151.198 109.579L151.968 103.263C152.061 102.515 152.76 101.977 153.506 102.07C154.252 102.164 154.788 102.866 154.695 103.614L153.926 109.93C153.832 110.678 153.133 111.216 152.387 111.123C151.641 111.029 151.105 110.327 151.198 109.579Z" fill="white"/>
<path d="M122.155 81.2749L125.208 56.1053L126.817 56.2924L123.763 81.462L122.155 81.2749ZM125.488 81.6959L128.542 56.5263L130.29 56.7368L127.236 81.9064L125.488 81.6959ZM128.985 82.117L132.038 56.9474L133.786 57.1579L130.733 82.3275L128.985 82.117ZM132.458 82.538L135.511 57.3684L137.259 57.579L134.206 82.7485L132.458 82.538ZM135.931 82.9591L138.984 57.7895L140.733 58L137.679 83.1696L135.931 82.9591ZM139.404 83.3801L142.457 58.2105L144.206 58.4211L141.152 83.5906L139.404 83.3801Z" fill="#070707"/>
<path d="M117.185 180.509L121.582 144.214L110.313 142.839L105.916 179.134L117.185 180.509Z" fill="#69CBE2"/>
<path d="M150.243 147.708C150.266 147.497 150.453 147.357 150.662 147.38L152.038 147.544C152.247 147.567 152.387 147.754 152.364 147.965C152.341 148.175 152.154 148.316 151.944 148.292L150.569 148.129C150.359 148.105 150.219 147.918 150.243 147.708Z" fill="#18AAD6"/>
<path d="M104.09 142.07C104.113 141.86 104.3 141.719 104.51 141.743L107.4 142.094C107.61 142.117 107.75 142.304 107.726 142.515C107.703 142.725 107.516 142.866 107.307 142.842L104.416 142.491C104.207 142.468 104.067 142.281 104.09 142.07ZM109.847 142.772C109.871 142.561 110.057 142.421 110.267 142.444L113.157 142.795C113.367 142.819 113.507 143.006 113.484 143.216C113.46 143.427 113.274 143.567 113.064 143.544L110.174 143.193C109.987 143.17 109.824 142.982 109.847 142.772ZM115.628 143.474C115.652 143.263 115.838 143.123 116.048 143.146L118.938 143.497C119.148 143.52 119.288 143.708 119.264 143.918C119.241 144.129 119.055 144.269 118.845 144.246L115.955 143.895C115.745 143.871 115.605 143.684 115.628 143.474ZM121.386 144.175C121.409 143.965 121.595 143.825 121.805 143.848L124.696 144.199C124.905 144.222 125.045 144.409 125.022 144.62C124.999 144.83 124.812 144.971 124.602 144.947L121.712 144.596C121.525 144.573 121.362 144.386 121.386 144.175ZM127.166 144.877C127.19 144.667 127.376 144.526 127.586 144.55L130.476 144.901C130.686 144.924 130.826 145.111 130.803 145.322C130.779 145.532 130.593 145.673 130.383 145.649L127.493 145.298C127.283 145.275 127.143 145.088 127.166 144.877ZM132.924 145.602C132.947 145.392 133.134 145.251 133.343 145.275L136.234 145.626C136.444 145.649 136.583 145.836 136.56 146.047C136.537 146.257 136.35 146.398 136.141 146.374L133.25 146.023C133.064 145.977 132.901 145.789 132.924 145.602ZM138.705 146.304C138.728 146.094 138.914 145.953 139.124 145.977L142.015 146.327C142.224 146.351 142.364 146.538 142.341 146.749C142.318 146.959 142.131 147.099 141.921 147.076L139.031 146.725C138.821 146.702 138.681 146.491 138.705 146.304ZM144.462 147.006C144.485 146.795 144.672 146.655 144.882 146.678L147.772 147.029C147.982 147.053 148.122 147.24 148.098 147.45C148.075 147.661 147.889 147.801 147.679 147.778L144.788 147.427C144.579 147.404 144.439 147.216 144.462 147.006Z" fill="#18AAD6"/>
<path d="M99.8477 141.556C99.871 141.345 100.057 141.205 100.267 141.228L101.643 141.392C101.852 141.415 101.992 141.602 101.969 141.813C101.946 142.023 101.759 142.164 101.549 142.14L100.174 141.977C99.9642 141.953 99.8244 141.766 99.8477 141.556Z" fill="#18AAD6"/>
<path d="M106.095 46.0936L134.625 49.579C142.015 50.4912 147.259 57.2281 146.373 64.6199L133.74 168.901C132.831 176.316 126.118 181.579 118.752 180.69L90.2209 177.205C82.8318 176.292 77.5872 169.556 78.4729 162.164L91.1067 57.883C91.9924 50.4678 98.7056 45.2047 106.095 46.0936Z" fill="#F2EEFF"/>
<path d="M137.539 50.2807L121.735 180.713C127.866 180.082 132.947 175.287 133.74 168.901L146.373 64.6199C147.143 58.2339 143.343 52.3626 137.539 50.2807Z" fill="white"/>
<path d="M98.7055 47.31C94.673 49.2281 91.6894 53.1111 91.1066 57.8831L78.4729 162.164C77.8901 166.936 79.8715 171.427 83.3213 174.257L98.7055 47.31Z" fill="#DFD5FF"/>
<path d="M135.511 94.7485L139.334 63.2632C139.427 62.5146 140.126 61.9766 140.872 62.0702C141.618 62.1637 142.154 62.8655 142.061 63.614L138.238 95.0994C138.145 95.8479 137.446 96.386 136.7 96.2924C135.954 96.1988 135.418 95.5205 135.511 94.7485Z" fill="#F4EED4"/>
<path d="M133.973 107.474L134.742 101.158C134.835 100.409 135.534 99.8714 136.28 99.9649C137.026 100.058 137.562 100.76 137.469 101.509L136.7 107.825C136.607 108.573 135.907 109.111 135.162 109.018C134.416 108.924 133.88 108.222 133.973 107.474Z" fill="#F4EED4"/>
<path d="M104.929 79.1696L107.983 54L109.591 54.1871L106.538 79.3567L104.929 79.1696ZM108.286 79.5906L111.339 54.4211L113.087 54.6316L110.034 79.8012L108.286 79.5906ZM111.759 80.0117L114.812 54.8421L116.561 55.0526L113.484 80.2222L111.759 80.0117ZM115.232 80.4327L118.286 55.2632L120.034 55.4737L116.98 80.6433L115.232 80.4327ZM118.705 80.8538L121.759 55.6842L123.507 55.8947L120.453 81.0643L118.705 80.8538ZM122.178 81.2749L125.232 56.1053L126.98 56.3158L123.926 81.4854L122.178 81.2749Z" fill="#070707"/>
<path d="M133.017 145.602C133.04 145.392 133.227 145.251 133.437 145.275L134.812 145.439C135.022 145.462 135.162 145.649 135.138 145.86C135.115 146.07 134.928 146.211 134.719 146.187L133.343 146.023C133.134 146 132.994 145.813 133.017 145.602Z" fill="#D3B81A"/>
<path d="M86.8643 139.965C86.8876 139.754 87.0741 139.614 87.2839 139.637L90.1743 139.988C90.3841 140.012 90.5239 140.199 90.5006 140.409C90.4773 140.62 90.2908 140.76 90.081 140.737L87.1906 140.386C86.9809 140.363 86.841 140.175 86.8643 139.965ZM92.6451 140.667C92.6684 140.456 92.8549 140.316 93.0646 140.339L95.955 140.69C96.1648 140.713 96.3047 140.901 96.2814 141.111C96.258 141.322 96.0716 141.462 95.8618 141.439L92.9714 141.088C92.7616 141.064 92.6218 140.877 92.6451 140.667ZM98.4025 141.368C98.4258 141.158 98.6123 141.018 98.8221 141.041L101.712 141.392C101.922 141.415 102.062 141.602 102.039 141.813C102.015 142.023 101.829 142.164 101.619 142.14L98.7288 141.789C98.5191 141.766 98.3792 141.579 98.4025 141.368ZM104.183 142.094C104.207 141.883 104.393 141.743 104.603 141.766L107.493 142.117C107.703 142.14 107.843 142.328 107.82 142.538C107.796 142.749 107.61 142.889 107.4 142.866L104.51 142.515C104.3 142.468 104.137 142.281 104.183 142.094ZM109.941 142.795C109.964 142.585 110.15 142.444 110.36 142.468L113.251 142.819C113.46 142.842 113.6 143.029 113.577 143.24C113.554 143.45 113.367 143.591 113.157 143.567L110.267 143.216C110.057 143.17 109.917 142.982 109.941 142.795ZM115.698 143.497C115.721 143.287 115.908 143.146 116.118 143.17L119.008 143.52C119.218 143.544 119.358 143.731 119.334 143.942C119.311 144.152 119.125 144.292 118.915 144.269L116.024 143.918C115.838 143.895 115.675 143.708 115.698 143.497ZM121.479 144.199C121.502 143.988 121.689 143.848 121.898 143.871L124.789 144.222C124.999 144.246 125.139 144.433 125.115 144.643C125.092 144.854 124.905 144.994 124.696 144.971L121.805 144.62C121.595 144.597 121.456 144.409 121.479 144.199ZM127.236 144.901C127.26 144.69 127.446 144.55 127.656 144.573L130.546 144.924C130.756 144.947 130.896 145.135 130.873 145.345C130.849 145.556 130.663 145.696 130.453 145.673L127.563 145.322C127.376 145.298 127.213 145.111 127.236 144.901Z" fill="#D3B81A"/>
<path d="M82.622 139.45C82.6453 139.24 82.8318 139.099 83.0415 139.123L84.4168 139.287C84.6266 139.31 84.7664 139.497 84.7431 139.708C84.7198 139.918 84.5334 140.058 84.3236 140.035L82.9483 139.871C82.7385 139.848 82.5987 139.661 82.622 139.45Z" fill="#D3B81A"/>
<path d="M137.213 163.38H81.3633C74.8366 163.38 69.4987 158.023 69.4987 151.474V72.8538C69.4987 66.3041 74.8366 60.9474 81.3633 60.9474H137.213C143.739 60.9474 149.077 66.3041 149.077 72.8538V151.474C149.077 158.023 143.739 163.38 137.213 163.38Z" fill="#C42128"/>
<path d="M110.15 60.9474H65V163.38H110.15V60.9474Z" fill="#C42128"/>
<path d="M74.9705 87.2104L74.5231 87.2576V87.7076V88.7602V89.2602H75.0231H78.7526H79.2526V88.7602V87.6374V87.1553L78.7708 87.1378L77.9706 87.1086V86.1725H78.5894C79.6686 86.1725 80.6515 85.9022 81.3737 85.3029C82.1094 84.6924 82.5159 83.7887 82.5159 82.655C82.5159 81.6442 82.1659 80.8149 81.489 80.2482C80.8253 79.6926 79.9098 79.4415 78.8691 79.4415H75.093H74.593V79.9415V81.0643V81.5339L75.0617 81.5633L75.3389 81.5807V87.1715L74.9705 87.2104ZM78.4029 83.886H77.9473V81.7281H78.2631C78.9184 81.7281 79.3 81.7944 79.5199 81.9354C79.6793 82.0377 79.8376 82.2368 79.8376 82.8187C79.8376 83.2931 79.6882 83.5231 79.504 83.6574C79.3516 83.7685 79.128 83.8487 78.8222 83.886H78.4029Z" fill="#F9F9F9" stroke="black"/>
<path d="M84.4929 87.1851L84.3548 87.1769L84.4257 86.9678H86.8098L86.8902 87.2032L86.5625 87.2331L86.1079 87.2745V87.731V88.807V89.307H86.6079H90.0344H90.5344V88.807V87.6842V87.2146L90.0657 87.1852L89.6262 87.1576L87.0329 79.7987L86.9152 79.4649H86.5613H83.531H83.031V79.9649V81.0409V81.5009L83.4894 81.5392L83.6895 81.5559L81.7775 87.1436C81.7708 87.1618 81.7649 87.1776 81.7595 87.1913L81.3574 87.2338L80.9099 87.281V87.731V88.807V89.307H81.4099H84.4634H84.9634V88.807V87.6842V87.2128L84.4929 87.1851ZM86.9775 87.4615C86.9774 87.4615 86.9774 87.4611 86.9772 87.4603L86.9775 87.4615ZM86.1834 84.7281H85.0824L85.6435 83.007L86.1834 84.7281Z" fill="#F9F9F9" stroke="black"/>
<path d="M96.758 80.3158V79.999L96.4715 79.8637C95.6044 79.4542 94.691 79.2778 93.7639 79.2778C92.7588 79.2778 91.8664 79.5459 91.2156 80.086C90.5545 80.6346 90.187 81.4286 90.187 82.3743C90.187 83.3677 90.5493 84.0722 91.1346 84.564C91.6899 85.0308 92.4112 85.2752 93.0731 85.4532C93.5558 85.5864 93.8954 85.6917 94.1218 85.838C94.2249 85.9047 94.2844 85.9682 94.3201 86.0292C94.3543 86.0877 94.3828 86.1709 94.3828 86.3041C94.3828 86.6706 94.2619 86.8216 94.1356 86.9061C93.9735 87.0145 93.701 87.078 93.3113 87.0674L93.3113 87.0672H93.2977C93.0281 87.0672 92.7634 87.0355 92.5623 86.99V86.1871V85.6513L92.0278 85.6883L90.6758 85.7819L90.2104 85.8141V86.2807V88.386V88.7028L90.4968 88.8381C91.3701 89.2505 92.2853 89.424 93.3909 89.424C94.3821 89.424 95.3009 89.163 95.9827 88.6148C96.6773 88.0565 97.0843 87.232 97.0843 86.2105C97.0843 85.2113 96.7063 84.5055 96.1293 84.0097C95.5793 83.537 94.8748 83.279 94.2614 83.0896C93.7486 82.9303 93.3857 82.8148 93.1394 82.6592C93.0264 82.5878 92.9631 82.5222 92.9265 82.4628C92.8925 82.4076 92.8653 82.3322 92.8653 82.2105C92.8653 81.9475 92.9568 81.8172 93.0701 81.7349C93.2074 81.6351 93.4393 81.5643 93.7639 81.5643C93.9476 81.5643 94.2022 81.5951 94.4061 81.6415V82.3977V82.9335L94.9406 82.8965L96.2925 82.8029L96.758 82.7707V82.3041V80.3158Z" fill="#F9F9F9" stroke="black"/>
<path d="M103.658 80.3158V79.999L103.371 79.8637C102.504 79.4542 101.591 79.2778 100.663 79.2778C99.6584 79.2778 98.766 79.5459 98.1152 80.086C97.4541 80.6346 97.0866 81.4286 97.0866 82.3743C97.0866 83.3677 97.4489 84.0722 98.0342 84.564C98.5895 85.0308 99.3107 85.2752 99.9726 85.4532C100.455 85.5864 100.795 85.6917 101.021 85.838C101.125 85.9047 101.184 85.9682 101.22 86.0292C101.254 86.0877 101.282 86.1709 101.282 86.3041C101.282 86.6706 101.161 86.8216 101.035 86.9061C100.873 87.0145 100.601 87.078 100.211 87.0674L100.211 87.0672H100.197C99.9277 87.0672 99.663 87.0355 99.4619 86.99V86.1871V85.6513L98.9274 85.6883L97.5754 85.7819L97.1099 85.8141V86.2807V88.386V88.7028L97.3964 88.8381C98.2696 89.2505 99.1849 89.424 100.291 89.424C101.282 89.424 102.2 89.163 102.882 88.6148C103.577 88.0565 103.984 87.232 103.984 86.2105C103.984 85.2113 103.606 84.5055 103.029 84.0097C102.479 83.537 101.774 83.279 101.161 83.0896C100.648 82.9303 100.285 82.8148 100.039 82.6592C99.926 82.5878 99.8627 82.5222 99.826 82.4628C99.7921 82.4076 99.7649 82.3322 99.7649 82.2105C99.7649 81.9475 99.8564 81.8172 99.9697 81.7349C100.107 81.6351 100.339 81.5643 100.663 81.5643C100.847 81.5643 101.102 81.5951 101.306 81.6415V82.3977V82.9335L101.84 82.8965L103.192 82.8029L103.658 82.7707V82.3041V80.3158Z" fill="#F9F9F9" stroke="black"/>
<path d="M104.294 87.2104L103.846 87.2576V87.7076V88.7836V89.2836H104.346H108.053H108.553V88.7836V87.6608V87.1787L108.071 87.1611L107.271 87.1319V86.1959H107.889C108.969 86.1959 109.951 85.9256 110.674 85.3263C111.409 84.7158 111.816 83.8121 111.816 82.6784C111.816 81.6675 111.466 80.8383 110.789 80.2716C110.125 79.716 109.21 79.4649 108.169 79.4649H104.393H103.893V79.9649V81.0877V81.5727L104.378 81.5875L104.662 81.5961V87.1715L104.294 87.2104ZM107.726 83.886H107.271V81.7281H107.586C108.242 81.7281 108.623 81.7944 108.843 81.9354C109.003 82.0377 109.161 82.2368 109.161 82.8187C109.161 83.2931 109.012 83.5231 108.827 83.6574C108.675 83.7685 108.451 83.8487 108.146 83.886H107.726Z" fill="#F9F9F9" stroke="black"/>
<path d="M111.748 84.386C111.748 85.9711 112.14 87.2443 112.912 88.1273C113.692 89.0198 114.803 89.4474 116.094 89.4474C117.362 89.4474 118.481 89.0263 119.278 88.1416C120.069 87.2632 120.487 85.9893 120.487 84.386C120.487 82.6172 120.021 81.3312 119.216 80.4856C118.409 79.6383 117.326 79.3012 116.234 79.3012C115.201 79.3012 114.072 79.6316 113.198 80.4584C112.316 81.2928 111.748 82.5807 111.748 84.386ZM117.855 84.4327C117.855 85.1915 117.736 85.8878 117.464 86.3766C117.212 86.8295 116.829 87.114 116.188 87.114C115.79 87.114 115.503 87.0226 115.29 86.8889C115.075 86.7542 114.905 86.5579 114.772 86.3032C114.497 85.7777 114.403 85.0522 114.403 84.3158C114.403 83.5783 114.537 82.8903 114.826 82.4045C115.096 81.9496 115.505 81.6579 116.164 81.6579C116.533 81.6579 116.799 81.7522 117 81.8905C117.205 82.0317 117.371 82.2391 117.501 82.5063C117.769 83.0536 117.855 83.7817 117.855 84.4327Z" fill="#F9F9F9" stroke="black"/>
<path d="M121.235 87.1715L120.893 87.2076H120.396V87.7076V88.7602V89.2602H120.896H124.183H124.683V88.7602V87.6374V87.1638L124.21 87.1382L123.82 87.117V85.7748H124.532C124.697 85.7748 124.739 85.8069 124.75 85.8161L124.75 85.8162C124.778 85.8372 124.83 85.8944 124.914 86.0855L124.914 86.0856L124.919 86.0965L125.428 87.1733L125.309 87.1881L124.872 87.243V87.6842V88.7602V89.2602H125.372H128.635H129.135V88.7602V87.6374V87.1529L128.651 87.1377L128.214 87.124L127.393 85.3348C127.308 85.1237 127.21 84.9361 127.084 84.7739C127.712 84.3081 128.272 83.5422 128.272 82.3743C128.272 81.3447 127.91 80.5667 127.198 80.072C126.523 79.6021 125.607 79.4415 124.602 79.4415H120.989H120.489V79.9415V81.0643V81.5339L120.958 81.5633L121.235 81.5807V87.1715ZM124.509 83.5351H124.009V83.5585H123.867V81.7515H124.323C124.897 81.7515 125.217 81.796 125.399 81.9023C125.505 81.9645 125.641 82.0911 125.641 82.5848C125.641 82.9632 125.539 83.1708 125.407 83.2922C125.266 83.421 125.001 83.5351 124.509 83.5351Z" fill="#F9F9F9" stroke="black"/>
<path d="M130.44 81.7748H130.769V87.1682L130.163 87.2087L129.697 87.2399V87.7076V88.7836V89.2836H130.197H133.926H134.426V88.7836V87.6608V87.1826L133.948 87.1613L133.377 87.1358V81.7748H133.659V82.3275V82.8633L134.194 82.8263L135.546 82.7327L136.011 82.7005V82.2339V79.9649V79.4649H135.511H128.588H128.088V79.9649V82.2339V82.7005L128.554 82.7327L129.906 82.8263L130.44 82.8633V82.3275V81.7748ZM130.445 81.5893C130.445 81.5893 130.445 81.5899 130.445 81.591L130.445 81.5893Z" fill="#F9F9F9" stroke="black"/>
<path d="M105.255 132.596C113.95 132.596 121.013 125.509 121.013 116.784C121.013 108.058 113.95 100.971 105.255 100.971C96.561 100.971 89.4983 108.058 89.4983 116.784C89.4983 125.485 96.561 132.596 105.255 132.596ZM110.104 130.117C111.363 128.69 112.388 126.725 113.087 124.409C114.579 124.924 115.465 125.602 115.628 126.398C114.136 128.035 112.248 129.322 110.104 130.117ZM116.817 124.971C116.188 123.988 114.976 123.287 113.53 122.819C113.903 121.205 114.113 119.45 114.183 117.579H119.404C119.241 120.316 118.309 122.842 116.817 124.971ZM116.794 108.55C118.285 110.655 119.241 113.205 119.381 115.942H114.16C114.113 114.07 113.88 112.292 113.507 110.678C114.952 110.211 116.141 109.532 116.794 108.55ZM115.652 107.146C115.465 107.965 114.579 108.643 113.087 109.135C112.388 106.795 111.339 104.854 110.104 103.427C112.248 104.222 114.136 105.509 115.652 107.146ZM106.071 102.655C108.356 103.17 110.36 105.836 111.502 109.556C110.011 109.86 108.169 110.047 106.071 110.094V102.655ZM106.071 111.731C107.703 111.708 109.894 111.567 111.922 111.123C112.272 112.62 112.481 114.257 112.528 115.965H106.048V111.731H106.071ZM106.071 117.579H112.551C112.505 119.263 112.295 120.901 111.945 122.398C110.011 121.977 107.889 121.836 106.071 121.813V117.579ZM106.071 123.427C108.192 123.474 110.034 123.661 111.526 123.965C110.36 127.684 108.356 130.351 106.071 130.865V123.427ZM94.9061 126.421C95.0459 125.602 95.955 124.924 97.4235 124.409C98.1228 126.725 99.1484 128.69 100.407 130.094C98.2859 129.322 96.4212 128.058 94.9061 126.421ZM104.463 130.865C102.179 130.351 100.174 127.684 99.0318 123.965C100.524 123.637 102.365 123.45 104.463 123.404V130.865ZM104.463 121.813C102.831 121.836 100.64 121.977 98.6123 122.421C98.2626 120.924 98.0528 119.287 98.0062 117.579H104.486V121.813H104.463ZM104.463 115.965H97.9829C98.0295 114.257 98.2393 112.62 98.589 111.123C100.617 111.567 102.808 111.708 104.44 111.731V115.965H104.463ZM104.463 102.655V110.094C102.365 110.047 100.524 109.86 99.0318 109.532C100.174 105.836 102.179 103.17 104.463 102.655ZM100.407 103.427C99.1717 104.83 98.1461 106.795 97.4235 109.111C95.955 108.596 95.0459 107.918 94.9061 107.123C96.4212 105.485 98.2859 104.199 100.407 103.427ZM93.7406 108.526C94.3699 109.509 95.582 110.211 97.0039 110.678C96.631 112.316 96.3979 114.094 96.3512 115.965H91.1299C91.2931 113.205 92.2488 110.655 93.7406 108.526ZM91.1299 117.579H96.3512C96.3979 119.45 96.631 121.228 97.0039 122.842C95.582 123.31 94.3699 124.012 93.7406 124.994C92.2488 122.889 91.2931 120.339 91.1299 117.579Z" fill="#F9F9F9"/>
<path d="M112.282 149.181H112.282L112.282 149.172C112.254 147.67 111.063 146.459 109.568 146.459H100.967C99.4766 146.459 98.2521 147.69 98.2521 149.181C98.2521 150.672 99.4766 151.904 100.967 151.904H109.568C111.058 151.904 112.282 150.672 112.282 149.181Z" fill="#F9F9F9" stroke="black"/>
<path d="M115.92 231.656C179.969 231.656 231.891 179.84 231.891 115.92C231.891 83.9187 218.876 54.9506 197.841 34L115.92 115.92L34 197.841C54.9799 218.736 83.9383 231.656 115.92 231.656Z" fill="#26225B" fill-opacity="0.5"/>
</g>
<defs>
<clipPath id="clip0">
<rect width="101" height="140" fill="white" transform="translate(65 46)"/>
</clipPath>
</defs>
</svg>
