<svg width="46" height="46" viewBox="0 0 46 46" fill="none" xmlns="http://www.w3.org/2000/svg">
<path d="M39.2635 6.73653C34.9194 2.39244 29.1434 0 23 0C17.4697 0 12.1254 1.99095 7.95117 5.60646C7.66585 5.85353 7.63496 6.2852 7.88203 6.57018C8.1291 6.8555 8.56042 6.88638 8.84575 6.63931C12.7715 3.23894 17.7982 1.36626 23 1.36626C28.7784 1.36626 34.2112 3.61656 38.2973 7.7027C42.3834 11.7888 44.6337 17.2216 44.6337 23C44.6337 28.7784 42.3834 34.2112 38.2973 38.2973C34.2112 42.3834 28.7784 44.6337 23 44.6337C17.2216 44.6337 11.7888 42.3834 7.7027 38.2973C3.61656 34.2112 1.36626 28.7784 1.36626 23C1.36626 17.6252 3.35019 12.4725 6.95306 8.49164C7.2061 8.21193 7.18434 7.77991 6.90463 7.52652C6.62492 7.27348 6.1929 7.29489 5.93987 7.57495C2.10957 11.8074 0 17.2854 0 23C0 29.1434 2.39244 34.9194 6.73653 39.2635C11.0806 43.6076 16.8566 46 23 46C29.1434 46 34.9194 43.6076 39.2635 39.2635C43.6076 34.9194 46 29.1434 46 23C46 16.8566 43.6076 11.0806 39.2635 6.73653Z" fill="url(#paint0_linear)"/>
<path d="M22.1314 31.187C20.0218 31.187 18.3053 32.9221 18.3053 35.0545C18.3053 37.1869 20.0218 38.922 22.1314 38.922C23.1671 38.922 24.1424 38.51 24.8776 37.7614C25.59 37.036 25.9989 36.0495 25.9989 35.0545C25.9989 34.0322 25.5936 33.0639 24.858 32.328C24.122 31.5924 23.1537 31.187 22.1314 31.187ZM22.1314 37.5557C20.775 37.5557 19.6716 36.4337 19.6716 35.0545C19.6716 33.6753 20.775 32.5533 22.1314 32.5533C23.4871 32.5533 24.6323 33.6988 24.6323 35.0545C24.6323 36.4102 23.4871 37.5557 22.1314 37.5557Z" fill="url(#paint1_linear)"/>
<path d="M28.7145 20.5177C28.9992 20.7662 29.4305 20.7367 29.6786 20.4525C31.3249 18.5665 32.1598 16.592 32.1598 14.5842C32.1598 12.4669 31.2088 10.5475 29.4821 9.17989C27.7463 7.80521 25.3907 7.07874 22.6694 7.07874C19.3031 7.07874 17.2209 8.21512 16.0673 9.1683C14.6722 10.3208 13.8391 11.8664 13.8391 13.3025C13.8391 14.2361 14.2213 15.0583 14.9155 15.6181C15.4868 16.0789 16.2477 16.3432 17.0036 16.3432C18.306 16.3432 18.877 15.5012 19.3357 14.8246C19.9169 13.9679 20.4654 13.1586 22.5448 13.1586C23.2576 13.1586 25.5833 13.3123 25.5833 15.2875C25.5833 16.7784 24.2052 17.8365 22.9891 18.77C22.6887 19.0002 22.4051 19.2182 22.1405 19.4428C20.7402 20.6497 19.1325 22.514 19.1325 26.2463C19.1325 28.3194 19.6354 29.7004 22.0903 29.7004C23.1776 29.7004 23.9984 29.454 24.5301 28.9683C24.9766 28.5605 25.2127 27.9909 25.2127 27.321C25.2127 25.3072 25.2127 24.2964 27.2665 22.6901L27.3016 22.6628C27.3922 22.5922 27.4967 22.5105 27.6119 22.4174C27.9056 22.1806 27.9516 21.7506 27.7147 21.4569C27.4778 21.1631 27.0479 21.1172 26.7541 21.3541C26.645 21.4422 26.5464 21.519 26.4611 21.5857L26.4249 21.6138C23.9662 23.537 23.8465 24.9643 23.8465 27.3213C23.8465 27.6242 23.8465 28.3342 22.0903 28.3342C21.2326 28.3342 20.9715 28.1548 20.8399 27.9983C20.6104 27.7256 20.4988 27.1525 20.4988 26.2463C20.4988 23.0874 21.7797 21.5576 23.0284 20.4812C23.2639 20.2816 23.5345 20.0738 23.8212 19.8537C25.2148 18.7837 26.95 17.4518 26.95 15.2875C26.95 13.1642 25.2208 11.7924 22.5448 11.7924C19.7414 11.7924 18.8535 13.1018 18.2049 14.0578C17.7617 14.7116 17.5595 14.9769 17.0036 14.9769C16.281 14.9769 15.2057 14.5309 15.2057 13.3025C15.2057 12.5048 15.6605 11.2765 16.9376 10.2215C17.9189 9.41116 19.7095 8.44464 22.6697 8.44464C27.4532 8.44464 30.7936 10.9694 30.7936 14.5842C30.7936 16.2519 30.0724 17.9239 28.6496 19.554C28.4011 19.8383 28.4306 20.2696 28.7145 20.5177Z" fill="url(#paint2_linear)"/>
<defs>
<linearGradient id="paint0_linear" x1="23" y1="0" x2="23" y2="46" gradientUnits="userSpaceOnUse">
<stop stop-color="#C42128"/>
<stop offset="1" stop-color="#26225B"/>
</linearGradient>
<linearGradient id="paint1_linear" x1="22.1521" y1="31.187" x2="22.1521" y2="38.922" gradientUnits="userSpaceOnUse">
<stop stop-color="#C42128"/>
<stop offset="1" stop-color="#26225B"/>
</linearGradient>
<linearGradient id="paint2_linear" x1="22.9995" y1="7.07874" x2="22.9995" y2="29.7004" gradientUnits="userSpaceOnUse">
<stop stop-color="#C42128"/>
<stop offset="1" stop-color="#26225B"/>
</linearGradient>
</defs>
</svg>
