<svg width="739" height="494" viewBox="0 0 739 494" fill="none" xmlns="http://www.w3.org/2000/svg">
<g clip-path="url(#clip0)">
<path d="M376.101 494C563.766 494 715.899 489.617 715.899 484.211C715.899 478.805 563.766 474.422 376.101 474.422C188.435 474.422 36.3018 478.805 36.3018 484.211C36.3018 489.617 188.435 494 376.101 494Z" fill="#F2EEFF"/>
<path d="M120.739 342.613C120.625 342.044 105.604 282.399 100.256 253.488C81.9342 152.753 45.6329 127.598 45.2915 127.37L46.8847 124.866C48.364 125.89 84.4378 150.704 103.101 252.919C108.335 281.717 123.356 341.247 123.47 341.93L120.739 342.613Z" fill="#F2EEFF"/>
<path d="M37.6671 106.54C13.6558 117.126 66.913 153.322 66.913 153.322C66.913 153.322 69.4165 92.4258 37.6671 106.54Z" fill="#F2EEFF"/>
<path d="M46.4296 184.055C42.3329 201.925 84.6656 187.128 84.6656 187.128C84.6656 187.128 51.7781 160.607 46.4296 184.055Z" fill="#F2EEFF"/>
<path d="M104.238 156.509C91.1517 143.761 81.7065 187.583 81.7065 187.583C81.7065 187.583 121.536 173.241 104.238 156.509Z" fill="#F2EEFF"/>
<path d="M71.8066 284.221C67.7099 302.091 110.042 287.294 110.042 287.294C110.042 287.294 77.1551 260.659 71.8066 284.221Z" fill="#F2EEFF"/>
<path d="M129.615 256.561C116.529 243.813 107.083 287.635 107.083 287.635C107.083 287.635 146.913 273.294 129.615 256.561Z" fill="#F2EEFF"/>
<path d="M44.7228 233.227C36.8707 259.065 100.825 241.65 100.825 241.65C100.825 241.65 54.9645 199.08 44.7228 233.227Z" fill="#F2EEFF"/>
<path d="M129.957 204.771C114.594 187.583 98.7764 241.764 98.7764 241.764C98.7764 241.764 150.099 227.422 129.957 204.771Z" fill="#F2EEFF"/>
<path d="M667.877 458.942C667.99 458.487 679.939 410.908 684.15 387.801C698.829 307.441 727.734 287.408 727.961 287.18L726.71 285.245C725.458 286.042 696.667 305.847 681.874 387.346C677.663 410.339 665.714 457.804 665.601 458.259L667.877 458.942Z" fill="#F2EEFF"/>
<path d="M734.107 270.562C753.225 278.985 710.778 307.782 710.778 307.782C710.778 307.782 708.844 259.407 734.107 270.562Z" fill="#F2EEFF"/>
<path d="M727.165 332.483C730.351 346.711 696.667 334.873 696.667 334.873C696.667 334.873 722.955 313.701 727.165 332.483Z" fill="#F2EEFF"/>
<path d="M681.077 310.4C691.547 300.27 699.057 335.1 699.057 335.1C699.057 335.1 667.308 323.832 681.077 310.4Z" fill="#F2EEFF"/>
<path d="M706.909 412.274C710.096 426.502 676.412 414.664 676.412 414.664C676.412 414.664 702.585 393.493 706.909 412.274Z" fill="#F2EEFF"/>
<path d="M660.708 390.192C671.177 380.061 678.688 414.892 678.688 414.892C678.688 414.892 646.938 403.623 660.708 390.192Z" fill="#F2EEFF"/>
<path d="M728.53 371.638C734.789 392.241 683.808 378.354 683.808 378.354C683.808 378.354 720.337 344.434 728.53 371.638Z" fill="#F2EEFF"/>
<path d="M660.594 348.987C672.77 335.214 685.401 378.468 685.401 378.468C685.401 378.468 644.434 367.085 660.594 348.987Z" fill="#F2EEFF"/>
<path d="M16.9561 318.141C80.6826 256.106 215.077 436.518 213.37 450.747C197.097 437.884 173.086 419.103 137.923 391.671C78.9756 345.572 39.1465 326.222 16.9561 318.141Z" fill="#F2EEFF"/>
<path d="M135.874 394.289C170.127 421.152 193.797 439.706 210.07 452.454C181.735 455.186 -23.5558 394.745 2.27616 339.767C5.91767 332.141 9.90058 325.881 14.3387 320.986C36.074 328.612 76.2444 347.621 135.874 394.289Z" fill="#F2EEFF"/>
<path d="M210.07 452.454C193.797 439.706 170.127 421.152 135.874 394.289C76.2446 347.621 36.0742 328.612 14.3389 320.986C15.1354 320.076 16.0458 319.051 16.9562 318.254C39.1467 326.336 78.9758 345.572 137.923 391.671C173.086 419.103 196.984 437.998 213.37 450.747C213.37 450.974 213.37 451.088 213.257 451.202C212.915 451.885 211.777 452.226 210.07 452.454Z" fill="white"/>
<path d="M186.173 447.104C134.964 439.706 53.485 433.559 24.8081 431.396C38.919 359.914 172.176 432.079 186.173 447.104Z" fill="#F2EEFF"/>
<path d="M23.8979 438.567C24.0116 436.974 24.2392 435.494 24.4668 434.014C53.1438 436.063 135.874 442.437 186.969 449.836C177.752 460.194 18.6632 503.903 23.8979 438.567Z" fill="#F2EEFF"/>
<path d="M187.311 449.039C187.311 449.267 187.083 449.494 186.856 449.836C135.761 442.437 53.03 436.063 24.353 434.014C24.4668 433.104 24.6944 432.193 24.8082 431.396C53.4851 433.445 134.964 439.706 186.059 446.99C186.969 447.901 187.311 448.584 187.311 449.039Z" fill="white"/>
<path d="M284.608 123.045H312.602C311.919 123.045 311.236 123.045 310.553 123.045C309.871 123.045 309.188 123.045 308.505 123.045C306.798 123.045 305.091 123.159 303.384 123.272C302.929 123.272 302.474 123.272 302.019 123.386C299.97 123.5 297.808 123.728 295.76 124.069C295.191 124.183 294.508 124.297 293.939 124.297C292.46 124.524 290.866 124.752 289.387 124.98C288.704 125.094 287.908 125.207 287.225 125.435C285.746 125.776 284.266 126.004 282.787 126.346C282.218 126.459 281.535 126.573 280.966 126.801C278.918 127.256 276.983 127.825 274.935 128.394C274.366 128.508 273.797 128.736 273.228 128.964C271.748 129.419 270.269 129.874 268.79 130.443C268.107 130.671 267.31 131.012 266.628 131.24C265.262 131.695 263.896 132.265 262.531 132.834C261.848 133.061 261.165 133.403 260.596 133.63C258.662 134.427 256.841 135.224 254.906 136.135C254.451 136.362 253.996 136.59 253.541 136.818C252.062 137.5 250.582 138.297 249.103 139.094C248.42 139.435 247.737 139.777 247.054 140.232C245.803 140.915 244.551 141.598 243.299 142.395C242.616 142.736 241.934 143.192 241.365 143.533C239.771 144.444 238.292 145.468 236.699 146.493C236.357 146.72 236.016 146.948 235.675 147.176C233.968 148.314 232.375 149.452 230.781 150.704C230.099 151.159 229.53 151.615 228.961 152.07C227.823 152.981 226.685 153.891 225.547 154.802C224.978 155.257 224.295 155.826 223.726 156.282C222.474 157.42 221.222 158.444 219.857 159.582C219.515 159.924 219.06 160.265 218.719 160.607C217.126 162.087 215.533 163.566 214.053 165.16C213.598 165.615 213.029 166.184 212.574 166.64C211.436 167.778 210.412 168.916 209.388 170.054C208.819 170.623 208.363 171.193 207.794 171.876C206.656 173.128 205.632 174.38 204.608 175.632C204.267 176.087 203.811 176.542 203.47 177.112C202.104 178.819 200.625 180.64 199.373 182.461C199.032 182.917 198.691 183.372 198.349 183.827C197.325 185.193 196.301 186.673 195.277 188.153C194.821 188.835 194.48 189.405 194.025 190.088C193.114 191.453 192.204 192.933 191.294 194.413C190.952 194.982 190.611 195.551 190.27 196.12C189.132 198.169 187.88 200.218 186.856 202.267C186.628 202.608 186.514 202.95 186.287 203.291C185.376 205.112 184.466 206.934 183.556 208.755C183.214 209.438 182.873 210.121 182.531 210.804C181.849 212.397 181.052 213.991 180.369 215.584C180.028 216.267 179.8 216.95 179.459 217.633C178.548 219.91 177.638 222.186 176.841 224.463C147.027 307.1 183.669 401.119 258.548 434.014C260.824 435.039 263.1 435.949 265.376 436.86C266.172 437.201 266.969 437.429 267.766 437.657C269.245 438.226 270.838 438.795 272.317 439.25C273.228 439.592 274.138 439.819 275.049 440.047C276.414 440.502 277.78 440.844 279.145 441.185C280.169 441.413 281.194 441.641 282.218 441.868C283.47 442.21 284.835 442.437 286.087 442.779C287.111 443.006 288.249 443.12 289.273 443.348C290.525 443.576 291.891 443.803 293.142 444.031C294.167 444.145 295.305 444.258 296.329 444.486C297.58 444.6 298.832 444.828 300.084 444.941C301.222 445.055 302.246 445.169 303.384 445.169C304.636 445.283 305.888 445.283 307.026 445.397C308.164 445.397 309.188 445.511 310.326 445.511C311.009 445.511 311.691 445.511 312.374 445.511H284.38C283.697 445.511 283.014 445.511 282.332 445.511C281.194 445.511 280.169 445.511 279.031 445.397C277.78 445.397 276.528 445.283 275.39 445.169C274.252 445.055 273.228 445.055 272.09 444.941C270.838 444.828 269.586 444.714 268.335 444.486C267.31 444.372 266.172 444.258 265.148 444.031C263.896 443.803 262.531 443.576 261.279 443.348C260.255 443.12 259.117 443.006 258.093 442.779C256.841 442.551 255.475 442.21 254.224 441.868C253.199 441.641 252.175 441.413 251.151 441.185C249.786 440.844 248.42 440.388 247.054 440.047C246.144 439.819 245.234 439.478 244.323 439.25C242.844 438.795 241.251 438.226 239.771 437.657C238.975 437.429 238.178 437.088 237.382 436.86C235.106 435.949 232.83 435.039 230.554 434.014C155.675 401.119 119.032 307.1 148.847 224.463C149.644 222.186 150.554 219.796 151.465 217.633C151.692 216.95 152.034 216.267 152.375 215.584C153.058 213.991 153.741 212.397 154.537 210.804C154.879 210.121 155.22 209.438 155.561 208.755C156.472 206.934 157.382 205.112 158.293 203.291C158.52 202.95 158.634 202.608 158.861 202.267C159.999 200.218 161.137 198.169 162.275 196.12C162.617 195.551 162.958 194.982 163.3 194.413C164.21 192.933 165.12 191.453 166.031 190.088C166.486 189.405 166.827 188.835 167.282 188.153C168.307 186.673 169.331 185.193 170.355 183.827C170.696 183.372 171.038 182.917 171.379 182.461C172.745 180.64 174.11 178.819 175.476 177.112C175.817 176.656 176.272 176.201 176.614 175.632C177.638 174.38 178.776 173.128 179.8 171.876C180.369 171.306 180.824 170.623 181.393 170.054C182.418 168.916 183.556 167.778 184.58 166.64C185.035 166.184 185.604 165.615 186.059 165.16C187.538 163.566 189.132 162.087 190.725 160.607C191.066 160.265 191.521 159.924 191.863 159.582C193.114 158.444 194.366 157.306 195.732 156.282C196.301 155.826 196.984 155.257 197.553 154.802C198.691 153.891 199.829 152.981 200.967 152.07C201.535 151.615 202.218 151.159 202.787 150.704C204.38 149.452 206.087 148.314 207.681 147.176C208.022 146.948 208.363 146.72 208.705 146.493C210.184 145.468 211.777 144.444 213.37 143.533C214.053 143.078 214.736 142.736 215.305 142.395C216.557 141.712 217.809 140.915 219.06 140.232C219.743 139.891 220.426 139.435 221.109 139.094C222.588 138.297 224.067 137.614 225.547 136.818C226.002 136.59 226.457 136.362 226.912 136.135C228.847 135.224 230.668 134.427 232.602 133.63C233.285 133.403 233.968 133.061 234.537 132.834C235.902 132.265 237.268 131.809 238.633 131.24C239.316 131.012 240.113 130.671 240.796 130.443C242.275 129.988 243.754 129.419 245.234 128.964C245.803 128.736 246.372 128.622 246.941 128.394C248.875 127.825 250.924 127.256 252.972 126.801C253.541 126.687 254.224 126.573 254.793 126.346C256.272 126.004 257.751 125.663 259.231 125.435C259.914 125.321 260.71 125.207 261.393 124.98C262.872 124.752 264.465 124.524 265.945 124.297C266.514 124.183 267.197 124.069 267.766 124.069C269.814 123.841 271.976 123.614 274.024 123.386C274.48 123.386 274.935 123.386 275.39 123.272C277.097 123.159 278.804 123.045 280.511 123.045C281.194 123.045 281.876 123.045 282.559 123.045C283.242 123.045 283.925 123.045 284.608 123.045Z" fill="#756FBF"/>
<path d="M312.146 485.463H284.152C286.428 485.463 288.818 485.463 292.232 485.235C294.28 485.122 296.215 485.008 298.263 484.78C299.06 484.666 299.743 484.666 300.539 484.553C302.474 484.325 304.408 484.097 306.229 483.87C306.798 483.756 307.367 483.756 307.936 483.642C310.326 483.3 312.715 482.845 315.105 482.39C315.674 482.276 316.129 482.162 316.698 482.048C318.633 481.707 320.454 481.252 322.388 480.796C323.071 480.682 323.868 480.455 324.55 480.227C326.485 479.772 328.306 479.203 330.24 478.747C330.695 478.634 331.264 478.52 331.72 478.292C334.109 477.609 336.385 476.812 338.661 476.016C339.23 475.788 339.685 475.674 340.254 475.447C342.075 474.764 343.896 474.081 345.717 473.398C346.399 473.17 347.082 472.829 347.765 472.601C349.586 471.804 351.52 471.007 354.593 469.641C356.869 468.617 359.031 467.479 361.307 466.341C361.876 466.113 362.331 465.771 362.9 465.544C364.607 464.633 366.314 463.723 368.021 462.698C368.704 462.357 369.273 462.015 369.956 461.56C371.776 460.535 373.597 459.397 376.442 457.576C378.49 456.21 380.653 454.844 382.701 453.364C383.27 453.023 383.725 452.568 384.294 452.226C385.887 451.088 387.367 449.95 388.96 448.812C389.529 448.356 390.098 447.901 390.667 447.446C392.374 446.08 394.194 444.714 396.584 442.551C398.519 440.844 400.453 439.136 402.274 437.429C402.729 436.974 403.184 436.518 403.753 436.063C405.119 434.697 406.598 433.331 407.964 431.965C408.533 431.396 408.988 430.827 409.557 430.372C411.15 428.665 412.743 426.957 414.906 424.681C416.613 422.746 418.319 420.697 420.026 418.648C420.482 418.079 420.937 417.51 421.392 416.941C422.644 415.347 423.896 413.867 425.034 412.274C425.489 411.591 425.944 411.022 426.399 410.339C427.878 408.29 429.358 406.241 430.951 403.851C432.43 401.688 433.91 399.411 435.275 397.135C435.73 396.452 436.072 395.769 436.527 395.086C437.551 393.379 438.575 391.671 439.6 389.85C439.941 389.167 440.396 388.484 440.738 387.801C441.989 385.411 443.355 383.021 444.493 380.517H472.487C471.235 383.021 469.983 385.411 468.732 387.801C468.39 388.484 467.935 389.167 467.594 389.85C466.57 391.671 465.545 393.379 464.521 395.086C464.066 395.769 463.725 396.452 463.269 397.135C461.904 399.411 460.424 401.688 458.945 403.851C457.238 406.355 455.873 408.404 454.393 410.339C453.938 411.022 453.483 411.591 453.028 412.274C451.776 413.867 450.638 415.461 449.386 416.941C448.931 417.51 448.476 418.079 448.021 418.648C446.314 420.697 444.72 422.632 442.9 424.681C440.851 426.957 439.258 428.665 437.551 430.372C436.982 430.941 436.527 431.51 435.958 431.965C434.592 433.331 433.227 434.697 431.748 436.063C431.292 436.518 430.837 436.974 430.268 437.429C428.334 439.136 426.513 440.844 424.578 442.551C422.189 444.6 420.368 445.966 418.661 447.446C418.092 447.901 417.523 448.356 416.954 448.812C415.475 449.95 413.881 451.088 412.288 452.226C411.719 452.568 411.264 453.023 410.695 453.364C408.647 454.844 406.598 456.21 404.436 457.576C401.705 459.283 399.884 460.422 397.95 461.56C397.267 461.901 396.698 462.243 396.015 462.698C394.308 463.609 392.601 464.633 390.894 465.544C390.325 465.771 389.87 466.113 389.301 466.341C387.139 467.479 384.863 468.503 382.587 469.641C379.401 471.007 377.58 471.804 375.759 472.601C375.076 472.829 374.394 473.17 373.711 473.398C371.89 474.081 370.069 474.764 368.249 475.447C367.68 475.674 367.224 475.788 366.655 476.016C364.38 476.812 361.99 477.609 359.714 478.292C359.259 478.406 358.69 478.52 358.234 478.747C356.3 479.317 354.479 479.772 352.545 480.227C351.862 480.455 351.065 480.569 350.382 480.796C348.448 481.252 346.627 481.707 344.693 482.048C344.124 482.162 343.668 482.276 343.099 482.39C340.71 482.845 338.32 483.3 335.93 483.642C335.361 483.756 334.792 483.756 334.223 483.87C332.289 484.097 330.468 484.325 328.533 484.553C327.737 484.666 327.054 484.666 326.257 484.78C324.323 484.894 322.274 485.122 320.226 485.235C316.698 485.463 314.309 485.463 312.146 485.463Z" fill="#756FBF"/>
<path d="M458.376 344.093H486.37L507.536 353.426H479.656L458.376 344.093Z" fill="#C0C8F9"/>
<path d="M284.835 83.3198H312.829C313.739 83.3198 314.308 83.3198 314.764 83.3198C315.56 83.3198 316.357 83.3198 317.153 83.3198C317.722 83.3198 318.405 83.3198 318.974 83.4336C319.771 83.4336 320.681 83.5475 321.478 83.5475C322.047 83.5475 322.729 83.6613 323.298 83.6613C324.095 83.6613 324.892 83.7751 325.802 83.8889C326.485 83.8889 327.168 84.0028 327.85 84.1166C328.647 84.2304 329.33 84.2304 330.126 84.3442C330.809 84.4581 331.492 84.4581 332.175 84.5719C332.971 84.6857 333.654 84.7995 334.451 84.7995C335.133 84.9134 335.816 85.0272 336.499 85.141C337.296 85.2548 337.978 85.3687 338.775 85.4825C339.458 85.5963 340.14 85.7101 340.823 85.824C341.62 85.9378 342.303 86.0516 343.099 86.2793C343.782 86.3931 344.465 86.5069 345.148 86.7346C345.944 86.8484 346.627 87.076 347.423 87.1899C348.106 87.3037 348.789 87.5313 349.472 87.6452C350.268 87.8728 350.951 87.9866 351.748 88.2143C352.431 88.3281 353.113 88.5558 353.796 88.6696C354.593 88.8972 355.389 89.1249 356.186 89.3525C356.869 89.5802 357.438 89.694 358.12 89.9217C358.917 90.1493 359.714 90.377 360.396 90.6046C361.079 90.8323 361.762 91.0599 362.445 91.1737C363.241 91.4014 364.038 91.7429 364.834 91.9705C365.403 92.1982 366.086 92.4258 366.655 92.6535C367.452 92.9949 368.362 93.2226 369.159 93.564C369.728 93.7917 370.411 94.0194 370.98 94.247C371.89 94.5885 372.8 94.9299 373.597 95.2714C374.166 95.4991 374.621 95.7267 375.19 95.8405C376.669 96.4097 378.035 96.9788 379.401 97.6618C468.276 136.704 514.023 244.951 486.029 344.206H458.035C486.029 244.951 440.396 136.818 351.406 97.6618C350.041 97.0926 348.561 96.4097 347.196 95.8405C346.627 95.6129 346.172 95.3852 345.603 95.2714C344.692 94.9299 343.782 94.5885 342.985 94.247C342.416 94.0194 341.734 93.7917 341.165 93.564C340.368 93.2226 339.458 92.9949 338.661 92.6535C338.092 92.4258 337.409 92.1982 336.84 91.9705C336.044 91.7429 335.247 91.4014 334.451 91.1737C333.768 90.9461 333.085 90.7184 332.402 90.6046C331.606 90.377 330.809 90.1493 330.126 89.9217C329.444 89.694 328.875 89.5802 328.192 89.3525C327.395 89.1249 326.599 88.8972 325.802 88.6696C325.119 88.4419 324.436 88.3281 323.754 88.2143C322.957 87.9866 322.274 87.8728 321.478 87.6452C320.795 87.5313 320.112 87.3037 319.429 87.1899C318.633 87.076 317.95 86.8484 317.153 86.7346C316.471 86.6207 315.788 86.5069 315.105 86.2793C314.308 86.1654 313.626 86.0516 312.829 85.824C312.146 85.7101 311.464 85.5963 310.781 85.4825C309.984 85.3687 309.301 85.2548 308.505 85.141C307.822 85.0272 307.139 84.9134 306.456 84.7995C305.66 84.6857 304.977 84.5719 304.18 84.5719C303.498 84.4581 302.815 84.4581 302.132 84.3442C301.336 84.2304 300.653 84.2304 299.856 84.1166C299.173 84.0028 298.491 84.0028 297.808 83.8889C297.011 83.7751 296.215 83.7751 295.304 83.6613C294.735 83.6613 294.053 83.5475 293.484 83.5475C292.687 83.5475 291.777 83.4336 290.98 83.4336C290.297 83.4336 289.728 83.4336 289.159 83.3198C288.363 83.3198 287.566 83.3198 286.77 83.3198C286.314 83.3198 285.745 83.3198 284.835 83.3198Z" fill="#756FBF"/>
<path d="M514.478 374.142H542.472C541.79 374.256 541.448 374.37 540.993 374.484C540.31 374.712 539.855 374.939 539.514 375.053H511.52C511.975 374.825 512.316 374.712 512.999 374.484C513.454 374.37 513.795 374.256 514.478 374.142Z" fill="#C0C8F9"/>
<path d="M516.071 374.029H544.065C543.383 374.029 542.927 374.029 542.472 374.142H514.478C514.933 374.029 515.388 374.029 516.071 374.029Z" fill="#C0C8F9"/>
<path d="M536.783 405.33C531.434 402.94 528.703 395.997 530.865 390.192L534.052 381.427C534.279 380.972 534.507 380.403 534.734 379.947C534.848 379.834 534.848 379.72 534.962 379.606C535.19 379.151 535.531 378.695 535.872 378.24C536.214 377.899 536.441 377.557 536.783 377.216C536.897 377.102 536.897 377.102 537.01 376.988C537.352 376.647 537.693 376.305 538.262 375.964C538.603 375.736 538.945 375.508 539.628 375.167H511.634C510.951 375.508 510.609 375.736 510.268 375.964C509.699 376.305 509.358 376.647 509.016 376.988C508.902 377.102 508.902 377.102 508.789 377.216C508.447 377.557 508.106 377.899 507.878 378.24C507.537 378.695 507.195 379.151 506.968 379.606C506.854 379.72 506.854 379.834 506.74 379.947C506.513 380.403 506.285 380.858 506.057 381.427L502.871 390.192C500.709 396.111 503.44 403.054 508.789 405.33L598.688 444.828H626.683L536.783 405.33Z" fill="#756FBF"/>
<path d="M598.688 444.828H626.683C627.252 445.055 627.821 445.283 628.503 445.397C629.186 445.511 629.755 445.624 630.324 445.624H602.33C601.761 445.624 601.192 445.511 600.509 445.397C599.94 445.283 599.257 445.055 598.688 444.828Z" fill="#C0C8F9"/>
<path d="M623.041 377.443C646.938 387.915 658.546 417.851 649.1 444.259L645.914 453.023C645.459 454.161 645.117 455.186 644.549 456.324C643.752 458.145 643.183 459.17 642.728 460.194C642.045 461.332 641.59 462.243 641.021 463.153C639.997 464.747 639.428 465.658 638.745 466.568C637.948 467.706 637.265 468.503 636.696 469.186C635.558 470.552 634.762 471.349 634.079 472.032C633.055 473.056 632.372 473.625 631.689 474.308C630.324 475.447 629.527 476.13 628.731 476.699C627.479 477.609 626.796 478.065 626 478.52C624.634 479.43 623.724 479.886 622.813 480.341C621.448 481.024 620.651 481.365 619.854 481.821C618.375 482.39 617.465 482.845 616.554 483.073C615.075 483.528 614.165 483.87 613.368 483.983C612.002 484.325 610.978 484.553 609.954 484.666C608.361 484.894 607.451 485.008 606.426 485.122C605.061 485.236 604.037 485.236 603.012 485.236C586.967 482.162 586.284 481.935 585.488 481.593L495.588 442.096C476.128 433.559 464.862 412.16 466.342 390.192L444.379 380.517C443.127 383.021 441.875 385.411 440.624 387.801C440.282 388.484 439.827 389.167 439.486 389.85C438.461 391.671 437.437 393.379 436.413 395.086C435.958 395.769 435.617 396.452 435.161 397.135C433.796 399.412 432.316 401.688 430.837 403.851C429.13 406.355 427.765 408.404 426.285 410.339C425.83 411.022 425.375 411.591 424.92 412.274C423.668 413.867 422.53 415.461 421.278 416.941C420.823 417.51 420.368 418.079 419.913 418.648C418.206 420.697 416.612 422.632 414.792 424.681C412.743 426.957 411.15 428.665 409.443 430.372C408.874 430.941 408.419 431.51 407.85 431.965C406.484 433.331 405.119 434.697 403.639 436.063C403.184 436.518 402.729 436.974 402.16 437.429C400.226 439.136 398.405 440.844 396.47 442.551C394.081 444.6 392.26 445.966 390.553 447.446C389.984 447.901 389.415 448.356 388.846 448.812C387.366 449.95 385.773 451.088 384.18 452.226C383.611 452.568 383.156 453.023 382.587 453.365C380.539 454.844 378.49 456.21 376.328 457.576C373.597 459.283 371.776 460.422 369.842 461.56C369.159 461.901 368.59 462.243 367.907 462.698C366.2 463.609 364.493 464.633 362.786 465.544C362.217 465.771 361.762 466.113 361.193 466.341C359.031 467.479 356.755 468.503 354.479 469.642C351.293 471.007 349.472 471.804 347.651 472.601C346.968 472.829 346.286 473.17 345.603 473.398C343.782 474.081 341.961 474.764 340.141 475.447C339.572 475.674 339.116 475.788 338.547 476.016C336.271 476.812 333.882 477.609 331.606 478.292C331.151 478.406 330.582 478.52 330.126 478.748C328.192 479.317 326.371 479.772 324.437 480.227C323.754 480.455 322.957 480.569 322.274 480.796C320.34 481.252 318.519 481.707 316.585 482.048C316.016 482.162 315.56 482.276 314.991 482.39C312.602 482.845 310.212 483.3 307.822 483.642C307.253 483.756 306.684 483.756 306.115 483.87C304.181 484.097 302.36 484.325 300.425 484.553C299.629 484.666 298.946 484.666 298.149 484.78C296.215 484.894 294.166 485.122 292.118 485.236C288.135 485.463 285.632 485.463 283.128 485.463C279.828 485.463 277.324 485.349 274.821 485.236C271.521 485.008 269.017 484.78 266.514 484.553C263.214 484.211 260.71 483.87 258.206 483.414C254.906 482.845 252.403 482.39 249.899 481.821C246.599 481.138 244.096 480.455 241.592 479.886C238.406 478.975 235.902 478.292 233.285 477.495C230.212 476.471 227.595 475.56 224.978 474.65C222.133 473.512 219.402 472.487 216.784 471.349C123.47 430.372 77.7239 313.246 114.936 210.121C115.732 207.958 116.529 205.795 117.439 203.633C118.919 199.99 119.829 197.941 120.739 195.779C121.763 193.389 122.674 191.453 123.698 189.518C125.405 186.104 126.315 184.169 127.453 182.234C128.819 179.73 129.729 178.022 130.753 176.315C132.574 173.128 133.712 171.306 134.85 169.485C136.557 166.867 137.467 165.388 138.605 163.794C140.654 160.835 141.906 159.127 143.157 157.42C144.978 154.916 146.116 153.436 147.254 152.07C149.416 149.338 150.782 147.745 152.147 146.151C154.309 143.761 155.447 142.395 156.699 141.143C158.975 138.753 160.341 137.273 161.82 135.793C164.21 133.517 165.462 132.265 166.827 131.012C169.103 128.964 170.583 127.598 172.062 126.232C174.679 124.069 176.045 122.931 177.41 121.793C179.686 119.971 181.279 118.833 182.873 117.581C183.328 117.24 183.669 116.898 184.124 116.671C185.718 115.532 187.311 114.394 188.904 113.256C190.838 112.004 192.545 110.865 194.252 109.841C197.325 108.02 199.032 106.882 200.739 105.971C202.673 104.833 204.38 103.922 206.087 103.012C209.16 101.418 210.867 100.507 212.688 99.7106C214.963 98.6862 216.557 97.8894 218.264 97.2065C221.45 95.8406 223.271 95.1576 225.091 94.4747C227.709 93.5641 229.302 92.8811 230.895 92.4258C234.081 91.4014 235.902 90.8323 237.837 90.2632C240.568 89.4664 242.161 89.0111 243.868 88.6696C247.054 87.8728 248.989 87.4175 250.923 87.0761C253.768 86.5069 255.475 86.1655 257.182 85.9378C260.255 85.4825 262.189 85.141 264.124 84.9134C267.196 84.5719 268.903 84.3443 270.61 84.2304C273.569 84.0028 275.504 83.889 277.552 83.7751C280.625 83.6613 282.559 83.6613 284.38 83.6613C285.745 83.6613 286.314 83.6613 286.997 83.6613C287.794 83.6613 288.59 83.6613 289.387 83.6613C289.956 83.6613 290.639 83.6613 291.208 83.7751C292.004 83.7751 292.915 83.889 293.711 83.889C294.28 83.889 294.963 84.0028 295.532 84.0028C296.329 84.0028 297.125 84.1166 298.036 84.2304C298.718 84.2304 299.401 84.3443 300.084 84.4581C300.881 84.5719 301.563 84.5719 302.36 84.6857C303.043 84.7996 303.725 84.7996 304.408 84.9134C305.205 85.0272 305.888 85.141 306.684 85.141C307.367 85.2549 308.05 85.3687 308.732 85.4825C309.529 85.5963 310.212 85.7102 311.008 85.824C311.691 85.9378 312.374 86.0516 313.057 86.1655C313.853 86.2793 314.536 86.3931 315.333 86.6208C316.016 86.7346 316.698 86.8484 317.381 87.0761C318.178 87.1899 318.86 87.4175 319.657 87.5314C320.34 87.6452 321.023 87.8728 321.705 87.9867C322.502 88.2143 323.185 88.3281 323.981 88.5558C324.664 88.6696 325.347 88.8972 326.03 89.0111C326.826 89.2387 327.623 89.4664 328.419 89.694C329.102 89.9217 329.671 90.0355 330.354 90.2632C331.151 90.4908 331.947 90.7185 332.63 90.9461C333.313 91.1738 333.996 91.4014 334.678 91.5152C335.475 91.7429 336.271 92.0843 337.068 92.312C337.637 92.5396 338.32 92.7673 338.889 92.9949C339.685 93.3364 340.596 93.5641 341.392 93.9055C341.961 94.1332 342.644 94.3608 343.213 94.5885C344.124 94.93 345.034 95.2714 345.83 95.6129C346.399 95.8406 346.855 96.0682 347.424 96.182C348.903 96.7512 350.269 97.3203 351.634 98.0032C440.51 137.045 486.256 245.293 458.262 344.548L479.429 353.882C480.111 352.971 480.908 352.06 481.591 351.15C482.842 349.67 483.525 348.987 484.094 348.304C485.346 347.052 486.256 346.255 487.053 345.572C488.419 344.434 489.101 343.979 489.784 343.41C491.377 342.271 492.401 341.589 493.312 341.019C494.45 340.336 495.36 339.881 496.271 339.426C497.864 338.629 498.774 338.288 499.571 337.946C501.164 337.263 502.188 336.922 503.212 336.694C504.805 336.239 505.716 336.011 506.512 335.783C508.333 335.442 509.471 335.214 510.495 335.1C511.861 334.987 512.885 334.873 513.795 334.873C515.73 334.873 516.868 334.873 517.892 334.873C519.258 334.987 520.282 335.101 521.42 335.214C522.899 335.442 524.037 335.67 525.061 335.897C526.768 336.353 527.792 336.58 528.93 336.922C530.524 337.491 531.662 337.946 532.799 338.401L623.041 377.443ZM420.254 344.093C450.069 261.456 413.426 167.436 338.547 134.541C336.271 133.517 333.996 132.606 331.72 131.695C330.923 131.468 330.24 131.126 329.444 130.899C327.85 130.33 326.371 129.76 324.778 129.305C323.868 129.077 323.071 128.85 322.161 128.508C320.681 128.053 319.316 127.712 317.836 127.256C316.926 127.029 315.902 126.801 314.991 126.573C313.626 126.232 312.26 125.89 310.895 125.663C309.87 125.435 308.96 125.321 307.936 125.094C306.57 124.866 305.205 124.638 303.839 124.411C302.815 124.297 301.791 124.183 300.88 124.069C299.515 123.955 298.263 123.728 296.898 123.614C295.873 123.5 294.849 123.5 293.825 123.386C292.573 123.272 291.208 123.159 289.956 123.159C288.932 123.159 287.908 123.045 286.883 123.045C286.201 123.045 285.404 123.045 284.721 123.045C284.038 123.045 283.356 123.045 282.673 123.045C281.99 123.045 281.307 123.045 280.625 123.045C278.918 123.045 277.211 123.159 275.504 123.272C275.049 123.272 274.593 123.272 274.138 123.386C272.09 123.5 269.928 123.728 267.879 124.069C267.31 124.183 266.628 124.297 266.059 124.297C264.579 124.524 262.986 124.752 261.507 124.98C260.824 125.094 260.027 125.207 259.344 125.435C257.865 125.777 256.386 126.004 254.906 126.346C254.337 126.459 253.655 126.573 253.086 126.801C251.037 127.256 249.103 127.825 247.054 128.394C246.485 128.508 245.916 128.736 245.347 128.964C243.868 129.419 242.389 129.874 240.909 130.443C240.227 130.671 239.43 131.012 238.747 131.24C237.382 131.695 236.016 132.265 234.65 132.834C233.968 133.061 233.285 133.403 232.716 133.63C230.781 134.427 228.961 135.224 227.026 136.135C226.571 136.362 226.116 136.59 225.66 136.818C224.181 137.5 222.702 138.297 221.222 139.094C220.54 139.436 219.857 139.777 219.174 140.232C217.922 140.915 216.67 141.598 215.419 142.395C214.736 142.736 214.053 143.192 213.484 143.533C211.891 144.444 210.412 145.468 208.818 146.493C208.477 146.72 208.136 146.948 207.794 147.176C206.087 148.314 204.494 149.452 202.901 150.704C202.218 151.159 201.649 151.615 201.08 152.07C199.942 152.981 198.804 153.891 197.666 154.802C197.097 155.257 196.415 155.826 195.846 156.282C194.594 157.42 193.342 158.444 191.976 159.583C191.635 159.924 191.18 160.265 190.838 160.607C189.245 162.087 187.652 163.566 186.173 165.16C185.718 165.615 185.149 166.184 184.693 166.64C183.555 167.778 182.531 168.916 181.507 170.054C180.938 170.624 180.483 171.193 179.914 171.876C178.776 173.128 177.752 174.38 176.728 175.632C176.386 176.087 175.931 176.542 175.59 177.112C174.224 178.819 172.745 180.64 171.493 182.461C171.152 182.917 170.81 183.372 170.469 183.827C169.445 185.193 168.42 186.673 167.396 188.153C166.941 188.836 166.6 189.405 166.144 190.088C165.234 191.453 164.324 192.933 163.413 194.413C163.072 194.982 162.73 195.551 162.389 196.12C161.251 198.169 159.999 200.218 158.975 202.267C158.748 202.608 158.634 202.95 158.406 203.291C157.496 205.112 156.585 206.934 155.675 208.755C155.334 209.438 154.992 210.121 154.651 210.804C153.968 212.397 153.172 213.991 152.489 215.584C152.147 216.267 151.92 216.95 151.578 217.633C150.668 219.91 149.758 222.186 148.961 224.463C119.146 307.1 155.789 401.119 230.668 434.014C232.943 435.039 235.219 435.949 237.495 436.86C238.292 437.201 239.089 437.429 239.885 437.657C241.364 438.226 242.958 438.795 244.437 439.25C245.347 439.592 246.258 439.819 247.168 440.047C248.534 440.502 249.899 440.844 251.265 441.185C252.289 441.413 253.313 441.641 254.337 441.868C255.589 442.21 256.955 442.437 258.206 442.779C259.231 443.006 260.369 443.12 261.393 443.348C262.645 443.576 264.01 443.803 265.262 444.031C266.286 444.145 267.424 444.259 268.448 444.486C269.7 444.6 270.952 444.828 272.204 444.942C273.342 445.055 274.366 445.169 275.504 445.169C276.755 445.283 278.007 445.283 279.145 445.397C280.283 445.397 281.307 445.511 282.445 445.511C283.128 445.511 283.811 445.511 284.494 445.511C285.176 445.511 285.859 445.511 286.428 445.511C287.111 445.511 287.794 445.511 288.59 445.511C290.297 445.511 292.004 445.397 293.597 445.283C294.053 445.283 294.508 445.283 294.963 445.169C297.011 445.055 299.174 444.828 301.222 444.486C301.791 444.372 302.36 444.372 302.929 444.259C304.522 444.031 306.001 443.803 307.595 443.462C308.277 443.348 308.96 443.234 309.643 443.12C311.236 442.779 312.829 442.437 314.422 442.096C314.991 441.982 315.447 441.868 316.016 441.754C318.064 441.299 320.112 440.73 322.161 440.047C322.616 439.933 323.071 439.706 323.526 439.592C325.119 439.136 326.712 438.567 328.306 437.998C328.988 437.771 329.671 437.543 330.354 437.315C331.833 436.746 333.313 436.177 334.678 435.608C335.247 435.38 335.816 435.153 336.385 434.925C338.32 434.128 340.254 433.218 342.189 432.307C342.53 432.193 342.758 431.965 343.099 431.852C344.692 431.055 346.399 430.258 347.993 429.348C348.562 429.006 349.244 428.665 349.813 428.323C351.179 427.64 352.431 426.843 353.796 426.047C354.365 425.705 354.934 425.364 355.503 425.022C357.21 423.998 359.031 422.859 360.738 421.721C362.786 420.355 364.607 419.103 366.314 417.737C366.883 417.396 367.338 416.941 367.907 416.599C369.159 415.575 370.411 414.664 371.662 413.64C372.231 413.184 372.8 412.729 373.256 412.274C374.621 411.136 375.987 409.883 377.352 408.631C377.694 408.404 377.921 408.176 378.263 407.835C379.856 406.355 381.449 404.761 383.042 403.168C383.497 402.712 383.839 402.257 384.294 401.916C385.432 400.664 386.57 399.525 387.708 398.273C388.163 397.704 388.732 397.135 389.187 396.68C390.325 395.428 391.463 394.062 392.601 392.696C392.943 392.241 393.284 391.785 393.625 391.444C395.105 389.623 396.47 387.915 397.836 385.98C398.177 385.525 398.405 385.183 398.746 384.728C399.77 383.248 400.795 381.769 401.819 380.289C402.274 379.72 402.615 379.037 403.071 378.354C403.981 376.874 404.891 375.394 405.802 373.915C406.143 373.346 406.484 372.777 406.826 372.321C408.078 370.272 409.216 368.224 410.354 366.175C411.719 363.443 412.743 361.622 413.54 359.687C413.881 359.004 414.223 358.321 414.45 357.638C415.247 356.044 415.93 354.451 416.612 352.743C416.954 352.06 417.181 351.377 417.523 350.695C418.547 348.759 419.457 346.483 420.254 344.093ZM615.644 429.461C617.806 423.542 615.075 416.599 609.727 414.323L519.827 374.825C519.258 374.598 518.689 374.37 518.006 374.256C517.323 374.142 516.64 374.029 516.071 374.029C515.388 374.029 514.933 374.029 514.478 374.142C513.795 374.256 513.454 374.37 512.999 374.484C512.316 374.712 511.861 374.939 511.519 375.053C510.837 375.394 510.495 375.622 510.154 375.85C509.585 376.191 509.243 376.533 508.902 376.874C508.788 376.988 508.788 376.988 508.674 377.102C508.333 377.443 507.992 377.785 507.764 378.126C507.423 378.582 507.081 379.037 506.854 379.492C506.74 379.606 506.74 379.72 506.626 379.834C506.399 380.289 506.171 380.744 505.943 381.313L502.757 390.078C500.595 395.997 503.326 402.94 508.674 405.217L598.574 444.714C599.143 444.942 599.712 445.169 600.395 445.283C601.078 445.397 601.647 445.511 602.216 445.511C602.899 445.511 603.354 445.511 603.809 445.397C604.492 445.283 604.833 445.169 605.288 445.055C605.971 444.828 606.426 444.6 606.768 444.486C606.882 444.486 606.995 444.372 607.109 444.372C607.451 444.145 607.792 443.917 608.133 443.689C608.702 443.234 609.044 443.006 609.385 442.665C609.499 442.551 609.499 442.551 609.613 442.437C609.954 442.096 610.182 441.754 610.523 441.413C610.864 440.958 611.206 440.502 611.433 440.047C611.547 439.933 611.547 439.819 611.661 439.706C611.889 439.25 612.116 438.795 612.344 438.226L615.644 429.461Z" fill="#26225B"/>
<path d="M651.035 377.443L561.135 337.946C559.997 337.491 558.859 337.036 557.266 336.466C556.242 336.125 555.104 335.783 553.397 335.442C552.259 335.214 551.235 334.987 549.755 334.759C548.617 334.645 547.593 334.531 546.227 334.418C545.659 334.418 545.09 334.418 544.407 334.418H516.413C517.095 334.418 517.664 334.418 518.233 334.418C519.599 334.531 520.623 334.645 521.761 334.759C523.24 334.987 524.378 335.214 525.403 335.442C527.11 335.897 528.134 336.125 529.272 336.466C530.865 337.036 532.003 337.491 533.141 337.946L623.041 377.443C646.938 387.915 658.545 417.851 649.1 444.259L645.914 453.023C645.459 454.161 645.117 455.186 644.548 456.324C643.752 458.145 643.183 459.17 642.728 460.194C642.045 461.332 641.59 462.243 641.021 463.154C639.996 464.747 639.427 465.658 638.745 466.568C637.948 467.707 637.265 468.503 636.696 469.186C635.558 470.552 634.762 471.349 634.079 472.032C633.055 473.056 632.372 473.625 631.689 474.308C630.324 475.447 629.527 476.13 628.731 476.699C627.479 477.609 626.796 478.065 625.999 478.52C624.634 479.43 623.723 479.886 622.813 480.341C621.447 481.024 620.651 481.365 619.854 481.821C618.375 482.39 617.465 482.845 616.554 483.073C615.075 483.528 614.164 483.87 613.368 483.983C612.002 484.325 610.978 484.553 609.954 484.666C608.361 484.894 607.45 485.008 606.426 485.122C605.061 485.236 604.037 485.236 603.012 485.236H631.006C632.031 485.236 633.055 485.236 634.42 485.122C635.331 485.008 636.241 484.894 637.948 484.666C638.972 484.439 639.883 484.325 641.362 483.983C642.272 483.756 643.069 483.528 644.548 483.073C645.459 482.731 646.483 482.39 647.848 481.821C648.645 481.479 649.442 481.138 650.807 480.341C651.718 479.886 652.628 479.317 653.994 478.52C654.79 478.065 655.473 477.495 656.725 476.699C657.521 476.13 658.318 475.447 659.683 474.308C660.366 473.739 661.049 473.056 662.073 472.032C662.87 471.235 663.552 470.552 664.69 469.186C665.373 468.389 665.942 467.707 666.739 466.568C667.422 465.658 667.991 464.747 669.015 463.154C669.584 462.243 670.153 461.332 670.722 460.194C671.291 459.17 671.746 458.145 672.542 456.324C672.998 455.3 673.453 454.161 673.908 453.023L677.094 444.259C686.54 417.851 674.818 387.915 651.035 377.443Z" fill="#756FBF"/>
<path d="M272.659 33.2369C269.472 33.3507 263.782 22.1959 269.131 13.5452C273.228 6.82949 279.145 8.42304 279.145 8.42304C279.145 8.42304 282.445 0 290.411 0C300.198 0 301.222 11.724 302.132 11.724C303.156 11.724 313.967 15.4802 309.529 26.8627C307.025 33.4645 292.004 32.7816 272.659 33.2369Z" fill="#C42128"/>
<path d="M279.486 21.6267C276.414 24.0171 261.62 37.3346 262.417 38.9281C263.327 40.6355 268.448 46.0991 269.586 45.1885C270.724 44.2779 276.3 37.7899 276.3 37.7899C276.3 37.7899 271.293 77.97 271.862 78.9945C272.545 80.0189 292.459 82.7507 292.459 82.7507L307.936 78.7668C307.936 78.7668 304.977 39.2696 304.408 37.7899C303.839 36.3101 312.488 43.2535 313.512 43.3673C314.536 43.4811 320.909 38.9281 321.25 37.5622C321.591 36.0825 304.977 21.1714 300.994 19.4641C297.011 17.7567 283.811 18.212 279.486 21.6267Z" fill="#756FBF"/>
<path d="M272.772 68.5226L294.394 66.0184L311.463 70.1161L311.122 78.7668C311.122 78.7668 299.515 87.4175 290.866 86.6207C272.772 85.0272 271.407 79.9051 271.407 72.5064C271.407 72.2788 272.772 68.5226 272.772 68.5226Z" fill="#C42128"/>
<path d="M263.438 39.3263L263.454 39.3026C263.579 39.3217 263.735 39.3669 263.922 39.4416C264.176 39.5425 264.466 39.6895 264.779 39.8716C265.403 40.2355 266.101 40.7293 266.741 41.2431C267.382 41.7574 267.958 42.285 268.342 42.7142C268.535 42.9304 268.671 43.1113 268.744 43.2461C268.768 43.2906 268.782 43.3242 268.79 43.3477C268.69 43.4395 268.536 43.5951 268.346 43.7913C268.097 44.0492 267.772 44.3923 267.399 44.7921C266.653 45.5918 265.71 46.6208 264.777 47.6531C263.845 48.6853 262.923 49.7219 262.219 50.5366C261.867 50.9438 261.568 51.297 261.35 51.5671C261.241 51.702 261.15 51.8181 261.083 51.911C261.024 51.9916 260.965 52.077 260.936 52.1455C260.91 52.2043 260.909 52.2596 260.912 52.2937C260.915 52.3322 260.924 52.3667 260.933 52.3937C260.951 52.4476 260.979 52.504 261.009 52.5581C261.071 52.6682 261.164 52.8067 261.28 52.9657C261.513 53.2856 261.856 53.7143 262.271 54.2141C263.102 55.2148 264.235 56.5155 265.387 57.8312C265.587 58.0599 265.787 58.289 265.987 58.517C266.939 59.6028 267.87 60.6658 268.624 61.5479C269.081 62.0817 269.471 62.5473 269.76 62.9104C269.905 63.0921 270.023 63.2463 270.111 63.3694C270.202 63.4975 270.251 63.5775 270.268 63.6158C270.288 63.6608 270.311 63.7113 270.336 63.7666C270.602 64.3582 271.119 65.5064 271.244 66.5186C271.313 67.074 271.255 67.5305 271.032 67.8312C270.821 68.1157 270.41 68.3269 269.603 68.2731C269.247 68.2495 268.74 68.021 268.102 67.5847C267.473 67.1552 266.75 66.5485 265.971 65.8183C264.415 64.3585 262.654 62.4245 261 60.4783C259.346 58.533 257.802 56.5806 256.68 55.0869C256.118 54.3398 255.663 53.7092 255.353 53.2527C255.198 53.0239 255.081 52.8422 255.006 52.7128C254.974 52.6579 254.952 52.6161 254.937 52.5864C254.95 52.555 254.97 52.511 254.999 52.4533C255.059 52.3335 255.149 52.1699 255.267 51.9668C255.501 51.5613 255.837 51.0107 256.242 50.3631C257.051 49.0687 258.131 47.3949 259.212 45.7377C260.293 44.0807 261.374 42.4414 262.184 41.2163C262.59 40.6037 262.927 40.0948 263.164 39.739L263.438 39.3263Z" fill="white" stroke="#26225B" stroke-width="0.5"/>
<path d="M327.361 51.6814C327.347 51.7105 327.326 51.7501 327.296 51.8014C327.222 51.9299 327.106 52.1104 326.953 52.3376C326.646 52.791 326.196 53.4171 325.641 54.1589C324.53 55.6419 323.004 57.5802 321.372 59.5113C319.739 61.4433 318.003 63.3633 316.473 64.8125C315.707 65.5375 314.998 66.1397 314.383 66.5662C313.758 66.9998 313.265 67.2253 312.925 67.2487C312.15 67.3022 311.762 67.0928 311.564 66.8131C311.353 66.5139 311.301 66.0591 311.37 65.5088C311.482 64.616 311.883 63.6357 312.127 63.0387C312.181 62.9077 312.227 62.7951 312.261 62.706C312.282 62.6683 312.33 62.5963 312.413 62.4846C312.501 62.3677 312.618 62.2198 312.762 62.0447C313.048 61.6946 313.434 61.2418 313.886 60.7202C314.454 60.063 315.124 59.3 315.826 58.4995C316.239 58.0289 316.663 57.5454 317.085 57.0627C318.223 55.761 319.342 54.4669 320.163 53.462C320.573 52.9602 320.912 52.5263 321.142 52.1977C321.257 52.0344 321.349 51.8904 321.41 51.7736C321.441 51.7159 321.468 51.6563 321.484 51.5992C321.498 51.5545 321.522 51.4568 321.482 51.356C321.454 51.2866 321.394 51.1987 321.334 51.1158C321.267 51.0238 321.177 50.9089 321.07 50.7755C320.855 50.5085 320.561 50.1597 320.214 49.7578C319.521 48.9538 318.612 47.9314 317.694 46.9134C316.776 45.8953 315.847 44.8805 315.112 44.0914C314.744 43.697 314.424 43.3583 314.178 43.1035C313.977 42.8959 313.816 42.734 313.718 42.646C313.723 42.6269 313.733 42.5979 313.752 42.5577C313.813 42.4312 313.937 42.2579 314.122 42.0474C314.489 41.6308 315.053 41.1183 315.686 40.6183C316.319 40.1191 317.013 39.6394 317.636 39.2861C317.947 39.1093 318.237 38.9665 318.49 38.8684C318.678 38.7958 318.835 38.7517 318.961 38.7331L318.976 38.7551L319.247 39.1603C319.48 39.5097 319.813 40.0094 320.213 40.6104C321.013 41.8124 322.08 43.4198 323.146 45.0413C324.213 46.663 325.279 48.2979 326.078 49.5554C326.478 50.1844 326.809 50.7173 327.041 51.1063C327.157 51.3012 327.246 51.4572 327.306 51.5699C327.33 51.6169 327.349 51.6538 327.361 51.6814ZM327.378 51.7214C327.379 51.7237 327.378 51.7232 327.378 51.7205L327.378 51.7214Z" fill="white" stroke="#26225B" stroke-width="0.5"/>
<path d="M285.062 21.8544C284.949 23.3341 286.656 28.0009 290.525 27.6594C294.394 27.318 296.101 24.4724 295.987 22.765C295.987 21.0576 294.963 18.3258 293.256 18.3258C291.663 18.212 285.518 17.6429 285.062 21.8544Z" fill="#756FBF"/>
<path d="M297.239 153.891C299.173 155.029 304.067 136.476 302.132 131.809C300.197 127.029 298.377 128.508 298.377 128.508C298.377 128.508 290.752 149.907 297.239 153.891Z" fill="#26225B"/>
<path d="M254.906 153.664C252.63 154.688 248.989 133.517 251.606 128.508C254.223 123.5 256.158 125.321 256.158 125.321C256.158 125.321 262.531 150.021 254.906 153.664Z" fill="#26225B"/>
<path d="M287.613 23.007C287.603 22.9828 287.594 22.9627 287.588 22.9472V12.4293H293.239L293.461 21.9597L293.459 21.9752C293.457 21.9944 293.454 22.0237 293.449 22.0616C293.438 22.1376 293.42 22.248 293.39 22.3822C293.331 22.6514 293.227 23.0119 293.046 23.3805C292.685 24.1147 292.034 24.8647 290.834 25.0212C289.627 25.1787 288.821 24.6593 288.306 24.091C288.046 23.8047 287.862 23.5069 287.743 23.28C287.683 23.1669 287.64 23.0724 287.613 23.007Z" fill="white" stroke="#26225B" stroke-width="0.5"/>
<path d="M290.525 21.3767C286.225 21.3767 282.695 17.8463 282.695 13.5452C282.695 9.25074 286.219 5.82577 290.528 5.71359C294.827 5.71535 298.354 9.24507 298.354 13.5452C298.354 17.8463 294.825 21.3767 290.525 21.3767Z" fill="white" stroke="#26225B" stroke-width="0.5"/>
<path d="M300.652 11.6101C300.766 15.3664 298.035 16.5046 293.597 15.3664C288.818 14.1143 286.314 9.10599 286.314 9.10599C286.314 9.10599 286.769 13.659 284.266 14.0005C281.762 14.3419 281.307 13.0899 281.307 13.0899C281.307 13.0899 280.397 7.28479 283.583 4.78065C295.759 -5.12212 300.425 6.03272 300.652 11.6101Z" fill="#C42128"/>
<path d="M268.107 45.53C266.969 46.6682 267.31 71.7097 268.107 72.3926C268.903 73.0756 313.284 73.8723 314.081 72.8479C314.991 71.7097 313.739 44.2779 312.829 43.3673C312.032 42.4567 270.382 43.2535 268.107 45.53Z" fill="#26225B"/>
<path d="M297.58 130.329C298.377 130.899 302.132 132.834 302.587 132.037C302.929 131.24 313.739 78.5392 310.894 73.6447C308.277 69.0917 304.294 68.0673 302.701 68.6364C298.718 70.0023 296.214 73.1894 296.783 77.4009C297.352 83.4336 296.214 129.533 297.58 130.329Z" fill="#C42128"/>
<path d="M256.272 133.744C255.248 133.63 251.037 132.947 251.037 131.923C251.151 131.012 268.334 77.5147 273.341 75.0106C277.893 72.7341 281.876 74.6691 283.128 76.035C286.087 79.1083 286.428 85.0272 283.925 87.6452C279.828 91.9705 257.979 133.858 256.272 133.744Z" fill="#C42128"/>
<path d="M540.196 275.798C540.082 276.594 541.22 277.05 541.448 276.822C541.675 276.594 555.559 264.415 555.217 263.732C554.876 263.049 554.534 262.594 553.965 262.822C553.396 263.163 540.424 275.001 540.196 275.798Z" fill="#26225B"/>
<path d="M544.414 273.921C544.414 273.921 544.414 273.919 544.415 273.915C544.415 273.919 544.414 273.921 544.414 273.921ZM549.315 270.088C549.532 269.908 549.723 269.758 549.878 269.645C549.839 269.756 549.79 269.885 549.73 270.031C549.527 270.526 549.217 271.184 548.849 271.915C548.114 273.371 547.153 275.095 546.363 276.338C546.361 276.34 546.356 276.346 546.347 276.355C546.331 276.372 546.308 276.395 546.277 276.424C546.215 276.482 546.128 276.559 546.02 276.654C545.803 276.843 545.504 277.095 545.149 277.389C544.438 277.976 543.504 278.725 542.56 279.456C541.616 280.188 540.664 280.899 539.914 281.413C539.538 281.67 539.219 281.874 538.979 282.005C538.858 282.072 538.765 282.115 538.699 282.139C538.683 282.145 538.67 282.149 538.661 282.151C538.36 282.005 538.123 281.685 537.856 281.292C537.842 281.27 537.826 281.247 537.811 281.225C537.693 281.05 537.568 280.865 537.435 280.704C537.322 280.566 537.193 280.433 537.043 280.33C537.065 280.279 537.097 280.213 537.141 280.131C537.276 279.88 537.497 279.527 537.781 279.1C538.348 278.25 539.153 277.134 539.984 276.018C540.815 274.903 541.67 273.792 542.338 272.953C542.673 272.533 542.959 272.184 543.172 271.936C543.278 271.812 543.364 271.716 543.427 271.65C543.458 271.618 543.481 271.596 543.496 271.582C543.873 271.436 544.149 271.365 544.346 271.346C544.55 271.327 544.635 271.365 544.666 271.389C544.69 271.408 544.72 271.448 544.725 271.557C544.729 271.668 544.704 271.817 544.65 271.999C544.554 272.323 544.387 272.688 544.233 273.024C544.215 273.065 544.197 273.104 544.179 273.144C544.098 273.322 544.022 273.493 543.973 273.633C543.95 273.703 543.929 273.776 543.92 273.844C543.912 273.9 543.903 274.014 543.971 274.115C544.041 274.22 544.15 274.243 544.217 274.242C544.278 274.242 544.333 274.224 544.371 274.21C544.449 274.179 544.537 274.127 544.627 274.069C544.81 273.948 545.052 273.761 545.328 273.535C545.881 273.082 546.6 272.448 547.317 271.816L547.342 271.795C548.053 271.168 548.761 270.543 549.315 270.088ZM538.637 282.156C538.637 282.156 538.638 282.156 538.639 282.156L538.637 282.156Z" fill="white" stroke="black" stroke-width="0.5"/>
<path d="M556.583 390.989C558.517 389.85 547.365 373.232 545.544 372.777C543.724 372.207 542.13 374.939 541.675 376.305C540.992 378.582 551.689 394.062 556.583 390.989Z" fill="#C42128"/>
<path d="M557.379 330.547C557.379 330.547 594.591 366.971 596.07 367.427C597.664 367.882 597.55 363.671 598.005 362.418C598.46 361.166 570.352 318.482 563.411 313.815C559.2 310.97 516.981 309.49 515.388 309.831C513.795 310.287 510.722 315.067 511.974 317.116C513.226 319.165 553.169 326.564 555.103 327.36C557.038 328.157 557.379 330.547 557.379 330.547Z" fill="#26225B"/>
<path d="M502.984 327.816C502.984 327.816 511.861 336.694 524.037 334.417C536.213 332.141 543.838 330.775 543.838 330.775C543.838 330.775 545.545 342.954 544.52 356.158C543.269 371.752 542.131 374.939 542.813 376.874C543.724 379.264 547.479 378.809 548.276 378.126C549.3 377.329 565.687 325.881 562.842 319.279C559.997 312.677 514.023 310.856 512.202 311.652C510.495 312.563 502.757 324.97 502.984 327.816Z" fill="#26225B"/>
<path d="M501.733 330.775C505.715 332.483 504.35 322.124 510.267 316.661C516.299 311.197 520.623 311.539 521.533 310.059C522.444 308.579 510.267 260.09 507.422 257.927C504.577 255.651 501.164 253.829 499.229 255.195C493.198 259.521 485.004 276.481 488.532 298.335C492.174 320.303 494.336 327.588 501.733 330.775Z" fill="#C42128"/>
<path d="M502.762 249.366L502.798 249.272L502.76 249.18L501.672 246.568L504.289 242.424L510.115 240.224L510.205 240.29C510.333 240.383 510.517 240.517 510.743 240.683C511.196 241.016 511.818 241.474 512.493 241.979C513.845 242.99 515.403 244.179 516.248 244.912C516.58 245.2 516.701 245.695 516.604 246.398C516.507 247.095 516.204 247.932 515.775 248.811C514.918 250.567 513.595 252.426 512.585 253.548C511.621 254.62 510.504 254.858 509.62 254.832C509.176 254.818 508.792 254.737 508.518 254.66C508.382 254.621 508.274 254.583 508.201 254.556C508.165 254.542 508.137 254.531 508.119 254.523L508.1 254.515L508.096 254.513L508.095 254.513L508.095 254.513L508.095 254.513L508.095 254.513L507.871 254.41L507.765 254.633L505.615 259.162C505.61 259.168 505.603 259.175 505.595 259.184C505.57 259.211 505.531 259.251 505.477 259.293C505.368 259.378 505.198 259.475 504.961 259.516C504.494 259.598 503.685 259.475 502.465 258.421L502.465 258.421L502.461 258.418C501.81 257.875 501.287 257.135 500.923 256.52C500.743 256.214 500.604 255.943 500.51 255.748C500.466 255.657 500.432 255.583 500.409 255.531L502.762 249.366Z" fill="white" stroke="black" stroke-width="0.5"/>
<path d="M516.185 246.545C517.778 246.772 523.581 247.341 523.695 242.902C523.923 233.341 514.136 237.211 513.453 237.211C512.771 237.097 505.601 234.252 501.96 238.349C498.205 242.675 498.318 252.236 503.098 251.098C503.781 250.984 502.984 245.634 504.805 244.61C506.739 243.585 506.853 246.089 507.65 246.203C508.446 246.317 509.698 243.471 510.495 243.13C511.519 242.902 513.567 246.089 516.185 246.545Z" fill="#26225B"/>
<path d="M497.977 265.781C499.57 265.098 503.326 268.171 504.009 269.082C507.195 273.294 519.144 290.823 519.713 290.936C520.282 291.05 535.986 279.212 536.896 279.212C537.806 279.212 539.627 282.058 539.855 282.855C540.196 283.993 521.875 299.929 520.168 299.359C518.461 298.79 508.56 296.741 501.164 284.904C494.905 275.001 494.45 267.261 497.977 265.781Z" fill="#C42128"/>
<path d="M604.036 347.507C601.76 347.394 592.77 364.467 595.957 368.11C597.208 369.589 599.029 368.224 600.167 367.085C601.191 366.061 610.068 347.849 604.036 347.507Z" fill="#C42128"/>
<path d="M131.208 339.54L131.115 339.308L131.021 339.345L130.979 339.439L129.728 342.285L129.628 342.51L129.853 342.613L129.957 342.385C129.853 342.613 129.853 342.613 129.853 342.613L129.853 342.613L129.855 342.614L129.859 342.616L129.879 342.625L129.954 342.659L130.243 342.79C130.493 342.904 130.852 343.067 131.288 343.264C132.162 343.659 133.346 344.193 134.592 344.748C137.076 345.855 139.819 347.056 140.798 347.402L140.798 347.402L140.811 347.406C141.844 347.71 143.153 347.555 144.154 347.187C144.656 347.003 145.103 346.756 145.406 346.466C145.708 346.179 145.911 345.802 145.786 345.387C145.746 345.253 145.649 345.135 145.548 345.036C145.442 344.932 145.304 344.823 145.144 344.711C144.824 344.487 144.393 344.234 143.898 343.967C142.906 343.432 141.627 342.82 140.391 342.231L140.346 342.209C139.122 341.625 137.946 341.064 137.121 340.613C136.701 340.384 136.386 340.19 136.204 340.043C136.186 340.029 136.17 340.015 136.156 340.003C136.619 339.711 137.417 339.125 138.032 338.573C138.374 338.267 138.685 337.95 138.841 337.689C138.912 337.57 138.994 337.394 138.947 337.217C138.889 336.994 138.683 336.919 138.519 336.901C138.346 336.882 138.1 336.918 137.832 336.975C137.554 337.034 137.218 337.125 136.85 337.235C136.112 337.456 135.229 337.76 134.381 338.067C133.532 338.373 132.716 338.684 132.112 338.917C131.81 339.034 131.561 339.131 131.388 339.2C131.301 339.234 131.233 339.261 131.187 339.279L131.134 339.3L131.12 339.306L131.117 339.307L131.116 339.307L131.116 339.308L131.208 339.54Z" fill="white" stroke="black" stroke-width="0.5"/>
<path d="M89.7863 308.352C89.7863 308.352 91.3795 307.1 92.9726 308.352C94.5658 309.604 107.652 325.994 113.115 328.954C118.918 332.027 132.119 337.718 132.005 339.198C131.891 340.678 130.526 342.613 130.071 342.841C129.729 342.954 118.463 339.653 107.994 333.393C100.597 328.954 93.883 322.352 90.6967 317.571C89.3311 315.523 88.1931 308.465 89.7863 308.352Z" fill="#C42128"/>
<path d="M74.196 339.084C74.196 339.084 66.7992 340.792 62.0197 337.377C57.6954 334.19 57.923 328.043 59.4024 325.539C60.8818 323.035 62.8163 321.1 63.6129 318.596C64.2957 316.206 61.5645 312.449 64.2957 308.01C67.0268 303.571 72.8305 301.75 74.6512 298.676C76.472 295.603 73.5133 284.221 83.755 283.765C93.883 283.31 98.2073 290.481 98.0935 291.961C97.4107 297.994 92.9726 297.766 88.1931 297.652C83.2998 297.538 82.9584 300.839 82.9584 301.75C82.9584 302.66 83.755 307.1 81.8205 308.693C79.6583 310.173 74.196 339.084 74.196 339.084Z" fill="#26225B"/>
<path d="M80.3412 476.471C80.3412 476.471 78.8618 480.569 79.7722 481.252C80.6826 481.821 92.2899 491.268 94.3383 489.219C96.3866 487.17 86.9414 476.926 86.2586 476.585C85.5759 476.016 80.3412 476.471 80.3412 476.471Z" fill="#26225B"/>
<path d="M93.3142 474.536C93.3142 474.536 91.8349 480 93.3142 480.113C94.7936 480.227 110.725 483.528 110.725 481.252C110.725 478.975 95.0212 473.853 93.7694 474.65H93.3142V474.536Z" fill="#26225B"/>
<path d="M93.596 475.148L93.5932 475.145C93.5711 475.126 93.5274 475.07 93.4698 474.949C93.4148 474.834 93.3563 474.679 93.295 474.484C93.1726 474.093 93.046 473.562 92.9165 472.904C92.6576 471.591 92.3918 469.799 92.1253 467.679C91.5925 463.44 91.0594 457.909 90.5758 452.319C89.9465 445.043 89.4005 437.657 89.0492 432.904C88.8612 430.361 88.7289 428.572 88.6695 427.958L88.6694 427.957C88.629 427.552 88.6523 426.411 88.7289 424.694C88.805 422.987 88.9325 420.735 89.0951 418.126C89.4204 412.91 89.8862 406.273 90.3627 399.743C90.8392 393.212 91.3264 386.789 91.6944 381.998C91.8785 379.602 92.0327 377.615 92.1409 376.226C92.1951 375.532 92.2377 374.987 92.2668 374.617L92.2906 374.313C92.3492 374.321 92.417 374.33 92.4932 374.341C92.7898 374.383 93.2143 374.443 93.7259 374.518C94.7493 374.667 96.1205 374.873 97.5126 375.101C98.9055 375.328 100.316 375.576 101.42 375.81C101.972 375.927 102.444 376.039 102.795 376.142C102.972 376.194 103.113 376.242 103.218 376.285C103.271 376.307 103.311 376.326 103.34 376.343C103.343 376.345 103.346 376.346 103.349 376.348C103.352 376.36 103.355 376.375 103.358 376.393C103.37 376.466 103.382 376.572 103.393 376.712C103.415 376.992 103.431 377.388 103.442 377.89C103.462 378.893 103.458 380.303 103.432 382.012C103.38 385.429 103.242 390.033 103.036 394.948C102.623 404.781 101.941 415.837 101.146 421.115L101.146 421.115C100.347 426.483 99.8063 439.733 99.3799 451.776C99.3111 453.717 99.2454 455.627 99.182 457.468C99.0485 461.344 98.9255 464.917 98.8074 467.833C98.7202 469.984 98.6359 471.776 98.5521 473.068C98.5101 473.714 98.4685 474.233 98.4271 474.608C98.4063 474.796 98.386 474.944 98.3663 475.053C98.3468 475.161 98.332 475.205 98.3295 475.212C98.3292 475.213 98.329 475.213 98.3291 475.213C98.1988 475.452 97.9348 475.649 97.5526 475.786C97.1731 475.921 96.7027 475.986 96.205 475.979C95.1987 475.965 94.1591 475.66 93.596 475.148ZM103.34 376.315C103.339 376.313 103.339 376.312 103.339 376.312C103.339 376.312 103.34 376.313 103.34 376.315Z" fill="white" stroke="black" stroke-width="0.5"/>
<path d="M73.9026 374.4C73.964 374.346 74.0135 374.306 74.0483 374.279L74.2287 374.281C74.4003 374.283 74.652 374.286 74.9722 374.29C75.6128 374.298 76.5278 374.31 77.6254 374.327C79.8208 374.36 82.7465 374.414 85.6684 374.492C88.591 374.57 91.5071 374.673 93.6843 374.806C94.7739 374.873 95.6733 374.947 96.2945 375.028C96.6069 375.069 96.839 375.111 96.9872 375.151C97.0093 375.157 97.0282 375.163 97.0442 375.168C97.0139 376.152 96.7081 382.187 96.2222 389.193C95.71 396.579 94.9994 405.018 94.2052 409.728C93.4114 414.435 92.4479 417.667 91.4681 420.749C91.3594 421.091 91.2504 421.431 91.1414 421.772C90.2678 424.5 89.3928 427.233 88.6312 430.888C88.171 432.961 87.8434 436.823 87.5983 441.442C87.3527 446.07 87.189 451.48 87.061 456.659C87.004 458.968 86.954 461.23 86.907 463.357C86.8485 466.004 86.7946 468.443 86.7374 470.502C86.6859 472.359 86.6317 473.903 86.5693 475.011C86.538 475.565 86.5048 476.007 86.4694 476.322C86.4516 476.48 86.4337 476.601 86.4161 476.688C86.4074 476.731 86.3995 476.761 86.3933 476.78C86.3918 476.785 86.3906 476.788 86.3897 476.791L86.3877 476.794C86.3579 476.841 86.2741 476.914 86.093 476.99C85.9192 477.063 85.6874 477.126 85.4082 477.176C84.8509 477.278 84.1387 477.324 83.4015 477.317C82.6654 477.31 81.914 477.25 81.28 477.144C80.6561 477.04 80.1847 476.896 79.9416 476.739C79.9362 476.728 79.9288 476.709 79.9202 476.683C79.8981 476.614 79.8749 476.513 79.8523 476.376C79.8072 476.103 79.7688 475.717 79.7371 475.227C79.6737 474.248 79.6387 472.88 79.6253 471.228C79.5987 467.925 79.6591 463.507 79.7515 458.847C79.823 455.245 79.9137 451.498 79.998 448.014C80.1317 442.489 80.2495 437.623 80.2495 435.039C80.2495 431.033 79.4501 414.391 72.8425 392.056C70.747 384.861 71.0962 380.39 71.9446 377.733C72.3689 376.404 72.9194 375.524 73.3574 374.98C73.5767 374.708 73.7682 374.52 73.9026 374.4ZM86.3879 476.795C86.3878 476.795 86.3879 476.795 86.3883 476.794L86.3879 476.795Z" fill="white" stroke="black" stroke-width="0.5"/>
<path d="M82.3897 308.352C82.3897 308.352 69.0754 314.157 71.0099 322.694C76.586 346.824 62.1338 362.874 72.7169 379.72C75.7894 384.728 102.532 383.248 103.67 381.427C106.856 376.305 98.3213 357.865 97.9799 348.418C97.5247 332.255 105.377 332.938 98.5489 318.482C94.7936 310.514 94.1108 308.921 92.29 308.01C90.4693 307.213 82.3897 308.352 82.3897 308.352Z" fill="#C42128"/>
<path d="M124.949 358.662L124.805 358.458L124.723 358.516L124.704 358.615L124.021 362.143L123.972 362.399L124.229 362.438L124.267 362.191C124.229 362.438 124.229 362.438 124.229 362.438L124.229 362.438L124.231 362.438L124.236 362.439L124.257 362.442L124.338 362.455L124.649 362.502C124.917 362.543 125.303 362.602 125.773 362.673C126.711 362.815 127.985 363.007 129.322 363.206C131.994 363.604 134.93 364.032 135.96 364.147L135.96 364.147L135.974 364.148C137.067 364.208 138.314 363.757 139.212 363.168C139.662 362.873 140.043 362.531 140.277 362.18C140.507 361.833 140.625 361.42 140.417 361.045C140.349 360.922 140.227 360.829 140.107 360.756C139.98 360.678 139.821 360.604 139.64 360.531C139.278 360.386 138.801 360.238 138.256 360.091C137.166 359.795 135.776 359.492 134.433 359.2C134.38 359.189 134.328 359.177 134.275 359.166C132.985 358.886 131.753 358.619 130.87 358.38C130.408 358.255 130.057 358.142 129.847 358.044C129.828 358.035 129.81 358.026 129.795 358.018C130.132 357.614 130.811 356.798 131.34 356.062C131.632 355.657 131.892 355.256 132.02 354.956C132.052 354.879 132.079 354.802 132.095 354.728C132.11 354.657 132.12 354.569 132.098 354.482C132.074 354.384 132.012 354.292 131.906 354.24C131.813 354.194 131.714 354.192 131.632 354.203C131.47 354.223 131.243 354.32 131.002 354.441C130.748 354.568 130.441 354.741 130.102 354.942C129.425 355.345 128.61 355.871 127.827 356.391C127.043 356.911 126.287 357.428 125.728 357.815C125.449 358.008 125.218 358.169 125.057 358.281C124.977 358.337 124.914 358.382 124.871 358.412L124.822 358.446L124.81 358.455L124.806 358.457L124.805 358.458L124.805 358.458L124.949 358.662Z" fill="white" stroke="black" stroke-width="0.5"/>
<path d="M125.291 358.093C125.974 359.459 125.291 362.077 124.267 362.532C123.243 362.988 100.256 352.971 92.4037 346.597C84.5516 340.223 72.0339 326.108 72.4891 320.986C72.9443 315.523 75.903 313.018 79.5446 314.384C83.4137 315.75 91.6071 336.239 102.19 342.385C112.773 348.532 121.763 356.272 125.291 358.093Z" fill="#C42128"/>
<path d="M80.6824 308.01C80.6824 308.01 79.203 309.831 79.3168 310.401C80.1134 313.018 87.7378 316.661 89.7862 315.978C91.2655 315.523 91.6069 309.604 91.4931 309.604C91.3793 309.604 90.5827 308.01 90.1275 307.783C89.6724 307.555 81.9341 306.53 80.6824 308.01Z" fill="#C42128"/>
<path d="M95.7839 292.372L95.5108 292.036L95.3563 292.441C94.2162 295.428 91.2647 296.179 88.2092 296.868C88.1289 296.886 88.0485 296.904 87.968 296.922C86.5418 297.242 85.1084 297.564 83.9129 298.13C82.6384 298.734 81.61 299.625 81.1276 301.103L81.08 301.249L81.1884 301.357L81.9087 302.078L81.6843 309.482L81.6812 309.585L81.7514 309.66L81.9342 309.49C81.7514 309.66 81.7515 309.66 81.7515 309.66L81.7516 309.661L81.752 309.661L81.7531 309.662L81.757 309.666L81.7717 309.682C81.7844 309.695 81.8031 309.715 81.8274 309.739C81.8759 309.789 81.9469 309.861 82.0375 309.949C82.2187 310.124 82.4792 310.367 82.7975 310.634C83.4315 311.168 84.3061 311.811 85.2479 312.223L85.2479 312.223L85.2553 312.226C87.0016 312.925 88.0818 312.803 88.7403 312.441C89.066 312.262 89.272 312.032 89.3968 311.845C89.4591 311.751 89.5013 311.668 89.5286 311.607C89.5422 311.576 89.5521 311.55 89.5589 311.531C89.5599 311.529 89.5608 311.526 89.5617 311.524C89.5638 311.517 89.5656 311.512 89.567 311.508L89.5694 311.5L89.5703 311.497L89.5706 311.496L89.5708 311.496C89.5708 311.496 89.5709 311.495 89.331 311.425L89.5709 311.495L89.5774 311.473L89.5798 311.45L90.1248 306.108C90.2171 306.109 90.3325 306.108 90.4661 306.101C90.8208 306.082 91.308 306.023 91.8375 305.859C92.901 305.529 94.1379 304.774 94.7981 303.094C95.374 301.654 96.005 299.473 96.3067 297.418C96.4575 296.391 96.5274 295.386 96.4633 294.516C96.3998 293.654 96.2022 292.887 95.7839 292.372Z" fill="white" stroke="black" stroke-width="0.5"/>
<path d="M343.782 267.375L343.871 267.608L343.871 267.608L343.872 267.608L343.878 267.605L343.902 267.596L343.997 267.561C344.08 267.53 344.202 267.485 344.358 267.429C344.67 267.316 345.117 267.158 345.657 266.977C346.738 266.613 348.19 266.157 349.675 265.782C351.163 265.406 352.672 265.116 353.871 265.079C354.472 265.061 354.978 265.107 355.36 265.227C355.74 265.347 355.967 265.53 356.07 265.767L356.07 265.767L356.072 265.771C356.166 265.979 356.139 266.263 355.928 266.647C355.718 267.029 355.353 267.463 354.864 267.93C353.889 268.864 352.475 269.885 351.014 270.836C349.555 271.785 348.059 272.657 346.927 273.292C346.362 273.61 345.887 273.868 345.555 274.047C345.388 274.136 345.258 274.205 345.168 274.252L345.067 274.306L345.041 274.319L345.034 274.323L345.033 274.323L345.032 274.324C345.032 274.324 345.032 274.324 345.147 274.546L345.032 274.324L345.025 274.327L341.318 276.399C341.238 276.321 341.126 276.211 340.991 276.079C340.715 275.806 340.347 275.437 339.979 275.055C339.61 274.672 339.245 274.279 338.973 273.955C338.837 273.792 338.728 273.651 338.654 273.541C338.618 273.486 338.593 273.443 338.579 273.413C338.574 273.403 338.571 273.395 338.569 273.391V273.383L338.568 273.377C338.569 273.374 338.569 273.371 338.57 273.367C338.574 273.343 338.582 273.308 338.595 273.259C338.622 273.163 338.667 273.031 338.728 272.866C338.849 272.538 339.031 272.096 339.256 271.577C339.706 270.541 340.323 269.21 340.962 267.897C341.602 266.582 342.261 265.289 342.795 264.325C343.062 263.842 343.296 263.447 343.478 263.174C343.545 263.074 343.603 262.994 343.651 262.934C343.681 263.033 343.707 263.178 343.725 263.365C343.766 263.794 343.759 264.377 343.731 264.972C343.703 265.565 343.653 266.158 343.611 266.604C343.59 266.827 343.57 267.012 343.556 267.142C343.549 267.207 343.543 267.258 343.539 267.293L343.535 267.332L343.534 267.342L343.533 267.344L343.533 267.345L343.533 267.345L343.782 267.375ZM343.782 267.375L343.87 267.608L343.485 267.755L343.533 267.345L343.782 267.375ZM343.752 262.824C343.757 262.82 343.757 262.821 343.752 262.824L343.752 262.824ZM343.605 262.824C343.602 262.822 343.6 262.82 343.6 262.819C343.6 262.819 343.602 262.82 343.605 262.824Z" fill="white" stroke="black" stroke-width="0.5"/>
<path d="M289.159 263.391C293.825 265.553 316.812 290.14 317.267 290.709C317.722 291.392 337.296 272.497 338.32 272.497C339.344 272.497 341.961 276.139 341.961 276.594C341.961 277.05 317.722 299.132 316.926 299.132C315.446 299.018 295.987 282.513 295.759 281.944C295.418 281.375 286.883 262.366 289.159 263.391Z" fill="#C42128"/>
<path d="M271.407 436.518C271.407 436.518 259.117 444.714 260.368 446.421C262.986 449.722 275.39 441.868 275.731 440.616C276.072 439.364 276.414 436.86 275.39 436.518C274.252 436.291 272.089 435.266 271.407 436.518Z" fill="#C42128"/>
<path d="M305.318 437.201C304.408 438.112 304.294 442.893 305.318 443.12C306.343 443.348 318.746 449.836 320.112 447.104C321.478 444.372 309.984 436.974 309.188 437.201C308.277 437.429 305.318 437.201 305.318 437.201Z" fill="#C42128"/>
<path d="M279.031 341.475C278.781 341.467 278.781 341.468 278.781 341.468L278.781 341.472L278.781 341.485L278.779 341.537L278.773 341.742L278.749 342.544C278.728 343.246 278.697 344.276 278.657 345.587C278.578 348.208 278.464 351.955 278.324 356.453C278.045 365.448 277.665 377.449 277.259 389.472C276.854 401.494 276.424 413.538 276.045 422.618C275.856 427.158 275.679 430.956 275.525 433.64C275.448 434.983 275.377 436.044 275.313 436.78C275.281 437.148 275.25 437.431 275.223 437.626C275.209 437.724 275.196 437.794 275.185 437.839C275.185 437.841 275.185 437.842 275.184 437.844C274.83 438.125 274.22 438.356 273.463 438.462C272.689 438.571 271.791 438.545 270.92 438.33C270.914 438.323 270.899 438.308 270.879 438.278C270.835 438.214 270.784 438.113 270.726 437.969C270.61 437.683 270.484 437.265 270.351 436.725C270.084 435.648 269.794 434.121 269.493 432.274C268.891 428.58 268.248 423.626 267.658 418.477C266.477 408.173 265.512 397.118 265.512 393.834C265.512 390.529 265.056 372.71 264.601 355.725C264.374 347.23 264.146 338.942 263.975 332.778C263.89 329.696 263.819 327.144 263.769 325.364L263.711 323.3L263.696 322.758L263.695 322.708C263.7 322.706 263.707 322.703 263.713 322.7C263.785 322.669 263.888 322.635 264.024 322.598C264.295 322.524 264.675 322.446 265.151 322.365C266.102 322.204 267.418 322.037 268.983 321.871C272.111 321.541 276.218 321.221 280.354 320.98C284.491 320.738 288.654 320.575 291.895 320.557C293.516 320.548 294.902 320.575 295.937 320.647C296.455 320.683 296.88 320.73 297.2 320.787C297.36 320.816 297.49 320.847 297.589 320.879C297.669 320.904 297.72 320.927 297.75 320.945C297.757 320.957 297.766 320.977 297.778 321.005C297.805 321.07 297.836 321.164 297.872 321.29C297.942 321.542 298.024 321.899 298.116 322.358C298.299 323.275 298.519 324.581 298.769 326.222C299.27 329.503 299.891 334.112 300.586 339.608C301.976 350.599 303.662 365.129 305.269 379.648C306.876 394.167 308.405 408.675 309.483 419.624C310.022 425.099 310.447 429.682 310.713 432.933C310.846 434.558 310.939 435.848 310.987 436.748C311.01 437.199 311.022 437.549 311.023 437.793C311.023 437.916 311.02 438.007 311.014 438.069C311.013 438.087 311.011 438.1 311.01 438.111C310.853 438.31 310.521 438.493 310.033 438.631C309.536 438.771 308.924 438.851 308.297 438.872C307.672 438.893 307.041 438.855 306.509 438.764C305.983 438.674 305.589 438.538 305.379 438.385C305.373 438.376 305.366 438.362 305.356 438.342C305.331 438.29 305.3 438.214 305.262 438.112C305.185 437.907 305.089 437.614 304.974 437.235C304.744 436.48 304.443 435.398 304.079 434.037C303.354 431.314 302.384 427.479 301.256 422.904C299 413.755 296.109 401.652 293.257 389.579C290.405 377.507 287.593 365.467 285.493 356.445C284.443 351.934 283.571 348.177 282.962 345.548C282.657 344.234 282.418 343.201 282.255 342.497L282.07 341.694L282.022 341.488L282.01 341.436L282.007 341.423L282.006 341.419C282.006 341.419 282.006 341.418 281.762 341.475L282.006 341.418L281.961 341.225H281.762H279.031H278.788L278.781 341.467L279.031 341.475ZM275.175 437.875C275.173 437.88 275.173 437.879 275.176 437.873C275.176 437.874 275.175 437.875 275.175 437.875Z" fill="white" stroke="black" stroke-width="0.5"/>
<path d="M221.222 270.562L221.47 270.532L221.47 270.532L221.47 270.531L221.47 270.529L221.469 270.519L221.464 270.48C221.46 270.445 221.455 270.394 221.447 270.329C221.433 270.2 221.414 270.014 221.393 269.791C221.35 269.345 221.301 268.752 221.273 268.16C221.244 267.565 221.238 266.982 221.279 266.552C221.297 266.365 221.322 266.22 221.353 266.121C221.401 266.181 221.459 266.261 221.526 266.361C221.708 266.634 221.941 267.029 222.209 267.512C222.743 268.476 223.402 269.77 224.041 271.084C224.68 272.398 225.297 273.728 225.747 274.764C225.972 275.283 226.154 275.725 226.276 276.053C226.337 276.218 226.381 276.35 226.408 276.447C226.421 276.493 226.429 276.527 226.433 276.55C226.429 276.558 226.424 276.567 226.417 276.579C226.396 276.616 226.364 276.662 226.323 276.72C226.239 276.834 226.124 276.977 225.984 277.14C225.705 277.466 225.342 277.861 224.98 278.244C224.619 278.627 224.261 278.995 223.993 279.269C223.866 279.399 223.759 279.507 223.682 279.585L219.978 277.514L219.978 277.514L219.972 277.511L219.856 277.733C219.972 277.511 219.972 277.511 219.971 277.511L219.971 277.511L219.969 277.51L219.963 277.506L219.937 277.493L219.835 277.439C219.746 277.392 219.615 277.323 219.449 277.234C219.116 277.055 218.642 276.797 218.076 276.48C216.945 275.844 215.449 274.972 213.99 274.023C212.528 273.072 211.115 272.051 210.14 271.117C209.651 270.65 209.285 270.216 209.076 269.835C208.865 269.45 208.837 269.166 208.932 268.958L208.932 268.958L208.934 268.954C209.037 268.717 209.264 268.534 209.644 268.415C210.026 268.294 210.532 268.248 211.133 268.267C212.332 268.303 213.84 268.593 215.329 268.969C216.814 269.344 218.265 269.8 219.347 270.164C219.887 270.345 220.334 270.504 220.646 270.616C220.802 270.672 220.924 270.717 221.007 270.748L221.101 270.783L221.125 270.792L221.131 270.795L221.133 270.795L221.133 270.795L221.222 270.562ZM221.222 270.562L221.47 270.532L221.519 270.942L221.133 270.795L221.222 270.562ZM221.403 266.006C221.404 266.007 221.402 266.009 221.399 266.011C221.402 266.007 221.403 266.006 221.403 266.006ZM221.252 266.011C221.247 266.008 221.247 266.007 221.252 266.011L221.252 266.011Z" fill="white" stroke="black" stroke-width="0.5"/>
<path d="M279.373 264.074C274.707 266.236 248.42 293.441 247.965 294.123C247.509 294.806 227.936 275.912 226.912 275.912C225.888 275.912 223.271 279.554 223.271 280.009C223.271 280.465 247.509 302.547 248.306 302.547C249.785 302.433 267.538 286.839 267.879 286.27C268.22 285.7 259.686 323.376 262.644 323.832C265.603 324.287 298.946 323.946 299.742 322.58C300.425 321.1 297.239 285.7 297.239 285.7C297.239 285.7 294.735 265.895 289.159 263.618C287.452 262.708 281.535 263.049 279.373 264.074Z" fill="#C42128"/>
<path d="M276.916 255.687L276.916 255.687L276.911 255.683C276.117 255.048 275.611 254.04 275.308 252.85C275.006 251.663 274.914 250.321 274.928 249.052C274.942 247.784 275.062 246.6 275.178 245.731C275.237 245.297 275.294 244.943 275.337 244.698C275.35 244.621 275.362 244.555 275.372 244.5L275.435 244.495L275.476 244.491L275.487 244.49L275.498 244.489L275.51 244.488L275.521 244.487L275.533 244.486L275.545 244.485L275.557 244.484L275.569 244.483L275.581 244.482L275.594 244.48L275.606 244.479L275.619 244.478L275.673 244.473L275.729 244.468L275.743 244.467L275.758 244.466L275.772 244.464L275.787 244.463L275.818 244.46L275.833 244.459L275.849 244.457L275.913 244.452L275.929 244.45L275.945 244.449L275.962 244.447L275.979 244.446L275.996 244.444L276.013 244.443L276.03 244.441L276.048 244.44L276.065 244.438L276.083 244.436L276.101 244.435L276.119 244.433L276.767 244.375L277.137 244.342L277.185 244.337L277.234 244.333L277.332 244.324L277.357 244.322L277.382 244.32L277.432 244.315L277.533 244.306L277.584 244.301L277.61 244.299L277.636 244.297L277.688 244.292L277.714 244.29L277.74 244.287L277.792 244.283L277.845 244.278L277.898 244.273L277.925 244.271L277.952 244.268L278.005 244.264L278.032 244.261L278.059 244.259L278.086 244.256L278.114 244.254L278.141 244.251L278.168 244.249L278.223 244.244L278.278 244.239L278.306 244.237L278.333 244.234L278.361 244.232L278.389 244.229L278.444 244.224L278.472 244.222L278.5 244.219L278.557 244.214L278.585 244.211L278.613 244.209L278.726 244.199L278.755 244.196L278.783 244.194L278.812 244.191L278.841 244.188L278.869 244.186L278.898 244.183L278.927 244.181L278.955 244.178L278.984 244.176L279.013 244.173L279.071 244.168L279.1 244.165L279.129 244.163L279.158 244.16L279.187 244.157L279.304 244.147L279.333 244.144L279.362 244.142L279.391 244.139L279.421 244.136L279.538 244.126L279.568 244.123L279.597 244.12L279.656 244.115L279.774 244.105L279.833 244.099L279.863 244.097L279.892 244.094L279.922 244.091L279.952 244.089L279.981 244.086L280.011 244.083L280.041 244.081L280.07 244.078L280.1 244.075L280.129 244.073L280.159 244.07L280.189 244.067L280.218 244.065L280.248 244.062L280.278 244.059L280.307 244.057L280.337 244.054L280.367 244.051L280.396 244.049L280.426 244.046L280.456 244.043L280.485 244.041L280.515 244.038L280.545 244.035L280.574 244.033L280.604 244.03L280.634 244.027L280.663 244.025L280.693 244.022L280.722 244.019L281.193 243.977L281.222 243.974L281.251 243.972L281.28 243.969L281.309 243.966L281.367 243.961L281.396 243.959L281.425 243.956L281.454 243.953L281.483 243.951L281.512 243.948L281.541 243.946L281.656 243.935L281.684 243.933L281.713 243.93L281.741 243.928L281.77 243.925L281.798 243.923L281.827 243.92L281.855 243.917L281.883 243.915L281.911 243.912L281.94 243.91L281.968 243.907L281.996 243.905L282.024 243.902L282.052 243.9L282.08 243.897L282.108 243.895L282.135 243.892L282.163 243.89L282.191 243.887L282.218 243.885L282.328 243.875L282.355 243.872L282.383 243.87L282.41 243.868L282.437 243.865L282.464 243.863L282.491 243.86L282.518 243.858L282.545 243.855L282.571 243.853L282.598 243.851L282.625 243.848L282.651 243.846L282.678 243.843L282.704 243.841L282.73 243.839L282.756 243.836L282.783 243.834L282.809 243.832L282.835 243.829L282.86 243.827L282.886 243.825L282.912 243.822L282.938 243.82L282.963 243.818L283.73 243.749L284.877 243.646L285.179 243.619C285.201 243.647 285.227 243.68 285.256 243.718C285.347 243.837 285.472 244.002 285.618 244.196C285.911 244.585 286.291 245.094 286.668 245.599C287.045 246.104 287.418 246.605 287.698 246.98L288.034 247.433L288.11 247.535L288.108 247.603C288.105 247.705 288.101 247.854 288.094 248.045C288.081 248.428 288.06 248.978 288.029 249.649C287.967 250.992 287.864 252.817 287.701 254.747C287.537 256.679 287.314 258.713 287.012 260.474C286.707 262.247 286.329 263.708 285.869 264.52L285.869 264.52L285.866 264.524C285.276 265.62 284.755 266.207 284.306 266.48C283.878 266.741 283.503 266.725 283.145 266.563C282.767 266.393 282.405 266.06 282.045 265.673C281.929 265.549 281.812 265.417 281.695 265.285C281.491 265.056 281.287 264.827 281.095 264.642L280.646 257.116L280.626 256.774L280.308 256.896C280.309 256.896 280.309 256.896 280.308 256.897L280.308 256.897L280.301 256.899C280.294 256.901 280.282 256.905 280.264 256.91C280.228 256.919 280.172 256.933 280.096 256.943C279.944 256.965 279.715 256.979 279.42 256.94C278.831 256.861 277.964 256.57 276.916 255.687Z" fill="white" stroke="black" stroke-width="0.5"/>
<path d="M273.455 243.699C272.772 244.724 271.975 247.341 273.796 248.48C275.503 249.618 282.9 248.594 283.241 249.276C283.469 250.073 282.786 252.008 283.469 252.805C284.038 253.374 286.314 250.984 287.111 251.325C288.362 251.894 287.566 258.041 287.566 258.041C287.566 258.041 289.386 258.952 289.955 254.057C290.524 248.48 290.524 240.512 282.786 240.512C277.438 240.398 274.707 241.992 273.455 243.699Z" fill="#26225B"/>
<path d="M279.6 264.074C279.486 264.757 282.331 267.83 283.242 267.716C284.152 267.602 282.217 262.025 280.738 262.025C280.169 262.025 279.714 263.391 279.6 264.074Z" fill="#C42128"/>
<path d="M287.338 261.911C287.68 262.025 288.476 263.163 288.476 263.505C288.476 264.415 284.038 268.399 283.469 267.602C282.9 266.578 286.2 261.342 287.338 261.911Z" fill="#C42128"/>
<path d="M286.997 277.847C286.542 278.302 286.997 283.082 286.997 283.31C286.997 283.538 289.159 286.042 289.842 286.156C290.639 286.27 291.777 283.879 291.891 283.424C292.004 283.082 291.891 277.96 291.435 277.847C291.208 277.733 287.452 277.391 286.997 277.847Z" fill="#C42128"/>
</g>
<defs>
<clipPath id="clip0">
<rect width="739" height="494" fill="white"/>
</clipPath>
</defs>
</svg>
