<svg width="232" height="232" viewBox="0 0 232 232" fill="none" xmlns="http://www.w3.org/2000/svg">
<path d="M115.971 231.472C180.019 231.472 231.941 179.655 231.941 115.736C231.941 51.8167 180.019 0 115.971 0C51.9218 0 0 51.8167 0 115.736C0 179.655 51.9218 231.472 115.971 231.472Z" fill="#756FBF"/>
<path d="M115.971 231.472C180.019 231.472 231.941 179.655 231.941 115.736C231.941 83.734 218.926 54.7659 197.891 33.8153L115.971 115.736L34.0501 197.656C55.0301 218.552 83.9885 231.472 115.971 231.472Z" fill="#26225B"/>
<path d="M124.384 175.395H56.4849C54.7197 175.395 53.3076 173.985 53.3076 172.224V100.997L88.846 62.0663L124.384 100.997V175.395Z" fill="#C42128"/>
<path d="M124.384 101.819L54.1902 174.396C54.7786 174.984 55.6023 175.395 56.4849 175.395H124.384V101.819Z" fill="#C42128"/>
<path d="M180.575 172.224C180.575 173.985 179.163 175.395 177.398 175.395H124.326V99.4118H180.516V172.224H180.575Z" fill="#941116"/>
<path d="M189.107 99.6466C189.577 100.234 189.695 101.115 189.342 101.819C188.989 102.524 188.283 102.994 187.518 102.994H129.798L97.8483 63.9453H157.452C159.276 63.9453 160.982 64.7674 162.159 66.1766L189.107 99.6466Z" fill="#F2EEFF"/>
<path d="M162.159 66.1179C161.629 65.472 161.041 65.0023 160.335 64.5912L126.797 99.2356L129.798 102.876H187.518C188.283 102.876 188.989 102.406 189.342 101.702C189.695 100.997 189.577 100.175 189.107 99.5292L162.159 66.1179Z" fill="#F2EEFF"/>
<path d="M130.092 107.75C129.739 108.102 129.209 108.337 128.68 108.337C128.15 108.337 127.621 108.102 127.268 107.75L90.2582 70.8155C89.9051 70.4632 89.3756 70.2283 88.8461 70.2283C88.3165 70.2283 87.8458 70.4632 87.4339 70.8155L50.4245 107.75C49.6008 108.572 48.3652 108.572 47.5415 107.75L43.0109 103.229C42.6579 102.876 42.4225 102.348 42.4225 101.819C42.4225 101.291 42.6579 100.762 43.0109 100.41L86.2572 57.2513C87.6693 55.8421 89.964 55.8421 91.3173 57.2513L134.564 100.41C135.387 101.232 135.387 102.465 134.564 103.287L130.092 107.75Z" fill="#F2EEFF"/>
<path d="M74.4599 174.895V131.796H103.173V174.895H74.4599Z" fill="white" stroke="black"/>
<path d="M75.8132 107.191V98.8246C75.8132 91.6443 81.6488 85.8192 88.8461 85.8192C96.0434 85.8192 101.879 91.6443 101.879 98.8246V107.191H75.8132Z" fill="white" stroke="#383838"/>
<path d="M75.3132 98.8246V99.4705H102.379V98.8246C102.379 98.4723 102.379 98.12 102.32 97.8264H75.3132C75.3132 98.12 75.3132 98.4723 75.3132 98.8246Z" fill="#383838"/>
<path d="M88.0223 85.3192V107.632H89.6698V85.3192C89.3756 85.3192 89.1403 85.2604 88.8461 85.2604C88.5519 85.2604 88.2577 85.3192 88.0223 85.3192Z" fill="#383838"/>
<path d="M139.418 134.496V126.129C139.418 118.949 145.253 113.124 152.45 113.124C159.648 113.124 165.483 118.949 165.483 126.129V134.496H139.418Z" fill="white" stroke="black"/>
<path d="M138.918 126.129V126.775H165.983V126.129C165.983 125.777 165.983 125.424 165.924 125.131H138.918C138.976 125.424 138.918 125.777 138.918 126.129Z" fill="black"/>
<path d="M151.627 112.624V134.937H153.274V112.624C152.98 112.624 152.745 112.565 152.45 112.565C152.215 112.624 151.921 112.624 151.627 112.624Z" fill="black"/>
<path d="M107.969 134.937C107.969 135.759 107.321 136.405 106.498 136.405H71.1945C70.3708 136.405 69.7236 135.759 69.7236 134.937V132.236C69.7236 131.414 70.3708 130.768 71.1945 130.768H106.498C107.321 130.768 107.969 131.414 107.969 132.236V134.937Z" fill="#383838"/>
<path d="M107.321 110.275C107.321 110.745 106.909 111.156 106.439 111.156H71.1945C70.7238 111.156 70.312 110.745 70.312 110.275V107.926C70.312 107.456 70.7238 107.045 71.1945 107.045H106.439C106.909 107.045 107.321 107.456 107.321 107.926V110.275Z" fill="#383838"/>
<path d="M170.985 137.579C170.985 138.049 170.573 138.46 170.102 138.46H134.858C134.387 138.46 133.975 138.049 133.975 137.579V135.231C133.975 134.761 134.387 134.35 134.858 134.35H170.102C170.573 134.35 170.985 134.761 170.985 135.231V137.579Z" fill="black"/>
<path d="M106.498 136.464C107.321 136.464 107.969 135.818 107.969 134.996V132.295C107.969 131.473 107.321 130.827 106.498 130.827H96.3774L90.9054 136.522H106.498V136.464Z" fill="#383838"/>
<path d="M127.209 107.75C127.621 108.161 128.091 108.337 128.621 108.337C129.15 108.337 129.68 108.102 130.033 107.75L134.564 103.229C135.387 102.406 135.387 101.173 134.564 100.351L130.092 95.8886L122.796 103.405L127.209 107.75Z" fill="#F2EEFF"/>
<path d="M115.92 231.656C179.969 231.656 231.891 179.84 231.891 115.92C231.891 83.9187 218.876 54.9506 197.841 34L115.92 115.92L34 197.841C54.9799 218.736 83.9383 231.656 115.92 231.656Z" fill="#26225B" fill-opacity="0.5"/>
</svg>
