<svg width="51" height="51" viewBox="0 0 51 51" fill="none" xmlns="http://www.w3.org/2000/svg">
<g clip-path="url(#clip0)">
<path d="M26.8889 31.9099C27.7737 31.8418 28.5804 31.3958 29.104 30.6843L37.0626 19.8117C37.3065 19.4782 37.27 19.0179 36.9742 18.7256C36.6784 18.4341 36.2126 18.398 35.8751 18.6383L24.871 26.5055C24.1536 27.0212 23.7022 27.8184 23.6334 28.6928C23.5645 29.5672 23.885 30.4231 24.5114 31.0422C25.0818 31.6066 25.851 31.9191 26.6509 31.9191C26.7299 31.9191 26.809 31.9158 26.8889 31.9099ZM25.3283 28.8238C25.358 28.4399 25.5569 28.0897 25.8697 27.8646L32.5822 23.0658L27.7278 29.6974C27.4983 30.009 27.1439 30.2047 26.7554 30.235C26.3687 30.2602 25.9887 30.1274 25.7125 29.8545C25.4388 29.5831 25.2977 29.2068 25.3283 28.8238Z" fill="url(#paint0_linear)"/>
<path d="M45.9289 16.4333C45.9204 16.4157 45.9204 16.3972 45.9111 16.3795C45.9009 16.3627 45.8847 16.3535 45.8737 16.3375C45.0143 14.881 43.9977 13.5261 42.8434 12.2981L44.6692 10.4947L45.8711 11.6824L49.4768 8.11837L45.8711 4.55519L42.2645 8.11837L43.4673 9.30693L41.6415 11.1104C40.3988 9.96968 39.0286 8.96422 37.5538 8.11501C37.5377 8.10409 37.5283 8.08813 37.5114 8.07805C37.4935 8.06797 37.4748 8.06881 37.457 8.05957C34.8279 6.56273 31.8741 5.56568 28.7249 5.20029V4.19988H29.9999C31.172 4.19988 32.1249 3.25827 32.1249 2.09994C32.1249 0.941613 31.1712 0 29.999 0H22.349C21.1769 0 20.224 0.941613 20.224 2.09994C20.224 3.25827 21.1769 4.19988 22.349 4.19988H23.624V5.17089C22.706 5.26749 21.7897 5.41533 20.8836 5.62028C20.4263 5.7236 20.1399 6.17466 20.2453 6.62657C20.3498 7.07848 20.8063 7.36239 21.2636 7.25739C22.0456 7.08016 22.8352 6.9466 23.6266 6.85672L24.5386 6.78701C24.8174 6.76601 25.0741 6.75089 25.324 6.73913V8.39976C25.324 8.86427 25.704 9.23974 26.174 9.23974C26.6441 9.23974 27.024 8.86427 27.024 8.39976V6.74501C30.2209 6.89032 33.2333 7.7387 35.9116 9.13474L35.0735 10.5686C34.8389 10.9709 34.9784 11.4842 35.3847 11.716C35.5181 11.7924 35.6643 11.8285 35.8088 11.8285C36.1029 11.8285 36.3885 11.6782 36.5457 11.4086L37.3813 9.97808C40.041 11.6454 42.3002 13.8781 43.9875 16.5064L42.54 17.3321C42.1345 17.5639 41.9951 18.0771 42.2305 18.4795C42.3886 18.7491 42.6734 18.8995 42.9675 18.8995C43.112 18.8995 43.2582 18.8633 43.3916 18.7869L44.8426 17.9587C46.2749 20.6432 47.1359 23.6688 47.2642 26.8784H45.5855C45.1155 26.8784 44.7355 27.2539 44.7355 27.7184C44.7355 28.1829 45.1155 28.5583 45.5855 28.5583H47.2642C47.1359 31.7679 46.2749 34.7935 44.8426 37.4781L43.3916 36.6498C42.9853 36.418 42.4651 36.5541 42.2305 36.9573C41.9959 37.3596 42.1353 37.8728 42.5416 38.1047L43.9892 38.9304C42.3019 41.5587 40.0426 43.7913 37.383 45.4587L36.5475 44.0282C36.312 43.625 35.7909 43.4881 35.3863 43.7208C34.9792 43.9526 34.8398 44.4667 35.0752 44.8682L35.9133 46.302C33.235 47.698 30.2226 48.5464 27.0257 48.6917V47.0387C27.0257 46.5742 26.6458 46.1987 26.1757 46.1987C25.7057 46.1987 25.3257 46.5742 25.3257 47.0387V48.6985C23.9683 48.6523 22.6066 48.4843 21.2661 48.1802C20.8088 48.0718 20.3524 48.3591 20.2478 48.811C20.1424 49.2629 20.4289 49.714 20.8862 49.8173C22.5828 50.2037 24.3159 50.3986 26.0355 50.3986C26.0771 50.3986 26.1171 50.396 26.1587 50.3952C26.1647 50.3952 26.1689 50.3986 26.174 50.3986C26.1808 50.3986 26.1868 50.3944 26.1936 50.3944C30.2795 50.3666 34.113 49.2764 37.4297 47.3931C37.4561 47.3814 37.4841 47.3755 37.5097 47.3604C37.5267 47.3503 37.536 47.3343 37.5522 47.3234C40.9853 45.3461 43.854 42.5145 45.8592 39.1244C45.8753 39.1017 45.8958 39.0841 45.9102 39.0589C45.9204 39.0412 45.9196 39.0228 45.9281 39.0051C47.8695 35.6788 48.9855 31.8267 48.9855 27.7192C48.9855 23.6117 47.8695 19.7596 45.9289 16.4333ZM45.8703 6.93064L47.0722 8.11837L45.8703 9.30693L44.6675 8.11837L45.8703 6.93064ZM25.324 5.0575V2.51993H22.349C22.1153 2.51993 21.924 2.33093 21.924 2.09994C21.924 1.86895 22.1153 1.67995 22.349 1.67995H29.999C30.2328 1.67995 30.424 1.86895 30.424 2.09994C30.424 2.33093 30.2328 2.51993 29.999 2.51993H27.024V5.0575C26.7282 5.04574 26.446 5.03986 26.174 5.03986C26.1502 5.03986 26.123 5.04154 26.0992 5.04154C26.078 5.04154 26.0567 5.03986 26.0355 5.03986C25.8961 5.03986 25.7567 5.0491 25.6173 5.05162C25.5187 5.05414 25.426 5.0533 25.324 5.0575Z" fill="url(#paint1_linear)"/>
<path d="M18.524 11.7596H14.274C13.804 11.7596 13.424 12.1351 13.424 12.5996C13.424 13.0641 13.804 13.4396 14.274 13.4396H18.524C18.9941 13.4396 19.374 13.0641 19.374 12.5996C19.374 12.1351 18.9941 11.7596 18.524 11.7596Z" fill="url(#paint2_linear)"/>
<path d="M18.524 17.6395H10.024C9.554 17.6395 9.17405 18.015 9.17405 18.4795C9.17405 18.944 9.554 19.3195 10.024 19.3195H18.524C18.9941 19.3195 19.3741 18.944 19.3741 18.4795C19.3741 18.015 18.9941 17.6395 18.524 17.6395Z" fill="url(#paint3_linear)"/>
<path d="M18.524 23.5193H5.77404C5.30399 23.5193 4.92404 23.8948 4.92404 24.3593C4.92404 24.8238 5.30399 25.1992 5.77404 25.1992H18.524C18.9941 25.1992 19.374 24.8238 19.374 24.3593C19.374 23.8948 18.9941 23.5193 18.524 23.5193Z" fill="url(#paint4_linear)"/>
<path d="M18.524 29.3992H2.37405C1.904 29.3992 1.52405 29.7746 1.52405 30.2391C1.52405 30.7037 1.904 31.0791 2.37405 31.0791H18.524C18.9941 31.0791 19.374 30.7037 19.374 30.2391C19.374 29.7746 18.9941 29.3992 18.524 29.3992Z" fill="url(#paint5_linear)"/>
<path d="M18.524 35.2791H7.47405C7.004 35.2791 6.62405 35.6545 6.62405 36.119C6.62405 36.5835 7.004 36.959 7.47405 36.959H18.524C18.9941 36.959 19.374 36.5835 19.374 36.119C19.374 35.6545 18.9941 35.2791 18.524 35.2791Z" fill="url(#paint6_linear)"/>
<path d="M18.524 41.1588H12.574C12.104 41.1588 11.724 41.5343 11.724 41.9988C11.724 42.4633 12.104 42.8388 12.574 42.8388H18.524C18.9941 42.8388 19.374 42.4633 19.374 41.9988C19.374 41.5343 18.9941 41.1588 18.524 41.1588Z" fill="url(#paint7_linear)"/>
</g>
<defs>
<linearGradient id="paint0_linear" x1="30.4238" y1="18.4799" x2="30.4238" y2="31.9191" gradientUnits="userSpaceOnUse">
<stop stop-color="#C42128"/>
<stop offset="1" stop-color="#26225B"/>
</linearGradient>
<linearGradient id="paint1_linear" x1="34.8501" y1="0" x2="34.8501" y2="50.3986" gradientUnits="userSpaceOnUse">
<stop stop-color="#C42128"/>
<stop offset="1" stop-color="#26225B"/>
</linearGradient>
<linearGradient id="paint2_linear" x1="16.399" y1="11.7596" x2="16.399" y2="13.4396" gradientUnits="userSpaceOnUse">
<stop stop-color="#C42128"/>
<stop offset="1" stop-color="#26225B"/>
</linearGradient>
<linearGradient id="paint3_linear" x1="14.274" y1="17.6395" x2="14.274" y2="19.3195" gradientUnits="userSpaceOnUse">
<stop stop-color="#C42128"/>
<stop offset="1" stop-color="#26225B"/>
</linearGradient>
<linearGradient id="paint4_linear" x1="12.149" y1="23.5193" x2="12.149" y2="25.1992" gradientUnits="userSpaceOnUse">
<stop stop-color="#C42128"/>
<stop offset="1" stop-color="#26225B"/>
</linearGradient>
<linearGradient id="paint5_linear" x1="10.449" y1="29.3992" x2="10.449" y2="31.0791" gradientUnits="userSpaceOnUse">
<stop stop-color="#C42128"/>
<stop offset="1" stop-color="#26225B"/>
</linearGradient>
<linearGradient id="paint6_linear" x1="12.999" y1="35.2791" x2="12.999" y2="36.959" gradientUnits="userSpaceOnUse">
<stop stop-color="#C42128"/>
<stop offset="1" stop-color="#26225B"/>
</linearGradient>
<linearGradient id="paint7_linear" x1="15.549" y1="41.1588" x2="15.549" y2="42.8388" gradientUnits="userSpaceOnUse">
<stop stop-color="#C42128"/>
<stop offset="1" stop-color="#26225B"/>
</linearGradient>
<clipPath id="clip0">
<rect width="51" height="50.3986" fill="white"/>
</clipPath>
</defs>
</svg>
