<svg width="179" height="13" viewBox="0 0 179 13" fill="none" xmlns="http://www.w3.org/2000/svg">
<path d="M9.89429 12.1649L9.0866 10.1255H3.99098L3.1714 12.1649H0L5.05999 0.658447H8.21951L13.1726 12.1649H9.89429ZM4.91745 7.83113H8.18388L6.56848 3.72914L4.91745 7.83113Z" fill="white"/>
<path d="M23.0194 1.37687C23.9696 1.86355 24.706 2.53563 25.2287 3.40469C25.7513 4.27376 26.0245 5.27028 26.0245 6.40586C26.0245 7.52985 25.7632 8.53797 25.2287 9.40703C24.6942 10.2877 23.9459 10.9598 22.9719 11.4464C21.9979 11.9331 20.8932 12.1649 19.6342 12.1649H14.6692V0.658447H19.753C20.9764 0.658447 22.0692 0.901785 23.0194 1.37687ZM21.404 9.32592C21.8672 9.04782 22.2236 8.66543 22.4849 8.15558C22.7462 7.65731 22.8769 7.07794 22.8769 6.42904C22.8769 5.76855 22.7343 5.18917 22.4611 4.69091C22.1879 4.19264 21.8078 3.79867 21.3208 3.52057C20.8339 3.24247 20.2875 3.10342 19.6698 3.10342H17.7337V9.73148H19.8242C20.4181 9.73148 20.9526 9.60402 21.404 9.32592Z" fill="white"/>
<path d="M26.6302 0.658447H29.9442L32.8899 8.97829L35.8475 0.658447H39.007L34.3984 12.1649H31.2032L26.6302 0.658447Z" fill="white"/>
<path d="M40.5393 0.658447H43.6157V12.1649H40.5393V0.658447Z" fill="white"/>
<path d="M52.4528 3.23094C51.7401 2.99919 51.1462 2.88331 50.6592 2.88331C50.2792 2.88331 49.9822 2.95284 49.7565 3.09189C49.5427 3.23094 49.4239 3.42793 49.4239 3.69444C49.4239 3.94937 49.519 4.15794 49.709 4.33176C49.8991 4.50557 50.1366 4.63303 50.4217 4.73732C50.7068 4.84161 51.1225 4.98066 51.6689 5.14288C52.4884 5.37463 53.1655 5.60638 53.7 5.83813C54.2345 6.06989 54.6859 6.41751 55.0659 6.8926C55.446 7.36769 55.6361 7.99342 55.6361 8.75819C55.6361 9.52297 55.4342 10.1835 55.0184 10.7165C54.6027 11.2611 54.0326 11.6667 53.308 11.9448C52.5835 12.2229 51.7758 12.3503 50.8968 12.3503C49.9228 12.3503 48.9488 12.1881 47.9748 11.8521C47.0009 11.516 46.1694 11.0641 45.4567 10.4847L46.6564 8.13247C47.2503 8.64232 47.9511 9.07106 48.7707 9.39551C49.5784 9.71996 50.3029 9.89377 50.9324 9.89377C51.3957 9.89377 51.752 9.81266 52.0133 9.65043C52.2746 9.48821 52.4053 9.24487 52.4053 8.932C52.4053 8.66549 52.3103 8.44533 52.1084 8.27152C51.9064 8.0977 51.6689 7.95865 51.3719 7.85436C51.075 7.75008 50.6592 7.62261 50.1129 7.48356C49.3052 7.2634 48.64 7.04324 48.1055 6.82307C47.5829 6.60291 47.1315 6.25529 46.7514 5.80337C46.3713 5.35146 46.1932 4.74891 46.1932 3.98413C46.1932 3.27729 46.3832 2.65156 46.7752 2.10695C47.1671 1.57392 47.7135 1.15677 48.4262 0.867084C49.1389 0.577396 49.9703 0.426758 50.9087 0.426758C51.7639 0.426758 52.6072 0.542633 53.4387 0.774384C54.2701 1.00613 54.9947 1.319 55.6242 1.71297L54.4602 4.11159C53.8306 3.76397 53.1655 3.46269 52.4528 3.23094Z" fill="white"/>
<path d="M57.6197 0.658447H66.932V3.05707H60.708V5.21235H66.3262V7.58779L60.708 7.59938V9.76625H67.0983V12.1649H57.6197V0.658447Z" fill="white"/>
<path d="M72.5502 0.670166H82.1595V2.62846H78.4892V12.165H76.2205V2.62846H72.5502V0.670166Z" fill="white"/>
<path d="M84.1787 0.670166H86.4355V5.58328H92.3151V0.670166H94.5719V12.165H92.3151V7.50681H86.4355V12.165H84.1787V0.670166Z" fill="white"/>
<path d="M97.8977 0.670166H106.533V2.5937H100.154V5.43264H105.88V7.35617H100.154V10.2415H106.735V12.165H97.8977V0.670166Z" fill="white"/>
<path d="M122.699 12.165L121.653 9.73162H115.893L114.847 12.165H112.507L117.674 0.670166H120.014L125.11 12.165H122.699ZM116.712 7.84285H120.858L118.803 3.01085L116.712 7.84285Z" fill="white"/>
<path d="M135.04 1.40018C135.966 1.88686 136.703 2.57052 137.225 3.43959C137.748 4.32024 138.021 5.30518 138.021 6.40599C138.021 7.50681 137.76 8.50334 137.225 9.3724C136.691 10.2415 135.954 10.9251 135.016 11.4118C134.078 11.8985 132.997 12.1534 131.797 12.1534H126.975V0.670166H131.868C133.056 0.670166 134.113 0.913504 135.04 1.40018ZM133.876 9.7432C134.458 9.41875 134.909 8.96684 135.23 8.39905C135.551 7.81967 135.717 7.17077 135.717 6.44076C135.717 5.71074 135.551 5.05025 135.218 4.45929C134.885 3.86832 134.422 3.41641 133.828 3.09196C133.234 2.76751 132.581 2.60528 131.857 2.60528H129.243V10.2183H131.94C132.641 10.2299 133.294 10.0677 133.876 9.7432Z" fill="white"/>
<path d="M138.829 0.670166H141.252L144.72 9.72003L148.224 0.670166H150.552L145.837 12.165H143.485L138.829 0.670166Z" fill="white"/>
<path d="M152.453 0.670166H154.71V12.165H152.453V0.670166Z" fill="white"/>
<path d="M165.091 2.89546C164.521 2.62895 163.951 2.50149 163.369 2.50149C162.644 2.50149 161.967 2.6753 161.361 3.01134C160.756 3.34738 160.28 3.82247 159.936 4.41343C159.591 5.00439 159.413 5.66488 159.413 6.37172C159.413 7.07856 159.591 7.73905 159.936 8.33001C160.28 8.92098 160.756 9.39607 161.361 9.74369C161.967 10.0913 162.632 10.2651 163.369 10.2651C163.927 10.2651 164.497 10.1493 165.055 9.90592C165.625 9.66258 166.124 9.32654 166.564 8.90939L167.894 10.3578C167.277 10.972 166.564 11.4586 165.744 11.8063C164.925 12.1655 164.093 12.3393 163.25 12.3393C162.121 12.3393 161.076 12.0728 160.138 11.5513C159.2 11.0299 158.451 10.3115 157.917 9.40765C157.382 8.50383 157.109 7.5073 157.109 6.40649C157.109 5.31726 157.382 4.32073 157.929 3.4169C158.475 2.52466 159.223 1.81782 160.174 1.29638C161.124 0.786533 162.169 0.52002 163.333 0.52002C164.176 0.52002 164.996 0.682245 165.804 1.01828C166.611 1.35432 167.3 1.80624 167.87 2.38561L166.552 3.99628C166.148 3.52119 165.661 3.15039 165.091 2.89546Z" fill="white"/>
<path d="M170.163 0.670166H178.798V2.5937H172.42V5.43264H178.145V7.35617H172.42V10.2415H179V12.165H170.163V0.670166Z" fill="white"/>
</svg>
